%
M48
M72
T01C0.01500
T02C0.02362
T03C0.03937
T04C0.04000
T05C0.04331
T06C0.05512
%
T01
X207509Y261643
X229162Y362036
X230146Y372863
X262627Y384674
X283296Y388611
X283296Y397469
X294123Y409280
X283296Y421091
X278375Y425028
X291170Y424044
X294123Y429950
X297076Y437824
X301997Y434871
X295107Y444713
X291170Y448650
X287233Y438808
X302981Y455540
X305934Y463414
X310855Y451603
X314792Y439792
X318729Y435855
X320698Y429950
X314792Y429950
X313808Y415186
X319713Y411249
X319713Y390580
X330540Y377784
X328572Y360068
X337430Y356131
X341367Y360068
X360068Y364005
X337430Y336446
X314792Y319713
X309871Y308887
X320698Y308887
X249831Y417154
X123847Y364005
X80540Y371879
X345304Y556918
X363020Y580540
X375816Y624831
X448650Y546091
X389595Y494910
X510658Y418139
X545107Y453572
X565776Y364989
X626800Y331524
X338414Y104162
X334477Y83493
T02
X211643Y462233
X205343Y467154
X199044Y472272
X194123Y478965
X200422Y485068
X222863Y467154
X231524Y474438
X245501Y487824
X252981Y494910
X257312Y501013
X258690Y509083
X251406Y515186
X243335Y521091
X234280Y516564
T03
X318606Y399923
X311535Y392852
T04
X419359Y237115
X419359Y227115
X429359Y227115
X429359Y237115
X439359Y237115
X439359Y227115
X486871Y180336
X479800Y173265
X472729Y166194
X465658Y159123
X493943Y187407
X501014Y194478
X512469Y204556
X519540Y211627
X526611Y218698
X533682Y225769
X540754Y232840
X547825Y239911
T05
X194382Y191895
X201453Y184824
X208524Y177753
X215595Y170682
X222666Y163611
X187311Y198966
X180240Y206037
X173169Y213108
X166098Y220180
X159027Y227251
X246997Y344438
X256997Y344438
T06
X298186Y365278
X339109Y406201
X406201Y339109
X365278Y298186
M30
