%
M48
M72
T01C0.01500
T02C0.02362
T03C0.03937
T04C0.04000
T05C0.04331
T06C0.05512
%
T01
X85317Y78357
X102020Y118723
X184840Y212679
X207807Y234254
X209199Y243998
X229383Y262789
X221727Y276013
X225903Y280188
X215463Y290628
X206416Y292716
X201544Y289236
X188320Y302460
X177881Y294804
X177185Y289097
X170225Y288540
X170364Y293969
X165353Y292020
X171339Y281024
X166049Y276013
X162569Y271141
X153661Y258057
X177046Y273090
X190408Y271141
X153104Y284225
X169529Y310115
X179969Y321947
X202240Y323339
X214767Y309419
X229383Y305939
X235090Y297170
X257221Y268357
X259309Y263485
X247478Y261397
X268357Y248870
X278101Y261397
X278101Y282276
X272533Y286452
X314987Y257917
X361617Y260005
X287148Y210591
X253742Y106196
X233558Y105500
X283668Y77661
X445134Y118027
X465317Y86708
X179412Y366767
X118027Y440958
X76965Y459749
X202936Y477148
X336562Y479932
X337258Y430518
X413815Y431910
X458357Y466709
T02
X137793Y290906
X101185Y294108
X100628Y302181
X99097Y309558
X96174Y316657
X87265Y315822
X78496Y315126
X72371Y310950
X72093Y302320
X100071Y275177
X99514Y266547
X97983Y257500
X93390Y250958
X86430Y247895
X78774Y248035
X70980Y248591
X71397Y257639
X138210Y203910
T03
X214337Y271837
X214337Y281837
T04
X400703Y237957
X407774Y245028
X414845Y252099
X421916Y245028
X414845Y237957
X407774Y230886
X488590Y235547
X488590Y245547
X488590Y255547
X488590Y265547
X489564Y280773
X489564Y290773
X489564Y300773
X489564Y310773
X489564Y320773
X489564Y330773
X488590Y225547
X488590Y215547
T05
X313595Y46899
X303595Y46899
X293595Y46899
X283595Y46899
X273595Y46899
X263595Y46899
X253595Y46899
X243595Y46899
X233595Y46899
X223595Y46899
X207251Y251681
X207251Y261681
T06
X224396Y242900
X224396Y300774
X319278Y300774
X319278Y242900
M30
