G75*
%MOIN*%
%OFA0B0*%
%FSLAX25Y25*%
%IPPOS*%
%LPD*%
%AMOC8*
5,1,8,0,0,1.08239X$1,22.5*
%
%ADD10R,0.01378X0.03150*%
%ADD11C,0.05937*%
%ADD12C,0.01956*%
%ADD13R,0.05906X0.04921*%
%ADD14R,0.07400X0.07400*%
%ADD15C,0.01480*%
%ADD16R,0.06496X0.06496*%
%ADD17C,0.06496*%
%ADD18C,0.07400*%
%ADD19C,0.01811*%
%ADD20R,0.02165X0.04724*%
%ADD21R,0.05315X0.00787*%
%ADD22R,0.00787X0.05315*%
%ADD23R,0.07874X0.07874*%
%ADD24R,0.11417X0.08071*%
%ADD25R,0.03937X0.05906*%
%ADD26R,0.03937X0.03937*%
%ADD27R,0.04000X0.10000*%
%ADD28R,0.07480X0.04331*%
%ADD29C,0.01959*%
%ADD30R,0.06150X0.01102*%
%ADD31R,0.01102X0.06150*%
%ADD32R,0.08268X0.05512*%
%ADD33C,0.01575*%
%ADD34C,0.01600*%
%ADD35C,0.00600*%
%ADD36C,0.05362*%
%ADD37C,0.04500*%
%ADD38C,0.01800*%
D10*
X0084038Y0280936D03*
X0086597Y0280936D03*
X0089156Y0280936D03*
X0089156Y0287236D03*
X0086597Y0287236D03*
X0084038Y0287236D03*
D11*
X0211368Y0281837D02*
X0217305Y0281837D01*
X0217305Y0271837D02*
X0211368Y0271837D01*
D12*
X0242528Y0276299D02*
X0244824Y0276299D01*
X0244824Y0272665D01*
X0242528Y0272665D01*
X0242528Y0276299D01*
X0242528Y0274620D02*
X0244824Y0274620D01*
X0249575Y0272665D02*
X0251871Y0272665D01*
X0249575Y0272665D02*
X0249575Y0276299D01*
X0251871Y0276299D01*
X0251871Y0272665D01*
X0251871Y0274620D02*
X0249575Y0274620D01*
X0249575Y0280459D02*
X0251871Y0280459D01*
X0249575Y0280459D02*
X0249575Y0284093D01*
X0251871Y0284093D01*
X0251871Y0280459D01*
X0251871Y0282414D02*
X0249575Y0282414D01*
X0244824Y0284093D02*
X0242528Y0284093D01*
X0244824Y0284093D02*
X0244824Y0280459D01*
X0242528Y0280459D01*
X0242528Y0284093D01*
X0242528Y0282414D02*
X0244824Y0282414D01*
X0244824Y0291888D02*
X0242528Y0291888D01*
X0244824Y0291888D02*
X0244824Y0288254D01*
X0242528Y0288254D01*
X0242528Y0291888D01*
X0242528Y0290209D02*
X0244824Y0290209D01*
X0249575Y0288254D02*
X0251871Y0288254D01*
X0249575Y0288254D02*
X0249575Y0291888D01*
X0251871Y0291888D01*
X0251871Y0288254D01*
X0251871Y0290209D02*
X0249575Y0290209D01*
X0249575Y0296049D02*
X0251871Y0296049D01*
X0249575Y0296049D02*
X0249575Y0299683D01*
X0251871Y0299683D01*
X0251871Y0296049D01*
X0251871Y0298004D02*
X0249575Y0298004D01*
X0244824Y0299683D02*
X0242528Y0299683D01*
X0244824Y0299683D02*
X0244824Y0296049D01*
X0242528Y0296049D01*
X0242528Y0299683D01*
X0242528Y0298004D02*
X0244824Y0298004D01*
X0244824Y0268504D02*
X0242528Y0268504D01*
X0244824Y0268504D02*
X0244824Y0264870D01*
X0242528Y0264870D01*
X0242528Y0268504D01*
X0242528Y0266825D02*
X0244824Y0266825D01*
X0249575Y0264870D02*
X0251871Y0264870D01*
X0249575Y0264870D02*
X0249575Y0268504D01*
X0251871Y0268504D01*
X0251871Y0264870D01*
X0251871Y0266825D02*
X0249575Y0266825D01*
X0201335Y0233147D02*
X0199712Y0234770D01*
X0202281Y0237339D01*
X0203904Y0235716D01*
X0201335Y0233147D01*
X0200044Y0235102D02*
X0203290Y0235102D01*
X0202563Y0237057D02*
X0201999Y0237057D01*
X0198921Y0240699D02*
X0197298Y0242322D01*
X0198921Y0240699D02*
X0196352Y0238130D01*
X0194729Y0239753D01*
X0197298Y0242322D01*
X0198307Y0240085D02*
X0195061Y0240085D01*
X0197016Y0242040D02*
X0197580Y0242040D01*
X0176093Y0219820D02*
X0174470Y0221443D01*
X0176093Y0219820D02*
X0173524Y0217251D01*
X0171901Y0218874D01*
X0174470Y0221443D01*
X0175479Y0219206D02*
X0172233Y0219206D01*
X0174188Y0221161D02*
X0174752Y0221161D01*
X0176884Y0213891D02*
X0178507Y0212268D01*
X0176884Y0213891D02*
X0179453Y0216460D01*
X0181076Y0214837D01*
X0178507Y0212268D01*
X0177216Y0214223D02*
X0180462Y0214223D01*
X0179735Y0216178D02*
X0179171Y0216178D01*
X0173635Y0210864D02*
X0175258Y0209241D01*
X0172689Y0206672D01*
X0171066Y0208295D01*
X0173635Y0210864D01*
X0174644Y0208627D02*
X0171398Y0208627D01*
X0173353Y0210582D02*
X0173917Y0210582D01*
X0176049Y0203312D02*
X0177672Y0201689D01*
X0176049Y0203312D02*
X0178618Y0205881D01*
X0180241Y0204258D01*
X0177672Y0201689D01*
X0176381Y0203644D02*
X0179627Y0203644D01*
X0178900Y0205599D02*
X0178336Y0205599D01*
X0143631Y0235986D02*
X0143631Y0238282D01*
X0147265Y0238282D01*
X0147265Y0235986D01*
X0143631Y0235986D01*
X0143631Y0237941D02*
X0147265Y0237941D01*
X0147265Y0243033D02*
X0147265Y0245329D01*
X0147265Y0243033D02*
X0143631Y0243033D01*
X0143631Y0245329D01*
X0147265Y0245329D01*
X0147265Y0244988D02*
X0143631Y0244988D01*
X0084335Y0266330D02*
X0084335Y0268626D01*
X0087969Y0268626D01*
X0087969Y0266330D01*
X0084335Y0266330D01*
X0084335Y0268285D02*
X0087969Y0268285D01*
X0087969Y0273377D02*
X0087969Y0275673D01*
X0087969Y0273377D02*
X0084335Y0273377D01*
X0084335Y0275673D01*
X0087969Y0275673D01*
X0087969Y0275332D02*
X0084335Y0275332D01*
X0080174Y0275673D02*
X0080174Y0273377D01*
X0076540Y0273377D01*
X0076540Y0275673D01*
X0080174Y0275673D01*
X0080174Y0275332D02*
X0076540Y0275332D01*
X0076540Y0268626D02*
X0076540Y0266330D01*
X0076540Y0268626D02*
X0080174Y0268626D01*
X0080174Y0266330D01*
X0076540Y0266330D01*
X0076540Y0268285D02*
X0080174Y0268285D01*
X0146972Y0325905D02*
X0146972Y0328201D01*
X0150606Y0328201D01*
X0150606Y0325905D01*
X0146972Y0325905D01*
X0146972Y0327860D02*
X0150606Y0327860D01*
X0150606Y0332952D02*
X0150606Y0335248D01*
X0150606Y0332952D02*
X0146972Y0332952D01*
X0146972Y0335248D01*
X0150606Y0335248D01*
X0150606Y0334907D02*
X0146972Y0334907D01*
X0155253Y0346035D02*
X0157549Y0346035D01*
X0157549Y0342401D01*
X0155253Y0342401D01*
X0155253Y0346035D01*
X0155253Y0344356D02*
X0157549Y0344356D01*
X0162300Y0342401D02*
X0164596Y0342401D01*
X0162300Y0342401D02*
X0162300Y0346035D01*
X0164596Y0346035D01*
X0164596Y0342401D01*
X0164596Y0344356D02*
X0162300Y0344356D01*
X0169033Y0346174D02*
X0171329Y0346174D01*
X0171329Y0342540D01*
X0169033Y0342540D01*
X0169033Y0346174D01*
X0169033Y0344495D02*
X0171329Y0344495D01*
X0176081Y0342540D02*
X0178377Y0342540D01*
X0176081Y0342540D02*
X0176081Y0346174D01*
X0178377Y0346174D01*
X0178377Y0342540D01*
X0178377Y0344495D02*
X0176081Y0344495D01*
X0189634Y0329192D02*
X0191930Y0329192D01*
X0191930Y0325558D01*
X0189634Y0325558D01*
X0189634Y0329192D01*
X0189634Y0327513D02*
X0191930Y0327513D01*
X0196681Y0325558D02*
X0198977Y0325558D01*
X0196681Y0325558D02*
X0196681Y0329192D01*
X0198977Y0329192D01*
X0198977Y0325558D01*
X0198977Y0327513D02*
X0196681Y0327513D01*
X0196681Y0316928D02*
X0198977Y0316928D01*
X0196681Y0316928D02*
X0196681Y0320562D01*
X0198977Y0320562D01*
X0198977Y0316928D01*
X0198977Y0318883D02*
X0196681Y0318883D01*
X0191930Y0320562D02*
X0189634Y0320562D01*
X0191930Y0320562D02*
X0191930Y0316928D01*
X0189634Y0316928D01*
X0189634Y0320562D01*
X0189634Y0318883D02*
X0191930Y0318883D01*
X0117281Y0429975D02*
X0118904Y0431598D01*
X0121473Y0429029D01*
X0119850Y0427406D01*
X0117281Y0429975D01*
X0117895Y0429361D02*
X0121141Y0429361D01*
X0119186Y0431316D02*
X0118622Y0431316D01*
X0124834Y0432389D02*
X0126457Y0434012D01*
X0124834Y0432389D02*
X0122265Y0434958D01*
X0123888Y0436581D01*
X0126457Y0434012D01*
X0126125Y0434344D02*
X0122879Y0434344D01*
X0123606Y0436299D02*
X0124170Y0436299D01*
X0425131Y0424388D02*
X0426754Y0422765D01*
X0424185Y0420196D01*
X0422562Y0421819D01*
X0425131Y0424388D01*
X0426140Y0422151D02*
X0422894Y0422151D01*
X0424849Y0424106D02*
X0425413Y0424106D01*
X0427545Y0416836D02*
X0429168Y0415213D01*
X0427545Y0416836D02*
X0430114Y0419405D01*
X0431737Y0417782D01*
X0429168Y0415213D01*
X0427877Y0417168D02*
X0431123Y0417168D01*
X0430396Y0419123D02*
X0429832Y0419123D01*
X0444153Y0252559D02*
X0442530Y0250936D01*
X0439961Y0253505D01*
X0441584Y0255128D01*
X0444153Y0252559D01*
X0443821Y0252891D02*
X0440575Y0252891D01*
X0441302Y0254846D02*
X0441866Y0254846D01*
X0436601Y0250145D02*
X0434978Y0248522D01*
X0436601Y0250145D02*
X0439170Y0247576D01*
X0437547Y0245953D01*
X0434978Y0248522D01*
X0435592Y0247908D02*
X0438838Y0247908D01*
X0436883Y0249863D02*
X0436319Y0249863D01*
X0425947Y0112084D02*
X0424324Y0110461D01*
X0421755Y0113030D01*
X0423378Y0114653D01*
X0425947Y0112084D01*
X0425615Y0112416D02*
X0422369Y0112416D01*
X0423096Y0114371D02*
X0423660Y0114371D01*
X0418395Y0109670D02*
X0416772Y0108047D01*
X0418395Y0109670D02*
X0420964Y0107101D01*
X0419341Y0105478D01*
X0416772Y0108047D01*
X0417386Y0107433D02*
X0420632Y0107433D01*
X0418677Y0109388D02*
X0418113Y0109388D01*
X0112919Y0116892D02*
X0111296Y0118515D01*
X0113865Y0121084D01*
X0115488Y0119461D01*
X0112919Y0116892D01*
X0111628Y0118847D02*
X0114874Y0118847D01*
X0114147Y0120802D02*
X0113583Y0120802D01*
X0110505Y0124444D02*
X0108882Y0126067D01*
X0110505Y0124444D02*
X0107936Y0121875D01*
X0106313Y0123498D01*
X0108882Y0126067D01*
X0109891Y0123830D02*
X0106645Y0123830D01*
X0108600Y0125785D02*
X0109164Y0125785D01*
D13*
X0209368Y0476970D03*
X0219210Y0476970D03*
X0336591Y0474464D03*
X0346434Y0474464D03*
D14*
G36*
X0413006Y0230886D02*
X0407774Y0225654D01*
X0402542Y0230886D01*
X0407774Y0236118D01*
X0413006Y0230886D01*
G37*
D15*
X0417064Y0238443D02*
X0417804Y0239183D01*
X0417804Y0236731D01*
X0416071Y0234998D01*
X0413619Y0234998D01*
X0411886Y0236731D01*
X0411886Y0239183D01*
X0413619Y0240916D01*
X0416071Y0240916D01*
X0417804Y0239183D01*
X0416694Y0238723D01*
X0416694Y0237191D01*
X0415611Y0236108D01*
X0414079Y0236108D01*
X0412996Y0237191D01*
X0412996Y0238723D01*
X0414079Y0239806D01*
X0415611Y0239806D01*
X0416694Y0238723D01*
X0415584Y0238263D01*
X0415584Y0237651D01*
X0415151Y0237218D01*
X0414539Y0237218D01*
X0414106Y0237651D01*
X0414106Y0238263D01*
X0414539Y0238696D01*
X0415151Y0238696D01*
X0415584Y0238263D01*
X0424135Y0245514D02*
X0424875Y0246254D01*
X0424875Y0243802D01*
X0423142Y0242069D01*
X0420690Y0242069D01*
X0418957Y0243802D01*
X0418957Y0246254D01*
X0420690Y0247987D01*
X0423142Y0247987D01*
X0424875Y0246254D01*
X0423765Y0245794D01*
X0423765Y0244262D01*
X0422682Y0243179D01*
X0421150Y0243179D01*
X0420067Y0244262D01*
X0420067Y0245794D01*
X0421150Y0246877D01*
X0422682Y0246877D01*
X0423765Y0245794D01*
X0422655Y0245334D01*
X0422655Y0244722D01*
X0422222Y0244289D01*
X0421610Y0244289D01*
X0421177Y0244722D01*
X0421177Y0245334D01*
X0421610Y0245767D01*
X0422222Y0245767D01*
X0422655Y0245334D01*
X0417064Y0252585D02*
X0417804Y0253325D01*
X0417804Y0250873D01*
X0416071Y0249140D01*
X0413619Y0249140D01*
X0411886Y0250873D01*
X0411886Y0253325D01*
X0413619Y0255058D01*
X0416071Y0255058D01*
X0417804Y0253325D01*
X0416694Y0252865D01*
X0416694Y0251333D01*
X0415611Y0250250D01*
X0414079Y0250250D01*
X0412996Y0251333D01*
X0412996Y0252865D01*
X0414079Y0253948D01*
X0415611Y0253948D01*
X0416694Y0252865D01*
X0415584Y0252405D01*
X0415584Y0251793D01*
X0415151Y0251360D01*
X0414539Y0251360D01*
X0414106Y0251793D01*
X0414106Y0252405D01*
X0414539Y0252838D01*
X0415151Y0252838D01*
X0415584Y0252405D01*
X0409993Y0245514D02*
X0410733Y0246254D01*
X0410733Y0243802D01*
X0409000Y0242069D01*
X0406548Y0242069D01*
X0404815Y0243802D01*
X0404815Y0246254D01*
X0406548Y0247987D01*
X0409000Y0247987D01*
X0410733Y0246254D01*
X0409623Y0245794D01*
X0409623Y0244262D01*
X0408540Y0243179D01*
X0407008Y0243179D01*
X0405925Y0244262D01*
X0405925Y0245794D01*
X0407008Y0246877D01*
X0408540Y0246877D01*
X0409623Y0245794D01*
X0408513Y0245334D01*
X0408513Y0244722D01*
X0408080Y0244289D01*
X0407468Y0244289D01*
X0407035Y0244722D01*
X0407035Y0245334D01*
X0407468Y0245767D01*
X0408080Y0245767D01*
X0408513Y0245334D01*
X0402922Y0238443D02*
X0403662Y0239183D01*
X0403662Y0236731D01*
X0401929Y0234998D01*
X0399477Y0234998D01*
X0397744Y0236731D01*
X0397744Y0239183D01*
X0399477Y0240916D01*
X0401929Y0240916D01*
X0403662Y0239183D01*
X0402552Y0238723D01*
X0402552Y0237191D01*
X0401469Y0236108D01*
X0399937Y0236108D01*
X0398854Y0237191D01*
X0398854Y0238723D01*
X0399937Y0239806D01*
X0401469Y0239806D01*
X0402552Y0238723D01*
X0401442Y0238263D01*
X0401442Y0237651D01*
X0401009Y0237218D01*
X0400397Y0237218D01*
X0399964Y0237651D01*
X0399964Y0238263D01*
X0400397Y0238696D01*
X0401009Y0238696D01*
X0401442Y0238263D01*
D16*
X0207251Y0251681D03*
X0313595Y0046899D03*
D17*
X0303595Y0046899D03*
X0293595Y0046899D03*
X0283595Y0046899D03*
X0273595Y0046899D03*
X0263595Y0046899D03*
X0253595Y0046899D03*
X0243595Y0046899D03*
X0233595Y0046899D03*
X0223595Y0046899D03*
X0207251Y0261681D03*
D18*
X0488590Y0265547D03*
X0488590Y0255547D03*
X0488590Y0245547D03*
X0488590Y0235547D03*
X0488590Y0225547D03*
X0488590Y0215547D03*
X0489564Y0280773D03*
X0489564Y0290773D03*
X0489564Y0300773D03*
X0489564Y0310773D03*
X0489564Y0320773D03*
X0489564Y0330773D03*
D19*
X0438717Y0257988D02*
X0437435Y0256706D01*
X0434875Y0259266D01*
X0436157Y0260548D01*
X0438717Y0257988D01*
X0438189Y0258516D02*
X0435625Y0258516D01*
X0435935Y0260326D02*
X0436379Y0260326D01*
X0430840Y0255231D02*
X0429558Y0253949D01*
X0430840Y0255231D02*
X0433400Y0252671D01*
X0432118Y0251389D01*
X0429558Y0253949D01*
X0430308Y0253199D02*
X0432872Y0253199D01*
X0431062Y0255009D02*
X0430618Y0255009D01*
X0427858Y0127896D02*
X0429140Y0126614D01*
X0426580Y0124054D01*
X0425298Y0125336D01*
X0427858Y0127896D01*
X0428390Y0125864D02*
X0425826Y0125864D01*
X0427636Y0127674D02*
X0428080Y0127674D01*
X0430616Y0120019D02*
X0431898Y0118737D01*
X0430616Y0120019D02*
X0433176Y0122579D01*
X0434458Y0121297D01*
X0431898Y0118737D01*
X0431144Y0120547D02*
X0433708Y0120547D01*
X0433398Y0122357D02*
X0432954Y0122357D01*
X0433595Y0104429D02*
X0432313Y0103147D01*
X0429753Y0105707D01*
X0431035Y0106989D01*
X0433595Y0104429D01*
X0433067Y0104957D02*
X0430503Y0104957D01*
X0430813Y0106767D02*
X0431257Y0106767D01*
X0425717Y0101672D02*
X0424435Y0100390D01*
X0425717Y0101672D02*
X0428277Y0099112D01*
X0426995Y0097830D01*
X0424435Y0100390D01*
X0425185Y0099640D02*
X0427749Y0099640D01*
X0425939Y0101450D02*
X0425495Y0101450D01*
X0277920Y0233657D02*
X0276638Y0232375D01*
X0274078Y0234935D01*
X0275360Y0236217D01*
X0277920Y0233657D01*
X0277392Y0234185D02*
X0274828Y0234185D01*
X0275138Y0235995D02*
X0275582Y0235995D01*
X0270043Y0230900D02*
X0268761Y0229618D01*
X0270043Y0230900D02*
X0272603Y0228340D01*
X0271321Y0227058D01*
X0268761Y0229618D01*
X0269511Y0228868D02*
X0272075Y0228868D01*
X0270265Y0230678D02*
X0269821Y0230678D01*
X0266283Y0234437D02*
X0265001Y0233155D01*
X0262441Y0235715D01*
X0263723Y0236997D01*
X0266283Y0234437D01*
X0265755Y0234965D02*
X0263191Y0234965D01*
X0263501Y0236775D02*
X0263945Y0236775D01*
X0258406Y0231679D02*
X0257124Y0230397D01*
X0258406Y0231679D02*
X0260966Y0229119D01*
X0259684Y0227837D01*
X0257124Y0230397D01*
X0257874Y0229647D02*
X0260438Y0229647D01*
X0258628Y0231457D02*
X0258184Y0231457D01*
X0127367Y0117569D02*
X0126085Y0116287D01*
X0123525Y0118847D01*
X0124807Y0120129D01*
X0127367Y0117569D01*
X0126839Y0118097D02*
X0124275Y0118097D01*
X0124585Y0119907D02*
X0125029Y0119907D01*
X0119490Y0114812D02*
X0118208Y0113530D01*
X0119490Y0114812D02*
X0122050Y0112252D01*
X0120768Y0110970D01*
X0118208Y0113530D01*
X0118958Y0112780D02*
X0121522Y0112780D01*
X0119712Y0114590D02*
X0119268Y0114590D01*
X0099641Y0105681D02*
X0098359Y0106963D01*
X0100919Y0109523D01*
X0102201Y0108241D01*
X0099641Y0105681D01*
X0098887Y0107491D02*
X0101451Y0107491D01*
X0101141Y0109301D02*
X0100697Y0109301D01*
X0096884Y0113558D02*
X0095602Y0114840D01*
X0096884Y0113558D02*
X0094324Y0110998D01*
X0093042Y0112280D01*
X0095602Y0114840D01*
X0096134Y0112808D02*
X0093570Y0112808D01*
X0095380Y0114618D02*
X0095824Y0114618D01*
X0118098Y0413829D02*
X0116816Y0415111D01*
X0119376Y0417671D01*
X0120658Y0416389D01*
X0118098Y0413829D01*
X0117344Y0415639D02*
X0119908Y0415639D01*
X0119598Y0417449D02*
X0119154Y0417449D01*
X0115341Y0421706D02*
X0114059Y0422988D01*
X0115341Y0421706D02*
X0112781Y0419146D01*
X0111499Y0420428D01*
X0114059Y0422988D01*
X0114591Y0420956D02*
X0112027Y0420956D01*
X0113837Y0422766D02*
X0114281Y0422766D01*
X0105152Y0442669D02*
X0106434Y0443951D01*
X0108994Y0441391D01*
X0107712Y0440109D01*
X0105152Y0442669D01*
X0105902Y0441919D02*
X0108466Y0441919D01*
X0106656Y0443729D02*
X0106212Y0443729D01*
X0113029Y0445426D02*
X0114311Y0446708D01*
X0113029Y0445426D02*
X0110469Y0447986D01*
X0111751Y0449268D01*
X0114311Y0446708D01*
X0113783Y0447236D02*
X0111219Y0447236D01*
X0111529Y0449046D02*
X0111973Y0449046D01*
X0187081Y0471370D02*
X0188363Y0472652D01*
X0190923Y0470092D01*
X0189641Y0468810D01*
X0187081Y0471370D01*
X0187831Y0470620D02*
X0190395Y0470620D01*
X0188585Y0472430D02*
X0188141Y0472430D01*
X0194959Y0474128D02*
X0196241Y0475410D01*
X0194959Y0474128D02*
X0192399Y0476688D01*
X0193681Y0477970D01*
X0196241Y0475410D01*
X0195713Y0475938D02*
X0193149Y0475938D01*
X0193459Y0477748D02*
X0193903Y0477748D01*
X0358290Y0454389D02*
X0359572Y0455671D01*
X0362132Y0453111D01*
X0360850Y0451829D01*
X0358290Y0454389D01*
X0359040Y0453639D02*
X0361604Y0453639D01*
X0359794Y0455449D02*
X0359350Y0455449D01*
X0366167Y0457146D02*
X0367449Y0458428D01*
X0366167Y0457146D02*
X0363607Y0459706D01*
X0364889Y0460988D01*
X0367449Y0458428D01*
X0366921Y0458956D02*
X0364357Y0458956D01*
X0364667Y0460766D02*
X0365111Y0460766D01*
X0411685Y0423766D02*
X0412967Y0425048D01*
X0415527Y0422488D01*
X0414245Y0421206D01*
X0411685Y0423766D01*
X0412435Y0423016D02*
X0414999Y0423016D01*
X0413189Y0424826D02*
X0412745Y0424826D01*
X0419562Y0426523D02*
X0420844Y0427805D01*
X0419562Y0426523D02*
X0417002Y0429083D01*
X0418284Y0430365D01*
X0420844Y0427805D01*
X0420316Y0428333D02*
X0417752Y0428333D01*
X0418062Y0430143D02*
X0418506Y0430143D01*
X0438409Y0436880D02*
X0439691Y0435598D01*
X0437131Y0433038D01*
X0435849Y0434320D01*
X0438409Y0436880D01*
X0438941Y0434848D02*
X0436377Y0434848D01*
X0438187Y0436658D02*
X0438631Y0436658D01*
X0441166Y0429002D02*
X0442448Y0427720D01*
X0441166Y0429002D02*
X0443726Y0431562D01*
X0445008Y0430280D01*
X0442448Y0427720D01*
X0441694Y0429530D02*
X0444258Y0429530D01*
X0443948Y0431340D02*
X0443504Y0431340D01*
D20*
G36*
X0196463Y0227503D02*
X0197993Y0225973D01*
X0194653Y0222633D01*
X0193123Y0224163D01*
X0196463Y0227503D01*
G37*
G36*
X0193819Y0230147D02*
X0195349Y0228617D01*
X0192009Y0225277D01*
X0190479Y0226807D01*
X0193819Y0230147D01*
G37*
G36*
X0191174Y0232792D02*
X0192704Y0231262D01*
X0189364Y0227922D01*
X0187834Y0229452D01*
X0191174Y0232792D01*
G37*
G36*
X0183936Y0225554D02*
X0185466Y0224024D01*
X0182126Y0220684D01*
X0180596Y0222214D01*
X0183936Y0225554D01*
G37*
G36*
X0189225Y0220264D02*
X0190755Y0218734D01*
X0187415Y0215394D01*
X0185885Y0216924D01*
X0189225Y0220264D01*
G37*
D21*
X0264986Y0265892D03*
X0264986Y0267585D03*
X0264986Y0269278D03*
X0264986Y0270971D03*
X0264986Y0272664D03*
X0264986Y0274357D03*
X0264986Y0276049D03*
X0264986Y0277742D03*
X0278687Y0277782D03*
X0278687Y0276089D03*
X0278687Y0274396D03*
X0278687Y0272703D03*
X0278687Y0271010D03*
X0278687Y0269317D03*
X0278687Y0267624D03*
X0278687Y0265931D03*
D22*
X0274396Y0264002D03*
X0272703Y0264002D03*
X0271010Y0264002D03*
X0269317Y0264002D03*
X0269278Y0279632D03*
X0270971Y0279632D03*
X0272664Y0279632D03*
X0274357Y0279632D03*
D23*
G36*
X0061654Y0074459D02*
X0067221Y0080026D01*
X0072788Y0074459D01*
X0067221Y0068892D01*
X0061654Y0074459D01*
G37*
G36*
X0070006Y0066108D02*
X0075573Y0071675D01*
X0081140Y0066108D01*
X0075573Y0060541D01*
X0070006Y0066108D01*
G37*
G36*
X0468657Y0060541D02*
X0463090Y0066108D01*
X0468657Y0071675D01*
X0474224Y0066108D01*
X0468657Y0060541D01*
G37*
G36*
X0477009Y0068892D02*
X0471442Y0074459D01*
X0477009Y0080026D01*
X0482576Y0074459D01*
X0477009Y0068892D01*
G37*
G36*
X0482855Y0469493D02*
X0477288Y0463926D01*
X0471721Y0469493D01*
X0477288Y0475060D01*
X0482855Y0469493D01*
G37*
G36*
X0474503Y0477844D02*
X0468936Y0472277D01*
X0463369Y0477844D01*
X0468936Y0483411D01*
X0474503Y0477844D01*
G37*
G36*
X0075016Y0484803D02*
X0080583Y0479236D01*
X0075016Y0473669D01*
X0069449Y0479236D01*
X0075016Y0484803D01*
G37*
G36*
X0066665Y0476452D02*
X0072232Y0470885D01*
X0066665Y0465318D01*
X0061098Y0470885D01*
X0066665Y0476452D01*
G37*
D24*
G36*
X0102993Y0459609D02*
X0094922Y0451538D01*
X0089215Y0457245D01*
X0097286Y0465316D01*
X0102993Y0459609D01*
G37*
G36*
X0457716Y0441683D02*
X0449645Y0449754D01*
X0455352Y0455461D01*
X0463423Y0447390D01*
X0457716Y0441683D01*
G37*
G36*
X0435809Y0087545D02*
X0443880Y0095616D01*
X0449587Y0089909D01*
X0441516Y0081838D01*
X0435809Y0087545D01*
G37*
G36*
X0083452Y0103773D02*
X0091523Y0095702D01*
X0085816Y0089995D01*
X0077745Y0098066D01*
X0083452Y0103773D01*
G37*
D25*
G36*
X0088323Y0108645D02*
X0091106Y0105862D01*
X0086931Y0101687D01*
X0084148Y0104470D01*
X0088323Y0108645D01*
G37*
G36*
X0093613Y0103355D02*
X0096396Y0100572D01*
X0092221Y0096397D01*
X0089438Y0099180D01*
X0093613Y0103355D01*
G37*
G36*
X0430937Y0092415D02*
X0433720Y0095198D01*
X0437895Y0091023D01*
X0435112Y0088240D01*
X0430937Y0092415D01*
G37*
G36*
X0436226Y0097705D02*
X0439009Y0100488D01*
X0443184Y0096313D01*
X0440401Y0093530D01*
X0436226Y0097705D01*
G37*
G36*
X0452845Y0436811D02*
X0450062Y0439594D01*
X0454237Y0443769D01*
X0457020Y0440986D01*
X0452845Y0436811D01*
G37*
G36*
X0447556Y0442100D02*
X0444773Y0444883D01*
X0448948Y0449058D01*
X0451731Y0446275D01*
X0447556Y0442100D01*
G37*
G36*
X0107865Y0454738D02*
X0105082Y0451955D01*
X0100907Y0456130D01*
X0103690Y0458913D01*
X0107865Y0454738D01*
G37*
G36*
X0102576Y0449449D02*
X0099793Y0446666D01*
X0095618Y0450841D01*
X0098401Y0453624D01*
X0102576Y0449449D01*
G37*
D26*
X0220057Y0265175D03*
X0220057Y0261238D03*
D27*
X0070478Y0284086D03*
X0044478Y0284086D03*
D28*
X0159155Y0326250D03*
X0159155Y0335305D03*
X0173722Y0335305D03*
X0173722Y0326250D03*
D29*
X0089159Y0430372D02*
X0083946Y0435585D01*
X0089325Y0440964D01*
X0094538Y0435751D01*
X0089159Y0430372D01*
X0091117Y0432330D02*
X0087201Y0432330D01*
X0085243Y0434288D02*
X0093075Y0434288D01*
X0094043Y0436246D02*
X0084607Y0436246D01*
X0086565Y0438204D02*
X0092085Y0438204D01*
X0090127Y0440162D02*
X0088523Y0440162D01*
X0077166Y0453123D02*
X0071953Y0458336D01*
X0077166Y0453123D02*
X0071787Y0447744D01*
X0066574Y0452957D01*
X0071953Y0458336D01*
X0073745Y0449702D02*
X0069829Y0449702D01*
X0067871Y0451660D02*
X0075703Y0451660D01*
X0076671Y0453618D02*
X0067235Y0453618D01*
X0069193Y0455576D02*
X0074713Y0455576D01*
X0072755Y0457534D02*
X0071151Y0457534D01*
X0429370Y0454905D02*
X0434583Y0460118D01*
X0439962Y0454739D01*
X0434749Y0449526D01*
X0429370Y0454905D01*
X0432791Y0451484D02*
X0436707Y0451484D01*
X0438665Y0453442D02*
X0430833Y0453442D01*
X0429865Y0455400D02*
X0439301Y0455400D01*
X0437343Y0457358D02*
X0431823Y0457358D01*
X0433781Y0459316D02*
X0435385Y0459316D01*
X0452121Y0466897D02*
X0457334Y0472110D01*
X0452121Y0466897D02*
X0446742Y0472276D01*
X0451955Y0477489D01*
X0457334Y0472110D01*
X0454079Y0468855D02*
X0450163Y0468855D01*
X0448205Y0470813D02*
X0456037Y0470813D01*
X0456673Y0472771D02*
X0447237Y0472771D01*
X0449195Y0474729D02*
X0454715Y0474729D01*
X0452757Y0476687D02*
X0451153Y0476687D01*
X0453067Y0115918D02*
X0458280Y0110705D01*
X0452901Y0105326D01*
X0447688Y0110539D01*
X0453067Y0115918D01*
X0454859Y0107284D02*
X0450943Y0107284D01*
X0448985Y0109242D02*
X0456817Y0109242D01*
X0457785Y0111200D02*
X0448349Y0111200D01*
X0450307Y0113158D02*
X0455827Y0113158D01*
X0453869Y0115116D02*
X0452265Y0115116D01*
X0465060Y0093168D02*
X0470273Y0087955D01*
X0465060Y0093168D02*
X0470439Y0098547D01*
X0475652Y0093334D01*
X0470273Y0087955D01*
X0472231Y0089913D02*
X0468315Y0089913D01*
X0466357Y0091871D02*
X0474189Y0091871D01*
X0475157Y0093829D02*
X0465721Y0093829D01*
X0467679Y0095787D02*
X0473199Y0095787D01*
X0471241Y0097745D02*
X0469637Y0097745D01*
X0114470Y0090105D02*
X0109257Y0084892D01*
X0103878Y0090271D01*
X0109091Y0095484D01*
X0114470Y0090105D01*
X0111215Y0086850D02*
X0107299Y0086850D01*
X0105341Y0088808D02*
X0113173Y0088808D01*
X0113809Y0090766D02*
X0104373Y0090766D01*
X0106331Y0092724D02*
X0111851Y0092724D01*
X0109893Y0094682D02*
X0108289Y0094682D01*
X0091720Y0078113D02*
X0086507Y0072900D01*
X0091720Y0078113D02*
X0097099Y0072734D01*
X0091886Y0067521D01*
X0086507Y0072900D01*
X0089928Y0069479D02*
X0093844Y0069479D01*
X0095802Y0071437D02*
X0087970Y0071437D01*
X0087002Y0073395D02*
X0096438Y0073395D01*
X0094480Y0075353D02*
X0088960Y0075353D01*
X0090918Y0077311D02*
X0092522Y0077311D01*
D30*
X0145998Y0269601D03*
X0145998Y0271569D03*
X0145998Y0273538D03*
X0145998Y0275506D03*
X0145998Y0277475D03*
X0145998Y0279443D03*
X0145998Y0281412D03*
X0145998Y0283380D03*
X0145998Y0285349D03*
X0145998Y0287317D03*
X0145998Y0289286D03*
X0145998Y0291254D03*
X0145998Y0293223D03*
X0145998Y0295191D03*
X0145998Y0297160D03*
X0145998Y0299128D03*
X0184431Y0299128D03*
X0184431Y0297160D03*
X0184431Y0295191D03*
X0184431Y0293223D03*
X0184431Y0291254D03*
X0184431Y0289286D03*
X0184431Y0287317D03*
X0184431Y0285349D03*
X0184431Y0283380D03*
X0184431Y0281412D03*
X0184431Y0279443D03*
X0184431Y0277475D03*
X0184431Y0275506D03*
X0184431Y0273538D03*
X0184431Y0271569D03*
X0184431Y0269601D03*
D31*
X0179978Y0265148D03*
X0178009Y0265148D03*
X0176041Y0265148D03*
X0174072Y0265148D03*
X0172104Y0265148D03*
X0170135Y0265148D03*
X0168167Y0265148D03*
X0166198Y0265148D03*
X0164230Y0265148D03*
X0162261Y0265148D03*
X0160293Y0265148D03*
X0158324Y0265148D03*
X0156356Y0265148D03*
X0154387Y0265148D03*
X0152419Y0265148D03*
X0150450Y0265148D03*
X0150450Y0303581D03*
X0152419Y0303581D03*
X0154387Y0303581D03*
X0156356Y0303581D03*
X0158324Y0303581D03*
X0160293Y0303581D03*
X0162261Y0303581D03*
X0164230Y0303581D03*
X0166198Y0303581D03*
X0168167Y0303581D03*
X0170135Y0303581D03*
X0172104Y0303581D03*
X0174072Y0303581D03*
X0176041Y0303581D03*
X0178009Y0303581D03*
X0179978Y0303581D03*
D32*
X0344400Y0260094D03*
X0344400Y0242378D03*
X0380226Y0242378D03*
X0380226Y0260094D03*
D33*
X0462088Y0082086D02*
X0459723Y0079721D01*
X0458608Y0080836D01*
X0460973Y0083201D01*
X0462088Y0082086D01*
X0461297Y0081295D02*
X0459067Y0081295D01*
X0460641Y0082869D02*
X0461305Y0082869D01*
X0451702Y0073931D02*
X0449337Y0071566D01*
X0451702Y0073931D02*
X0452817Y0072816D01*
X0450452Y0070451D01*
X0449337Y0071566D01*
X0449796Y0072025D02*
X0452026Y0072025D01*
X0452034Y0073599D02*
X0451370Y0073599D01*
X0081390Y0081168D02*
X0079025Y0083533D01*
X0080140Y0084648D01*
X0082505Y0082283D01*
X0081390Y0081168D01*
X0082046Y0082742D02*
X0079816Y0082742D01*
X0079808Y0084316D02*
X0080472Y0084316D01*
X0073235Y0091554D02*
X0070870Y0093919D01*
X0073235Y0091554D02*
X0072120Y0090439D01*
X0069755Y0092804D01*
X0070870Y0093919D01*
X0070546Y0092013D02*
X0072776Y0092013D01*
X0071202Y0093587D02*
X0070538Y0093587D01*
X0080473Y0464372D02*
X0082838Y0466737D01*
X0083953Y0465622D01*
X0081588Y0463257D01*
X0080473Y0464372D01*
X0080932Y0464831D02*
X0083162Y0464831D01*
X0083170Y0466405D02*
X0082506Y0466405D01*
X0090858Y0472527D02*
X0093223Y0474892D01*
X0090858Y0472527D02*
X0089743Y0473642D01*
X0092108Y0476007D01*
X0093223Y0474892D01*
X0092432Y0474101D02*
X0090202Y0474101D01*
X0091776Y0475675D02*
X0092440Y0475675D01*
X0462562Y0464454D02*
X0464927Y0462089D01*
X0463812Y0460974D01*
X0461447Y0463339D01*
X0462562Y0464454D01*
X0462238Y0462548D02*
X0464468Y0462548D01*
X0462894Y0464122D02*
X0462230Y0464122D01*
X0470717Y0454069D02*
X0473082Y0451704D01*
X0470717Y0454069D02*
X0471832Y0455184D01*
X0474197Y0452819D01*
X0473082Y0451704D01*
X0473738Y0453278D02*
X0471508Y0453278D01*
X0471500Y0454852D02*
X0472164Y0454852D01*
D34*
X0106196Y0307192D02*
X0106196Y0288819D01*
X0095060Y0289375D01*
X0095339Y0292994D01*
X0095895Y0293551D01*
X0083646Y0293551D01*
X0080862Y0296335D01*
X0070284Y0296335D01*
X0070074Y0296125D01*
X0069523Y0296125D01*
X0068056Y0296335D01*
X0068196Y0318745D01*
X0073624Y0319163D01*
X0082533Y0319163D01*
X0083089Y0319720D01*
X0092555Y0319720D01*
X0093111Y0320276D01*
X0099793Y0320276D01*
X0100906Y0319163D01*
X0100906Y0316379D01*
X0102577Y0314709D01*
X0102577Y0312482D01*
X0104525Y0310533D01*
X0104525Y0308863D01*
X0106196Y0307192D01*
X0106196Y0306608D02*
X0068120Y0306608D01*
X0068110Y0305010D02*
X0106196Y0305010D01*
X0106196Y0303411D02*
X0068100Y0303411D01*
X0068090Y0301813D02*
X0106196Y0301813D01*
X0106196Y0300214D02*
X0068081Y0300214D01*
X0068071Y0298616D02*
X0106196Y0298616D01*
X0106196Y0297017D02*
X0068061Y0297017D01*
X0068130Y0308207D02*
X0105181Y0308207D01*
X0104525Y0309805D02*
X0068140Y0309805D01*
X0068150Y0311404D02*
X0103655Y0311404D01*
X0102577Y0313002D02*
X0068160Y0313002D01*
X0068170Y0314601D02*
X0102577Y0314601D01*
X0101086Y0316199D02*
X0068180Y0316199D01*
X0068190Y0317798D02*
X0100906Y0317798D01*
X0100673Y0319396D02*
X0082766Y0319396D01*
X0081779Y0295419D02*
X0106196Y0295419D01*
X0106196Y0293820D02*
X0083377Y0293820D01*
X0095279Y0292222D02*
X0106196Y0292222D01*
X0106196Y0290623D02*
X0095156Y0290623D01*
X0102076Y0289024D02*
X0106196Y0289024D01*
X0105639Y0279353D02*
X0094225Y0278518D01*
X0093111Y0264042D01*
X0090188Y0261119D01*
X0072928Y0260562D01*
X0070005Y0263764D01*
X0070559Y0270412D01*
X0070503Y0270468D01*
X0067536Y0271629D01*
X0067363Y0271629D01*
X0067639Y0263624D01*
X0066943Y0252350D01*
X0066386Y0244833D01*
X0067221Y0243998D01*
X0093668Y0242884D01*
X0102298Y0255412D01*
X0105639Y0279353D01*
X0105427Y0277835D02*
X0094172Y0277835D01*
X0094049Y0276236D02*
X0105204Y0276236D01*
X0104981Y0274638D02*
X0093926Y0274638D01*
X0093804Y0273039D02*
X0104758Y0273039D01*
X0104535Y0271441D02*
X0093681Y0271441D01*
X0093558Y0269842D02*
X0104312Y0269842D01*
X0104089Y0268244D02*
X0093435Y0268244D01*
X0093312Y0266645D02*
X0103866Y0266645D01*
X0103643Y0265047D02*
X0093189Y0265047D01*
X0092518Y0263448D02*
X0103420Y0263448D01*
X0103197Y0261850D02*
X0090919Y0261850D01*
X0102974Y0260251D02*
X0067431Y0260251D01*
X0067332Y0258653D02*
X0102750Y0258653D01*
X0102527Y0257054D02*
X0067233Y0257054D01*
X0067135Y0255456D02*
X0102304Y0255456D01*
X0101227Y0253857D02*
X0067036Y0253857D01*
X0066936Y0252259D02*
X0100126Y0252259D01*
X0099025Y0250660D02*
X0066818Y0250660D01*
X0066699Y0249062D02*
X0097924Y0249062D01*
X0096822Y0247463D02*
X0066581Y0247463D01*
X0066463Y0245865D02*
X0095721Y0245865D01*
X0094620Y0244266D02*
X0066953Y0244266D01*
X0067529Y0261850D02*
X0071753Y0261850D01*
X0070293Y0263448D02*
X0067628Y0263448D01*
X0067590Y0265047D02*
X0070112Y0265047D01*
X0070245Y0266645D02*
X0067535Y0266645D01*
X0067480Y0268244D02*
X0070379Y0268244D01*
X0070512Y0269842D02*
X0067424Y0269842D01*
X0067369Y0271441D02*
X0068017Y0271441D01*
D35*
X0078357Y0267478D02*
X0079053Y0266965D01*
X0079053Y0261397D01*
X0079073Y0260760D01*
X0086026Y0260985D02*
X0086013Y0261397D01*
X0086013Y0266965D01*
X0086152Y0267478D01*
X0086152Y0274525D02*
X0086708Y0274621D01*
X0086708Y0280188D01*
X0086597Y0280936D01*
X0089156Y0280936D02*
X0091600Y0283380D01*
X0145998Y0283380D01*
X0145998Y0281412D02*
X0146107Y0281302D01*
X0150181Y0281302D01*
X0153104Y0284225D01*
X0152826Y0284225D01*
X0149763Y0287287D01*
X0149346Y0287287D01*
X0149346Y0287148D01*
X0156306Y0294108D01*
X0156306Y0302460D01*
X0156356Y0303581D01*
X0156306Y0303852D01*
X0156306Y0309419D01*
X0144474Y0321251D01*
X0144474Y0329602D01*
X0148650Y0333778D01*
X0148789Y0334100D01*
X0148650Y0335170D01*
X0152826Y0339346D01*
X0152826Y0324035D01*
X0162569Y0314291D01*
X0162569Y0304547D01*
X0162261Y0303581D01*
X0160293Y0303581D02*
X0160293Y0299586D01*
X0161177Y0298701D01*
X0162848Y0298701D01*
X0170364Y0293969D01*
X0170135Y0299586D01*
X0170135Y0303581D01*
X0168167Y0303581D02*
X0168137Y0304547D01*
X0168137Y0308723D01*
X0169529Y0310115D01*
X0164518Y0308167D02*
X0164518Y0303869D01*
X0164230Y0303581D01*
X0166198Y0303581D02*
X0166379Y0303762D01*
X0166379Y0326085D01*
X0170181Y0329887D01*
X0170181Y0335305D01*
X0170181Y0335305D01*
X0173722Y0335305D01*
X0170181Y0335305D02*
X0170181Y0344357D01*
X0173705Y0342130D02*
X0177185Y0338650D01*
X0178577Y0338650D01*
X0178577Y0321947D01*
X0179969Y0321947D01*
X0178577Y0321947D02*
X0178577Y0308027D01*
X0177881Y0307331D01*
X0177881Y0304547D01*
X0178009Y0303581D01*
X0176041Y0303581D02*
X0175793Y0302460D01*
X0175793Y0298284D01*
X0173705Y0296196D01*
X0173705Y0292020D01*
X0170225Y0288540D01*
X0168137Y0285060D02*
X0165353Y0287844D01*
X0165353Y0292020D01*
X0168137Y0285060D02*
X0172313Y0285060D01*
X0175097Y0282276D01*
X0175097Y0279493D01*
X0170225Y0274621D01*
X0170225Y0266269D01*
X0170135Y0265148D01*
X0168167Y0265148D02*
X0168137Y0264181D01*
X0168137Y0261397D01*
X0170225Y0259309D01*
X0192496Y0259309D01*
X0209199Y0276013D01*
X0221727Y0276013D01*
X0225903Y0280188D02*
X0220335Y0285756D01*
X0209199Y0285756D01*
X0207112Y0283668D01*
X0207112Y0282276D01*
X0185536Y0260701D01*
X0173009Y0260701D01*
X0172313Y0261397D01*
X0172313Y0264181D01*
X0172104Y0265148D01*
X0166198Y0265148D02*
X0166049Y0266269D01*
X0166049Y0276013D01*
X0162569Y0271141D02*
X0162569Y0265573D01*
X0162261Y0265148D01*
X0163961Y0264181D02*
X0163961Y0255829D01*
X0145866Y0237734D01*
X0145448Y0237134D01*
X0146562Y0237038D01*
X0173705Y0209895D01*
X0173162Y0208768D01*
X0173566Y0209478D01*
X0178437Y0214350D01*
X0178980Y0214364D01*
X0179273Y0214071D01*
X0192914Y0227712D01*
X0188320Y0217829D02*
X0188320Y0217551D01*
X0184144Y0213375D01*
X0184840Y0212679D01*
X0184144Y0213375D02*
X0177881Y0207112D01*
X0177881Y0204328D01*
X0178145Y0203785D01*
X0179133Y0219221D02*
X0174958Y0219221D01*
X0173997Y0219347D01*
X0179133Y0219221D02*
X0183031Y0223119D01*
X0207807Y0234254D02*
X0259309Y0234254D01*
X0259309Y0253742D01*
X0269053Y0263485D01*
X0269317Y0264002D01*
X0271010Y0264002D02*
X0271141Y0262789D01*
X0271141Y0251654D01*
X0268357Y0248870D01*
X0264877Y0245390D01*
X0264877Y0235646D01*
X0264362Y0235076D01*
X0265573Y0234950D01*
X0270445Y0230079D01*
X0270682Y0228979D01*
X0276013Y0234254D02*
X0275999Y0234296D01*
X0276013Y0235646D01*
X0272533Y0239126D01*
X0272533Y0262789D01*
X0272703Y0264002D01*
X0274396Y0264002D02*
X0274621Y0264877D01*
X0277405Y0267661D01*
X0278687Y0267624D01*
X0278797Y0267661D01*
X0278797Y0269053D01*
X0278687Y0269317D01*
X0278797Y0267661D02*
X0278797Y0266269D01*
X0278687Y0265931D01*
X0278797Y0266269D02*
X0282276Y0269749D01*
X0425646Y0269749D01*
X0436782Y0258613D01*
X0436796Y0258627D01*
X0431910Y0253742D02*
X0431479Y0253310D01*
X0426342Y0248174D01*
X0417295Y0257221D01*
X0396416Y0257221D01*
X0381104Y0241910D01*
X0380226Y0242378D01*
X0379712Y0241910D01*
X0344914Y0241910D01*
X0344400Y0242378D01*
X0343522Y0241910D01*
X0324035Y0261397D01*
X0278101Y0261397D01*
X0282276Y0269749D02*
X0282276Y0278101D01*
X0279493Y0278101D01*
X0278687Y0277782D01*
X0278101Y0278101D01*
X0278101Y0282276D01*
X0278101Y0286452D01*
X0262789Y0301764D01*
X0248870Y0301764D01*
X0247478Y0300372D01*
X0247478Y0293412D01*
X0250262Y0290628D01*
X0250723Y0290071D01*
X0250958Y0289932D01*
X0250958Y0282972D01*
X0250723Y0282276D01*
X0250958Y0281580D01*
X0260005Y0272533D01*
X0264181Y0272533D01*
X0264986Y0272664D01*
X0264877Y0273229D02*
X0264877Y0274621D01*
X0264986Y0274357D01*
X0264877Y0273229D02*
X0264181Y0272533D01*
X0264181Y0271141D02*
X0260005Y0271141D01*
X0257221Y0268357D01*
X0259309Y0264877D02*
X0259309Y0263485D01*
X0259309Y0264877D02*
X0262093Y0267661D01*
X0264877Y0267661D01*
X0264986Y0267585D01*
X0264877Y0267661D02*
X0264877Y0269053D01*
X0264986Y0269278D01*
X0264986Y0270971D02*
X0264181Y0271141D01*
X0260005Y0272533D02*
X0255830Y0272533D01*
X0250958Y0267661D01*
X0250723Y0266687D01*
X0250958Y0266269D01*
X0257221Y0260005D01*
X0261397Y0260005D01*
X0262789Y0261397D01*
X0262789Y0264181D01*
X0264181Y0265573D01*
X0264986Y0265892D01*
X0264877Y0276013D02*
X0264986Y0276049D01*
X0264877Y0276013D02*
X0262093Y0276013D01*
X0254438Y0283668D01*
X0254438Y0293412D01*
X0250958Y0296892D01*
X0250723Y0297866D01*
X0243676Y0297866D02*
X0235786Y0297866D01*
X0235090Y0297170D01*
X0229383Y0298980D02*
X0233558Y0303156D01*
X0293412Y0303156D01*
X0413119Y0422863D01*
X0413606Y0423127D01*
X0365528Y0459067D02*
X0364401Y0459053D01*
X0349090Y0474364D01*
X0347698Y0474364D01*
X0346434Y0474464D01*
X0360211Y0453750D02*
X0360225Y0453485D01*
X0337258Y0430518D01*
X0219210Y0476970D02*
X0218247Y0477148D01*
X0214767Y0480628D01*
X0199456Y0480628D01*
X0195280Y0476452D01*
X0194320Y0476049D01*
X0189002Y0470731D02*
X0179412Y0461141D01*
X0179412Y0366767D01*
X0177229Y0364584D01*
X0177229Y0344357D01*
X0177185Y0344218D01*
X0179969Y0341434D01*
X0179969Y0338650D01*
X0190408Y0328210D01*
X0190782Y0327375D01*
X0190782Y0318745D01*
X0197829Y0318745D02*
X0197829Y0323339D01*
X0202240Y0323339D01*
X0197829Y0323339D02*
X0197829Y0327375D01*
X0206416Y0309419D02*
X0214767Y0309419D01*
X0206416Y0309419D02*
X0193888Y0296892D01*
X0185536Y0296892D01*
X0184431Y0297160D01*
X0184431Y0295191D02*
X0184840Y0294804D01*
X0194584Y0294804D01*
X0205720Y0305939D01*
X0229383Y0305939D01*
X0229383Y0298980D02*
X0226599Y0296196D01*
X0204328Y0296196D01*
X0202240Y0294108D01*
X0196672Y0294108D01*
X0187624Y0285060D01*
X0184840Y0285060D01*
X0184431Y0285349D01*
X0185536Y0281580D02*
X0184431Y0281412D01*
X0185536Y0281580D02*
X0188320Y0281580D01*
X0199456Y0292716D01*
X0206416Y0292716D01*
X0211287Y0290628D02*
X0215463Y0290628D01*
X0211287Y0290628D02*
X0198064Y0277405D01*
X0185536Y0277405D01*
X0184431Y0277475D01*
X0184431Y0279443D02*
X0184840Y0279493D01*
X0191800Y0279493D01*
X0201544Y0289236D01*
X0188320Y0302460D02*
X0179969Y0302460D01*
X0179978Y0303581D01*
X0177881Y0294804D02*
X0179273Y0293412D01*
X0183448Y0293412D01*
X0184431Y0293223D01*
X0184431Y0291254D02*
X0179342Y0291254D01*
X0177185Y0289097D01*
X0171339Y0281024D02*
X0146562Y0277405D01*
X0145998Y0277475D01*
X0145998Y0279443D02*
X0145866Y0279493D01*
X0145866Y0280884D01*
X0145998Y0281412D01*
X0145998Y0285349D02*
X0091043Y0285349D01*
X0089156Y0287236D01*
X0086597Y0287236D02*
X0086013Y0287844D01*
X0086013Y0293551D01*
X0101185Y0294108D02*
X0103273Y0292020D01*
X0128049Y0292020D01*
X0131251Y0291324D01*
X0133617Y0290906D01*
X0137793Y0290906D01*
X0145998Y0287317D02*
X0146027Y0287287D01*
X0149346Y0287287D01*
X0158324Y0303581D02*
X0158394Y0303650D01*
X0158394Y0309280D01*
X0148789Y0318884D01*
X0148789Y0327053D01*
X0159155Y0326250D02*
X0159283Y0326123D01*
X0163796Y0326123D01*
X0163796Y0308889D01*
X0164518Y0308167D01*
X0163796Y0326123D02*
X0163796Y0337843D01*
X0163448Y0338190D01*
X0163448Y0344218D01*
X0173705Y0342130D02*
X0173705Y0360225D01*
X0118723Y0415207D01*
X0118737Y0415750D01*
X0156401Y0344218D02*
X0157002Y0343522D01*
X0152826Y0339346D01*
X0177046Y0273090D02*
X0178566Y0271569D01*
X0184431Y0271569D01*
X0184840Y0269749D02*
X0184431Y0269601D01*
X0184840Y0269749D02*
X0187624Y0269749D01*
X0189016Y0271141D01*
X0190408Y0271141D01*
X0189016Y0271141D02*
X0189016Y0272533D01*
X0187624Y0273925D01*
X0184840Y0273925D01*
X0184431Y0273538D01*
X0164230Y0265148D02*
X0163961Y0264181D01*
X0160293Y0265148D02*
X0159785Y0265573D01*
X0158394Y0265573D01*
X0158324Y0265148D01*
X0158394Y0264181D01*
X0158394Y0257221D01*
X0145866Y0244694D01*
X0145448Y0244181D01*
X0141690Y0246086D02*
X0141690Y0241910D01*
X0145866Y0237734D01*
X0141690Y0246086D02*
X0153661Y0258057D01*
X0152419Y0259299D01*
X0152419Y0265148D01*
X0152130Y0264877D01*
X0150738Y0264877D01*
X0150450Y0265148D01*
X0156356Y0265148D02*
X0156356Y0260751D01*
X0153661Y0258057D01*
X0138210Y0203910D02*
X0138210Y0106196D01*
X0126379Y0118027D01*
X0125446Y0118208D01*
X0138210Y0106196D02*
X0139602Y0104804D01*
X0159090Y0104804D01*
X0221727Y0042166D01*
X0278797Y0042166D01*
X0282972Y0046342D01*
X0283595Y0046899D01*
X0293595Y0046899D02*
X0294804Y0047038D01*
X0299676Y0042166D01*
X0317771Y0042166D01*
X0380408Y0104804D01*
X0405463Y0104804D01*
X0426342Y0125683D01*
X0427219Y0125975D01*
X0427038Y0126379D01*
X0427038Y0145866D01*
X0314987Y0257917D01*
X0344400Y0260094D02*
X0344914Y0260005D01*
X0361617Y0260005D01*
X0379712Y0260005D01*
X0380226Y0260094D01*
X0421916Y0245028D02*
X0422863Y0244694D01*
X0426342Y0248174D01*
X0431910Y0253742D02*
X0436782Y0248870D01*
X0437074Y0248049D01*
X0442057Y0253032D02*
X0442350Y0253046D01*
X0469493Y0280188D01*
X0488980Y0280188D01*
X0489564Y0280773D01*
X0494548Y0271837D02*
X0488980Y0266269D01*
X0488590Y0265547D01*
X0494548Y0271837D02*
X0494548Y0324731D01*
X0489676Y0329602D01*
X0489564Y0330773D01*
X0287148Y0210591D02*
X0287148Y0064437D01*
X0303852Y0047734D01*
X0303595Y0046899D01*
X0283668Y0077661D02*
X0259309Y0102020D01*
X0259309Y0228687D01*
X0259045Y0229758D01*
X0259309Y0230079D01*
X0259309Y0234254D01*
X0276013Y0234254D02*
X0277405Y0232862D01*
X0277405Y0220335D01*
X0287148Y0210591D01*
X0235646Y0259309D02*
X0243302Y0266965D01*
X0243676Y0266687D01*
X0243998Y0267661D01*
X0243998Y0274621D01*
X0243676Y0274482D01*
X0243302Y0275317D01*
X0243302Y0282276D01*
X0243676Y0282276D01*
X0243302Y0282276D02*
X0243302Y0289236D01*
X0243676Y0290071D01*
X0243302Y0290628D01*
X0243302Y0297588D01*
X0243676Y0297866D01*
X0229383Y0298980D02*
X0229383Y0262789D01*
X0235646Y0259309D02*
X0223119Y0259309D01*
X0222145Y0259449D01*
X0220057Y0261238D01*
X0247478Y0261397D02*
X0247478Y0271141D01*
X0250262Y0273925D01*
X0250723Y0274482D01*
X0264986Y0277742D02*
X0265573Y0278101D01*
X0268357Y0278101D01*
X0269053Y0278797D01*
X0269278Y0279632D01*
X0269053Y0280188D01*
X0270445Y0280188D01*
X0271141Y0279493D01*
X0270971Y0279632D01*
X0270445Y0280188D02*
X0271837Y0280188D01*
X0272533Y0279493D01*
X0272664Y0279632D01*
X0272533Y0280884D01*
X0272533Y0286452D01*
X0271837Y0280188D02*
X0274621Y0280188D01*
X0274357Y0279632D01*
X0253742Y0106196D02*
X0253742Y0047734D01*
X0253595Y0046899D01*
D36*
X0138210Y0203910D03*
X0093390Y0250958D03*
X0097983Y0257500D03*
X0099514Y0266547D03*
X0100071Y0275177D03*
X0101185Y0294108D03*
X0100628Y0302181D03*
X0099097Y0309558D03*
X0096174Y0316657D03*
X0087265Y0315822D03*
X0078496Y0315126D03*
X0072371Y0310950D03*
X0072093Y0302320D03*
X0071397Y0257639D03*
X0070980Y0248591D03*
X0078774Y0248035D03*
X0086430Y0247895D03*
X0137793Y0290906D03*
D37*
X0153104Y0284225D03*
X0165353Y0292020D03*
X0170364Y0293969D03*
X0170225Y0288540D03*
X0177185Y0289097D03*
X0177881Y0294804D03*
X0188320Y0302460D03*
X0201544Y0289236D03*
X0206416Y0292716D03*
X0215463Y0290628D03*
X0225903Y0280188D03*
X0221727Y0276013D03*
X0229383Y0262789D03*
X0247478Y0261397D03*
X0257221Y0268357D03*
X0259309Y0263485D03*
X0268357Y0248870D03*
X0278101Y0261397D03*
X0278101Y0282276D03*
X0272533Y0286452D03*
X0235090Y0297170D03*
X0229383Y0305939D03*
X0214767Y0309419D03*
X0202240Y0323339D03*
X0179969Y0321947D03*
X0169529Y0310115D03*
X0171339Y0281024D03*
X0166049Y0276013D03*
X0162569Y0271141D03*
X0153661Y0258057D03*
X0177046Y0273090D03*
X0190408Y0271141D03*
X0209199Y0243998D03*
X0207807Y0234254D03*
X0184840Y0212679D03*
X0102020Y0118723D03*
X0085317Y0078357D03*
X0233558Y0105500D03*
X0253742Y0106196D03*
X0283668Y0077661D03*
X0287148Y0210591D03*
X0314987Y0257917D03*
X0361617Y0260005D03*
X0445134Y0118027D03*
X0465317Y0086708D03*
X0179412Y0366767D03*
X0118027Y0440958D03*
X0076965Y0459749D03*
X0202936Y0477148D03*
X0336562Y0479932D03*
X0337258Y0430518D03*
X0413815Y0431910D03*
X0458357Y0466709D03*
D38*
X0457661Y0467405D01*
X0468101Y0477844D01*
X0468936Y0477844D01*
X0477288Y0469493D02*
X0476452Y0468101D01*
X0456965Y0448614D01*
X0456534Y0448572D01*
X0448252Y0445579D02*
X0447918Y0445134D01*
X0438174Y0435390D01*
X0437770Y0434959D01*
X0437478Y0434694D01*
X0424951Y0422167D01*
X0424658Y0422292D01*
X0424255Y0422863D01*
X0419383Y0427734D01*
X0418923Y0428444D01*
X0414511Y0427038D02*
X0414511Y0431910D01*
X0413815Y0431910D01*
X0414511Y0431910D02*
X0414511Y0433998D01*
X0434694Y0454181D01*
X0434666Y0454822D01*
X0452789Y0440262D02*
X0443046Y0430518D01*
X0443087Y0429641D01*
X0442350Y0429822D01*
X0429822Y0417295D01*
X0429641Y0417309D01*
X0428430Y0417295D01*
X0422863Y0417295D01*
X0420079Y0420079D01*
X0420079Y0421471D01*
X0414511Y0427038D01*
X0452789Y0440262D02*
X0453541Y0440290D01*
X0472457Y0453444D02*
X0472277Y0454181D01*
X0477148Y0459053D01*
X0477148Y0468797D01*
X0477288Y0469493D01*
X0463187Y0462714D02*
X0462533Y0462533D01*
X0458357Y0466709D01*
X0457661Y0467405D02*
X0452789Y0472277D01*
X0452038Y0472193D01*
X0336591Y0474464D02*
X0336562Y0475756D01*
X0336562Y0479932D01*
X0209368Y0476970D02*
X0208503Y0477148D01*
X0202936Y0477148D01*
X0124291Y0434694D02*
X0124361Y0434485D01*
X0124291Y0433302D01*
X0124291Y0426342D01*
X0114547Y0416599D01*
X0108980Y0416599D01*
X0090188Y0435390D01*
X0089242Y0435668D01*
X0099097Y0450145D02*
X0106892Y0442350D01*
X0107073Y0442030D01*
X0107588Y0441654D01*
X0119419Y0429822D01*
X0119377Y0429502D01*
X0119419Y0428430D01*
X0113155Y0422167D01*
X0113420Y0421067D01*
X0124291Y0434694D02*
X0118027Y0440958D01*
X0112459Y0446526D01*
X0112390Y0447347D01*
X0112459Y0447918D01*
X0104804Y0455573D01*
X0104386Y0455434D01*
X0096104Y0458427D02*
X0095060Y0459749D01*
X0075573Y0479236D01*
X0075016Y0479236D01*
X0067221Y0470885D02*
X0066665Y0470885D01*
X0067221Y0470885D02*
X0077661Y0460445D01*
X0082213Y0464997D01*
X0077661Y0460445D02*
X0076965Y0459749D01*
X0072093Y0454877D01*
X0072093Y0453485D01*
X0071870Y0453040D01*
X0095756Y0459053D02*
X0096104Y0458427D01*
X0095756Y0459053D02*
X0095756Y0468797D01*
X0090884Y0473668D01*
X0091483Y0474267D01*
X0071397Y0284364D02*
X0070478Y0284086D01*
X0071397Y0284364D02*
X0079749Y0276013D01*
X0078357Y0274525D01*
X0078357Y0274621D01*
X0079749Y0276013D01*
X0083925Y0280188D01*
X0084038Y0280936D01*
X0190269Y0230357D02*
X0196533Y0236621D01*
X0197229Y0236621D01*
X0197229Y0227573D01*
X0195141Y0225485D01*
X0195558Y0225068D01*
X0197229Y0236621D02*
X0197229Y0240101D01*
X0196825Y0240226D01*
X0196672Y0241214D01*
X0207112Y0251654D01*
X0207251Y0251681D01*
X0209199Y0243998D02*
X0216159Y0250958D01*
X0216159Y0269053D01*
X0214337Y0271837D01*
X0214071Y0271141D01*
X0216159Y0269053D01*
X0219639Y0265573D01*
X0220057Y0265175D01*
X0209199Y0243998D02*
X0201544Y0236342D01*
X0201808Y0235243D01*
X0114547Y0124291D02*
X0108980Y0124291D01*
X0108409Y0123971D01*
X0107588Y0124291D01*
X0102020Y0118723D01*
X0095756Y0112459D01*
X0094963Y0112919D01*
X0094364Y0112459D01*
X0087404Y0105500D01*
X0087627Y0105166D01*
X0092917Y0099876D02*
X0099932Y0106892D01*
X0100280Y0107602D01*
X0100628Y0107588D01*
X0112459Y0119419D01*
X0113392Y0118988D01*
X0113851Y0119419D01*
X0120115Y0113155D01*
X0120129Y0112891D01*
X0124987Y0113851D02*
X0114547Y0124291D01*
X0124987Y0113851D02*
X0124987Y0106892D01*
X0108980Y0090884D01*
X0109174Y0090188D01*
X0091803Y0072817D02*
X0090884Y0072789D01*
X0086013Y0077661D01*
X0075573Y0067221D01*
X0075573Y0066108D01*
X0067221Y0074459D02*
X0067221Y0075573D01*
X0072093Y0080445D01*
X0072093Y0091580D01*
X0071495Y0092179D01*
X0072093Y0091580D02*
X0076965Y0096452D01*
X0083925Y0096452D01*
X0084635Y0096884D01*
X0080765Y0082908D02*
X0085317Y0078357D01*
X0086013Y0077661D01*
X0418687Y0108284D02*
X0418868Y0107574D01*
X0419383Y0107588D01*
X0426342Y0100628D01*
X0426356Y0099751D01*
X0427038Y0099932D01*
X0434694Y0092276D01*
X0434416Y0091719D01*
X0439705Y0097009D02*
X0431910Y0104804D01*
X0431674Y0105068D01*
X0431214Y0105500D01*
X0424255Y0112459D01*
X0423851Y0112557D01*
X0424255Y0112459D02*
X0431910Y0120115D01*
X0432537Y0120658D01*
X0431214Y0124987D02*
X0423559Y0117331D01*
X0422167Y0117331D01*
X0418687Y0113851D01*
X0418687Y0108284D01*
X0431214Y0124987D02*
X0438174Y0124987D01*
X0445134Y0118027D01*
X0452093Y0111067D01*
X0452984Y0110622D01*
X0470356Y0093251D02*
X0470189Y0092972D01*
X0470189Y0091580D01*
X0465317Y0086708D01*
X0477148Y0074877D01*
X0477009Y0074459D01*
X0468657Y0066108D02*
X0468101Y0065829D01*
X0461837Y0072093D01*
X0452093Y0072093D01*
X0451077Y0072191D01*
X0451397Y0072789D01*
X0443046Y0081141D01*
X0443046Y0088100D01*
X0442698Y0088727D01*
X0460445Y0081837D02*
X0460348Y0081461D01*
X0460445Y0081837D02*
X0465317Y0086708D01*
M02*
