G75*
%MOIN*%
%OFA0B0*%
%FSLAX25Y25*%
%IPPOS*%
%LPD*%
%AMOC8*
5,1,8,0,0,1.08239X$1,22.5*
%
%ADD10C,0.01600*%
%ADD11C,0.00500*%
%ADD12C,0.00400*%
%ADD13C,0.00000*%
D10*
X0143532Y0230146D02*
X0230146Y0143532D01*
X0320698Y0143532D01*
X0320698Y0001800D01*
X0349044Y0001800D01*
X0349044Y0017548D01*
X0355343Y0017548D02*
X0355343Y0001800D01*
X0383690Y0001800D01*
X0383690Y0143532D01*
X0474241Y0143532D01*
X0560855Y0230146D01*
X0560855Y0320698D01*
X0702587Y0320698D01*
X0702587Y0349044D01*
X0686839Y0349044D01*
X0686839Y0355343D02*
X0702587Y0355343D01*
X0702587Y0383690D01*
X0560855Y0383690D01*
X0560855Y0474241D01*
X0474241Y0560855D01*
X0383690Y0560855D01*
X0383690Y0702587D01*
X0355343Y0702587D01*
X0355343Y0686839D01*
X0349044Y0686839D02*
X0349044Y0702587D01*
X0320698Y0702587D01*
X0320698Y0560855D01*
X0230146Y0560855D01*
X0143532Y0474241D01*
X0143532Y0383690D01*
X0001800Y0383690D01*
X0001800Y0355343D01*
X0017548Y0355343D01*
X0017548Y0349044D02*
X0001800Y0349044D01*
X0001800Y0320698D01*
X0143532Y0320698D01*
X0143532Y0230146D01*
X0017547Y0349044D02*
X0017629Y0348649D01*
X0017721Y0348255D01*
X0017822Y0347864D01*
X0017933Y0347475D01*
X0018053Y0347090D01*
X0018183Y0346707D01*
X0018322Y0346328D01*
X0018470Y0345952D01*
X0018627Y0345580D01*
X0018794Y0345211D01*
X0018969Y0344847D01*
X0019153Y0344488D01*
X0019346Y0344133D01*
X0019548Y0343783D01*
X0019758Y0343438D01*
X0019976Y0343098D01*
X0020203Y0342763D01*
X0020438Y0342434D01*
X0020681Y0342112D01*
X0020932Y0341795D01*
X0021190Y0341484D01*
X0021456Y0341180D01*
X0021729Y0340882D01*
X0022010Y0340591D01*
X0022297Y0340307D01*
X0022592Y0340031D01*
X0022893Y0339761D01*
X0023200Y0339499D01*
X0023514Y0339245D01*
X0023834Y0338998D01*
X0024160Y0338759D01*
X0024492Y0338528D01*
X0024829Y0338306D01*
X0025172Y0338092D01*
X0025519Y0337886D01*
X0025872Y0337689D01*
X0026229Y0337500D01*
X0026591Y0337321D01*
X0026957Y0337150D01*
X0027328Y0336988D01*
X0027702Y0336835D01*
X0028079Y0336692D01*
X0028461Y0336558D01*
X0028845Y0336433D01*
X0029232Y0336318D01*
X0029622Y0336212D01*
X0030014Y0336115D01*
X0030409Y0336029D01*
X0030806Y0335952D01*
X0031204Y0335885D01*
X0031604Y0335827D01*
X0032005Y0335780D01*
X0032408Y0335742D01*
X0032811Y0335714D01*
X0033214Y0335696D01*
X0033618Y0335688D01*
X0034022Y0335689D01*
X0034426Y0335701D01*
X0034830Y0335722D01*
X0035233Y0335754D01*
X0035634Y0335795D01*
X0036035Y0335846D01*
X0036435Y0335907D01*
X0036833Y0335977D01*
X0037229Y0336057D01*
X0037622Y0336147D01*
X0038014Y0336247D01*
X0038403Y0336356D01*
X0038789Y0336475D01*
X0039173Y0336603D01*
X0039553Y0336740D01*
X0039929Y0336887D01*
X0040302Y0337043D01*
X0040671Y0337207D01*
X0041036Y0337381D01*
X0041396Y0337564D01*
X0041752Y0337755D01*
X0042103Y0337956D01*
X0042449Y0338164D01*
X0042789Y0338381D01*
X0043125Y0338607D01*
X0043455Y0338840D01*
X0043778Y0339082D01*
X0044096Y0339331D01*
X0044408Y0339588D01*
X0044713Y0339853D01*
X0045012Y0340125D01*
X0045304Y0340404D01*
X0045589Y0340690D01*
X0045867Y0340984D01*
X0046138Y0341283D01*
X0046401Y0341590D01*
X0046657Y0341903D01*
X0046905Y0342222D01*
X0047145Y0342547D01*
X0047377Y0342877D01*
X0047601Y0343214D01*
X0047817Y0343555D01*
X0048024Y0343902D01*
X0048223Y0344254D01*
X0048413Y0344611D01*
X0048594Y0344972D01*
X0048767Y0345337D01*
X0048930Y0345707D01*
X0049084Y0346080D01*
X0049229Y0346457D01*
X0049365Y0346838D01*
X0049491Y0347222D01*
X0049608Y0347608D01*
X0049716Y0347998D01*
X0049814Y0348390D01*
X0049902Y0348784D01*
X0049981Y0349181D01*
X0050050Y0349579D01*
X0050109Y0349978D01*
X0050158Y0350379D01*
X0050197Y0350782D01*
X0050227Y0351184D01*
X0050247Y0351588D01*
X0050257Y0351992D01*
X0050257Y0352396D01*
X0050247Y0352800D01*
X0050227Y0353204D01*
X0050197Y0353606D01*
X0050158Y0354009D01*
X0050109Y0354410D01*
X0050050Y0354809D01*
X0049981Y0355207D01*
X0049902Y0355604D01*
X0049814Y0355998D01*
X0049716Y0356390D01*
X0049608Y0356780D01*
X0049491Y0357166D01*
X0049365Y0357550D01*
X0049229Y0357931D01*
X0049084Y0358308D01*
X0048930Y0358681D01*
X0048767Y0359051D01*
X0048594Y0359416D01*
X0048413Y0359777D01*
X0048223Y0360134D01*
X0048024Y0360486D01*
X0047817Y0360833D01*
X0047601Y0361174D01*
X0047377Y0361511D01*
X0047145Y0361841D01*
X0046905Y0362166D01*
X0046657Y0362485D01*
X0046401Y0362798D01*
X0046138Y0363105D01*
X0045867Y0363404D01*
X0045589Y0363698D01*
X0045304Y0363984D01*
X0045012Y0364263D01*
X0044713Y0364535D01*
X0044408Y0364800D01*
X0044096Y0365057D01*
X0043778Y0365306D01*
X0043455Y0365548D01*
X0043125Y0365781D01*
X0042789Y0366007D01*
X0042449Y0366224D01*
X0042103Y0366432D01*
X0041752Y0366633D01*
X0041396Y0366824D01*
X0041036Y0367007D01*
X0040671Y0367181D01*
X0040302Y0367345D01*
X0039929Y0367501D01*
X0039553Y0367648D01*
X0039173Y0367785D01*
X0038789Y0367913D01*
X0038403Y0368032D01*
X0038014Y0368141D01*
X0037622Y0368241D01*
X0037229Y0368331D01*
X0036833Y0368411D01*
X0036435Y0368481D01*
X0036035Y0368542D01*
X0035634Y0368593D01*
X0035233Y0368634D01*
X0034830Y0368666D01*
X0034426Y0368687D01*
X0034022Y0368699D01*
X0033618Y0368700D01*
X0033214Y0368692D01*
X0032811Y0368674D01*
X0032408Y0368646D01*
X0032005Y0368608D01*
X0031604Y0368561D01*
X0031204Y0368503D01*
X0030806Y0368436D01*
X0030409Y0368359D01*
X0030014Y0368273D01*
X0029622Y0368176D01*
X0029232Y0368070D01*
X0028845Y0367955D01*
X0028461Y0367830D01*
X0028079Y0367696D01*
X0027702Y0367553D01*
X0027328Y0367400D01*
X0026957Y0367238D01*
X0026591Y0367067D01*
X0026229Y0366888D01*
X0025872Y0366699D01*
X0025519Y0366502D01*
X0025172Y0366296D01*
X0024829Y0366082D01*
X0024492Y0365860D01*
X0024160Y0365629D01*
X0023834Y0365390D01*
X0023514Y0365143D01*
X0023200Y0364889D01*
X0022893Y0364627D01*
X0022592Y0364357D01*
X0022297Y0364081D01*
X0022010Y0363797D01*
X0021729Y0363506D01*
X0021456Y0363208D01*
X0021190Y0362904D01*
X0020932Y0362593D01*
X0020681Y0362276D01*
X0020438Y0361954D01*
X0020203Y0361625D01*
X0019976Y0361290D01*
X0019758Y0360950D01*
X0019548Y0360605D01*
X0019346Y0360255D01*
X0019153Y0359900D01*
X0018969Y0359541D01*
X0018794Y0359177D01*
X0018627Y0358808D01*
X0018470Y0358436D01*
X0018322Y0358060D01*
X0018183Y0357681D01*
X0018053Y0357298D01*
X0017933Y0356913D01*
X0017822Y0356524D01*
X0017721Y0356133D01*
X0017629Y0355739D01*
X0017547Y0355344D01*
X0349044Y0686840D02*
X0348649Y0686758D01*
X0348255Y0686666D01*
X0347864Y0686565D01*
X0347475Y0686454D01*
X0347090Y0686334D01*
X0346707Y0686204D01*
X0346328Y0686065D01*
X0345952Y0685917D01*
X0345580Y0685760D01*
X0345211Y0685593D01*
X0344847Y0685418D01*
X0344488Y0685234D01*
X0344133Y0685041D01*
X0343783Y0684839D01*
X0343438Y0684629D01*
X0343098Y0684411D01*
X0342763Y0684184D01*
X0342434Y0683949D01*
X0342112Y0683706D01*
X0341795Y0683455D01*
X0341484Y0683197D01*
X0341180Y0682931D01*
X0340882Y0682658D01*
X0340591Y0682377D01*
X0340307Y0682090D01*
X0340031Y0681795D01*
X0339761Y0681494D01*
X0339499Y0681187D01*
X0339245Y0680873D01*
X0338998Y0680553D01*
X0338759Y0680227D01*
X0338528Y0679895D01*
X0338306Y0679558D01*
X0338092Y0679215D01*
X0337886Y0678868D01*
X0337689Y0678515D01*
X0337500Y0678158D01*
X0337321Y0677796D01*
X0337150Y0677430D01*
X0336988Y0677059D01*
X0336835Y0676685D01*
X0336692Y0676308D01*
X0336558Y0675926D01*
X0336433Y0675542D01*
X0336318Y0675155D01*
X0336212Y0674765D01*
X0336115Y0674373D01*
X0336029Y0673978D01*
X0335952Y0673581D01*
X0335885Y0673183D01*
X0335827Y0672783D01*
X0335780Y0672382D01*
X0335742Y0671979D01*
X0335714Y0671576D01*
X0335696Y0671173D01*
X0335688Y0670769D01*
X0335689Y0670365D01*
X0335701Y0669961D01*
X0335722Y0669557D01*
X0335754Y0669154D01*
X0335795Y0668753D01*
X0335846Y0668352D01*
X0335907Y0667952D01*
X0335977Y0667554D01*
X0336057Y0667158D01*
X0336147Y0666765D01*
X0336247Y0666373D01*
X0336356Y0665984D01*
X0336475Y0665598D01*
X0336603Y0665214D01*
X0336740Y0664834D01*
X0336887Y0664458D01*
X0337043Y0664085D01*
X0337207Y0663716D01*
X0337381Y0663351D01*
X0337564Y0662991D01*
X0337755Y0662635D01*
X0337956Y0662284D01*
X0338164Y0661938D01*
X0338381Y0661598D01*
X0338607Y0661262D01*
X0338840Y0660932D01*
X0339082Y0660609D01*
X0339331Y0660291D01*
X0339588Y0659979D01*
X0339853Y0659674D01*
X0340125Y0659375D01*
X0340404Y0659083D01*
X0340690Y0658798D01*
X0340984Y0658520D01*
X0341283Y0658249D01*
X0341590Y0657986D01*
X0341903Y0657730D01*
X0342222Y0657482D01*
X0342547Y0657242D01*
X0342877Y0657010D01*
X0343214Y0656786D01*
X0343555Y0656570D01*
X0343902Y0656363D01*
X0344254Y0656164D01*
X0344611Y0655974D01*
X0344972Y0655793D01*
X0345337Y0655620D01*
X0345707Y0655457D01*
X0346080Y0655303D01*
X0346457Y0655158D01*
X0346838Y0655022D01*
X0347222Y0654896D01*
X0347608Y0654779D01*
X0347998Y0654671D01*
X0348390Y0654573D01*
X0348784Y0654485D01*
X0349181Y0654406D01*
X0349579Y0654337D01*
X0349978Y0654278D01*
X0350379Y0654229D01*
X0350782Y0654190D01*
X0351184Y0654160D01*
X0351588Y0654140D01*
X0351992Y0654130D01*
X0352396Y0654130D01*
X0352800Y0654140D01*
X0353204Y0654160D01*
X0353606Y0654190D01*
X0354009Y0654229D01*
X0354410Y0654278D01*
X0354809Y0654337D01*
X0355207Y0654406D01*
X0355604Y0654485D01*
X0355998Y0654573D01*
X0356390Y0654671D01*
X0356780Y0654779D01*
X0357166Y0654896D01*
X0357550Y0655022D01*
X0357931Y0655158D01*
X0358308Y0655303D01*
X0358681Y0655457D01*
X0359051Y0655620D01*
X0359416Y0655793D01*
X0359777Y0655974D01*
X0360134Y0656164D01*
X0360486Y0656363D01*
X0360833Y0656570D01*
X0361174Y0656786D01*
X0361511Y0657010D01*
X0361841Y0657242D01*
X0362166Y0657482D01*
X0362485Y0657730D01*
X0362798Y0657986D01*
X0363105Y0658249D01*
X0363404Y0658520D01*
X0363698Y0658798D01*
X0363984Y0659083D01*
X0364263Y0659375D01*
X0364535Y0659674D01*
X0364800Y0659979D01*
X0365057Y0660291D01*
X0365306Y0660609D01*
X0365548Y0660932D01*
X0365781Y0661262D01*
X0366007Y0661598D01*
X0366224Y0661938D01*
X0366432Y0662284D01*
X0366633Y0662635D01*
X0366824Y0662991D01*
X0367007Y0663351D01*
X0367181Y0663716D01*
X0367345Y0664085D01*
X0367501Y0664458D01*
X0367648Y0664834D01*
X0367785Y0665214D01*
X0367913Y0665598D01*
X0368032Y0665984D01*
X0368141Y0666373D01*
X0368241Y0666765D01*
X0368331Y0667158D01*
X0368411Y0667554D01*
X0368481Y0667952D01*
X0368542Y0668352D01*
X0368593Y0668753D01*
X0368634Y0669154D01*
X0368666Y0669557D01*
X0368687Y0669961D01*
X0368699Y0670365D01*
X0368700Y0670769D01*
X0368692Y0671173D01*
X0368674Y0671576D01*
X0368646Y0671979D01*
X0368608Y0672382D01*
X0368561Y0672783D01*
X0368503Y0673183D01*
X0368436Y0673581D01*
X0368359Y0673978D01*
X0368273Y0674373D01*
X0368176Y0674765D01*
X0368070Y0675155D01*
X0367955Y0675542D01*
X0367830Y0675926D01*
X0367696Y0676308D01*
X0367553Y0676685D01*
X0367400Y0677059D01*
X0367238Y0677430D01*
X0367067Y0677796D01*
X0366888Y0678158D01*
X0366699Y0678515D01*
X0366502Y0678868D01*
X0366296Y0679215D01*
X0366082Y0679558D01*
X0365860Y0679895D01*
X0365629Y0680227D01*
X0365390Y0680553D01*
X0365143Y0680873D01*
X0364889Y0681187D01*
X0364627Y0681494D01*
X0364357Y0681795D01*
X0364081Y0682090D01*
X0363797Y0682377D01*
X0363506Y0682658D01*
X0363208Y0682931D01*
X0362904Y0683197D01*
X0362593Y0683455D01*
X0362276Y0683706D01*
X0361954Y0683949D01*
X0361625Y0684184D01*
X0361290Y0684411D01*
X0360950Y0684629D01*
X0360605Y0684839D01*
X0360255Y0685041D01*
X0359900Y0685234D01*
X0359541Y0685418D01*
X0359177Y0685593D01*
X0358808Y0685760D01*
X0358436Y0685917D01*
X0358060Y0686065D01*
X0357681Y0686204D01*
X0357298Y0686334D01*
X0356913Y0686454D01*
X0356524Y0686565D01*
X0356133Y0686666D01*
X0355739Y0686758D01*
X0355344Y0686840D01*
X0686840Y0355344D02*
X0686758Y0355739D01*
X0686666Y0356133D01*
X0686565Y0356524D01*
X0686454Y0356913D01*
X0686334Y0357298D01*
X0686204Y0357681D01*
X0686065Y0358060D01*
X0685917Y0358436D01*
X0685760Y0358808D01*
X0685593Y0359177D01*
X0685418Y0359541D01*
X0685234Y0359900D01*
X0685041Y0360255D01*
X0684839Y0360605D01*
X0684629Y0360950D01*
X0684411Y0361290D01*
X0684184Y0361625D01*
X0683949Y0361954D01*
X0683706Y0362276D01*
X0683455Y0362593D01*
X0683197Y0362904D01*
X0682931Y0363208D01*
X0682658Y0363506D01*
X0682377Y0363797D01*
X0682090Y0364081D01*
X0681795Y0364357D01*
X0681494Y0364627D01*
X0681187Y0364889D01*
X0680873Y0365143D01*
X0680553Y0365390D01*
X0680227Y0365629D01*
X0679895Y0365860D01*
X0679558Y0366082D01*
X0679215Y0366296D01*
X0678868Y0366502D01*
X0678515Y0366699D01*
X0678158Y0366888D01*
X0677796Y0367067D01*
X0677430Y0367238D01*
X0677059Y0367400D01*
X0676685Y0367553D01*
X0676308Y0367696D01*
X0675926Y0367830D01*
X0675542Y0367955D01*
X0675155Y0368070D01*
X0674765Y0368176D01*
X0674373Y0368273D01*
X0673978Y0368359D01*
X0673581Y0368436D01*
X0673183Y0368503D01*
X0672783Y0368561D01*
X0672382Y0368608D01*
X0671979Y0368646D01*
X0671576Y0368674D01*
X0671173Y0368692D01*
X0670769Y0368700D01*
X0670365Y0368699D01*
X0669961Y0368687D01*
X0669557Y0368666D01*
X0669154Y0368634D01*
X0668753Y0368593D01*
X0668352Y0368542D01*
X0667952Y0368481D01*
X0667554Y0368411D01*
X0667158Y0368331D01*
X0666765Y0368241D01*
X0666373Y0368141D01*
X0665984Y0368032D01*
X0665598Y0367913D01*
X0665214Y0367785D01*
X0664834Y0367648D01*
X0664458Y0367501D01*
X0664085Y0367345D01*
X0663716Y0367181D01*
X0663351Y0367007D01*
X0662991Y0366824D01*
X0662635Y0366633D01*
X0662284Y0366432D01*
X0661938Y0366224D01*
X0661598Y0366007D01*
X0661262Y0365781D01*
X0660932Y0365548D01*
X0660609Y0365306D01*
X0660291Y0365057D01*
X0659979Y0364800D01*
X0659674Y0364535D01*
X0659375Y0364263D01*
X0659083Y0363984D01*
X0658798Y0363698D01*
X0658520Y0363404D01*
X0658249Y0363105D01*
X0657986Y0362798D01*
X0657730Y0362485D01*
X0657482Y0362166D01*
X0657242Y0361841D01*
X0657010Y0361511D01*
X0656786Y0361174D01*
X0656570Y0360833D01*
X0656363Y0360486D01*
X0656164Y0360134D01*
X0655974Y0359777D01*
X0655793Y0359416D01*
X0655620Y0359051D01*
X0655457Y0358681D01*
X0655303Y0358308D01*
X0655158Y0357931D01*
X0655022Y0357550D01*
X0654896Y0357166D01*
X0654779Y0356780D01*
X0654671Y0356390D01*
X0654573Y0355998D01*
X0654485Y0355604D01*
X0654406Y0355207D01*
X0654337Y0354809D01*
X0654278Y0354410D01*
X0654229Y0354009D01*
X0654190Y0353606D01*
X0654160Y0353204D01*
X0654140Y0352800D01*
X0654130Y0352396D01*
X0654130Y0351992D01*
X0654140Y0351588D01*
X0654160Y0351184D01*
X0654190Y0350782D01*
X0654229Y0350379D01*
X0654278Y0349978D01*
X0654337Y0349579D01*
X0654406Y0349181D01*
X0654485Y0348784D01*
X0654573Y0348390D01*
X0654671Y0347998D01*
X0654779Y0347608D01*
X0654896Y0347222D01*
X0655022Y0346838D01*
X0655158Y0346457D01*
X0655303Y0346080D01*
X0655457Y0345707D01*
X0655620Y0345337D01*
X0655793Y0344972D01*
X0655974Y0344611D01*
X0656164Y0344254D01*
X0656363Y0343902D01*
X0656570Y0343555D01*
X0656786Y0343214D01*
X0657010Y0342877D01*
X0657242Y0342547D01*
X0657482Y0342222D01*
X0657730Y0341903D01*
X0657986Y0341590D01*
X0658249Y0341283D01*
X0658520Y0340984D01*
X0658798Y0340690D01*
X0659083Y0340404D01*
X0659375Y0340125D01*
X0659674Y0339853D01*
X0659979Y0339588D01*
X0660291Y0339331D01*
X0660609Y0339082D01*
X0660932Y0338840D01*
X0661262Y0338607D01*
X0661598Y0338381D01*
X0661938Y0338164D01*
X0662284Y0337956D01*
X0662635Y0337755D01*
X0662991Y0337564D01*
X0663351Y0337381D01*
X0663716Y0337207D01*
X0664085Y0337043D01*
X0664458Y0336887D01*
X0664834Y0336740D01*
X0665214Y0336603D01*
X0665598Y0336475D01*
X0665984Y0336356D01*
X0666373Y0336247D01*
X0666765Y0336147D01*
X0667158Y0336057D01*
X0667554Y0335977D01*
X0667952Y0335907D01*
X0668352Y0335846D01*
X0668753Y0335795D01*
X0669154Y0335754D01*
X0669557Y0335722D01*
X0669961Y0335701D01*
X0670365Y0335689D01*
X0670769Y0335688D01*
X0671173Y0335696D01*
X0671576Y0335714D01*
X0671979Y0335742D01*
X0672382Y0335780D01*
X0672783Y0335827D01*
X0673183Y0335885D01*
X0673581Y0335952D01*
X0673978Y0336029D01*
X0674373Y0336115D01*
X0674765Y0336212D01*
X0675155Y0336318D01*
X0675542Y0336433D01*
X0675926Y0336558D01*
X0676308Y0336692D01*
X0676685Y0336835D01*
X0677059Y0336988D01*
X0677430Y0337150D01*
X0677796Y0337321D01*
X0678158Y0337500D01*
X0678515Y0337689D01*
X0678868Y0337886D01*
X0679215Y0338092D01*
X0679558Y0338306D01*
X0679895Y0338528D01*
X0680227Y0338759D01*
X0680553Y0338998D01*
X0680873Y0339245D01*
X0681187Y0339499D01*
X0681494Y0339761D01*
X0681795Y0340031D01*
X0682090Y0340307D01*
X0682377Y0340591D01*
X0682658Y0340882D01*
X0682931Y0341180D01*
X0683197Y0341484D01*
X0683455Y0341795D01*
X0683706Y0342112D01*
X0683949Y0342434D01*
X0684184Y0342763D01*
X0684411Y0343098D01*
X0684629Y0343438D01*
X0684839Y0343783D01*
X0685041Y0344133D01*
X0685234Y0344488D01*
X0685418Y0344847D01*
X0685593Y0345211D01*
X0685760Y0345580D01*
X0685917Y0345952D01*
X0686065Y0346328D01*
X0686204Y0346707D01*
X0686334Y0347090D01*
X0686454Y0347475D01*
X0686565Y0347864D01*
X0686666Y0348255D01*
X0686758Y0348649D01*
X0686840Y0349044D01*
X0355344Y0017547D02*
X0355739Y0017629D01*
X0356133Y0017721D01*
X0356524Y0017822D01*
X0356913Y0017933D01*
X0357298Y0018053D01*
X0357681Y0018183D01*
X0358060Y0018322D01*
X0358436Y0018470D01*
X0358808Y0018627D01*
X0359177Y0018794D01*
X0359541Y0018969D01*
X0359900Y0019153D01*
X0360255Y0019346D01*
X0360605Y0019548D01*
X0360950Y0019758D01*
X0361290Y0019976D01*
X0361625Y0020203D01*
X0361954Y0020438D01*
X0362276Y0020681D01*
X0362593Y0020932D01*
X0362904Y0021190D01*
X0363208Y0021456D01*
X0363506Y0021729D01*
X0363797Y0022010D01*
X0364081Y0022297D01*
X0364357Y0022592D01*
X0364627Y0022893D01*
X0364889Y0023200D01*
X0365143Y0023514D01*
X0365390Y0023834D01*
X0365629Y0024160D01*
X0365860Y0024492D01*
X0366082Y0024829D01*
X0366296Y0025172D01*
X0366502Y0025519D01*
X0366699Y0025872D01*
X0366888Y0026229D01*
X0367067Y0026591D01*
X0367238Y0026957D01*
X0367400Y0027328D01*
X0367553Y0027702D01*
X0367696Y0028079D01*
X0367830Y0028461D01*
X0367955Y0028845D01*
X0368070Y0029232D01*
X0368176Y0029622D01*
X0368273Y0030014D01*
X0368359Y0030409D01*
X0368436Y0030806D01*
X0368503Y0031204D01*
X0368561Y0031604D01*
X0368608Y0032005D01*
X0368646Y0032408D01*
X0368674Y0032811D01*
X0368692Y0033214D01*
X0368700Y0033618D01*
X0368699Y0034022D01*
X0368687Y0034426D01*
X0368666Y0034830D01*
X0368634Y0035233D01*
X0368593Y0035634D01*
X0368542Y0036035D01*
X0368481Y0036435D01*
X0368411Y0036833D01*
X0368331Y0037229D01*
X0368241Y0037622D01*
X0368141Y0038014D01*
X0368032Y0038403D01*
X0367913Y0038789D01*
X0367785Y0039173D01*
X0367648Y0039553D01*
X0367501Y0039929D01*
X0367345Y0040302D01*
X0367181Y0040671D01*
X0367007Y0041036D01*
X0366824Y0041396D01*
X0366633Y0041752D01*
X0366432Y0042103D01*
X0366224Y0042449D01*
X0366007Y0042789D01*
X0365781Y0043125D01*
X0365548Y0043455D01*
X0365306Y0043778D01*
X0365057Y0044096D01*
X0364800Y0044408D01*
X0364535Y0044713D01*
X0364263Y0045012D01*
X0363984Y0045304D01*
X0363698Y0045589D01*
X0363404Y0045867D01*
X0363105Y0046138D01*
X0362798Y0046401D01*
X0362485Y0046657D01*
X0362166Y0046905D01*
X0361841Y0047145D01*
X0361511Y0047377D01*
X0361174Y0047601D01*
X0360833Y0047817D01*
X0360486Y0048024D01*
X0360134Y0048223D01*
X0359777Y0048413D01*
X0359416Y0048594D01*
X0359051Y0048767D01*
X0358681Y0048930D01*
X0358308Y0049084D01*
X0357931Y0049229D01*
X0357550Y0049365D01*
X0357166Y0049491D01*
X0356780Y0049608D01*
X0356390Y0049716D01*
X0355998Y0049814D01*
X0355604Y0049902D01*
X0355207Y0049981D01*
X0354809Y0050050D01*
X0354410Y0050109D01*
X0354009Y0050158D01*
X0353606Y0050197D01*
X0353204Y0050227D01*
X0352800Y0050247D01*
X0352396Y0050257D01*
X0351992Y0050257D01*
X0351588Y0050247D01*
X0351184Y0050227D01*
X0350782Y0050197D01*
X0350379Y0050158D01*
X0349978Y0050109D01*
X0349579Y0050050D01*
X0349181Y0049981D01*
X0348784Y0049902D01*
X0348390Y0049814D01*
X0347998Y0049716D01*
X0347608Y0049608D01*
X0347222Y0049491D01*
X0346838Y0049365D01*
X0346457Y0049229D01*
X0346080Y0049084D01*
X0345707Y0048930D01*
X0345337Y0048767D01*
X0344972Y0048594D01*
X0344611Y0048413D01*
X0344254Y0048223D01*
X0343902Y0048024D01*
X0343555Y0047817D01*
X0343214Y0047601D01*
X0342877Y0047377D01*
X0342547Y0047145D01*
X0342222Y0046905D01*
X0341903Y0046657D01*
X0341590Y0046401D01*
X0341283Y0046138D01*
X0340984Y0045867D01*
X0340690Y0045589D01*
X0340404Y0045304D01*
X0340125Y0045012D01*
X0339853Y0044713D01*
X0339588Y0044408D01*
X0339331Y0044096D01*
X0339082Y0043778D01*
X0338840Y0043455D01*
X0338607Y0043125D01*
X0338381Y0042789D01*
X0338164Y0042449D01*
X0337956Y0042103D01*
X0337755Y0041752D01*
X0337564Y0041396D01*
X0337381Y0041036D01*
X0337207Y0040671D01*
X0337043Y0040302D01*
X0336887Y0039929D01*
X0336740Y0039553D01*
X0336603Y0039173D01*
X0336475Y0038789D01*
X0336356Y0038403D01*
X0336247Y0038014D01*
X0336147Y0037622D01*
X0336057Y0037229D01*
X0335977Y0036833D01*
X0335907Y0036435D01*
X0335846Y0036035D01*
X0335795Y0035634D01*
X0335754Y0035233D01*
X0335722Y0034830D01*
X0335701Y0034426D01*
X0335689Y0034022D01*
X0335688Y0033618D01*
X0335696Y0033214D01*
X0335714Y0032811D01*
X0335742Y0032408D01*
X0335780Y0032005D01*
X0335827Y0031604D01*
X0335885Y0031204D01*
X0335952Y0030806D01*
X0336029Y0030409D01*
X0336115Y0030014D01*
X0336212Y0029622D01*
X0336318Y0029232D01*
X0336433Y0028845D01*
X0336558Y0028461D01*
X0336692Y0028079D01*
X0336835Y0027702D01*
X0336988Y0027328D01*
X0337150Y0026957D01*
X0337321Y0026591D01*
X0337500Y0026229D01*
X0337689Y0025872D01*
X0337886Y0025519D01*
X0338092Y0025172D01*
X0338306Y0024829D01*
X0338528Y0024492D01*
X0338759Y0024160D01*
X0338998Y0023834D01*
X0339245Y0023514D01*
X0339499Y0023200D01*
X0339761Y0022893D01*
X0340031Y0022592D01*
X0340307Y0022297D01*
X0340591Y0022010D01*
X0340882Y0021729D01*
X0341180Y0021456D01*
X0341484Y0021190D01*
X0341795Y0020932D01*
X0342112Y0020681D01*
X0342434Y0020438D01*
X0342763Y0020203D01*
X0343098Y0019976D01*
X0343438Y0019758D01*
X0343783Y0019548D01*
X0344133Y0019346D01*
X0344488Y0019153D01*
X0344847Y0018969D01*
X0345211Y0018794D01*
X0345580Y0018627D01*
X0345952Y0018470D01*
X0346328Y0018322D01*
X0346707Y0018183D01*
X0347090Y0018053D01*
X0347475Y0017933D01*
X0347864Y0017822D01*
X0348255Y0017721D01*
X0348649Y0017629D01*
X0349044Y0017547D01*
D11*
X0326123Y0264877D02*
X0359153Y0297908D01*
X0361937Y0295124D01*
X0359153Y0297908D02*
X0363329Y0302084D01*
X0365417Y0304172D01*
X0368201Y0301388D01*
X0365417Y0304172D02*
X0374465Y0313219D01*
X0342450Y0328531D01*
X0373073Y0359153D01*
X0405088Y0343842D01*
X0406479Y0345234D02*
X0409263Y0342450D01*
X0406479Y0345234D02*
X0400216Y0338970D01*
X0403000Y0336186D01*
X0400216Y0338970D02*
X0374465Y0313219D01*
X0363329Y0302084D02*
X0331315Y0317395D01*
X0317395Y0331315D01*
X0302084Y0363329D01*
X0297908Y0359153D01*
X0295124Y0361937D01*
X0297908Y0359153D02*
X0264877Y0326123D01*
X0264809Y0326052D01*
X0264744Y0325979D01*
X0264682Y0325903D01*
X0264622Y0325824D01*
X0264566Y0325744D01*
X0264513Y0325661D01*
X0264464Y0325577D01*
X0264417Y0325490D01*
X0264375Y0325402D01*
X0264335Y0325312D01*
X0264300Y0325220D01*
X0264267Y0325128D01*
X0264239Y0325034D01*
X0264214Y0324939D01*
X0264193Y0324843D01*
X0264176Y0324746D01*
X0264162Y0324649D01*
X0264153Y0324551D01*
X0264147Y0324453D01*
X0264145Y0324355D01*
X0264147Y0324257D01*
X0264153Y0324159D01*
X0264162Y0324061D01*
X0264176Y0323964D01*
X0264193Y0323867D01*
X0264214Y0323771D01*
X0264239Y0323676D01*
X0264267Y0323582D01*
X0264300Y0323490D01*
X0264335Y0323398D01*
X0264375Y0323308D01*
X0264417Y0323220D01*
X0264464Y0323133D01*
X0264513Y0323049D01*
X0264566Y0322966D01*
X0264622Y0322886D01*
X0264682Y0322807D01*
X0264744Y0322731D01*
X0264809Y0322658D01*
X0264877Y0322587D01*
X0279813Y0307652D01*
X0272853Y0300692D01*
X0282597Y0290948D01*
X0279813Y0288164D01*
X0288164Y0279813D01*
X0290948Y0282597D01*
X0282597Y0290948D01*
X0290948Y0282597D02*
X0300692Y0272853D01*
X0307652Y0279813D01*
X0279813Y0307652D01*
X0274245Y0316003D02*
X0267661Y0322587D01*
X0267593Y0322658D01*
X0267528Y0322731D01*
X0267466Y0322807D01*
X0267406Y0322886D01*
X0267350Y0322966D01*
X0267297Y0323049D01*
X0267248Y0323133D01*
X0267201Y0323220D01*
X0267159Y0323308D01*
X0267119Y0323398D01*
X0267084Y0323490D01*
X0267051Y0323582D01*
X0267023Y0323676D01*
X0266998Y0323771D01*
X0266977Y0323867D01*
X0266960Y0323964D01*
X0266946Y0324061D01*
X0266937Y0324159D01*
X0266931Y0324257D01*
X0266929Y0324355D01*
X0266931Y0324453D01*
X0266937Y0324551D01*
X0266946Y0324649D01*
X0266960Y0324746D01*
X0266977Y0324843D01*
X0266998Y0324939D01*
X0267023Y0325034D01*
X0267051Y0325128D01*
X0267084Y0325220D01*
X0267119Y0325312D01*
X0267159Y0325402D01*
X0267201Y0325490D01*
X0267248Y0325577D01*
X0267297Y0325661D01*
X0267350Y0325744D01*
X0267406Y0325824D01*
X0267466Y0325903D01*
X0267528Y0325979D01*
X0267593Y0326052D01*
X0267661Y0326123D01*
X0274245Y0332706D01*
X0274245Y0316003D01*
X0307652Y0279813D02*
X0322587Y0264877D01*
X0322658Y0264809D01*
X0322731Y0264744D01*
X0322807Y0264682D01*
X0322886Y0264622D01*
X0322966Y0264566D01*
X0323049Y0264513D01*
X0323133Y0264464D01*
X0323220Y0264417D01*
X0323308Y0264375D01*
X0323398Y0264335D01*
X0323490Y0264300D01*
X0323582Y0264267D01*
X0323676Y0264239D01*
X0323771Y0264214D01*
X0323867Y0264193D01*
X0323964Y0264176D01*
X0324061Y0264162D01*
X0324159Y0264153D01*
X0324257Y0264147D01*
X0324355Y0264145D01*
X0324453Y0264147D01*
X0324551Y0264153D01*
X0324649Y0264162D01*
X0324746Y0264176D01*
X0324843Y0264193D01*
X0324939Y0264214D01*
X0325034Y0264239D01*
X0325128Y0264267D01*
X0325220Y0264300D01*
X0325312Y0264335D01*
X0325402Y0264375D01*
X0325490Y0264417D01*
X0325577Y0264464D01*
X0325661Y0264513D01*
X0325744Y0264566D01*
X0325824Y0264622D01*
X0325903Y0264682D01*
X0325979Y0264744D01*
X0326052Y0264809D01*
X0326123Y0264877D01*
X0326123Y0267661D02*
X0332707Y0274245D01*
X0316003Y0274245D01*
X0322587Y0267661D01*
X0322658Y0267593D01*
X0322731Y0267528D01*
X0322807Y0267466D01*
X0322886Y0267406D01*
X0322966Y0267350D01*
X0323049Y0267297D01*
X0323133Y0267248D01*
X0323220Y0267201D01*
X0323308Y0267159D01*
X0323398Y0267119D01*
X0323490Y0267084D01*
X0323582Y0267051D01*
X0323676Y0267023D01*
X0323771Y0266998D01*
X0323867Y0266977D01*
X0323964Y0266960D01*
X0324061Y0266946D01*
X0324159Y0266937D01*
X0324257Y0266931D01*
X0324355Y0266929D01*
X0324453Y0266931D01*
X0324551Y0266937D01*
X0324649Y0266946D01*
X0324746Y0266960D01*
X0324843Y0266977D01*
X0324939Y0266998D01*
X0325034Y0267023D01*
X0325128Y0267051D01*
X0325220Y0267084D01*
X0325312Y0267119D01*
X0325402Y0267159D01*
X0325490Y0267201D01*
X0325577Y0267248D01*
X0325661Y0267297D01*
X0325744Y0267350D01*
X0325824Y0267406D01*
X0325903Y0267466D01*
X0325979Y0267528D01*
X0326052Y0267593D01*
X0326123Y0267661D01*
X0361937Y0295124D02*
X0362031Y0295033D01*
X0362128Y0294944D01*
X0362228Y0294859D01*
X0362330Y0294776D01*
X0362434Y0294696D01*
X0362541Y0294620D01*
X0362649Y0294546D01*
X0362760Y0294476D01*
X0362873Y0294409D01*
X0362988Y0294346D01*
X0363105Y0294286D01*
X0363224Y0294230D01*
X0363344Y0294177D01*
X0363465Y0294127D01*
X0363589Y0294082D01*
X0363713Y0294040D01*
X0363838Y0294001D01*
X0363965Y0293967D01*
X0364093Y0293936D01*
X0364221Y0293909D01*
X0364350Y0293886D01*
X0364480Y0293866D01*
X0364610Y0293851D01*
X0364741Y0293839D01*
X0364872Y0293831D01*
X0365003Y0293827D01*
X0365135Y0293827D01*
X0365266Y0293831D01*
X0365397Y0293839D01*
X0365528Y0293851D01*
X0365658Y0293866D01*
X0365788Y0293886D01*
X0365917Y0293909D01*
X0366045Y0293936D01*
X0366173Y0293967D01*
X0366300Y0294001D01*
X0366425Y0294040D01*
X0366549Y0294082D01*
X0366673Y0294127D01*
X0366794Y0294177D01*
X0366914Y0294230D01*
X0367033Y0294286D01*
X0367150Y0294346D01*
X0367265Y0294409D01*
X0367378Y0294476D01*
X0367489Y0294546D01*
X0367597Y0294620D01*
X0367704Y0294696D01*
X0367808Y0294776D01*
X0367910Y0294859D01*
X0368010Y0294944D01*
X0368107Y0295033D01*
X0368201Y0295124D01*
X0368292Y0295218D01*
X0368381Y0295315D01*
X0368466Y0295415D01*
X0368549Y0295517D01*
X0368629Y0295621D01*
X0368705Y0295728D01*
X0368779Y0295836D01*
X0368849Y0295947D01*
X0368916Y0296060D01*
X0368979Y0296175D01*
X0369039Y0296292D01*
X0369095Y0296411D01*
X0369148Y0296531D01*
X0369198Y0296652D01*
X0369243Y0296776D01*
X0369285Y0296900D01*
X0369324Y0297025D01*
X0369358Y0297152D01*
X0369389Y0297280D01*
X0369416Y0297408D01*
X0369439Y0297537D01*
X0369459Y0297667D01*
X0369474Y0297797D01*
X0369486Y0297928D01*
X0369494Y0298059D01*
X0369498Y0298190D01*
X0369498Y0298322D01*
X0369494Y0298453D01*
X0369486Y0298584D01*
X0369474Y0298715D01*
X0369459Y0298845D01*
X0369439Y0298975D01*
X0369416Y0299104D01*
X0369389Y0299232D01*
X0369358Y0299360D01*
X0369324Y0299487D01*
X0369285Y0299612D01*
X0369243Y0299736D01*
X0369198Y0299860D01*
X0369148Y0299981D01*
X0369095Y0300101D01*
X0369039Y0300220D01*
X0368979Y0300337D01*
X0368916Y0300452D01*
X0368849Y0300565D01*
X0368779Y0300676D01*
X0368705Y0300784D01*
X0368629Y0300891D01*
X0368549Y0300995D01*
X0368466Y0301097D01*
X0368381Y0301197D01*
X0368292Y0301294D01*
X0368201Y0301388D01*
X0402999Y0336186D02*
X0403093Y0336095D01*
X0403190Y0336006D01*
X0403290Y0335921D01*
X0403392Y0335838D01*
X0403496Y0335758D01*
X0403603Y0335682D01*
X0403711Y0335608D01*
X0403822Y0335538D01*
X0403935Y0335471D01*
X0404050Y0335408D01*
X0404167Y0335348D01*
X0404286Y0335292D01*
X0404406Y0335239D01*
X0404527Y0335189D01*
X0404651Y0335144D01*
X0404775Y0335102D01*
X0404900Y0335063D01*
X0405027Y0335029D01*
X0405155Y0334998D01*
X0405283Y0334971D01*
X0405412Y0334948D01*
X0405542Y0334928D01*
X0405672Y0334913D01*
X0405803Y0334901D01*
X0405934Y0334893D01*
X0406065Y0334889D01*
X0406197Y0334889D01*
X0406328Y0334893D01*
X0406459Y0334901D01*
X0406590Y0334913D01*
X0406720Y0334928D01*
X0406850Y0334948D01*
X0406979Y0334971D01*
X0407107Y0334998D01*
X0407235Y0335029D01*
X0407362Y0335063D01*
X0407487Y0335102D01*
X0407611Y0335144D01*
X0407735Y0335189D01*
X0407856Y0335239D01*
X0407976Y0335292D01*
X0408095Y0335348D01*
X0408212Y0335408D01*
X0408327Y0335471D01*
X0408440Y0335538D01*
X0408551Y0335608D01*
X0408659Y0335682D01*
X0408766Y0335758D01*
X0408870Y0335838D01*
X0408972Y0335921D01*
X0409072Y0336006D01*
X0409169Y0336095D01*
X0409263Y0336186D01*
X0409354Y0336280D01*
X0409443Y0336377D01*
X0409528Y0336477D01*
X0409611Y0336579D01*
X0409691Y0336683D01*
X0409767Y0336790D01*
X0409841Y0336898D01*
X0409911Y0337009D01*
X0409978Y0337122D01*
X0410041Y0337237D01*
X0410101Y0337354D01*
X0410157Y0337473D01*
X0410210Y0337593D01*
X0410260Y0337714D01*
X0410305Y0337838D01*
X0410347Y0337962D01*
X0410386Y0338087D01*
X0410420Y0338214D01*
X0410451Y0338342D01*
X0410478Y0338470D01*
X0410501Y0338599D01*
X0410521Y0338729D01*
X0410536Y0338859D01*
X0410548Y0338990D01*
X0410556Y0339121D01*
X0410560Y0339252D01*
X0410560Y0339384D01*
X0410556Y0339515D01*
X0410548Y0339646D01*
X0410536Y0339777D01*
X0410521Y0339907D01*
X0410501Y0340037D01*
X0410478Y0340166D01*
X0410451Y0340294D01*
X0410420Y0340422D01*
X0410386Y0340549D01*
X0410347Y0340674D01*
X0410305Y0340798D01*
X0410260Y0340922D01*
X0410210Y0341043D01*
X0410157Y0341163D01*
X0410101Y0341282D01*
X0410041Y0341399D01*
X0409978Y0341514D01*
X0409911Y0341627D01*
X0409841Y0341738D01*
X0409767Y0341846D01*
X0409691Y0341953D01*
X0409611Y0342057D01*
X0409528Y0342159D01*
X0409443Y0342259D01*
X0409354Y0342356D01*
X0409263Y0342450D01*
X0406479Y0345234D02*
X0428751Y0367505D01*
X0434318Y0381424D01*
X0419703Y0396040D01*
X0407175Y0383512D01*
X0406479Y0384208D01*
X0426983Y0404712D01*
X0426983Y0404711D02*
X0427051Y0404782D01*
X0427116Y0404855D01*
X0427178Y0404931D01*
X0427238Y0405010D01*
X0427294Y0405090D01*
X0427347Y0405173D01*
X0427396Y0405257D01*
X0427443Y0405344D01*
X0427485Y0405432D01*
X0427525Y0405522D01*
X0427560Y0405614D01*
X0427593Y0405706D01*
X0427621Y0405800D01*
X0427646Y0405895D01*
X0427667Y0405991D01*
X0427684Y0406088D01*
X0427698Y0406185D01*
X0427707Y0406283D01*
X0427713Y0406381D01*
X0427715Y0406479D01*
X0427713Y0406577D01*
X0427707Y0406675D01*
X0427698Y0406773D01*
X0427684Y0406870D01*
X0427667Y0406967D01*
X0427646Y0407063D01*
X0427621Y0407158D01*
X0427593Y0407252D01*
X0427560Y0407344D01*
X0427525Y0407436D01*
X0427485Y0407526D01*
X0427443Y0407614D01*
X0427396Y0407701D01*
X0427347Y0407785D01*
X0427294Y0407868D01*
X0427238Y0407948D01*
X0427178Y0408027D01*
X0427116Y0408103D01*
X0427051Y0408176D01*
X0426983Y0408247D01*
X0408247Y0426983D01*
X0408176Y0427051D01*
X0408103Y0427116D01*
X0408027Y0427178D01*
X0407948Y0427238D01*
X0407868Y0427294D01*
X0407785Y0427347D01*
X0407701Y0427396D01*
X0407614Y0427443D01*
X0407526Y0427485D01*
X0407436Y0427525D01*
X0407344Y0427560D01*
X0407252Y0427593D01*
X0407158Y0427621D01*
X0407063Y0427646D01*
X0406967Y0427667D01*
X0406870Y0427684D01*
X0406773Y0427698D01*
X0406675Y0427707D01*
X0406577Y0427713D01*
X0406479Y0427715D01*
X0406381Y0427713D01*
X0406283Y0427707D01*
X0406185Y0427698D01*
X0406088Y0427684D01*
X0405991Y0427667D01*
X0405895Y0427646D01*
X0405800Y0427621D01*
X0405706Y0427593D01*
X0405614Y0427560D01*
X0405522Y0427525D01*
X0405432Y0427485D01*
X0405344Y0427443D01*
X0405257Y0427396D01*
X0405173Y0427347D01*
X0405090Y0427294D01*
X0405010Y0427238D01*
X0404931Y0427178D01*
X0404855Y0427116D01*
X0404782Y0427051D01*
X0404711Y0426983D01*
X0404712Y0426983D02*
X0384208Y0406479D01*
X0383512Y0407175D01*
X0396040Y0419703D01*
X0381424Y0434318D01*
X0367505Y0428751D01*
X0345234Y0406479D01*
X0342450Y0409263D01*
X0345234Y0406479D02*
X0338970Y0400216D01*
X0313219Y0374465D01*
X0304172Y0365417D01*
X0302084Y0363329D01*
X0304172Y0365417D02*
X0301388Y0368201D01*
X0301294Y0368292D01*
X0301197Y0368381D01*
X0301097Y0368466D01*
X0300995Y0368549D01*
X0300891Y0368629D01*
X0300784Y0368705D01*
X0300676Y0368779D01*
X0300565Y0368849D01*
X0300452Y0368916D01*
X0300337Y0368979D01*
X0300220Y0369039D01*
X0300101Y0369095D01*
X0299981Y0369148D01*
X0299860Y0369198D01*
X0299736Y0369243D01*
X0299612Y0369285D01*
X0299487Y0369324D01*
X0299360Y0369358D01*
X0299232Y0369389D01*
X0299104Y0369416D01*
X0298975Y0369439D01*
X0298845Y0369459D01*
X0298715Y0369474D01*
X0298584Y0369486D01*
X0298453Y0369494D01*
X0298322Y0369498D01*
X0298190Y0369498D01*
X0298059Y0369494D01*
X0297928Y0369486D01*
X0297797Y0369474D01*
X0297667Y0369459D01*
X0297537Y0369439D01*
X0297408Y0369416D01*
X0297280Y0369389D01*
X0297152Y0369358D01*
X0297025Y0369324D01*
X0296900Y0369285D01*
X0296776Y0369243D01*
X0296652Y0369198D01*
X0296531Y0369148D01*
X0296411Y0369095D01*
X0296292Y0369039D01*
X0296175Y0368979D01*
X0296060Y0368916D01*
X0295947Y0368849D01*
X0295836Y0368779D01*
X0295728Y0368705D01*
X0295621Y0368629D01*
X0295517Y0368549D01*
X0295415Y0368466D01*
X0295315Y0368381D01*
X0295218Y0368292D01*
X0295124Y0368201D01*
X0295033Y0368107D01*
X0294944Y0368010D01*
X0294859Y0367910D01*
X0294776Y0367808D01*
X0294696Y0367704D01*
X0294620Y0367597D01*
X0294546Y0367489D01*
X0294476Y0367378D01*
X0294409Y0367265D01*
X0294346Y0367150D01*
X0294286Y0367033D01*
X0294230Y0366914D01*
X0294177Y0366794D01*
X0294127Y0366673D01*
X0294082Y0366549D01*
X0294040Y0366425D01*
X0294001Y0366300D01*
X0293967Y0366173D01*
X0293936Y0366045D01*
X0293909Y0365917D01*
X0293886Y0365788D01*
X0293866Y0365658D01*
X0293851Y0365528D01*
X0293839Y0365397D01*
X0293831Y0365266D01*
X0293827Y0365135D01*
X0293827Y0365003D01*
X0293831Y0364872D01*
X0293839Y0364741D01*
X0293851Y0364610D01*
X0293866Y0364480D01*
X0293886Y0364350D01*
X0293909Y0364221D01*
X0293936Y0364093D01*
X0293967Y0363965D01*
X0294001Y0363838D01*
X0294040Y0363713D01*
X0294082Y0363589D01*
X0294127Y0363465D01*
X0294177Y0363344D01*
X0294230Y0363224D01*
X0294286Y0363105D01*
X0294346Y0362988D01*
X0294409Y0362873D01*
X0294476Y0362760D01*
X0294546Y0362649D01*
X0294620Y0362541D01*
X0294696Y0362434D01*
X0294776Y0362330D01*
X0294859Y0362228D01*
X0294944Y0362128D01*
X0295033Y0362031D01*
X0295124Y0361937D01*
X0313219Y0374465D02*
X0328531Y0342450D01*
X0359153Y0373073D01*
X0343842Y0405088D01*
X0342450Y0409263D02*
X0342356Y0409354D01*
X0342259Y0409443D01*
X0342159Y0409528D01*
X0342057Y0409611D01*
X0341953Y0409691D01*
X0341846Y0409767D01*
X0341738Y0409841D01*
X0341627Y0409911D01*
X0341514Y0409978D01*
X0341399Y0410041D01*
X0341282Y0410101D01*
X0341163Y0410157D01*
X0341043Y0410210D01*
X0340922Y0410260D01*
X0340798Y0410305D01*
X0340674Y0410347D01*
X0340549Y0410386D01*
X0340422Y0410420D01*
X0340294Y0410451D01*
X0340166Y0410478D01*
X0340037Y0410501D01*
X0339907Y0410521D01*
X0339777Y0410536D01*
X0339646Y0410548D01*
X0339515Y0410556D01*
X0339384Y0410560D01*
X0339252Y0410560D01*
X0339121Y0410556D01*
X0338990Y0410548D01*
X0338859Y0410536D01*
X0338729Y0410521D01*
X0338599Y0410501D01*
X0338470Y0410478D01*
X0338342Y0410451D01*
X0338214Y0410420D01*
X0338087Y0410386D01*
X0337962Y0410347D01*
X0337838Y0410305D01*
X0337714Y0410260D01*
X0337593Y0410210D01*
X0337473Y0410157D01*
X0337354Y0410101D01*
X0337237Y0410041D01*
X0337122Y0409978D01*
X0337009Y0409911D01*
X0336898Y0409841D01*
X0336790Y0409767D01*
X0336683Y0409691D01*
X0336579Y0409611D01*
X0336477Y0409528D01*
X0336377Y0409443D01*
X0336280Y0409354D01*
X0336186Y0409263D01*
X0336095Y0409169D01*
X0336006Y0409072D01*
X0335921Y0408972D01*
X0335838Y0408870D01*
X0335758Y0408766D01*
X0335682Y0408659D01*
X0335608Y0408551D01*
X0335538Y0408440D01*
X0335471Y0408327D01*
X0335408Y0408212D01*
X0335348Y0408095D01*
X0335292Y0407976D01*
X0335239Y0407856D01*
X0335189Y0407735D01*
X0335144Y0407611D01*
X0335102Y0407487D01*
X0335063Y0407362D01*
X0335029Y0407235D01*
X0334998Y0407107D01*
X0334971Y0406979D01*
X0334948Y0406850D01*
X0334928Y0406720D01*
X0334913Y0406590D01*
X0334901Y0406459D01*
X0334893Y0406328D01*
X0334889Y0406197D01*
X0334889Y0406065D01*
X0334893Y0405934D01*
X0334901Y0405803D01*
X0334913Y0405672D01*
X0334928Y0405542D01*
X0334948Y0405412D01*
X0334971Y0405283D01*
X0334998Y0405155D01*
X0335029Y0405027D01*
X0335063Y0404900D01*
X0335102Y0404775D01*
X0335144Y0404651D01*
X0335189Y0404527D01*
X0335239Y0404406D01*
X0335292Y0404286D01*
X0335348Y0404167D01*
X0335408Y0404050D01*
X0335471Y0403935D01*
X0335538Y0403822D01*
X0335608Y0403711D01*
X0335682Y0403603D01*
X0335758Y0403496D01*
X0335838Y0403392D01*
X0335921Y0403290D01*
X0336006Y0403190D01*
X0336095Y0403093D01*
X0336186Y0402999D01*
X0336186Y0403000D02*
X0338970Y0400216D01*
X0354978Y0416223D02*
X0370289Y0384208D01*
X0384208Y0370289D01*
X0416223Y0354978D01*
D12*
X0393917Y0326465D02*
X0392289Y0324837D01*
X0392289Y0323752D01*
X0392832Y0323209D01*
X0393917Y0323209D01*
X0395545Y0324837D01*
X0397173Y0323209D02*
X0395545Y0321582D01*
X0394460Y0321582D01*
X0393917Y0322124D01*
X0393917Y0323209D01*
X0392289Y0321582D02*
X0390119Y0319411D01*
X0389577Y0319954D02*
X0391747Y0317783D01*
X0389577Y0315613D02*
X0386321Y0318869D01*
X0387406Y0319954D02*
X0385236Y0317783D01*
X0384151Y0316698D02*
X0381980Y0314528D01*
X0383066Y0315613D02*
X0386321Y0312358D01*
X0384151Y0310187D02*
X0381980Y0308017D01*
X0383066Y0309102D02*
X0379810Y0312358D01*
X0381980Y0312358D01*
X0389577Y0319954D02*
X0389577Y0322124D01*
X0391747Y0322124D01*
X0393917Y0319954D01*
X0397173Y0323209D02*
X0393917Y0326465D01*
X0313160Y0406452D02*
X0310990Y0408622D01*
X0313160Y0408622D02*
X0310990Y0406452D01*
X0304321Y0399783D02*
X0302151Y0397613D01*
D13*
X0295430Y0365278D02*
X0295432Y0365383D01*
X0295438Y0365488D01*
X0295448Y0365592D01*
X0295462Y0365696D01*
X0295480Y0365800D01*
X0295502Y0365902D01*
X0295527Y0366004D01*
X0295557Y0366105D01*
X0295590Y0366204D01*
X0295627Y0366302D01*
X0295668Y0366399D01*
X0295713Y0366494D01*
X0295761Y0366587D01*
X0295812Y0366679D01*
X0295868Y0366768D01*
X0295926Y0366855D01*
X0295988Y0366940D01*
X0296052Y0367023D01*
X0296120Y0367103D01*
X0296191Y0367180D01*
X0296265Y0367254D01*
X0296342Y0367326D01*
X0296421Y0367395D01*
X0296503Y0367460D01*
X0296587Y0367523D01*
X0296674Y0367582D01*
X0296763Y0367638D01*
X0296854Y0367691D01*
X0296947Y0367740D01*
X0297041Y0367785D01*
X0297137Y0367827D01*
X0297235Y0367865D01*
X0297334Y0367899D01*
X0297435Y0367930D01*
X0297536Y0367956D01*
X0297639Y0367979D01*
X0297742Y0367998D01*
X0297846Y0368013D01*
X0297950Y0368024D01*
X0298055Y0368031D01*
X0298160Y0368034D01*
X0298265Y0368033D01*
X0298370Y0368028D01*
X0298474Y0368019D01*
X0298578Y0368006D01*
X0298682Y0367989D01*
X0298785Y0367968D01*
X0298887Y0367943D01*
X0298988Y0367915D01*
X0299087Y0367882D01*
X0299186Y0367846D01*
X0299283Y0367806D01*
X0299378Y0367763D01*
X0299472Y0367715D01*
X0299564Y0367665D01*
X0299654Y0367611D01*
X0299742Y0367553D01*
X0299827Y0367492D01*
X0299910Y0367428D01*
X0299991Y0367361D01*
X0300069Y0367291D01*
X0300144Y0367217D01*
X0300216Y0367142D01*
X0300286Y0367063D01*
X0300352Y0366982D01*
X0300416Y0366898D01*
X0300476Y0366812D01*
X0300532Y0366724D01*
X0300586Y0366633D01*
X0300636Y0366541D01*
X0300682Y0366447D01*
X0300725Y0366351D01*
X0300764Y0366253D01*
X0300799Y0366155D01*
X0300830Y0366054D01*
X0300858Y0365953D01*
X0300882Y0365851D01*
X0300902Y0365748D01*
X0300918Y0365644D01*
X0300930Y0365540D01*
X0300938Y0365435D01*
X0300942Y0365330D01*
X0300942Y0365226D01*
X0300938Y0365121D01*
X0300930Y0365016D01*
X0300918Y0364912D01*
X0300902Y0364808D01*
X0300882Y0364705D01*
X0300858Y0364603D01*
X0300830Y0364502D01*
X0300799Y0364401D01*
X0300764Y0364303D01*
X0300725Y0364205D01*
X0300682Y0364109D01*
X0300636Y0364015D01*
X0300586Y0363923D01*
X0300532Y0363832D01*
X0300476Y0363744D01*
X0300416Y0363658D01*
X0300352Y0363574D01*
X0300286Y0363493D01*
X0300216Y0363414D01*
X0300144Y0363339D01*
X0300069Y0363265D01*
X0299991Y0363195D01*
X0299910Y0363128D01*
X0299827Y0363064D01*
X0299742Y0363003D01*
X0299654Y0362945D01*
X0299564Y0362891D01*
X0299472Y0362841D01*
X0299378Y0362793D01*
X0299283Y0362750D01*
X0299186Y0362710D01*
X0299087Y0362674D01*
X0298988Y0362641D01*
X0298887Y0362613D01*
X0298785Y0362588D01*
X0298682Y0362567D01*
X0298578Y0362550D01*
X0298474Y0362537D01*
X0298370Y0362528D01*
X0298265Y0362523D01*
X0298160Y0362522D01*
X0298055Y0362525D01*
X0297950Y0362532D01*
X0297846Y0362543D01*
X0297742Y0362558D01*
X0297639Y0362577D01*
X0297536Y0362600D01*
X0297435Y0362626D01*
X0297334Y0362657D01*
X0297235Y0362691D01*
X0297137Y0362729D01*
X0297041Y0362771D01*
X0296947Y0362816D01*
X0296854Y0362865D01*
X0296763Y0362918D01*
X0296674Y0362974D01*
X0296587Y0363033D01*
X0296503Y0363096D01*
X0296421Y0363161D01*
X0296342Y0363230D01*
X0296265Y0363302D01*
X0296191Y0363376D01*
X0296120Y0363453D01*
X0296052Y0363533D01*
X0295988Y0363616D01*
X0295926Y0363701D01*
X0295868Y0363788D01*
X0295812Y0363877D01*
X0295761Y0363969D01*
X0295713Y0364062D01*
X0295668Y0364157D01*
X0295627Y0364254D01*
X0295590Y0364352D01*
X0295557Y0364451D01*
X0295527Y0364552D01*
X0295502Y0364654D01*
X0295480Y0364756D01*
X0295462Y0364860D01*
X0295448Y0364964D01*
X0295438Y0365068D01*
X0295432Y0365173D01*
X0295430Y0365278D01*
X0336353Y0406201D02*
X0336355Y0406306D01*
X0336361Y0406411D01*
X0336371Y0406515D01*
X0336385Y0406619D01*
X0336403Y0406723D01*
X0336425Y0406825D01*
X0336450Y0406927D01*
X0336480Y0407028D01*
X0336513Y0407127D01*
X0336550Y0407225D01*
X0336591Y0407322D01*
X0336636Y0407417D01*
X0336684Y0407510D01*
X0336735Y0407602D01*
X0336791Y0407691D01*
X0336849Y0407778D01*
X0336911Y0407863D01*
X0336975Y0407946D01*
X0337043Y0408026D01*
X0337114Y0408103D01*
X0337188Y0408177D01*
X0337265Y0408249D01*
X0337344Y0408318D01*
X0337426Y0408383D01*
X0337510Y0408446D01*
X0337597Y0408505D01*
X0337686Y0408561D01*
X0337777Y0408614D01*
X0337870Y0408663D01*
X0337964Y0408708D01*
X0338060Y0408750D01*
X0338158Y0408788D01*
X0338257Y0408822D01*
X0338358Y0408853D01*
X0338459Y0408879D01*
X0338562Y0408902D01*
X0338665Y0408921D01*
X0338769Y0408936D01*
X0338873Y0408947D01*
X0338978Y0408954D01*
X0339083Y0408957D01*
X0339188Y0408956D01*
X0339293Y0408951D01*
X0339397Y0408942D01*
X0339501Y0408929D01*
X0339605Y0408912D01*
X0339708Y0408891D01*
X0339810Y0408866D01*
X0339911Y0408838D01*
X0340010Y0408805D01*
X0340109Y0408769D01*
X0340206Y0408729D01*
X0340301Y0408686D01*
X0340395Y0408638D01*
X0340487Y0408588D01*
X0340577Y0408534D01*
X0340665Y0408476D01*
X0340750Y0408415D01*
X0340833Y0408351D01*
X0340914Y0408284D01*
X0340992Y0408214D01*
X0341067Y0408140D01*
X0341139Y0408065D01*
X0341209Y0407986D01*
X0341275Y0407905D01*
X0341339Y0407821D01*
X0341399Y0407735D01*
X0341455Y0407647D01*
X0341509Y0407556D01*
X0341559Y0407464D01*
X0341605Y0407370D01*
X0341648Y0407274D01*
X0341687Y0407176D01*
X0341722Y0407078D01*
X0341753Y0406977D01*
X0341781Y0406876D01*
X0341805Y0406774D01*
X0341825Y0406671D01*
X0341841Y0406567D01*
X0341853Y0406463D01*
X0341861Y0406358D01*
X0341865Y0406253D01*
X0341865Y0406149D01*
X0341861Y0406044D01*
X0341853Y0405939D01*
X0341841Y0405835D01*
X0341825Y0405731D01*
X0341805Y0405628D01*
X0341781Y0405526D01*
X0341753Y0405425D01*
X0341722Y0405324D01*
X0341687Y0405226D01*
X0341648Y0405128D01*
X0341605Y0405032D01*
X0341559Y0404938D01*
X0341509Y0404846D01*
X0341455Y0404755D01*
X0341399Y0404667D01*
X0341339Y0404581D01*
X0341275Y0404497D01*
X0341209Y0404416D01*
X0341139Y0404337D01*
X0341067Y0404262D01*
X0340992Y0404188D01*
X0340914Y0404118D01*
X0340833Y0404051D01*
X0340750Y0403987D01*
X0340665Y0403926D01*
X0340577Y0403868D01*
X0340487Y0403814D01*
X0340395Y0403764D01*
X0340301Y0403716D01*
X0340206Y0403673D01*
X0340109Y0403633D01*
X0340010Y0403597D01*
X0339911Y0403564D01*
X0339810Y0403536D01*
X0339708Y0403511D01*
X0339605Y0403490D01*
X0339501Y0403473D01*
X0339397Y0403460D01*
X0339293Y0403451D01*
X0339188Y0403446D01*
X0339083Y0403445D01*
X0338978Y0403448D01*
X0338873Y0403455D01*
X0338769Y0403466D01*
X0338665Y0403481D01*
X0338562Y0403500D01*
X0338459Y0403523D01*
X0338358Y0403549D01*
X0338257Y0403580D01*
X0338158Y0403614D01*
X0338060Y0403652D01*
X0337964Y0403694D01*
X0337870Y0403739D01*
X0337777Y0403788D01*
X0337686Y0403841D01*
X0337597Y0403897D01*
X0337510Y0403956D01*
X0337426Y0404019D01*
X0337344Y0404084D01*
X0337265Y0404153D01*
X0337188Y0404225D01*
X0337114Y0404299D01*
X0337043Y0404376D01*
X0336975Y0404456D01*
X0336911Y0404539D01*
X0336849Y0404624D01*
X0336791Y0404711D01*
X0336735Y0404800D01*
X0336684Y0404892D01*
X0336636Y0404985D01*
X0336591Y0405080D01*
X0336550Y0405177D01*
X0336513Y0405275D01*
X0336480Y0405374D01*
X0336450Y0405475D01*
X0336425Y0405577D01*
X0336403Y0405679D01*
X0336385Y0405783D01*
X0336371Y0405887D01*
X0336361Y0405991D01*
X0336355Y0406096D01*
X0336353Y0406201D01*
X0403445Y0339109D02*
X0403447Y0339214D01*
X0403453Y0339319D01*
X0403463Y0339423D01*
X0403477Y0339527D01*
X0403495Y0339631D01*
X0403517Y0339733D01*
X0403542Y0339835D01*
X0403572Y0339936D01*
X0403605Y0340035D01*
X0403642Y0340133D01*
X0403683Y0340230D01*
X0403728Y0340325D01*
X0403776Y0340418D01*
X0403827Y0340510D01*
X0403883Y0340599D01*
X0403941Y0340686D01*
X0404003Y0340771D01*
X0404067Y0340854D01*
X0404135Y0340934D01*
X0404206Y0341011D01*
X0404280Y0341085D01*
X0404357Y0341157D01*
X0404436Y0341226D01*
X0404518Y0341291D01*
X0404602Y0341354D01*
X0404689Y0341413D01*
X0404778Y0341469D01*
X0404869Y0341522D01*
X0404962Y0341571D01*
X0405056Y0341616D01*
X0405152Y0341658D01*
X0405250Y0341696D01*
X0405349Y0341730D01*
X0405450Y0341761D01*
X0405551Y0341787D01*
X0405654Y0341810D01*
X0405757Y0341829D01*
X0405861Y0341844D01*
X0405965Y0341855D01*
X0406070Y0341862D01*
X0406175Y0341865D01*
X0406280Y0341864D01*
X0406385Y0341859D01*
X0406489Y0341850D01*
X0406593Y0341837D01*
X0406697Y0341820D01*
X0406800Y0341799D01*
X0406902Y0341774D01*
X0407003Y0341746D01*
X0407102Y0341713D01*
X0407201Y0341677D01*
X0407298Y0341637D01*
X0407393Y0341594D01*
X0407487Y0341546D01*
X0407579Y0341496D01*
X0407669Y0341442D01*
X0407757Y0341384D01*
X0407842Y0341323D01*
X0407925Y0341259D01*
X0408006Y0341192D01*
X0408084Y0341122D01*
X0408159Y0341048D01*
X0408231Y0340973D01*
X0408301Y0340894D01*
X0408367Y0340813D01*
X0408431Y0340729D01*
X0408491Y0340643D01*
X0408547Y0340555D01*
X0408601Y0340464D01*
X0408651Y0340372D01*
X0408697Y0340278D01*
X0408740Y0340182D01*
X0408779Y0340084D01*
X0408814Y0339986D01*
X0408845Y0339885D01*
X0408873Y0339784D01*
X0408897Y0339682D01*
X0408917Y0339579D01*
X0408933Y0339475D01*
X0408945Y0339371D01*
X0408953Y0339266D01*
X0408957Y0339161D01*
X0408957Y0339057D01*
X0408953Y0338952D01*
X0408945Y0338847D01*
X0408933Y0338743D01*
X0408917Y0338639D01*
X0408897Y0338536D01*
X0408873Y0338434D01*
X0408845Y0338333D01*
X0408814Y0338232D01*
X0408779Y0338134D01*
X0408740Y0338036D01*
X0408697Y0337940D01*
X0408651Y0337846D01*
X0408601Y0337754D01*
X0408547Y0337663D01*
X0408491Y0337575D01*
X0408431Y0337489D01*
X0408367Y0337405D01*
X0408301Y0337324D01*
X0408231Y0337245D01*
X0408159Y0337170D01*
X0408084Y0337096D01*
X0408006Y0337026D01*
X0407925Y0336959D01*
X0407842Y0336895D01*
X0407757Y0336834D01*
X0407669Y0336776D01*
X0407579Y0336722D01*
X0407487Y0336672D01*
X0407393Y0336624D01*
X0407298Y0336581D01*
X0407201Y0336541D01*
X0407102Y0336505D01*
X0407003Y0336472D01*
X0406902Y0336444D01*
X0406800Y0336419D01*
X0406697Y0336398D01*
X0406593Y0336381D01*
X0406489Y0336368D01*
X0406385Y0336359D01*
X0406280Y0336354D01*
X0406175Y0336353D01*
X0406070Y0336356D01*
X0405965Y0336363D01*
X0405861Y0336374D01*
X0405757Y0336389D01*
X0405654Y0336408D01*
X0405551Y0336431D01*
X0405450Y0336457D01*
X0405349Y0336488D01*
X0405250Y0336522D01*
X0405152Y0336560D01*
X0405056Y0336602D01*
X0404962Y0336647D01*
X0404869Y0336696D01*
X0404778Y0336749D01*
X0404689Y0336805D01*
X0404602Y0336864D01*
X0404518Y0336927D01*
X0404436Y0336992D01*
X0404357Y0337061D01*
X0404280Y0337133D01*
X0404206Y0337207D01*
X0404135Y0337284D01*
X0404067Y0337364D01*
X0404003Y0337447D01*
X0403941Y0337532D01*
X0403883Y0337619D01*
X0403827Y0337708D01*
X0403776Y0337800D01*
X0403728Y0337893D01*
X0403683Y0337988D01*
X0403642Y0338085D01*
X0403605Y0338183D01*
X0403572Y0338282D01*
X0403542Y0338383D01*
X0403517Y0338485D01*
X0403495Y0338587D01*
X0403477Y0338691D01*
X0403463Y0338795D01*
X0403453Y0338899D01*
X0403447Y0339004D01*
X0403445Y0339109D01*
X0362522Y0298186D02*
X0362524Y0298291D01*
X0362530Y0298396D01*
X0362540Y0298500D01*
X0362554Y0298604D01*
X0362572Y0298708D01*
X0362594Y0298810D01*
X0362619Y0298912D01*
X0362649Y0299013D01*
X0362682Y0299112D01*
X0362719Y0299210D01*
X0362760Y0299307D01*
X0362805Y0299402D01*
X0362853Y0299495D01*
X0362904Y0299587D01*
X0362960Y0299676D01*
X0363018Y0299763D01*
X0363080Y0299848D01*
X0363144Y0299931D01*
X0363212Y0300011D01*
X0363283Y0300088D01*
X0363357Y0300162D01*
X0363434Y0300234D01*
X0363513Y0300303D01*
X0363595Y0300368D01*
X0363679Y0300431D01*
X0363766Y0300490D01*
X0363855Y0300546D01*
X0363946Y0300599D01*
X0364039Y0300648D01*
X0364133Y0300693D01*
X0364229Y0300735D01*
X0364327Y0300773D01*
X0364426Y0300807D01*
X0364527Y0300838D01*
X0364628Y0300864D01*
X0364731Y0300887D01*
X0364834Y0300906D01*
X0364938Y0300921D01*
X0365042Y0300932D01*
X0365147Y0300939D01*
X0365252Y0300942D01*
X0365357Y0300941D01*
X0365462Y0300936D01*
X0365566Y0300927D01*
X0365670Y0300914D01*
X0365774Y0300897D01*
X0365877Y0300876D01*
X0365979Y0300851D01*
X0366080Y0300823D01*
X0366179Y0300790D01*
X0366278Y0300754D01*
X0366375Y0300714D01*
X0366470Y0300671D01*
X0366564Y0300623D01*
X0366656Y0300573D01*
X0366746Y0300519D01*
X0366834Y0300461D01*
X0366919Y0300400D01*
X0367002Y0300336D01*
X0367083Y0300269D01*
X0367161Y0300199D01*
X0367236Y0300125D01*
X0367308Y0300050D01*
X0367378Y0299971D01*
X0367444Y0299890D01*
X0367508Y0299806D01*
X0367568Y0299720D01*
X0367624Y0299632D01*
X0367678Y0299541D01*
X0367728Y0299449D01*
X0367774Y0299355D01*
X0367817Y0299259D01*
X0367856Y0299161D01*
X0367891Y0299063D01*
X0367922Y0298962D01*
X0367950Y0298861D01*
X0367974Y0298759D01*
X0367994Y0298656D01*
X0368010Y0298552D01*
X0368022Y0298448D01*
X0368030Y0298343D01*
X0368034Y0298238D01*
X0368034Y0298134D01*
X0368030Y0298029D01*
X0368022Y0297924D01*
X0368010Y0297820D01*
X0367994Y0297716D01*
X0367974Y0297613D01*
X0367950Y0297511D01*
X0367922Y0297410D01*
X0367891Y0297309D01*
X0367856Y0297211D01*
X0367817Y0297113D01*
X0367774Y0297017D01*
X0367728Y0296923D01*
X0367678Y0296831D01*
X0367624Y0296740D01*
X0367568Y0296652D01*
X0367508Y0296566D01*
X0367444Y0296482D01*
X0367378Y0296401D01*
X0367308Y0296322D01*
X0367236Y0296247D01*
X0367161Y0296173D01*
X0367083Y0296103D01*
X0367002Y0296036D01*
X0366919Y0295972D01*
X0366834Y0295911D01*
X0366746Y0295853D01*
X0366656Y0295799D01*
X0366564Y0295749D01*
X0366470Y0295701D01*
X0366375Y0295658D01*
X0366278Y0295618D01*
X0366179Y0295582D01*
X0366080Y0295549D01*
X0365979Y0295521D01*
X0365877Y0295496D01*
X0365774Y0295475D01*
X0365670Y0295458D01*
X0365566Y0295445D01*
X0365462Y0295436D01*
X0365357Y0295431D01*
X0365252Y0295430D01*
X0365147Y0295433D01*
X0365042Y0295440D01*
X0364938Y0295451D01*
X0364834Y0295466D01*
X0364731Y0295485D01*
X0364628Y0295508D01*
X0364527Y0295534D01*
X0364426Y0295565D01*
X0364327Y0295599D01*
X0364229Y0295637D01*
X0364133Y0295679D01*
X0364039Y0295724D01*
X0363946Y0295773D01*
X0363855Y0295826D01*
X0363766Y0295882D01*
X0363679Y0295941D01*
X0363595Y0296004D01*
X0363513Y0296069D01*
X0363434Y0296138D01*
X0363357Y0296210D01*
X0363283Y0296284D01*
X0363212Y0296361D01*
X0363144Y0296441D01*
X0363080Y0296524D01*
X0363018Y0296609D01*
X0362960Y0296696D01*
X0362904Y0296785D01*
X0362853Y0296877D01*
X0362805Y0296970D01*
X0362760Y0297065D01*
X0362719Y0297162D01*
X0362682Y0297260D01*
X0362649Y0297359D01*
X0362619Y0297460D01*
X0362594Y0297562D01*
X0362572Y0297664D01*
X0362554Y0297768D01*
X0362540Y0297872D01*
X0362530Y0297976D01*
X0362524Y0298081D01*
X0362522Y0298186D01*
M02*
