G75*
%MOIN*%
%OFA0B0*%
%FSLAX25Y25*%
%IPPOS*%
%LPD*%
%AMOC8*
5,1,8,0,0,1.08239X$1,22.5*
%
%ADD10C,0.01600*%
%ADD11C,0.00600*%
%ADD12C,0.00300*%
%ADD13C,0.00500*%
%ADD14C,0.00400*%
%ADD15C,0.00000*%
%ADD16C,0.00472*%
%ADD17C,0.00100*%
%ADD18C,0.00800*%
%ADD19C,0.00079*%
%ADD20C,0.00787*%
%ADD21C,0.01575*%
D10*
X0026298Y0021844D02*
X0037434Y0032980D01*
X0032980Y0037434D02*
X0021844Y0026298D01*
X0001800Y0046342D01*
X0102020Y0146562D01*
X0037991Y0210591D01*
X0037991Y0333082D01*
X0102020Y0397112D01*
X0001800Y0497332D01*
X0021844Y0517375D01*
X0032980Y0506240D01*
X0037434Y0510694D02*
X0026298Y0521830D01*
X0046342Y0541874D01*
X0146562Y0441654D01*
X0210591Y0505683D01*
X0333082Y0505683D01*
X0397112Y0441654D01*
X0497332Y0541874D01*
X0517375Y0521830D01*
X0506240Y0510694D01*
X0510694Y0506240D02*
X0521830Y0517375D01*
X0541874Y0497332D01*
X0441654Y0397112D01*
X0505683Y0333082D01*
X0505683Y0210591D01*
X0441654Y0146562D01*
X0541874Y0046342D01*
X0521830Y0026298D01*
X0510694Y0037434D01*
X0506240Y0032980D02*
X0517375Y0021844D01*
X0497332Y0001800D01*
X0397112Y0102020D01*
X0333082Y0037991D01*
X0210591Y0037991D01*
X0146562Y0102020D01*
X0046342Y0001800D01*
X0026298Y0021844D01*
X0037433Y0032979D02*
X0037771Y0032757D01*
X0038114Y0032544D01*
X0038462Y0032339D01*
X0038815Y0032142D01*
X0039173Y0031955D01*
X0039535Y0031776D01*
X0039902Y0031606D01*
X0040273Y0031445D01*
X0040647Y0031293D01*
X0041025Y0031150D01*
X0041406Y0031017D01*
X0041791Y0030893D01*
X0042178Y0030778D01*
X0042569Y0030673D01*
X0042961Y0030578D01*
X0043356Y0030492D01*
X0043753Y0030416D01*
X0044151Y0030349D01*
X0044551Y0030293D01*
X0044953Y0030246D01*
X0045355Y0030209D01*
X0045758Y0030182D01*
X0046162Y0030165D01*
X0046566Y0030157D01*
X0046970Y0030160D01*
X0047374Y0030172D01*
X0047777Y0030195D01*
X0048180Y0030227D01*
X0048582Y0030269D01*
X0048983Y0030321D01*
X0049382Y0030382D01*
X0049780Y0030454D01*
X0050175Y0030535D01*
X0050569Y0030626D01*
X0050961Y0030726D01*
X0051349Y0030836D01*
X0051735Y0030955D01*
X0052118Y0031084D01*
X0052498Y0031222D01*
X0052874Y0031370D01*
X0053247Y0031526D01*
X0053615Y0031692D01*
X0053980Y0031867D01*
X0054340Y0032050D01*
X0054695Y0032242D01*
X0055046Y0032443D01*
X0055391Y0032653D01*
X0055731Y0032870D01*
X0056066Y0033096D01*
X0056396Y0033331D01*
X0056719Y0033573D01*
X0057036Y0033823D01*
X0057348Y0034081D01*
X0057652Y0034346D01*
X0057951Y0034618D01*
X0058242Y0034898D01*
X0058526Y0035185D01*
X0058804Y0035479D01*
X0059074Y0035779D01*
X0059337Y0036086D01*
X0059592Y0036400D01*
X0059839Y0036719D01*
X0060079Y0037045D01*
X0060310Y0037376D01*
X0060533Y0037713D01*
X0060748Y0038055D01*
X0060955Y0038402D01*
X0061153Y0038754D01*
X0061342Y0039111D01*
X0061522Y0039473D01*
X0061694Y0039839D01*
X0061856Y0040209D01*
X0062010Y0040582D01*
X0062154Y0040960D01*
X0062289Y0041341D01*
X0062415Y0041725D01*
X0062531Y0042112D01*
X0062638Y0042501D01*
X0062735Y0042894D01*
X0062822Y0043288D01*
X0062900Y0043685D01*
X0062968Y0044083D01*
X0063026Y0044483D01*
X0063075Y0044884D01*
X0063113Y0045286D01*
X0063142Y0045689D01*
X0063161Y0046093D01*
X0063170Y0046497D01*
X0063169Y0046901D01*
X0063159Y0047305D01*
X0063138Y0047708D01*
X0063107Y0048111D01*
X0063067Y0048513D01*
X0063017Y0048914D01*
X0062957Y0049314D01*
X0062887Y0049712D01*
X0062808Y0050108D01*
X0062719Y0050502D01*
X0062620Y0050894D01*
X0062512Y0051283D01*
X0062394Y0051669D01*
X0062267Y0052053D01*
X0062130Y0052433D01*
X0061984Y0052810D01*
X0061829Y0053183D01*
X0061665Y0053552D01*
X0061492Y0053917D01*
X0061310Y0054278D01*
X0061119Y0054634D01*
X0060920Y0054986D01*
X0060712Y0055332D01*
X0060496Y0055673D01*
X0060271Y0056009D01*
X0060038Y0056339D01*
X0059797Y0056664D01*
X0059549Y0056982D01*
X0059292Y0057295D01*
X0059028Y0057601D01*
X0058757Y0057900D01*
X0058478Y0058192D01*
X0058193Y0058478D01*
X0057900Y0058757D01*
X0057601Y0059028D01*
X0057295Y0059292D01*
X0056982Y0059549D01*
X0056664Y0059797D01*
X0056339Y0060038D01*
X0056009Y0060271D01*
X0055673Y0060496D01*
X0055332Y0060712D01*
X0054986Y0060920D01*
X0054634Y0061119D01*
X0054278Y0061310D01*
X0053917Y0061492D01*
X0053552Y0061665D01*
X0053183Y0061829D01*
X0052810Y0061984D01*
X0052433Y0062130D01*
X0052053Y0062267D01*
X0051669Y0062394D01*
X0051283Y0062512D01*
X0050894Y0062620D01*
X0050502Y0062719D01*
X0050108Y0062808D01*
X0049712Y0062887D01*
X0049314Y0062957D01*
X0048914Y0063017D01*
X0048513Y0063067D01*
X0048111Y0063107D01*
X0047708Y0063138D01*
X0047305Y0063159D01*
X0046901Y0063169D01*
X0046497Y0063170D01*
X0046093Y0063161D01*
X0045689Y0063142D01*
X0045286Y0063113D01*
X0044884Y0063075D01*
X0044483Y0063026D01*
X0044083Y0062968D01*
X0043685Y0062900D01*
X0043288Y0062822D01*
X0042894Y0062735D01*
X0042501Y0062638D01*
X0042112Y0062531D01*
X0041725Y0062415D01*
X0041341Y0062289D01*
X0040960Y0062154D01*
X0040582Y0062010D01*
X0040209Y0061856D01*
X0039839Y0061694D01*
X0039473Y0061522D01*
X0039111Y0061342D01*
X0038754Y0061153D01*
X0038402Y0060955D01*
X0038055Y0060748D01*
X0037713Y0060533D01*
X0037376Y0060310D01*
X0037045Y0060079D01*
X0036719Y0059839D01*
X0036400Y0059592D01*
X0036087Y0059337D01*
X0035780Y0059074D01*
X0035479Y0058804D01*
X0035185Y0058527D01*
X0034898Y0058242D01*
X0034618Y0057951D01*
X0034346Y0057652D01*
X0034081Y0057348D01*
X0033823Y0057036D01*
X0033573Y0056719D01*
X0033331Y0056396D01*
X0033096Y0056066D01*
X0032870Y0055731D01*
X0032653Y0055391D01*
X0032443Y0055046D01*
X0032242Y0054695D01*
X0032050Y0054340D01*
X0031867Y0053980D01*
X0031692Y0053615D01*
X0031526Y0053247D01*
X0031370Y0052874D01*
X0031222Y0052498D01*
X0031084Y0052118D01*
X0030955Y0051735D01*
X0030836Y0051349D01*
X0030726Y0050961D01*
X0030626Y0050569D01*
X0030535Y0050175D01*
X0030454Y0049780D01*
X0030382Y0049382D01*
X0030321Y0048983D01*
X0030269Y0048582D01*
X0030227Y0048180D01*
X0030195Y0047777D01*
X0030172Y0047374D01*
X0030160Y0046970D01*
X0030157Y0046566D01*
X0030165Y0046162D01*
X0030182Y0045758D01*
X0030209Y0045355D01*
X0030246Y0044953D01*
X0030293Y0044552D01*
X0030349Y0044151D01*
X0030416Y0043753D01*
X0030492Y0043356D01*
X0030578Y0042961D01*
X0030673Y0042569D01*
X0030778Y0042178D01*
X0030893Y0041791D01*
X0031017Y0041406D01*
X0031150Y0041025D01*
X0031293Y0040647D01*
X0031445Y0040273D01*
X0031606Y0039902D01*
X0031776Y0039535D01*
X0031955Y0039173D01*
X0032142Y0038815D01*
X0032339Y0038462D01*
X0032544Y0038114D01*
X0032757Y0037771D01*
X0032979Y0037433D01*
X0032979Y0506241D02*
X0032757Y0505903D01*
X0032544Y0505560D01*
X0032339Y0505212D01*
X0032142Y0504859D01*
X0031955Y0504501D01*
X0031776Y0504139D01*
X0031606Y0503772D01*
X0031445Y0503401D01*
X0031293Y0503027D01*
X0031150Y0502649D01*
X0031017Y0502268D01*
X0030893Y0501883D01*
X0030778Y0501496D01*
X0030673Y0501105D01*
X0030578Y0500713D01*
X0030492Y0500318D01*
X0030416Y0499921D01*
X0030349Y0499523D01*
X0030293Y0499122D01*
X0030246Y0498721D01*
X0030209Y0498319D01*
X0030182Y0497916D01*
X0030165Y0497512D01*
X0030157Y0497108D01*
X0030160Y0496704D01*
X0030172Y0496300D01*
X0030195Y0495897D01*
X0030227Y0495494D01*
X0030269Y0495092D01*
X0030321Y0494691D01*
X0030382Y0494292D01*
X0030454Y0493894D01*
X0030535Y0493499D01*
X0030626Y0493105D01*
X0030726Y0492713D01*
X0030836Y0492325D01*
X0030955Y0491939D01*
X0031084Y0491556D01*
X0031222Y0491176D01*
X0031370Y0490800D01*
X0031526Y0490427D01*
X0031692Y0490059D01*
X0031867Y0489694D01*
X0032050Y0489334D01*
X0032242Y0488979D01*
X0032443Y0488628D01*
X0032653Y0488283D01*
X0032870Y0487943D01*
X0033096Y0487608D01*
X0033331Y0487278D01*
X0033573Y0486955D01*
X0033823Y0486638D01*
X0034081Y0486326D01*
X0034346Y0486022D01*
X0034618Y0485723D01*
X0034898Y0485432D01*
X0035185Y0485147D01*
X0035479Y0484870D01*
X0035780Y0484600D01*
X0036087Y0484337D01*
X0036400Y0484082D01*
X0036719Y0483835D01*
X0037045Y0483595D01*
X0037376Y0483364D01*
X0037713Y0483141D01*
X0038055Y0482926D01*
X0038402Y0482719D01*
X0038754Y0482521D01*
X0039111Y0482332D01*
X0039473Y0482152D01*
X0039839Y0481980D01*
X0040209Y0481818D01*
X0040582Y0481664D01*
X0040960Y0481520D01*
X0041341Y0481385D01*
X0041725Y0481259D01*
X0042112Y0481143D01*
X0042501Y0481036D01*
X0042894Y0480939D01*
X0043288Y0480852D01*
X0043685Y0480774D01*
X0044083Y0480706D01*
X0044483Y0480648D01*
X0044884Y0480599D01*
X0045286Y0480561D01*
X0045689Y0480532D01*
X0046093Y0480513D01*
X0046497Y0480504D01*
X0046901Y0480505D01*
X0047305Y0480515D01*
X0047708Y0480536D01*
X0048111Y0480567D01*
X0048513Y0480607D01*
X0048914Y0480657D01*
X0049314Y0480717D01*
X0049712Y0480787D01*
X0050108Y0480866D01*
X0050502Y0480955D01*
X0050894Y0481054D01*
X0051283Y0481162D01*
X0051669Y0481280D01*
X0052053Y0481407D01*
X0052433Y0481544D01*
X0052810Y0481690D01*
X0053183Y0481845D01*
X0053552Y0482009D01*
X0053917Y0482182D01*
X0054278Y0482364D01*
X0054634Y0482555D01*
X0054986Y0482754D01*
X0055332Y0482962D01*
X0055673Y0483178D01*
X0056009Y0483403D01*
X0056339Y0483636D01*
X0056664Y0483877D01*
X0056982Y0484125D01*
X0057295Y0484382D01*
X0057601Y0484646D01*
X0057900Y0484917D01*
X0058193Y0485196D01*
X0058478Y0485482D01*
X0058757Y0485774D01*
X0059028Y0486073D01*
X0059292Y0486379D01*
X0059549Y0486692D01*
X0059797Y0487010D01*
X0060038Y0487335D01*
X0060271Y0487665D01*
X0060496Y0488001D01*
X0060712Y0488342D01*
X0060920Y0488688D01*
X0061119Y0489040D01*
X0061310Y0489396D01*
X0061492Y0489757D01*
X0061665Y0490122D01*
X0061829Y0490491D01*
X0061984Y0490864D01*
X0062130Y0491241D01*
X0062267Y0491621D01*
X0062394Y0492005D01*
X0062512Y0492391D01*
X0062620Y0492780D01*
X0062719Y0493172D01*
X0062808Y0493566D01*
X0062887Y0493962D01*
X0062957Y0494360D01*
X0063017Y0494760D01*
X0063067Y0495161D01*
X0063107Y0495563D01*
X0063138Y0495966D01*
X0063159Y0496369D01*
X0063169Y0496773D01*
X0063170Y0497177D01*
X0063161Y0497581D01*
X0063142Y0497985D01*
X0063113Y0498388D01*
X0063075Y0498790D01*
X0063026Y0499191D01*
X0062968Y0499591D01*
X0062900Y0499989D01*
X0062822Y0500386D01*
X0062735Y0500780D01*
X0062638Y0501173D01*
X0062531Y0501562D01*
X0062415Y0501949D01*
X0062289Y0502333D01*
X0062154Y0502714D01*
X0062010Y0503092D01*
X0061856Y0503465D01*
X0061694Y0503835D01*
X0061522Y0504201D01*
X0061342Y0504563D01*
X0061153Y0504920D01*
X0060955Y0505272D01*
X0060748Y0505619D01*
X0060533Y0505961D01*
X0060310Y0506298D01*
X0060079Y0506629D01*
X0059839Y0506955D01*
X0059592Y0507274D01*
X0059337Y0507588D01*
X0059074Y0507895D01*
X0058804Y0508195D01*
X0058526Y0508489D01*
X0058242Y0508776D01*
X0057951Y0509056D01*
X0057652Y0509328D01*
X0057348Y0509593D01*
X0057036Y0509851D01*
X0056719Y0510101D01*
X0056396Y0510343D01*
X0056066Y0510578D01*
X0055731Y0510804D01*
X0055391Y0511021D01*
X0055046Y0511231D01*
X0054695Y0511432D01*
X0054340Y0511624D01*
X0053980Y0511807D01*
X0053615Y0511982D01*
X0053247Y0512148D01*
X0052874Y0512304D01*
X0052498Y0512452D01*
X0052118Y0512590D01*
X0051735Y0512719D01*
X0051349Y0512838D01*
X0050961Y0512948D01*
X0050569Y0513048D01*
X0050175Y0513139D01*
X0049780Y0513220D01*
X0049382Y0513292D01*
X0048983Y0513353D01*
X0048582Y0513405D01*
X0048180Y0513447D01*
X0047777Y0513479D01*
X0047374Y0513502D01*
X0046970Y0513514D01*
X0046566Y0513517D01*
X0046162Y0513509D01*
X0045758Y0513492D01*
X0045355Y0513465D01*
X0044953Y0513428D01*
X0044551Y0513381D01*
X0044151Y0513325D01*
X0043753Y0513258D01*
X0043356Y0513182D01*
X0042961Y0513096D01*
X0042569Y0513001D01*
X0042178Y0512896D01*
X0041791Y0512781D01*
X0041406Y0512657D01*
X0041025Y0512524D01*
X0040647Y0512381D01*
X0040273Y0512229D01*
X0039902Y0512068D01*
X0039535Y0511898D01*
X0039173Y0511719D01*
X0038815Y0511532D01*
X0038462Y0511335D01*
X0038114Y0511130D01*
X0037771Y0510917D01*
X0037433Y0510695D01*
X0506241Y0510695D02*
X0505903Y0510917D01*
X0505560Y0511130D01*
X0505212Y0511335D01*
X0504859Y0511532D01*
X0504501Y0511719D01*
X0504139Y0511898D01*
X0503772Y0512068D01*
X0503401Y0512229D01*
X0503027Y0512381D01*
X0502649Y0512524D01*
X0502268Y0512657D01*
X0501883Y0512781D01*
X0501496Y0512896D01*
X0501105Y0513001D01*
X0500713Y0513096D01*
X0500318Y0513182D01*
X0499921Y0513258D01*
X0499523Y0513325D01*
X0499123Y0513381D01*
X0498721Y0513428D01*
X0498319Y0513465D01*
X0497916Y0513492D01*
X0497512Y0513509D01*
X0497108Y0513517D01*
X0496704Y0513514D01*
X0496300Y0513502D01*
X0495897Y0513479D01*
X0495494Y0513447D01*
X0495092Y0513405D01*
X0494691Y0513353D01*
X0494292Y0513292D01*
X0493894Y0513220D01*
X0493499Y0513139D01*
X0493105Y0513048D01*
X0492713Y0512948D01*
X0492325Y0512838D01*
X0491939Y0512719D01*
X0491556Y0512590D01*
X0491176Y0512452D01*
X0490800Y0512304D01*
X0490427Y0512148D01*
X0490059Y0511982D01*
X0489694Y0511807D01*
X0489334Y0511624D01*
X0488979Y0511432D01*
X0488628Y0511231D01*
X0488283Y0511021D01*
X0487943Y0510804D01*
X0487608Y0510578D01*
X0487278Y0510343D01*
X0486955Y0510101D01*
X0486638Y0509851D01*
X0486326Y0509593D01*
X0486022Y0509328D01*
X0485723Y0509056D01*
X0485432Y0508776D01*
X0485148Y0508489D01*
X0484870Y0508195D01*
X0484600Y0507895D01*
X0484337Y0507588D01*
X0484082Y0507274D01*
X0483835Y0506955D01*
X0483595Y0506629D01*
X0483364Y0506298D01*
X0483141Y0505961D01*
X0482926Y0505619D01*
X0482719Y0505272D01*
X0482521Y0504920D01*
X0482332Y0504563D01*
X0482152Y0504201D01*
X0481980Y0503835D01*
X0481818Y0503465D01*
X0481664Y0503092D01*
X0481520Y0502714D01*
X0481385Y0502333D01*
X0481259Y0501949D01*
X0481143Y0501562D01*
X0481036Y0501173D01*
X0480939Y0500780D01*
X0480852Y0500386D01*
X0480774Y0499989D01*
X0480706Y0499591D01*
X0480648Y0499191D01*
X0480599Y0498790D01*
X0480561Y0498388D01*
X0480532Y0497985D01*
X0480513Y0497581D01*
X0480504Y0497177D01*
X0480505Y0496773D01*
X0480515Y0496369D01*
X0480536Y0495966D01*
X0480567Y0495563D01*
X0480607Y0495161D01*
X0480657Y0494760D01*
X0480717Y0494360D01*
X0480787Y0493962D01*
X0480866Y0493566D01*
X0480955Y0493172D01*
X0481054Y0492780D01*
X0481162Y0492391D01*
X0481280Y0492005D01*
X0481407Y0491621D01*
X0481544Y0491241D01*
X0481690Y0490864D01*
X0481845Y0490491D01*
X0482009Y0490122D01*
X0482182Y0489757D01*
X0482364Y0489396D01*
X0482555Y0489040D01*
X0482754Y0488688D01*
X0482962Y0488342D01*
X0483178Y0488001D01*
X0483403Y0487665D01*
X0483636Y0487335D01*
X0483877Y0487010D01*
X0484125Y0486692D01*
X0484382Y0486379D01*
X0484646Y0486073D01*
X0484917Y0485774D01*
X0485196Y0485482D01*
X0485481Y0485196D01*
X0485774Y0484917D01*
X0486073Y0484646D01*
X0486379Y0484382D01*
X0486692Y0484125D01*
X0487010Y0483877D01*
X0487335Y0483636D01*
X0487665Y0483403D01*
X0488001Y0483178D01*
X0488342Y0482962D01*
X0488688Y0482754D01*
X0489040Y0482555D01*
X0489396Y0482364D01*
X0489757Y0482182D01*
X0490122Y0482009D01*
X0490491Y0481845D01*
X0490864Y0481690D01*
X0491241Y0481544D01*
X0491621Y0481407D01*
X0492005Y0481280D01*
X0492391Y0481162D01*
X0492780Y0481054D01*
X0493172Y0480955D01*
X0493566Y0480866D01*
X0493962Y0480787D01*
X0494360Y0480717D01*
X0494760Y0480657D01*
X0495161Y0480607D01*
X0495563Y0480567D01*
X0495966Y0480536D01*
X0496369Y0480515D01*
X0496773Y0480505D01*
X0497177Y0480504D01*
X0497581Y0480513D01*
X0497985Y0480532D01*
X0498388Y0480561D01*
X0498790Y0480599D01*
X0499191Y0480648D01*
X0499591Y0480706D01*
X0499989Y0480774D01*
X0500386Y0480852D01*
X0500780Y0480939D01*
X0501173Y0481036D01*
X0501562Y0481143D01*
X0501949Y0481259D01*
X0502333Y0481385D01*
X0502714Y0481520D01*
X0503092Y0481664D01*
X0503465Y0481818D01*
X0503835Y0481980D01*
X0504201Y0482152D01*
X0504563Y0482332D01*
X0504920Y0482521D01*
X0505272Y0482719D01*
X0505619Y0482926D01*
X0505961Y0483141D01*
X0506298Y0483364D01*
X0506629Y0483595D01*
X0506955Y0483835D01*
X0507274Y0484082D01*
X0507587Y0484337D01*
X0507894Y0484600D01*
X0508195Y0484870D01*
X0508489Y0485147D01*
X0508776Y0485432D01*
X0509056Y0485723D01*
X0509328Y0486022D01*
X0509593Y0486326D01*
X0509851Y0486638D01*
X0510101Y0486955D01*
X0510343Y0487278D01*
X0510578Y0487608D01*
X0510804Y0487943D01*
X0511021Y0488283D01*
X0511231Y0488628D01*
X0511432Y0488979D01*
X0511624Y0489334D01*
X0511807Y0489694D01*
X0511982Y0490059D01*
X0512148Y0490427D01*
X0512304Y0490800D01*
X0512452Y0491176D01*
X0512590Y0491556D01*
X0512719Y0491939D01*
X0512838Y0492325D01*
X0512948Y0492713D01*
X0513048Y0493105D01*
X0513139Y0493499D01*
X0513220Y0493894D01*
X0513292Y0494292D01*
X0513353Y0494691D01*
X0513405Y0495092D01*
X0513447Y0495494D01*
X0513479Y0495897D01*
X0513502Y0496300D01*
X0513514Y0496704D01*
X0513517Y0497108D01*
X0513509Y0497512D01*
X0513492Y0497916D01*
X0513465Y0498319D01*
X0513428Y0498721D01*
X0513381Y0499122D01*
X0513325Y0499523D01*
X0513258Y0499921D01*
X0513182Y0500318D01*
X0513096Y0500713D01*
X0513001Y0501105D01*
X0512896Y0501496D01*
X0512781Y0501883D01*
X0512657Y0502268D01*
X0512524Y0502649D01*
X0512381Y0503027D01*
X0512229Y0503401D01*
X0512068Y0503772D01*
X0511898Y0504139D01*
X0511719Y0504501D01*
X0511532Y0504859D01*
X0511335Y0505212D01*
X0511130Y0505560D01*
X0510917Y0505903D01*
X0510695Y0506241D01*
X0510695Y0037433D02*
X0510917Y0037771D01*
X0511130Y0038114D01*
X0511335Y0038462D01*
X0511532Y0038815D01*
X0511719Y0039173D01*
X0511898Y0039535D01*
X0512068Y0039902D01*
X0512229Y0040273D01*
X0512381Y0040647D01*
X0512524Y0041025D01*
X0512657Y0041406D01*
X0512781Y0041791D01*
X0512896Y0042178D01*
X0513001Y0042569D01*
X0513096Y0042961D01*
X0513182Y0043356D01*
X0513258Y0043753D01*
X0513325Y0044151D01*
X0513381Y0044552D01*
X0513428Y0044953D01*
X0513465Y0045355D01*
X0513492Y0045758D01*
X0513509Y0046162D01*
X0513517Y0046566D01*
X0513514Y0046970D01*
X0513502Y0047374D01*
X0513479Y0047777D01*
X0513447Y0048180D01*
X0513405Y0048582D01*
X0513353Y0048983D01*
X0513292Y0049382D01*
X0513220Y0049780D01*
X0513139Y0050175D01*
X0513048Y0050569D01*
X0512948Y0050961D01*
X0512838Y0051349D01*
X0512719Y0051735D01*
X0512590Y0052118D01*
X0512452Y0052498D01*
X0512304Y0052874D01*
X0512148Y0053247D01*
X0511982Y0053615D01*
X0511807Y0053980D01*
X0511624Y0054340D01*
X0511432Y0054695D01*
X0511231Y0055046D01*
X0511021Y0055391D01*
X0510804Y0055731D01*
X0510578Y0056066D01*
X0510343Y0056396D01*
X0510101Y0056719D01*
X0509851Y0057036D01*
X0509593Y0057348D01*
X0509328Y0057652D01*
X0509056Y0057951D01*
X0508776Y0058242D01*
X0508489Y0058527D01*
X0508195Y0058804D01*
X0507894Y0059074D01*
X0507587Y0059337D01*
X0507274Y0059592D01*
X0506955Y0059839D01*
X0506629Y0060079D01*
X0506298Y0060310D01*
X0505961Y0060533D01*
X0505619Y0060748D01*
X0505272Y0060955D01*
X0504920Y0061153D01*
X0504563Y0061342D01*
X0504201Y0061522D01*
X0503835Y0061694D01*
X0503465Y0061856D01*
X0503092Y0062010D01*
X0502714Y0062154D01*
X0502333Y0062289D01*
X0501949Y0062415D01*
X0501562Y0062531D01*
X0501173Y0062638D01*
X0500780Y0062735D01*
X0500386Y0062822D01*
X0499989Y0062900D01*
X0499591Y0062968D01*
X0499191Y0063026D01*
X0498790Y0063075D01*
X0498388Y0063113D01*
X0497985Y0063142D01*
X0497581Y0063161D01*
X0497177Y0063170D01*
X0496773Y0063169D01*
X0496369Y0063159D01*
X0495966Y0063138D01*
X0495563Y0063107D01*
X0495161Y0063067D01*
X0494760Y0063017D01*
X0494360Y0062957D01*
X0493962Y0062887D01*
X0493566Y0062808D01*
X0493172Y0062719D01*
X0492780Y0062620D01*
X0492391Y0062512D01*
X0492005Y0062394D01*
X0491621Y0062267D01*
X0491241Y0062130D01*
X0490864Y0061984D01*
X0490491Y0061829D01*
X0490122Y0061665D01*
X0489757Y0061492D01*
X0489396Y0061310D01*
X0489040Y0061119D01*
X0488688Y0060920D01*
X0488342Y0060712D01*
X0488001Y0060496D01*
X0487665Y0060271D01*
X0487335Y0060038D01*
X0487010Y0059797D01*
X0486692Y0059549D01*
X0486379Y0059292D01*
X0486073Y0059028D01*
X0485774Y0058757D01*
X0485481Y0058478D01*
X0485196Y0058192D01*
X0484917Y0057900D01*
X0484646Y0057601D01*
X0484382Y0057295D01*
X0484125Y0056982D01*
X0483877Y0056664D01*
X0483636Y0056339D01*
X0483403Y0056009D01*
X0483178Y0055673D01*
X0482962Y0055332D01*
X0482754Y0054986D01*
X0482555Y0054634D01*
X0482364Y0054278D01*
X0482182Y0053917D01*
X0482009Y0053552D01*
X0481845Y0053183D01*
X0481690Y0052810D01*
X0481544Y0052433D01*
X0481407Y0052053D01*
X0481280Y0051669D01*
X0481162Y0051283D01*
X0481054Y0050894D01*
X0480955Y0050502D01*
X0480866Y0050108D01*
X0480787Y0049712D01*
X0480717Y0049314D01*
X0480657Y0048914D01*
X0480607Y0048513D01*
X0480567Y0048111D01*
X0480536Y0047708D01*
X0480515Y0047305D01*
X0480505Y0046901D01*
X0480504Y0046497D01*
X0480513Y0046093D01*
X0480532Y0045689D01*
X0480561Y0045286D01*
X0480599Y0044884D01*
X0480648Y0044483D01*
X0480706Y0044083D01*
X0480774Y0043685D01*
X0480852Y0043288D01*
X0480939Y0042894D01*
X0481036Y0042501D01*
X0481143Y0042112D01*
X0481259Y0041725D01*
X0481385Y0041341D01*
X0481520Y0040960D01*
X0481664Y0040582D01*
X0481818Y0040209D01*
X0481980Y0039839D01*
X0482152Y0039473D01*
X0482332Y0039111D01*
X0482521Y0038754D01*
X0482719Y0038402D01*
X0482926Y0038055D01*
X0483141Y0037713D01*
X0483364Y0037376D01*
X0483595Y0037045D01*
X0483835Y0036719D01*
X0484082Y0036400D01*
X0484337Y0036086D01*
X0484600Y0035779D01*
X0484870Y0035479D01*
X0485148Y0035185D01*
X0485432Y0034898D01*
X0485723Y0034618D01*
X0486022Y0034346D01*
X0486326Y0034081D01*
X0486638Y0033823D01*
X0486955Y0033573D01*
X0487278Y0033331D01*
X0487608Y0033096D01*
X0487943Y0032870D01*
X0488283Y0032653D01*
X0488628Y0032443D01*
X0488979Y0032242D01*
X0489334Y0032050D01*
X0489694Y0031867D01*
X0490059Y0031692D01*
X0490427Y0031526D01*
X0490800Y0031370D01*
X0491176Y0031222D01*
X0491556Y0031084D01*
X0491939Y0030955D01*
X0492325Y0030836D01*
X0492713Y0030726D01*
X0493105Y0030626D01*
X0493499Y0030535D01*
X0493894Y0030454D01*
X0494292Y0030382D01*
X0494691Y0030321D01*
X0495092Y0030269D01*
X0495494Y0030227D01*
X0495897Y0030195D01*
X0496300Y0030172D01*
X0496704Y0030160D01*
X0497108Y0030157D01*
X0497512Y0030165D01*
X0497916Y0030182D01*
X0498319Y0030209D01*
X0498721Y0030246D01*
X0499123Y0030293D01*
X0499523Y0030349D01*
X0499921Y0030416D01*
X0500318Y0030492D01*
X0500713Y0030578D01*
X0501105Y0030673D01*
X0501496Y0030778D01*
X0501883Y0030893D01*
X0502268Y0031017D01*
X0502649Y0031150D01*
X0503027Y0031293D01*
X0503401Y0031445D01*
X0503772Y0031606D01*
X0504139Y0031776D01*
X0504501Y0031955D01*
X0504859Y0032142D01*
X0505212Y0032339D01*
X0505560Y0032544D01*
X0505903Y0032757D01*
X0506241Y0032979D01*
D11*
X0319141Y0060237D02*
X0318074Y0059170D01*
X0319141Y0060237D02*
X0319141Y0062372D01*
X0318074Y0063440D01*
X0317006Y0063440D01*
X0315939Y0062372D01*
X0315939Y0060237D01*
X0314871Y0059170D01*
X0313803Y0059170D01*
X0312736Y0060237D01*
X0312736Y0062372D01*
X0313803Y0063440D01*
X0313803Y0065615D02*
X0318074Y0065615D01*
X0319141Y0066683D01*
X0319141Y0068818D01*
X0318074Y0069885D01*
X0319141Y0072061D02*
X0312736Y0072061D01*
X0313803Y0069885D02*
X0312736Y0068818D01*
X0312736Y0066683D01*
X0313803Y0065615D01*
X0308841Y0065337D02*
X0308841Y0068539D01*
X0307773Y0069607D01*
X0303503Y0069607D01*
X0302435Y0068539D01*
X0302435Y0065337D01*
X0308841Y0065337D01*
X0307773Y0063162D02*
X0308841Y0062094D01*
X0308841Y0059959D01*
X0307773Y0058891D01*
X0305638Y0059959D02*
X0304571Y0058891D01*
X0303503Y0058891D01*
X0302435Y0059959D01*
X0302435Y0062094D01*
X0303503Y0063162D01*
X0305638Y0062094D02*
X0306706Y0063162D01*
X0307773Y0063162D01*
X0305638Y0062094D02*
X0305638Y0059959D01*
X0298819Y0058891D02*
X0292413Y0058891D01*
X0292413Y0062094D01*
X0293481Y0063162D01*
X0295616Y0063162D01*
X0296684Y0062094D01*
X0296684Y0058891D01*
X0288240Y0058891D02*
X0281835Y0058891D01*
X0281835Y0062094D01*
X0282902Y0063162D01*
X0285037Y0063162D01*
X0286105Y0062094D01*
X0286105Y0058891D01*
X0278775Y0058334D02*
X0272369Y0058334D01*
X0272369Y0061537D01*
X0273437Y0062605D01*
X0275572Y0062605D01*
X0276640Y0061537D01*
X0276640Y0058334D01*
X0275572Y0064780D02*
X0275572Y0066915D01*
X0272369Y0069050D02*
X0272369Y0064780D01*
X0278775Y0064780D01*
X0278775Y0069050D01*
X0281835Y0069607D02*
X0281835Y0065337D01*
X0288240Y0065337D01*
X0288240Y0069607D01*
X0287173Y0071782D02*
X0288240Y0072850D01*
X0288240Y0074985D01*
X0287173Y0076053D01*
X0285037Y0076053D01*
X0283970Y0074985D01*
X0283970Y0073917D01*
X0285037Y0071782D01*
X0281835Y0071782D01*
X0281835Y0076053D01*
X0278775Y0074428D02*
X0272369Y0074428D01*
X0275572Y0071225D01*
X0275572Y0075496D01*
X0269310Y0073315D02*
X0269310Y0071179D01*
X0268242Y0070112D01*
X0266107Y0070112D02*
X0265039Y0072247D01*
X0265039Y0073315D01*
X0266107Y0074382D01*
X0268242Y0074382D01*
X0269310Y0073315D01*
X0266107Y0070112D02*
X0262904Y0070112D01*
X0262904Y0074382D01*
X0263972Y0067937D02*
X0265039Y0067937D01*
X0266107Y0066869D01*
X0266107Y0063666D01*
X0266107Y0061491D02*
X0267175Y0060424D01*
X0267175Y0057221D01*
X0269310Y0057221D02*
X0262904Y0057221D01*
X0262904Y0060424D01*
X0263972Y0061491D01*
X0266107Y0061491D01*
X0269310Y0063666D02*
X0262904Y0063666D01*
X0262904Y0066869D01*
X0263972Y0067937D01*
X0266107Y0066869D02*
X0267175Y0067937D01*
X0268242Y0067937D01*
X0269310Y0066869D01*
X0269310Y0063666D01*
X0258453Y0066080D02*
X0256317Y0063945D01*
X0252047Y0063945D01*
X0253115Y0061770D02*
X0254182Y0061770D01*
X0255250Y0060702D01*
X0256317Y0061770D01*
X0257385Y0061770D01*
X0258453Y0060702D01*
X0258453Y0058567D01*
X0257385Y0057499D01*
X0255250Y0059634D02*
X0255250Y0060702D01*
X0253115Y0061770D02*
X0252047Y0060702D01*
X0252047Y0058567D01*
X0253115Y0057499D01*
X0247039Y0060470D02*
X0244904Y0062605D01*
X0240633Y0062605D01*
X0240633Y0064780D02*
X0240633Y0067983D01*
X0241701Y0069050D01*
X0242768Y0069050D01*
X0243836Y0067983D01*
X0243836Y0064780D01*
X0247039Y0064780D02*
X0240633Y0064780D01*
X0237295Y0063945D02*
X0230890Y0063945D01*
X0237295Y0068215D01*
X0230890Y0068215D01*
X0230890Y0070390D02*
X0230890Y0073593D01*
X0231957Y0074661D01*
X0236227Y0074661D01*
X0237295Y0073593D01*
X0237295Y0070390D01*
X0230890Y0070390D01*
X0225046Y0069329D02*
X0220776Y0069329D01*
X0218641Y0067194D01*
X0220776Y0065058D01*
X0225046Y0065058D01*
X0223978Y0062883D02*
X0225046Y0061816D01*
X0225046Y0058613D01*
X0218641Y0058613D01*
X0218641Y0061816D01*
X0219708Y0062883D01*
X0220776Y0062883D01*
X0221843Y0061816D01*
X0221843Y0058613D01*
X0221843Y0061816D02*
X0222911Y0062883D01*
X0223978Y0062883D01*
X0221843Y0065058D02*
X0221843Y0069329D01*
X0218641Y0071504D02*
X0218641Y0075774D01*
X0218641Y0073639D02*
X0225046Y0073639D01*
X0226114Y0077949D02*
X0226114Y0082220D01*
X0223978Y0084395D02*
X0225046Y0085462D01*
X0225046Y0087598D01*
X0223978Y0088665D01*
X0221843Y0088665D01*
X0221843Y0086530D01*
X0219708Y0084395D02*
X0223978Y0084395D01*
X0219708Y0084395D02*
X0218641Y0085462D01*
X0218641Y0087598D01*
X0219708Y0088665D01*
X0218641Y0090840D02*
X0225046Y0095111D01*
X0218641Y0095111D01*
X0218641Y0097286D02*
X0218641Y0100489D01*
X0219708Y0101556D01*
X0223978Y0101556D01*
X0225046Y0100489D01*
X0225046Y0097286D01*
X0218641Y0097286D01*
X0218641Y0090840D02*
X0225046Y0090840D01*
X0240633Y0081941D02*
X0240633Y0077671D01*
X0240633Y0079806D02*
X0247039Y0079806D01*
X0247039Y0075496D02*
X0242768Y0075496D01*
X0240633Y0073361D01*
X0242768Y0071225D01*
X0247039Y0071225D01*
X0245971Y0069050D02*
X0247039Y0067983D01*
X0247039Y0064780D01*
X0247039Y0060470D02*
X0244904Y0058334D01*
X0240633Y0058334D01*
X0237295Y0058567D02*
X0237295Y0060702D01*
X0236227Y0061770D01*
X0234092Y0061770D01*
X0234092Y0059634D01*
X0231957Y0057499D02*
X0236227Y0057499D01*
X0237295Y0058567D01*
X0231957Y0057499D02*
X0230890Y0058567D01*
X0230890Y0060702D01*
X0231957Y0061770D01*
X0243836Y0067983D02*
X0244904Y0069050D01*
X0245971Y0069050D01*
X0243836Y0071225D02*
X0243836Y0075496D01*
X0252047Y0068215D02*
X0256317Y0068215D01*
X0258453Y0066080D01*
X0285037Y0065337D02*
X0285037Y0067472D01*
X0292413Y0069607D02*
X0292413Y0065337D01*
X0298819Y0065337D01*
X0298819Y0069607D01*
X0297751Y0071782D02*
X0298819Y0072850D01*
X0298819Y0074985D01*
X0297751Y0076053D01*
X0296684Y0076053D01*
X0295616Y0074985D01*
X0295616Y0073917D01*
X0295616Y0074985D02*
X0294549Y0076053D01*
X0293481Y0076053D01*
X0292413Y0074985D01*
X0292413Y0072850D01*
X0293481Y0071782D01*
X0295616Y0067472D02*
X0295616Y0065337D01*
X0302435Y0073917D02*
X0304571Y0076053D01*
X0308841Y0076053D01*
X0305638Y0076053D02*
X0305638Y0071782D01*
X0304571Y0071782D02*
X0302435Y0073917D01*
X0304571Y0071782D02*
X0308841Y0071782D01*
X0319141Y0072061D02*
X0319141Y0076331D01*
X0190998Y0217880D02*
X0190737Y0218141D01*
X0190998Y0217880D02*
X0195508Y0222389D01*
X0195247Y0222651D01*
X0193003Y0224895D02*
X0192741Y0225157D01*
X0190358Y0227540D02*
X0190096Y0227801D01*
X0187853Y0230045D02*
X0187591Y0230307D01*
X0183081Y0225797D01*
X0183343Y0225535D01*
X0185587Y0223291D02*
X0188493Y0220385D01*
X0142206Y0303000D02*
X0139270Y0303000D01*
X0142206Y0305936D01*
X0142206Y0306670D01*
X0141472Y0307403D01*
X0140004Y0307403D01*
X0139270Y0306670D01*
X0137602Y0307403D02*
X0137602Y0303734D01*
X0136868Y0303000D01*
X0135400Y0303000D01*
X0134666Y0303734D01*
X0134666Y0307403D01*
D12*
X0094389Y0445176D02*
X0093531Y0445176D01*
X0092673Y0446034D01*
X0092673Y0446892D01*
X0093102Y0447321D01*
X0093960Y0447321D01*
X0094818Y0446463D01*
X0094818Y0445605D01*
X0094389Y0445176D01*
X0094818Y0446463D02*
X0095676Y0446463D01*
X0096105Y0446892D01*
X0096105Y0447750D01*
X0095247Y0448608D01*
X0094389Y0448608D01*
X0093960Y0448179D01*
X0093960Y0447321D01*
X0091397Y0447311D02*
X0089681Y0449027D01*
X0090539Y0448169D02*
X0093113Y0450743D01*
X0091397Y0450743D01*
X0090979Y0452019D02*
X0090979Y0452877D01*
X0090121Y0453735D01*
X0089263Y0453735D01*
X0088834Y0453306D01*
X0088834Y0452448D01*
X0089692Y0451590D01*
X0089692Y0450732D01*
X0089263Y0450303D01*
X0088405Y0450303D01*
X0087547Y0451161D01*
X0087547Y0452019D01*
X0086699Y0452866D02*
X0088844Y0455011D01*
X0087128Y0456727D02*
X0084983Y0454582D01*
X0084983Y0453724D01*
X0085841Y0452866D01*
X0086699Y0452866D01*
X0087547Y0450303D02*
X0090979Y0453735D01*
X0215264Y0482592D02*
X0216847Y0482592D01*
X0217375Y0483120D01*
X0217375Y0485232D01*
X0216847Y0485759D01*
X0215264Y0485759D01*
X0215264Y0482592D01*
X0218454Y0482592D02*
X0220565Y0482592D01*
X0219510Y0482592D02*
X0219510Y0485759D01*
X0218454Y0484704D01*
X0342487Y0483254D02*
X0344071Y0483254D01*
X0344599Y0482726D01*
X0344599Y0480615D01*
X0344071Y0480087D01*
X0342487Y0480087D01*
X0342487Y0483254D01*
X0345677Y0482726D02*
X0346205Y0483254D01*
X0347261Y0483254D01*
X0347789Y0482726D01*
X0347789Y0482198D01*
X0347261Y0481670D01*
X0347789Y0481142D01*
X0347789Y0480615D01*
X0347261Y0480087D01*
X0346205Y0480087D01*
X0345677Y0480615D01*
X0346733Y0481670D02*
X0347261Y0481670D01*
X0442217Y0450082D02*
X0444362Y0447937D01*
X0445220Y0447937D01*
X0446078Y0448795D01*
X0446078Y0449653D01*
X0443933Y0451798D01*
X0445209Y0452217D02*
X0445209Y0453075D01*
X0446067Y0453933D01*
X0446925Y0453933D01*
X0448202Y0454351D02*
X0448202Y0456067D01*
X0450776Y0453493D01*
X0451633Y0454351D02*
X0449918Y0452635D01*
X0448641Y0452217D02*
X0448212Y0452646D01*
X0447354Y0452646D01*
X0446496Y0451788D01*
X0445638Y0451788D01*
X0445209Y0452217D01*
X0445209Y0453933D02*
X0448641Y0450501D01*
X0447783Y0450501D02*
X0448641Y0451359D01*
X0448641Y0452217D01*
X0447783Y0450501D02*
X0446925Y0450501D01*
X0452052Y0455627D02*
X0451194Y0456485D01*
X0452481Y0457772D01*
X0453339Y0457772D01*
X0453768Y0457343D01*
X0453768Y0456485D01*
X0452910Y0455627D01*
X0452052Y0455627D01*
X0451194Y0456485D02*
X0451194Y0458201D01*
X0451623Y0459488D01*
X0475357Y0338503D02*
X0474740Y0337886D01*
X0474740Y0335417D01*
X0475357Y0334800D01*
X0476591Y0334800D01*
X0477209Y0335417D01*
X0477209Y0336652D01*
X0475974Y0336652D01*
X0477209Y0337886D02*
X0476591Y0338503D01*
X0475357Y0338503D01*
X0478423Y0338503D02*
X0480892Y0334800D01*
X0480892Y0338503D01*
X0482106Y0338503D02*
X0483958Y0338503D01*
X0484575Y0337886D01*
X0484575Y0335417D01*
X0483958Y0334800D01*
X0482106Y0334800D01*
X0482106Y0338503D01*
X0478423Y0338503D02*
X0478423Y0334800D01*
X0478390Y0321243D02*
X0477155Y0321243D01*
X0476538Y0320626D01*
X0476538Y0320009D01*
X0477155Y0319392D01*
X0478390Y0319392D01*
X0479007Y0318774D01*
X0479007Y0318157D01*
X0478390Y0317540D01*
X0477155Y0317540D01*
X0476538Y0318157D01*
X0474090Y0317540D02*
X0474090Y0321243D01*
X0475324Y0321243D02*
X0472855Y0321243D01*
X0471641Y0320626D02*
X0471024Y0321243D01*
X0469789Y0321243D01*
X0469172Y0320626D01*
X0469172Y0318157D01*
X0469789Y0317540D01*
X0471024Y0317540D01*
X0471641Y0318157D01*
X0471641Y0311778D02*
X0471641Y0309309D01*
X0470406Y0308075D01*
X0469172Y0309309D01*
X0469172Y0311778D01*
X0472855Y0311161D02*
X0472855Y0308692D01*
X0473472Y0308075D01*
X0474707Y0308075D01*
X0475324Y0308692D01*
X0476538Y0308692D02*
X0477155Y0308075D01*
X0478390Y0308075D01*
X0479007Y0308692D01*
X0476538Y0308692D02*
X0476538Y0311161D01*
X0477155Y0311778D01*
X0478390Y0311778D01*
X0479007Y0311161D01*
X0475324Y0311161D02*
X0474707Y0311778D01*
X0473472Y0311778D01*
X0472855Y0311161D01*
X0472577Y0301478D02*
X0474428Y0301478D01*
X0475045Y0300860D01*
X0475045Y0298392D01*
X0474428Y0297774D01*
X0472577Y0297774D01*
X0472577Y0301478D01*
X0471362Y0301478D02*
X0468894Y0297774D01*
X0466445Y0297774D02*
X0466445Y0301478D01*
X0467679Y0301478D02*
X0465210Y0301478D01*
X0463996Y0301478D02*
X0461527Y0297774D01*
X0460313Y0298392D02*
X0460313Y0300860D01*
X0459696Y0301478D01*
X0458461Y0301478D01*
X0457844Y0300860D01*
X0457844Y0298392D01*
X0458461Y0297774D01*
X0459696Y0297774D01*
X0460313Y0298392D01*
X0456630Y0297774D02*
X0454161Y0301478D01*
X0452947Y0301478D02*
X0450478Y0301478D01*
X0451712Y0301478D02*
X0451712Y0297774D01*
X0454161Y0297774D02*
X0456630Y0301478D01*
X0455945Y0290899D02*
X0458414Y0287196D01*
X0459629Y0287196D02*
X0460863Y0287196D01*
X0460246Y0287196D02*
X0460246Y0290899D01*
X0459629Y0290899D02*
X0460863Y0290899D01*
X0458414Y0290899D02*
X0455945Y0287196D01*
X0454731Y0287196D02*
X0453497Y0288430D01*
X0454114Y0288430D02*
X0452262Y0288430D01*
X0452262Y0287196D02*
X0452262Y0290899D01*
X0454114Y0290899D01*
X0454731Y0290282D01*
X0454731Y0289047D01*
X0454114Y0288430D01*
X0462084Y0287196D02*
X0464553Y0290899D01*
X0465767Y0290899D02*
X0467619Y0290899D01*
X0468236Y0290282D01*
X0468236Y0289047D01*
X0467619Y0288430D01*
X0465767Y0288430D01*
X0465767Y0287196D02*
X0465767Y0290899D01*
X0467002Y0288430D02*
X0468236Y0287196D01*
X0469450Y0287196D02*
X0471919Y0290899D01*
X0473134Y0290899D02*
X0473134Y0287196D01*
X0474985Y0287196D01*
X0475602Y0287813D01*
X0475602Y0290282D01*
X0474985Y0290899D01*
X0473134Y0290899D01*
X0469450Y0290899D02*
X0471919Y0287196D01*
X0476817Y0287196D02*
X0479285Y0287196D01*
X0478051Y0287196D02*
X0478051Y0290899D01*
X0476817Y0289664D01*
X0476260Y0297774D02*
X0478729Y0297774D01*
X0477494Y0297774D02*
X0477494Y0301478D01*
X0476260Y0300243D01*
X0471362Y0297774D02*
X0468894Y0301478D01*
X0479007Y0320626D02*
X0478390Y0321243D01*
X0478145Y0277536D02*
X0480613Y0277536D01*
X0481828Y0277536D02*
X0483679Y0277536D01*
X0484296Y0276919D01*
X0484296Y0275685D01*
X0483679Y0275067D01*
X0481828Y0275067D01*
X0481828Y0273833D02*
X0481828Y0277536D01*
X0479379Y0277536D02*
X0479379Y0273833D01*
X0480335Y0272247D02*
X0480335Y0268544D01*
X0477866Y0272247D01*
X0477866Y0268544D01*
X0476652Y0269161D02*
X0476652Y0270395D01*
X0475417Y0270395D01*
X0474183Y0269161D02*
X0474800Y0268544D01*
X0476035Y0268544D01*
X0476652Y0269161D01*
X0476652Y0271630D02*
X0476035Y0272247D01*
X0474800Y0272247D01*
X0474183Y0271630D01*
X0474183Y0269161D01*
X0474461Y0273833D02*
X0476313Y0273833D01*
X0476930Y0274450D01*
X0476930Y0276919D01*
X0476313Y0277536D01*
X0474461Y0277536D01*
X0474461Y0273833D01*
X0481549Y0272247D02*
X0481549Y0268544D01*
X0483401Y0268544D01*
X0484018Y0269161D01*
X0484018Y0271630D01*
X0483401Y0272247D01*
X0481549Y0272247D01*
X0484296Y0273833D02*
X0483062Y0275067D01*
X0476163Y0256657D02*
X0474928Y0256657D01*
X0474311Y0256040D01*
X0474311Y0255423D01*
X0474928Y0254805D01*
X0476163Y0254805D01*
X0476780Y0254188D01*
X0476780Y0253571D01*
X0476163Y0252954D01*
X0474928Y0252954D01*
X0474311Y0253571D01*
X0471862Y0252954D02*
X0471862Y0256657D01*
X0470628Y0256657D02*
X0473097Y0256657D01*
X0476163Y0256657D02*
X0476780Y0256040D01*
X0469414Y0256040D02*
X0468796Y0256657D01*
X0467562Y0256657D01*
X0466945Y0256040D01*
X0466945Y0253571D01*
X0467562Y0252954D01*
X0468796Y0252954D01*
X0469414Y0253571D01*
X0469414Y0247192D02*
X0469414Y0244723D01*
X0468179Y0243489D01*
X0466945Y0244723D01*
X0466945Y0247192D01*
X0470628Y0246575D02*
X0470628Y0244106D01*
X0471245Y0243489D01*
X0472480Y0243489D01*
X0473097Y0244106D01*
X0474311Y0244106D02*
X0474928Y0243489D01*
X0476163Y0243489D01*
X0476780Y0244106D01*
X0476780Y0246575D02*
X0476163Y0247192D01*
X0474928Y0247192D01*
X0474311Y0246575D01*
X0474311Y0244106D01*
X0473097Y0246575D02*
X0472480Y0247192D01*
X0471245Y0247192D01*
X0470628Y0246575D01*
X0470350Y0236891D02*
X0472201Y0236891D01*
X0472818Y0236274D01*
X0472818Y0233805D01*
X0472201Y0233188D01*
X0470350Y0233188D01*
X0470350Y0236891D01*
X0469135Y0236891D02*
X0466666Y0233188D01*
X0464218Y0233188D02*
X0464218Y0236891D01*
X0465452Y0236891D02*
X0462983Y0236891D01*
X0461769Y0236891D02*
X0459300Y0233188D01*
X0458086Y0233805D02*
X0457469Y0233188D01*
X0456234Y0233188D01*
X0455617Y0233805D01*
X0455617Y0236274D01*
X0456234Y0236891D01*
X0457469Y0236891D01*
X0458086Y0236274D01*
X0458086Y0233805D01*
X0454403Y0233188D02*
X0451934Y0236891D01*
X0450720Y0236891D02*
X0448251Y0236891D01*
X0449485Y0236891D02*
X0449485Y0233188D01*
X0451934Y0233188D02*
X0454403Y0236891D01*
X0453718Y0226313D02*
X0456187Y0222610D01*
X0457402Y0222610D02*
X0458636Y0222610D01*
X0458019Y0222610D02*
X0458019Y0226313D01*
X0457402Y0226313D02*
X0458636Y0226313D01*
X0456187Y0226313D02*
X0453718Y0222610D01*
X0452504Y0222610D02*
X0451270Y0223844D01*
X0451887Y0223844D02*
X0450035Y0223844D01*
X0450035Y0222610D02*
X0450035Y0226313D01*
X0451887Y0226313D01*
X0452504Y0225695D01*
X0452504Y0224461D01*
X0451887Y0223844D01*
X0459857Y0222610D02*
X0462326Y0226313D01*
X0463540Y0226313D02*
X0465392Y0226313D01*
X0466009Y0225695D01*
X0466009Y0224461D01*
X0465392Y0223844D01*
X0463540Y0223844D01*
X0464774Y0223844D02*
X0466009Y0222610D01*
X0467223Y0222610D02*
X0469692Y0226313D01*
X0470906Y0226313D02*
X0472758Y0226313D01*
X0473375Y0225695D01*
X0473375Y0223227D01*
X0472758Y0222610D01*
X0470906Y0222610D01*
X0470906Y0226313D01*
X0467223Y0226313D02*
X0469692Y0222610D01*
X0474590Y0222610D02*
X0477058Y0222610D01*
X0475824Y0222610D02*
X0475824Y0226313D01*
X0474590Y0225078D01*
X0474033Y0233188D02*
X0476502Y0233188D01*
X0475267Y0233188D02*
X0475267Y0236891D01*
X0474033Y0235657D01*
X0469135Y0233188D02*
X0466666Y0236891D01*
X0463540Y0226313D02*
X0463540Y0222610D01*
X0472513Y0212115D02*
X0474364Y0212115D01*
X0474981Y0211498D01*
X0474981Y0209029D01*
X0474364Y0208412D01*
X0472513Y0208412D01*
X0472513Y0212115D01*
X0476196Y0212115D02*
X0478665Y0212115D01*
X0479879Y0212115D02*
X0481731Y0212115D01*
X0482348Y0211498D01*
X0482348Y0210263D01*
X0481731Y0209646D01*
X0479879Y0209646D01*
X0479879Y0208412D02*
X0479879Y0212115D01*
X0477430Y0212115D02*
X0477430Y0208412D01*
X0481113Y0209646D02*
X0482348Y0208412D01*
X0446772Y0100480D02*
X0444627Y0098335D01*
X0444627Y0097477D01*
X0445485Y0096619D01*
X0446343Y0096619D01*
X0448488Y0098764D01*
X0448906Y0097488D02*
X0449764Y0097488D01*
X0450622Y0096630D01*
X0450622Y0095772D01*
X0451898Y0095353D02*
X0453614Y0093637D01*
X0453185Y0093209D01*
X0449754Y0093209D01*
X0449325Y0092780D01*
X0448906Y0094056D02*
X0449335Y0094485D01*
X0449335Y0095343D01*
X0448477Y0096201D01*
X0448477Y0097059D01*
X0448906Y0097488D01*
X0450622Y0097488D02*
X0447190Y0094056D01*
X0447190Y0094914D02*
X0448048Y0094056D01*
X0448906Y0094056D01*
X0447190Y0094914D02*
X0447190Y0095772D01*
X0097885Y0095169D02*
X0097885Y0094311D01*
X0097027Y0093453D01*
X0096169Y0093453D01*
X0096169Y0096885D01*
X0097885Y0095169D01*
X0096169Y0096885D02*
X0095311Y0096885D01*
X0094453Y0096027D01*
X0094453Y0095169D01*
X0096169Y0093453D01*
X0095750Y0092176D02*
X0094034Y0090460D01*
X0094034Y0093892D01*
X0093605Y0094321D01*
X0092747Y0094321D01*
X0091889Y0093463D01*
X0091889Y0092605D01*
X0091042Y0091758D02*
X0090184Y0091758D01*
X0089326Y0090900D01*
X0089326Y0090042D01*
X0089755Y0089613D01*
X0090613Y0089613D01*
X0091471Y0090471D01*
X0092329Y0090471D01*
X0092758Y0090042D01*
X0092758Y0089184D01*
X0091900Y0088326D01*
X0091042Y0088326D01*
X0090195Y0087479D02*
X0088050Y0089624D01*
X0086334Y0087908D02*
X0088479Y0085763D01*
X0089337Y0085763D01*
X0090195Y0086621D01*
X0090195Y0087479D01*
X0092758Y0088326D02*
X0089326Y0091758D01*
D13*
X0097997Y0085344D02*
X0097997Y0084348D01*
X0099990Y0082354D01*
X0100987Y0082354D01*
X0101984Y0083351D01*
X0101984Y0084348D01*
X0103066Y0085430D02*
X0104063Y0085430D01*
X0105060Y0086427D01*
X0105060Y0087424D01*
X0103066Y0089417D01*
X0102070Y0089417D01*
X0101073Y0088420D01*
X0101073Y0087424D01*
X0101572Y0086925D01*
X0102568Y0086925D01*
X0104063Y0088420D01*
X0099990Y0086341D02*
X0098994Y0086341D01*
X0097997Y0085344D01*
X0105622Y0102613D02*
X0104625Y0103610D01*
X0104625Y0104606D01*
X0103044Y0105191D02*
X0101051Y0107184D01*
X0105037Y0107184D01*
X0105535Y0107682D01*
X0105535Y0108679D01*
X0104539Y0109675D01*
X0103542Y0109675D01*
X0102459Y0110758D02*
X0101463Y0109762D01*
X0100466Y0109762D01*
X0098971Y0111257D01*
X0097975Y0110260D02*
X0100965Y0113250D01*
X0102459Y0111755D01*
X0102459Y0110758D01*
X0099968Y0110260D02*
X0099968Y0108267D01*
X0106618Y0106599D02*
X0107615Y0106599D01*
X0108611Y0105603D01*
X0108611Y0104606D01*
X0108113Y0104108D01*
X0107117Y0104108D01*
X0107117Y0103112D01*
X0106618Y0102613D01*
X0105622Y0102613D01*
X0107117Y0104108D02*
X0106618Y0104606D01*
X0116987Y0109400D02*
X0118481Y0110895D01*
X0119478Y0110895D01*
X0120474Y0109898D01*
X0120474Y0108902D01*
X0118980Y0107407D01*
X0119976Y0108403D02*
X0121969Y0108403D01*
X0122554Y0109985D02*
X0123551Y0109985D01*
X0124547Y0110981D01*
X0124547Y0111978D01*
X0122554Y0113971D01*
X0121557Y0113971D01*
X0120561Y0112974D01*
X0120561Y0111978D01*
X0121059Y0111479D01*
X0122056Y0111479D01*
X0123551Y0112974D01*
X0116987Y0109400D02*
X0119976Y0106410D01*
X0108325Y0120716D02*
X0106332Y0122709D01*
X0109322Y0122709D01*
X0106332Y0119720D01*
X0104253Y0122796D02*
X0103256Y0122796D01*
X0102260Y0123792D01*
X0102260Y0124789D01*
X0101177Y0125872D02*
X0100180Y0125872D01*
X0099183Y0126868D01*
X0099183Y0127865D01*
X0101177Y0129858D01*
X0102173Y0129858D01*
X0103170Y0128861D01*
X0103170Y0127865D01*
X0104253Y0126782D02*
X0105249Y0126782D01*
X0106246Y0125785D01*
X0106246Y0124789D01*
X0105747Y0124291D01*
X0104751Y0124291D01*
X0104751Y0123294D01*
X0104253Y0122796D01*
X0104751Y0124291D02*
X0104253Y0124789D01*
X0071475Y0091850D02*
X0069980Y0093345D01*
X0066991Y0090355D01*
X0068485Y0088860D01*
X0069482Y0088860D01*
X0071475Y0090853D01*
X0071475Y0091850D01*
X0073056Y0090269D02*
X0071561Y0088774D01*
X0073056Y0088276D01*
X0073554Y0087777D01*
X0073554Y0086781D01*
X0072558Y0085784D01*
X0071561Y0085784D01*
X0070565Y0086781D01*
X0070565Y0087777D01*
X0073056Y0090269D02*
X0075049Y0088276D01*
X0067917Y0083507D02*
X0056782Y0072371D01*
X0073485Y0055668D01*
X0084621Y0066804D01*
X0067917Y0083507D01*
X0171085Y0204517D02*
X0170089Y0205513D01*
X0170089Y0206510D01*
X0170587Y0207008D01*
X0171584Y0207008D01*
X0172580Y0206012D01*
X0172580Y0205015D01*
X0172082Y0204517D01*
X0171085Y0204517D01*
X0172580Y0206012D02*
X0173577Y0206012D01*
X0174075Y0206510D01*
X0174075Y0207507D01*
X0173078Y0208503D01*
X0172082Y0208503D01*
X0171584Y0208005D01*
X0171584Y0207008D01*
X0170501Y0209088D02*
X0170999Y0209586D01*
X0170999Y0210583D01*
X0170002Y0211579D01*
X0169006Y0211579D01*
X0167923Y0212662D02*
X0167923Y0213659D01*
X0166926Y0214655D01*
X0165930Y0214655D01*
X0163937Y0212662D01*
X0163937Y0211666D01*
X0164933Y0210669D01*
X0165930Y0210669D01*
X0166514Y0209088D02*
X0170501Y0209088D01*
X0168508Y0207095D02*
X0166514Y0209088D01*
X0177341Y0216357D02*
X0178337Y0215360D01*
X0179334Y0215360D01*
X0179918Y0213779D02*
X0181911Y0211786D01*
X0180915Y0212783D02*
X0183905Y0215772D01*
X0181911Y0215772D01*
X0181327Y0217353D02*
X0181327Y0218350D01*
X0180330Y0219346D01*
X0179334Y0219346D01*
X0177341Y0217353D01*
X0177341Y0216357D01*
X0183493Y0211201D02*
X0183493Y0210205D01*
X0184489Y0209208D01*
X0185486Y0209208D01*
X0185984Y0209706D01*
X0185984Y0210703D01*
X0185486Y0211201D01*
X0185984Y0210703D02*
X0186981Y0210703D01*
X0187479Y0211201D01*
X0187479Y0212198D01*
X0186482Y0213194D01*
X0185486Y0213194D01*
X0204739Y0232665D02*
X0202746Y0234658D01*
X0206732Y0234658D01*
X0207231Y0235156D01*
X0207231Y0236153D01*
X0206234Y0237150D01*
X0205238Y0237150D01*
X0204155Y0238233D02*
X0204155Y0239229D01*
X0203158Y0240226D01*
X0202162Y0240226D01*
X0200168Y0238233D01*
X0200168Y0237236D01*
X0201165Y0236239D01*
X0202162Y0236239D01*
X0206321Y0232080D02*
X0205822Y0231582D01*
X0206321Y0232080D02*
X0210307Y0232080D01*
X0210805Y0232579D01*
X0208812Y0234572D01*
X0214773Y0248741D02*
X0214773Y0250150D01*
X0214773Y0249445D02*
X0218296Y0249445D01*
X0219001Y0248741D01*
X0219001Y0248036D01*
X0218296Y0247331D01*
X0216887Y0251682D02*
X0216887Y0254500D01*
X0219001Y0253796D02*
X0214773Y0253796D01*
X0216887Y0251682D01*
X0234399Y0262917D02*
X0235104Y0262212D01*
X0236513Y0262212D01*
X0237218Y0262917D01*
X0238749Y0262212D02*
X0241568Y0262212D01*
X0240158Y0262212D02*
X0240158Y0266440D01*
X0238749Y0265031D01*
X0237218Y0265736D02*
X0236513Y0266440D01*
X0235104Y0266440D01*
X0234399Y0265736D01*
X0234399Y0262917D01*
X0243099Y0262212D02*
X0245918Y0262212D01*
X0244509Y0262212D02*
X0244509Y0266440D01*
X0243099Y0265031D01*
X0248154Y0274732D02*
X0249563Y0274732D01*
X0250268Y0275436D01*
X0251800Y0274732D02*
X0254618Y0274732D01*
X0253209Y0274732D02*
X0253209Y0278960D01*
X0251800Y0277550D01*
X0250268Y0278255D02*
X0249563Y0278960D01*
X0248154Y0278960D01*
X0247449Y0278255D01*
X0247449Y0275436D01*
X0248154Y0274732D01*
X0245213Y0277802D02*
X0243804Y0277802D01*
X0243099Y0278507D01*
X0243099Y0279916D01*
X0245213Y0279916D01*
X0245918Y0279211D01*
X0245918Y0278507D01*
X0245213Y0277802D01*
X0243099Y0279916D02*
X0244509Y0281325D01*
X0245918Y0282030D01*
X0243099Y0285597D02*
X0243099Y0286302D01*
X0245918Y0289120D01*
X0245918Y0289825D01*
X0243099Y0289825D01*
X0240158Y0289825D02*
X0240158Y0285597D01*
X0238749Y0285597D02*
X0241568Y0285597D01*
X0240158Y0282030D02*
X0238749Y0280621D01*
X0237218Y0281325D02*
X0236513Y0282030D01*
X0235104Y0282030D01*
X0234399Y0281325D01*
X0234399Y0278507D01*
X0235104Y0277802D01*
X0236513Y0277802D01*
X0237218Y0278507D01*
X0238749Y0277802D02*
X0241568Y0277802D01*
X0240158Y0277802D02*
X0240158Y0282030D01*
X0236513Y0285597D02*
X0237218Y0286302D01*
X0236513Y0285597D02*
X0235104Y0285597D01*
X0234399Y0286302D01*
X0234399Y0289120D01*
X0235104Y0289825D01*
X0236513Y0289825D01*
X0237218Y0289120D01*
X0238749Y0288416D02*
X0240158Y0289825D01*
X0248154Y0298116D02*
X0249563Y0298116D01*
X0250268Y0298821D01*
X0251800Y0298116D02*
X0254618Y0298116D01*
X0253209Y0298116D02*
X0253209Y0302344D01*
X0251800Y0300935D01*
X0250268Y0301640D02*
X0249563Y0302344D01*
X0248154Y0302344D01*
X0247449Y0301640D01*
X0247449Y0298821D01*
X0248154Y0298116D01*
X0256150Y0298821D02*
X0256854Y0298116D01*
X0258264Y0298116D01*
X0258968Y0298821D01*
X0258968Y0300230D01*
X0258264Y0300935D01*
X0257559Y0300935D01*
X0256150Y0300230D01*
X0256150Y0302344D01*
X0258968Y0302344D01*
X0258264Y0278960D02*
X0258968Y0278255D01*
X0258968Y0277550D01*
X0258264Y0276846D01*
X0256854Y0276846D01*
X0256150Y0277550D01*
X0256150Y0278255D01*
X0256854Y0278960D01*
X0258264Y0278960D01*
X0258264Y0276846D02*
X0258968Y0276141D01*
X0258968Y0275436D01*
X0258264Y0274732D01*
X0256854Y0274732D01*
X0256150Y0275436D01*
X0256150Y0276141D01*
X0256854Y0276846D01*
X0275420Y0240050D02*
X0275918Y0239552D01*
X0275918Y0235565D01*
X0276416Y0235067D01*
X0275333Y0233984D02*
X0273340Y0233984D01*
X0273838Y0234482D02*
X0272344Y0232988D01*
X0273340Y0231991D02*
X0270350Y0234981D01*
X0271845Y0236476D01*
X0272842Y0236476D01*
X0273838Y0235479D01*
X0273838Y0234482D01*
X0273427Y0238057D02*
X0275420Y0240050D01*
X0263961Y0228347D02*
X0261968Y0226354D01*
X0261968Y0230340D01*
X0261470Y0230838D01*
X0260473Y0230838D01*
X0259477Y0229842D01*
X0259477Y0228845D01*
X0258394Y0227762D02*
X0259390Y0226766D01*
X0259390Y0225769D01*
X0257896Y0224274D01*
X0258892Y0223278D02*
X0255902Y0226267D01*
X0257397Y0227762D01*
X0258394Y0227762D01*
X0258892Y0225271D02*
X0260885Y0225271D01*
X0192319Y0314271D02*
X0192319Y0318499D01*
X0190205Y0316385D01*
X0193024Y0316385D01*
X0188674Y0317794D02*
X0187969Y0318499D01*
X0186560Y0318499D01*
X0185855Y0317794D01*
X0185855Y0314976D01*
X0186560Y0314271D01*
X0187969Y0314271D01*
X0188674Y0314976D01*
X0187969Y0322901D02*
X0188674Y0323606D01*
X0187969Y0322901D02*
X0186560Y0322901D01*
X0185855Y0323606D01*
X0185855Y0326424D01*
X0186560Y0327129D01*
X0187969Y0327129D01*
X0188674Y0326424D01*
X0190205Y0326424D02*
X0190910Y0327129D01*
X0192319Y0327129D01*
X0193024Y0326424D01*
X0193024Y0325720D01*
X0192319Y0325015D01*
X0193024Y0324310D01*
X0193024Y0323606D01*
X0192319Y0322901D01*
X0190910Y0322901D01*
X0190205Y0323606D01*
X0191615Y0325015D02*
X0192319Y0325015D01*
X0181124Y0344607D02*
X0178305Y0344607D01*
X0179714Y0344607D02*
X0179714Y0348835D01*
X0178305Y0347426D01*
X0176774Y0348130D02*
X0176069Y0348835D01*
X0174660Y0348835D01*
X0173955Y0348130D01*
X0173955Y0345312D01*
X0174660Y0344607D01*
X0176069Y0344607D01*
X0176774Y0345312D01*
X0158643Y0343267D02*
X0157938Y0343971D01*
X0156529Y0343971D01*
X0155824Y0343267D01*
X0154293Y0343267D02*
X0153588Y0343971D01*
X0152179Y0343971D01*
X0151474Y0343267D01*
X0151474Y0340448D01*
X0152179Y0339743D01*
X0153588Y0339743D01*
X0154293Y0340448D01*
X0155824Y0339743D02*
X0158643Y0342562D01*
X0158643Y0343267D01*
X0158643Y0339743D02*
X0155824Y0339743D01*
X0148539Y0337291D02*
X0148539Y0335882D01*
X0147834Y0335177D01*
X0146425Y0335177D01*
X0146425Y0337291D01*
X0147130Y0337996D01*
X0147834Y0337996D01*
X0148539Y0337291D01*
X0146425Y0335177D02*
X0145016Y0336586D01*
X0144311Y0337996D01*
X0145016Y0333645D02*
X0144311Y0332941D01*
X0144311Y0331531D01*
X0145016Y0330827D01*
X0147834Y0330827D01*
X0148539Y0331531D01*
X0148539Y0332941D01*
X0147834Y0333645D01*
X0090534Y0286547D02*
X0090534Y0281625D01*
X0083429Y0283574D02*
X0083431Y0283600D01*
X0083437Y0283626D01*
X0083446Y0283650D01*
X0083460Y0283673D01*
X0083476Y0283694D01*
X0083495Y0283712D01*
X0083517Y0283726D01*
X0083541Y0283738D01*
X0083566Y0283746D01*
X0083592Y0283750D01*
X0083618Y0283750D01*
X0083644Y0283746D01*
X0083669Y0283738D01*
X0083693Y0283726D01*
X0083715Y0283712D01*
X0083734Y0283694D01*
X0083750Y0283673D01*
X0083764Y0283650D01*
X0083773Y0283626D01*
X0083779Y0283600D01*
X0083781Y0283574D01*
X0083779Y0283548D01*
X0083773Y0283522D01*
X0083764Y0283498D01*
X0083750Y0283475D01*
X0083734Y0283454D01*
X0083715Y0283436D01*
X0083693Y0283422D01*
X0083669Y0283410D01*
X0083644Y0283402D01*
X0083618Y0283398D01*
X0083592Y0283398D01*
X0083566Y0283402D01*
X0083541Y0283410D01*
X0083517Y0283422D01*
X0083495Y0283436D01*
X0083476Y0283454D01*
X0083460Y0283475D01*
X0083446Y0283498D01*
X0083437Y0283522D01*
X0083431Y0283548D01*
X0083429Y0283574D01*
X0082660Y0281625D02*
X0082660Y0286547D01*
X0082378Y0278421D02*
X0085197Y0275602D01*
X0085902Y0275602D01*
X0085197Y0274070D02*
X0085902Y0273366D01*
X0085902Y0271956D01*
X0085197Y0271252D01*
X0082378Y0271252D01*
X0081674Y0271956D01*
X0081674Y0273366D01*
X0082378Y0274070D01*
X0081674Y0275602D02*
X0081674Y0278421D01*
X0082378Y0278421D01*
X0082127Y0269720D02*
X0081422Y0269720D01*
X0080717Y0269015D01*
X0080717Y0267606D01*
X0080013Y0266901D01*
X0079308Y0266901D01*
X0078603Y0267606D01*
X0078603Y0269015D01*
X0079308Y0269720D01*
X0080013Y0269720D01*
X0080717Y0269015D01*
X0080717Y0267606D02*
X0081422Y0266901D01*
X0082127Y0266901D01*
X0082831Y0267606D01*
X0082831Y0269015D01*
X0082127Y0269720D01*
X0082127Y0265370D02*
X0082831Y0264665D01*
X0082831Y0263256D01*
X0082127Y0262551D01*
X0079308Y0262551D01*
X0078603Y0263256D01*
X0078603Y0264665D01*
X0079308Y0265370D01*
X0145695Y0239376D02*
X0145695Y0236557D01*
X0147809Y0236557D01*
X0147104Y0237966D01*
X0147104Y0238671D01*
X0147809Y0239376D01*
X0149218Y0239376D01*
X0149923Y0238671D01*
X0149923Y0237262D01*
X0149218Y0236557D01*
X0149218Y0235026D02*
X0149923Y0234321D01*
X0149923Y0232912D01*
X0149218Y0232207D01*
X0146400Y0232207D01*
X0145695Y0232912D01*
X0145695Y0234321D01*
X0146400Y0235026D01*
X0112507Y0416649D02*
X0113005Y0417147D01*
X0113005Y0418144D01*
X0111510Y0419639D01*
X0110514Y0418642D01*
X0110514Y0417645D01*
X0111510Y0416649D01*
X0112507Y0416649D01*
X0113503Y0419639D02*
X0111510Y0419639D01*
X0110427Y0420721D02*
X0109431Y0420721D01*
X0107936Y0422216D01*
X0108932Y0421220D02*
X0108932Y0419227D01*
X0110427Y0420721D02*
X0111424Y0421718D01*
X0111424Y0422715D01*
X0109929Y0424209D01*
X0106939Y0421220D01*
X0113503Y0419639D02*
X0114998Y0419140D01*
X0121371Y0432846D02*
X0119378Y0434839D01*
X0119378Y0435835D01*
X0120374Y0436832D01*
X0121371Y0436832D01*
X0122454Y0437915D02*
X0122454Y0438911D01*
X0123450Y0439908D01*
X0124447Y0439908D01*
X0124945Y0439410D01*
X0124945Y0438413D01*
X0125942Y0438413D01*
X0126440Y0437915D01*
X0126440Y0436918D01*
X0125443Y0435922D01*
X0124447Y0435922D01*
X0123364Y0434839D02*
X0123364Y0433842D01*
X0122367Y0432846D01*
X0121371Y0432846D01*
X0124447Y0437915D02*
X0124945Y0438413D01*
X0125530Y0440991D02*
X0125530Y0441987D01*
X0126526Y0442984D01*
X0127523Y0442984D01*
X0127523Y0438998D01*
X0128519Y0438998D01*
X0129516Y0439994D01*
X0129516Y0440991D01*
X0127523Y0442984D01*
X0125530Y0440991D02*
X0127523Y0438998D01*
X0111989Y0440618D02*
X0109996Y0438625D01*
X0110992Y0439622D02*
X0108003Y0442611D01*
X0108003Y0440618D01*
X0106920Y0439535D02*
X0106422Y0440034D01*
X0105425Y0440034D01*
X0104428Y0439037D01*
X0104428Y0438040D01*
X0103345Y0436957D02*
X0104342Y0435961D01*
X0104342Y0434964D01*
X0102847Y0433470D01*
X0103844Y0434466D02*
X0105837Y0434466D01*
X0106920Y0435549D02*
X0106920Y0439535D01*
X0108913Y0437542D02*
X0106920Y0435549D01*
X0103345Y0436957D02*
X0102349Y0436957D01*
X0100854Y0435463D01*
X0103844Y0432473D01*
X0091546Y0438700D02*
X0087560Y0438700D01*
X0087560Y0437704D01*
X0088557Y0436707D01*
X0089553Y0436707D01*
X0091546Y0438700D01*
X0091546Y0439697D01*
X0090550Y0440693D01*
X0089553Y0440693D01*
X0087560Y0438700D01*
X0085979Y0439285D02*
X0083986Y0441278D01*
X0087972Y0441278D01*
X0088470Y0441776D01*
X0088470Y0442773D01*
X0087474Y0443770D01*
X0086477Y0443770D01*
X0085394Y0444852D02*
X0085394Y0445849D01*
X0084398Y0446846D01*
X0083401Y0446846D01*
X0081408Y0444852D01*
X0081408Y0443856D01*
X0082404Y0442859D01*
X0083401Y0442859D01*
X0067360Y0461837D02*
X0056225Y0472973D01*
X0072928Y0489676D01*
X0084064Y0478540D01*
X0067360Y0461837D01*
X0083858Y0472975D02*
X0085353Y0474470D01*
X0086349Y0474470D01*
X0088343Y0472477D01*
X0088343Y0471480D01*
X0086848Y0469985D01*
X0083858Y0472975D01*
X0087432Y0475553D02*
X0087432Y0476549D01*
X0088429Y0477546D01*
X0089425Y0477546D01*
X0089924Y0477048D01*
X0089924Y0473061D01*
X0091917Y0475055D01*
X0188671Y0476733D02*
X0190166Y0478228D01*
X0191163Y0478228D01*
X0192159Y0477232D01*
X0192159Y0476235D01*
X0190664Y0474740D01*
X0191661Y0473744D02*
X0188671Y0476733D01*
X0191661Y0475737D02*
X0193654Y0475737D01*
X0194239Y0477318D02*
X0195235Y0477318D01*
X0196232Y0478314D01*
X0196232Y0479311D01*
X0195734Y0479809D01*
X0194737Y0479809D01*
X0194239Y0479311D01*
X0194737Y0479809D02*
X0194737Y0480806D01*
X0194239Y0481304D01*
X0193242Y0481304D01*
X0192246Y0480308D01*
X0192246Y0479311D01*
X0359880Y0459752D02*
X0361375Y0461246D01*
X0362372Y0461246D01*
X0363368Y0460250D01*
X0363368Y0459253D01*
X0361873Y0457758D01*
X0362870Y0456762D02*
X0359880Y0459752D01*
X0362870Y0458755D02*
X0364863Y0458755D01*
X0365448Y0460336D02*
X0364949Y0460835D01*
X0364949Y0461831D01*
X0365946Y0462828D01*
X0366942Y0462828D01*
X0367441Y0462329D01*
X0367441Y0461333D01*
X0366444Y0460336D01*
X0365448Y0460336D01*
X0364949Y0461831D02*
X0363953Y0461831D01*
X0363455Y0462329D01*
X0363455Y0463326D01*
X0364451Y0464322D01*
X0365448Y0464322D01*
X0365946Y0463824D01*
X0365946Y0462828D01*
X0413275Y0429129D02*
X0414770Y0430624D01*
X0415766Y0430624D01*
X0416763Y0429627D01*
X0416763Y0428631D01*
X0415268Y0427136D01*
X0416265Y0428132D02*
X0418258Y0428132D01*
X0418843Y0429714D02*
X0419839Y0429714D01*
X0420836Y0430710D01*
X0420836Y0431707D01*
X0419839Y0432703D01*
X0418843Y0432703D01*
X0418344Y0432205D01*
X0417846Y0430710D01*
X0416351Y0432205D01*
X0418344Y0434198D01*
X0413275Y0429129D02*
X0416265Y0426139D01*
X0428002Y0420299D02*
X0428002Y0419302D01*
X0428998Y0418305D01*
X0429995Y0418305D01*
X0430579Y0416724D02*
X0434566Y0416724D01*
X0435064Y0417223D01*
X0435064Y0418219D01*
X0434067Y0419216D01*
X0433071Y0419216D01*
X0431988Y0420299D02*
X0431988Y0421295D01*
X0430991Y0422292D01*
X0429995Y0422292D01*
X0428002Y0420299D01*
X0430579Y0416724D02*
X0432572Y0414731D01*
X0435150Y0415143D02*
X0437143Y0413150D01*
X0435150Y0412153D02*
X0438140Y0415143D01*
X0435150Y0415143D01*
X0434366Y0432035D02*
X0434864Y0432534D01*
X0438850Y0432534D01*
X0439348Y0433032D01*
X0437355Y0435025D01*
X0435276Y0437104D02*
X0432286Y0434115D01*
X0431290Y0435111D02*
X0433283Y0433118D01*
X0433283Y0437104D02*
X0435276Y0437104D01*
X0432698Y0438686D02*
X0431702Y0437689D01*
X0430705Y0437689D01*
X0429210Y0439184D01*
X0428214Y0438187D02*
X0431203Y0441177D01*
X0432698Y0439682D01*
X0432698Y0438686D01*
X0430207Y0438187D02*
X0430207Y0436194D01*
X0436966Y0451790D02*
X0437963Y0451790D01*
X0438959Y0452787D01*
X0438959Y0453783D01*
X0440541Y0454368D02*
X0442534Y0456361D01*
X0441537Y0455365D02*
X0438547Y0458354D01*
X0438547Y0456361D01*
X0436966Y0455777D02*
X0435970Y0455777D01*
X0434973Y0454780D01*
X0434973Y0453783D01*
X0436966Y0451790D01*
X0443118Y0457942D02*
X0444115Y0457942D01*
X0445111Y0458939D01*
X0445111Y0459936D01*
X0443118Y0461929D01*
X0442122Y0461929D01*
X0441125Y0460932D01*
X0441125Y0459936D01*
X0441623Y0459437D01*
X0442620Y0459437D01*
X0444115Y0460932D01*
X0459888Y0477148D02*
X0471024Y0488284D01*
X0487727Y0471581D01*
X0476592Y0460445D01*
X0459888Y0477148D01*
X0471166Y0461068D02*
X0472660Y0459574D01*
X0472660Y0458577D01*
X0470667Y0456584D01*
X0469671Y0456584D01*
X0468176Y0458079D01*
X0471166Y0461068D01*
X0472747Y0456498D02*
X0474740Y0454504D01*
X0472747Y0453508D02*
X0475736Y0456498D01*
X0472747Y0456498D01*
X0478893Y0311106D02*
X0478142Y0310356D01*
X0478142Y0308854D01*
X0478893Y0308104D01*
X0478893Y0306502D02*
X0480394Y0306502D01*
X0481145Y0305752D01*
X0481145Y0303500D01*
X0482646Y0303500D02*
X0478142Y0303500D01*
X0478142Y0305752D01*
X0478893Y0306502D01*
X0481895Y0308104D02*
X0482646Y0308854D01*
X0482646Y0310356D01*
X0481895Y0311106D01*
X0481145Y0311106D01*
X0480394Y0310356D01*
X0480394Y0309605D01*
X0480394Y0310356D02*
X0479643Y0311106D01*
X0478893Y0311106D01*
X0478142Y0301898D02*
X0478142Y0300397D01*
X0478142Y0301148D02*
X0481895Y0301148D01*
X0482646Y0300397D01*
X0482646Y0299647D01*
X0481895Y0298896D01*
X0439206Y0261391D02*
X0437213Y0259398D01*
X0438210Y0260395D02*
X0435220Y0263384D01*
X0435220Y0261391D01*
X0434636Y0259810D02*
X0434636Y0258814D01*
X0433141Y0257319D01*
X0434137Y0258315D02*
X0436130Y0258315D01*
X0434636Y0259810D02*
X0433639Y0260807D01*
X0432642Y0260807D01*
X0431148Y0259312D01*
X0434137Y0256322D01*
X0438336Y0248961D02*
X0437339Y0247965D01*
X0437339Y0246968D01*
X0438336Y0248961D02*
X0439332Y0248961D01*
X0439831Y0248463D01*
X0439831Y0244477D01*
X0441824Y0246470D01*
X0438748Y0243394D02*
X0436754Y0241401D01*
X0437751Y0242397D02*
X0434761Y0245387D01*
X0434761Y0243394D01*
X0433180Y0242809D02*
X0432184Y0242809D01*
X0431187Y0241813D01*
X0431187Y0240816D01*
X0433180Y0238823D01*
X0434177Y0238823D01*
X0435173Y0239820D01*
X0435173Y0240816D01*
X0397243Y0245457D02*
X0395119Y0243334D01*
X0396181Y0244395D02*
X0392996Y0247580D01*
X0392996Y0245457D01*
X0390802Y0245386D02*
X0389741Y0244325D01*
X0390272Y0244855D02*
X0392926Y0242201D01*
X0392926Y0241140D01*
X0392395Y0240609D01*
X0391333Y0240609D01*
X0366787Y0240550D02*
X0366787Y0239140D01*
X0366083Y0238436D01*
X0364673Y0239140D02*
X0364673Y0240550D01*
X0365378Y0241254D01*
X0366083Y0241254D01*
X0366787Y0240550D01*
X0366787Y0242786D02*
X0365378Y0244195D01*
X0366787Y0245604D01*
X0362559Y0245604D01*
X0363969Y0247136D02*
X0362559Y0248545D01*
X0366787Y0248545D01*
X0366787Y0247136D02*
X0366787Y0249955D01*
X0366787Y0242786D02*
X0362559Y0242786D01*
X0363264Y0241254D02*
X0362559Y0240550D01*
X0362559Y0239140D01*
X0363264Y0238436D01*
X0363969Y0238436D01*
X0364673Y0239140D01*
X0477168Y0238273D02*
X0477168Y0240525D01*
X0477918Y0241276D01*
X0479420Y0241276D01*
X0480170Y0240525D01*
X0480170Y0238273D01*
X0481672Y0238273D02*
X0477168Y0238273D01*
X0477168Y0236672D02*
X0477168Y0235171D01*
X0477168Y0235921D02*
X0480921Y0235921D01*
X0481672Y0235171D01*
X0481672Y0234420D01*
X0480921Y0233670D01*
X0479420Y0242877D02*
X0479420Y0245880D01*
X0481672Y0245129D02*
X0477168Y0245129D01*
X0479420Y0242877D01*
X0433221Y0126306D02*
X0434716Y0124811D01*
X0434716Y0123815D01*
X0433719Y0122818D01*
X0432723Y0122818D01*
X0431228Y0124313D01*
X0430232Y0123317D02*
X0433221Y0126306D01*
X0432225Y0123317D02*
X0432225Y0121323D01*
X0434802Y0121735D02*
X0436795Y0119742D01*
X0434802Y0118746D02*
X0437792Y0121735D01*
X0434802Y0121735D01*
X0434669Y0113400D02*
X0434669Y0109413D01*
X0435665Y0109413D01*
X0436662Y0110410D01*
X0436662Y0111407D01*
X0434669Y0113400D01*
X0433672Y0113400D01*
X0432676Y0112403D01*
X0432676Y0111407D01*
X0434669Y0109413D01*
X0434084Y0107832D02*
X0432091Y0105839D01*
X0433088Y0106836D02*
X0430098Y0109825D01*
X0430098Y0107832D01*
X0429513Y0106251D02*
X0429513Y0105255D01*
X0428018Y0103760D01*
X0429015Y0104756D02*
X0431008Y0104756D01*
X0429513Y0106251D02*
X0428517Y0107248D01*
X0427520Y0107248D01*
X0426025Y0105753D01*
X0429015Y0102763D01*
X0423119Y0105497D02*
X0422122Y0104500D01*
X0421126Y0104500D01*
X0421126Y0108487D01*
X0423119Y0106493D01*
X0423119Y0105497D01*
X0421126Y0104500D02*
X0419133Y0106493D01*
X0419133Y0107490D01*
X0420129Y0108487D01*
X0421126Y0108487D01*
X0420541Y0102919D02*
X0418548Y0100926D01*
X0419544Y0101923D02*
X0416555Y0104912D01*
X0416555Y0102919D01*
X0414974Y0102335D02*
X0413977Y0102335D01*
X0412980Y0101338D01*
X0412980Y0100341D01*
X0414974Y0098348D01*
X0415970Y0098348D01*
X0416967Y0099345D01*
X0416967Y0100341D01*
X0449953Y0107326D02*
X0450950Y0106329D01*
X0451946Y0106329D01*
X0452531Y0104748D02*
X0454524Y0102755D01*
X0453527Y0103751D02*
X0456517Y0106741D01*
X0454524Y0106741D01*
X0453939Y0108322D02*
X0453939Y0109319D01*
X0452943Y0110315D01*
X0451946Y0110315D01*
X0449953Y0108322D01*
X0449953Y0107326D01*
X0457102Y0103167D02*
X0459095Y0101173D01*
X0457102Y0100177D02*
X0460091Y0103167D01*
X0457102Y0103167D01*
X0476313Y0083507D02*
X0487449Y0072371D01*
X0470745Y0055668D01*
X0459610Y0066804D01*
X0476313Y0083507D01*
X0457472Y0073254D02*
X0456974Y0073752D01*
X0455977Y0073752D01*
X0454482Y0072257D01*
X0455479Y0071261D01*
X0456475Y0071261D01*
X0457472Y0072257D01*
X0457472Y0073254D01*
X0454482Y0074250D02*
X0454482Y0072257D01*
X0454482Y0074250D02*
X0454980Y0075745D01*
X0452403Y0072171D02*
X0451406Y0072171D01*
X0449911Y0070676D01*
X0452901Y0067687D01*
X0454396Y0069181D01*
X0454396Y0070178D01*
X0452403Y0072171D01*
X0267314Y0045948D02*
X0266609Y0046653D01*
X0265200Y0046653D01*
X0264495Y0045948D01*
X0262963Y0046653D02*
X0261554Y0046653D01*
X0262259Y0046653D02*
X0262259Y0043129D01*
X0261554Y0042425D01*
X0260849Y0042425D01*
X0260145Y0043129D01*
X0264495Y0042425D02*
X0267314Y0045243D01*
X0267314Y0045948D01*
X0267314Y0042425D02*
X0264495Y0042425D01*
D14*
X0193022Y0200938D02*
X0196278Y0204194D01*
X0194108Y0206364D02*
X0193022Y0200938D01*
X0190852Y0203109D02*
X0194108Y0206364D01*
X0193022Y0207449D02*
X0189767Y0204194D01*
X0189767Y0206364D01*
X0187597Y0206364D01*
X0190852Y0209619D01*
X0189224Y0210162D02*
X0189224Y0211247D01*
X0188139Y0212332D01*
X0187054Y0212332D01*
X0184884Y0210162D01*
X0184884Y0209077D01*
X0185969Y0207992D01*
X0187054Y0207992D01*
X0189224Y0210162D01*
X0185969Y0213418D02*
X0185969Y0214503D01*
X0184341Y0216130D01*
X0181086Y0212875D01*
X0182713Y0211247D01*
X0183799Y0211247D01*
X0185969Y0213418D01*
X0179458Y0213418D02*
X0177288Y0215588D01*
X0177288Y0218843D02*
X0175660Y0220471D01*
X0174575Y0219386D02*
X0177830Y0222641D01*
X0179458Y0221014D01*
X0179458Y0219928D01*
X0178373Y0218843D01*
X0177288Y0218843D01*
X0173490Y0220471D02*
X0171319Y0222641D01*
X0174575Y0225897D01*
X0176745Y0223727D01*
X0174032Y0223184D02*
X0172947Y0224269D01*
X0173490Y0226982D02*
X0171319Y0229152D01*
X0172404Y0228067D02*
X0169149Y0224812D01*
X0167521Y0227525D02*
X0166436Y0227525D01*
X0165351Y0228610D01*
X0165351Y0229695D01*
X0166979Y0230237D02*
X0168064Y0229152D01*
X0168064Y0228067D01*
X0167521Y0227525D01*
X0166979Y0230237D02*
X0166979Y0231323D01*
X0167521Y0231865D01*
X0168606Y0231865D01*
X0169692Y0230780D01*
X0169692Y0229695D01*
X0210253Y0253407D02*
X0214089Y0253407D01*
X0214857Y0254174D01*
X0214857Y0255709D01*
X0214089Y0256476D01*
X0210253Y0256476D01*
X0211020Y0258011D02*
X0210253Y0258778D01*
X0210253Y0260313D01*
X0211020Y0261080D01*
X0211020Y0262615D02*
X0210253Y0263382D01*
X0210253Y0264917D01*
X0211020Y0265684D01*
X0211787Y0265684D01*
X0214857Y0262615D01*
X0214857Y0265684D01*
X0214089Y0261080D02*
X0213322Y0261080D01*
X0212555Y0260313D01*
X0212555Y0258778D01*
X0211787Y0258011D01*
X0211020Y0258011D01*
X0209485Y0259545D02*
X0215624Y0259545D01*
X0214857Y0258778D02*
X0214857Y0260313D01*
X0214089Y0261080D01*
X0214857Y0258778D02*
X0214089Y0258011D01*
X0169866Y0317434D02*
X0166796Y0317434D01*
X0169866Y0320503D01*
X0169866Y0321271D01*
X0169098Y0322038D01*
X0167564Y0322038D01*
X0166796Y0321271D01*
X0165262Y0321271D02*
X0165262Y0322038D01*
X0165262Y0321271D02*
X0163727Y0319736D01*
X0163727Y0317434D01*
X0163727Y0319736D02*
X0162192Y0321271D01*
X0162192Y0322038D01*
X0089866Y0294481D02*
X0089099Y0295248D01*
X0087564Y0295248D01*
X0086797Y0294481D01*
X0085262Y0294481D02*
X0085262Y0293713D01*
X0084495Y0292946D01*
X0082193Y0292946D01*
X0082193Y0290644D02*
X0084495Y0290644D01*
X0085262Y0291411D01*
X0085262Y0292179D01*
X0084495Y0292946D01*
X0085262Y0294481D02*
X0084495Y0295248D01*
X0082193Y0295248D01*
X0082193Y0290644D01*
X0086797Y0290644D02*
X0089866Y0293713D01*
X0089866Y0294481D01*
X0089866Y0290644D02*
X0086797Y0290644D01*
X0069506Y0276052D02*
X0069506Y0275284D01*
X0068738Y0274517D01*
X0069506Y0273750D01*
X0069506Y0272982D01*
X0068738Y0272215D01*
X0067204Y0272215D01*
X0066436Y0272982D01*
X0064902Y0272982D02*
X0064902Y0273750D01*
X0064134Y0274517D01*
X0062600Y0274517D01*
X0061832Y0275284D01*
X0061832Y0276052D01*
X0062600Y0276819D01*
X0064134Y0276819D01*
X0064902Y0276052D01*
X0066436Y0276052D02*
X0067204Y0276819D01*
X0068738Y0276819D01*
X0069506Y0276052D01*
X0068738Y0274517D02*
X0067971Y0274517D01*
X0064902Y0272982D02*
X0064134Y0272215D01*
X0062600Y0272215D01*
X0061832Y0272982D01*
X0060298Y0272982D02*
X0060298Y0276819D01*
X0057228Y0276819D02*
X0057228Y0272982D01*
X0057996Y0272215D01*
X0059530Y0272215D01*
X0060298Y0272982D01*
X0063367Y0271448D02*
X0063367Y0277586D01*
X0063031Y0474187D02*
X0060861Y0476357D01*
X0059373Y0477044D02*
X0059373Y0478129D01*
X0056660Y0480842D01*
X0058288Y0481385D02*
X0058288Y0482470D01*
X0059373Y0483555D01*
X0060458Y0483555D01*
X0061001Y0481927D02*
X0059916Y0480842D01*
X0058831Y0480842D01*
X0058288Y0481385D01*
X0058288Y0483555D02*
X0062629Y0479214D01*
X0062629Y0480299D02*
X0062629Y0481385D01*
X0062086Y0481927D01*
X0061001Y0481927D01*
X0062629Y0480299D02*
X0061544Y0479214D01*
X0060458Y0479214D01*
X0059373Y0477044D02*
X0058288Y0475959D01*
X0057203Y0475959D01*
X0054490Y0478672D01*
X0060861Y0474187D02*
X0063031Y0476357D01*
X0064256Y0481927D02*
X0066427Y0484097D01*
X0065342Y0483012D02*
X0062086Y0486268D01*
X0062086Y0484097D01*
X0064256Y0488438D02*
X0066427Y0490608D01*
X0066969Y0490066D01*
X0066969Y0485725D01*
X0067512Y0485183D01*
X0069213Y0482539D02*
X0071383Y0484709D01*
X0288015Y0273290D02*
X0288015Y0270221D01*
X0288015Y0271756D02*
X0283411Y0271756D01*
X0284945Y0270221D01*
X0284178Y0268686D02*
X0283411Y0267919D01*
X0283411Y0266384D01*
X0284178Y0265617D01*
X0284945Y0265617D01*
X0285713Y0266384D01*
X0285713Y0267919D01*
X0286480Y0268686D01*
X0287247Y0268686D01*
X0288015Y0267919D01*
X0288015Y0266384D01*
X0287247Y0265617D01*
X0287247Y0264082D02*
X0283411Y0264082D01*
X0283411Y0261013D02*
X0287247Y0261013D01*
X0288015Y0261781D01*
X0288015Y0263315D01*
X0287247Y0264082D01*
X0288782Y0267152D02*
X0282644Y0267152D01*
X0479837Y0070357D02*
X0482008Y0068187D01*
X0483495Y0067500D02*
X0481325Y0065330D01*
X0482953Y0063702D01*
X0483495Y0065330D01*
X0484038Y0065873D01*
X0485123Y0065873D01*
X0486208Y0064788D01*
X0486208Y0063702D01*
X0485123Y0062617D01*
X0484038Y0062617D01*
X0482953Y0061532D02*
X0482410Y0062075D01*
X0481325Y0062075D01*
X0480240Y0060989D01*
X0479155Y0060990D01*
X0478612Y0061532D01*
X0478612Y0062617D01*
X0479697Y0063702D01*
X0480782Y0063702D01*
X0478612Y0063702D02*
X0482953Y0059362D01*
X0481868Y0059362D02*
X0482953Y0060447D01*
X0482953Y0061532D01*
X0481868Y0059362D02*
X0480782Y0059362D01*
X0479697Y0058277D02*
X0476984Y0060990D01*
X0474814Y0058819D02*
X0477527Y0056106D01*
X0478612Y0056106D01*
X0479697Y0057191D01*
X0479697Y0058277D01*
X0473656Y0062006D02*
X0471486Y0059835D01*
X0479837Y0068187D02*
X0482008Y0070357D01*
X0482760Y0473126D02*
X0480590Y0475296D01*
X0482149Y0478082D02*
X0479978Y0480252D01*
X0481064Y0479167D02*
X0484319Y0482423D01*
X0482149Y0482423D01*
X0481606Y0484050D02*
X0481606Y0485136D01*
X0480521Y0486221D01*
X0479436Y0486221D01*
X0478893Y0485678D01*
X0478893Y0484593D01*
X0479978Y0483508D01*
X0479978Y0482423D01*
X0479436Y0481880D01*
X0478351Y0481880D01*
X0477266Y0482965D01*
X0477266Y0484050D01*
X0476180Y0485136D02*
X0478893Y0487848D01*
X0476723Y0490019D02*
X0474010Y0487306D01*
X0474010Y0486221D01*
X0475095Y0485136D01*
X0476180Y0485136D01*
X0474409Y0483648D02*
X0472238Y0481478D01*
X0472238Y0483648D02*
X0474409Y0481478D01*
X0477266Y0481880D02*
X0481606Y0486221D01*
X0485947Y0479710D02*
X0487032Y0479710D01*
X0488117Y0478625D01*
X0488117Y0477539D01*
X0487574Y0476997D01*
X0486489Y0476997D01*
X0486489Y0475912D01*
X0485947Y0475369D01*
X0484862Y0475369D01*
X0483776Y0476454D01*
X0483776Y0477539D01*
X0485947Y0477539D02*
X0486489Y0476997D01*
X0071471Y0063280D02*
X0069301Y0061109D01*
X0068614Y0059622D02*
X0067529Y0059622D01*
X0066986Y0059079D01*
X0066986Y0057994D01*
X0068614Y0056366D01*
X0067529Y0055281D02*
X0069699Y0057451D01*
X0069699Y0058536D01*
X0068614Y0059622D01*
X0071471Y0061109D02*
X0069301Y0063280D01*
X0065901Y0062334D02*
X0062646Y0059079D01*
X0063731Y0057994D02*
X0061560Y0060164D01*
X0061018Y0061792D02*
X0061560Y0062334D01*
X0061560Y0063420D01*
X0060475Y0064505D01*
X0060475Y0065590D01*
X0061018Y0066132D01*
X0062103Y0066132D01*
X0063188Y0065047D01*
X0063188Y0063962D01*
X0063731Y0062334D02*
X0065901Y0062334D01*
X0063188Y0066132D02*
X0058848Y0061792D01*
X0058848Y0062877D02*
X0059933Y0061792D01*
X0061018Y0061792D01*
X0058848Y0062877D02*
X0058848Y0063962D01*
X0057762Y0065047D02*
X0060475Y0067760D01*
X0058305Y0069931D02*
X0055592Y0067218D01*
X0055592Y0066132D01*
X0056677Y0065047D01*
X0057762Y0065047D01*
X0063119Y0069461D02*
X0060949Y0071631D01*
X0065359Y0057451D02*
X0065359Y0056366D01*
X0066444Y0055281D01*
X0067529Y0055281D01*
D15*
X0221640Y0242900D02*
X0221642Y0243005D01*
X0221648Y0243110D01*
X0221658Y0243214D01*
X0221672Y0243318D01*
X0221690Y0243422D01*
X0221712Y0243524D01*
X0221737Y0243626D01*
X0221767Y0243727D01*
X0221800Y0243826D01*
X0221837Y0243924D01*
X0221878Y0244021D01*
X0221923Y0244116D01*
X0221971Y0244209D01*
X0222022Y0244301D01*
X0222078Y0244390D01*
X0222136Y0244477D01*
X0222198Y0244562D01*
X0222262Y0244645D01*
X0222330Y0244725D01*
X0222401Y0244802D01*
X0222475Y0244876D01*
X0222552Y0244948D01*
X0222631Y0245017D01*
X0222713Y0245082D01*
X0222797Y0245145D01*
X0222884Y0245204D01*
X0222973Y0245260D01*
X0223064Y0245313D01*
X0223157Y0245362D01*
X0223251Y0245407D01*
X0223347Y0245449D01*
X0223445Y0245487D01*
X0223544Y0245521D01*
X0223645Y0245552D01*
X0223746Y0245578D01*
X0223849Y0245601D01*
X0223952Y0245620D01*
X0224056Y0245635D01*
X0224160Y0245646D01*
X0224265Y0245653D01*
X0224370Y0245656D01*
X0224475Y0245655D01*
X0224580Y0245650D01*
X0224684Y0245641D01*
X0224788Y0245628D01*
X0224892Y0245611D01*
X0224995Y0245590D01*
X0225097Y0245565D01*
X0225198Y0245537D01*
X0225297Y0245504D01*
X0225396Y0245468D01*
X0225493Y0245428D01*
X0225588Y0245385D01*
X0225682Y0245337D01*
X0225774Y0245287D01*
X0225864Y0245233D01*
X0225952Y0245175D01*
X0226037Y0245114D01*
X0226120Y0245050D01*
X0226201Y0244983D01*
X0226279Y0244913D01*
X0226354Y0244839D01*
X0226426Y0244764D01*
X0226496Y0244685D01*
X0226562Y0244604D01*
X0226626Y0244520D01*
X0226686Y0244434D01*
X0226742Y0244346D01*
X0226796Y0244255D01*
X0226846Y0244163D01*
X0226892Y0244069D01*
X0226935Y0243973D01*
X0226974Y0243875D01*
X0227009Y0243777D01*
X0227040Y0243676D01*
X0227068Y0243575D01*
X0227092Y0243473D01*
X0227112Y0243370D01*
X0227128Y0243266D01*
X0227140Y0243162D01*
X0227148Y0243057D01*
X0227152Y0242952D01*
X0227152Y0242848D01*
X0227148Y0242743D01*
X0227140Y0242638D01*
X0227128Y0242534D01*
X0227112Y0242430D01*
X0227092Y0242327D01*
X0227068Y0242225D01*
X0227040Y0242124D01*
X0227009Y0242023D01*
X0226974Y0241925D01*
X0226935Y0241827D01*
X0226892Y0241731D01*
X0226846Y0241637D01*
X0226796Y0241545D01*
X0226742Y0241454D01*
X0226686Y0241366D01*
X0226626Y0241280D01*
X0226562Y0241196D01*
X0226496Y0241115D01*
X0226426Y0241036D01*
X0226354Y0240961D01*
X0226279Y0240887D01*
X0226201Y0240817D01*
X0226120Y0240750D01*
X0226037Y0240686D01*
X0225952Y0240625D01*
X0225864Y0240567D01*
X0225774Y0240513D01*
X0225682Y0240463D01*
X0225588Y0240415D01*
X0225493Y0240372D01*
X0225396Y0240332D01*
X0225297Y0240296D01*
X0225198Y0240263D01*
X0225097Y0240235D01*
X0224995Y0240210D01*
X0224892Y0240189D01*
X0224788Y0240172D01*
X0224684Y0240159D01*
X0224580Y0240150D01*
X0224475Y0240145D01*
X0224370Y0240144D01*
X0224265Y0240147D01*
X0224160Y0240154D01*
X0224056Y0240165D01*
X0223952Y0240180D01*
X0223849Y0240199D01*
X0223746Y0240222D01*
X0223645Y0240248D01*
X0223544Y0240279D01*
X0223445Y0240313D01*
X0223347Y0240351D01*
X0223251Y0240393D01*
X0223157Y0240438D01*
X0223064Y0240487D01*
X0222973Y0240540D01*
X0222884Y0240596D01*
X0222797Y0240655D01*
X0222713Y0240718D01*
X0222631Y0240783D01*
X0222552Y0240852D01*
X0222475Y0240924D01*
X0222401Y0240998D01*
X0222330Y0241075D01*
X0222262Y0241155D01*
X0222198Y0241238D01*
X0222136Y0241323D01*
X0222078Y0241410D01*
X0222022Y0241499D01*
X0221971Y0241591D01*
X0221923Y0241684D01*
X0221878Y0241779D01*
X0221837Y0241876D01*
X0221800Y0241974D01*
X0221767Y0242073D01*
X0221737Y0242174D01*
X0221712Y0242276D01*
X0221690Y0242378D01*
X0221672Y0242482D01*
X0221658Y0242586D01*
X0221648Y0242690D01*
X0221642Y0242795D01*
X0221640Y0242900D01*
X0221640Y0300774D02*
X0221642Y0300879D01*
X0221648Y0300984D01*
X0221658Y0301088D01*
X0221672Y0301192D01*
X0221690Y0301296D01*
X0221712Y0301398D01*
X0221737Y0301500D01*
X0221767Y0301601D01*
X0221800Y0301700D01*
X0221837Y0301798D01*
X0221878Y0301895D01*
X0221923Y0301990D01*
X0221971Y0302083D01*
X0222022Y0302175D01*
X0222078Y0302264D01*
X0222136Y0302351D01*
X0222198Y0302436D01*
X0222262Y0302519D01*
X0222330Y0302599D01*
X0222401Y0302676D01*
X0222475Y0302750D01*
X0222552Y0302822D01*
X0222631Y0302891D01*
X0222713Y0302956D01*
X0222797Y0303019D01*
X0222884Y0303078D01*
X0222973Y0303134D01*
X0223064Y0303187D01*
X0223157Y0303236D01*
X0223251Y0303281D01*
X0223347Y0303323D01*
X0223445Y0303361D01*
X0223544Y0303395D01*
X0223645Y0303426D01*
X0223746Y0303452D01*
X0223849Y0303475D01*
X0223952Y0303494D01*
X0224056Y0303509D01*
X0224160Y0303520D01*
X0224265Y0303527D01*
X0224370Y0303530D01*
X0224475Y0303529D01*
X0224580Y0303524D01*
X0224684Y0303515D01*
X0224788Y0303502D01*
X0224892Y0303485D01*
X0224995Y0303464D01*
X0225097Y0303439D01*
X0225198Y0303411D01*
X0225297Y0303378D01*
X0225396Y0303342D01*
X0225493Y0303302D01*
X0225588Y0303259D01*
X0225682Y0303211D01*
X0225774Y0303161D01*
X0225864Y0303107D01*
X0225952Y0303049D01*
X0226037Y0302988D01*
X0226120Y0302924D01*
X0226201Y0302857D01*
X0226279Y0302787D01*
X0226354Y0302713D01*
X0226426Y0302638D01*
X0226496Y0302559D01*
X0226562Y0302478D01*
X0226626Y0302394D01*
X0226686Y0302308D01*
X0226742Y0302220D01*
X0226796Y0302129D01*
X0226846Y0302037D01*
X0226892Y0301943D01*
X0226935Y0301847D01*
X0226974Y0301749D01*
X0227009Y0301651D01*
X0227040Y0301550D01*
X0227068Y0301449D01*
X0227092Y0301347D01*
X0227112Y0301244D01*
X0227128Y0301140D01*
X0227140Y0301036D01*
X0227148Y0300931D01*
X0227152Y0300826D01*
X0227152Y0300722D01*
X0227148Y0300617D01*
X0227140Y0300512D01*
X0227128Y0300408D01*
X0227112Y0300304D01*
X0227092Y0300201D01*
X0227068Y0300099D01*
X0227040Y0299998D01*
X0227009Y0299897D01*
X0226974Y0299799D01*
X0226935Y0299701D01*
X0226892Y0299605D01*
X0226846Y0299511D01*
X0226796Y0299419D01*
X0226742Y0299328D01*
X0226686Y0299240D01*
X0226626Y0299154D01*
X0226562Y0299070D01*
X0226496Y0298989D01*
X0226426Y0298910D01*
X0226354Y0298835D01*
X0226279Y0298761D01*
X0226201Y0298691D01*
X0226120Y0298624D01*
X0226037Y0298560D01*
X0225952Y0298499D01*
X0225864Y0298441D01*
X0225774Y0298387D01*
X0225682Y0298337D01*
X0225588Y0298289D01*
X0225493Y0298246D01*
X0225396Y0298206D01*
X0225297Y0298170D01*
X0225198Y0298137D01*
X0225097Y0298109D01*
X0224995Y0298084D01*
X0224892Y0298063D01*
X0224788Y0298046D01*
X0224684Y0298033D01*
X0224580Y0298024D01*
X0224475Y0298019D01*
X0224370Y0298018D01*
X0224265Y0298021D01*
X0224160Y0298028D01*
X0224056Y0298039D01*
X0223952Y0298054D01*
X0223849Y0298073D01*
X0223746Y0298096D01*
X0223645Y0298122D01*
X0223544Y0298153D01*
X0223445Y0298187D01*
X0223347Y0298225D01*
X0223251Y0298267D01*
X0223157Y0298312D01*
X0223064Y0298361D01*
X0222973Y0298414D01*
X0222884Y0298470D01*
X0222797Y0298529D01*
X0222713Y0298592D01*
X0222631Y0298657D01*
X0222552Y0298726D01*
X0222475Y0298798D01*
X0222401Y0298872D01*
X0222330Y0298949D01*
X0222262Y0299029D01*
X0222198Y0299112D01*
X0222136Y0299197D01*
X0222078Y0299284D01*
X0222022Y0299373D01*
X0221971Y0299465D01*
X0221923Y0299558D01*
X0221878Y0299653D01*
X0221837Y0299750D01*
X0221800Y0299848D01*
X0221767Y0299947D01*
X0221737Y0300048D01*
X0221712Y0300150D01*
X0221690Y0300252D01*
X0221672Y0300356D01*
X0221658Y0300460D01*
X0221648Y0300564D01*
X0221642Y0300669D01*
X0221640Y0300774D01*
X0316522Y0300774D02*
X0316524Y0300879D01*
X0316530Y0300984D01*
X0316540Y0301088D01*
X0316554Y0301192D01*
X0316572Y0301296D01*
X0316594Y0301398D01*
X0316619Y0301500D01*
X0316649Y0301601D01*
X0316682Y0301700D01*
X0316719Y0301798D01*
X0316760Y0301895D01*
X0316805Y0301990D01*
X0316853Y0302083D01*
X0316904Y0302175D01*
X0316960Y0302264D01*
X0317018Y0302351D01*
X0317080Y0302436D01*
X0317144Y0302519D01*
X0317212Y0302599D01*
X0317283Y0302676D01*
X0317357Y0302750D01*
X0317434Y0302822D01*
X0317513Y0302891D01*
X0317595Y0302956D01*
X0317679Y0303019D01*
X0317766Y0303078D01*
X0317855Y0303134D01*
X0317946Y0303187D01*
X0318039Y0303236D01*
X0318133Y0303281D01*
X0318229Y0303323D01*
X0318327Y0303361D01*
X0318426Y0303395D01*
X0318527Y0303426D01*
X0318628Y0303452D01*
X0318731Y0303475D01*
X0318834Y0303494D01*
X0318938Y0303509D01*
X0319042Y0303520D01*
X0319147Y0303527D01*
X0319252Y0303530D01*
X0319357Y0303529D01*
X0319462Y0303524D01*
X0319566Y0303515D01*
X0319670Y0303502D01*
X0319774Y0303485D01*
X0319877Y0303464D01*
X0319979Y0303439D01*
X0320080Y0303411D01*
X0320179Y0303378D01*
X0320278Y0303342D01*
X0320375Y0303302D01*
X0320470Y0303259D01*
X0320564Y0303211D01*
X0320656Y0303161D01*
X0320746Y0303107D01*
X0320834Y0303049D01*
X0320919Y0302988D01*
X0321002Y0302924D01*
X0321083Y0302857D01*
X0321161Y0302787D01*
X0321236Y0302713D01*
X0321308Y0302638D01*
X0321378Y0302559D01*
X0321444Y0302478D01*
X0321508Y0302394D01*
X0321568Y0302308D01*
X0321624Y0302220D01*
X0321678Y0302129D01*
X0321728Y0302037D01*
X0321774Y0301943D01*
X0321817Y0301847D01*
X0321856Y0301749D01*
X0321891Y0301651D01*
X0321922Y0301550D01*
X0321950Y0301449D01*
X0321974Y0301347D01*
X0321994Y0301244D01*
X0322010Y0301140D01*
X0322022Y0301036D01*
X0322030Y0300931D01*
X0322034Y0300826D01*
X0322034Y0300722D01*
X0322030Y0300617D01*
X0322022Y0300512D01*
X0322010Y0300408D01*
X0321994Y0300304D01*
X0321974Y0300201D01*
X0321950Y0300099D01*
X0321922Y0299998D01*
X0321891Y0299897D01*
X0321856Y0299799D01*
X0321817Y0299701D01*
X0321774Y0299605D01*
X0321728Y0299511D01*
X0321678Y0299419D01*
X0321624Y0299328D01*
X0321568Y0299240D01*
X0321508Y0299154D01*
X0321444Y0299070D01*
X0321378Y0298989D01*
X0321308Y0298910D01*
X0321236Y0298835D01*
X0321161Y0298761D01*
X0321083Y0298691D01*
X0321002Y0298624D01*
X0320919Y0298560D01*
X0320834Y0298499D01*
X0320746Y0298441D01*
X0320656Y0298387D01*
X0320564Y0298337D01*
X0320470Y0298289D01*
X0320375Y0298246D01*
X0320278Y0298206D01*
X0320179Y0298170D01*
X0320080Y0298137D01*
X0319979Y0298109D01*
X0319877Y0298084D01*
X0319774Y0298063D01*
X0319670Y0298046D01*
X0319566Y0298033D01*
X0319462Y0298024D01*
X0319357Y0298019D01*
X0319252Y0298018D01*
X0319147Y0298021D01*
X0319042Y0298028D01*
X0318938Y0298039D01*
X0318834Y0298054D01*
X0318731Y0298073D01*
X0318628Y0298096D01*
X0318527Y0298122D01*
X0318426Y0298153D01*
X0318327Y0298187D01*
X0318229Y0298225D01*
X0318133Y0298267D01*
X0318039Y0298312D01*
X0317946Y0298361D01*
X0317855Y0298414D01*
X0317766Y0298470D01*
X0317679Y0298529D01*
X0317595Y0298592D01*
X0317513Y0298657D01*
X0317434Y0298726D01*
X0317357Y0298798D01*
X0317283Y0298872D01*
X0317212Y0298949D01*
X0317144Y0299029D01*
X0317080Y0299112D01*
X0317018Y0299197D01*
X0316960Y0299284D01*
X0316904Y0299373D01*
X0316853Y0299465D01*
X0316805Y0299558D01*
X0316760Y0299653D01*
X0316719Y0299750D01*
X0316682Y0299848D01*
X0316649Y0299947D01*
X0316619Y0300048D01*
X0316594Y0300150D01*
X0316572Y0300252D01*
X0316554Y0300356D01*
X0316540Y0300460D01*
X0316530Y0300564D01*
X0316524Y0300669D01*
X0316522Y0300774D01*
X0316522Y0242900D02*
X0316524Y0243005D01*
X0316530Y0243110D01*
X0316540Y0243214D01*
X0316554Y0243318D01*
X0316572Y0243422D01*
X0316594Y0243524D01*
X0316619Y0243626D01*
X0316649Y0243727D01*
X0316682Y0243826D01*
X0316719Y0243924D01*
X0316760Y0244021D01*
X0316805Y0244116D01*
X0316853Y0244209D01*
X0316904Y0244301D01*
X0316960Y0244390D01*
X0317018Y0244477D01*
X0317080Y0244562D01*
X0317144Y0244645D01*
X0317212Y0244725D01*
X0317283Y0244802D01*
X0317357Y0244876D01*
X0317434Y0244948D01*
X0317513Y0245017D01*
X0317595Y0245082D01*
X0317679Y0245145D01*
X0317766Y0245204D01*
X0317855Y0245260D01*
X0317946Y0245313D01*
X0318039Y0245362D01*
X0318133Y0245407D01*
X0318229Y0245449D01*
X0318327Y0245487D01*
X0318426Y0245521D01*
X0318527Y0245552D01*
X0318628Y0245578D01*
X0318731Y0245601D01*
X0318834Y0245620D01*
X0318938Y0245635D01*
X0319042Y0245646D01*
X0319147Y0245653D01*
X0319252Y0245656D01*
X0319357Y0245655D01*
X0319462Y0245650D01*
X0319566Y0245641D01*
X0319670Y0245628D01*
X0319774Y0245611D01*
X0319877Y0245590D01*
X0319979Y0245565D01*
X0320080Y0245537D01*
X0320179Y0245504D01*
X0320278Y0245468D01*
X0320375Y0245428D01*
X0320470Y0245385D01*
X0320564Y0245337D01*
X0320656Y0245287D01*
X0320746Y0245233D01*
X0320834Y0245175D01*
X0320919Y0245114D01*
X0321002Y0245050D01*
X0321083Y0244983D01*
X0321161Y0244913D01*
X0321236Y0244839D01*
X0321308Y0244764D01*
X0321378Y0244685D01*
X0321444Y0244604D01*
X0321508Y0244520D01*
X0321568Y0244434D01*
X0321624Y0244346D01*
X0321678Y0244255D01*
X0321728Y0244163D01*
X0321774Y0244069D01*
X0321817Y0243973D01*
X0321856Y0243875D01*
X0321891Y0243777D01*
X0321922Y0243676D01*
X0321950Y0243575D01*
X0321974Y0243473D01*
X0321994Y0243370D01*
X0322010Y0243266D01*
X0322022Y0243162D01*
X0322030Y0243057D01*
X0322034Y0242952D01*
X0322034Y0242848D01*
X0322030Y0242743D01*
X0322022Y0242638D01*
X0322010Y0242534D01*
X0321994Y0242430D01*
X0321974Y0242327D01*
X0321950Y0242225D01*
X0321922Y0242124D01*
X0321891Y0242023D01*
X0321856Y0241925D01*
X0321817Y0241827D01*
X0321774Y0241731D01*
X0321728Y0241637D01*
X0321678Y0241545D01*
X0321624Y0241454D01*
X0321568Y0241366D01*
X0321508Y0241280D01*
X0321444Y0241196D01*
X0321378Y0241115D01*
X0321308Y0241036D01*
X0321236Y0240961D01*
X0321161Y0240887D01*
X0321083Y0240817D01*
X0321002Y0240750D01*
X0320919Y0240686D01*
X0320834Y0240625D01*
X0320746Y0240567D01*
X0320656Y0240513D01*
X0320564Y0240463D01*
X0320470Y0240415D01*
X0320375Y0240372D01*
X0320278Y0240332D01*
X0320179Y0240296D01*
X0320080Y0240263D01*
X0319979Y0240235D01*
X0319877Y0240210D01*
X0319774Y0240189D01*
X0319670Y0240172D01*
X0319566Y0240159D01*
X0319462Y0240150D01*
X0319357Y0240145D01*
X0319252Y0240144D01*
X0319147Y0240147D01*
X0319042Y0240154D01*
X0318938Y0240165D01*
X0318834Y0240180D01*
X0318731Y0240199D01*
X0318628Y0240222D01*
X0318527Y0240248D01*
X0318426Y0240279D01*
X0318327Y0240313D01*
X0318229Y0240351D01*
X0318133Y0240393D01*
X0318039Y0240438D01*
X0317946Y0240487D01*
X0317855Y0240540D01*
X0317766Y0240596D01*
X0317679Y0240655D01*
X0317595Y0240718D01*
X0317513Y0240783D01*
X0317434Y0240852D01*
X0317357Y0240924D01*
X0317283Y0240998D01*
X0317212Y0241075D01*
X0317144Y0241155D01*
X0317080Y0241238D01*
X0317018Y0241323D01*
X0316960Y0241410D01*
X0316904Y0241499D01*
X0316853Y0241591D01*
X0316805Y0241684D01*
X0316760Y0241779D01*
X0316719Y0241876D01*
X0316682Y0241974D01*
X0316649Y0242073D01*
X0316619Y0242174D01*
X0316594Y0242276D01*
X0316572Y0242378D01*
X0316554Y0242482D01*
X0316540Y0242586D01*
X0316530Y0242690D01*
X0316524Y0242795D01*
X0316522Y0242900D01*
D16*
X0350266Y0239189D02*
X0374360Y0239189D01*
X0374360Y0255252D01*
X0366329Y0263283D02*
X0350266Y0263283D01*
X0350266Y0239189D01*
X0278546Y0231999D02*
X0272978Y0226432D01*
X0268134Y0231276D02*
X0273702Y0236843D01*
X0266909Y0232779D02*
X0261342Y0227211D01*
X0256498Y0232055D02*
X0262065Y0237623D01*
X0251136Y0263183D02*
X0243262Y0263183D01*
X0243262Y0270191D02*
X0251136Y0270191D01*
X0251136Y0270978D02*
X0243262Y0270978D01*
X0243262Y0277985D02*
X0251136Y0277985D01*
X0251136Y0278772D02*
X0243262Y0278772D01*
X0243262Y0285780D02*
X0251136Y0285780D01*
X0251136Y0286567D02*
X0243262Y0286567D01*
X0243262Y0293575D02*
X0251136Y0293575D01*
X0251136Y0294362D02*
X0243262Y0294362D01*
X0243262Y0301370D02*
X0251136Y0301370D01*
X0212251Y0266681D02*
X0202251Y0266681D01*
X0202251Y0250015D01*
X0205584Y0246681D02*
X0212251Y0246681D01*
X0212251Y0266681D01*
X0199010Y0242996D02*
X0204578Y0237428D01*
X0199623Y0232473D02*
X0194055Y0238040D01*
X0176183Y0222117D02*
X0181750Y0216549D01*
X0176795Y0211594D02*
X0171227Y0217161D01*
X0175347Y0211538D02*
X0180915Y0205970D01*
X0175960Y0201015D02*
X0170392Y0206583D01*
X0148952Y0236720D02*
X0148952Y0244594D01*
X0141945Y0244594D02*
X0141945Y0236720D01*
X0089656Y0267065D02*
X0089656Y0274939D01*
X0082648Y0274939D02*
X0082648Y0267065D01*
X0081861Y0267065D02*
X0081861Y0274939D01*
X0074853Y0274939D02*
X0074853Y0267065D01*
X0145285Y0326640D02*
X0145285Y0334514D01*
X0152293Y0334514D02*
X0152293Y0326640D01*
X0155988Y0340714D02*
X0163862Y0340714D01*
X0169768Y0340853D02*
X0177642Y0340853D01*
X0177642Y0347861D02*
X0169768Y0347861D01*
X0163862Y0347722D02*
X0155988Y0347722D01*
X0190369Y0330879D02*
X0198243Y0330879D01*
X0198243Y0323871D02*
X0190369Y0323871D01*
X0190369Y0322249D02*
X0198243Y0322249D01*
X0198243Y0315241D02*
X0190369Y0315241D01*
X0116440Y0413202D02*
X0110873Y0418770D01*
X0115717Y0423614D02*
X0121284Y0418046D01*
X0121563Y0426732D02*
X0127130Y0432300D01*
X0122175Y0437255D02*
X0116607Y0431687D01*
X0109369Y0439482D02*
X0114937Y0445050D01*
X0110093Y0449894D02*
X0104525Y0444326D01*
X0097120Y0440596D02*
X0074473Y0463243D01*
X0061667Y0450437D01*
X0084314Y0427790D01*
X0082477Y0460250D02*
X0077466Y0465261D01*
X0088100Y0475896D01*
X0093111Y0470885D02*
X0082477Y0460250D01*
X0186455Y0473028D02*
X0192023Y0478596D01*
X0196867Y0473752D02*
X0191299Y0468184D01*
X0357664Y0456046D02*
X0363232Y0461614D01*
X0368076Y0456770D02*
X0362508Y0451203D01*
X0411059Y0425424D02*
X0416627Y0430992D01*
X0421471Y0426148D02*
X0415903Y0420580D01*
X0421888Y0420107D02*
X0427456Y0414539D01*
X0432411Y0419494D02*
X0426844Y0425062D01*
X0435223Y0432662D02*
X0440791Y0427094D01*
X0445635Y0431938D02*
X0440067Y0437506D01*
X0439594Y0446943D02*
X0462241Y0469590D01*
X0449435Y0482396D01*
X0426788Y0459749D01*
X0458441Y0462449D02*
X0463452Y0467460D01*
X0474086Y0456826D01*
X0469075Y0451815D02*
X0458441Y0462449D01*
X0434499Y0261175D02*
X0428931Y0255607D01*
X0433775Y0250763D02*
X0439343Y0256331D01*
X0439872Y0255802D02*
X0434304Y0250234D01*
X0439260Y0245279D02*
X0444827Y0250846D01*
X0429516Y0128522D02*
X0435084Y0122955D01*
X0430240Y0118111D02*
X0424672Y0123678D01*
X0421666Y0115327D02*
X0416098Y0109759D01*
X0421053Y0104804D02*
X0426621Y0110372D01*
X0429377Y0107615D02*
X0423809Y0102048D01*
X0428653Y0097204D02*
X0434221Y0102771D01*
X0445106Y0105695D02*
X0467753Y0083048D01*
X0480559Y0095854D01*
X0457912Y0118500D01*
X0460083Y0086207D02*
X0465094Y0081196D01*
X0454460Y0070562D01*
X0449449Y0075573D02*
X0460083Y0086207D01*
X0318595Y0051899D02*
X0318595Y0045232D01*
X0315262Y0041899D02*
X0218595Y0041899D01*
X0218595Y0051899D01*
X0318595Y0051899D01*
X0127993Y0115911D02*
X0122426Y0110344D01*
X0117582Y0115188D02*
X0123150Y0120755D01*
X0116162Y0121173D02*
X0110594Y0126741D01*
X0105639Y0121785D02*
X0111207Y0116218D01*
X0102827Y0109898D02*
X0097259Y0115466D01*
X0092415Y0110622D02*
X0097983Y0105054D01*
X0104247Y0098067D02*
X0081600Y0075420D01*
X0094406Y0062614D01*
X0117053Y0085261D01*
X0085511Y0083173D02*
X0080500Y0078162D01*
X0069866Y0088796D01*
X0074877Y0093807D02*
X0085511Y0083173D01*
D17*
X0337497Y0472141D02*
X0337497Y0476866D01*
X0345371Y0476866D01*
X0345371Y0472141D01*
X0337497Y0472141D01*
X0340434Y0474504D02*
X0342434Y0474004D01*
X0342434Y0475004D01*
X0340434Y0474504D01*
X0218147Y0474647D02*
X0218147Y0479371D01*
X0210273Y0479371D01*
X0210273Y0474647D01*
X0218147Y0474647D01*
X0215210Y0476509D02*
X0213210Y0477009D01*
X0215210Y0477509D01*
X0215210Y0476509D01*
D18*
X0168801Y0337076D02*
X0164077Y0337076D01*
X0156596Y0331958D02*
X0156596Y0329596D01*
X0164077Y0324478D02*
X0168801Y0324478D01*
X0176281Y0329596D02*
X0176281Y0331958D01*
X0181749Y0302081D02*
X0182931Y0302081D01*
X0182931Y0300900D01*
X0182931Y0267829D02*
X0182931Y0266648D01*
X0181749Y0266648D01*
X0148679Y0266648D02*
X0147498Y0266648D01*
X0147498Y0267829D01*
X0147498Y0300900D02*
X0148679Y0302081D01*
X0066978Y0288586D02*
X0047978Y0288586D01*
X0050478Y0285586D02*
X0048978Y0284086D01*
X0050478Y0282586D01*
X0048978Y0284086D02*
X0052478Y0284086D01*
X0047978Y0279586D02*
X0066978Y0279586D01*
X0395400Y0239725D02*
X0395400Y0236189D01*
X0406006Y0225583D01*
X0409542Y0225583D01*
X0413077Y0229118D01*
X0413077Y0232654D01*
X0402471Y0243260D01*
X0398935Y0243260D01*
X0395400Y0239725D01*
X0402471Y0246796D02*
X0406006Y0250331D01*
X0409542Y0250331D01*
X0409542Y0253867D01*
X0413077Y0257402D01*
X0416613Y0257402D01*
X0427219Y0246796D01*
X0427219Y0243260D01*
X0423684Y0239725D01*
X0420148Y0239725D01*
X0409542Y0250331D01*
X0420148Y0239725D02*
X0420148Y0236189D01*
X0416613Y0232654D01*
X0413077Y0232654D01*
X0483590Y0233047D02*
X0483590Y0238047D01*
X0486090Y0240547D01*
X0483590Y0243047D01*
X0483590Y0248047D01*
X0486090Y0250547D01*
X0483590Y0253047D01*
X0483590Y0258047D01*
X0486090Y0260547D01*
X0483590Y0263047D01*
X0483590Y0268047D01*
X0486090Y0270547D01*
X0491090Y0270547D01*
X0493590Y0268047D01*
X0493590Y0263047D01*
X0491090Y0260547D01*
X0493590Y0258047D01*
X0493590Y0253047D01*
X0491090Y0250547D01*
X0493590Y0248047D01*
X0493590Y0243047D01*
X0491090Y0240547D01*
X0493590Y0238047D01*
X0493590Y0233047D01*
X0491090Y0230547D01*
X0493590Y0228047D01*
X0493590Y0223047D01*
X0491090Y0220547D01*
X0493590Y0218047D01*
X0493590Y0213047D01*
X0491090Y0210547D01*
X0486090Y0210547D01*
X0483590Y0213047D01*
X0483590Y0218047D01*
X0486090Y0220547D01*
X0483590Y0223047D01*
X0483590Y0228047D01*
X0486090Y0230547D01*
X0483590Y0233047D01*
X0487064Y0275773D02*
X0492064Y0275773D01*
X0494564Y0278273D01*
X0494564Y0283273D01*
X0492064Y0285773D01*
X0494564Y0288273D01*
X0494564Y0293273D01*
X0492064Y0295773D01*
X0494564Y0298273D01*
X0494564Y0303273D01*
X0492064Y0305773D01*
X0494564Y0308273D01*
X0494564Y0313273D01*
X0492064Y0315773D01*
X0494564Y0318273D01*
X0494564Y0323273D01*
X0492064Y0325773D01*
X0494564Y0328273D01*
X0494564Y0333273D01*
X0492064Y0335773D01*
X0487064Y0335773D01*
X0484564Y0333273D01*
X0484564Y0328273D01*
X0487064Y0325773D01*
X0484564Y0323273D01*
X0484564Y0318273D01*
X0487064Y0315773D01*
X0484564Y0313273D01*
X0484564Y0308273D01*
X0487064Y0305773D01*
X0484564Y0303273D01*
X0484564Y0298273D01*
X0487064Y0295773D01*
X0484564Y0293273D01*
X0484564Y0288273D01*
X0487064Y0285773D01*
X0484564Y0283273D01*
X0484564Y0278273D01*
X0487064Y0275773D01*
D19*
X0456408Y0439983D02*
X0447945Y0448446D01*
X0451843Y0452344D01*
X0460306Y0443881D01*
X0456408Y0439983D01*
X0277742Y0278727D02*
X0277742Y0264947D01*
X0265931Y0264947D01*
X0265931Y0278727D01*
X0277742Y0278727D01*
X0277349Y0278215D02*
X0277349Y0277309D01*
X0275971Y0277309D01*
X0275971Y0278215D01*
X0277349Y0278215D01*
X0277349Y0276522D02*
X0275971Y0276522D01*
X0275971Y0275616D01*
X0277349Y0275616D01*
X0277349Y0276522D01*
X0277349Y0274829D02*
X0277349Y0273923D01*
X0275971Y0273923D01*
X0275971Y0274829D01*
X0277349Y0274829D01*
X0277349Y0273136D02*
X0277349Y0272231D01*
X0275971Y0272231D01*
X0275971Y0273136D01*
X0277349Y0273136D01*
X0277349Y0271443D02*
X0275971Y0271443D01*
X0275971Y0270538D01*
X0277349Y0270538D01*
X0277349Y0271443D01*
X0277349Y0269750D02*
X0277349Y0268845D01*
X0275971Y0268845D01*
X0275971Y0269750D01*
X0277349Y0269750D01*
X0277349Y0268057D02*
X0277349Y0267152D01*
X0275971Y0267152D01*
X0275971Y0268057D01*
X0277349Y0268057D01*
X0277349Y0266364D02*
X0275971Y0266364D01*
X0275971Y0265459D01*
X0277349Y0265459D01*
X0277349Y0266364D01*
X0274829Y0266699D02*
X0273923Y0266699D01*
X0273923Y0265321D01*
X0274829Y0265321D01*
X0274829Y0266699D01*
X0273136Y0266699D02*
X0272231Y0266699D01*
X0272231Y0265321D01*
X0273136Y0265321D01*
X0273136Y0266699D01*
X0271443Y0266699D02*
X0271443Y0265321D01*
X0270538Y0265321D01*
X0270538Y0266699D01*
X0271443Y0266699D01*
X0269750Y0266699D02*
X0268845Y0266699D01*
X0268845Y0265321D01*
X0269750Y0265321D01*
X0269750Y0266699D01*
X0267703Y0266364D02*
X0266325Y0266364D01*
X0266325Y0265459D01*
X0267270Y0265459D01*
X0267703Y0265931D01*
X0267703Y0266364D01*
X0267703Y0267152D02*
X0266325Y0267152D01*
X0266325Y0268057D01*
X0267703Y0268057D01*
X0267703Y0267152D01*
X0267703Y0268845D02*
X0267703Y0269750D01*
X0266325Y0269750D01*
X0266325Y0268845D01*
X0267703Y0268845D01*
X0267703Y0270538D02*
X0267703Y0271443D01*
X0266325Y0271443D01*
X0266325Y0270538D01*
X0267703Y0270538D01*
X0267703Y0272231D02*
X0266325Y0272231D01*
X0266325Y0273136D01*
X0267703Y0273136D01*
X0267703Y0272231D01*
X0267703Y0273923D02*
X0267703Y0274829D01*
X0266325Y0274829D01*
X0266325Y0273923D01*
X0267703Y0273923D01*
X0267703Y0275616D02*
X0266325Y0275616D01*
X0266325Y0276522D01*
X0267703Y0276522D01*
X0267703Y0275616D01*
X0267703Y0277309D02*
X0266325Y0277309D01*
X0266325Y0278215D01*
X0267703Y0278215D01*
X0267703Y0277309D01*
X0268845Y0276935D02*
X0268845Y0278313D01*
X0269750Y0278313D01*
X0269750Y0276935D01*
X0268845Y0276935D01*
X0270538Y0276935D02*
X0270538Y0278313D01*
X0271443Y0278313D01*
X0271443Y0276935D01*
X0270538Y0276935D01*
X0272231Y0276935D02*
X0272231Y0278313D01*
X0273136Y0278313D01*
X0273136Y0276935D01*
X0272231Y0276935D01*
X0273923Y0276935D02*
X0273923Y0278313D01*
X0274829Y0278313D01*
X0274829Y0276935D01*
X0273923Y0276935D01*
X0442572Y0097315D02*
X0446470Y0093418D01*
X0438007Y0084955D01*
X0434109Y0088852D01*
X0442572Y0097315D01*
X0093223Y0097009D02*
X0089325Y0093111D01*
X0080862Y0101574D01*
X0084760Y0105472D01*
X0093223Y0097009D01*
X0096229Y0449838D02*
X0092332Y0453736D01*
X0100795Y0462199D01*
X0104692Y0458301D01*
X0096229Y0449838D01*
D20*
X0078687Y0461865D02*
X0078689Y0461904D01*
X0078695Y0461943D01*
X0078705Y0461981D01*
X0078718Y0462018D01*
X0078735Y0462053D01*
X0078755Y0462087D01*
X0078779Y0462118D01*
X0078806Y0462147D01*
X0078835Y0462173D01*
X0078867Y0462196D01*
X0078901Y0462216D01*
X0078937Y0462232D01*
X0078974Y0462244D01*
X0079013Y0462253D01*
X0079052Y0462258D01*
X0079091Y0462259D01*
X0079130Y0462256D01*
X0079169Y0462249D01*
X0079206Y0462238D01*
X0079243Y0462224D01*
X0079278Y0462206D01*
X0079311Y0462185D01*
X0079342Y0462160D01*
X0079370Y0462133D01*
X0079395Y0462103D01*
X0079417Y0462070D01*
X0079436Y0462036D01*
X0079451Y0462000D01*
X0079463Y0461962D01*
X0079471Y0461924D01*
X0079475Y0461885D01*
X0079475Y0461845D01*
X0079471Y0461806D01*
X0079463Y0461768D01*
X0079451Y0461730D01*
X0079436Y0461694D01*
X0079417Y0461660D01*
X0079395Y0461627D01*
X0079370Y0461597D01*
X0079342Y0461570D01*
X0079311Y0461545D01*
X0079278Y0461524D01*
X0079243Y0461506D01*
X0079206Y0461492D01*
X0079169Y0461481D01*
X0079130Y0461474D01*
X0079091Y0461471D01*
X0079052Y0461472D01*
X0079013Y0461477D01*
X0078974Y0461486D01*
X0078937Y0461498D01*
X0078901Y0461514D01*
X0078867Y0461534D01*
X0078835Y0461557D01*
X0078806Y0461583D01*
X0078779Y0461612D01*
X0078755Y0461643D01*
X0078735Y0461677D01*
X0078718Y0461712D01*
X0078705Y0461749D01*
X0078695Y0461787D01*
X0078689Y0461826D01*
X0078687Y0461865D01*
X0066786Y0457731D02*
X0066788Y0457770D01*
X0066794Y0457809D01*
X0066804Y0457847D01*
X0066817Y0457884D01*
X0066834Y0457919D01*
X0066854Y0457953D01*
X0066878Y0457984D01*
X0066905Y0458013D01*
X0066934Y0458039D01*
X0066966Y0458062D01*
X0067000Y0458082D01*
X0067036Y0458098D01*
X0067073Y0458110D01*
X0067112Y0458119D01*
X0067151Y0458124D01*
X0067190Y0458125D01*
X0067229Y0458122D01*
X0067268Y0458115D01*
X0067305Y0458104D01*
X0067342Y0458090D01*
X0067377Y0458072D01*
X0067410Y0458051D01*
X0067441Y0458026D01*
X0067469Y0457999D01*
X0067494Y0457969D01*
X0067516Y0457936D01*
X0067535Y0457902D01*
X0067550Y0457866D01*
X0067562Y0457828D01*
X0067570Y0457790D01*
X0067574Y0457751D01*
X0067574Y0457711D01*
X0067570Y0457672D01*
X0067562Y0457634D01*
X0067550Y0457596D01*
X0067535Y0457560D01*
X0067516Y0457526D01*
X0067494Y0457493D01*
X0067469Y0457463D01*
X0067441Y0457436D01*
X0067410Y0457411D01*
X0067377Y0457390D01*
X0067342Y0457372D01*
X0067305Y0457358D01*
X0067268Y0457347D01*
X0067229Y0457340D01*
X0067190Y0457337D01*
X0067151Y0457338D01*
X0067112Y0457343D01*
X0067073Y0457352D01*
X0067036Y0457364D01*
X0067000Y0457380D01*
X0066966Y0457400D01*
X0066934Y0457423D01*
X0066905Y0457449D01*
X0066878Y0457478D01*
X0066854Y0457509D01*
X0066834Y0457543D01*
X0066817Y0457578D01*
X0066804Y0457615D01*
X0066794Y0457653D01*
X0066788Y0457692D01*
X0066786Y0457731D01*
X0266129Y0263805D02*
X0266131Y0263817D01*
X0266136Y0263828D01*
X0266145Y0263837D01*
X0266156Y0263842D01*
X0266168Y0263844D01*
X0266180Y0263842D01*
X0266191Y0263837D01*
X0266200Y0263828D01*
X0266205Y0263817D01*
X0266207Y0263805D01*
X0266205Y0263793D01*
X0266200Y0263782D01*
X0266191Y0263773D01*
X0266180Y0263768D01*
X0266168Y0263766D01*
X0266156Y0263768D01*
X0266145Y0263773D01*
X0266136Y0263782D01*
X0266131Y0263793D01*
X0266129Y0263805D01*
X0355423Y0251236D02*
X0355425Y0251405D01*
X0355431Y0251574D01*
X0355442Y0251743D01*
X0355456Y0251911D01*
X0355475Y0252079D01*
X0355498Y0252247D01*
X0355524Y0252414D01*
X0355555Y0252580D01*
X0355590Y0252746D01*
X0355629Y0252910D01*
X0355673Y0253074D01*
X0355720Y0253236D01*
X0355771Y0253397D01*
X0355826Y0253557D01*
X0355885Y0253716D01*
X0355947Y0253873D01*
X0356014Y0254028D01*
X0356085Y0254182D01*
X0356159Y0254334D01*
X0356237Y0254484D01*
X0356318Y0254632D01*
X0356403Y0254778D01*
X0356492Y0254922D01*
X0356584Y0255064D01*
X0356680Y0255203D01*
X0356779Y0255340D01*
X0356881Y0255475D01*
X0356987Y0255607D01*
X0357096Y0255736D01*
X0357208Y0255863D01*
X0357323Y0255987D01*
X0357441Y0256108D01*
X0357562Y0256226D01*
X0357686Y0256341D01*
X0357813Y0256453D01*
X0357942Y0256562D01*
X0358074Y0256668D01*
X0358209Y0256770D01*
X0358346Y0256869D01*
X0358485Y0256965D01*
X0358627Y0257057D01*
X0358771Y0257146D01*
X0358917Y0257231D01*
X0359065Y0257312D01*
X0359215Y0257390D01*
X0359367Y0257464D01*
X0359521Y0257535D01*
X0359676Y0257602D01*
X0359833Y0257664D01*
X0359992Y0257723D01*
X0360152Y0257778D01*
X0360313Y0257829D01*
X0360475Y0257876D01*
X0360639Y0257920D01*
X0360803Y0257959D01*
X0360969Y0257994D01*
X0361135Y0258025D01*
X0361302Y0258051D01*
X0361470Y0258074D01*
X0361638Y0258093D01*
X0361806Y0258107D01*
X0361975Y0258118D01*
X0362144Y0258124D01*
X0362313Y0258126D01*
X0362482Y0258124D01*
X0362651Y0258118D01*
X0362820Y0258107D01*
X0362988Y0258093D01*
X0363156Y0258074D01*
X0363324Y0258051D01*
X0363491Y0258025D01*
X0363657Y0257994D01*
X0363823Y0257959D01*
X0363987Y0257920D01*
X0364151Y0257876D01*
X0364313Y0257829D01*
X0364474Y0257778D01*
X0364634Y0257723D01*
X0364793Y0257664D01*
X0364950Y0257602D01*
X0365105Y0257535D01*
X0365259Y0257464D01*
X0365411Y0257390D01*
X0365561Y0257312D01*
X0365709Y0257231D01*
X0365855Y0257146D01*
X0365999Y0257057D01*
X0366141Y0256965D01*
X0366280Y0256869D01*
X0366417Y0256770D01*
X0366552Y0256668D01*
X0366684Y0256562D01*
X0366813Y0256453D01*
X0366940Y0256341D01*
X0367064Y0256226D01*
X0367185Y0256108D01*
X0367303Y0255987D01*
X0367418Y0255863D01*
X0367530Y0255736D01*
X0367639Y0255607D01*
X0367745Y0255475D01*
X0367847Y0255340D01*
X0367946Y0255203D01*
X0368042Y0255064D01*
X0368134Y0254922D01*
X0368223Y0254778D01*
X0368308Y0254632D01*
X0368389Y0254484D01*
X0368467Y0254334D01*
X0368541Y0254182D01*
X0368612Y0254028D01*
X0368679Y0253873D01*
X0368741Y0253716D01*
X0368800Y0253557D01*
X0368855Y0253397D01*
X0368906Y0253236D01*
X0368953Y0253074D01*
X0368997Y0252910D01*
X0369036Y0252746D01*
X0369071Y0252580D01*
X0369102Y0252414D01*
X0369128Y0252247D01*
X0369151Y0252079D01*
X0369170Y0251911D01*
X0369184Y0251743D01*
X0369195Y0251574D01*
X0369201Y0251405D01*
X0369203Y0251236D01*
X0369201Y0251067D01*
X0369195Y0250898D01*
X0369184Y0250729D01*
X0369170Y0250561D01*
X0369151Y0250393D01*
X0369128Y0250225D01*
X0369102Y0250058D01*
X0369071Y0249892D01*
X0369036Y0249726D01*
X0368997Y0249562D01*
X0368953Y0249398D01*
X0368906Y0249236D01*
X0368855Y0249075D01*
X0368800Y0248915D01*
X0368741Y0248756D01*
X0368679Y0248599D01*
X0368612Y0248444D01*
X0368541Y0248290D01*
X0368467Y0248138D01*
X0368389Y0247988D01*
X0368308Y0247840D01*
X0368223Y0247694D01*
X0368134Y0247550D01*
X0368042Y0247408D01*
X0367946Y0247269D01*
X0367847Y0247132D01*
X0367745Y0246997D01*
X0367639Y0246865D01*
X0367530Y0246736D01*
X0367418Y0246609D01*
X0367303Y0246485D01*
X0367185Y0246364D01*
X0367064Y0246246D01*
X0366940Y0246131D01*
X0366813Y0246019D01*
X0366684Y0245910D01*
X0366552Y0245804D01*
X0366417Y0245702D01*
X0366280Y0245603D01*
X0366141Y0245507D01*
X0365999Y0245415D01*
X0365855Y0245326D01*
X0365709Y0245241D01*
X0365561Y0245160D01*
X0365411Y0245082D01*
X0365259Y0245008D01*
X0365105Y0244937D01*
X0364950Y0244870D01*
X0364793Y0244808D01*
X0364634Y0244749D01*
X0364474Y0244694D01*
X0364313Y0244643D01*
X0364151Y0244596D01*
X0363987Y0244552D01*
X0363823Y0244513D01*
X0363657Y0244478D01*
X0363491Y0244447D01*
X0363324Y0244421D01*
X0363156Y0244398D01*
X0362988Y0244379D01*
X0362820Y0244365D01*
X0362651Y0244354D01*
X0362482Y0244348D01*
X0362313Y0244346D01*
X0362144Y0244348D01*
X0361975Y0244354D01*
X0361806Y0244365D01*
X0361638Y0244379D01*
X0361470Y0244398D01*
X0361302Y0244421D01*
X0361135Y0244447D01*
X0360969Y0244478D01*
X0360803Y0244513D01*
X0360639Y0244552D01*
X0360475Y0244596D01*
X0360313Y0244643D01*
X0360152Y0244694D01*
X0359992Y0244749D01*
X0359833Y0244808D01*
X0359676Y0244870D01*
X0359521Y0244937D01*
X0359367Y0245008D01*
X0359215Y0245082D01*
X0359065Y0245160D01*
X0358917Y0245241D01*
X0358771Y0245326D01*
X0358627Y0245415D01*
X0358485Y0245507D01*
X0358346Y0245603D01*
X0358209Y0245702D01*
X0358074Y0245804D01*
X0357942Y0245910D01*
X0357813Y0246019D01*
X0357686Y0246131D01*
X0357562Y0246246D01*
X0357441Y0246364D01*
X0357323Y0246485D01*
X0357208Y0246609D01*
X0357096Y0246736D01*
X0356987Y0246865D01*
X0356881Y0246997D01*
X0356779Y0247132D01*
X0356680Y0247269D01*
X0356584Y0247408D01*
X0356492Y0247550D01*
X0356403Y0247694D01*
X0356318Y0247840D01*
X0356237Y0247988D01*
X0356159Y0248138D01*
X0356085Y0248290D01*
X0356014Y0248444D01*
X0355947Y0248599D01*
X0355885Y0248756D01*
X0355826Y0248915D01*
X0355771Y0249075D01*
X0355720Y0249236D01*
X0355673Y0249398D01*
X0355629Y0249562D01*
X0355590Y0249726D01*
X0355555Y0249892D01*
X0355524Y0250058D01*
X0355498Y0250225D01*
X0355475Y0250393D01*
X0355456Y0250561D01*
X0355442Y0250729D01*
X0355431Y0250898D01*
X0355425Y0251067D01*
X0355423Y0251236D01*
X0474653Y0088560D02*
X0474655Y0088599D01*
X0474661Y0088638D01*
X0474671Y0088676D01*
X0474684Y0088713D01*
X0474701Y0088748D01*
X0474721Y0088782D01*
X0474745Y0088813D01*
X0474772Y0088842D01*
X0474801Y0088868D01*
X0474833Y0088891D01*
X0474867Y0088911D01*
X0474903Y0088927D01*
X0474940Y0088939D01*
X0474979Y0088948D01*
X0475018Y0088953D01*
X0475057Y0088954D01*
X0475096Y0088951D01*
X0475135Y0088944D01*
X0475172Y0088933D01*
X0475209Y0088919D01*
X0475244Y0088901D01*
X0475277Y0088880D01*
X0475308Y0088855D01*
X0475336Y0088828D01*
X0475361Y0088798D01*
X0475383Y0088765D01*
X0475402Y0088731D01*
X0475417Y0088695D01*
X0475429Y0088657D01*
X0475437Y0088619D01*
X0475441Y0088580D01*
X0475441Y0088540D01*
X0475437Y0088501D01*
X0475429Y0088463D01*
X0475417Y0088425D01*
X0475402Y0088389D01*
X0475383Y0088355D01*
X0475361Y0088322D01*
X0475336Y0088292D01*
X0475308Y0088265D01*
X0475277Y0088240D01*
X0475244Y0088219D01*
X0475209Y0088201D01*
X0475172Y0088187D01*
X0475135Y0088176D01*
X0475096Y0088169D01*
X0475057Y0088166D01*
X0475018Y0088167D01*
X0474979Y0088172D01*
X0474940Y0088181D01*
X0474903Y0088193D01*
X0474867Y0088209D01*
X0474833Y0088229D01*
X0474801Y0088252D01*
X0474772Y0088278D01*
X0474745Y0088307D01*
X0474721Y0088338D01*
X0474701Y0088372D01*
X0474684Y0088407D01*
X0474671Y0088444D01*
X0474661Y0088482D01*
X0474655Y0088521D01*
X0474653Y0088560D01*
X0463085Y0084593D02*
X0463087Y0084632D01*
X0463093Y0084671D01*
X0463103Y0084709D01*
X0463116Y0084746D01*
X0463133Y0084781D01*
X0463153Y0084815D01*
X0463177Y0084846D01*
X0463204Y0084875D01*
X0463233Y0084901D01*
X0463265Y0084924D01*
X0463299Y0084944D01*
X0463335Y0084960D01*
X0463372Y0084972D01*
X0463411Y0084981D01*
X0463450Y0084986D01*
X0463489Y0084987D01*
X0463528Y0084984D01*
X0463567Y0084977D01*
X0463604Y0084966D01*
X0463641Y0084952D01*
X0463676Y0084934D01*
X0463709Y0084913D01*
X0463740Y0084888D01*
X0463768Y0084861D01*
X0463793Y0084831D01*
X0463815Y0084798D01*
X0463834Y0084764D01*
X0463849Y0084728D01*
X0463861Y0084690D01*
X0463869Y0084652D01*
X0463873Y0084613D01*
X0463873Y0084573D01*
X0463869Y0084534D01*
X0463861Y0084496D01*
X0463849Y0084458D01*
X0463834Y0084422D01*
X0463815Y0084388D01*
X0463793Y0084355D01*
X0463768Y0084325D01*
X0463740Y0084298D01*
X0463709Y0084273D01*
X0463676Y0084252D01*
X0463641Y0084234D01*
X0463604Y0084220D01*
X0463567Y0084209D01*
X0463528Y0084202D01*
X0463489Y0084199D01*
X0463450Y0084200D01*
X0463411Y0084205D01*
X0463372Y0084214D01*
X0463335Y0084226D01*
X0463299Y0084242D01*
X0463265Y0084262D01*
X0463233Y0084285D01*
X0463204Y0084311D01*
X0463177Y0084340D01*
X0463153Y0084371D01*
X0463133Y0084405D01*
X0463116Y0084440D01*
X0463103Y0084477D01*
X0463093Y0084515D01*
X0463087Y0084554D01*
X0463085Y0084593D01*
X0086718Y0068126D02*
X0086720Y0068165D01*
X0086726Y0068204D01*
X0086736Y0068242D01*
X0086749Y0068279D01*
X0086766Y0068314D01*
X0086786Y0068348D01*
X0086810Y0068379D01*
X0086837Y0068408D01*
X0086866Y0068434D01*
X0086898Y0068457D01*
X0086932Y0068477D01*
X0086968Y0068493D01*
X0087005Y0068505D01*
X0087044Y0068514D01*
X0087083Y0068519D01*
X0087122Y0068520D01*
X0087161Y0068517D01*
X0087200Y0068510D01*
X0087237Y0068499D01*
X0087274Y0068485D01*
X0087309Y0068467D01*
X0087342Y0068446D01*
X0087373Y0068421D01*
X0087401Y0068394D01*
X0087426Y0068364D01*
X0087448Y0068331D01*
X0087467Y0068297D01*
X0087482Y0068261D01*
X0087494Y0068223D01*
X0087502Y0068185D01*
X0087506Y0068146D01*
X0087506Y0068106D01*
X0087502Y0068067D01*
X0087494Y0068029D01*
X0087482Y0067991D01*
X0087467Y0067955D01*
X0087448Y0067921D01*
X0087426Y0067888D01*
X0087401Y0067858D01*
X0087373Y0067831D01*
X0087342Y0067806D01*
X0087309Y0067785D01*
X0087274Y0067767D01*
X0087237Y0067753D01*
X0087200Y0067742D01*
X0087161Y0067735D01*
X0087122Y0067732D01*
X0087083Y0067733D01*
X0087044Y0067738D01*
X0087005Y0067747D01*
X0086968Y0067759D01*
X0086932Y0067775D01*
X0086898Y0067795D01*
X0086866Y0067818D01*
X0086837Y0067844D01*
X0086810Y0067873D01*
X0086786Y0067904D01*
X0086766Y0067938D01*
X0086749Y0067973D01*
X0086736Y0068010D01*
X0086726Y0068048D01*
X0086720Y0068087D01*
X0086718Y0068126D01*
X0083503Y0079777D02*
X0083505Y0079816D01*
X0083511Y0079855D01*
X0083521Y0079893D01*
X0083534Y0079930D01*
X0083551Y0079965D01*
X0083571Y0079999D01*
X0083595Y0080030D01*
X0083622Y0080059D01*
X0083651Y0080085D01*
X0083683Y0080108D01*
X0083717Y0080128D01*
X0083753Y0080144D01*
X0083790Y0080156D01*
X0083829Y0080165D01*
X0083868Y0080170D01*
X0083907Y0080171D01*
X0083946Y0080168D01*
X0083985Y0080161D01*
X0084022Y0080150D01*
X0084059Y0080136D01*
X0084094Y0080118D01*
X0084127Y0080097D01*
X0084158Y0080072D01*
X0084186Y0080045D01*
X0084211Y0080015D01*
X0084233Y0079982D01*
X0084252Y0079948D01*
X0084267Y0079912D01*
X0084279Y0079874D01*
X0084287Y0079836D01*
X0084291Y0079797D01*
X0084291Y0079757D01*
X0084287Y0079718D01*
X0084279Y0079680D01*
X0084267Y0079642D01*
X0084252Y0079606D01*
X0084233Y0079572D01*
X0084211Y0079539D01*
X0084186Y0079509D01*
X0084158Y0079482D01*
X0084127Y0079457D01*
X0084094Y0079436D01*
X0084059Y0079418D01*
X0084022Y0079404D01*
X0083985Y0079393D01*
X0083946Y0079386D01*
X0083907Y0079383D01*
X0083868Y0079384D01*
X0083829Y0079389D01*
X0083790Y0079398D01*
X0083753Y0079410D01*
X0083717Y0079426D01*
X0083683Y0079446D01*
X0083651Y0079469D01*
X0083622Y0079495D01*
X0083595Y0079524D01*
X0083571Y0079555D01*
X0083551Y0079589D01*
X0083534Y0079624D01*
X0083521Y0079661D01*
X0083511Y0079699D01*
X0083505Y0079738D01*
X0083503Y0079777D01*
X0459661Y0465846D02*
X0459663Y0465885D01*
X0459669Y0465924D01*
X0459679Y0465962D01*
X0459692Y0465999D01*
X0459709Y0466034D01*
X0459729Y0466068D01*
X0459753Y0466099D01*
X0459780Y0466128D01*
X0459809Y0466154D01*
X0459841Y0466177D01*
X0459875Y0466197D01*
X0459911Y0466213D01*
X0459948Y0466225D01*
X0459987Y0466234D01*
X0460026Y0466239D01*
X0460065Y0466240D01*
X0460104Y0466237D01*
X0460143Y0466230D01*
X0460180Y0466219D01*
X0460217Y0466205D01*
X0460252Y0466187D01*
X0460285Y0466166D01*
X0460316Y0466141D01*
X0460344Y0466114D01*
X0460369Y0466084D01*
X0460391Y0466051D01*
X0460410Y0466017D01*
X0460425Y0465981D01*
X0460437Y0465943D01*
X0460445Y0465905D01*
X0460449Y0465866D01*
X0460449Y0465826D01*
X0460445Y0465787D01*
X0460437Y0465749D01*
X0460425Y0465711D01*
X0460410Y0465675D01*
X0460391Y0465641D01*
X0460369Y0465608D01*
X0460344Y0465578D01*
X0460316Y0465551D01*
X0460285Y0465526D01*
X0460252Y0465505D01*
X0460217Y0465487D01*
X0460180Y0465473D01*
X0460143Y0465462D01*
X0460104Y0465455D01*
X0460065Y0465452D01*
X0460026Y0465453D01*
X0459987Y0465458D01*
X0459948Y0465467D01*
X0459911Y0465479D01*
X0459875Y0465495D01*
X0459841Y0465515D01*
X0459809Y0465538D01*
X0459780Y0465564D01*
X0459753Y0465593D01*
X0459729Y0465624D01*
X0459709Y0465658D01*
X0459692Y0465693D01*
X0459679Y0465730D01*
X0459669Y0465768D01*
X0459663Y0465807D01*
X0459661Y0465846D01*
X0456335Y0476884D02*
X0456337Y0476923D01*
X0456343Y0476962D01*
X0456353Y0477000D01*
X0456366Y0477037D01*
X0456383Y0477072D01*
X0456403Y0477106D01*
X0456427Y0477137D01*
X0456454Y0477166D01*
X0456483Y0477192D01*
X0456515Y0477215D01*
X0456549Y0477235D01*
X0456585Y0477251D01*
X0456622Y0477263D01*
X0456661Y0477272D01*
X0456700Y0477277D01*
X0456739Y0477278D01*
X0456778Y0477275D01*
X0456817Y0477268D01*
X0456854Y0477257D01*
X0456891Y0477243D01*
X0456926Y0477225D01*
X0456959Y0477204D01*
X0456990Y0477179D01*
X0457018Y0477152D01*
X0457043Y0477122D01*
X0457065Y0477089D01*
X0457084Y0477055D01*
X0457099Y0477019D01*
X0457111Y0476981D01*
X0457119Y0476943D01*
X0457123Y0476904D01*
X0457123Y0476864D01*
X0457119Y0476825D01*
X0457111Y0476787D01*
X0457099Y0476749D01*
X0457084Y0476713D01*
X0457065Y0476679D01*
X0457043Y0476646D01*
X0457018Y0476616D01*
X0456990Y0476589D01*
X0456959Y0476564D01*
X0456926Y0476543D01*
X0456891Y0476525D01*
X0456854Y0476511D01*
X0456817Y0476500D01*
X0456778Y0476493D01*
X0456739Y0476490D01*
X0456700Y0476491D01*
X0456661Y0476496D01*
X0456622Y0476505D01*
X0456585Y0476517D01*
X0456549Y0476533D01*
X0456515Y0476553D01*
X0456483Y0476576D01*
X0456454Y0476602D01*
X0456427Y0476631D01*
X0456403Y0476662D01*
X0456383Y0476696D01*
X0456366Y0476731D01*
X0456353Y0476768D01*
X0456343Y0476806D01*
X0456337Y0476845D01*
X0456335Y0476884D01*
D21*
X0379243Y0265212D02*
X0379245Y0265268D01*
X0379251Y0265323D01*
X0379261Y0265377D01*
X0379274Y0265431D01*
X0379292Y0265484D01*
X0379313Y0265535D01*
X0379337Y0265585D01*
X0379365Y0265633D01*
X0379397Y0265679D01*
X0379431Y0265723D01*
X0379469Y0265764D01*
X0379509Y0265802D01*
X0379552Y0265837D01*
X0379597Y0265869D01*
X0379645Y0265898D01*
X0379694Y0265924D01*
X0379745Y0265946D01*
X0379797Y0265964D01*
X0379851Y0265978D01*
X0379906Y0265989D01*
X0379961Y0265996D01*
X0380016Y0265999D01*
X0380072Y0265998D01*
X0380127Y0265993D01*
X0380182Y0265984D01*
X0380236Y0265972D01*
X0380289Y0265955D01*
X0380341Y0265935D01*
X0380391Y0265911D01*
X0380439Y0265884D01*
X0380486Y0265854D01*
X0380530Y0265820D01*
X0380572Y0265783D01*
X0380610Y0265743D01*
X0380647Y0265701D01*
X0380680Y0265656D01*
X0380709Y0265610D01*
X0380736Y0265561D01*
X0380758Y0265510D01*
X0380778Y0265458D01*
X0380793Y0265404D01*
X0380805Y0265350D01*
X0380813Y0265295D01*
X0380817Y0265240D01*
X0380817Y0265184D01*
X0380813Y0265129D01*
X0380805Y0265074D01*
X0380793Y0265020D01*
X0380778Y0264966D01*
X0380758Y0264914D01*
X0380736Y0264863D01*
X0380709Y0264814D01*
X0380680Y0264768D01*
X0380647Y0264723D01*
X0380610Y0264681D01*
X0380572Y0264641D01*
X0380530Y0264604D01*
X0380486Y0264570D01*
X0380439Y0264540D01*
X0380391Y0264513D01*
X0380341Y0264489D01*
X0380289Y0264469D01*
X0380236Y0264452D01*
X0380182Y0264440D01*
X0380127Y0264431D01*
X0380072Y0264426D01*
X0380016Y0264425D01*
X0379961Y0264428D01*
X0379906Y0264435D01*
X0379851Y0264446D01*
X0379797Y0264460D01*
X0379745Y0264478D01*
X0379694Y0264500D01*
X0379645Y0264526D01*
X0379597Y0264555D01*
X0379552Y0264587D01*
X0379509Y0264622D01*
X0379469Y0264660D01*
X0379431Y0264701D01*
X0379397Y0264745D01*
X0379365Y0264791D01*
X0379337Y0264839D01*
X0379313Y0264889D01*
X0379292Y0264940D01*
X0379274Y0264993D01*
X0379261Y0265047D01*
X0379251Y0265101D01*
X0379245Y0265156D01*
X0379243Y0265212D01*
M02*
