%
M48
M72
T01C0.01500
T02C0.02362
T03C0.03937
T04C0.04000
T05C0.04331
T06C0.05512
%
T01
X223257Y206524
X222272Y247863
X207509Y261643
X123847Y364005
X83493Y347272
X248847Y371879
X280343Y370894
X288217Y376800
X315776Y375816
X319713Y390580
X325619Y390580
X325619Y405343
X320698Y413217
X314792Y414202
X314792Y432902
X301997Y434871
X297469Y431328
X292154Y435855
X296091Y439595
X291170Y441761
X287627Y429753
X280343Y429950
X274438Y428965
X286052Y420107
X294123Y409280
X258887Y426013
X276997Y444910
X306918Y451603
X322666Y452587
X339398Y437824
X338414Y419123
X346288Y406328
X344123Y396091
X339398Y360068
X337430Y355146
X327587Y362036
X333493Y338414
X349241Y340383
X364005Y355146
X363020Y362036
X372863Y311839
X407312Y280343
X319713Y298060
X365973Y120894
X358099Y84477
X621879Y358099
X565776Y364989
X510658Y418139
X545107Y453572
X448650Y546091
X363020Y580540
X347272Y622863
X353965Y484674
T02
X270894Y460461
X247272Y488611
X252587Y494713
X256721Y501013
X259674Y508099
X252784Y513808
X246091Y519517
X238808Y520894
X232509Y514989
X200422Y483887
X193729Y477784
X198847Y471879
X204162Y466367
X211249Y463611
X219123Y464989
X226603Y470304
X233099Y476013
X209674Y398650
T03
X311535Y392852
X318606Y399923
T04
X419359Y237115
X419359Y227115
X429359Y227115
X429359Y237115
X439359Y237115
X439359Y227115
X486871Y180336
X479800Y173265
X472729Y166194
X465658Y159123
X493943Y187407
X501014Y194478
X512469Y204556
X519540Y211627
X526611Y218698
X533682Y225769
X540754Y232840
X547825Y239911
T05
X194382Y191895
X201453Y184824
X208524Y177753
X215595Y170682
X222666Y163611
X187311Y198966
X180240Y206037
X173169Y213108
X166098Y220180
X159027Y227251
X292272Y383611
X299344Y390682
T06
X298186Y365278
X339109Y406201
X406201Y339109
X365278Y298186
M30
