G75*
%MOIN*%
%OFA0B0*%
%FSLAX25Y25*%
%IPPOS*%
%LPD*%
%AMOC8*
5,1,8,0,0,1.08239X$1,22.5*
%
%ADD10C,0.01600*%
%ADD11C,0.00600*%
%ADD12C,0.00300*%
%ADD13C,0.00500*%
%ADD14C,0.00400*%
%ADD15C,0.00000*%
%ADD16C,0.00472*%
%ADD17C,0.00100*%
%ADD18C,0.00800*%
%ADD19C,0.00079*%
%ADD20C,0.00787*%
%ADD21C,0.01575*%
D10*
X0143532Y0230146D02*
X0230146Y0143532D01*
X0320698Y0143532D01*
X0320698Y0001800D01*
X0349044Y0001800D01*
X0349044Y0017548D01*
X0355343Y0017548D02*
X0355343Y0001800D01*
X0383690Y0001800D01*
X0383690Y0143532D01*
X0474241Y0143532D01*
X0560855Y0230146D01*
X0560855Y0320698D01*
X0702587Y0320698D01*
X0702587Y0349044D01*
X0686839Y0349044D01*
X0686839Y0355343D02*
X0702587Y0355343D01*
X0702587Y0383690D01*
X0560855Y0383690D01*
X0560855Y0474241D01*
X0474241Y0560855D01*
X0383690Y0560855D01*
X0383690Y0702587D01*
X0355343Y0702587D01*
X0355343Y0686839D01*
X0349044Y0686839D02*
X0349044Y0702587D01*
X0320698Y0702587D01*
X0320698Y0560855D01*
X0230146Y0560855D01*
X0143532Y0474241D01*
X0143532Y0383690D01*
X0001800Y0383690D01*
X0001800Y0355343D01*
X0017548Y0355343D01*
X0017548Y0349044D02*
X0001800Y0349044D01*
X0001800Y0320698D01*
X0143532Y0320698D01*
X0143532Y0230146D01*
X0017547Y0349044D02*
X0017629Y0348649D01*
X0017721Y0348255D01*
X0017822Y0347864D01*
X0017933Y0347475D01*
X0018053Y0347090D01*
X0018183Y0346707D01*
X0018322Y0346328D01*
X0018470Y0345952D01*
X0018627Y0345580D01*
X0018794Y0345211D01*
X0018969Y0344847D01*
X0019153Y0344488D01*
X0019346Y0344133D01*
X0019548Y0343783D01*
X0019758Y0343438D01*
X0019976Y0343098D01*
X0020203Y0342763D01*
X0020438Y0342434D01*
X0020681Y0342112D01*
X0020932Y0341795D01*
X0021190Y0341484D01*
X0021456Y0341180D01*
X0021729Y0340882D01*
X0022010Y0340591D01*
X0022297Y0340307D01*
X0022592Y0340031D01*
X0022893Y0339761D01*
X0023200Y0339499D01*
X0023514Y0339245D01*
X0023834Y0338998D01*
X0024160Y0338759D01*
X0024492Y0338528D01*
X0024829Y0338306D01*
X0025172Y0338092D01*
X0025519Y0337886D01*
X0025872Y0337689D01*
X0026229Y0337500D01*
X0026591Y0337321D01*
X0026957Y0337150D01*
X0027328Y0336988D01*
X0027702Y0336835D01*
X0028079Y0336692D01*
X0028461Y0336558D01*
X0028845Y0336433D01*
X0029232Y0336318D01*
X0029622Y0336212D01*
X0030014Y0336115D01*
X0030409Y0336029D01*
X0030806Y0335952D01*
X0031204Y0335885D01*
X0031604Y0335827D01*
X0032005Y0335780D01*
X0032408Y0335742D01*
X0032811Y0335714D01*
X0033214Y0335696D01*
X0033618Y0335688D01*
X0034022Y0335689D01*
X0034426Y0335701D01*
X0034830Y0335722D01*
X0035233Y0335754D01*
X0035634Y0335795D01*
X0036035Y0335846D01*
X0036435Y0335907D01*
X0036833Y0335977D01*
X0037229Y0336057D01*
X0037622Y0336147D01*
X0038014Y0336247D01*
X0038403Y0336356D01*
X0038789Y0336475D01*
X0039173Y0336603D01*
X0039553Y0336740D01*
X0039929Y0336887D01*
X0040302Y0337043D01*
X0040671Y0337207D01*
X0041036Y0337381D01*
X0041396Y0337564D01*
X0041752Y0337755D01*
X0042103Y0337956D01*
X0042449Y0338164D01*
X0042789Y0338381D01*
X0043125Y0338607D01*
X0043455Y0338840D01*
X0043778Y0339082D01*
X0044096Y0339331D01*
X0044408Y0339588D01*
X0044713Y0339853D01*
X0045012Y0340125D01*
X0045304Y0340404D01*
X0045589Y0340690D01*
X0045867Y0340984D01*
X0046138Y0341283D01*
X0046401Y0341590D01*
X0046657Y0341903D01*
X0046905Y0342222D01*
X0047145Y0342547D01*
X0047377Y0342877D01*
X0047601Y0343214D01*
X0047817Y0343555D01*
X0048024Y0343902D01*
X0048223Y0344254D01*
X0048413Y0344611D01*
X0048594Y0344972D01*
X0048767Y0345337D01*
X0048930Y0345707D01*
X0049084Y0346080D01*
X0049229Y0346457D01*
X0049365Y0346838D01*
X0049491Y0347222D01*
X0049608Y0347608D01*
X0049716Y0347998D01*
X0049814Y0348390D01*
X0049902Y0348784D01*
X0049981Y0349181D01*
X0050050Y0349579D01*
X0050109Y0349978D01*
X0050158Y0350379D01*
X0050197Y0350782D01*
X0050227Y0351184D01*
X0050247Y0351588D01*
X0050257Y0351992D01*
X0050257Y0352396D01*
X0050247Y0352800D01*
X0050227Y0353204D01*
X0050197Y0353606D01*
X0050158Y0354009D01*
X0050109Y0354410D01*
X0050050Y0354809D01*
X0049981Y0355207D01*
X0049902Y0355604D01*
X0049814Y0355998D01*
X0049716Y0356390D01*
X0049608Y0356780D01*
X0049491Y0357166D01*
X0049365Y0357550D01*
X0049229Y0357931D01*
X0049084Y0358308D01*
X0048930Y0358681D01*
X0048767Y0359051D01*
X0048594Y0359416D01*
X0048413Y0359777D01*
X0048223Y0360134D01*
X0048024Y0360486D01*
X0047817Y0360833D01*
X0047601Y0361174D01*
X0047377Y0361511D01*
X0047145Y0361841D01*
X0046905Y0362166D01*
X0046657Y0362485D01*
X0046401Y0362798D01*
X0046138Y0363105D01*
X0045867Y0363404D01*
X0045589Y0363698D01*
X0045304Y0363984D01*
X0045012Y0364263D01*
X0044713Y0364535D01*
X0044408Y0364800D01*
X0044096Y0365057D01*
X0043778Y0365306D01*
X0043455Y0365548D01*
X0043125Y0365781D01*
X0042789Y0366007D01*
X0042449Y0366224D01*
X0042103Y0366432D01*
X0041752Y0366633D01*
X0041396Y0366824D01*
X0041036Y0367007D01*
X0040671Y0367181D01*
X0040302Y0367345D01*
X0039929Y0367501D01*
X0039553Y0367648D01*
X0039173Y0367785D01*
X0038789Y0367913D01*
X0038403Y0368032D01*
X0038014Y0368141D01*
X0037622Y0368241D01*
X0037229Y0368331D01*
X0036833Y0368411D01*
X0036435Y0368481D01*
X0036035Y0368542D01*
X0035634Y0368593D01*
X0035233Y0368634D01*
X0034830Y0368666D01*
X0034426Y0368687D01*
X0034022Y0368699D01*
X0033618Y0368700D01*
X0033214Y0368692D01*
X0032811Y0368674D01*
X0032408Y0368646D01*
X0032005Y0368608D01*
X0031604Y0368561D01*
X0031204Y0368503D01*
X0030806Y0368436D01*
X0030409Y0368359D01*
X0030014Y0368273D01*
X0029622Y0368176D01*
X0029232Y0368070D01*
X0028845Y0367955D01*
X0028461Y0367830D01*
X0028079Y0367696D01*
X0027702Y0367553D01*
X0027328Y0367400D01*
X0026957Y0367238D01*
X0026591Y0367067D01*
X0026229Y0366888D01*
X0025872Y0366699D01*
X0025519Y0366502D01*
X0025172Y0366296D01*
X0024829Y0366082D01*
X0024492Y0365860D01*
X0024160Y0365629D01*
X0023834Y0365390D01*
X0023514Y0365143D01*
X0023200Y0364889D01*
X0022893Y0364627D01*
X0022592Y0364357D01*
X0022297Y0364081D01*
X0022010Y0363797D01*
X0021729Y0363506D01*
X0021456Y0363208D01*
X0021190Y0362904D01*
X0020932Y0362593D01*
X0020681Y0362276D01*
X0020438Y0361954D01*
X0020203Y0361625D01*
X0019976Y0361290D01*
X0019758Y0360950D01*
X0019548Y0360605D01*
X0019346Y0360255D01*
X0019153Y0359900D01*
X0018969Y0359541D01*
X0018794Y0359177D01*
X0018627Y0358808D01*
X0018470Y0358436D01*
X0018322Y0358060D01*
X0018183Y0357681D01*
X0018053Y0357298D01*
X0017933Y0356913D01*
X0017822Y0356524D01*
X0017721Y0356133D01*
X0017629Y0355739D01*
X0017547Y0355344D01*
X0349044Y0686840D02*
X0348649Y0686758D01*
X0348255Y0686666D01*
X0347864Y0686565D01*
X0347475Y0686454D01*
X0347090Y0686334D01*
X0346707Y0686204D01*
X0346328Y0686065D01*
X0345952Y0685917D01*
X0345580Y0685760D01*
X0345211Y0685593D01*
X0344847Y0685418D01*
X0344488Y0685234D01*
X0344133Y0685041D01*
X0343783Y0684839D01*
X0343438Y0684629D01*
X0343098Y0684411D01*
X0342763Y0684184D01*
X0342434Y0683949D01*
X0342112Y0683706D01*
X0341795Y0683455D01*
X0341484Y0683197D01*
X0341180Y0682931D01*
X0340882Y0682658D01*
X0340591Y0682377D01*
X0340307Y0682090D01*
X0340031Y0681795D01*
X0339761Y0681494D01*
X0339499Y0681187D01*
X0339245Y0680873D01*
X0338998Y0680553D01*
X0338759Y0680227D01*
X0338528Y0679895D01*
X0338306Y0679558D01*
X0338092Y0679215D01*
X0337886Y0678868D01*
X0337689Y0678515D01*
X0337500Y0678158D01*
X0337321Y0677796D01*
X0337150Y0677430D01*
X0336988Y0677059D01*
X0336835Y0676685D01*
X0336692Y0676308D01*
X0336558Y0675926D01*
X0336433Y0675542D01*
X0336318Y0675155D01*
X0336212Y0674765D01*
X0336115Y0674373D01*
X0336029Y0673978D01*
X0335952Y0673581D01*
X0335885Y0673183D01*
X0335827Y0672783D01*
X0335780Y0672382D01*
X0335742Y0671979D01*
X0335714Y0671576D01*
X0335696Y0671173D01*
X0335688Y0670769D01*
X0335689Y0670365D01*
X0335701Y0669961D01*
X0335722Y0669557D01*
X0335754Y0669154D01*
X0335795Y0668753D01*
X0335846Y0668352D01*
X0335907Y0667952D01*
X0335977Y0667554D01*
X0336057Y0667158D01*
X0336147Y0666765D01*
X0336247Y0666373D01*
X0336356Y0665984D01*
X0336475Y0665598D01*
X0336603Y0665214D01*
X0336740Y0664834D01*
X0336887Y0664458D01*
X0337043Y0664085D01*
X0337207Y0663716D01*
X0337381Y0663351D01*
X0337564Y0662991D01*
X0337755Y0662635D01*
X0337956Y0662284D01*
X0338164Y0661938D01*
X0338381Y0661598D01*
X0338607Y0661262D01*
X0338840Y0660932D01*
X0339082Y0660609D01*
X0339331Y0660291D01*
X0339588Y0659979D01*
X0339853Y0659674D01*
X0340125Y0659375D01*
X0340404Y0659083D01*
X0340690Y0658798D01*
X0340984Y0658520D01*
X0341283Y0658249D01*
X0341590Y0657986D01*
X0341903Y0657730D01*
X0342222Y0657482D01*
X0342547Y0657242D01*
X0342877Y0657010D01*
X0343214Y0656786D01*
X0343555Y0656570D01*
X0343902Y0656363D01*
X0344254Y0656164D01*
X0344611Y0655974D01*
X0344972Y0655793D01*
X0345337Y0655620D01*
X0345707Y0655457D01*
X0346080Y0655303D01*
X0346457Y0655158D01*
X0346838Y0655022D01*
X0347222Y0654896D01*
X0347608Y0654779D01*
X0347998Y0654671D01*
X0348390Y0654573D01*
X0348784Y0654485D01*
X0349181Y0654406D01*
X0349579Y0654337D01*
X0349978Y0654278D01*
X0350379Y0654229D01*
X0350782Y0654190D01*
X0351184Y0654160D01*
X0351588Y0654140D01*
X0351992Y0654130D01*
X0352396Y0654130D01*
X0352800Y0654140D01*
X0353204Y0654160D01*
X0353606Y0654190D01*
X0354009Y0654229D01*
X0354410Y0654278D01*
X0354809Y0654337D01*
X0355207Y0654406D01*
X0355604Y0654485D01*
X0355998Y0654573D01*
X0356390Y0654671D01*
X0356780Y0654779D01*
X0357166Y0654896D01*
X0357550Y0655022D01*
X0357931Y0655158D01*
X0358308Y0655303D01*
X0358681Y0655457D01*
X0359051Y0655620D01*
X0359416Y0655793D01*
X0359777Y0655974D01*
X0360134Y0656164D01*
X0360486Y0656363D01*
X0360833Y0656570D01*
X0361174Y0656786D01*
X0361511Y0657010D01*
X0361841Y0657242D01*
X0362166Y0657482D01*
X0362485Y0657730D01*
X0362798Y0657986D01*
X0363105Y0658249D01*
X0363404Y0658520D01*
X0363698Y0658798D01*
X0363984Y0659083D01*
X0364263Y0659375D01*
X0364535Y0659674D01*
X0364800Y0659979D01*
X0365057Y0660291D01*
X0365306Y0660609D01*
X0365548Y0660932D01*
X0365781Y0661262D01*
X0366007Y0661598D01*
X0366224Y0661938D01*
X0366432Y0662284D01*
X0366633Y0662635D01*
X0366824Y0662991D01*
X0367007Y0663351D01*
X0367181Y0663716D01*
X0367345Y0664085D01*
X0367501Y0664458D01*
X0367648Y0664834D01*
X0367785Y0665214D01*
X0367913Y0665598D01*
X0368032Y0665984D01*
X0368141Y0666373D01*
X0368241Y0666765D01*
X0368331Y0667158D01*
X0368411Y0667554D01*
X0368481Y0667952D01*
X0368542Y0668352D01*
X0368593Y0668753D01*
X0368634Y0669154D01*
X0368666Y0669557D01*
X0368687Y0669961D01*
X0368699Y0670365D01*
X0368700Y0670769D01*
X0368692Y0671173D01*
X0368674Y0671576D01*
X0368646Y0671979D01*
X0368608Y0672382D01*
X0368561Y0672783D01*
X0368503Y0673183D01*
X0368436Y0673581D01*
X0368359Y0673978D01*
X0368273Y0674373D01*
X0368176Y0674765D01*
X0368070Y0675155D01*
X0367955Y0675542D01*
X0367830Y0675926D01*
X0367696Y0676308D01*
X0367553Y0676685D01*
X0367400Y0677059D01*
X0367238Y0677430D01*
X0367067Y0677796D01*
X0366888Y0678158D01*
X0366699Y0678515D01*
X0366502Y0678868D01*
X0366296Y0679215D01*
X0366082Y0679558D01*
X0365860Y0679895D01*
X0365629Y0680227D01*
X0365390Y0680553D01*
X0365143Y0680873D01*
X0364889Y0681187D01*
X0364627Y0681494D01*
X0364357Y0681795D01*
X0364081Y0682090D01*
X0363797Y0682377D01*
X0363506Y0682658D01*
X0363208Y0682931D01*
X0362904Y0683197D01*
X0362593Y0683455D01*
X0362276Y0683706D01*
X0361954Y0683949D01*
X0361625Y0684184D01*
X0361290Y0684411D01*
X0360950Y0684629D01*
X0360605Y0684839D01*
X0360255Y0685041D01*
X0359900Y0685234D01*
X0359541Y0685418D01*
X0359177Y0685593D01*
X0358808Y0685760D01*
X0358436Y0685917D01*
X0358060Y0686065D01*
X0357681Y0686204D01*
X0357298Y0686334D01*
X0356913Y0686454D01*
X0356524Y0686565D01*
X0356133Y0686666D01*
X0355739Y0686758D01*
X0355344Y0686840D01*
X0686840Y0355344D02*
X0686758Y0355739D01*
X0686666Y0356133D01*
X0686565Y0356524D01*
X0686454Y0356913D01*
X0686334Y0357298D01*
X0686204Y0357681D01*
X0686065Y0358060D01*
X0685917Y0358436D01*
X0685760Y0358808D01*
X0685593Y0359177D01*
X0685418Y0359541D01*
X0685234Y0359900D01*
X0685041Y0360255D01*
X0684839Y0360605D01*
X0684629Y0360950D01*
X0684411Y0361290D01*
X0684184Y0361625D01*
X0683949Y0361954D01*
X0683706Y0362276D01*
X0683455Y0362593D01*
X0683197Y0362904D01*
X0682931Y0363208D01*
X0682658Y0363506D01*
X0682377Y0363797D01*
X0682090Y0364081D01*
X0681795Y0364357D01*
X0681494Y0364627D01*
X0681187Y0364889D01*
X0680873Y0365143D01*
X0680553Y0365390D01*
X0680227Y0365629D01*
X0679895Y0365860D01*
X0679558Y0366082D01*
X0679215Y0366296D01*
X0678868Y0366502D01*
X0678515Y0366699D01*
X0678158Y0366888D01*
X0677796Y0367067D01*
X0677430Y0367238D01*
X0677059Y0367400D01*
X0676685Y0367553D01*
X0676308Y0367696D01*
X0675926Y0367830D01*
X0675542Y0367955D01*
X0675155Y0368070D01*
X0674765Y0368176D01*
X0674373Y0368273D01*
X0673978Y0368359D01*
X0673581Y0368436D01*
X0673183Y0368503D01*
X0672783Y0368561D01*
X0672382Y0368608D01*
X0671979Y0368646D01*
X0671576Y0368674D01*
X0671173Y0368692D01*
X0670769Y0368700D01*
X0670365Y0368699D01*
X0669961Y0368687D01*
X0669557Y0368666D01*
X0669154Y0368634D01*
X0668753Y0368593D01*
X0668352Y0368542D01*
X0667952Y0368481D01*
X0667554Y0368411D01*
X0667158Y0368331D01*
X0666765Y0368241D01*
X0666373Y0368141D01*
X0665984Y0368032D01*
X0665598Y0367913D01*
X0665214Y0367785D01*
X0664834Y0367648D01*
X0664458Y0367501D01*
X0664085Y0367345D01*
X0663716Y0367181D01*
X0663351Y0367007D01*
X0662991Y0366824D01*
X0662635Y0366633D01*
X0662284Y0366432D01*
X0661938Y0366224D01*
X0661598Y0366007D01*
X0661262Y0365781D01*
X0660932Y0365548D01*
X0660609Y0365306D01*
X0660291Y0365057D01*
X0659979Y0364800D01*
X0659674Y0364535D01*
X0659375Y0364263D01*
X0659083Y0363984D01*
X0658798Y0363698D01*
X0658520Y0363404D01*
X0658249Y0363105D01*
X0657986Y0362798D01*
X0657730Y0362485D01*
X0657482Y0362166D01*
X0657242Y0361841D01*
X0657010Y0361511D01*
X0656786Y0361174D01*
X0656570Y0360833D01*
X0656363Y0360486D01*
X0656164Y0360134D01*
X0655974Y0359777D01*
X0655793Y0359416D01*
X0655620Y0359051D01*
X0655457Y0358681D01*
X0655303Y0358308D01*
X0655158Y0357931D01*
X0655022Y0357550D01*
X0654896Y0357166D01*
X0654779Y0356780D01*
X0654671Y0356390D01*
X0654573Y0355998D01*
X0654485Y0355604D01*
X0654406Y0355207D01*
X0654337Y0354809D01*
X0654278Y0354410D01*
X0654229Y0354009D01*
X0654190Y0353606D01*
X0654160Y0353204D01*
X0654140Y0352800D01*
X0654130Y0352396D01*
X0654130Y0351992D01*
X0654140Y0351588D01*
X0654160Y0351184D01*
X0654190Y0350782D01*
X0654229Y0350379D01*
X0654278Y0349978D01*
X0654337Y0349579D01*
X0654406Y0349181D01*
X0654485Y0348784D01*
X0654573Y0348390D01*
X0654671Y0347998D01*
X0654779Y0347608D01*
X0654896Y0347222D01*
X0655022Y0346838D01*
X0655158Y0346457D01*
X0655303Y0346080D01*
X0655457Y0345707D01*
X0655620Y0345337D01*
X0655793Y0344972D01*
X0655974Y0344611D01*
X0656164Y0344254D01*
X0656363Y0343902D01*
X0656570Y0343555D01*
X0656786Y0343214D01*
X0657010Y0342877D01*
X0657242Y0342547D01*
X0657482Y0342222D01*
X0657730Y0341903D01*
X0657986Y0341590D01*
X0658249Y0341283D01*
X0658520Y0340984D01*
X0658798Y0340690D01*
X0659083Y0340404D01*
X0659375Y0340125D01*
X0659674Y0339853D01*
X0659979Y0339588D01*
X0660291Y0339331D01*
X0660609Y0339082D01*
X0660932Y0338840D01*
X0661262Y0338607D01*
X0661598Y0338381D01*
X0661938Y0338164D01*
X0662284Y0337956D01*
X0662635Y0337755D01*
X0662991Y0337564D01*
X0663351Y0337381D01*
X0663716Y0337207D01*
X0664085Y0337043D01*
X0664458Y0336887D01*
X0664834Y0336740D01*
X0665214Y0336603D01*
X0665598Y0336475D01*
X0665984Y0336356D01*
X0666373Y0336247D01*
X0666765Y0336147D01*
X0667158Y0336057D01*
X0667554Y0335977D01*
X0667952Y0335907D01*
X0668352Y0335846D01*
X0668753Y0335795D01*
X0669154Y0335754D01*
X0669557Y0335722D01*
X0669961Y0335701D01*
X0670365Y0335689D01*
X0670769Y0335688D01*
X0671173Y0335696D01*
X0671576Y0335714D01*
X0671979Y0335742D01*
X0672382Y0335780D01*
X0672783Y0335827D01*
X0673183Y0335885D01*
X0673581Y0335952D01*
X0673978Y0336029D01*
X0674373Y0336115D01*
X0674765Y0336212D01*
X0675155Y0336318D01*
X0675542Y0336433D01*
X0675926Y0336558D01*
X0676308Y0336692D01*
X0676685Y0336835D01*
X0677059Y0336988D01*
X0677430Y0337150D01*
X0677796Y0337321D01*
X0678158Y0337500D01*
X0678515Y0337689D01*
X0678868Y0337886D01*
X0679215Y0338092D01*
X0679558Y0338306D01*
X0679895Y0338528D01*
X0680227Y0338759D01*
X0680553Y0338998D01*
X0680873Y0339245D01*
X0681187Y0339499D01*
X0681494Y0339761D01*
X0681795Y0340031D01*
X0682090Y0340307D01*
X0682377Y0340591D01*
X0682658Y0340882D01*
X0682931Y0341180D01*
X0683197Y0341484D01*
X0683455Y0341795D01*
X0683706Y0342112D01*
X0683949Y0342434D01*
X0684184Y0342763D01*
X0684411Y0343098D01*
X0684629Y0343438D01*
X0684839Y0343783D01*
X0685041Y0344133D01*
X0685234Y0344488D01*
X0685418Y0344847D01*
X0685593Y0345211D01*
X0685760Y0345580D01*
X0685917Y0345952D01*
X0686065Y0346328D01*
X0686204Y0346707D01*
X0686334Y0347090D01*
X0686454Y0347475D01*
X0686565Y0347864D01*
X0686666Y0348255D01*
X0686758Y0348649D01*
X0686840Y0349044D01*
X0355344Y0017547D02*
X0355739Y0017629D01*
X0356133Y0017721D01*
X0356524Y0017822D01*
X0356913Y0017933D01*
X0357298Y0018053D01*
X0357681Y0018183D01*
X0358060Y0018322D01*
X0358436Y0018470D01*
X0358808Y0018627D01*
X0359177Y0018794D01*
X0359541Y0018969D01*
X0359900Y0019153D01*
X0360255Y0019346D01*
X0360605Y0019548D01*
X0360950Y0019758D01*
X0361290Y0019976D01*
X0361625Y0020203D01*
X0361954Y0020438D01*
X0362276Y0020681D01*
X0362593Y0020932D01*
X0362904Y0021190D01*
X0363208Y0021456D01*
X0363506Y0021729D01*
X0363797Y0022010D01*
X0364081Y0022297D01*
X0364357Y0022592D01*
X0364627Y0022893D01*
X0364889Y0023200D01*
X0365143Y0023514D01*
X0365390Y0023834D01*
X0365629Y0024160D01*
X0365860Y0024492D01*
X0366082Y0024829D01*
X0366296Y0025172D01*
X0366502Y0025519D01*
X0366699Y0025872D01*
X0366888Y0026229D01*
X0367067Y0026591D01*
X0367238Y0026957D01*
X0367400Y0027328D01*
X0367553Y0027702D01*
X0367696Y0028079D01*
X0367830Y0028461D01*
X0367955Y0028845D01*
X0368070Y0029232D01*
X0368176Y0029622D01*
X0368273Y0030014D01*
X0368359Y0030409D01*
X0368436Y0030806D01*
X0368503Y0031204D01*
X0368561Y0031604D01*
X0368608Y0032005D01*
X0368646Y0032408D01*
X0368674Y0032811D01*
X0368692Y0033214D01*
X0368700Y0033618D01*
X0368699Y0034022D01*
X0368687Y0034426D01*
X0368666Y0034830D01*
X0368634Y0035233D01*
X0368593Y0035634D01*
X0368542Y0036035D01*
X0368481Y0036435D01*
X0368411Y0036833D01*
X0368331Y0037229D01*
X0368241Y0037622D01*
X0368141Y0038014D01*
X0368032Y0038403D01*
X0367913Y0038789D01*
X0367785Y0039173D01*
X0367648Y0039553D01*
X0367501Y0039929D01*
X0367345Y0040302D01*
X0367181Y0040671D01*
X0367007Y0041036D01*
X0366824Y0041396D01*
X0366633Y0041752D01*
X0366432Y0042103D01*
X0366224Y0042449D01*
X0366007Y0042789D01*
X0365781Y0043125D01*
X0365548Y0043455D01*
X0365306Y0043778D01*
X0365057Y0044096D01*
X0364800Y0044408D01*
X0364535Y0044713D01*
X0364263Y0045012D01*
X0363984Y0045304D01*
X0363698Y0045589D01*
X0363404Y0045867D01*
X0363105Y0046138D01*
X0362798Y0046401D01*
X0362485Y0046657D01*
X0362166Y0046905D01*
X0361841Y0047145D01*
X0361511Y0047377D01*
X0361174Y0047601D01*
X0360833Y0047817D01*
X0360486Y0048024D01*
X0360134Y0048223D01*
X0359777Y0048413D01*
X0359416Y0048594D01*
X0359051Y0048767D01*
X0358681Y0048930D01*
X0358308Y0049084D01*
X0357931Y0049229D01*
X0357550Y0049365D01*
X0357166Y0049491D01*
X0356780Y0049608D01*
X0356390Y0049716D01*
X0355998Y0049814D01*
X0355604Y0049902D01*
X0355207Y0049981D01*
X0354809Y0050050D01*
X0354410Y0050109D01*
X0354009Y0050158D01*
X0353606Y0050197D01*
X0353204Y0050227D01*
X0352800Y0050247D01*
X0352396Y0050257D01*
X0351992Y0050257D01*
X0351588Y0050247D01*
X0351184Y0050227D01*
X0350782Y0050197D01*
X0350379Y0050158D01*
X0349978Y0050109D01*
X0349579Y0050050D01*
X0349181Y0049981D01*
X0348784Y0049902D01*
X0348390Y0049814D01*
X0347998Y0049716D01*
X0347608Y0049608D01*
X0347222Y0049491D01*
X0346838Y0049365D01*
X0346457Y0049229D01*
X0346080Y0049084D01*
X0345707Y0048930D01*
X0345337Y0048767D01*
X0344972Y0048594D01*
X0344611Y0048413D01*
X0344254Y0048223D01*
X0343902Y0048024D01*
X0343555Y0047817D01*
X0343214Y0047601D01*
X0342877Y0047377D01*
X0342547Y0047145D01*
X0342222Y0046905D01*
X0341903Y0046657D01*
X0341590Y0046401D01*
X0341283Y0046138D01*
X0340984Y0045867D01*
X0340690Y0045589D01*
X0340404Y0045304D01*
X0340125Y0045012D01*
X0339853Y0044713D01*
X0339588Y0044408D01*
X0339331Y0044096D01*
X0339082Y0043778D01*
X0338840Y0043455D01*
X0338607Y0043125D01*
X0338381Y0042789D01*
X0338164Y0042449D01*
X0337956Y0042103D01*
X0337755Y0041752D01*
X0337564Y0041396D01*
X0337381Y0041036D01*
X0337207Y0040671D01*
X0337043Y0040302D01*
X0336887Y0039929D01*
X0336740Y0039553D01*
X0336603Y0039173D01*
X0336475Y0038789D01*
X0336356Y0038403D01*
X0336247Y0038014D01*
X0336147Y0037622D01*
X0336057Y0037229D01*
X0335977Y0036833D01*
X0335907Y0036435D01*
X0335846Y0036035D01*
X0335795Y0035634D01*
X0335754Y0035233D01*
X0335722Y0034830D01*
X0335701Y0034426D01*
X0335689Y0034022D01*
X0335688Y0033618D01*
X0335696Y0033214D01*
X0335714Y0032811D01*
X0335742Y0032408D01*
X0335780Y0032005D01*
X0335827Y0031604D01*
X0335885Y0031204D01*
X0335952Y0030806D01*
X0336029Y0030409D01*
X0336115Y0030014D01*
X0336212Y0029622D01*
X0336318Y0029232D01*
X0336433Y0028845D01*
X0336558Y0028461D01*
X0336692Y0028079D01*
X0336835Y0027702D01*
X0336988Y0027328D01*
X0337150Y0026957D01*
X0337321Y0026591D01*
X0337500Y0026229D01*
X0337689Y0025872D01*
X0337886Y0025519D01*
X0338092Y0025172D01*
X0338306Y0024829D01*
X0338528Y0024492D01*
X0338759Y0024160D01*
X0338998Y0023834D01*
X0339245Y0023514D01*
X0339499Y0023200D01*
X0339761Y0022893D01*
X0340031Y0022592D01*
X0340307Y0022297D01*
X0340591Y0022010D01*
X0340882Y0021729D01*
X0341180Y0021456D01*
X0341484Y0021190D01*
X0341795Y0020932D01*
X0342112Y0020681D01*
X0342434Y0020438D01*
X0342763Y0020203D01*
X0343098Y0019976D01*
X0343438Y0019758D01*
X0343783Y0019548D01*
X0344133Y0019346D01*
X0344488Y0019153D01*
X0344847Y0018969D01*
X0345211Y0018794D01*
X0345580Y0018627D01*
X0345952Y0018470D01*
X0346328Y0018322D01*
X0346707Y0018183D01*
X0347090Y0018053D01*
X0347475Y0017933D01*
X0347864Y0017822D01*
X0348255Y0017721D01*
X0348649Y0017629D01*
X0349044Y0017547D01*
D11*
X0236019Y0169121D02*
X0234510Y0169121D01*
X0236019Y0169121D02*
X0237529Y0170631D01*
X0237529Y0172140D01*
X0236774Y0172895D01*
X0235265Y0172895D01*
X0233755Y0171386D01*
X0232245Y0171386D01*
X0231490Y0172140D01*
X0231490Y0173650D01*
X0233000Y0175160D01*
X0234510Y0175160D01*
X0236048Y0176698D02*
X0239067Y0173679D01*
X0240577Y0173679D01*
X0242087Y0175188D01*
X0242087Y0176698D01*
X0244380Y0177481D02*
X0247399Y0180501D01*
X0244380Y0177481D02*
X0239851Y0182011D01*
X0239067Y0179718D02*
X0237558Y0179718D01*
X0236048Y0178208D01*
X0236048Y0176698D01*
X0232342Y0180010D02*
X0234607Y0182275D01*
X0234607Y0183785D01*
X0231587Y0186804D01*
X0230077Y0186804D01*
X0227813Y0184540D01*
X0232342Y0180010D01*
X0230049Y0179227D02*
X0230049Y0177717D01*
X0228539Y0176207D01*
X0227029Y0176207D01*
X0226274Y0178472D02*
X0227784Y0179982D01*
X0229294Y0179982D01*
X0230049Y0179227D01*
X0226274Y0178472D02*
X0224765Y0178472D01*
X0224010Y0179227D01*
X0224010Y0180737D01*
X0225520Y0182247D01*
X0227029Y0182247D01*
X0225255Y0187097D02*
X0228275Y0190116D01*
X0229058Y0192409D02*
X0230568Y0192409D01*
X0232078Y0193919D01*
X0232078Y0195429D01*
X0231323Y0196184D01*
X0229813Y0196184D01*
X0229058Y0195429D01*
X0229813Y0196184D02*
X0229813Y0197694D01*
X0229058Y0198449D01*
X0227548Y0198449D01*
X0226038Y0196939D01*
X0226038Y0195429D01*
X0223746Y0194646D02*
X0220726Y0191626D01*
X0225255Y0187097D01*
X0222991Y0189362D02*
X0224500Y0190871D01*
X0221453Y0187823D02*
X0221453Y0186314D01*
X0219188Y0184049D01*
X0220698Y0182539D02*
X0216168Y0187069D01*
X0218433Y0189333D01*
X0219943Y0189333D01*
X0221453Y0187823D01*
X0217775Y0194577D02*
X0220795Y0197597D01*
X0221578Y0199890D02*
X0223088Y0199890D01*
X0224597Y0201400D01*
X0224597Y0202909D01*
X0223088Y0204419D01*
X0221578Y0204419D01*
X0220823Y0203664D01*
X0220068Y0201400D01*
X0217803Y0203664D01*
X0220823Y0206684D01*
X0217511Y0207699D02*
X0212981Y0212228D01*
X0212981Y0207699D01*
X0216001Y0210718D01*
X0210030Y0213604D02*
X0208521Y0212094D01*
X0207011Y0212094D01*
X0205501Y0213604D02*
X0206256Y0215869D01*
X0207011Y0216624D01*
X0208521Y0216624D01*
X0210030Y0215114D01*
X0210030Y0213604D01*
X0205501Y0213604D02*
X0203236Y0215869D01*
X0206256Y0218888D01*
X0202453Y0213576D02*
X0203208Y0212821D01*
X0203208Y0211311D01*
X0200943Y0209047D01*
X0199405Y0207509D02*
X0199405Y0205999D01*
X0197141Y0203734D01*
X0198650Y0202224D02*
X0194121Y0206754D01*
X0196386Y0209018D01*
X0197895Y0209018D01*
X0199405Y0207509D01*
X0198679Y0211311D02*
X0200943Y0213576D01*
X0202453Y0213576D01*
X0203208Y0211311D02*
X0204718Y0211311D01*
X0205473Y0210556D01*
X0205473Y0209047D01*
X0203208Y0206782D01*
X0198679Y0211311D01*
X0197237Y0216166D02*
X0194218Y0216166D01*
X0191198Y0219185D01*
X0190415Y0216892D02*
X0188905Y0216892D01*
X0187396Y0215383D01*
X0187396Y0213873D01*
X0190415Y0213873D02*
X0191170Y0214628D01*
X0192680Y0214628D01*
X0193435Y0213873D01*
X0193435Y0212363D01*
X0191925Y0210853D01*
X0190415Y0210853D01*
X0191170Y0214628D02*
X0191170Y0216137D01*
X0190415Y0216892D01*
X0185200Y0220269D02*
X0185200Y0223289D01*
X0182180Y0226309D01*
X0183718Y0227847D02*
X0188247Y0223317D01*
X0190512Y0225582D01*
X0190512Y0227092D01*
X0189757Y0227847D01*
X0188247Y0227847D01*
X0185983Y0225582D01*
X0188247Y0227847D02*
X0188247Y0229356D01*
X0187493Y0230111D01*
X0185983Y0230111D01*
X0183718Y0227847D01*
X0180767Y0229617D02*
X0176238Y0234146D01*
X0183787Y0232636D01*
X0179257Y0237165D01*
X0180795Y0238704D02*
X0183060Y0240968D01*
X0184570Y0240968D01*
X0187589Y0237949D01*
X0187589Y0236439D01*
X0185325Y0234174D01*
X0180795Y0238704D01*
X0175913Y0242085D02*
X0172893Y0245105D01*
X0169874Y0245105D01*
X0169874Y0242085D01*
X0172893Y0239065D01*
X0170600Y0238282D02*
X0170600Y0236772D01*
X0168335Y0234508D01*
X0163806Y0239037D01*
X0166071Y0241302D01*
X0167581Y0241302D01*
X0168335Y0240547D01*
X0168335Y0239037D01*
X0166071Y0236772D01*
X0168335Y0239037D02*
X0169845Y0239037D01*
X0170600Y0238282D01*
X0170628Y0241330D02*
X0173648Y0244350D01*
X0172921Y0248152D02*
X0175941Y0251172D01*
X0174431Y0249662D02*
X0178961Y0245133D01*
X0182763Y0247426D02*
X0185783Y0250445D01*
X0185811Y0253493D02*
X0187321Y0253493D01*
X0188831Y0255003D01*
X0188831Y0256513D01*
X0187321Y0258023D01*
X0185811Y0256513D01*
X0185811Y0259532D02*
X0184301Y0259532D01*
X0182792Y0258023D01*
X0182792Y0256513D01*
X0185811Y0253493D01*
X0191124Y0257296D02*
X0186594Y0261825D01*
X0194143Y0260316D01*
X0189614Y0264845D01*
X0191152Y0266383D02*
X0193417Y0268648D01*
X0194926Y0268648D01*
X0197946Y0265628D01*
X0197946Y0264118D01*
X0195681Y0261854D01*
X0191152Y0266383D01*
X0195853Y0239982D02*
X0192833Y0236962D01*
X0194343Y0238472D02*
X0198872Y0233942D01*
X0195825Y0230895D02*
X0192805Y0233914D01*
X0189785Y0233914D01*
X0189785Y0230895D01*
X0192805Y0227875D01*
X0190540Y0230140D02*
X0193560Y0233159D01*
X0194218Y0222205D02*
X0197238Y0219185D01*
X0197237Y0216166D01*
X0206159Y0205406D02*
X0210688Y0200876D01*
X0213708Y0203896D01*
X0216265Y0202126D02*
X0213246Y0199107D01*
X0217775Y0194577D01*
X0215510Y0196842D02*
X0217020Y0198352D01*
X0213972Y0195304D02*
X0213972Y0193794D01*
X0211708Y0191529D01*
X0213217Y0190020D02*
X0208688Y0194549D01*
X0210953Y0196814D01*
X0212462Y0196814D01*
X0213972Y0195304D01*
X0206131Y0196319D02*
X0201601Y0200848D01*
X0203866Y0203113D01*
X0205376Y0203113D01*
X0206886Y0201603D01*
X0206886Y0200093D01*
X0204621Y0197829D01*
X0208424Y0203141D02*
X0209933Y0204651D01*
X0209179Y0208425D02*
X0206159Y0205406D01*
X0185200Y0220269D02*
X0182180Y0220269D01*
X0179160Y0223289D01*
X0176964Y0225814D02*
X0175455Y0225814D01*
X0172435Y0228833D01*
X0172435Y0230343D01*
X0173945Y0231853D01*
X0175455Y0231853D01*
X0176964Y0230343D02*
X0175455Y0228833D01*
X0176964Y0230343D02*
X0178474Y0228833D01*
X0178474Y0227324D01*
X0176964Y0225814D01*
X0233880Y0190607D02*
X0233880Y0187587D01*
X0236900Y0184568D01*
X0234635Y0186833D02*
X0237654Y0189852D01*
X0236900Y0190607D02*
X0239919Y0187587D01*
X0236900Y0190607D02*
X0233880Y0190607D01*
X0256879Y0371202D02*
X0256879Y0371572D01*
X0256879Y0371202D02*
X0263257Y0371202D01*
X0263257Y0371572D01*
X0263257Y0374745D02*
X0263257Y0375115D01*
X0263257Y0378485D02*
X0263257Y0378855D01*
X0263257Y0382028D02*
X0263257Y0382398D01*
X0256879Y0382398D01*
X0256879Y0382028D01*
X0256879Y0378855D02*
X0256879Y0374745D01*
X0282566Y0465892D02*
X0280490Y0467968D01*
X0284642Y0467968D01*
X0285161Y0468487D01*
X0285161Y0469525D01*
X0284123Y0470563D01*
X0283085Y0470563D01*
X0282425Y0472262D02*
X0279830Y0469667D01*
X0278792Y0469667D01*
X0277754Y0470705D01*
X0277754Y0471743D01*
X0280349Y0474338D01*
D12*
X0348679Y0599339D02*
X0351713Y0599339D01*
X0352319Y0599946D01*
X0352319Y0601159D01*
X0351713Y0601766D01*
X0348679Y0601766D01*
X0349286Y0602964D02*
X0348679Y0603571D01*
X0348679Y0604784D01*
X0349286Y0605391D01*
X0349893Y0606589D02*
X0348679Y0607803D01*
X0352319Y0607803D01*
X0352319Y0609016D02*
X0352319Y0606589D01*
X0351713Y0605391D02*
X0351106Y0605391D01*
X0350499Y0604784D01*
X0350499Y0603571D01*
X0349893Y0602964D01*
X0349286Y0602964D01*
X0348072Y0604178D02*
X0352926Y0604178D01*
X0352319Y0604784D02*
X0351713Y0605391D01*
X0352319Y0604784D02*
X0352319Y0603571D01*
X0351713Y0602964D01*
X0351713Y0610215D02*
X0351106Y0610215D01*
X0350499Y0610821D01*
X0350499Y0612035D01*
X0351106Y0612641D01*
X0351713Y0612641D01*
X0352319Y0612035D01*
X0352319Y0610821D01*
X0351713Y0610215D01*
X0350499Y0610821D02*
X0349893Y0610215D01*
X0349286Y0610215D01*
X0348679Y0610821D01*
X0348679Y0612035D01*
X0349286Y0612641D01*
X0349893Y0612641D01*
X0350499Y0612035D01*
X0461217Y0541224D02*
X0462337Y0540104D01*
X0463083Y0540104D01*
X0464576Y0541597D01*
X0464576Y0542343D01*
X0463457Y0543463D01*
X0461217Y0541224D01*
X0463473Y0538968D02*
X0464966Y0537475D01*
X0464219Y0538221D02*
X0466459Y0540461D01*
X0464966Y0540461D01*
X0551646Y0451731D02*
X0552765Y0450611D01*
X0552765Y0449865D01*
X0551272Y0448371D01*
X0550526Y0448371D01*
X0549406Y0449491D01*
X0551646Y0451731D01*
X0553528Y0449102D02*
X0554275Y0449102D01*
X0555021Y0448355D01*
X0555021Y0447609D01*
X0554648Y0447236D01*
X0553901Y0447236D01*
X0553901Y0446489D01*
X0553528Y0446116D01*
X0552781Y0446116D01*
X0552035Y0446862D01*
X0552035Y0447609D01*
X0553528Y0447609D02*
X0553901Y0447236D01*
X0598709Y0357755D02*
X0598709Y0354722D01*
X0599316Y0354115D01*
X0600529Y0354115D01*
X0601136Y0354722D01*
X0601136Y0357755D01*
X0602334Y0357149D02*
X0602941Y0357755D01*
X0604154Y0357755D01*
X0604761Y0357149D01*
X0605960Y0356542D02*
X0607173Y0357755D01*
X0607173Y0354115D01*
X0605960Y0354115D02*
X0608386Y0354115D01*
X0609585Y0354722D02*
X0610191Y0354115D01*
X0611405Y0354115D01*
X0612011Y0354722D01*
X0612011Y0355329D01*
X0611405Y0355935D01*
X0609585Y0355935D01*
X0609585Y0354722D01*
X0609585Y0355935D02*
X0610798Y0357149D01*
X0612011Y0357755D01*
X0604761Y0355329D02*
X0604154Y0355935D01*
X0602941Y0355935D01*
X0602334Y0356542D01*
X0602334Y0357149D01*
X0603548Y0358362D02*
X0603548Y0353509D01*
X0604154Y0354115D02*
X0604761Y0354722D01*
X0604761Y0355329D01*
X0604154Y0354115D02*
X0602941Y0354115D01*
X0602334Y0354722D01*
X0543244Y0255423D02*
X0542372Y0255423D01*
X0540626Y0253678D01*
X0540626Y0252805D01*
X0541499Y0251932D01*
X0542372Y0251932D01*
X0543244Y0252805D01*
X0542372Y0253678D01*
X0544117Y0253678D02*
X0544117Y0254551D01*
X0543244Y0255423D01*
X0545412Y0253256D02*
X0544540Y0248891D01*
X0547158Y0251510D01*
X0548017Y0250651D02*
X0549326Y0249342D01*
X0549326Y0248469D01*
X0547580Y0246723D01*
X0546707Y0246723D01*
X0545398Y0248033D01*
X0548017Y0250651D01*
X0545412Y0253256D02*
X0542794Y0250637D01*
X0533184Y0241074D02*
X0532311Y0241947D01*
X0531439Y0241947D01*
X0531002Y0241511D01*
X0531002Y0240638D01*
X0531875Y0239765D01*
X0531875Y0238892D01*
X0531439Y0238456D01*
X0530566Y0238456D01*
X0529693Y0239328D01*
X0529693Y0240201D01*
X0527525Y0241496D02*
X0530143Y0244115D01*
X0529271Y0244988D02*
X0531016Y0243242D01*
X0533184Y0241074D02*
X0533184Y0240201D01*
X0527976Y0245410D02*
X0527976Y0246283D01*
X0527103Y0247156D01*
X0526230Y0247156D01*
X0524484Y0245410D01*
X0524484Y0244537D01*
X0525357Y0243664D01*
X0526230Y0243664D01*
X0521719Y0239154D02*
X0519973Y0237408D01*
X0518228Y0237408D01*
X0518228Y0239154D01*
X0519973Y0240899D01*
X0522141Y0237858D02*
X0520396Y0236113D01*
X0520396Y0235240D01*
X0521268Y0234367D01*
X0522141Y0234367D01*
X0523000Y0233508D02*
X0523000Y0232636D01*
X0523873Y0231763D01*
X0524746Y0231763D01*
X0526491Y0233508D02*
X0526491Y0234381D01*
X0525619Y0235254D01*
X0524746Y0235254D01*
X0523000Y0233508D01*
X0523887Y0236113D02*
X0523887Y0236986D01*
X0523014Y0237858D01*
X0522141Y0237858D01*
X0515097Y0231208D02*
X0516407Y0229899D01*
X0516407Y0229026D01*
X0514661Y0227280D01*
X0513788Y0227280D01*
X0512479Y0228590D01*
X0515097Y0231208D01*
X0514239Y0232067D02*
X0509874Y0231194D01*
X0508143Y0232926D02*
X0510761Y0235544D01*
X0509889Y0236417D02*
X0511634Y0234671D01*
X0512493Y0233813D02*
X0511620Y0229448D01*
X0515083Y0225985D02*
X0516829Y0224240D01*
X0515956Y0225113D02*
X0518575Y0227731D01*
X0516829Y0227731D01*
X0509320Y0222025D02*
X0508011Y0223334D01*
X0505392Y0220716D01*
X0506701Y0219406D01*
X0507574Y0219406D01*
X0509320Y0221152D01*
X0509320Y0222025D01*
X0509742Y0219857D02*
X0511488Y0219857D01*
X0508869Y0217239D01*
X0507997Y0218111D02*
X0509742Y0216366D01*
X0504534Y0221574D02*
X0505406Y0225939D01*
X0504111Y0226361D02*
X0503238Y0225488D01*
X0502366Y0225488D01*
X0501056Y0226797D01*
X0500183Y0225925D02*
X0502802Y0228543D01*
X0504111Y0227234D01*
X0504111Y0226361D01*
X0501929Y0225925D02*
X0501929Y0224179D01*
X0502788Y0223320D02*
X0507152Y0224193D01*
X0501943Y0229402D02*
X0497579Y0228529D01*
X0496716Y0229392D02*
X0495843Y0230265D01*
X0496279Y0229829D02*
X0498898Y0232447D01*
X0499334Y0232011D02*
X0498461Y0232884D01*
X0497603Y0233742D02*
X0493238Y0232870D01*
X0492380Y0233728D02*
X0492380Y0235474D01*
X0492816Y0235037D02*
X0491507Y0236347D01*
X0490634Y0235474D02*
X0493253Y0238092D01*
X0494562Y0236783D01*
X0494562Y0235910D01*
X0493689Y0235037D01*
X0492816Y0235037D01*
X0495857Y0235488D02*
X0494984Y0231124D01*
X0502498Y0238571D02*
X0503371Y0237698D01*
X0504243Y0237698D01*
X0505989Y0239444D01*
X0505989Y0240317D01*
X0505116Y0241189D01*
X0504243Y0241189D01*
X0502498Y0239444D01*
X0502498Y0238571D01*
X0501203Y0239866D02*
X0502076Y0244230D01*
X0501217Y0245089D02*
X0499471Y0246835D01*
X0500344Y0245962D02*
X0497725Y0243343D01*
X0499457Y0241612D02*
X0503821Y0242484D01*
X0504666Y0236403D02*
X0509030Y0237276D01*
X0499501Y0212947D02*
X0500810Y0211637D01*
X0500810Y0210764D01*
X0499064Y0209019D01*
X0498192Y0209019D01*
X0496882Y0210328D01*
X0499501Y0212947D01*
X0502105Y0210342D02*
X0503851Y0208596D01*
X0504710Y0207738D02*
X0506019Y0206429D01*
X0506019Y0205556D01*
X0505146Y0204683D01*
X0504273Y0204683D01*
X0502964Y0205992D01*
X0503837Y0205119D02*
X0503837Y0203374D01*
X0502082Y0202885D02*
X0500773Y0204194D01*
X0498154Y0201576D01*
X0499463Y0200267D01*
X0500336Y0200267D01*
X0502082Y0202012D01*
X0502082Y0202885D01*
X0502091Y0205119D02*
X0504710Y0207738D01*
X0502978Y0209469D02*
X0500360Y0206851D01*
X0499914Y0205053D02*
X0497295Y0202435D01*
X0498168Y0206799D01*
X0495550Y0204180D01*
X0495127Y0205475D02*
X0496000Y0206348D01*
X0495127Y0207221D01*
X0493382Y0207221D02*
X0493382Y0206348D01*
X0494255Y0205475D01*
X0495127Y0205475D01*
X0493382Y0207221D02*
X0495127Y0208967D01*
X0496000Y0208967D01*
X0496873Y0208094D01*
X0496873Y0207221D01*
X0485940Y0196980D02*
X0485067Y0197853D01*
X0484194Y0197853D01*
X0483758Y0197416D01*
X0483758Y0196543D01*
X0484631Y0195670D01*
X0484631Y0194798D01*
X0484194Y0194361D01*
X0483322Y0194361D01*
X0482449Y0195234D01*
X0482449Y0196107D01*
X0480281Y0197402D02*
X0482899Y0200020D01*
X0482027Y0200893D02*
X0483772Y0199148D01*
X0485940Y0196980D02*
X0485940Y0196107D01*
X0480731Y0201316D02*
X0480731Y0202188D01*
X0479859Y0203061D01*
X0478986Y0203061D01*
X0477240Y0201316D01*
X0477240Y0200443D01*
X0478113Y0199570D01*
X0478986Y0199570D01*
X0474475Y0195059D02*
X0472729Y0193313D01*
X0470984Y0193313D01*
X0470984Y0195059D01*
X0472729Y0196805D01*
X0474897Y0193764D02*
X0473152Y0192018D01*
X0473152Y0191145D01*
X0474024Y0190273D01*
X0474897Y0190273D01*
X0475756Y0189414D02*
X0477502Y0191160D01*
X0478374Y0191160D01*
X0479247Y0190287D01*
X0479247Y0189414D01*
X0477502Y0187668D02*
X0476629Y0187668D01*
X0475756Y0188541D01*
X0475756Y0189414D01*
X0476643Y0192018D02*
X0476643Y0192891D01*
X0475770Y0193764D01*
X0474897Y0193764D01*
X0467853Y0187114D02*
X0469162Y0185805D01*
X0469162Y0184932D01*
X0467417Y0183186D01*
X0466544Y0183186D01*
X0465235Y0184495D01*
X0467853Y0187114D01*
X0466995Y0187972D02*
X0462630Y0187100D01*
X0460899Y0188831D02*
X0463517Y0191450D01*
X0462645Y0192323D02*
X0464390Y0190577D01*
X0465249Y0189718D02*
X0464376Y0185354D01*
X0467839Y0181891D02*
X0469585Y0180145D01*
X0468712Y0181018D02*
X0471330Y0183637D01*
X0469585Y0183637D01*
X0462076Y0177931D02*
X0460767Y0179240D01*
X0458148Y0176621D01*
X0459457Y0175312D01*
X0460330Y0175312D01*
X0462076Y0177058D01*
X0462076Y0177931D01*
X0462498Y0175763D02*
X0464244Y0175763D01*
X0461625Y0173144D01*
X0460752Y0174017D02*
X0462498Y0172271D01*
X0457289Y0177480D02*
X0458162Y0181844D01*
X0456867Y0182266D02*
X0455994Y0181394D01*
X0455121Y0181394D01*
X0453812Y0182703D01*
X0452939Y0181830D02*
X0455558Y0184449D01*
X0456867Y0183139D01*
X0456867Y0182266D01*
X0454685Y0181830D02*
X0454685Y0180084D01*
X0455544Y0179226D02*
X0459908Y0180098D01*
X0454699Y0185307D02*
X0450335Y0184434D01*
X0449472Y0185298D02*
X0448599Y0186171D01*
X0449035Y0185734D02*
X0451654Y0188353D01*
X0451217Y0188789D02*
X0452090Y0187916D01*
X0450359Y0189648D02*
X0445994Y0188775D01*
X0445136Y0189634D02*
X0445136Y0191379D01*
X0445572Y0190943D02*
X0444263Y0192252D01*
X0443390Y0191379D02*
X0446009Y0193998D01*
X0447318Y0192689D01*
X0447318Y0191816D01*
X0446445Y0190943D01*
X0445572Y0190943D01*
X0448613Y0191394D02*
X0447740Y0187029D01*
X0455254Y0194476D02*
X0456127Y0193604D01*
X0456999Y0193604D01*
X0458745Y0195349D01*
X0458745Y0196222D01*
X0457872Y0197095D01*
X0456999Y0197095D01*
X0455254Y0195349D01*
X0455254Y0194476D01*
X0453959Y0195771D02*
X0454831Y0200136D01*
X0453973Y0200994D02*
X0452227Y0202740D01*
X0453100Y0201867D02*
X0450481Y0199249D01*
X0452213Y0197517D02*
X0456577Y0198390D01*
X0457422Y0192308D02*
X0461786Y0193181D01*
X0451863Y0168065D02*
X0449245Y0165446D01*
X0450554Y0164137D01*
X0451427Y0164137D01*
X0453172Y0165883D01*
X0453172Y0166755D01*
X0451863Y0168065D01*
X0454467Y0165460D02*
X0456213Y0163715D01*
X0457072Y0162856D02*
X0458381Y0161547D01*
X0458381Y0160674D01*
X0457508Y0159801D01*
X0456635Y0159801D01*
X0455326Y0161110D01*
X0454453Y0160237D02*
X0457072Y0162856D01*
X0455340Y0164587D02*
X0452722Y0161969D01*
X0456199Y0160237D02*
X0456199Y0158492D01*
X0354721Y0104003D02*
X0354114Y0104003D01*
X0351687Y0106430D01*
X0351081Y0106430D01*
X0351081Y0104003D01*
X0351687Y0102805D02*
X0351081Y0102198D01*
X0351081Y0100985D01*
X0351687Y0100378D01*
X0352294Y0100378D01*
X0352901Y0100985D01*
X0352901Y0102198D01*
X0353508Y0102805D01*
X0354114Y0102805D01*
X0354721Y0102198D01*
X0354721Y0100985D01*
X0354114Y0100378D01*
X0354114Y0099180D02*
X0351081Y0099180D01*
X0351081Y0096753D02*
X0354114Y0096753D01*
X0354721Y0097360D01*
X0354721Y0098573D01*
X0354114Y0099180D01*
X0355328Y0101592D02*
X0350474Y0101592D01*
X0103661Y0349667D02*
X0102448Y0349667D01*
X0101841Y0350273D01*
X0104268Y0352700D01*
X0104268Y0350273D01*
X0103661Y0349667D01*
X0101841Y0350273D02*
X0101841Y0352700D01*
X0102448Y0353307D01*
X0103661Y0353307D01*
X0104268Y0352700D01*
X0100643Y0352700D02*
X0100036Y0353307D01*
X0098823Y0353307D01*
X0098216Y0352700D01*
X0097018Y0352700D02*
X0096411Y0353307D01*
X0095198Y0353307D01*
X0094591Y0352700D01*
X0094591Y0352093D01*
X0095198Y0351487D01*
X0096411Y0351487D01*
X0097018Y0350880D01*
X0097018Y0350273D01*
X0096411Y0349667D01*
X0095198Y0349667D01*
X0094591Y0350273D01*
X0093392Y0350273D02*
X0093392Y0353307D01*
X0090966Y0353307D02*
X0090966Y0350273D01*
X0091572Y0349667D01*
X0092786Y0349667D01*
X0093392Y0350273D01*
X0095804Y0349060D02*
X0095804Y0353913D01*
X0098216Y0349667D02*
X0100643Y0352093D01*
X0100643Y0352700D01*
X0100643Y0349667D02*
X0098216Y0349667D01*
D13*
X0184783Y0195166D02*
X0186776Y0193173D01*
X0184783Y0195166D02*
X0188769Y0195166D01*
X0189268Y0195664D01*
X0189268Y0196661D01*
X0188271Y0197658D01*
X0187275Y0197658D01*
X0186690Y0199239D02*
X0185693Y0200235D01*
X0186192Y0199737D02*
X0183700Y0197246D01*
X0182704Y0197246D01*
X0182205Y0197744D01*
X0182205Y0198740D01*
X0308704Y0327011D02*
X0308704Y0331239D01*
X0310818Y0331239D01*
X0311523Y0330534D01*
X0311523Y0329125D01*
X0310818Y0328420D01*
X0308704Y0328420D01*
X0310113Y0328420D02*
X0311523Y0327011D01*
X0313054Y0327011D02*
X0315873Y0329829D01*
X0315873Y0330534D01*
X0315168Y0331239D01*
X0313759Y0331239D01*
X0313054Y0330534D01*
X0313054Y0327011D02*
X0315873Y0327011D01*
X0325081Y0327184D02*
X0325081Y0322956D01*
X0325081Y0324365D02*
X0327195Y0324365D01*
X0327900Y0325070D01*
X0327900Y0326479D01*
X0327195Y0327184D01*
X0325081Y0327184D01*
X0326491Y0324365D02*
X0327900Y0322956D01*
X0329432Y0322956D02*
X0329432Y0323660D01*
X0332250Y0326479D01*
X0332250Y0327184D01*
X0329432Y0327184D01*
X0327061Y0363715D02*
X0325068Y0365709D01*
X0326064Y0364712D02*
X0329054Y0367702D01*
X0327061Y0367702D01*
X0323985Y0366792D02*
X0321992Y0368785D01*
X0322988Y0367788D02*
X0325978Y0370778D01*
X0323985Y0370778D01*
X0323400Y0372359D02*
X0323400Y0373355D01*
X0322403Y0374352D01*
X0321407Y0374352D01*
X0319414Y0372359D01*
X0319414Y0371362D01*
X0320410Y0370366D01*
X0321407Y0370366D01*
X0331434Y0381389D02*
X0330437Y0382386D01*
X0330437Y0383383D01*
X0332430Y0385376D01*
X0333427Y0385376D01*
X0334424Y0384379D01*
X0334424Y0383383D01*
X0335008Y0381801D02*
X0337001Y0381801D01*
X0334012Y0378812D01*
X0333015Y0379808D02*
X0335008Y0377815D01*
X0336589Y0377230D02*
X0336589Y0376234D01*
X0337586Y0375237D01*
X0338583Y0375237D01*
X0339081Y0375736D01*
X0339081Y0376732D01*
X0337586Y0378227D01*
X0336589Y0377230D01*
X0337586Y0378227D02*
X0339579Y0378227D01*
X0341074Y0377729D01*
X0340484Y0373976D02*
X0339487Y0373976D01*
X0337494Y0371983D01*
X0337494Y0370987D01*
X0338491Y0369990D01*
X0339487Y0369990D01*
X0340072Y0368409D02*
X0342065Y0366416D01*
X0341069Y0367412D02*
X0344058Y0370402D01*
X0342065Y0370402D01*
X0341481Y0371983D02*
X0341481Y0372980D01*
X0340484Y0373976D01*
X0345640Y0367824D02*
X0345141Y0367326D01*
X0345141Y0366329D01*
X0346138Y0365333D01*
X0346138Y0364336D01*
X0345640Y0363838D01*
X0344643Y0363838D01*
X0343646Y0364835D01*
X0343646Y0365831D01*
X0344145Y0366329D01*
X0345141Y0366329D01*
X0346138Y0365333D02*
X0347134Y0365333D01*
X0347633Y0365831D01*
X0347633Y0366828D01*
X0346636Y0367824D01*
X0345640Y0367824D01*
X0346087Y0382742D02*
X0342101Y0382742D01*
X0341603Y0382244D01*
X0340520Y0383327D02*
X0338527Y0385320D01*
X0339523Y0384323D02*
X0342513Y0387313D01*
X0340520Y0387313D01*
X0339935Y0388894D02*
X0339935Y0389891D01*
X0338939Y0390887D01*
X0337942Y0390887D01*
X0335949Y0388894D01*
X0335949Y0387898D01*
X0336946Y0386901D01*
X0337942Y0386901D01*
X0344593Y0385234D02*
X0346586Y0383241D01*
X0346087Y0382742D01*
X0354030Y0387522D02*
X0355026Y0386526D01*
X0356023Y0386526D01*
X0356608Y0384944D02*
X0358601Y0382951D01*
X0357604Y0383948D02*
X0360594Y0386938D01*
X0358601Y0386938D01*
X0358016Y0388519D02*
X0358016Y0389515D01*
X0357019Y0390512D01*
X0356023Y0390512D01*
X0354030Y0388519D01*
X0354030Y0387522D01*
X0360182Y0382367D02*
X0360182Y0381370D01*
X0361178Y0380374D01*
X0362175Y0380374D01*
X0363171Y0381370D01*
X0363171Y0382367D01*
X0362673Y0382865D01*
X0361178Y0383363D01*
X0362673Y0384858D01*
X0364666Y0382865D01*
X0332430Y0381389D02*
X0331434Y0381389D01*
X0302076Y0376797D02*
X0299086Y0379787D01*
X0299086Y0376797D01*
X0301079Y0378791D01*
X0296508Y0377209D02*
X0295512Y0376213D01*
X0296010Y0376711D02*
X0298502Y0374220D01*
X0298502Y0373223D01*
X0298003Y0372725D01*
X0297007Y0372725D01*
X0281274Y0373727D02*
X0281274Y0370909D01*
X0278456Y0373727D01*
X0277751Y0373727D01*
X0277046Y0373023D01*
X0277046Y0371613D01*
X0277751Y0370909D01*
X0277751Y0369377D02*
X0277046Y0368673D01*
X0277046Y0367263D01*
X0277751Y0366559D01*
X0280570Y0366559D01*
X0281274Y0367263D01*
X0281274Y0368673D01*
X0280570Y0369377D01*
X0280570Y0375259D02*
X0281274Y0375259D01*
X0280570Y0375259D02*
X0277751Y0378078D01*
X0277046Y0378078D01*
X0277046Y0375259D01*
X0250369Y0375105D02*
X0250369Y0372287D01*
X0250369Y0373696D02*
X0246141Y0373696D01*
X0247550Y0372287D01*
X0246846Y0370755D02*
X0246141Y0370050D01*
X0246141Y0368641D01*
X0246846Y0367936D01*
X0249664Y0367936D01*
X0250369Y0368641D01*
X0250369Y0370050D01*
X0249664Y0370755D01*
X0249664Y0376637D02*
X0250369Y0377341D01*
X0250369Y0378751D01*
X0249664Y0379456D01*
X0248960Y0379456D01*
X0248255Y0378751D01*
X0248255Y0378046D01*
X0248255Y0378751D02*
X0247550Y0379456D01*
X0246846Y0379456D01*
X0246141Y0378751D01*
X0246141Y0377341D01*
X0246846Y0376637D01*
X0237574Y0376211D02*
X0236869Y0376916D01*
X0237574Y0376211D02*
X0237574Y0374802D01*
X0236869Y0374097D01*
X0234050Y0374097D01*
X0233346Y0374802D01*
X0233346Y0376211D01*
X0234050Y0376916D01*
X0234050Y0378447D02*
X0233346Y0379152D01*
X0233346Y0380561D01*
X0234050Y0381266D01*
X0234755Y0381266D01*
X0237574Y0378447D01*
X0237574Y0381266D01*
X0236869Y0382798D02*
X0236164Y0382798D01*
X0235460Y0383502D01*
X0235460Y0384912D01*
X0236164Y0385616D01*
X0236869Y0385616D01*
X0237574Y0384912D01*
X0237574Y0383502D01*
X0236869Y0382798D01*
X0235460Y0383502D02*
X0234755Y0382798D01*
X0234050Y0382798D01*
X0233346Y0383502D01*
X0233346Y0384912D01*
X0234050Y0385616D01*
X0234755Y0385616D01*
X0235460Y0384912D01*
X0237467Y0410876D02*
X0238463Y0410876D01*
X0239460Y0411872D01*
X0239460Y0412869D01*
X0240543Y0413952D02*
X0241539Y0413952D01*
X0242536Y0414948D01*
X0242536Y0415945D01*
X0241539Y0416941D01*
X0240543Y0416941D01*
X0240044Y0416443D01*
X0239546Y0414948D01*
X0238051Y0416443D01*
X0240044Y0418436D01*
X0237467Y0414862D02*
X0236470Y0414862D01*
X0235474Y0413865D01*
X0235474Y0412869D01*
X0237467Y0410876D01*
X0212479Y0479773D02*
X0213476Y0480770D01*
X0213476Y0481766D01*
X0214558Y0482849D02*
X0214060Y0483348D01*
X0214060Y0484344D01*
X0215057Y0485341D01*
X0216053Y0485341D01*
X0216552Y0484842D01*
X0216552Y0483846D01*
X0215555Y0482849D01*
X0214558Y0482849D01*
X0214060Y0484344D02*
X0213064Y0484344D01*
X0212565Y0484842D01*
X0212565Y0485839D01*
X0213562Y0486835D01*
X0214558Y0486835D01*
X0215057Y0486337D01*
X0215057Y0485341D01*
X0217813Y0485747D02*
X0219806Y0483754D01*
X0220802Y0483754D01*
X0221799Y0484751D01*
X0221799Y0485747D01*
X0222882Y0486830D02*
X0223380Y0486332D01*
X0222882Y0486830D02*
X0222882Y0490816D01*
X0222383Y0491315D01*
X0220390Y0489322D01*
X0219806Y0487740D02*
X0218809Y0487740D01*
X0217813Y0486744D01*
X0217813Y0485747D01*
X0211482Y0483759D02*
X0210486Y0483759D01*
X0209489Y0482763D01*
X0209489Y0481766D01*
X0211482Y0479773D01*
X0212479Y0479773D01*
X0225347Y0492883D02*
X0228827Y0496363D01*
X0227217Y0493593D02*
X0227219Y0493619D01*
X0227225Y0493645D01*
X0227234Y0493669D01*
X0227248Y0493692D01*
X0227264Y0493713D01*
X0227283Y0493731D01*
X0227305Y0493745D01*
X0227329Y0493757D01*
X0227354Y0493765D01*
X0227380Y0493769D01*
X0227406Y0493769D01*
X0227432Y0493765D01*
X0227457Y0493757D01*
X0227481Y0493745D01*
X0227503Y0493731D01*
X0227522Y0493713D01*
X0227538Y0493692D01*
X0227552Y0493669D01*
X0227561Y0493645D01*
X0227567Y0493619D01*
X0227569Y0493593D01*
X0227567Y0493567D01*
X0227561Y0493541D01*
X0227552Y0493517D01*
X0227538Y0493494D01*
X0227522Y0493473D01*
X0227503Y0493455D01*
X0227481Y0493441D01*
X0227457Y0493429D01*
X0227432Y0493421D01*
X0227406Y0493417D01*
X0227380Y0493417D01*
X0227354Y0493421D01*
X0227329Y0493429D01*
X0227305Y0493441D01*
X0227283Y0493455D01*
X0227264Y0493473D01*
X0227248Y0493494D01*
X0227234Y0493517D01*
X0227225Y0493541D01*
X0227219Y0493567D01*
X0227217Y0493593D01*
X0230915Y0487316D02*
X0234395Y0490795D01*
X0304230Y0484578D02*
X0304230Y0483582D01*
X0306223Y0481589D01*
X0307220Y0481589D01*
X0308216Y0482585D01*
X0308216Y0483582D01*
X0309299Y0484665D02*
X0310296Y0484665D01*
X0311292Y0485661D01*
X0311292Y0486658D01*
X0310794Y0487156D01*
X0309797Y0487156D01*
X0308302Y0485661D01*
X0309299Y0484665D01*
X0308302Y0485661D02*
X0308302Y0487655D01*
X0308801Y0489149D01*
X0306223Y0485575D02*
X0305226Y0485575D01*
X0304230Y0484578D01*
X0315600Y0484822D02*
X0316597Y0483825D01*
X0317593Y0483825D01*
X0318178Y0482244D02*
X0322164Y0482244D01*
X0322662Y0482742D01*
X0322662Y0483739D01*
X0321666Y0484735D01*
X0320669Y0484735D01*
X0319586Y0485818D02*
X0319586Y0486815D01*
X0318590Y0487811D01*
X0317593Y0487811D01*
X0315600Y0485818D01*
X0315600Y0484822D01*
X0318178Y0482244D02*
X0320171Y0480251D01*
X0334935Y0473361D02*
X0334935Y0472365D01*
X0335932Y0471368D01*
X0336928Y0471368D01*
X0337513Y0469787D02*
X0339506Y0467794D01*
X0338510Y0468790D02*
X0341499Y0471780D01*
X0339506Y0471780D01*
X0338921Y0473361D02*
X0338921Y0474358D01*
X0337925Y0475354D01*
X0336928Y0475354D01*
X0334935Y0473361D01*
X0330991Y0451591D02*
X0329995Y0451591D01*
X0328002Y0449598D01*
X0328002Y0448601D01*
X0328998Y0447605D01*
X0329995Y0447605D01*
X0331078Y0446522D02*
X0331078Y0445525D01*
X0332074Y0444529D01*
X0333071Y0444529D01*
X0333569Y0445027D01*
X0333569Y0446024D01*
X0333071Y0446522D01*
X0333569Y0446024D02*
X0334566Y0446024D01*
X0335064Y0446522D01*
X0335064Y0447518D01*
X0334067Y0448515D01*
X0333071Y0448515D01*
X0331988Y0449598D02*
X0331988Y0450594D01*
X0330991Y0451591D01*
X0324889Y0445489D02*
X0323892Y0445489D01*
X0321899Y0443495D01*
X0321899Y0442499D01*
X0322896Y0441502D01*
X0323892Y0441502D01*
X0325972Y0441416D02*
X0327965Y0439423D01*
X0328961Y0441416D02*
X0325972Y0441416D01*
X0325885Y0443496D02*
X0325885Y0444492D01*
X0324889Y0445489D01*
X0328961Y0441416D02*
X0325972Y0438426D01*
X0438270Y0551656D02*
X0438270Y0555884D01*
X0440384Y0555884D01*
X0441089Y0555180D01*
X0441089Y0553770D01*
X0440384Y0553066D01*
X0438270Y0553066D01*
X0439680Y0553066D02*
X0441089Y0551656D01*
X0442621Y0552361D02*
X0443325Y0551656D01*
X0444735Y0551656D01*
X0445439Y0552361D01*
X0445439Y0553066D01*
X0444735Y0553770D01*
X0444030Y0553770D01*
X0444735Y0553770D02*
X0445439Y0554475D01*
X0445439Y0555180D01*
X0444735Y0555884D01*
X0443325Y0555884D01*
X0442621Y0555180D01*
X0371167Y0572440D02*
X0370463Y0571735D01*
X0369053Y0571735D01*
X0368349Y0572440D01*
X0371167Y0575258D01*
X0371167Y0572440D01*
X0368349Y0572440D02*
X0368349Y0575258D01*
X0369053Y0575963D01*
X0370463Y0575963D01*
X0371167Y0575258D01*
X0366817Y0575258D02*
X0366817Y0574554D01*
X0366113Y0573849D01*
X0366817Y0573144D01*
X0366817Y0572440D01*
X0366113Y0571735D01*
X0364703Y0571735D01*
X0363999Y0572440D01*
X0362467Y0572440D02*
X0361762Y0571735D01*
X0360353Y0571735D01*
X0359648Y0572440D01*
X0359648Y0575258D01*
X0360353Y0575963D01*
X0361762Y0575963D01*
X0362467Y0575258D01*
X0363999Y0575258D02*
X0364703Y0575963D01*
X0366113Y0575963D01*
X0366817Y0575258D01*
X0366113Y0573849D02*
X0365408Y0573849D01*
X0358511Y0584570D02*
X0355692Y0584570D01*
X0357101Y0584570D02*
X0357101Y0588798D01*
X0355692Y0587388D01*
X0354160Y0587388D02*
X0354160Y0588093D01*
X0353456Y0588798D01*
X0352046Y0588798D01*
X0351342Y0588093D01*
X0349810Y0588093D02*
X0349810Y0586684D01*
X0349106Y0585979D01*
X0346992Y0585979D01*
X0348401Y0585979D02*
X0349810Y0584570D01*
X0351342Y0584570D02*
X0354160Y0587388D01*
X0354160Y0584570D02*
X0351342Y0584570D01*
X0349810Y0588093D02*
X0349106Y0588798D01*
X0346992Y0588798D01*
X0346992Y0584570D01*
X0344743Y0573392D02*
X0344038Y0573392D01*
X0343334Y0572687D01*
X0343334Y0570573D01*
X0344743Y0570573D01*
X0345448Y0571278D01*
X0345448Y0572687D01*
X0344743Y0573392D01*
X0341924Y0571983D02*
X0343334Y0570573D01*
X0343334Y0569042D02*
X0344038Y0568337D01*
X0344038Y0566223D01*
X0344038Y0567633D02*
X0345448Y0569042D01*
X0343334Y0569042D02*
X0341924Y0569042D01*
X0341220Y0568337D01*
X0341220Y0566223D01*
X0345448Y0566223D01*
X0341924Y0571983D02*
X0341220Y0573392D01*
X0339877Y0596637D02*
X0342696Y0596637D01*
X0343400Y0597342D01*
X0343400Y0598751D01*
X0342696Y0599456D01*
X0343400Y0600987D02*
X0340582Y0603806D01*
X0339877Y0603806D01*
X0339172Y0603101D01*
X0339172Y0601692D01*
X0339877Y0600987D01*
X0339877Y0599456D02*
X0339172Y0598751D01*
X0339172Y0597342D01*
X0339877Y0596637D01*
X0343400Y0600987D02*
X0343400Y0603806D01*
X0342696Y0605338D02*
X0339877Y0608156D01*
X0342696Y0608156D01*
X0343400Y0607452D01*
X0343400Y0606042D01*
X0342696Y0605338D01*
X0339877Y0605338D01*
X0339172Y0606042D01*
X0339172Y0607452D01*
X0339877Y0608156D01*
X0341957Y0631131D02*
X0341957Y0646879D01*
X0365580Y0646879D01*
X0365580Y0631131D01*
X0341957Y0631131D01*
X0361499Y0627341D02*
X0361499Y0623113D01*
X0363613Y0623113D01*
X0364317Y0623818D01*
X0364317Y0626636D01*
X0363613Y0627341D01*
X0361499Y0627341D01*
X0365849Y0626636D02*
X0366554Y0627341D01*
X0367963Y0627341D01*
X0368668Y0626636D01*
X0368668Y0625932D01*
X0365849Y0623113D01*
X0368668Y0623113D01*
X0547326Y0422813D02*
X0549440Y0422813D01*
X0550144Y0422109D01*
X0550144Y0420699D01*
X0549440Y0419995D01*
X0547326Y0419995D01*
X0548735Y0419995D02*
X0550144Y0418585D01*
X0551676Y0419290D02*
X0551676Y0419995D01*
X0552380Y0420699D01*
X0553790Y0420699D01*
X0554494Y0419995D01*
X0554494Y0419290D01*
X0553790Y0418585D01*
X0552380Y0418585D01*
X0551676Y0419290D01*
X0552380Y0420699D02*
X0551676Y0421404D01*
X0551676Y0422109D01*
X0552380Y0422813D01*
X0553790Y0422813D01*
X0554494Y0422109D01*
X0554494Y0421404D01*
X0553790Y0420699D01*
X0547326Y0418585D02*
X0547326Y0422813D01*
X0563428Y0363404D02*
X0565542Y0363404D01*
X0566247Y0362699D01*
X0566247Y0361290D01*
X0565542Y0360585D01*
X0563428Y0360585D01*
X0563428Y0359176D02*
X0563428Y0363404D01*
X0564837Y0360585D02*
X0566247Y0359176D01*
X0567778Y0359881D02*
X0568483Y0359176D01*
X0569892Y0359176D01*
X0570597Y0359881D01*
X0570597Y0361290D01*
X0569892Y0361995D01*
X0569187Y0361995D01*
X0567778Y0361290D01*
X0567778Y0363404D01*
X0570597Y0363404D01*
X0580393Y0358215D02*
X0581098Y0358215D01*
X0583916Y0355396D01*
X0584621Y0355396D01*
X0584621Y0353865D02*
X0584621Y0351046D01*
X0584621Y0352455D02*
X0580393Y0352455D01*
X0581802Y0351046D01*
X0581098Y0349514D02*
X0582507Y0349514D01*
X0583212Y0348810D01*
X0583212Y0346696D01*
X0584621Y0346696D02*
X0580393Y0346696D01*
X0580393Y0348810D01*
X0581098Y0349514D01*
X0583212Y0348105D02*
X0584621Y0349514D01*
X0580393Y0355396D02*
X0580393Y0358215D01*
X0571117Y0345011D02*
X0566889Y0345011D01*
X0569003Y0342897D01*
X0569003Y0345715D01*
X0568298Y0341365D02*
X0567594Y0341365D01*
X0566889Y0340661D01*
X0566889Y0339251D01*
X0567594Y0338547D01*
X0567594Y0337015D02*
X0566889Y0336310D01*
X0566889Y0334901D01*
X0567594Y0334196D01*
X0570412Y0334196D01*
X0571117Y0334901D01*
X0571117Y0336310D01*
X0570412Y0337015D01*
X0571117Y0338547D02*
X0568298Y0341365D01*
X0571117Y0341365D02*
X0571117Y0338547D01*
X0596204Y0362676D02*
X0596909Y0361971D01*
X0598318Y0361971D01*
X0599023Y0362676D01*
X0600554Y0361971D02*
X0603373Y0361971D01*
X0601964Y0361971D02*
X0601964Y0366199D01*
X0600554Y0364790D01*
X0599023Y0365495D02*
X0598318Y0366199D01*
X0596909Y0366199D01*
X0596204Y0365495D01*
X0596204Y0362676D01*
X0604905Y0362676D02*
X0605609Y0361971D01*
X0607019Y0361971D01*
X0607723Y0362676D01*
X0607723Y0365495D01*
X0607019Y0366199D01*
X0605609Y0366199D01*
X0604905Y0365495D01*
X0604905Y0364790D01*
X0605609Y0364085D01*
X0607723Y0364085D01*
X0630343Y0364398D02*
X0630343Y0340776D01*
X0646091Y0340776D01*
X0646091Y0364398D01*
X0630343Y0364398D01*
X0624830Y0344022D02*
X0624830Y0341204D01*
X0622716Y0343318D01*
X0626944Y0343318D01*
X0626239Y0339672D02*
X0626944Y0338968D01*
X0626944Y0336854D01*
X0622716Y0336854D01*
X0622716Y0338968D01*
X0623420Y0339672D01*
X0626239Y0339672D01*
X0526372Y0233551D02*
X0526903Y0233020D01*
X0526903Y0231958D01*
X0527964Y0231958D01*
X0528495Y0231428D01*
X0528495Y0230366D01*
X0527434Y0229304D01*
X0526372Y0229304D01*
X0526372Y0231428D02*
X0526903Y0231958D01*
X0526372Y0233551D02*
X0525311Y0233551D01*
X0524249Y0232489D01*
X0524249Y0231428D01*
X0523117Y0230295D02*
X0524178Y0229234D01*
X0524178Y0228172D01*
X0522586Y0226580D01*
X0523647Y0225518D02*
X0520463Y0228703D01*
X0522055Y0230295D01*
X0523117Y0230295D01*
X0519330Y0227571D02*
X0518269Y0226509D01*
X0518800Y0227040D02*
X0521454Y0224386D01*
X0521454Y0223324D01*
X0520923Y0222794D01*
X0519861Y0222794D01*
X0480623Y0187056D02*
X0478500Y0184933D01*
X0478500Y0188118D01*
X0481684Y0184933D01*
X0477367Y0183801D02*
X0477367Y0182739D01*
X0475775Y0181147D01*
X0476836Y0180085D02*
X0473652Y0183270D01*
X0475244Y0184862D01*
X0476306Y0184862D01*
X0477367Y0183801D01*
X0472519Y0182138D02*
X0471458Y0181076D01*
X0471989Y0181607D02*
X0474642Y0178953D01*
X0474642Y0177891D01*
X0474112Y0177360D01*
X0473050Y0177360D01*
X0454456Y0214058D02*
X0451637Y0214058D01*
X0454456Y0216877D01*
X0454456Y0217581D01*
X0453751Y0218286D01*
X0452341Y0218286D01*
X0451637Y0217581D01*
X0448696Y0218286D02*
X0448696Y0214058D01*
X0447287Y0214058D02*
X0450105Y0214058D01*
X0447287Y0216877D02*
X0448696Y0218286D01*
X0445755Y0217581D02*
X0445050Y0218286D01*
X0443641Y0218286D01*
X0442936Y0217581D01*
X0442936Y0214763D01*
X0443641Y0214058D01*
X0445050Y0214058D01*
X0445755Y0214763D01*
X0455987Y0226459D02*
X0455987Y0230687D01*
X0458101Y0230687D01*
X0458806Y0229983D01*
X0458806Y0228573D01*
X0458101Y0227869D01*
X0455987Y0227869D01*
X0457396Y0227869D02*
X0458806Y0226459D01*
X0460337Y0226459D02*
X0463156Y0226459D01*
X0461747Y0226459D02*
X0461747Y0230687D01*
X0460337Y0229278D01*
X0422216Y0244865D02*
X0419213Y0244865D01*
X0420714Y0244865D02*
X0420714Y0249369D01*
X0419213Y0247868D01*
X0417612Y0249369D02*
X0416110Y0249369D01*
X0416861Y0249369D02*
X0416861Y0245616D01*
X0416110Y0244865D01*
X0415360Y0244865D01*
X0414609Y0245616D01*
X0397211Y0262930D02*
X0396214Y0261933D01*
X0395217Y0261933D01*
X0394719Y0263428D02*
X0395716Y0264425D01*
X0396712Y0264425D01*
X0397211Y0263927D01*
X0397211Y0262930D01*
X0398792Y0264511D02*
X0398792Y0266504D01*
X0400785Y0266504D01*
X0397795Y0269494D01*
X0399875Y0269580D02*
X0399875Y0271573D01*
X0402864Y0268584D01*
X0401868Y0267587D02*
X0403861Y0269580D01*
X0398792Y0264511D02*
X0395802Y0267501D01*
X0395217Y0265920D02*
X0394221Y0265920D01*
X0393224Y0264923D01*
X0393224Y0263927D01*
X0393723Y0263428D01*
X0394719Y0263428D01*
X0361286Y0134141D02*
X0361286Y0131322D01*
X0359172Y0133436D01*
X0363400Y0133436D01*
X0363400Y0129790D02*
X0361991Y0128381D01*
X0361991Y0129086D02*
X0361991Y0126972D01*
X0363400Y0126972D02*
X0359172Y0126972D01*
X0359172Y0129086D01*
X0359877Y0129790D01*
X0361286Y0129790D01*
X0361991Y0129086D01*
X0355301Y0125022D02*
X0352483Y0122203D01*
X0353187Y0121499D01*
X0354597Y0121499D01*
X0355301Y0122203D01*
X0355301Y0125022D01*
X0354597Y0125727D01*
X0353187Y0125727D01*
X0352483Y0125022D01*
X0352483Y0122203D01*
X0350951Y0121499D02*
X0348132Y0121499D01*
X0349542Y0121499D02*
X0349542Y0125727D01*
X0348132Y0124317D01*
X0346601Y0123613D02*
X0345896Y0122908D01*
X0343782Y0122908D01*
X0343782Y0121499D02*
X0343782Y0125727D01*
X0345896Y0125727D01*
X0346601Y0125022D01*
X0346601Y0123613D01*
X0345192Y0122908D02*
X0346601Y0121499D01*
X0341546Y0127601D02*
X0340137Y0127601D01*
X0339432Y0128306D01*
X0342251Y0131125D01*
X0342251Y0128306D01*
X0341546Y0127601D01*
X0339432Y0128306D02*
X0339432Y0131125D01*
X0340137Y0131829D01*
X0341546Y0131829D01*
X0342251Y0131125D01*
X0337901Y0127601D02*
X0335082Y0127601D01*
X0336491Y0127601D02*
X0336491Y0131829D01*
X0335082Y0130420D01*
X0333550Y0131125D02*
X0332846Y0131829D01*
X0331436Y0131829D01*
X0330732Y0131125D01*
X0330732Y0128306D01*
X0331436Y0127601D01*
X0332846Y0127601D01*
X0333550Y0128306D01*
X0361810Y0108888D02*
X0363924Y0106774D01*
X0363924Y0109593D01*
X0366038Y0108888D02*
X0361810Y0108888D01*
X0361810Y0103833D02*
X0366038Y0103833D01*
X0366038Y0102424D02*
X0366038Y0105242D01*
X0363220Y0102424D02*
X0361810Y0103833D01*
X0362515Y0100892D02*
X0361810Y0100188D01*
X0361810Y0098778D01*
X0362515Y0098074D01*
X0365334Y0098074D01*
X0366038Y0098778D01*
X0366038Y0100188D01*
X0365334Y0100892D01*
X0343038Y0084034D02*
X0341629Y0083329D01*
X0340220Y0081920D01*
X0342334Y0081920D01*
X0343038Y0081215D01*
X0343038Y0080511D01*
X0342334Y0079806D01*
X0340924Y0079806D01*
X0340220Y0080511D01*
X0340220Y0081920D01*
X0338688Y0083329D02*
X0337983Y0084034D01*
X0335869Y0084034D01*
X0335869Y0079806D01*
X0337983Y0079806D01*
X0338688Y0080511D01*
X0338688Y0083329D01*
X0339989Y0074438D02*
X0339989Y0058690D01*
X0363611Y0058690D01*
X0363611Y0074438D01*
X0339989Y0074438D01*
X0134302Y0342601D02*
X0132893Y0342601D01*
X0132188Y0343306D01*
X0132893Y0344715D02*
X0135007Y0344715D01*
X0135007Y0343306D02*
X0135007Y0346125D01*
X0134302Y0346829D01*
X0132893Y0346829D01*
X0132188Y0346125D01*
X0132188Y0345420D01*
X0132893Y0344715D01*
X0130657Y0344715D02*
X0129952Y0344011D01*
X0127838Y0344011D01*
X0129247Y0344011D02*
X0130657Y0342601D01*
X0130657Y0344715D02*
X0130657Y0346125D01*
X0129952Y0346829D01*
X0127838Y0346829D01*
X0127838Y0342601D01*
X0134302Y0342601D02*
X0135007Y0343306D01*
X0119227Y0348330D02*
X0114999Y0348330D01*
X0114999Y0350444D01*
X0115704Y0351149D01*
X0117113Y0351149D01*
X0117818Y0350444D01*
X0117818Y0348330D01*
X0117818Y0349740D02*
X0119227Y0351149D01*
X0119227Y0352680D02*
X0116408Y0355499D01*
X0115704Y0355499D01*
X0114999Y0354794D01*
X0114999Y0353385D01*
X0115704Y0352680D01*
X0119227Y0352680D02*
X0119227Y0355499D01*
X0118523Y0357031D02*
X0119227Y0357735D01*
X0119227Y0359145D01*
X0118523Y0359849D01*
X0117818Y0359849D01*
X0117113Y0359145D01*
X0117113Y0358440D01*
X0117113Y0359145D02*
X0116408Y0359849D01*
X0115704Y0359849D01*
X0114999Y0359145D01*
X0114999Y0357735D01*
X0115704Y0357031D01*
X0127598Y0360629D02*
X0128302Y0359924D01*
X0131121Y0359924D01*
X0131826Y0360629D01*
X0131826Y0362038D01*
X0131121Y0362743D01*
X0131121Y0364274D02*
X0131826Y0364979D01*
X0131826Y0366388D01*
X0131121Y0367093D01*
X0130416Y0367093D01*
X0129712Y0366388D01*
X0129712Y0365684D01*
X0129712Y0366388D02*
X0129007Y0367093D01*
X0128302Y0367093D01*
X0127598Y0366388D01*
X0127598Y0364979D01*
X0128302Y0364274D01*
X0128302Y0362743D02*
X0127598Y0362038D01*
X0127598Y0360629D01*
X0129712Y0368624D02*
X0129712Y0371443D01*
X0131826Y0370738D02*
X0127598Y0370738D01*
X0129712Y0368624D01*
X0103865Y0342542D02*
X0103160Y0343247D01*
X0101751Y0343247D01*
X0101046Y0342542D01*
X0101046Y0341837D01*
X0101751Y0341133D01*
X0103865Y0341133D01*
X0103865Y0342542D02*
X0103865Y0339723D01*
X0103160Y0339019D01*
X0101751Y0339019D01*
X0101046Y0339723D01*
X0099514Y0339723D02*
X0098810Y0339019D01*
X0097400Y0339019D01*
X0096696Y0339723D01*
X0096696Y0342542D01*
X0097400Y0343247D01*
X0098810Y0343247D01*
X0099514Y0342542D01*
X0083243Y0360515D02*
X0083243Y0362629D01*
X0082538Y0363333D01*
X0079720Y0363333D01*
X0079015Y0362629D01*
X0079015Y0360515D01*
X0083243Y0360515D01*
X0082538Y0364865D02*
X0083243Y0365569D01*
X0083243Y0366979D01*
X0082538Y0367683D01*
X0081129Y0367683D01*
X0080424Y0366979D01*
X0080424Y0366274D01*
X0081129Y0364865D01*
X0079015Y0364865D01*
X0079015Y0367683D01*
X0074831Y0363217D02*
X0059083Y0363217D01*
X0059083Y0339595D01*
X0074831Y0339595D01*
X0074831Y0363217D01*
D14*
X0061503Y0358613D02*
X0061503Y0355543D01*
X0058431Y0354676D02*
X0058431Y0351606D01*
X0058431Y0353141D02*
X0053827Y0353141D01*
X0055361Y0351606D01*
X0054594Y0350072D02*
X0053827Y0349304D01*
X0053827Y0347770D01*
X0054594Y0347002D01*
X0055361Y0347002D01*
X0056129Y0347770D01*
X0056129Y0349304D01*
X0056896Y0350072D01*
X0057663Y0350072D01*
X0058431Y0349304D01*
X0058431Y0347770D01*
X0057663Y0347002D01*
X0057663Y0345468D02*
X0053827Y0345468D01*
X0053827Y0342398D02*
X0057663Y0342398D01*
X0058431Y0343166D01*
X0058431Y0344700D01*
X0057663Y0345468D01*
X0059968Y0345267D02*
X0063037Y0345267D01*
X0061503Y0343732D02*
X0061503Y0346802D01*
X0059198Y0348537D02*
X0053059Y0348537D01*
X0054594Y0356210D02*
X0055361Y0356210D01*
X0056129Y0356978D01*
X0056129Y0359279D01*
X0057663Y0359279D02*
X0054594Y0359279D01*
X0053827Y0358512D01*
X0053827Y0356978D01*
X0054594Y0356210D01*
X0057663Y0356210D02*
X0058431Y0356978D01*
X0058431Y0358512D01*
X0057663Y0359279D01*
X0201253Y0503670D02*
X0202338Y0502584D01*
X0203423Y0502584D01*
X0206136Y0505297D01*
X0206678Y0503670D02*
X0207764Y0503670D01*
X0208849Y0502584D01*
X0208849Y0501499D01*
X0209934Y0500414D02*
X0211019Y0500414D01*
X0212104Y0499329D01*
X0212104Y0498244D01*
X0211562Y0497701D01*
X0210476Y0497701D01*
X0210476Y0496616D01*
X0209934Y0496073D01*
X0208849Y0496073D01*
X0207764Y0497159D01*
X0207764Y0498244D01*
X0206678Y0499329D02*
X0207221Y0499872D01*
X0207221Y0500957D01*
X0206136Y0502042D01*
X0206136Y0503127D01*
X0206678Y0503670D01*
X0208849Y0503670D02*
X0204508Y0499329D01*
X0204508Y0500414D02*
X0205593Y0499329D01*
X0206678Y0499329D01*
X0204508Y0500414D02*
X0204508Y0501499D01*
X0201253Y0503670D02*
X0201253Y0504755D01*
X0203966Y0507468D01*
X0209934Y0498244D02*
X0210476Y0497701D01*
X0231394Y0499591D02*
X0233022Y0497963D01*
X0234107Y0497963D01*
X0234650Y0498506D01*
X0234650Y0499591D01*
X0233022Y0501219D01*
X0234650Y0502846D02*
X0236277Y0501219D01*
X0236277Y0500133D01*
X0235735Y0499591D01*
X0234650Y0499591D01*
X0237363Y0499048D02*
X0238448Y0499048D01*
X0239533Y0497963D01*
X0239533Y0496878D01*
X0238990Y0496335D01*
X0234650Y0496335D01*
X0236820Y0494165D01*
X0231394Y0499591D02*
X0234650Y0502846D01*
X0309618Y0464679D02*
X0309618Y0462509D01*
X0307991Y0460881D01*
X0309618Y0462509D02*
X0311789Y0462509D01*
X0312331Y0463051D01*
X0312874Y0461423D02*
X0313959Y0461423D01*
X0315044Y0460338D01*
X0315044Y0459253D01*
X0314502Y0458710D01*
X0310161Y0458710D01*
X0312331Y0456540D01*
X0309618Y0464679D02*
X0310161Y0465221D01*
X0250931Y0396557D02*
X0246327Y0396557D01*
X0246327Y0393488D02*
X0250931Y0396557D01*
X0250931Y0393488D02*
X0246327Y0393488D01*
X0246327Y0391953D02*
X0250931Y0391953D01*
X0249396Y0390418D01*
X0250931Y0388884D01*
X0246327Y0388884D01*
X0247094Y0387349D02*
X0246327Y0386582D01*
X0246327Y0385047D01*
X0247094Y0384280D01*
X0250163Y0384280D01*
X0250931Y0385047D01*
X0250931Y0386582D01*
X0250163Y0387349D01*
X0247094Y0387349D01*
X0247094Y0382745D02*
X0246327Y0381978D01*
X0246327Y0379676D01*
X0250931Y0379676D01*
X0250931Y0381978D01*
X0250163Y0382745D01*
X0247094Y0382745D01*
X0251698Y0378141D02*
X0251698Y0375072D01*
X0249396Y0372770D02*
X0248629Y0373537D01*
X0247094Y0373537D01*
X0246327Y0372770D01*
X0246327Y0370468D01*
X0250931Y0370468D01*
X0250931Y0368933D02*
X0250931Y0365864D01*
X0246327Y0365864D01*
X0246327Y0368933D01*
X0248629Y0367399D02*
X0248629Y0365864D01*
X0246327Y0364330D02*
X0246327Y0361260D01*
X0246327Y0362795D02*
X0250931Y0362795D01*
X0250163Y0359726D02*
X0250931Y0358958D01*
X0250931Y0357424D01*
X0250163Y0356656D01*
X0248629Y0357424D02*
X0248629Y0358958D01*
X0249396Y0359726D01*
X0250163Y0359726D01*
X0248629Y0357424D02*
X0247861Y0356656D01*
X0247094Y0356656D01*
X0246327Y0357424D01*
X0246327Y0358958D01*
X0247094Y0359726D01*
X0249396Y0370468D02*
X0249396Y0372770D01*
X0295615Y0382708D02*
X0298328Y0379995D01*
X0299413Y0379995D01*
X0300498Y0381081D01*
X0300498Y0382166D01*
X0297785Y0384879D01*
X0299413Y0385421D02*
X0299413Y0386506D01*
X0300498Y0387591D01*
X0301583Y0387591D01*
X0302669Y0388677D02*
X0302669Y0389762D01*
X0303754Y0390847D01*
X0304839Y0390847D01*
X0305381Y0390304D01*
X0305381Y0385964D01*
X0307552Y0388134D01*
X0303754Y0385421D02*
X0303211Y0385964D01*
X0302126Y0385964D01*
X0301041Y0384879D01*
X0299956Y0384879D01*
X0299413Y0385421D01*
X0299413Y0387591D02*
X0303754Y0383251D01*
X0303754Y0384336D02*
X0303754Y0385421D01*
X0303754Y0384336D02*
X0302669Y0383251D01*
X0301583Y0383251D01*
X0356522Y0341239D02*
X0360863Y0336899D01*
X0360863Y0337984D02*
X0360863Y0339069D01*
X0360320Y0339612D01*
X0359235Y0339612D01*
X0358150Y0338526D01*
X0357065Y0338526D01*
X0356522Y0339069D01*
X0356522Y0340154D01*
X0357607Y0341239D01*
X0358693Y0341239D01*
X0360320Y0341782D02*
X0360320Y0343952D01*
X0363576Y0340697D01*
X0362491Y0339612D02*
X0364661Y0341782D01*
X0360863Y0337984D02*
X0359778Y0336899D01*
X0358693Y0336899D01*
X0357608Y0335814D02*
X0354895Y0338526D01*
X0352724Y0336356D02*
X0355437Y0333643D01*
X0356522Y0333643D01*
X0357607Y0334728D01*
X0357608Y0335814D01*
X0356805Y0062648D02*
X0356805Y0059578D01*
X0357371Y0058041D02*
X0354302Y0058041D01*
X0354302Y0055739D01*
X0355837Y0056506D01*
X0356604Y0056506D01*
X0357371Y0055739D01*
X0357371Y0054204D01*
X0356604Y0053437D01*
X0355069Y0053437D01*
X0354302Y0054204D01*
X0352767Y0054204D02*
X0352767Y0054972D01*
X0352000Y0055739D01*
X0350465Y0055739D01*
X0349698Y0056506D01*
X0349698Y0057274D01*
X0350465Y0058041D01*
X0352000Y0058041D01*
X0352767Y0057274D01*
X0351233Y0058808D02*
X0351233Y0052670D01*
X0352000Y0053437D02*
X0352767Y0054204D01*
X0352000Y0053437D02*
X0350465Y0053437D01*
X0349698Y0054204D01*
X0348163Y0054204D02*
X0348163Y0058041D01*
X0345094Y0058041D02*
X0345094Y0054204D01*
X0345861Y0053437D01*
X0347396Y0053437D01*
X0348163Y0054204D01*
X0346528Y0061113D02*
X0343459Y0061113D01*
X0355270Y0061113D02*
X0358339Y0061113D01*
X0643668Y0344246D02*
X0643668Y0347316D01*
X0646740Y0346649D02*
X0650577Y0346649D01*
X0651344Y0345881D01*
X0651344Y0344347D01*
X0650577Y0343580D01*
X0646740Y0343580D01*
X0647507Y0348183D02*
X0646740Y0348951D01*
X0646740Y0350485D01*
X0647507Y0351253D01*
X0648275Y0352787D02*
X0646740Y0354322D01*
X0651344Y0354322D01*
X0651344Y0352787D02*
X0651344Y0355857D01*
X0650577Y0357391D02*
X0651344Y0358159D01*
X0651344Y0359693D01*
X0650577Y0360461D01*
X0649809Y0360461D01*
X0649042Y0359693D01*
X0649042Y0358926D01*
X0649042Y0359693D02*
X0648275Y0360461D01*
X0647507Y0360461D01*
X0646740Y0359693D01*
X0646740Y0358159D01*
X0647507Y0357391D01*
X0645203Y0357592D02*
X0642133Y0357592D01*
X0643668Y0356057D02*
X0643668Y0359127D01*
X0645973Y0349718D02*
X0652111Y0349718D01*
X0651344Y0348951D02*
X0651344Y0350485D01*
X0650577Y0351253D01*
X0649809Y0351253D01*
X0649042Y0350485D01*
X0649042Y0348951D01*
X0648275Y0348183D01*
X0647507Y0348183D01*
X0650577Y0348183D02*
X0651344Y0348951D01*
X0360975Y0644459D02*
X0357906Y0644459D01*
X0358572Y0647531D02*
X0358572Y0648299D01*
X0361642Y0651368D01*
X0361642Y0652135D01*
X0358572Y0652135D01*
X0355503Y0652135D02*
X0355503Y0647531D01*
X0353968Y0647531D02*
X0357038Y0647531D01*
X0353968Y0650601D02*
X0355503Y0652135D01*
X0352434Y0651368D02*
X0351667Y0652135D01*
X0350132Y0652135D01*
X0349365Y0651368D01*
X0349365Y0650601D01*
X0350132Y0649833D01*
X0351667Y0649833D01*
X0352434Y0649066D01*
X0352434Y0648299D01*
X0351667Y0647531D01*
X0350132Y0647531D01*
X0349365Y0648299D01*
X0347830Y0648299D02*
X0347830Y0652135D01*
X0344761Y0652135D02*
X0344761Y0648299D01*
X0345528Y0647531D01*
X0347063Y0647531D01*
X0347830Y0648299D01*
X0347629Y0645994D02*
X0347629Y0642925D01*
X0346094Y0644459D02*
X0349164Y0644459D01*
X0350899Y0646764D02*
X0350899Y0652903D01*
D15*
X0336353Y0406201D02*
X0336355Y0406306D01*
X0336361Y0406411D01*
X0336371Y0406515D01*
X0336385Y0406619D01*
X0336403Y0406723D01*
X0336425Y0406825D01*
X0336450Y0406927D01*
X0336480Y0407028D01*
X0336513Y0407127D01*
X0336550Y0407225D01*
X0336591Y0407322D01*
X0336636Y0407417D01*
X0336684Y0407510D01*
X0336735Y0407602D01*
X0336791Y0407691D01*
X0336849Y0407778D01*
X0336911Y0407863D01*
X0336975Y0407946D01*
X0337043Y0408026D01*
X0337114Y0408103D01*
X0337188Y0408177D01*
X0337265Y0408249D01*
X0337344Y0408318D01*
X0337426Y0408383D01*
X0337510Y0408446D01*
X0337597Y0408505D01*
X0337686Y0408561D01*
X0337777Y0408614D01*
X0337870Y0408663D01*
X0337964Y0408708D01*
X0338060Y0408750D01*
X0338158Y0408788D01*
X0338257Y0408822D01*
X0338358Y0408853D01*
X0338459Y0408879D01*
X0338562Y0408902D01*
X0338665Y0408921D01*
X0338769Y0408936D01*
X0338873Y0408947D01*
X0338978Y0408954D01*
X0339083Y0408957D01*
X0339188Y0408956D01*
X0339293Y0408951D01*
X0339397Y0408942D01*
X0339501Y0408929D01*
X0339605Y0408912D01*
X0339708Y0408891D01*
X0339810Y0408866D01*
X0339911Y0408838D01*
X0340010Y0408805D01*
X0340109Y0408769D01*
X0340206Y0408729D01*
X0340301Y0408686D01*
X0340395Y0408638D01*
X0340487Y0408588D01*
X0340577Y0408534D01*
X0340665Y0408476D01*
X0340750Y0408415D01*
X0340833Y0408351D01*
X0340914Y0408284D01*
X0340992Y0408214D01*
X0341067Y0408140D01*
X0341139Y0408065D01*
X0341209Y0407986D01*
X0341275Y0407905D01*
X0341339Y0407821D01*
X0341399Y0407735D01*
X0341455Y0407647D01*
X0341509Y0407556D01*
X0341559Y0407464D01*
X0341605Y0407370D01*
X0341648Y0407274D01*
X0341687Y0407176D01*
X0341722Y0407078D01*
X0341753Y0406977D01*
X0341781Y0406876D01*
X0341805Y0406774D01*
X0341825Y0406671D01*
X0341841Y0406567D01*
X0341853Y0406463D01*
X0341861Y0406358D01*
X0341865Y0406253D01*
X0341865Y0406149D01*
X0341861Y0406044D01*
X0341853Y0405939D01*
X0341841Y0405835D01*
X0341825Y0405731D01*
X0341805Y0405628D01*
X0341781Y0405526D01*
X0341753Y0405425D01*
X0341722Y0405324D01*
X0341687Y0405226D01*
X0341648Y0405128D01*
X0341605Y0405032D01*
X0341559Y0404938D01*
X0341509Y0404846D01*
X0341455Y0404755D01*
X0341399Y0404667D01*
X0341339Y0404581D01*
X0341275Y0404497D01*
X0341209Y0404416D01*
X0341139Y0404337D01*
X0341067Y0404262D01*
X0340992Y0404188D01*
X0340914Y0404118D01*
X0340833Y0404051D01*
X0340750Y0403987D01*
X0340665Y0403926D01*
X0340577Y0403868D01*
X0340487Y0403814D01*
X0340395Y0403764D01*
X0340301Y0403716D01*
X0340206Y0403673D01*
X0340109Y0403633D01*
X0340010Y0403597D01*
X0339911Y0403564D01*
X0339810Y0403536D01*
X0339708Y0403511D01*
X0339605Y0403490D01*
X0339501Y0403473D01*
X0339397Y0403460D01*
X0339293Y0403451D01*
X0339188Y0403446D01*
X0339083Y0403445D01*
X0338978Y0403448D01*
X0338873Y0403455D01*
X0338769Y0403466D01*
X0338665Y0403481D01*
X0338562Y0403500D01*
X0338459Y0403523D01*
X0338358Y0403549D01*
X0338257Y0403580D01*
X0338158Y0403614D01*
X0338060Y0403652D01*
X0337964Y0403694D01*
X0337870Y0403739D01*
X0337777Y0403788D01*
X0337686Y0403841D01*
X0337597Y0403897D01*
X0337510Y0403956D01*
X0337426Y0404019D01*
X0337344Y0404084D01*
X0337265Y0404153D01*
X0337188Y0404225D01*
X0337114Y0404299D01*
X0337043Y0404376D01*
X0336975Y0404456D01*
X0336911Y0404539D01*
X0336849Y0404624D01*
X0336791Y0404711D01*
X0336735Y0404800D01*
X0336684Y0404892D01*
X0336636Y0404985D01*
X0336591Y0405080D01*
X0336550Y0405177D01*
X0336513Y0405275D01*
X0336480Y0405374D01*
X0336450Y0405475D01*
X0336425Y0405577D01*
X0336403Y0405679D01*
X0336385Y0405783D01*
X0336371Y0405887D01*
X0336361Y0405991D01*
X0336355Y0406096D01*
X0336353Y0406201D01*
X0295430Y0365278D02*
X0295432Y0365383D01*
X0295438Y0365488D01*
X0295448Y0365592D01*
X0295462Y0365696D01*
X0295480Y0365800D01*
X0295502Y0365902D01*
X0295527Y0366004D01*
X0295557Y0366105D01*
X0295590Y0366204D01*
X0295627Y0366302D01*
X0295668Y0366399D01*
X0295713Y0366494D01*
X0295761Y0366587D01*
X0295812Y0366679D01*
X0295868Y0366768D01*
X0295926Y0366855D01*
X0295988Y0366940D01*
X0296052Y0367023D01*
X0296120Y0367103D01*
X0296191Y0367180D01*
X0296265Y0367254D01*
X0296342Y0367326D01*
X0296421Y0367395D01*
X0296503Y0367460D01*
X0296587Y0367523D01*
X0296674Y0367582D01*
X0296763Y0367638D01*
X0296854Y0367691D01*
X0296947Y0367740D01*
X0297041Y0367785D01*
X0297137Y0367827D01*
X0297235Y0367865D01*
X0297334Y0367899D01*
X0297435Y0367930D01*
X0297536Y0367956D01*
X0297639Y0367979D01*
X0297742Y0367998D01*
X0297846Y0368013D01*
X0297950Y0368024D01*
X0298055Y0368031D01*
X0298160Y0368034D01*
X0298265Y0368033D01*
X0298370Y0368028D01*
X0298474Y0368019D01*
X0298578Y0368006D01*
X0298682Y0367989D01*
X0298785Y0367968D01*
X0298887Y0367943D01*
X0298988Y0367915D01*
X0299087Y0367882D01*
X0299186Y0367846D01*
X0299283Y0367806D01*
X0299378Y0367763D01*
X0299472Y0367715D01*
X0299564Y0367665D01*
X0299654Y0367611D01*
X0299742Y0367553D01*
X0299827Y0367492D01*
X0299910Y0367428D01*
X0299991Y0367361D01*
X0300069Y0367291D01*
X0300144Y0367217D01*
X0300216Y0367142D01*
X0300286Y0367063D01*
X0300352Y0366982D01*
X0300416Y0366898D01*
X0300476Y0366812D01*
X0300532Y0366724D01*
X0300586Y0366633D01*
X0300636Y0366541D01*
X0300682Y0366447D01*
X0300725Y0366351D01*
X0300764Y0366253D01*
X0300799Y0366155D01*
X0300830Y0366054D01*
X0300858Y0365953D01*
X0300882Y0365851D01*
X0300902Y0365748D01*
X0300918Y0365644D01*
X0300930Y0365540D01*
X0300938Y0365435D01*
X0300942Y0365330D01*
X0300942Y0365226D01*
X0300938Y0365121D01*
X0300930Y0365016D01*
X0300918Y0364912D01*
X0300902Y0364808D01*
X0300882Y0364705D01*
X0300858Y0364603D01*
X0300830Y0364502D01*
X0300799Y0364401D01*
X0300764Y0364303D01*
X0300725Y0364205D01*
X0300682Y0364109D01*
X0300636Y0364015D01*
X0300586Y0363923D01*
X0300532Y0363832D01*
X0300476Y0363744D01*
X0300416Y0363658D01*
X0300352Y0363574D01*
X0300286Y0363493D01*
X0300216Y0363414D01*
X0300144Y0363339D01*
X0300069Y0363265D01*
X0299991Y0363195D01*
X0299910Y0363128D01*
X0299827Y0363064D01*
X0299742Y0363003D01*
X0299654Y0362945D01*
X0299564Y0362891D01*
X0299472Y0362841D01*
X0299378Y0362793D01*
X0299283Y0362750D01*
X0299186Y0362710D01*
X0299087Y0362674D01*
X0298988Y0362641D01*
X0298887Y0362613D01*
X0298785Y0362588D01*
X0298682Y0362567D01*
X0298578Y0362550D01*
X0298474Y0362537D01*
X0298370Y0362528D01*
X0298265Y0362523D01*
X0298160Y0362522D01*
X0298055Y0362525D01*
X0297950Y0362532D01*
X0297846Y0362543D01*
X0297742Y0362558D01*
X0297639Y0362577D01*
X0297536Y0362600D01*
X0297435Y0362626D01*
X0297334Y0362657D01*
X0297235Y0362691D01*
X0297137Y0362729D01*
X0297041Y0362771D01*
X0296947Y0362816D01*
X0296854Y0362865D01*
X0296763Y0362918D01*
X0296674Y0362974D01*
X0296587Y0363033D01*
X0296503Y0363096D01*
X0296421Y0363161D01*
X0296342Y0363230D01*
X0296265Y0363302D01*
X0296191Y0363376D01*
X0296120Y0363453D01*
X0296052Y0363533D01*
X0295988Y0363616D01*
X0295926Y0363701D01*
X0295868Y0363788D01*
X0295812Y0363877D01*
X0295761Y0363969D01*
X0295713Y0364062D01*
X0295668Y0364157D01*
X0295627Y0364254D01*
X0295590Y0364352D01*
X0295557Y0364451D01*
X0295527Y0364552D01*
X0295502Y0364654D01*
X0295480Y0364756D01*
X0295462Y0364860D01*
X0295448Y0364964D01*
X0295438Y0365068D01*
X0295432Y0365173D01*
X0295430Y0365278D01*
X0362522Y0298186D02*
X0362524Y0298291D01*
X0362530Y0298396D01*
X0362540Y0298500D01*
X0362554Y0298604D01*
X0362572Y0298708D01*
X0362594Y0298810D01*
X0362619Y0298912D01*
X0362649Y0299013D01*
X0362682Y0299112D01*
X0362719Y0299210D01*
X0362760Y0299307D01*
X0362805Y0299402D01*
X0362853Y0299495D01*
X0362904Y0299587D01*
X0362960Y0299676D01*
X0363018Y0299763D01*
X0363080Y0299848D01*
X0363144Y0299931D01*
X0363212Y0300011D01*
X0363283Y0300088D01*
X0363357Y0300162D01*
X0363434Y0300234D01*
X0363513Y0300303D01*
X0363595Y0300368D01*
X0363679Y0300431D01*
X0363766Y0300490D01*
X0363855Y0300546D01*
X0363946Y0300599D01*
X0364039Y0300648D01*
X0364133Y0300693D01*
X0364229Y0300735D01*
X0364327Y0300773D01*
X0364426Y0300807D01*
X0364527Y0300838D01*
X0364628Y0300864D01*
X0364731Y0300887D01*
X0364834Y0300906D01*
X0364938Y0300921D01*
X0365042Y0300932D01*
X0365147Y0300939D01*
X0365252Y0300942D01*
X0365357Y0300941D01*
X0365462Y0300936D01*
X0365566Y0300927D01*
X0365670Y0300914D01*
X0365774Y0300897D01*
X0365877Y0300876D01*
X0365979Y0300851D01*
X0366080Y0300823D01*
X0366179Y0300790D01*
X0366278Y0300754D01*
X0366375Y0300714D01*
X0366470Y0300671D01*
X0366564Y0300623D01*
X0366656Y0300573D01*
X0366746Y0300519D01*
X0366834Y0300461D01*
X0366919Y0300400D01*
X0367002Y0300336D01*
X0367083Y0300269D01*
X0367161Y0300199D01*
X0367236Y0300125D01*
X0367308Y0300050D01*
X0367378Y0299971D01*
X0367444Y0299890D01*
X0367508Y0299806D01*
X0367568Y0299720D01*
X0367624Y0299632D01*
X0367678Y0299541D01*
X0367728Y0299449D01*
X0367774Y0299355D01*
X0367817Y0299259D01*
X0367856Y0299161D01*
X0367891Y0299063D01*
X0367922Y0298962D01*
X0367950Y0298861D01*
X0367974Y0298759D01*
X0367994Y0298656D01*
X0368010Y0298552D01*
X0368022Y0298448D01*
X0368030Y0298343D01*
X0368034Y0298238D01*
X0368034Y0298134D01*
X0368030Y0298029D01*
X0368022Y0297924D01*
X0368010Y0297820D01*
X0367994Y0297716D01*
X0367974Y0297613D01*
X0367950Y0297511D01*
X0367922Y0297410D01*
X0367891Y0297309D01*
X0367856Y0297211D01*
X0367817Y0297113D01*
X0367774Y0297017D01*
X0367728Y0296923D01*
X0367678Y0296831D01*
X0367624Y0296740D01*
X0367568Y0296652D01*
X0367508Y0296566D01*
X0367444Y0296482D01*
X0367378Y0296401D01*
X0367308Y0296322D01*
X0367236Y0296247D01*
X0367161Y0296173D01*
X0367083Y0296103D01*
X0367002Y0296036D01*
X0366919Y0295972D01*
X0366834Y0295911D01*
X0366746Y0295853D01*
X0366656Y0295799D01*
X0366564Y0295749D01*
X0366470Y0295701D01*
X0366375Y0295658D01*
X0366278Y0295618D01*
X0366179Y0295582D01*
X0366080Y0295549D01*
X0365979Y0295521D01*
X0365877Y0295496D01*
X0365774Y0295475D01*
X0365670Y0295458D01*
X0365566Y0295445D01*
X0365462Y0295436D01*
X0365357Y0295431D01*
X0365252Y0295430D01*
X0365147Y0295433D01*
X0365042Y0295440D01*
X0364938Y0295451D01*
X0364834Y0295466D01*
X0364731Y0295485D01*
X0364628Y0295508D01*
X0364527Y0295534D01*
X0364426Y0295565D01*
X0364327Y0295599D01*
X0364229Y0295637D01*
X0364133Y0295679D01*
X0364039Y0295724D01*
X0363946Y0295773D01*
X0363855Y0295826D01*
X0363766Y0295882D01*
X0363679Y0295941D01*
X0363595Y0296004D01*
X0363513Y0296069D01*
X0363434Y0296138D01*
X0363357Y0296210D01*
X0363283Y0296284D01*
X0363212Y0296361D01*
X0363144Y0296441D01*
X0363080Y0296524D01*
X0363018Y0296609D01*
X0362960Y0296696D01*
X0362904Y0296785D01*
X0362853Y0296877D01*
X0362805Y0296970D01*
X0362760Y0297065D01*
X0362719Y0297162D01*
X0362682Y0297260D01*
X0362649Y0297359D01*
X0362619Y0297460D01*
X0362594Y0297562D01*
X0362572Y0297664D01*
X0362554Y0297768D01*
X0362540Y0297872D01*
X0362530Y0297976D01*
X0362524Y0298081D01*
X0362522Y0298186D01*
X0403445Y0339109D02*
X0403447Y0339214D01*
X0403453Y0339319D01*
X0403463Y0339423D01*
X0403477Y0339527D01*
X0403495Y0339631D01*
X0403517Y0339733D01*
X0403542Y0339835D01*
X0403572Y0339936D01*
X0403605Y0340035D01*
X0403642Y0340133D01*
X0403683Y0340230D01*
X0403728Y0340325D01*
X0403776Y0340418D01*
X0403827Y0340510D01*
X0403883Y0340599D01*
X0403941Y0340686D01*
X0404003Y0340771D01*
X0404067Y0340854D01*
X0404135Y0340934D01*
X0404206Y0341011D01*
X0404280Y0341085D01*
X0404357Y0341157D01*
X0404436Y0341226D01*
X0404518Y0341291D01*
X0404602Y0341354D01*
X0404689Y0341413D01*
X0404778Y0341469D01*
X0404869Y0341522D01*
X0404962Y0341571D01*
X0405056Y0341616D01*
X0405152Y0341658D01*
X0405250Y0341696D01*
X0405349Y0341730D01*
X0405450Y0341761D01*
X0405551Y0341787D01*
X0405654Y0341810D01*
X0405757Y0341829D01*
X0405861Y0341844D01*
X0405965Y0341855D01*
X0406070Y0341862D01*
X0406175Y0341865D01*
X0406280Y0341864D01*
X0406385Y0341859D01*
X0406489Y0341850D01*
X0406593Y0341837D01*
X0406697Y0341820D01*
X0406800Y0341799D01*
X0406902Y0341774D01*
X0407003Y0341746D01*
X0407102Y0341713D01*
X0407201Y0341677D01*
X0407298Y0341637D01*
X0407393Y0341594D01*
X0407487Y0341546D01*
X0407579Y0341496D01*
X0407669Y0341442D01*
X0407757Y0341384D01*
X0407842Y0341323D01*
X0407925Y0341259D01*
X0408006Y0341192D01*
X0408084Y0341122D01*
X0408159Y0341048D01*
X0408231Y0340973D01*
X0408301Y0340894D01*
X0408367Y0340813D01*
X0408431Y0340729D01*
X0408491Y0340643D01*
X0408547Y0340555D01*
X0408601Y0340464D01*
X0408651Y0340372D01*
X0408697Y0340278D01*
X0408740Y0340182D01*
X0408779Y0340084D01*
X0408814Y0339986D01*
X0408845Y0339885D01*
X0408873Y0339784D01*
X0408897Y0339682D01*
X0408917Y0339579D01*
X0408933Y0339475D01*
X0408945Y0339371D01*
X0408953Y0339266D01*
X0408957Y0339161D01*
X0408957Y0339057D01*
X0408953Y0338952D01*
X0408945Y0338847D01*
X0408933Y0338743D01*
X0408917Y0338639D01*
X0408897Y0338536D01*
X0408873Y0338434D01*
X0408845Y0338333D01*
X0408814Y0338232D01*
X0408779Y0338134D01*
X0408740Y0338036D01*
X0408697Y0337940D01*
X0408651Y0337846D01*
X0408601Y0337754D01*
X0408547Y0337663D01*
X0408491Y0337575D01*
X0408431Y0337489D01*
X0408367Y0337405D01*
X0408301Y0337324D01*
X0408231Y0337245D01*
X0408159Y0337170D01*
X0408084Y0337096D01*
X0408006Y0337026D01*
X0407925Y0336959D01*
X0407842Y0336895D01*
X0407757Y0336834D01*
X0407669Y0336776D01*
X0407579Y0336722D01*
X0407487Y0336672D01*
X0407393Y0336624D01*
X0407298Y0336581D01*
X0407201Y0336541D01*
X0407102Y0336505D01*
X0407003Y0336472D01*
X0406902Y0336444D01*
X0406800Y0336419D01*
X0406697Y0336398D01*
X0406593Y0336381D01*
X0406489Y0336368D01*
X0406385Y0336359D01*
X0406280Y0336354D01*
X0406175Y0336353D01*
X0406070Y0336356D01*
X0405965Y0336363D01*
X0405861Y0336374D01*
X0405757Y0336389D01*
X0405654Y0336408D01*
X0405551Y0336431D01*
X0405450Y0336457D01*
X0405349Y0336488D01*
X0405250Y0336522D01*
X0405152Y0336560D01*
X0405056Y0336602D01*
X0404962Y0336647D01*
X0404869Y0336696D01*
X0404778Y0336749D01*
X0404689Y0336805D01*
X0404602Y0336864D01*
X0404518Y0336927D01*
X0404436Y0336992D01*
X0404357Y0337061D01*
X0404280Y0337133D01*
X0404206Y0337207D01*
X0404135Y0337284D01*
X0404067Y0337364D01*
X0404003Y0337447D01*
X0403941Y0337532D01*
X0403883Y0337619D01*
X0403827Y0337708D01*
X0403776Y0337800D01*
X0403728Y0337893D01*
X0403683Y0337988D01*
X0403642Y0338085D01*
X0403605Y0338183D01*
X0403572Y0338282D01*
X0403542Y0338383D01*
X0403517Y0338485D01*
X0403495Y0338587D01*
X0403477Y0338691D01*
X0403463Y0338795D01*
X0403453Y0338899D01*
X0403447Y0339004D01*
X0403445Y0339109D01*
D16*
X0401603Y0290688D02*
X0384566Y0273650D01*
X0401603Y0256613D01*
X0412961Y0267971D01*
X0412961Y0279330D02*
X0401603Y0290688D01*
X0451800Y0229635D02*
X0459674Y0229635D01*
X0459674Y0222784D02*
X0451800Y0222784D01*
X0451800Y0222036D02*
X0459674Y0222036D01*
X0459674Y0215028D02*
X0451800Y0215028D01*
X0362351Y0139359D02*
X0362351Y0131485D01*
X0355501Y0131485D02*
X0355501Y0139359D01*
X0347469Y0135580D02*
X0339595Y0135580D01*
X0339595Y0128572D02*
X0347469Y0128572D01*
X0347469Y0124674D02*
X0339595Y0124674D01*
X0339595Y0117824D02*
X0347469Y0117824D01*
X0357233Y0112194D02*
X0357233Y0080166D01*
X0375343Y0080166D01*
X0375343Y0112194D01*
X0354044Y0087824D02*
X0354044Y0080737D01*
X0339005Y0080737D01*
X0339005Y0087824D02*
X0354044Y0087824D01*
X0229737Y0163611D02*
X0225023Y0158897D01*
X0220309Y0158897D02*
X0151955Y0227251D01*
X0159027Y0234322D01*
X0229737Y0163611D01*
X0320894Y0319280D02*
X0328769Y0319280D01*
X0328769Y0326131D02*
X0320894Y0326131D01*
X0321091Y0328060D02*
X0313217Y0328060D01*
X0313217Y0334910D02*
X0321091Y0334910D01*
X0331437Y0360712D02*
X0325869Y0366279D01*
X0330824Y0371235D02*
X0336392Y0365667D01*
X0336949Y0366223D02*
X0331381Y0371791D01*
X0336336Y0376747D02*
X0341904Y0371179D01*
X0342461Y0371735D02*
X0336893Y0377303D01*
X0341848Y0382258D02*
X0347416Y0376691D01*
X0347972Y0377247D02*
X0342405Y0382815D01*
X0347360Y0387770D02*
X0352928Y0382202D01*
X0353484Y0382759D02*
X0347916Y0388327D01*
X0352872Y0393282D02*
X0358439Y0387714D01*
X0330846Y0434924D02*
X0325279Y0440492D01*
X0330234Y0445447D02*
X0335802Y0439880D01*
X0336949Y0441027D02*
X0331381Y0446594D01*
X0336336Y0451550D02*
X0341904Y0445982D01*
X0334390Y0467601D02*
X0328822Y0473169D01*
X0324547Y0477247D02*
X0318979Y0482815D01*
X0323935Y0487770D02*
X0329502Y0482202D01*
X0333777Y0478125D02*
X0339345Y0472557D01*
X0311983Y0481043D02*
X0306415Y0475475D01*
X0301460Y0480431D02*
X0307027Y0485999D01*
X0241083Y0424778D02*
X0235515Y0419210D01*
X0240470Y0414255D02*
X0246038Y0419823D01*
X0249398Y0384674D02*
X0249398Y0376800D01*
X0242391Y0376800D02*
X0242391Y0384674D01*
X0241328Y0377784D02*
X0241328Y0369910D01*
X0234320Y0369910D02*
X0234320Y0377784D01*
X0273296Y0375422D02*
X0273296Y0383296D01*
X0280304Y0383296D02*
X0280304Y0375422D01*
X0287558Y0381254D02*
X0292272Y0376540D01*
X0306415Y0390682D01*
X0299344Y0397753D01*
X0287558Y0385968D01*
X0219998Y0477641D02*
X0225565Y0483209D01*
X0220610Y0488164D02*
X0215042Y0482596D01*
X0214486Y0483153D02*
X0220054Y0488720D01*
X0215098Y0493676D02*
X0209531Y0488108D01*
X0329871Y0595068D02*
X0329871Y0627095D01*
X0347981Y0627095D01*
X0347981Y0595068D01*
X0355855Y0592469D02*
X0363729Y0592469D01*
X0363729Y0585619D02*
X0355855Y0585619D01*
X0355461Y0574989D02*
X0363335Y0574989D01*
X0363335Y0567981D02*
X0355461Y0567981D01*
X0349123Y0569910D02*
X0349123Y0562036D01*
X0342272Y0562036D02*
X0342272Y0569910D01*
X0351524Y0619320D02*
X0351524Y0626406D01*
X0366564Y0626406D01*
X0366564Y0619320D02*
X0351524Y0619320D01*
X0434083Y0554831D02*
X0441957Y0554831D01*
X0441957Y0547981D02*
X0434083Y0547981D01*
X0543139Y0421761D02*
X0551013Y0421761D01*
X0551013Y0414910D02*
X0543139Y0414910D01*
X0559241Y0362351D02*
X0567115Y0362351D01*
X0567115Y0355501D02*
X0559241Y0355501D01*
X0563139Y0350934D02*
X0563139Y0343060D01*
X0570146Y0343060D02*
X0570146Y0350934D01*
X0581446Y0350383D02*
X0581446Y0342509D01*
X0588296Y0342509D02*
X0588296Y0350383D01*
X0594635Y0357391D02*
X0626662Y0357391D01*
X0626662Y0375501D01*
X0594635Y0375501D01*
X0618926Y0355028D02*
X0626013Y0355028D01*
X0626013Y0339989D01*
X0618926Y0339989D02*
X0618926Y0355028D01*
X0140225Y0350501D02*
X0132351Y0350501D01*
X0135580Y0355737D02*
X0135580Y0363611D01*
X0128572Y0363611D02*
X0128572Y0355737D01*
X0118178Y0357194D02*
X0118178Y0365068D01*
X0111328Y0365068D02*
X0111328Y0357194D01*
X0110816Y0347824D02*
X0078788Y0347824D01*
X0078788Y0329713D01*
X0110816Y0329713D01*
X0132351Y0343650D02*
X0140225Y0343650D01*
X0087036Y0350540D02*
X0079950Y0350540D01*
X0079950Y0365580D01*
X0087036Y0365580D02*
X0087036Y0350540D01*
D17*
X0452070Y0539134D02*
X0457638Y0533566D01*
X0460979Y0536907D01*
X0455411Y0542475D01*
X0452070Y0539134D01*
X0455817Y0538728D02*
X0456878Y0536960D01*
X0457585Y0537667D01*
X0455817Y0538728D01*
X0543600Y0450742D02*
X0540259Y0447402D01*
X0545827Y0441834D01*
X0549168Y0445175D01*
X0543600Y0450742D01*
X0544006Y0446995D02*
X0545067Y0445228D01*
X0545774Y0445935D01*
X0544006Y0446995D01*
D18*
X0546057Y0245215D02*
X0549592Y0245215D01*
X0553128Y0241679D01*
X0553128Y0238143D01*
X0549592Y0234608D01*
X0546057Y0234608D01*
X0546057Y0231072D01*
X0542521Y0227537D01*
X0538986Y0227537D01*
X0538986Y0224001D01*
X0535450Y0220466D01*
X0531915Y0220466D01*
X0531915Y0216930D01*
X0528379Y0213395D01*
X0524844Y0213395D01*
X0524844Y0209859D01*
X0521308Y0206324D01*
X0517773Y0206324D01*
X0517773Y0202788D01*
X0514237Y0199253D01*
X0510702Y0199253D01*
X0507166Y0202788D01*
X0507166Y0206324D01*
X0510702Y0209859D01*
X0514237Y0209859D01*
X0514237Y0213395D01*
X0517773Y0216930D01*
X0521308Y0216930D01*
X0521308Y0220466D01*
X0524844Y0224001D01*
X0528379Y0224001D01*
X0528379Y0227537D01*
X0531915Y0231072D01*
X0535450Y0231072D01*
X0535450Y0234608D01*
X0538986Y0238143D01*
X0542521Y0238143D01*
X0542521Y0241679D01*
X0546057Y0245215D01*
X0502781Y0199781D02*
X0506317Y0196246D01*
X0506317Y0192710D01*
X0502781Y0189175D01*
X0499246Y0189175D01*
X0499246Y0185639D01*
X0495710Y0182104D01*
X0492175Y0182104D01*
X0492175Y0178568D01*
X0488639Y0175033D01*
X0485104Y0175033D01*
X0485104Y0171497D01*
X0481568Y0167962D01*
X0478033Y0167962D01*
X0478033Y0164426D01*
X0474497Y0160891D01*
X0470962Y0160891D01*
X0470962Y0157355D01*
X0467426Y0153820D01*
X0463890Y0153820D01*
X0460355Y0157355D01*
X0460355Y0160891D01*
X0463890Y0164426D01*
X0467426Y0164426D01*
X0467426Y0167962D01*
X0470962Y0171497D01*
X0474497Y0171497D01*
X0474497Y0175033D01*
X0478033Y0178568D01*
X0481568Y0178568D01*
X0481568Y0182104D01*
X0485104Y0185639D01*
X0488639Y0185639D01*
X0488639Y0189175D01*
X0492175Y0192710D01*
X0495710Y0192710D01*
X0495710Y0196246D01*
X0499246Y0199781D01*
X0502781Y0199781D01*
X0444359Y0224615D02*
X0444359Y0239615D01*
X0441859Y0242115D01*
X0436859Y0242115D01*
X0434359Y0239615D01*
X0434359Y0224615D01*
X0436859Y0222115D01*
X0441859Y0222115D01*
X0444359Y0224615D01*
X0434359Y0224615D02*
X0431859Y0222115D01*
X0426859Y0222115D01*
X0424359Y0224615D01*
X0421859Y0222115D01*
X0416859Y0222115D01*
X0414359Y0224615D01*
X0414359Y0239615D01*
X0416859Y0242115D01*
X0421859Y0242115D01*
X0424359Y0239615D01*
X0424359Y0224615D01*
X0426859Y0242115D02*
X0431859Y0242115D01*
X0434359Y0239615D01*
X0285658Y0411391D02*
X0286493Y0412226D01*
X0285658Y0411391D02*
X0284823Y0412226D01*
X0261438Y0435610D02*
X0260603Y0436446D01*
X0261438Y0437281D01*
X0284823Y0460665D02*
X0286493Y0460665D01*
X0309878Y0437281D02*
X0310713Y0436446D01*
X0309878Y0435610D01*
X0316559Y0462274D02*
X0313219Y0465615D01*
X0311548Y0474523D02*
X0313219Y0476193D01*
X0322127Y0474523D02*
X0325468Y0471182D01*
X0327138Y0462274D02*
X0325468Y0460604D01*
X0219180Y0508894D02*
X0205745Y0522329D01*
X0205391Y0518440D02*
X0203270Y0518440D01*
X0203270Y0516319D01*
X0203270Y0518440D02*
X0205745Y0515965D01*
X0199381Y0515965D02*
X0212816Y0502530D01*
D19*
X0102272Y0366839D02*
X0096761Y0366839D01*
X0096761Y0354871D01*
X0102272Y0354871D01*
X0102272Y0366839D01*
X0343146Y0351498D02*
X0351498Y0343146D01*
X0361241Y0352890D01*
X0352890Y0361241D01*
X0343146Y0351498D01*
X0343786Y0351581D02*
X0344427Y0352222D01*
X0345401Y0351247D01*
X0345095Y0350941D01*
X0344454Y0350913D01*
X0343786Y0351581D01*
X0344983Y0352778D02*
X0345624Y0353419D01*
X0346598Y0352444D01*
X0345958Y0351804D01*
X0344983Y0352778D01*
X0346180Y0353975D02*
X0346821Y0354616D01*
X0347795Y0353641D01*
X0347155Y0353001D01*
X0346180Y0353975D01*
X0347378Y0355172D02*
X0348018Y0355813D01*
X0348992Y0354838D01*
X0348352Y0354198D01*
X0347378Y0355172D01*
X0348575Y0356370D02*
X0349215Y0357010D01*
X0350189Y0356035D01*
X0349549Y0355395D01*
X0348575Y0356370D01*
X0349772Y0357567D02*
X0350412Y0358207D01*
X0351386Y0357233D01*
X0350746Y0356592D01*
X0349772Y0357567D01*
X0350969Y0358764D02*
X0351609Y0359404D01*
X0352583Y0358430D01*
X0351943Y0357789D01*
X0350969Y0358764D01*
X0352166Y0359961D02*
X0352806Y0360601D01*
X0353781Y0359627D01*
X0353140Y0358986D01*
X0352166Y0359961D01*
X0353683Y0357915D02*
X0354657Y0358889D01*
X0355298Y0358249D01*
X0354323Y0357274D01*
X0353683Y0357915D01*
X0354880Y0356718D02*
X0355855Y0357692D01*
X0356495Y0357052D01*
X0355520Y0356077D01*
X0354880Y0356718D01*
X0356077Y0355520D02*
X0357052Y0356495D01*
X0357692Y0355855D01*
X0356718Y0354880D01*
X0356077Y0355520D01*
X0357274Y0354323D02*
X0358249Y0355298D01*
X0358889Y0354657D01*
X0357915Y0353683D01*
X0357274Y0354323D01*
X0358986Y0353140D02*
X0359627Y0353781D01*
X0360601Y0352806D01*
X0359961Y0352166D01*
X0358986Y0353140D01*
X0358430Y0352583D02*
X0357789Y0351943D01*
X0358764Y0350969D01*
X0359404Y0351609D01*
X0358430Y0352583D01*
X0357233Y0351386D02*
X0358207Y0350412D01*
X0357567Y0349772D01*
X0356592Y0350746D01*
X0357233Y0351386D01*
X0356035Y0350189D02*
X0357010Y0349215D01*
X0356370Y0348575D01*
X0355395Y0349549D01*
X0356035Y0350189D01*
X0354838Y0348992D02*
X0355813Y0348018D01*
X0355172Y0347378D01*
X0354198Y0348352D01*
X0354838Y0348992D01*
X0353641Y0347795D02*
X0354616Y0346821D01*
X0353975Y0346180D01*
X0353001Y0347155D01*
X0353641Y0347795D01*
X0352444Y0346598D02*
X0353419Y0345624D01*
X0352778Y0344983D01*
X0351804Y0345958D01*
X0352444Y0346598D01*
X0351247Y0345401D02*
X0350607Y0344761D01*
X0351581Y0343786D01*
X0352222Y0344427D01*
X0351247Y0345401D01*
X0350676Y0346445D02*
X0350036Y0347085D01*
X0349062Y0346111D01*
X0349702Y0345471D01*
X0350676Y0346445D01*
X0349479Y0347642D02*
X0348839Y0348282D01*
X0347865Y0347308D01*
X0348505Y0346668D01*
X0349479Y0347642D01*
X0348282Y0348839D02*
X0347642Y0349479D01*
X0346668Y0348505D01*
X0347308Y0347865D01*
X0348282Y0348839D01*
X0347085Y0350036D02*
X0346445Y0350676D01*
X0345471Y0349702D01*
X0346111Y0349062D01*
X0347085Y0350036D01*
X0349517Y0108060D02*
X0337548Y0108060D01*
X0337548Y0102548D01*
X0349517Y0102548D01*
X0349517Y0108060D01*
X0601603Y0340580D02*
X0601603Y0352548D01*
X0607115Y0352548D01*
X0607115Y0340580D01*
X0601603Y0340580D01*
X0365855Y0602233D02*
X0353887Y0602233D01*
X0353887Y0607745D01*
X0365855Y0607745D01*
X0365855Y0602233D01*
D20*
X0349871Y0622863D02*
X0349873Y0622902D01*
X0349879Y0622941D01*
X0349889Y0622979D01*
X0349902Y0623016D01*
X0349919Y0623051D01*
X0349939Y0623085D01*
X0349963Y0623116D01*
X0349990Y0623145D01*
X0350019Y0623171D01*
X0350051Y0623194D01*
X0350085Y0623214D01*
X0350121Y0623230D01*
X0350158Y0623242D01*
X0350197Y0623251D01*
X0350236Y0623256D01*
X0350275Y0623257D01*
X0350314Y0623254D01*
X0350353Y0623247D01*
X0350390Y0623236D01*
X0350427Y0623222D01*
X0350462Y0623204D01*
X0350495Y0623183D01*
X0350526Y0623158D01*
X0350554Y0623131D01*
X0350579Y0623101D01*
X0350601Y0623068D01*
X0350620Y0623034D01*
X0350635Y0622998D01*
X0350647Y0622960D01*
X0350655Y0622922D01*
X0350659Y0622883D01*
X0350659Y0622843D01*
X0350655Y0622804D01*
X0350647Y0622766D01*
X0350635Y0622728D01*
X0350620Y0622692D01*
X0350601Y0622658D01*
X0350579Y0622625D01*
X0350554Y0622595D01*
X0350526Y0622568D01*
X0350495Y0622543D01*
X0350462Y0622522D01*
X0350427Y0622504D01*
X0350390Y0622490D01*
X0350353Y0622479D01*
X0350314Y0622472D01*
X0350275Y0622469D01*
X0350236Y0622470D01*
X0350197Y0622475D01*
X0350158Y0622484D01*
X0350121Y0622496D01*
X0350085Y0622512D01*
X0350051Y0622532D01*
X0350019Y0622555D01*
X0349990Y0622581D01*
X0349963Y0622610D01*
X0349939Y0622641D01*
X0349919Y0622675D01*
X0349902Y0622710D01*
X0349889Y0622747D01*
X0349879Y0622785D01*
X0349873Y0622824D01*
X0349871Y0622863D01*
X0338532Y0628355D02*
X0338534Y0628394D01*
X0338540Y0628433D01*
X0338550Y0628471D01*
X0338563Y0628508D01*
X0338580Y0628543D01*
X0338600Y0628577D01*
X0338624Y0628608D01*
X0338651Y0628637D01*
X0338680Y0628663D01*
X0338712Y0628686D01*
X0338746Y0628706D01*
X0338782Y0628722D01*
X0338819Y0628734D01*
X0338858Y0628743D01*
X0338897Y0628748D01*
X0338936Y0628749D01*
X0338975Y0628746D01*
X0339014Y0628739D01*
X0339051Y0628728D01*
X0339088Y0628714D01*
X0339123Y0628696D01*
X0339156Y0628675D01*
X0339187Y0628650D01*
X0339215Y0628623D01*
X0339240Y0628593D01*
X0339262Y0628560D01*
X0339281Y0628526D01*
X0339296Y0628490D01*
X0339308Y0628452D01*
X0339316Y0628414D01*
X0339320Y0628375D01*
X0339320Y0628335D01*
X0339316Y0628296D01*
X0339308Y0628258D01*
X0339296Y0628220D01*
X0339281Y0628184D01*
X0339262Y0628150D01*
X0339240Y0628117D01*
X0339215Y0628087D01*
X0339187Y0628060D01*
X0339156Y0628035D01*
X0339123Y0628014D01*
X0339088Y0627996D01*
X0339051Y0627982D01*
X0339014Y0627971D01*
X0338975Y0627964D01*
X0338936Y0627961D01*
X0338897Y0627962D01*
X0338858Y0627967D01*
X0338819Y0627976D01*
X0338782Y0627988D01*
X0338746Y0628004D01*
X0338712Y0628024D01*
X0338680Y0628047D01*
X0338651Y0628073D01*
X0338624Y0628102D01*
X0338600Y0628133D01*
X0338580Y0628167D01*
X0338563Y0628202D01*
X0338550Y0628239D01*
X0338540Y0628277D01*
X0338534Y0628316D01*
X0338532Y0628355D01*
X0342467Y0350523D02*
X0342469Y0350535D01*
X0342474Y0350546D01*
X0342483Y0350555D01*
X0342494Y0350560D01*
X0342506Y0350562D01*
X0342518Y0350560D01*
X0342529Y0350555D01*
X0342538Y0350546D01*
X0342543Y0350535D01*
X0342545Y0350523D01*
X0342543Y0350511D01*
X0342538Y0350500D01*
X0342529Y0350491D01*
X0342518Y0350486D01*
X0342506Y0350484D01*
X0342494Y0350486D01*
X0342483Y0350491D01*
X0342474Y0350500D01*
X0342469Y0350511D01*
X0342467Y0350523D01*
X0394713Y0273650D02*
X0394715Y0273819D01*
X0394721Y0273988D01*
X0394732Y0274157D01*
X0394746Y0274325D01*
X0394765Y0274493D01*
X0394788Y0274661D01*
X0394814Y0274828D01*
X0394845Y0274994D01*
X0394880Y0275160D01*
X0394919Y0275324D01*
X0394963Y0275488D01*
X0395010Y0275650D01*
X0395061Y0275811D01*
X0395116Y0275971D01*
X0395175Y0276130D01*
X0395237Y0276287D01*
X0395304Y0276442D01*
X0395375Y0276596D01*
X0395449Y0276748D01*
X0395527Y0276898D01*
X0395608Y0277046D01*
X0395693Y0277192D01*
X0395782Y0277336D01*
X0395874Y0277478D01*
X0395970Y0277617D01*
X0396069Y0277754D01*
X0396171Y0277889D01*
X0396277Y0278021D01*
X0396386Y0278150D01*
X0396498Y0278277D01*
X0396613Y0278401D01*
X0396731Y0278522D01*
X0396852Y0278640D01*
X0396976Y0278755D01*
X0397103Y0278867D01*
X0397232Y0278976D01*
X0397364Y0279082D01*
X0397499Y0279184D01*
X0397636Y0279283D01*
X0397775Y0279379D01*
X0397917Y0279471D01*
X0398061Y0279560D01*
X0398207Y0279645D01*
X0398355Y0279726D01*
X0398505Y0279804D01*
X0398657Y0279878D01*
X0398811Y0279949D01*
X0398966Y0280016D01*
X0399123Y0280078D01*
X0399282Y0280137D01*
X0399442Y0280192D01*
X0399603Y0280243D01*
X0399765Y0280290D01*
X0399929Y0280334D01*
X0400093Y0280373D01*
X0400259Y0280408D01*
X0400425Y0280439D01*
X0400592Y0280465D01*
X0400760Y0280488D01*
X0400928Y0280507D01*
X0401096Y0280521D01*
X0401265Y0280532D01*
X0401434Y0280538D01*
X0401603Y0280540D01*
X0401772Y0280538D01*
X0401941Y0280532D01*
X0402110Y0280521D01*
X0402278Y0280507D01*
X0402446Y0280488D01*
X0402614Y0280465D01*
X0402781Y0280439D01*
X0402947Y0280408D01*
X0403113Y0280373D01*
X0403277Y0280334D01*
X0403441Y0280290D01*
X0403603Y0280243D01*
X0403764Y0280192D01*
X0403924Y0280137D01*
X0404083Y0280078D01*
X0404240Y0280016D01*
X0404395Y0279949D01*
X0404549Y0279878D01*
X0404701Y0279804D01*
X0404851Y0279726D01*
X0404999Y0279645D01*
X0405145Y0279560D01*
X0405289Y0279471D01*
X0405431Y0279379D01*
X0405570Y0279283D01*
X0405707Y0279184D01*
X0405842Y0279082D01*
X0405974Y0278976D01*
X0406103Y0278867D01*
X0406230Y0278755D01*
X0406354Y0278640D01*
X0406475Y0278522D01*
X0406593Y0278401D01*
X0406708Y0278277D01*
X0406820Y0278150D01*
X0406929Y0278021D01*
X0407035Y0277889D01*
X0407137Y0277754D01*
X0407236Y0277617D01*
X0407332Y0277478D01*
X0407424Y0277336D01*
X0407513Y0277192D01*
X0407598Y0277046D01*
X0407679Y0276898D01*
X0407757Y0276748D01*
X0407831Y0276596D01*
X0407902Y0276442D01*
X0407969Y0276287D01*
X0408031Y0276130D01*
X0408090Y0275971D01*
X0408145Y0275811D01*
X0408196Y0275650D01*
X0408243Y0275488D01*
X0408287Y0275324D01*
X0408326Y0275160D01*
X0408361Y0274994D01*
X0408392Y0274828D01*
X0408418Y0274661D01*
X0408441Y0274493D01*
X0408460Y0274325D01*
X0408474Y0274157D01*
X0408485Y0273988D01*
X0408491Y0273819D01*
X0408493Y0273650D01*
X0408491Y0273481D01*
X0408485Y0273312D01*
X0408474Y0273143D01*
X0408460Y0272975D01*
X0408441Y0272807D01*
X0408418Y0272639D01*
X0408392Y0272472D01*
X0408361Y0272306D01*
X0408326Y0272140D01*
X0408287Y0271976D01*
X0408243Y0271812D01*
X0408196Y0271650D01*
X0408145Y0271489D01*
X0408090Y0271329D01*
X0408031Y0271170D01*
X0407969Y0271013D01*
X0407902Y0270858D01*
X0407831Y0270704D01*
X0407757Y0270552D01*
X0407679Y0270402D01*
X0407598Y0270254D01*
X0407513Y0270108D01*
X0407424Y0269964D01*
X0407332Y0269822D01*
X0407236Y0269683D01*
X0407137Y0269546D01*
X0407035Y0269411D01*
X0406929Y0269279D01*
X0406820Y0269150D01*
X0406708Y0269023D01*
X0406593Y0268899D01*
X0406475Y0268778D01*
X0406354Y0268660D01*
X0406230Y0268545D01*
X0406103Y0268433D01*
X0405974Y0268324D01*
X0405842Y0268218D01*
X0405707Y0268116D01*
X0405570Y0268017D01*
X0405431Y0267921D01*
X0405289Y0267829D01*
X0405145Y0267740D01*
X0404999Y0267655D01*
X0404851Y0267574D01*
X0404701Y0267496D01*
X0404549Y0267422D01*
X0404395Y0267351D01*
X0404240Y0267284D01*
X0404083Y0267222D01*
X0403924Y0267163D01*
X0403764Y0267108D01*
X0403603Y0267057D01*
X0403441Y0267010D01*
X0403277Y0266966D01*
X0403113Y0266927D01*
X0402947Y0266892D01*
X0402781Y0266861D01*
X0402614Y0266835D01*
X0402446Y0266812D01*
X0402278Y0266793D01*
X0402110Y0266779D01*
X0401941Y0266768D01*
X0401772Y0266762D01*
X0401603Y0266760D01*
X0401434Y0266762D01*
X0401265Y0266768D01*
X0401096Y0266779D01*
X0400928Y0266793D01*
X0400760Y0266812D01*
X0400592Y0266835D01*
X0400425Y0266861D01*
X0400259Y0266892D01*
X0400093Y0266927D01*
X0399929Y0266966D01*
X0399765Y0267010D01*
X0399603Y0267057D01*
X0399442Y0267108D01*
X0399282Y0267163D01*
X0399123Y0267222D01*
X0398966Y0267284D01*
X0398811Y0267351D01*
X0398657Y0267422D01*
X0398505Y0267496D01*
X0398355Y0267574D01*
X0398207Y0267655D01*
X0398061Y0267740D01*
X0397917Y0267829D01*
X0397775Y0267921D01*
X0397636Y0268017D01*
X0397499Y0268116D01*
X0397364Y0268218D01*
X0397232Y0268324D01*
X0397103Y0268433D01*
X0396976Y0268545D01*
X0396852Y0268660D01*
X0396731Y0268778D01*
X0396613Y0268899D01*
X0396498Y0269023D01*
X0396386Y0269150D01*
X0396277Y0269279D01*
X0396171Y0269411D01*
X0396069Y0269546D01*
X0395970Y0269683D01*
X0395874Y0269822D01*
X0395782Y0269964D01*
X0395693Y0270108D01*
X0395608Y0270254D01*
X0395527Y0270402D01*
X0395449Y0270552D01*
X0395375Y0270704D01*
X0395304Y0270858D01*
X0395237Y0271013D01*
X0395175Y0271170D01*
X0395116Y0271329D01*
X0395061Y0271489D01*
X0395010Y0271650D01*
X0394963Y0271812D01*
X0394919Y0271976D01*
X0394880Y0272140D01*
X0394845Y0272306D01*
X0394814Y0272472D01*
X0394788Y0272639D01*
X0394765Y0272807D01*
X0394746Y0272975D01*
X0394732Y0273143D01*
X0394721Y0273312D01*
X0394715Y0273481D01*
X0394713Y0273650D01*
X0354910Y0084280D02*
X0354912Y0084319D01*
X0354918Y0084358D01*
X0354928Y0084396D01*
X0354941Y0084433D01*
X0354958Y0084468D01*
X0354978Y0084502D01*
X0355002Y0084533D01*
X0355029Y0084562D01*
X0355058Y0084588D01*
X0355090Y0084611D01*
X0355124Y0084631D01*
X0355160Y0084647D01*
X0355197Y0084659D01*
X0355236Y0084668D01*
X0355275Y0084673D01*
X0355314Y0084674D01*
X0355353Y0084671D01*
X0355392Y0084664D01*
X0355429Y0084653D01*
X0355466Y0084639D01*
X0355501Y0084621D01*
X0355534Y0084600D01*
X0355565Y0084575D01*
X0355593Y0084548D01*
X0355618Y0084518D01*
X0355640Y0084485D01*
X0355659Y0084451D01*
X0355674Y0084415D01*
X0355686Y0084377D01*
X0355694Y0084339D01*
X0355698Y0084300D01*
X0355698Y0084260D01*
X0355694Y0084221D01*
X0355686Y0084183D01*
X0355674Y0084145D01*
X0355659Y0084109D01*
X0355640Y0084075D01*
X0355618Y0084042D01*
X0355593Y0084012D01*
X0355565Y0083985D01*
X0355534Y0083960D01*
X0355501Y0083939D01*
X0355466Y0083921D01*
X0355429Y0083907D01*
X0355392Y0083896D01*
X0355353Y0083889D01*
X0355314Y0083886D01*
X0355275Y0083887D01*
X0355236Y0083892D01*
X0355197Y0083901D01*
X0355160Y0083913D01*
X0355124Y0083929D01*
X0355090Y0083949D01*
X0355058Y0083972D01*
X0355029Y0083998D01*
X0355002Y0084027D01*
X0354978Y0084058D01*
X0354958Y0084092D01*
X0354941Y0084127D01*
X0354928Y0084164D01*
X0354918Y0084202D01*
X0354912Y0084241D01*
X0354910Y0084280D01*
X0365894Y0078906D02*
X0365896Y0078945D01*
X0365902Y0078984D01*
X0365912Y0079022D01*
X0365925Y0079059D01*
X0365942Y0079094D01*
X0365962Y0079128D01*
X0365986Y0079159D01*
X0366013Y0079188D01*
X0366042Y0079214D01*
X0366074Y0079237D01*
X0366108Y0079257D01*
X0366144Y0079273D01*
X0366181Y0079285D01*
X0366220Y0079294D01*
X0366259Y0079299D01*
X0366298Y0079300D01*
X0366337Y0079297D01*
X0366376Y0079290D01*
X0366413Y0079279D01*
X0366450Y0079265D01*
X0366485Y0079247D01*
X0366518Y0079226D01*
X0366549Y0079201D01*
X0366577Y0079174D01*
X0366602Y0079144D01*
X0366624Y0079111D01*
X0366643Y0079077D01*
X0366658Y0079041D01*
X0366670Y0079003D01*
X0366678Y0078965D01*
X0366682Y0078926D01*
X0366682Y0078886D01*
X0366678Y0078847D01*
X0366670Y0078809D01*
X0366658Y0078771D01*
X0366643Y0078735D01*
X0366624Y0078701D01*
X0366602Y0078668D01*
X0366577Y0078638D01*
X0366549Y0078611D01*
X0366518Y0078586D01*
X0366485Y0078565D01*
X0366450Y0078547D01*
X0366413Y0078533D01*
X0366376Y0078522D01*
X0366337Y0078515D01*
X0366298Y0078512D01*
X0366259Y0078513D01*
X0366220Y0078518D01*
X0366181Y0078527D01*
X0366144Y0078539D01*
X0366108Y0078555D01*
X0366074Y0078575D01*
X0366042Y0078598D01*
X0366013Y0078624D01*
X0365986Y0078653D01*
X0365962Y0078684D01*
X0365942Y0078718D01*
X0365925Y0078753D01*
X0365912Y0078790D01*
X0365902Y0078828D01*
X0365896Y0078867D01*
X0365894Y0078906D01*
X0622075Y0356288D02*
X0622077Y0356327D01*
X0622083Y0356366D01*
X0622093Y0356404D01*
X0622106Y0356441D01*
X0622123Y0356476D01*
X0622143Y0356510D01*
X0622167Y0356541D01*
X0622194Y0356570D01*
X0622223Y0356596D01*
X0622255Y0356619D01*
X0622289Y0356639D01*
X0622325Y0356655D01*
X0622362Y0356667D01*
X0622401Y0356676D01*
X0622440Y0356681D01*
X0622479Y0356682D01*
X0622518Y0356679D01*
X0622557Y0356672D01*
X0622594Y0356661D01*
X0622631Y0356647D01*
X0622666Y0356629D01*
X0622699Y0356608D01*
X0622730Y0356583D01*
X0622758Y0356556D01*
X0622783Y0356526D01*
X0622805Y0356493D01*
X0622824Y0356459D01*
X0622839Y0356423D01*
X0622851Y0356385D01*
X0622859Y0356347D01*
X0622863Y0356308D01*
X0622863Y0356268D01*
X0622859Y0356229D01*
X0622851Y0356191D01*
X0622839Y0356153D01*
X0622824Y0356117D01*
X0622805Y0356083D01*
X0622783Y0356050D01*
X0622758Y0356020D01*
X0622730Y0355993D01*
X0622699Y0355968D01*
X0622666Y0355947D01*
X0622631Y0355929D01*
X0622594Y0355915D01*
X0622557Y0355904D01*
X0622518Y0355897D01*
X0622479Y0355894D01*
X0622440Y0355895D01*
X0622401Y0355900D01*
X0622362Y0355909D01*
X0622325Y0355921D01*
X0622289Y0355937D01*
X0622255Y0355957D01*
X0622223Y0355980D01*
X0622194Y0356006D01*
X0622167Y0356035D01*
X0622143Y0356066D01*
X0622123Y0356100D01*
X0622106Y0356135D01*
X0622093Y0356172D01*
X0622083Y0356210D01*
X0622077Y0356249D01*
X0622075Y0356288D01*
X0627528Y0366446D02*
X0627530Y0366485D01*
X0627536Y0366524D01*
X0627546Y0366562D01*
X0627559Y0366599D01*
X0627576Y0366634D01*
X0627596Y0366668D01*
X0627620Y0366699D01*
X0627647Y0366728D01*
X0627676Y0366754D01*
X0627708Y0366777D01*
X0627742Y0366797D01*
X0627778Y0366813D01*
X0627815Y0366825D01*
X0627854Y0366834D01*
X0627893Y0366839D01*
X0627932Y0366840D01*
X0627971Y0366837D01*
X0628010Y0366830D01*
X0628047Y0366819D01*
X0628084Y0366805D01*
X0628119Y0366787D01*
X0628152Y0366766D01*
X0628183Y0366741D01*
X0628211Y0366714D01*
X0628236Y0366684D01*
X0628258Y0366651D01*
X0628277Y0366617D01*
X0628292Y0366581D01*
X0628304Y0366543D01*
X0628312Y0366505D01*
X0628316Y0366466D01*
X0628316Y0366426D01*
X0628312Y0366387D01*
X0628304Y0366349D01*
X0628292Y0366311D01*
X0628277Y0366275D01*
X0628258Y0366241D01*
X0628236Y0366208D01*
X0628211Y0366178D01*
X0628183Y0366151D01*
X0628152Y0366126D01*
X0628119Y0366105D01*
X0628084Y0366087D01*
X0628047Y0366073D01*
X0628010Y0366062D01*
X0627971Y0366055D01*
X0627932Y0366052D01*
X0627893Y0366053D01*
X0627854Y0366058D01*
X0627815Y0366067D01*
X0627778Y0366079D01*
X0627742Y0366095D01*
X0627708Y0366115D01*
X0627676Y0366138D01*
X0627647Y0366164D01*
X0627620Y0366193D01*
X0627596Y0366224D01*
X0627576Y0366258D01*
X0627559Y0366293D01*
X0627546Y0366330D01*
X0627536Y0366368D01*
X0627530Y0366407D01*
X0627528Y0366446D01*
X0083099Y0349280D02*
X0083101Y0349319D01*
X0083107Y0349358D01*
X0083117Y0349396D01*
X0083130Y0349433D01*
X0083147Y0349468D01*
X0083167Y0349502D01*
X0083191Y0349533D01*
X0083218Y0349562D01*
X0083247Y0349588D01*
X0083279Y0349611D01*
X0083313Y0349631D01*
X0083349Y0349647D01*
X0083386Y0349659D01*
X0083425Y0349668D01*
X0083464Y0349673D01*
X0083503Y0349674D01*
X0083542Y0349671D01*
X0083581Y0349664D01*
X0083618Y0349653D01*
X0083655Y0349639D01*
X0083690Y0349621D01*
X0083723Y0349600D01*
X0083754Y0349575D01*
X0083782Y0349548D01*
X0083807Y0349518D01*
X0083829Y0349485D01*
X0083848Y0349451D01*
X0083863Y0349415D01*
X0083875Y0349377D01*
X0083883Y0349339D01*
X0083887Y0349300D01*
X0083887Y0349260D01*
X0083883Y0349221D01*
X0083875Y0349183D01*
X0083863Y0349145D01*
X0083848Y0349109D01*
X0083829Y0349075D01*
X0083807Y0349042D01*
X0083782Y0349012D01*
X0083754Y0348985D01*
X0083723Y0348960D01*
X0083690Y0348939D01*
X0083655Y0348921D01*
X0083618Y0348907D01*
X0083581Y0348896D01*
X0083542Y0348889D01*
X0083503Y0348886D01*
X0083464Y0348887D01*
X0083425Y0348892D01*
X0083386Y0348901D01*
X0083349Y0348913D01*
X0083313Y0348929D01*
X0083279Y0348949D01*
X0083247Y0348972D01*
X0083218Y0348998D01*
X0083191Y0349027D01*
X0083167Y0349058D01*
X0083147Y0349092D01*
X0083130Y0349127D01*
X0083117Y0349164D01*
X0083107Y0349202D01*
X0083101Y0349241D01*
X0083099Y0349280D01*
X0077134Y0338769D02*
X0077136Y0338808D01*
X0077142Y0338847D01*
X0077152Y0338885D01*
X0077165Y0338922D01*
X0077182Y0338957D01*
X0077202Y0338991D01*
X0077226Y0339022D01*
X0077253Y0339051D01*
X0077282Y0339077D01*
X0077314Y0339100D01*
X0077348Y0339120D01*
X0077384Y0339136D01*
X0077421Y0339148D01*
X0077460Y0339157D01*
X0077499Y0339162D01*
X0077538Y0339163D01*
X0077577Y0339160D01*
X0077616Y0339153D01*
X0077653Y0339142D01*
X0077690Y0339128D01*
X0077725Y0339110D01*
X0077758Y0339089D01*
X0077789Y0339064D01*
X0077817Y0339037D01*
X0077842Y0339007D01*
X0077864Y0338974D01*
X0077883Y0338940D01*
X0077898Y0338904D01*
X0077910Y0338866D01*
X0077918Y0338828D01*
X0077922Y0338789D01*
X0077922Y0338749D01*
X0077918Y0338710D01*
X0077910Y0338672D01*
X0077898Y0338634D01*
X0077883Y0338598D01*
X0077864Y0338564D01*
X0077842Y0338531D01*
X0077817Y0338501D01*
X0077789Y0338474D01*
X0077758Y0338449D01*
X0077725Y0338428D01*
X0077690Y0338410D01*
X0077653Y0338396D01*
X0077616Y0338385D01*
X0077577Y0338378D01*
X0077538Y0338375D01*
X0077499Y0338376D01*
X0077460Y0338381D01*
X0077421Y0338390D01*
X0077384Y0338402D01*
X0077348Y0338418D01*
X0077314Y0338438D01*
X0077282Y0338461D01*
X0077253Y0338487D01*
X0077226Y0338516D01*
X0077202Y0338547D01*
X0077182Y0338581D01*
X0077165Y0338616D01*
X0077152Y0338653D01*
X0077142Y0338691D01*
X0077136Y0338730D01*
X0077134Y0338769D01*
D21*
X0423226Y0271006D02*
X0423228Y0271062D01*
X0423234Y0271117D01*
X0423244Y0271171D01*
X0423257Y0271225D01*
X0423275Y0271278D01*
X0423296Y0271329D01*
X0423320Y0271379D01*
X0423348Y0271427D01*
X0423380Y0271473D01*
X0423414Y0271517D01*
X0423452Y0271558D01*
X0423492Y0271596D01*
X0423535Y0271631D01*
X0423580Y0271663D01*
X0423628Y0271692D01*
X0423677Y0271718D01*
X0423728Y0271740D01*
X0423780Y0271758D01*
X0423834Y0271772D01*
X0423889Y0271783D01*
X0423944Y0271790D01*
X0423999Y0271793D01*
X0424055Y0271792D01*
X0424110Y0271787D01*
X0424165Y0271778D01*
X0424219Y0271766D01*
X0424272Y0271749D01*
X0424324Y0271729D01*
X0424374Y0271705D01*
X0424422Y0271678D01*
X0424469Y0271648D01*
X0424513Y0271614D01*
X0424555Y0271577D01*
X0424593Y0271537D01*
X0424630Y0271495D01*
X0424663Y0271450D01*
X0424692Y0271404D01*
X0424719Y0271355D01*
X0424741Y0271304D01*
X0424761Y0271252D01*
X0424776Y0271198D01*
X0424788Y0271144D01*
X0424796Y0271089D01*
X0424800Y0271034D01*
X0424800Y0270978D01*
X0424796Y0270923D01*
X0424788Y0270868D01*
X0424776Y0270814D01*
X0424761Y0270760D01*
X0424741Y0270708D01*
X0424719Y0270657D01*
X0424692Y0270608D01*
X0424663Y0270562D01*
X0424630Y0270517D01*
X0424593Y0270475D01*
X0424555Y0270435D01*
X0424513Y0270398D01*
X0424469Y0270364D01*
X0424422Y0270334D01*
X0424374Y0270307D01*
X0424324Y0270283D01*
X0424272Y0270263D01*
X0424219Y0270246D01*
X0424165Y0270234D01*
X0424110Y0270225D01*
X0424055Y0270220D01*
X0423999Y0270219D01*
X0423944Y0270222D01*
X0423889Y0270229D01*
X0423834Y0270240D01*
X0423780Y0270254D01*
X0423728Y0270272D01*
X0423677Y0270294D01*
X0423628Y0270320D01*
X0423580Y0270349D01*
X0423535Y0270381D01*
X0423492Y0270416D01*
X0423452Y0270454D01*
X0423414Y0270495D01*
X0423380Y0270539D01*
X0423348Y0270585D01*
X0423320Y0270633D01*
X0423296Y0270683D01*
X0423275Y0270734D01*
X0423257Y0270787D01*
X0423244Y0270841D01*
X0423234Y0270895D01*
X0423228Y0270950D01*
X0423226Y0271006D01*
M02*
