G75*
%MOIN*%
%OFA0B0*%
%FSLAX25Y25*%
%IPPOS*%
%LPD*%
%AMOC8*
5,1,8,0,0,1.08239X$1,22.5*
%
%ADD10C,0.05937*%
%ADD11R,0.07400X0.07400*%
%ADD12OC8,0.07400*%
%ADD13R,0.06496X0.06496*%
%ADD14C,0.06496*%
%ADD15R,0.06496X0.06496*%
%ADD16C,0.07400*%
%ADD17C,0.05362*%
%ADD18C,0.01800*%
%ADD19C,0.04500*%
%ADD20C,0.00600*%
%ADD21C,0.01811*%
D10*
X0341996Y0419115D02*
X0337798Y0423313D01*
X0344869Y0430384D02*
X0349067Y0426186D01*
D11*
X0454792Y0262548D03*
D12*
X0464792Y0262548D03*
X0464792Y0272548D03*
X0454792Y0272548D03*
X0474792Y0272548D03*
X0474792Y0262548D03*
D13*
G36*
X0258099Y0203637D02*
X0262692Y0199044D01*
X0258099Y0194451D01*
X0253506Y0199044D01*
X0258099Y0203637D01*
G37*
D14*
X0229815Y0227328D03*
X0236886Y0220257D03*
X0243957Y0213186D03*
X0251028Y0206115D03*
X0222744Y0234399D03*
X0215673Y0241470D03*
X0208602Y0248542D03*
X0201531Y0255613D03*
X0194460Y0262684D03*
X0206209Y0396800D03*
D15*
X0196209Y0396800D03*
D16*
X0501091Y0194556D03*
X0508162Y0201627D03*
X0515233Y0208698D03*
X0522305Y0215769D03*
X0529376Y0222840D03*
X0536447Y0229911D03*
X0547902Y0239989D03*
X0554973Y0247060D03*
X0562044Y0254131D03*
X0569116Y0261202D03*
X0576187Y0268273D03*
X0583258Y0275344D03*
D17*
X0498060Y0277981D03*
X0446682Y0297666D03*
X0432115Y0291170D03*
X0365973Y0333296D03*
X0383887Y0361643D03*
X0386839Y0372076D03*
X0372863Y0389005D03*
X0374831Y0406721D03*
X0381328Y0411839D03*
X0388217Y0405934D03*
X0392942Y0416367D03*
X0399831Y0398257D03*
X0419713Y0407706D03*
X0409477Y0427784D03*
X0360068Y0485855D03*
X0353965Y0493729D03*
X0353572Y0513414D03*
X0332902Y0511249D03*
X0292942Y0535658D03*
X0287430Y0530146D03*
X0281918Y0523060D03*
X0266367Y0507902D03*
X0260265Y0502391D03*
X0252587Y0499831D03*
X0245304Y0498257D03*
X0238611Y0502391D03*
X0234280Y0508887D03*
X0227784Y0514989D03*
X0222469Y0519910D03*
X0216957Y0526209D03*
X0212824Y0533099D03*
X0218335Y0539595D03*
X0223650Y0545501D03*
X0245107Y0568729D03*
X0251800Y0572666D03*
X0255934Y0577981D03*
X0263611Y0570894D03*
X0270698Y0565383D03*
X0275619Y0560265D03*
X0282706Y0554753D03*
X0289792Y0549241D03*
X0295894Y0543139D03*
X0283493Y0477587D03*
X0300816Y0453178D03*
X0320501Y0443926D03*
X0327391Y0438414D03*
D18*
X0339897Y0421214D02*
X0339627Y0420927D01*
X0230427Y0420927D01*
X0206427Y0396927D01*
X0206209Y0396800D01*
X0200427Y0404427D02*
X0223827Y0427827D01*
X0346227Y0427827D01*
X0346968Y0428285D01*
X0347127Y0428427D01*
X0354327Y0435627D01*
X0355827Y0434127D01*
X0354327Y0435627D02*
X0356727Y0438027D01*
X0356727Y0444327D01*
X0362427Y0452727D02*
X0362427Y0475816D01*
X0362427Y0498060D02*
X0362427Y0569127D01*
X0474792Y0272548D02*
X0474927Y0272427D01*
X0510327Y0237027D01*
X0536127Y0237027D01*
X0536727Y0236427D01*
X0575427Y0275127D01*
X0583227Y0275127D01*
X0583258Y0275344D01*
X0536727Y0236427D02*
X0536727Y0230127D01*
X0536447Y0229911D01*
D19*
X0662727Y0366327D03*
X0611427Y0378327D03*
X0585993Y0390787D03*
X0546327Y0453927D03*
X0573027Y0481227D03*
X0492627Y0580827D03*
X0456927Y0547527D03*
X0383727Y0467727D03*
X0389427Y0461427D03*
X0381627Y0453627D03*
X0362427Y0452727D03*
X0356727Y0444327D03*
X0360627Y0440427D03*
X0355827Y0434127D03*
X0354927Y0426327D03*
X0364143Y0404611D03*
X0378795Y0418741D03*
X0403227Y0421527D03*
X0358527Y0468327D03*
X0347127Y0471927D03*
X0338727Y0472827D03*
X0320127Y0454227D03*
X0314127Y0460227D03*
X0298227Y0484827D03*
X0254427Y0433227D03*
X0200427Y0404427D03*
X0119427Y0406227D03*
X0301227Y0322527D03*
X0349227Y0341427D03*
X0351927Y0347727D03*
X0361387Y0369851D03*
X0339327Y0397227D03*
X0309627Y0390027D03*
X0310227Y0251127D03*
X0374727Y0139827D03*
X0369327Y0117927D03*
X0358527Y0528027D03*
X0362427Y0569127D03*
X0399027Y0630627D03*
X0411327Y0672027D03*
D20*
X0338727Y0484827D02*
X0298227Y0484827D01*
X0294027Y0472827D02*
X0254427Y0433227D01*
X0255327Y0429627D02*
X0221127Y0429627D01*
X0197127Y0405627D01*
X0197127Y0403227D01*
X0199227Y0401127D01*
X0199827Y0401127D01*
X0201627Y0399327D01*
X0201627Y0261627D01*
X0219927Y0243327D01*
X0219927Y0237627D01*
X0218427Y0236127D01*
X0218427Y0232827D01*
X0237927Y0213327D01*
X0243927Y0213327D01*
X0243957Y0213186D01*
X0229815Y0227328D02*
X0229827Y0227427D01*
X0229827Y0314727D01*
X0329127Y0414027D01*
X0347127Y0414027D01*
X0360627Y0427527D01*
X0360627Y0440427D01*
X0371427Y0434127D02*
X0364143Y0404611D01*
X0361387Y0369851D01*
X0372214Y0358536D01*
X0310227Y0297927D01*
X0310227Y0251127D01*
X0306927Y0249927D02*
X0354927Y0201927D01*
X0507927Y0201927D01*
X0508162Y0201627D01*
X0474792Y0262548D02*
X0474627Y0262827D01*
X0470127Y0267327D01*
X0470127Y0284427D01*
X0367818Y0383980D01*
X0374708Y0435598D01*
X0356408Y0452717D01*
X0355227Y0468327D01*
X0338727Y0484827D01*
X0338727Y0472827D02*
X0294027Y0472827D01*
X0289227Y0463527D02*
X0255327Y0429627D01*
X0289227Y0463527D02*
X0333927Y0463527D01*
X0342327Y0471927D01*
X0347127Y0471927D01*
X0345327Y0460227D02*
X0371427Y0434127D01*
X0378795Y0418741D02*
X0410883Y0401810D01*
X0585993Y0390787D01*
X0446682Y0297666D02*
X0440186Y0291170D01*
X0432115Y0291170D01*
X0383887Y0352587D02*
X0366170Y0334871D01*
X0366170Y0333493D01*
X0365973Y0333296D01*
X0349227Y0341427D02*
X0349227Y0345027D01*
X0351927Y0347727D01*
X0383887Y0352587D02*
X0383887Y0361643D01*
X0392942Y0416367D02*
X0393612Y0416367D01*
X0401922Y0424677D01*
X0406370Y0424677D01*
X0409477Y0427784D01*
X0381627Y0453627D02*
X0389427Y0461427D01*
X0354927Y0426327D02*
X0343827Y0415227D01*
X0327927Y0415227D01*
X0222927Y0310227D01*
X0222927Y0234627D01*
X0222744Y0234399D01*
X0306927Y0249927D02*
X0306927Y0296427D01*
X0309627Y0299127D01*
X0309627Y0390027D01*
X0314127Y0460227D02*
X0345327Y0460227D01*
D21*
X0362427Y0475816D02*
X0365973Y0475816D01*
X0372666Y0482509D01*
X0372666Y0489989D01*
X0371682Y0490973D01*
X0369513Y0490973D01*
X0362427Y0498060D01*
M02*
