G75*
%MOIN*%
%OFA0B0*%
%FSLAX25Y25*%
%IPPOS*%
%LPD*%
%AMOC8*
5,1,8,0,0,1.08239X$1,22.5*
%
%ADD10C,0.05937*%
%ADD11R,0.07400X0.07400*%
%ADD12OC8,0.07400*%
%ADD13R,0.06496X0.06496*%
%ADD14C,0.06496*%
%ADD15R,0.06496X0.06496*%
%ADD16C,0.07400*%
%ADD17C,0.05362*%
%ADD18C,0.00600*%
%ADD19C,0.04500*%
%ADD20C,0.01800*%
D10*
X0313634Y0390753D02*
X0309436Y0394951D01*
X0316507Y0402022D02*
X0320705Y0397824D01*
D11*
X0419359Y0227115D03*
D12*
X0419359Y0237115D03*
X0429359Y0237115D03*
X0429359Y0227115D03*
X0439359Y0227115D03*
X0439359Y0237115D03*
D13*
G36*
X0222666Y0168204D02*
X0227259Y0163611D01*
X0222666Y0159018D01*
X0218073Y0163611D01*
X0222666Y0168204D01*
G37*
D14*
X0215595Y0170682D03*
X0208524Y0177753D03*
X0201453Y0184824D03*
X0194382Y0191895D03*
X0187311Y0198966D03*
X0180240Y0206037D03*
X0173169Y0213108D03*
X0166098Y0220180D03*
X0159027Y0227251D03*
X0256997Y0344438D03*
D15*
X0246997Y0344438D03*
D16*
X0465658Y0159123D03*
X0472729Y0166194D03*
X0479800Y0173265D03*
X0486871Y0180336D03*
X0493943Y0187407D03*
X0501014Y0194478D03*
X0512469Y0204556D03*
X0519540Y0211627D03*
X0526611Y0218698D03*
X0533682Y0225769D03*
X0540754Y0232840D03*
X0547825Y0239911D03*
D17*
X0257312Y0501013D03*
X0252981Y0494910D03*
X0245501Y0487824D03*
X0231524Y0474438D03*
X0222863Y0467154D03*
X0211643Y0462233D03*
X0205343Y0467154D03*
X0199044Y0472272D03*
X0194123Y0478965D03*
X0200422Y0485068D03*
X0234280Y0516564D03*
X0243335Y0521091D03*
X0251406Y0515186D03*
X0258690Y0509083D03*
D18*
X0182902Y0196682D02*
X0201603Y0177981D01*
X0208493Y0177981D01*
X0208524Y0177753D01*
X0213414Y0178965D02*
X0213414Y0176013D01*
X0210461Y0173060D01*
X0204556Y0173060D01*
X0154359Y0223257D01*
X0154359Y0326603D01*
X0297076Y0469320D01*
X0345304Y0469320D01*
X0345304Y0556918D01*
X0345304Y0469320D02*
X0345304Y0462430D01*
X0318729Y0435855D01*
X0314792Y0439792D02*
X0314792Y0459477D01*
X0306918Y0467351D01*
X0304950Y0467351D01*
X0272469Y0434871D01*
X0272469Y0402391D01*
X0238020Y0367942D01*
X0238020Y0255737D01*
X0182902Y0200619D01*
X0182902Y0196682D01*
X0187311Y0198966D02*
X0187824Y0199635D01*
X0187824Y0203572D01*
X0241957Y0257706D01*
X0241957Y0369910D01*
X0274438Y0402391D01*
X0274438Y0426013D01*
X0287233Y0438808D01*
X0293139Y0433887D02*
X0298060Y0433887D01*
X0312824Y0419123D01*
X0316761Y0419123D01*
X0428965Y0306918D01*
X0428965Y0238020D01*
X0429359Y0237115D01*
X0424044Y0232115D02*
X0428965Y0227194D01*
X0429359Y0227115D01*
X0424044Y0232115D02*
X0424044Y0304950D01*
X0319713Y0409280D01*
X0319713Y0411249D01*
X0313808Y0412233D02*
X0356131Y0369910D01*
X0356131Y0356131D01*
X0414202Y0298060D01*
X0414202Y0232115D01*
X0419123Y0227194D01*
X0419359Y0227115D01*
X0415186Y0222272D02*
X0434871Y0222272D01*
X0438808Y0226209D01*
X0439359Y0227115D01*
X0439792Y0237036D02*
X0439359Y0237115D01*
X0439792Y0237036D02*
X0482115Y0194713D01*
X0500816Y0194713D01*
X0501014Y0194478D01*
X0519540Y0211627D02*
X0519517Y0212430D01*
X0519517Y0218335D01*
X0314792Y0423060D01*
X0314792Y0429950D01*
X0320698Y0429950D02*
X0322666Y0429950D01*
X0526406Y0226209D01*
X0526406Y0219320D01*
X0526611Y0218698D01*
X0479162Y0174044D02*
X0479800Y0173265D01*
X0479162Y0174044D02*
X0460461Y0174044D01*
X0314792Y0319713D01*
X0309871Y0308887D02*
X0320698Y0308887D01*
X0345304Y0324635D02*
X0412233Y0257706D01*
X0412233Y0225225D01*
X0415186Y0222272D01*
X0345304Y0324635D02*
X0345304Y0378769D01*
X0294123Y0429950D01*
X0291170Y0427981D02*
X0290186Y0428965D01*
X0290186Y0430934D01*
X0293139Y0433887D01*
X0295107Y0437824D02*
X0282312Y0425028D01*
X0282312Y0421091D01*
X0283296Y0421091D01*
X0282312Y0421091D02*
X0282312Y0404359D01*
X0262627Y0384674D01*
X0283296Y0388611D02*
X0251800Y0357115D01*
X0251800Y0265580D01*
X0223257Y0237036D01*
X0223257Y0164202D01*
X0222666Y0163611D01*
X0213414Y0178965D02*
X0200619Y0191761D01*
X0194713Y0191761D01*
X0194382Y0191895D01*
X0166098Y0220180D02*
X0166170Y0220304D01*
X0207509Y0261643D01*
X0319713Y0354162D02*
X0337430Y0336446D01*
X0319713Y0354162D02*
X0319713Y0390580D01*
X0313808Y0412233D02*
X0313808Y0415186D01*
X0291170Y0424044D02*
X0291170Y0427981D01*
X0295107Y0437824D02*
X0297076Y0437824D01*
X0295107Y0444713D02*
X0303965Y0444713D01*
X0310855Y0451603D01*
X0305934Y0463414D02*
X0291170Y0448650D01*
X0283296Y0397469D02*
X0283296Y0388611D01*
X0328572Y0360068D02*
X0341367Y0360068D01*
D19*
X0341367Y0360068D03*
X0337430Y0356131D03*
X0328572Y0360068D03*
X0330540Y0377784D03*
X0319713Y0390580D03*
X0319713Y0411249D03*
X0313808Y0415186D03*
X0314792Y0429950D03*
X0320698Y0429950D03*
X0318729Y0435855D03*
X0314792Y0439792D03*
X0310855Y0451603D03*
X0302981Y0455540D03*
X0305934Y0463414D03*
X0291170Y0448650D03*
X0295107Y0444713D03*
X0297076Y0437824D03*
X0301997Y0434871D03*
X0294123Y0429950D03*
X0291170Y0424044D03*
X0283296Y0421091D03*
X0278375Y0425028D03*
X0287233Y0438808D03*
X0294123Y0409280D03*
X0283296Y0397469D03*
X0283296Y0388611D03*
X0262627Y0384674D03*
X0230146Y0372863D03*
X0229162Y0362036D03*
X0249831Y0417154D03*
X0337430Y0336446D03*
X0314792Y0319713D03*
X0309871Y0308887D03*
X0320698Y0308887D03*
X0360068Y0364005D03*
X0389595Y0494910D03*
X0448650Y0546091D03*
X0375816Y0624831D03*
X0363020Y0580540D03*
X0345304Y0556918D03*
X0510658Y0418139D03*
X0545107Y0453572D03*
X0565776Y0364989D03*
X0626800Y0331524D03*
X0338414Y0104162D03*
X0334477Y0083493D03*
X0207509Y0261643D03*
X0123847Y0364005D03*
X0080540Y0371879D03*
D20*
X0257706Y0350225D02*
X0257706Y0345304D01*
X0256997Y0344438D01*
X0257706Y0350225D02*
X0306918Y0399438D01*
X0317745Y0399438D01*
X0318606Y0399923D01*
M02*
