G75*
%MOIN*%
%OFA0B0*%
%FSLAX25Y25*%
%IPPOS*%
%LPD*%
%AMOC8*
5,1,8,0,0,1.08239X$1,22.5*
%
%ADD10C,0.05937*%
%ADD11R,0.07400X0.07400*%
%ADD12C,0.01480*%
%ADD13R,0.06496X0.06496*%
%ADD14C,0.06496*%
%ADD15C,0.07400*%
%ADD16C,0.05362*%
%ADD17C,0.00600*%
%ADD18C,0.04500*%
%ADD19C,0.01800*%
D10*
X0211368Y0271837D02*
X0217305Y0271837D01*
X0217305Y0281837D02*
X0211368Y0281837D01*
D11*
G36*
X0413006Y0230886D02*
X0407774Y0225654D01*
X0402542Y0230886D01*
X0407774Y0236118D01*
X0413006Y0230886D01*
G37*
D12*
X0417064Y0238443D02*
X0417804Y0239183D01*
X0417804Y0236731D01*
X0416071Y0234998D01*
X0413619Y0234998D01*
X0411886Y0236731D01*
X0411886Y0239183D01*
X0413619Y0240916D01*
X0416071Y0240916D01*
X0417804Y0239183D01*
X0416694Y0238723D01*
X0416694Y0237191D01*
X0415611Y0236108D01*
X0414079Y0236108D01*
X0412996Y0237191D01*
X0412996Y0238723D01*
X0414079Y0239806D01*
X0415611Y0239806D01*
X0416694Y0238723D01*
X0415584Y0238263D01*
X0415584Y0237651D01*
X0415151Y0237218D01*
X0414539Y0237218D01*
X0414106Y0237651D01*
X0414106Y0238263D01*
X0414539Y0238696D01*
X0415151Y0238696D01*
X0415584Y0238263D01*
X0424135Y0245514D02*
X0424875Y0246254D01*
X0424875Y0243802D01*
X0423142Y0242069D01*
X0420690Y0242069D01*
X0418957Y0243802D01*
X0418957Y0246254D01*
X0420690Y0247987D01*
X0423142Y0247987D01*
X0424875Y0246254D01*
X0423765Y0245794D01*
X0423765Y0244262D01*
X0422682Y0243179D01*
X0421150Y0243179D01*
X0420067Y0244262D01*
X0420067Y0245794D01*
X0421150Y0246877D01*
X0422682Y0246877D01*
X0423765Y0245794D01*
X0422655Y0245334D01*
X0422655Y0244722D01*
X0422222Y0244289D01*
X0421610Y0244289D01*
X0421177Y0244722D01*
X0421177Y0245334D01*
X0421610Y0245767D01*
X0422222Y0245767D01*
X0422655Y0245334D01*
X0417064Y0252585D02*
X0417804Y0253325D01*
X0417804Y0250873D01*
X0416071Y0249140D01*
X0413619Y0249140D01*
X0411886Y0250873D01*
X0411886Y0253325D01*
X0413619Y0255058D01*
X0416071Y0255058D01*
X0417804Y0253325D01*
X0416694Y0252865D01*
X0416694Y0251333D01*
X0415611Y0250250D01*
X0414079Y0250250D01*
X0412996Y0251333D01*
X0412996Y0252865D01*
X0414079Y0253948D01*
X0415611Y0253948D01*
X0416694Y0252865D01*
X0415584Y0252405D01*
X0415584Y0251793D01*
X0415151Y0251360D01*
X0414539Y0251360D01*
X0414106Y0251793D01*
X0414106Y0252405D01*
X0414539Y0252838D01*
X0415151Y0252838D01*
X0415584Y0252405D01*
X0409993Y0245514D02*
X0410733Y0246254D01*
X0410733Y0243802D01*
X0409000Y0242069D01*
X0406548Y0242069D01*
X0404815Y0243802D01*
X0404815Y0246254D01*
X0406548Y0247987D01*
X0409000Y0247987D01*
X0410733Y0246254D01*
X0409623Y0245794D01*
X0409623Y0244262D01*
X0408540Y0243179D01*
X0407008Y0243179D01*
X0405925Y0244262D01*
X0405925Y0245794D01*
X0407008Y0246877D01*
X0408540Y0246877D01*
X0409623Y0245794D01*
X0408513Y0245334D01*
X0408513Y0244722D01*
X0408080Y0244289D01*
X0407468Y0244289D01*
X0407035Y0244722D01*
X0407035Y0245334D01*
X0407468Y0245767D01*
X0408080Y0245767D01*
X0408513Y0245334D01*
X0402922Y0238443D02*
X0403662Y0239183D01*
X0403662Y0236731D01*
X0401929Y0234998D01*
X0399477Y0234998D01*
X0397744Y0236731D01*
X0397744Y0239183D01*
X0399477Y0240916D01*
X0401929Y0240916D01*
X0403662Y0239183D01*
X0402552Y0238723D01*
X0402552Y0237191D01*
X0401469Y0236108D01*
X0399937Y0236108D01*
X0398854Y0237191D01*
X0398854Y0238723D01*
X0399937Y0239806D01*
X0401469Y0239806D01*
X0402552Y0238723D01*
X0401442Y0238263D01*
X0401442Y0237651D01*
X0401009Y0237218D01*
X0400397Y0237218D01*
X0399964Y0237651D01*
X0399964Y0238263D01*
X0400397Y0238696D01*
X0401009Y0238696D01*
X0401442Y0238263D01*
D13*
X0207251Y0251681D03*
X0313595Y0046899D03*
D14*
X0303595Y0046899D03*
X0293595Y0046899D03*
X0283595Y0046899D03*
X0273595Y0046899D03*
X0263595Y0046899D03*
X0253595Y0046899D03*
X0243595Y0046899D03*
X0233595Y0046899D03*
X0223595Y0046899D03*
X0207251Y0261681D03*
D15*
X0488590Y0265547D03*
X0488590Y0255547D03*
X0488590Y0245547D03*
X0488590Y0235547D03*
X0488590Y0225547D03*
X0488590Y0215547D03*
X0489564Y0280773D03*
X0489564Y0290773D03*
X0489564Y0300773D03*
X0489564Y0310773D03*
X0489564Y0320773D03*
X0489564Y0330773D03*
D16*
X0137793Y0290906D03*
X0101185Y0294108D03*
X0100628Y0302181D03*
X0099097Y0309558D03*
X0096174Y0316657D03*
X0087265Y0315822D03*
X0078496Y0315126D03*
X0072371Y0310950D03*
X0072093Y0302320D03*
X0100071Y0275177D03*
X0099514Y0266547D03*
X0097983Y0257500D03*
X0093390Y0250958D03*
X0086430Y0247895D03*
X0078774Y0248035D03*
X0070980Y0248591D03*
X0071397Y0257639D03*
X0138210Y0203910D03*
D17*
X0138210Y0204745D01*
X0160760Y0227295D01*
X0160760Y0268496D01*
X0159419Y0269836D01*
X0159419Y0277734D01*
X0170225Y0288540D01*
X0165353Y0292020D02*
X0165353Y0311507D01*
X0169529Y0315683D01*
X0492460Y0315683D01*
X0495940Y0312203D01*
X0495940Y0243998D01*
X0488284Y0236342D01*
X0488590Y0235547D01*
X0487588Y0225903D02*
X0488590Y0225547D01*
X0487588Y0225903D02*
X0486196Y0224511D01*
X0306635Y0224511D01*
X0259309Y0271837D01*
X0234254Y0271837D01*
X0225903Y0280188D01*
X0221727Y0276013D02*
X0287148Y0210591D01*
X0324035Y0230775D02*
X0407551Y0230775D01*
X0407774Y0230886D01*
X0407551Y0237734D02*
X0414511Y0237734D01*
X0414845Y0237957D01*
X0407551Y0237734D02*
X0397808Y0247478D01*
X0319859Y0247478D01*
X0288540Y0278797D01*
X0269053Y0278797D01*
X0259309Y0288540D01*
X0217551Y0288540D01*
X0215463Y0290628D01*
X0211983Y0287148D02*
X0257917Y0287148D01*
X0267661Y0277405D01*
X0277405Y0277405D01*
X0324035Y0230775D01*
X0314987Y0257917D02*
X0282972Y0289932D01*
X0225903Y0289932D01*
X0219639Y0296196D01*
X0194584Y0296196D01*
X0188320Y0302460D01*
X0189016Y0294804D02*
X0179969Y0303852D01*
X0179969Y0308027D01*
X0181361Y0309419D01*
X0209199Y0309419D01*
X0227295Y0291324D01*
X0360921Y0291324D01*
X0406855Y0245390D01*
X0407774Y0245028D01*
X0414845Y0252099D02*
X0415207Y0252350D01*
X0475060Y0252350D01*
X0488284Y0265573D01*
X0488590Y0265547D01*
X0489564Y0290773D02*
X0489676Y0292020D01*
X0494548Y0296892D01*
X0494548Y0302460D01*
X0491068Y0305939D01*
X0486892Y0305939D01*
X0483412Y0309419D01*
X0214767Y0309419D01*
X0229383Y0305939D02*
X0484108Y0305939D01*
X0488980Y0301068D01*
X0489564Y0300773D01*
X0278101Y0261397D02*
X0272533Y0261397D01*
X0248174Y0285756D01*
X0175793Y0285756D01*
X0171339Y0281024D01*
X0166049Y0276013D02*
X0207807Y0234254D01*
X0184840Y0248870D02*
X0184840Y0212679D01*
X0158533Y0228408D02*
X0139741Y0209617D01*
X0134035Y0209617D01*
X0134035Y0129859D01*
X0221727Y0042166D01*
X0267661Y0042166D01*
X0272533Y0047038D01*
X0273595Y0046899D01*
X0263595Y0046899D02*
X0263485Y0047734D01*
X0237038Y0074181D01*
X0237038Y0255134D01*
X0229383Y0262789D01*
X0211983Y0287148D02*
X0206416Y0292716D01*
X0201544Y0289236D02*
X0195976Y0294804D01*
X0189016Y0294804D01*
X0170451Y0316883D02*
X0169032Y0316883D01*
X0158219Y0306070D01*
X0158219Y0269339D01*
X0158533Y0269026D01*
X0158533Y0228408D01*
X0184840Y0248870D02*
X0162569Y0271141D01*
X0170451Y0316883D02*
X0175514Y0321947D01*
X0179969Y0321947D01*
X0233558Y0105500D02*
X0233558Y0047038D01*
X0233595Y0046899D01*
X0283668Y0077661D02*
X0313595Y0047734D01*
X0313595Y0046899D01*
D18*
X0085317Y0078357D03*
X0102020Y0118723D03*
X0184840Y0212679D03*
X0207807Y0234254D03*
X0209199Y0243998D03*
X0229383Y0262789D03*
X0221727Y0276013D03*
X0225903Y0280188D03*
X0215463Y0290628D03*
X0206416Y0292716D03*
X0201544Y0289236D03*
X0188320Y0302460D03*
X0177881Y0294804D03*
X0177185Y0289097D03*
X0170225Y0288540D03*
X0170364Y0293969D03*
X0165353Y0292020D03*
X0171339Y0281024D03*
X0166049Y0276013D03*
X0162569Y0271141D03*
X0153661Y0258057D03*
X0177046Y0273090D03*
X0190408Y0271141D03*
X0153104Y0284225D03*
X0169529Y0310115D03*
X0179969Y0321947D03*
X0202240Y0323339D03*
X0214767Y0309419D03*
X0229383Y0305939D03*
X0235090Y0297170D03*
X0257221Y0268357D03*
X0259309Y0263485D03*
X0247478Y0261397D03*
X0268357Y0248870D03*
X0278101Y0261397D03*
X0278101Y0282276D03*
X0272533Y0286452D03*
X0314987Y0257917D03*
X0361617Y0260005D03*
X0287148Y0210591D03*
X0253742Y0106196D03*
X0233558Y0105500D03*
X0283668Y0077661D03*
X0445134Y0118027D03*
X0465317Y0086708D03*
X0179412Y0366767D03*
X0118027Y0440958D03*
X0076965Y0459749D03*
X0202936Y0477148D03*
X0336562Y0479932D03*
X0337258Y0430518D03*
X0413815Y0431910D03*
X0458357Y0466709D03*
D19*
X0214337Y0281837D02*
X0214071Y0280884D01*
X0206416Y0273229D01*
X0206416Y0262093D01*
X0207251Y0261681D01*
M02*
