%
M48
M72
T01C0.01500
T02C0.02362
T03C0.03937
T04C0.04000
T05C0.04331
T06C0.05512
%
T01
X310227Y251127
X301227Y322527
X349227Y341427
X351927Y347727
X361387Y369851
X339327Y397227
X364143Y404611
X378795Y418741
X360627Y440427
X356727Y444327
X362427Y452727
X358527Y468327
X347127Y471927
X338727Y472827
X320127Y454227
X314127Y460227
X298227Y484827
X254427Y433227
X200427Y404427
X119427Y406227
X309627Y390027
X354927Y426327
X355827Y434127
X381627Y453627
X389427Y461427
X383727Y467727
X403227Y421527
X358527Y528027
X362427Y569127
X399027Y630627
X411327Y672027
X492627Y580827
X456927Y547527
X546327Y453927
X573027Y481227
X585993Y390787
X611427Y378327
X662727Y366327
X374727Y139827
X369327Y117927
T02
X498060Y277981
X446682Y297666
X432115Y291170
X365973Y333296
X383887Y361643
X386839Y372076
X372863Y389005
X374831Y406721
X381328Y411839
X388217Y405934
X392942Y416367
X399831Y398257
X419713Y407706
X409477Y427784
X360068Y485855
X353965Y493729
X353572Y513414
X332902Y511249
X292942Y535658
X287430Y530146
X281918Y523060
X266367Y507902
X260265Y502391
X252587Y499831
X245304Y498257
X238611Y502391
X234280Y508887
X227784Y514989
X222469Y519910
X216957Y526209
X212824Y533099
X218335Y539595
X223650Y545501
X245107Y568729
X251800Y572666
X255934Y577981
X263611Y570894
X270698Y565383
X275619Y560265
X282706Y554753
X289792Y549241
X295894Y543139
X283493Y477587
X300816Y453178
X320501Y443926
X327391Y438414
T03
X339897Y421214
X346968Y428285
T04
X454792Y272548
X464792Y272548
X464792Y262548
X454792Y262548
X474792Y262548
X474792Y272548
X529376Y222840
X536447Y229911
X547902Y239989
X554973Y247060
X562044Y254131
X569116Y261202
X576187Y268273
X583258Y275344
X522305Y215769
X515233Y208698
X508162Y201627
X501091Y194556
T05
X229815Y227328
X236886Y220257
X243957Y213186
X251028Y206115
X258099Y199044
X222744Y234399
X215673Y241470
X208602Y248542
X201531Y255613
X194460Y262684
X196209Y396800
X206209Y396800
T06
X333619Y400711
X374543Y441634
X441634Y374543
X400711Y333619
M30
