G75*
%MOIN*%
%OFA0B0*%
%FSLAX25Y25*%
%IPPOS*%
%LPD*%
%AMOC8*
5,1,8,0,0,1.08239X$1,22.5*
%
%ADD10C,0.06312*%
%ADD11C,0.06737*%
%ADD12R,0.08200X0.08200*%
%ADD13OC8,0.08200*%
%ADD14C,0.00039*%
%ADD15C,0.08200*%
%ADD16C,0.06162*%
%ADD17C,0.05300*%
D10*
X0333619Y0400711D03*
X0374543Y0441634D03*
X0441634Y0374543D03*
X0400711Y0333619D03*
D11*
X0341996Y0419115D02*
X0337798Y0423313D01*
X0344869Y0430384D02*
X0349067Y0426186D01*
D12*
X0454792Y0262548D03*
D13*
X0464792Y0262548D03*
X0464792Y0272548D03*
X0454792Y0272548D03*
X0474792Y0272548D03*
X0474792Y0262548D03*
D14*
X0227963Y0224684D02*
X0227532Y0225046D01*
X0227171Y0225477D01*
X0226889Y0225964D01*
X0226697Y0226493D01*
X0226599Y0227047D01*
X0226599Y0227610D01*
X0226697Y0228164D01*
X0226889Y0228692D01*
X0227171Y0229180D01*
X0227532Y0229611D01*
X0227963Y0229973D01*
X0228451Y0230254D01*
X0228979Y0230447D01*
X0229533Y0230545D01*
X0230096Y0230545D01*
X0230650Y0230447D01*
X0231179Y0230254D01*
X0231666Y0229973D01*
X0232098Y0229611D01*
X0232459Y0229180D01*
X0232741Y0228692D01*
X0232933Y0228164D01*
X0233031Y0227610D01*
X0233031Y0227047D01*
X0232933Y0226493D01*
X0232741Y0225964D01*
X0232459Y0225477D01*
X0232098Y0225046D01*
X0231666Y0224684D01*
X0231179Y0224402D01*
X0230650Y0224210D01*
X0230096Y0224112D01*
X0229533Y0224112D01*
X0228979Y0224210D01*
X0228451Y0224402D01*
X0227963Y0224684D01*
X0227946Y0224699D02*
X0231684Y0224699D01*
X0231729Y0224737D02*
X0227900Y0224737D01*
X0227855Y0224775D02*
X0231775Y0224775D01*
X0231820Y0224813D02*
X0227810Y0224813D01*
X0227765Y0224850D02*
X0231865Y0224850D01*
X0231910Y0224888D02*
X0227720Y0224888D01*
X0227675Y0224926D02*
X0231955Y0224926D01*
X0232001Y0224964D02*
X0227629Y0224964D01*
X0227584Y0225002D02*
X0232046Y0225002D01*
X0232091Y0225040D02*
X0227539Y0225040D01*
X0227505Y0225078D02*
X0232125Y0225078D01*
X0232156Y0225116D02*
X0227473Y0225116D01*
X0227442Y0225153D02*
X0232188Y0225153D01*
X0232220Y0225191D02*
X0227410Y0225191D01*
X0227378Y0225229D02*
X0232252Y0225229D01*
X0232283Y0225267D02*
X0227346Y0225267D01*
X0227315Y0225305D02*
X0232315Y0225305D01*
X0232347Y0225343D02*
X0227283Y0225343D01*
X0227251Y0225381D02*
X0232379Y0225381D01*
X0232411Y0225419D02*
X0227219Y0225419D01*
X0227188Y0225457D02*
X0232442Y0225457D01*
X0232470Y0225494D02*
X0227160Y0225494D01*
X0227138Y0225532D02*
X0232491Y0225532D01*
X0232513Y0225570D02*
X0227117Y0225570D01*
X0227095Y0225608D02*
X0232535Y0225608D01*
X0232557Y0225646D02*
X0227073Y0225646D01*
X0227051Y0225684D02*
X0232579Y0225684D01*
X0232601Y0225722D02*
X0227029Y0225722D01*
X0227007Y0225760D02*
X0232623Y0225760D01*
X0232644Y0225797D02*
X0226985Y0225797D01*
X0226964Y0225835D02*
X0232666Y0225835D01*
X0232688Y0225873D02*
X0226942Y0225873D01*
X0226920Y0225911D02*
X0232710Y0225911D01*
X0232732Y0225949D02*
X0226898Y0225949D01*
X0226881Y0225987D02*
X0232749Y0225987D01*
X0232763Y0226025D02*
X0226867Y0226025D01*
X0226853Y0226063D02*
X0232777Y0226063D01*
X0232790Y0226100D02*
X0226839Y0226100D01*
X0226826Y0226138D02*
X0232804Y0226138D01*
X0232818Y0226176D02*
X0226812Y0226176D01*
X0226798Y0226214D02*
X0232832Y0226214D01*
X0232846Y0226252D02*
X0226784Y0226252D01*
X0226771Y0226290D02*
X0232859Y0226290D01*
X0232873Y0226328D02*
X0226757Y0226328D01*
X0226743Y0226366D02*
X0232887Y0226366D01*
X0232901Y0226404D02*
X0226729Y0226404D01*
X0226715Y0226441D02*
X0232914Y0226441D01*
X0232928Y0226479D02*
X0226702Y0226479D01*
X0226692Y0226517D02*
X0232937Y0226517D01*
X0232944Y0226555D02*
X0226686Y0226555D01*
X0226679Y0226593D02*
X0232951Y0226593D01*
X0232958Y0226631D02*
X0226672Y0226631D01*
X0226666Y0226669D02*
X0232964Y0226669D01*
X0232971Y0226707D02*
X0226659Y0226707D01*
X0226652Y0226744D02*
X0232978Y0226744D01*
X0232984Y0226782D02*
X0226645Y0226782D01*
X0226639Y0226820D02*
X0232991Y0226820D01*
X0232998Y0226858D02*
X0226632Y0226858D01*
X0226625Y0226896D02*
X0233004Y0226896D01*
X0233011Y0226934D02*
X0226619Y0226934D01*
X0226612Y0226972D02*
X0233018Y0226972D01*
X0233025Y0227010D02*
X0226605Y0227010D01*
X0226599Y0227048D02*
X0233031Y0227048D01*
X0233031Y0227085D02*
X0226599Y0227085D01*
X0226599Y0227123D02*
X0233031Y0227123D01*
X0233031Y0227161D02*
X0226599Y0227161D01*
X0226599Y0227199D02*
X0233031Y0227199D01*
X0233031Y0227237D02*
X0226599Y0227237D01*
X0226599Y0227275D02*
X0233031Y0227275D01*
X0233031Y0227313D02*
X0226599Y0227313D01*
X0226599Y0227351D02*
X0233031Y0227351D01*
X0233031Y0227388D02*
X0226599Y0227388D01*
X0226599Y0227426D02*
X0233031Y0227426D01*
X0233031Y0227464D02*
X0226599Y0227464D01*
X0226599Y0227502D02*
X0233031Y0227502D01*
X0233031Y0227540D02*
X0226599Y0227540D01*
X0226599Y0227578D02*
X0233031Y0227578D01*
X0233030Y0227616D02*
X0226600Y0227616D01*
X0226606Y0227654D02*
X0233023Y0227654D01*
X0233017Y0227692D02*
X0226613Y0227692D01*
X0226620Y0227729D02*
X0233010Y0227729D01*
X0233003Y0227767D02*
X0226627Y0227767D01*
X0226633Y0227805D02*
X0232997Y0227805D01*
X0232990Y0227843D02*
X0226640Y0227843D01*
X0226647Y0227881D02*
X0232983Y0227881D01*
X0232977Y0227919D02*
X0226653Y0227919D01*
X0226660Y0227957D02*
X0232970Y0227957D01*
X0232963Y0227995D02*
X0226667Y0227995D01*
X0226673Y0228032D02*
X0232956Y0228032D01*
X0232950Y0228070D02*
X0226680Y0228070D01*
X0226687Y0228108D02*
X0232943Y0228108D01*
X0232936Y0228146D02*
X0226694Y0228146D01*
X0226704Y0228184D02*
X0232926Y0228184D01*
X0232912Y0228222D02*
X0226718Y0228222D01*
X0226732Y0228260D02*
X0232898Y0228260D01*
X0232884Y0228298D02*
X0226745Y0228298D01*
X0226759Y0228335D02*
X0232871Y0228335D01*
X0232857Y0228373D02*
X0226773Y0228373D01*
X0226787Y0228411D02*
X0232843Y0228411D01*
X0232829Y0228449D02*
X0226801Y0228449D01*
X0226814Y0228487D02*
X0232816Y0228487D01*
X0232802Y0228525D02*
X0226828Y0228525D01*
X0226842Y0228563D02*
X0232788Y0228563D01*
X0232774Y0228601D02*
X0226856Y0228601D01*
X0226869Y0228639D02*
X0232760Y0228639D01*
X0232747Y0228676D02*
X0226883Y0228676D01*
X0226902Y0228714D02*
X0232728Y0228714D01*
X0232706Y0228752D02*
X0226924Y0228752D01*
X0226945Y0228790D02*
X0232684Y0228790D01*
X0232663Y0228828D02*
X0226967Y0228828D01*
X0226989Y0228866D02*
X0232641Y0228866D01*
X0232619Y0228904D02*
X0227011Y0228904D01*
X0227033Y0228942D02*
X0232597Y0228942D01*
X0232575Y0228979D02*
X0227055Y0228979D01*
X0227077Y0229017D02*
X0232553Y0229017D01*
X0232531Y0229055D02*
X0227099Y0229055D01*
X0227120Y0229093D02*
X0232509Y0229093D01*
X0232488Y0229131D02*
X0227142Y0229131D01*
X0227164Y0229169D02*
X0232466Y0229169D01*
X0232437Y0229207D02*
X0227193Y0229207D01*
X0227225Y0229245D02*
X0232405Y0229245D01*
X0232373Y0229283D02*
X0227257Y0229283D01*
X0227288Y0229320D02*
X0232342Y0229320D01*
X0232310Y0229358D02*
X0227320Y0229358D01*
X0227352Y0229396D02*
X0232278Y0229396D01*
X0232246Y0229434D02*
X0227384Y0229434D01*
X0227415Y0229472D02*
X0232214Y0229472D01*
X0232183Y0229510D02*
X0227447Y0229510D01*
X0227479Y0229548D02*
X0232151Y0229548D01*
X0232119Y0229586D02*
X0227511Y0229586D01*
X0227547Y0229623D02*
X0232083Y0229623D01*
X0232038Y0229661D02*
X0227592Y0229661D01*
X0227637Y0229699D02*
X0231993Y0229699D01*
X0231948Y0229737D02*
X0227682Y0229737D01*
X0227728Y0229775D02*
X0231902Y0229775D01*
X0231857Y0229813D02*
X0227773Y0229813D01*
X0227818Y0229851D02*
X0231812Y0229851D01*
X0231767Y0229889D02*
X0227863Y0229889D01*
X0227908Y0229927D02*
X0231722Y0229927D01*
X0231677Y0229964D02*
X0227953Y0229964D01*
X0228014Y0230002D02*
X0231615Y0230002D01*
X0231550Y0230040D02*
X0228080Y0230040D01*
X0228146Y0230078D02*
X0231484Y0230078D01*
X0231419Y0230116D02*
X0228211Y0230116D01*
X0228277Y0230154D02*
X0231353Y0230154D01*
X0231287Y0230192D02*
X0228343Y0230192D01*
X0228408Y0230230D02*
X0231222Y0230230D01*
X0231143Y0230267D02*
X0228487Y0230267D01*
X0228591Y0230305D02*
X0231039Y0230305D01*
X0230934Y0230343D02*
X0228695Y0230343D01*
X0228799Y0230381D02*
X0230830Y0230381D01*
X0230726Y0230419D02*
X0228904Y0230419D01*
X0229037Y0230457D02*
X0230592Y0230457D01*
X0230378Y0230495D02*
X0229252Y0230495D01*
X0229466Y0230533D02*
X0230164Y0230533D01*
X0225670Y0233035D02*
X0225388Y0232548D01*
X0225027Y0232117D01*
X0224595Y0231755D01*
X0224108Y0231474D01*
X0223579Y0231281D01*
X0223025Y0231183D01*
X0222462Y0231183D01*
X0221908Y0231281D01*
X0221380Y0231474D01*
X0220892Y0231755D01*
X0220461Y0232117D01*
X0220099Y0232548D01*
X0219818Y0233035D01*
X0219626Y0233564D01*
X0219528Y0234118D01*
X0219528Y0234681D01*
X0219626Y0235235D01*
X0219818Y0235764D01*
X0220099Y0236251D01*
X0220461Y0236682D01*
X0220892Y0237044D01*
X0221380Y0237325D01*
X0221908Y0237518D01*
X0222462Y0237616D01*
X0223025Y0237616D01*
X0223579Y0237518D01*
X0224108Y0237325D01*
X0224595Y0237044D01*
X0225027Y0236682D01*
X0225388Y0236251D01*
X0225670Y0235764D01*
X0225862Y0235235D01*
X0225960Y0234681D01*
X0225960Y0234118D01*
X0225862Y0233564D01*
X0225670Y0233035D01*
X0225668Y0233033D02*
X0219819Y0233033D01*
X0219805Y0233071D02*
X0225683Y0233071D01*
X0225696Y0233109D02*
X0219791Y0233109D01*
X0219778Y0233146D02*
X0225710Y0233146D01*
X0225724Y0233184D02*
X0219764Y0233184D01*
X0219750Y0233222D02*
X0225738Y0233222D01*
X0225752Y0233260D02*
X0219736Y0233260D01*
X0219722Y0233298D02*
X0225765Y0233298D01*
X0225779Y0233336D02*
X0219709Y0233336D01*
X0219695Y0233374D02*
X0225793Y0233374D01*
X0225807Y0233412D02*
X0219681Y0233412D01*
X0219667Y0233449D02*
X0225820Y0233449D01*
X0225834Y0233487D02*
X0219654Y0233487D01*
X0219640Y0233525D02*
X0225848Y0233525D01*
X0225862Y0233563D02*
X0219626Y0233563D01*
X0219619Y0233601D02*
X0225869Y0233601D01*
X0225875Y0233639D02*
X0219612Y0233639D01*
X0219606Y0233677D02*
X0225882Y0233677D01*
X0225889Y0233715D02*
X0219599Y0233715D01*
X0219592Y0233753D02*
X0225895Y0233753D01*
X0225902Y0233790D02*
X0219586Y0233790D01*
X0219579Y0233828D02*
X0225909Y0233828D01*
X0225916Y0233866D02*
X0219572Y0233866D01*
X0219565Y0233904D02*
X0225922Y0233904D01*
X0225929Y0233942D02*
X0219559Y0233942D01*
X0219552Y0233980D02*
X0225936Y0233980D01*
X0225942Y0234018D02*
X0219545Y0234018D01*
X0219539Y0234056D02*
X0225949Y0234056D01*
X0225956Y0234093D02*
X0219532Y0234093D01*
X0219528Y0234131D02*
X0225960Y0234131D01*
X0225960Y0234169D02*
X0219528Y0234169D01*
X0219528Y0234207D02*
X0225960Y0234207D01*
X0225960Y0234245D02*
X0219528Y0234245D01*
X0219528Y0234283D02*
X0225960Y0234283D01*
X0225960Y0234321D02*
X0219528Y0234321D01*
X0219528Y0234359D02*
X0225960Y0234359D01*
X0225960Y0234397D02*
X0219528Y0234397D01*
X0219528Y0234434D02*
X0225960Y0234434D01*
X0225960Y0234472D02*
X0219528Y0234472D01*
X0219528Y0234510D02*
X0225960Y0234510D01*
X0225960Y0234548D02*
X0219528Y0234548D01*
X0219528Y0234586D02*
X0225960Y0234586D01*
X0225960Y0234624D02*
X0219528Y0234624D01*
X0219528Y0234662D02*
X0225960Y0234662D01*
X0225957Y0234700D02*
X0219531Y0234700D01*
X0219538Y0234737D02*
X0225950Y0234737D01*
X0225943Y0234775D02*
X0219544Y0234775D01*
X0219551Y0234813D02*
X0225937Y0234813D01*
X0225930Y0234851D02*
X0219558Y0234851D01*
X0219564Y0234889D02*
X0225923Y0234889D01*
X0225917Y0234927D02*
X0219571Y0234927D01*
X0219578Y0234965D02*
X0225910Y0234965D01*
X0225903Y0235003D02*
X0219585Y0235003D01*
X0219591Y0235041D02*
X0225896Y0235041D01*
X0225890Y0235078D02*
X0219598Y0235078D01*
X0219605Y0235116D02*
X0225883Y0235116D01*
X0225876Y0235154D02*
X0219611Y0235154D01*
X0219618Y0235192D02*
X0225870Y0235192D01*
X0225863Y0235230D02*
X0219625Y0235230D01*
X0219638Y0235268D02*
X0225850Y0235268D01*
X0225836Y0235306D02*
X0219651Y0235306D01*
X0219665Y0235344D02*
X0225823Y0235344D01*
X0225809Y0235381D02*
X0219679Y0235381D01*
X0219693Y0235419D02*
X0225795Y0235419D01*
X0225781Y0235457D02*
X0219707Y0235457D01*
X0219720Y0235495D02*
X0225767Y0235495D01*
X0225754Y0235533D02*
X0219734Y0235533D01*
X0219748Y0235571D02*
X0225740Y0235571D01*
X0225726Y0235609D02*
X0219762Y0235609D01*
X0219775Y0235647D02*
X0225712Y0235647D01*
X0225698Y0235684D02*
X0219789Y0235684D01*
X0219803Y0235722D02*
X0225685Y0235722D01*
X0225671Y0235760D02*
X0219817Y0235760D01*
X0219838Y0235798D02*
X0225650Y0235798D01*
X0225628Y0235836D02*
X0219860Y0235836D01*
X0219882Y0235874D02*
X0225606Y0235874D01*
X0225584Y0235912D02*
X0219904Y0235912D01*
X0219925Y0235950D02*
X0225562Y0235950D01*
X0225540Y0235988D02*
X0219947Y0235988D01*
X0219969Y0236025D02*
X0225519Y0236025D01*
X0225497Y0236063D02*
X0219991Y0236063D01*
X0220013Y0236101D02*
X0225475Y0236101D01*
X0225453Y0236139D02*
X0220035Y0236139D01*
X0220057Y0236177D02*
X0225431Y0236177D01*
X0225409Y0236215D02*
X0220079Y0236215D01*
X0220101Y0236253D02*
X0225387Y0236253D01*
X0225355Y0236291D02*
X0220133Y0236291D01*
X0220164Y0236328D02*
X0225323Y0236328D01*
X0225292Y0236366D02*
X0220196Y0236366D01*
X0220228Y0236404D02*
X0225260Y0236404D01*
X0225228Y0236442D02*
X0220260Y0236442D01*
X0220292Y0236480D02*
X0225196Y0236480D01*
X0225164Y0236518D02*
X0220323Y0236518D01*
X0220355Y0236556D02*
X0225133Y0236556D01*
X0225101Y0236594D02*
X0220387Y0236594D01*
X0220419Y0236632D02*
X0225069Y0236632D01*
X0225037Y0236669D02*
X0220450Y0236669D01*
X0220491Y0236707D02*
X0224997Y0236707D01*
X0224952Y0236745D02*
X0220536Y0236745D01*
X0220581Y0236783D02*
X0224906Y0236783D01*
X0224861Y0236821D02*
X0220627Y0236821D01*
X0220672Y0236859D02*
X0224816Y0236859D01*
X0224771Y0236897D02*
X0220717Y0236897D01*
X0220762Y0236935D02*
X0224726Y0236935D01*
X0224681Y0236972D02*
X0220807Y0236972D01*
X0220852Y0237010D02*
X0224635Y0237010D01*
X0224588Y0237048D02*
X0220900Y0237048D01*
X0220966Y0237086D02*
X0224522Y0237086D01*
X0224457Y0237124D02*
X0221031Y0237124D01*
X0221097Y0237162D02*
X0224391Y0237162D01*
X0224325Y0237200D02*
X0221162Y0237200D01*
X0221228Y0237238D02*
X0224260Y0237238D01*
X0224194Y0237276D02*
X0221294Y0237276D01*
X0221359Y0237313D02*
X0224129Y0237313D01*
X0224037Y0237351D02*
X0221451Y0237351D01*
X0221555Y0237389D02*
X0223932Y0237389D01*
X0223828Y0237427D02*
X0221659Y0237427D01*
X0221763Y0237465D02*
X0223724Y0237465D01*
X0223620Y0237503D02*
X0221868Y0237503D01*
X0222039Y0237541D02*
X0223449Y0237541D01*
X0223235Y0237579D02*
X0222253Y0237579D01*
X0218408Y0239776D02*
X0212938Y0239776D01*
X0212916Y0239814D02*
X0218430Y0239814D01*
X0218451Y0239851D02*
X0212894Y0239851D01*
X0212872Y0239889D02*
X0218473Y0239889D01*
X0218495Y0239927D02*
X0212850Y0239927D01*
X0212829Y0239965D02*
X0218517Y0239965D01*
X0218539Y0240003D02*
X0212807Y0240003D01*
X0212785Y0240041D02*
X0218561Y0240041D01*
X0218583Y0240079D02*
X0212763Y0240079D01*
X0212747Y0240106D02*
X0213028Y0239619D01*
X0213390Y0239188D01*
X0213821Y0238826D01*
X0214309Y0238545D01*
X0214837Y0238352D01*
X0215391Y0238254D01*
X0215954Y0238254D01*
X0216508Y0238352D01*
X0217037Y0238545D01*
X0217524Y0238826D01*
X0217956Y0239188D01*
X0218317Y0239619D01*
X0218599Y0240106D01*
X0218791Y0240635D01*
X0218889Y0241189D01*
X0218889Y0241752D01*
X0218791Y0242306D01*
X0218599Y0242835D01*
X0218317Y0243322D01*
X0217956Y0243753D01*
X0213390Y0243753D01*
X0213821Y0244115D01*
X0214309Y0244396D01*
X0214837Y0244589D01*
X0215391Y0244687D01*
X0215954Y0244687D01*
X0216508Y0244589D01*
X0217037Y0244396D01*
X0217524Y0244115D01*
X0217956Y0243753D01*
X0217987Y0243715D02*
X0213358Y0243715D01*
X0213326Y0243677D02*
X0218019Y0243677D01*
X0218051Y0243640D02*
X0213295Y0243640D01*
X0213263Y0243602D02*
X0218083Y0243602D01*
X0218114Y0243564D02*
X0213231Y0243564D01*
X0213199Y0243526D02*
X0218146Y0243526D01*
X0218178Y0243488D02*
X0213168Y0243488D01*
X0213136Y0243450D02*
X0218210Y0243450D01*
X0218242Y0243412D02*
X0213104Y0243412D01*
X0213072Y0243374D02*
X0218273Y0243374D01*
X0218305Y0243337D02*
X0213041Y0243337D01*
X0213028Y0243322D02*
X0212747Y0242835D01*
X0212555Y0242306D01*
X0212457Y0241752D01*
X0212457Y0241189D01*
X0212555Y0240635D01*
X0212747Y0240106D01*
X0212743Y0240117D02*
X0218602Y0240117D01*
X0218616Y0240154D02*
X0212729Y0240154D01*
X0212716Y0240192D02*
X0218630Y0240192D01*
X0218644Y0240230D02*
X0212702Y0240230D01*
X0212688Y0240268D02*
X0218658Y0240268D01*
X0218671Y0240306D02*
X0212674Y0240306D01*
X0212661Y0240344D02*
X0218685Y0240344D01*
X0218699Y0240382D02*
X0212647Y0240382D01*
X0212633Y0240420D02*
X0218713Y0240420D01*
X0218726Y0240458D02*
X0212619Y0240458D01*
X0212605Y0240495D02*
X0218740Y0240495D01*
X0218754Y0240533D02*
X0212592Y0240533D01*
X0212578Y0240571D02*
X0218768Y0240571D01*
X0218782Y0240609D02*
X0212564Y0240609D01*
X0212552Y0240647D02*
X0218793Y0240647D01*
X0218800Y0240685D02*
X0212546Y0240685D01*
X0212539Y0240723D02*
X0218807Y0240723D01*
X0218813Y0240761D02*
X0212532Y0240761D01*
X0212526Y0240798D02*
X0218820Y0240798D01*
X0218827Y0240836D02*
X0212519Y0240836D01*
X0212512Y0240874D02*
X0218833Y0240874D01*
X0218840Y0240912D02*
X0212506Y0240912D01*
X0212499Y0240950D02*
X0218847Y0240950D01*
X0218853Y0240988D02*
X0212492Y0240988D01*
X0212485Y0241026D02*
X0218860Y0241026D01*
X0218867Y0241064D02*
X0212479Y0241064D01*
X0212472Y0241102D02*
X0218874Y0241102D01*
X0218880Y0241139D02*
X0212465Y0241139D01*
X0212459Y0241177D02*
X0218887Y0241177D01*
X0218889Y0241215D02*
X0212457Y0241215D01*
X0212457Y0241253D02*
X0218889Y0241253D01*
X0218889Y0241291D02*
X0212457Y0241291D01*
X0212457Y0241329D02*
X0218889Y0241329D01*
X0218889Y0241367D02*
X0212457Y0241367D01*
X0212457Y0241405D02*
X0218889Y0241405D01*
X0218889Y0241442D02*
X0212457Y0241442D01*
X0212457Y0241480D02*
X0218889Y0241480D01*
X0218889Y0241518D02*
X0212457Y0241518D01*
X0212457Y0241556D02*
X0218889Y0241556D01*
X0218889Y0241594D02*
X0212457Y0241594D01*
X0212457Y0241632D02*
X0218889Y0241632D01*
X0218889Y0241670D02*
X0212457Y0241670D01*
X0212457Y0241708D02*
X0218889Y0241708D01*
X0218889Y0241746D02*
X0212457Y0241746D01*
X0212462Y0241783D02*
X0218883Y0241783D01*
X0218877Y0241821D02*
X0212469Y0241821D01*
X0212476Y0241859D02*
X0218870Y0241859D01*
X0218863Y0241897D02*
X0212482Y0241897D01*
X0212489Y0241935D02*
X0218857Y0241935D01*
X0218850Y0241973D02*
X0212496Y0241973D01*
X0212502Y0242011D02*
X0218843Y0242011D01*
X0218837Y0242049D02*
X0212509Y0242049D01*
X0212516Y0242086D02*
X0218830Y0242086D01*
X0218823Y0242124D02*
X0212522Y0242124D01*
X0212529Y0242162D02*
X0218816Y0242162D01*
X0218810Y0242200D02*
X0212536Y0242200D01*
X0212543Y0242238D02*
X0218803Y0242238D01*
X0218796Y0242276D02*
X0212549Y0242276D01*
X0212557Y0242314D02*
X0218788Y0242314D01*
X0218774Y0242352D02*
X0212571Y0242352D01*
X0212585Y0242389D02*
X0218761Y0242389D01*
X0218747Y0242427D02*
X0212599Y0242427D01*
X0212613Y0242465D02*
X0218733Y0242465D01*
X0218719Y0242503D02*
X0212626Y0242503D01*
X0212640Y0242541D02*
X0218705Y0242541D01*
X0218692Y0242579D02*
X0212654Y0242579D01*
X0212668Y0242617D02*
X0218678Y0242617D01*
X0218664Y0242655D02*
X0212681Y0242655D01*
X0212695Y0242693D02*
X0218650Y0242693D01*
X0218637Y0242730D02*
X0212709Y0242730D01*
X0212723Y0242768D02*
X0218623Y0242768D01*
X0218609Y0242806D02*
X0212737Y0242806D01*
X0212752Y0242844D02*
X0218593Y0242844D01*
X0218571Y0242882D02*
X0212774Y0242882D01*
X0212796Y0242920D02*
X0218549Y0242920D01*
X0218528Y0242958D02*
X0212818Y0242958D01*
X0212840Y0242996D02*
X0218506Y0242996D01*
X0218484Y0243033D02*
X0212862Y0243033D01*
X0212884Y0243071D02*
X0218462Y0243071D01*
X0218440Y0243109D02*
X0212906Y0243109D01*
X0212927Y0243147D02*
X0218418Y0243147D01*
X0218396Y0243185D02*
X0212949Y0243185D01*
X0212971Y0243223D02*
X0218374Y0243223D01*
X0218353Y0243261D02*
X0212993Y0243261D01*
X0213015Y0243299D02*
X0218331Y0243299D01*
X0217910Y0243791D02*
X0213435Y0243791D01*
X0213390Y0243753D02*
X0213028Y0243322D01*
X0213480Y0243829D02*
X0217865Y0243829D01*
X0217820Y0243867D02*
X0213525Y0243867D01*
X0213571Y0243905D02*
X0217775Y0243905D01*
X0217730Y0243943D02*
X0213616Y0243943D01*
X0213661Y0243981D02*
X0217685Y0243981D01*
X0217639Y0244018D02*
X0213706Y0244018D01*
X0213751Y0244056D02*
X0217594Y0244056D01*
X0217549Y0244094D02*
X0213796Y0244094D01*
X0213851Y0244132D02*
X0217495Y0244132D01*
X0217429Y0244170D02*
X0213917Y0244170D01*
X0213982Y0244208D02*
X0217363Y0244208D01*
X0217298Y0244246D02*
X0214048Y0244246D01*
X0214113Y0244284D02*
X0217232Y0244284D01*
X0217167Y0244321D02*
X0214179Y0244321D01*
X0214245Y0244359D02*
X0217101Y0244359D01*
X0217035Y0244397D02*
X0214311Y0244397D01*
X0214415Y0244435D02*
X0216930Y0244435D01*
X0216826Y0244473D02*
X0214519Y0244473D01*
X0214623Y0244511D02*
X0216722Y0244511D01*
X0216618Y0244549D02*
X0214727Y0244549D01*
X0214832Y0244587D02*
X0216514Y0244587D01*
X0216306Y0244624D02*
X0215040Y0244624D01*
X0215254Y0244662D02*
X0216092Y0244662D01*
X0211528Y0247177D02*
X0211720Y0247706D01*
X0211818Y0248260D01*
X0211818Y0248823D01*
X0211720Y0249377D01*
X0211528Y0249906D01*
X0211246Y0250393D01*
X0210885Y0250824D01*
X0210453Y0251186D01*
X0209966Y0251467D01*
X0209437Y0251660D01*
X0208883Y0251758D01*
X0208320Y0251758D01*
X0207766Y0251660D01*
X0207238Y0251467D01*
X0206750Y0251186D01*
X0206319Y0250824D01*
X0205957Y0250393D01*
X0205676Y0249906D01*
X0205484Y0249377D01*
X0205386Y0248823D01*
X0205386Y0248260D01*
X0205484Y0247706D01*
X0205676Y0247177D01*
X0205957Y0246690D01*
X0206319Y0246259D01*
X0206750Y0245897D01*
X0207238Y0245616D01*
X0207766Y0245423D01*
X0208320Y0245325D01*
X0208883Y0245325D01*
X0209437Y0245423D01*
X0209966Y0245616D01*
X0210453Y0245897D01*
X0210885Y0246259D01*
X0211246Y0246690D01*
X0211528Y0247177D01*
X0211519Y0247163D02*
X0205684Y0247163D01*
X0205668Y0247200D02*
X0211536Y0247200D01*
X0211550Y0247238D02*
X0205654Y0247238D01*
X0205640Y0247276D02*
X0211564Y0247276D01*
X0211577Y0247314D02*
X0205626Y0247314D01*
X0205612Y0247352D02*
X0211591Y0247352D01*
X0211605Y0247390D02*
X0205599Y0247390D01*
X0205585Y0247428D02*
X0211619Y0247428D01*
X0211632Y0247466D02*
X0205571Y0247466D01*
X0205557Y0247503D02*
X0211646Y0247503D01*
X0211660Y0247541D02*
X0205543Y0247541D01*
X0205530Y0247579D02*
X0211674Y0247579D01*
X0211688Y0247617D02*
X0205516Y0247617D01*
X0205502Y0247655D02*
X0211701Y0247655D01*
X0211715Y0247693D02*
X0205488Y0247693D01*
X0205479Y0247731D02*
X0211724Y0247731D01*
X0211731Y0247769D02*
X0205472Y0247769D01*
X0205466Y0247807D02*
X0211738Y0247807D01*
X0211744Y0247844D02*
X0205459Y0247844D01*
X0205452Y0247882D02*
X0211751Y0247882D01*
X0211758Y0247920D02*
X0205446Y0247920D01*
X0205439Y0247958D02*
X0211765Y0247958D01*
X0211771Y0247996D02*
X0205432Y0247996D01*
X0205426Y0248034D02*
X0211778Y0248034D01*
X0211785Y0248072D02*
X0205419Y0248072D01*
X0205412Y0248110D02*
X0211791Y0248110D01*
X0211798Y0248147D02*
X0205405Y0248147D01*
X0205399Y0248185D02*
X0211805Y0248185D01*
X0211811Y0248223D02*
X0205392Y0248223D01*
X0205386Y0248261D02*
X0211818Y0248261D01*
X0211818Y0248299D02*
X0205386Y0248299D01*
X0205386Y0248337D02*
X0211818Y0248337D01*
X0211818Y0248375D02*
X0205386Y0248375D01*
X0205386Y0248413D02*
X0211818Y0248413D01*
X0211818Y0248451D02*
X0205386Y0248451D01*
X0205386Y0248488D02*
X0211818Y0248488D01*
X0211818Y0248526D02*
X0205386Y0248526D01*
X0205386Y0248564D02*
X0211818Y0248564D01*
X0211818Y0248602D02*
X0205386Y0248602D01*
X0205386Y0248640D02*
X0211818Y0248640D01*
X0211818Y0248678D02*
X0205386Y0248678D01*
X0205386Y0248716D02*
X0211818Y0248716D01*
X0211818Y0248754D02*
X0205386Y0248754D01*
X0205386Y0248791D02*
X0211818Y0248791D01*
X0211817Y0248829D02*
X0205387Y0248829D01*
X0205393Y0248867D02*
X0211810Y0248867D01*
X0211803Y0248905D02*
X0205400Y0248905D01*
X0205407Y0248943D02*
X0211797Y0248943D01*
X0211790Y0248981D02*
X0205413Y0248981D01*
X0205420Y0249019D02*
X0211783Y0249019D01*
X0211777Y0249057D02*
X0205427Y0249057D01*
X0205434Y0249095D02*
X0211770Y0249095D01*
X0211763Y0249132D02*
X0205440Y0249132D01*
X0205447Y0249170D02*
X0211757Y0249170D01*
X0211750Y0249208D02*
X0205454Y0249208D01*
X0205460Y0249246D02*
X0211743Y0249246D01*
X0211736Y0249284D02*
X0205467Y0249284D01*
X0205474Y0249322D02*
X0211730Y0249322D01*
X0211723Y0249360D02*
X0205480Y0249360D01*
X0205491Y0249398D02*
X0211712Y0249398D01*
X0211699Y0249435D02*
X0205505Y0249435D01*
X0205519Y0249473D02*
X0211685Y0249473D01*
X0211671Y0249511D02*
X0205532Y0249511D01*
X0205546Y0249549D02*
X0211657Y0249549D01*
X0211644Y0249587D02*
X0205560Y0249587D01*
X0205574Y0249625D02*
X0211630Y0249625D01*
X0211616Y0249663D02*
X0205587Y0249663D01*
X0205601Y0249701D02*
X0211602Y0249701D01*
X0211588Y0249738D02*
X0205615Y0249738D01*
X0205629Y0249776D02*
X0211575Y0249776D01*
X0211561Y0249814D02*
X0205643Y0249814D01*
X0205656Y0249852D02*
X0211547Y0249852D01*
X0211533Y0249890D02*
X0205670Y0249890D01*
X0205689Y0249928D02*
X0211515Y0249928D01*
X0211493Y0249966D02*
X0205711Y0249966D01*
X0205732Y0250004D02*
X0211471Y0250004D01*
X0211449Y0250042D02*
X0205754Y0250042D01*
X0205776Y0250079D02*
X0211427Y0250079D01*
X0211405Y0250117D02*
X0205798Y0250117D01*
X0205820Y0250155D02*
X0211384Y0250155D01*
X0211362Y0250193D02*
X0205842Y0250193D01*
X0205864Y0250231D02*
X0211340Y0250231D01*
X0211318Y0250269D02*
X0205886Y0250269D01*
X0205907Y0250307D02*
X0211296Y0250307D01*
X0211274Y0250345D02*
X0205929Y0250345D01*
X0205951Y0250382D02*
X0211252Y0250382D01*
X0211223Y0250420D02*
X0205980Y0250420D01*
X0206012Y0250458D02*
X0211192Y0250458D01*
X0211160Y0250496D02*
X0206044Y0250496D01*
X0206075Y0250534D02*
X0211128Y0250534D01*
X0211096Y0250572D02*
X0206107Y0250572D01*
X0206139Y0250610D02*
X0211064Y0250610D01*
X0211033Y0250648D02*
X0206171Y0250648D01*
X0206203Y0250686D02*
X0211001Y0250686D01*
X0210969Y0250723D02*
X0206234Y0250723D01*
X0206266Y0250761D02*
X0210937Y0250761D01*
X0210906Y0250799D02*
X0206298Y0250799D01*
X0206334Y0250837D02*
X0210869Y0250837D01*
X0210824Y0250875D02*
X0206379Y0250875D01*
X0206424Y0250913D02*
X0210779Y0250913D01*
X0210734Y0250951D02*
X0206470Y0250951D01*
X0206515Y0250989D02*
X0210689Y0250989D01*
X0210644Y0251026D02*
X0206560Y0251026D01*
X0206605Y0251064D02*
X0210598Y0251064D01*
X0210553Y0251102D02*
X0206650Y0251102D01*
X0206695Y0251140D02*
X0210508Y0251140D01*
X0210463Y0251178D02*
X0206741Y0251178D01*
X0206802Y0251216D02*
X0210402Y0251216D01*
X0210336Y0251254D02*
X0206868Y0251254D01*
X0206933Y0251292D02*
X0210270Y0251292D01*
X0210205Y0251330D02*
X0206999Y0251330D01*
X0207064Y0251367D02*
X0210139Y0251367D01*
X0210073Y0251405D02*
X0207130Y0251405D01*
X0207196Y0251443D02*
X0210008Y0251443D01*
X0209928Y0251481D02*
X0207275Y0251481D01*
X0207379Y0251519D02*
X0209824Y0251519D01*
X0209720Y0251557D02*
X0207483Y0251557D01*
X0207587Y0251595D02*
X0209616Y0251595D01*
X0209512Y0251633D02*
X0207691Y0251633D01*
X0207826Y0251670D02*
X0209377Y0251670D01*
X0209163Y0251708D02*
X0208041Y0251708D01*
X0208255Y0251746D02*
X0208949Y0251746D01*
X0204457Y0254249D02*
X0204649Y0254777D01*
X0204747Y0255331D01*
X0204747Y0255894D01*
X0204649Y0256448D01*
X0204457Y0256977D01*
X0204175Y0257464D01*
X0203813Y0257895D01*
X0203382Y0258257D01*
X0202895Y0258538D01*
X0202366Y0258731D01*
X0201812Y0258829D01*
X0201249Y0258829D01*
X0200695Y0258731D01*
X0200167Y0258538D01*
X0199679Y0258257D01*
X0199248Y0257895D01*
X0198886Y0257464D01*
X0198605Y0256977D01*
X0198412Y0256448D01*
X0198314Y0255894D01*
X0198314Y0255331D01*
X0198412Y0254777D01*
X0198605Y0254249D01*
X0198886Y0253761D01*
X0199248Y0253330D01*
X0199679Y0252968D01*
X0200167Y0252687D01*
X0200695Y0252494D01*
X0201249Y0252396D01*
X0201812Y0252396D01*
X0202366Y0252494D01*
X0202895Y0252687D01*
X0203382Y0252968D01*
X0203813Y0253330D01*
X0204175Y0253761D01*
X0204457Y0254249D01*
X0204455Y0254246D02*
X0198606Y0254246D01*
X0198592Y0254284D02*
X0204470Y0254284D01*
X0204483Y0254322D02*
X0198578Y0254322D01*
X0198564Y0254360D02*
X0204497Y0254360D01*
X0204511Y0254398D02*
X0198550Y0254398D01*
X0198537Y0254436D02*
X0204525Y0254436D01*
X0204538Y0254474D02*
X0198523Y0254474D01*
X0198509Y0254512D02*
X0204552Y0254512D01*
X0204566Y0254549D02*
X0198495Y0254549D01*
X0198482Y0254587D02*
X0204580Y0254587D01*
X0204594Y0254625D02*
X0198468Y0254625D01*
X0198454Y0254663D02*
X0204607Y0254663D01*
X0204621Y0254701D02*
X0198440Y0254701D01*
X0198426Y0254739D02*
X0204635Y0254739D01*
X0204649Y0254777D02*
X0198413Y0254777D01*
X0198406Y0254815D02*
X0204655Y0254815D01*
X0204662Y0254852D02*
X0198399Y0254852D01*
X0198392Y0254890D02*
X0204669Y0254890D01*
X0204676Y0254928D02*
X0198386Y0254928D01*
X0198379Y0254966D02*
X0204682Y0254966D01*
X0204689Y0255004D02*
X0198372Y0255004D01*
X0198366Y0255042D02*
X0204696Y0255042D01*
X0204702Y0255080D02*
X0198359Y0255080D01*
X0198352Y0255118D02*
X0204709Y0255118D01*
X0204716Y0255156D02*
X0198346Y0255156D01*
X0198339Y0255193D02*
X0204723Y0255193D01*
X0204729Y0255231D02*
X0198332Y0255231D01*
X0198325Y0255269D02*
X0204736Y0255269D01*
X0204743Y0255307D02*
X0198319Y0255307D01*
X0198314Y0255345D02*
X0204747Y0255345D01*
X0204747Y0255383D02*
X0198314Y0255383D01*
X0198314Y0255421D02*
X0204747Y0255421D01*
X0204747Y0255459D02*
X0198314Y0255459D01*
X0198314Y0255496D02*
X0204747Y0255496D01*
X0204747Y0255534D02*
X0198314Y0255534D01*
X0198314Y0255572D02*
X0204747Y0255572D01*
X0204747Y0255610D02*
X0198314Y0255610D01*
X0198314Y0255648D02*
X0204747Y0255648D01*
X0204747Y0255686D02*
X0198314Y0255686D01*
X0198314Y0255724D02*
X0204747Y0255724D01*
X0204747Y0255762D02*
X0198314Y0255762D01*
X0198314Y0255800D02*
X0204747Y0255800D01*
X0204747Y0255837D02*
X0198314Y0255837D01*
X0198314Y0255875D02*
X0204747Y0255875D01*
X0204744Y0255913D02*
X0198318Y0255913D01*
X0198325Y0255951D02*
X0204737Y0255951D01*
X0204730Y0255989D02*
X0198331Y0255989D01*
X0198338Y0256027D02*
X0204723Y0256027D01*
X0204717Y0256065D02*
X0198345Y0256065D01*
X0198351Y0256103D02*
X0204710Y0256103D01*
X0204703Y0256140D02*
X0198358Y0256140D01*
X0198365Y0256178D02*
X0204697Y0256178D01*
X0204690Y0256216D02*
X0198371Y0256216D01*
X0198378Y0256254D02*
X0204683Y0256254D01*
X0204677Y0256292D02*
X0198385Y0256292D01*
X0198392Y0256330D02*
X0204670Y0256330D01*
X0204663Y0256368D02*
X0198398Y0256368D01*
X0198405Y0256406D02*
X0204656Y0256406D01*
X0204650Y0256443D02*
X0198412Y0256443D01*
X0198425Y0256481D02*
X0204637Y0256481D01*
X0204623Y0256519D02*
X0198438Y0256519D01*
X0198452Y0256557D02*
X0204609Y0256557D01*
X0204595Y0256595D02*
X0198466Y0256595D01*
X0198480Y0256633D02*
X0204582Y0256633D01*
X0204568Y0256671D02*
X0198493Y0256671D01*
X0198507Y0256709D02*
X0204554Y0256709D01*
X0204540Y0256747D02*
X0198521Y0256747D01*
X0198535Y0256784D02*
X0204527Y0256784D01*
X0204513Y0256822D02*
X0198549Y0256822D01*
X0198562Y0256860D02*
X0204499Y0256860D01*
X0204485Y0256898D02*
X0198576Y0256898D01*
X0198590Y0256936D02*
X0204471Y0256936D01*
X0204458Y0256974D02*
X0198604Y0256974D01*
X0198625Y0257012D02*
X0204436Y0257012D01*
X0204414Y0257050D02*
X0198647Y0257050D01*
X0198669Y0257087D02*
X0204393Y0257087D01*
X0204371Y0257125D02*
X0198691Y0257125D01*
X0198712Y0257163D02*
X0204349Y0257163D01*
X0204327Y0257201D02*
X0198734Y0257201D01*
X0198756Y0257239D02*
X0204305Y0257239D01*
X0204283Y0257277D02*
X0198778Y0257277D01*
X0198800Y0257315D02*
X0204261Y0257315D01*
X0204239Y0257353D02*
X0198822Y0257353D01*
X0198844Y0257391D02*
X0204218Y0257391D01*
X0204196Y0257428D02*
X0198866Y0257428D01*
X0198888Y0257466D02*
X0204173Y0257466D01*
X0204142Y0257504D02*
X0198920Y0257504D01*
X0198952Y0257542D02*
X0204110Y0257542D01*
X0204078Y0257580D02*
X0198983Y0257580D01*
X0199015Y0257618D02*
X0204046Y0257618D01*
X0204014Y0257656D02*
X0199047Y0257656D01*
X0199079Y0257694D02*
X0203983Y0257694D01*
X0203951Y0257731D02*
X0199110Y0257731D01*
X0199142Y0257769D02*
X0203919Y0257769D01*
X0203887Y0257807D02*
X0199174Y0257807D01*
X0199206Y0257845D02*
X0203856Y0257845D01*
X0203824Y0257883D02*
X0199237Y0257883D01*
X0199278Y0257921D02*
X0203783Y0257921D01*
X0203738Y0257959D02*
X0199323Y0257959D01*
X0199369Y0257997D02*
X0203693Y0257997D01*
X0203648Y0258035D02*
X0199414Y0258035D01*
X0199459Y0258072D02*
X0203602Y0258072D01*
X0203557Y0258110D02*
X0199504Y0258110D01*
X0199549Y0258148D02*
X0203512Y0258148D01*
X0203467Y0258186D02*
X0199594Y0258186D01*
X0199640Y0258224D02*
X0203422Y0258224D01*
X0203374Y0258262D02*
X0199687Y0258262D01*
X0199753Y0258300D02*
X0203308Y0258300D01*
X0203243Y0258338D02*
X0199819Y0258338D01*
X0199884Y0258375D02*
X0203177Y0258375D01*
X0203112Y0258413D02*
X0199950Y0258413D01*
X0200015Y0258451D02*
X0203046Y0258451D01*
X0202980Y0258489D02*
X0200081Y0258489D01*
X0200147Y0258527D02*
X0202915Y0258527D01*
X0202822Y0258565D02*
X0200239Y0258565D01*
X0200343Y0258603D02*
X0202718Y0258603D01*
X0202614Y0258641D02*
X0200447Y0258641D01*
X0200551Y0258678D02*
X0202510Y0258678D01*
X0202406Y0258716D02*
X0200655Y0258716D01*
X0200828Y0258754D02*
X0202234Y0258754D01*
X0202020Y0258792D02*
X0201042Y0258792D01*
X0197195Y0260989D02*
X0191724Y0260989D01*
X0191703Y0261027D02*
X0197217Y0261027D01*
X0197238Y0261065D02*
X0191681Y0261065D01*
X0191659Y0261103D02*
X0197260Y0261103D01*
X0197282Y0261141D02*
X0191637Y0261141D01*
X0191615Y0261179D02*
X0197304Y0261179D01*
X0197326Y0261217D02*
X0191593Y0261217D01*
X0191571Y0261254D02*
X0197348Y0261254D01*
X0197370Y0261292D02*
X0191549Y0261292D01*
X0191534Y0261320D02*
X0191815Y0260832D01*
X0192177Y0260401D01*
X0192608Y0260039D01*
X0193095Y0259758D01*
X0193624Y0259565D01*
X0194178Y0259467D01*
X0194741Y0259467D01*
X0195295Y0259565D01*
X0195824Y0259758D01*
X0196311Y0260039D01*
X0196742Y0260401D01*
X0197104Y0260832D01*
X0197385Y0261320D01*
X0197578Y0261848D01*
X0197676Y0262402D01*
X0197676Y0262965D01*
X0197578Y0263519D01*
X0197385Y0264048D01*
X0197104Y0264535D01*
X0196742Y0264966D01*
X0196311Y0265328D01*
X0195824Y0265610D01*
X0195295Y0265802D01*
X0194741Y0265900D01*
X0194178Y0265900D01*
X0193624Y0265802D01*
X0193095Y0265610D01*
X0192608Y0265328D01*
X0192177Y0264966D01*
X0191815Y0264535D01*
X0191534Y0264048D01*
X0191341Y0263519D01*
X0191243Y0262965D01*
X0191243Y0262402D01*
X0191341Y0261848D01*
X0191534Y0261320D01*
X0191530Y0261330D02*
X0197389Y0261330D01*
X0197403Y0261368D02*
X0191516Y0261368D01*
X0191502Y0261406D02*
X0197417Y0261406D01*
X0197431Y0261444D02*
X0191489Y0261444D01*
X0191475Y0261482D02*
X0197444Y0261482D01*
X0197458Y0261520D02*
X0191461Y0261520D01*
X0191447Y0261557D02*
X0197472Y0261557D01*
X0197486Y0261595D02*
X0191433Y0261595D01*
X0191420Y0261633D02*
X0197500Y0261633D01*
X0197513Y0261671D02*
X0191406Y0261671D01*
X0191392Y0261709D02*
X0197527Y0261709D01*
X0197541Y0261747D02*
X0191378Y0261747D01*
X0191364Y0261785D02*
X0197555Y0261785D01*
X0197569Y0261823D02*
X0191351Y0261823D01*
X0191339Y0261861D02*
X0197580Y0261861D01*
X0197587Y0261898D02*
X0191332Y0261898D01*
X0191326Y0261936D02*
X0197593Y0261936D01*
X0197600Y0261974D02*
X0191319Y0261974D01*
X0191312Y0262012D02*
X0197607Y0262012D01*
X0197613Y0262050D02*
X0191306Y0262050D01*
X0191299Y0262088D02*
X0197620Y0262088D01*
X0197627Y0262126D02*
X0191292Y0262126D01*
X0191286Y0262164D02*
X0197634Y0262164D01*
X0197640Y0262201D02*
X0191279Y0262201D01*
X0191272Y0262239D02*
X0197647Y0262239D01*
X0197654Y0262277D02*
X0191265Y0262277D01*
X0191259Y0262315D02*
X0197660Y0262315D01*
X0197667Y0262353D02*
X0191252Y0262353D01*
X0191245Y0262391D02*
X0197674Y0262391D01*
X0197676Y0262429D02*
X0191243Y0262429D01*
X0191243Y0262467D02*
X0197676Y0262467D01*
X0197676Y0262505D02*
X0191243Y0262505D01*
X0191243Y0262542D02*
X0197676Y0262542D01*
X0197676Y0262580D02*
X0191243Y0262580D01*
X0191243Y0262618D02*
X0197676Y0262618D01*
X0197676Y0262656D02*
X0191243Y0262656D01*
X0191243Y0262694D02*
X0197676Y0262694D01*
X0197676Y0262732D02*
X0191243Y0262732D01*
X0191243Y0262770D02*
X0197676Y0262770D01*
X0197676Y0262808D02*
X0191243Y0262808D01*
X0191243Y0262845D02*
X0197676Y0262845D01*
X0197676Y0262883D02*
X0191243Y0262883D01*
X0191243Y0262921D02*
X0197676Y0262921D01*
X0197676Y0262959D02*
X0191243Y0262959D01*
X0191249Y0262997D02*
X0197670Y0262997D01*
X0197663Y0263035D02*
X0191256Y0263035D01*
X0191262Y0263073D02*
X0197657Y0263073D01*
X0197650Y0263111D02*
X0191269Y0263111D01*
X0191276Y0263148D02*
X0197643Y0263148D01*
X0197637Y0263186D02*
X0191283Y0263186D01*
X0191289Y0263224D02*
X0197630Y0263224D01*
X0197623Y0263262D02*
X0191296Y0263262D01*
X0191303Y0263300D02*
X0197617Y0263300D01*
X0197610Y0263338D02*
X0191309Y0263338D01*
X0191316Y0263376D02*
X0197603Y0263376D01*
X0197596Y0263414D02*
X0191323Y0263414D01*
X0191329Y0263452D02*
X0197590Y0263452D01*
X0197583Y0263489D02*
X0191336Y0263489D01*
X0191344Y0263527D02*
X0197575Y0263527D01*
X0197561Y0263565D02*
X0191358Y0263565D01*
X0191372Y0263603D02*
X0197547Y0263603D01*
X0197534Y0263641D02*
X0191386Y0263641D01*
X0191399Y0263679D02*
X0197520Y0263679D01*
X0197506Y0263717D02*
X0191413Y0263717D01*
X0191427Y0263755D02*
X0197492Y0263755D01*
X0197478Y0263792D02*
X0191441Y0263792D01*
X0191455Y0263830D02*
X0197465Y0263830D01*
X0197451Y0263868D02*
X0191468Y0263868D01*
X0191482Y0263906D02*
X0197437Y0263906D01*
X0197423Y0263944D02*
X0191496Y0263944D01*
X0191510Y0263982D02*
X0197409Y0263982D01*
X0197396Y0264020D02*
X0191524Y0264020D01*
X0191539Y0264058D02*
X0197380Y0264058D01*
X0197358Y0264096D02*
X0191561Y0264096D01*
X0191583Y0264133D02*
X0197336Y0264133D01*
X0197314Y0264171D02*
X0191605Y0264171D01*
X0191627Y0264209D02*
X0197292Y0264209D01*
X0197270Y0264247D02*
X0191649Y0264247D01*
X0191671Y0264285D02*
X0197249Y0264285D01*
X0197227Y0264323D02*
X0191693Y0264323D01*
X0191714Y0264361D02*
X0197205Y0264361D01*
X0197183Y0264399D02*
X0191736Y0264399D01*
X0191758Y0264436D02*
X0197161Y0264436D01*
X0197139Y0264474D02*
X0191780Y0264474D01*
X0191802Y0264512D02*
X0197117Y0264512D01*
X0197092Y0264550D02*
X0191828Y0264550D01*
X0191859Y0264588D02*
X0197060Y0264588D01*
X0197028Y0264626D02*
X0191891Y0264626D01*
X0191923Y0264664D02*
X0196996Y0264664D01*
X0196964Y0264702D02*
X0191955Y0264702D01*
X0191986Y0264740D02*
X0196933Y0264740D01*
X0196901Y0264777D02*
X0192018Y0264777D01*
X0192050Y0264815D02*
X0196869Y0264815D01*
X0196837Y0264853D02*
X0192082Y0264853D01*
X0192114Y0264891D02*
X0196806Y0264891D01*
X0196774Y0264929D02*
X0192145Y0264929D01*
X0192177Y0264967D02*
X0196742Y0264967D01*
X0196697Y0265005D02*
X0192222Y0265005D01*
X0192268Y0265043D02*
X0196652Y0265043D01*
X0196606Y0265080D02*
X0192313Y0265080D01*
X0192358Y0265118D02*
X0196561Y0265118D01*
X0196516Y0265156D02*
X0192403Y0265156D01*
X0192448Y0265194D02*
X0196471Y0265194D01*
X0196426Y0265232D02*
X0192493Y0265232D01*
X0192539Y0265270D02*
X0196381Y0265270D01*
X0196335Y0265308D02*
X0192584Y0265308D01*
X0192638Y0265346D02*
X0196281Y0265346D01*
X0196215Y0265384D02*
X0192704Y0265384D01*
X0192770Y0265421D02*
X0196150Y0265421D01*
X0196084Y0265459D02*
X0192835Y0265459D01*
X0192901Y0265497D02*
X0196018Y0265497D01*
X0195953Y0265535D02*
X0192966Y0265535D01*
X0193032Y0265573D02*
X0195887Y0265573D01*
X0195820Y0265611D02*
X0193099Y0265611D01*
X0193203Y0265649D02*
X0195716Y0265649D01*
X0195612Y0265687D02*
X0193307Y0265687D01*
X0193411Y0265724D02*
X0195508Y0265724D01*
X0195404Y0265762D02*
X0193515Y0265762D01*
X0193619Y0265800D02*
X0195300Y0265800D01*
X0195091Y0265838D02*
X0193829Y0265838D01*
X0194043Y0265876D02*
X0194877Y0265876D01*
X0197173Y0260951D02*
X0191746Y0260951D01*
X0191768Y0260913D02*
X0197151Y0260913D01*
X0197129Y0260876D02*
X0191790Y0260876D01*
X0191812Y0260838D02*
X0197107Y0260838D01*
X0197077Y0260800D02*
X0191842Y0260800D01*
X0191874Y0260762D02*
X0197045Y0260762D01*
X0197013Y0260724D02*
X0191906Y0260724D01*
X0191938Y0260686D02*
X0196982Y0260686D01*
X0196950Y0260648D02*
X0191969Y0260648D01*
X0192001Y0260610D02*
X0196918Y0260610D01*
X0196886Y0260573D02*
X0192033Y0260573D01*
X0192065Y0260535D02*
X0196855Y0260535D01*
X0196823Y0260497D02*
X0192096Y0260497D01*
X0192128Y0260459D02*
X0196791Y0260459D01*
X0196759Y0260421D02*
X0192160Y0260421D01*
X0192198Y0260383D02*
X0196721Y0260383D01*
X0196676Y0260345D02*
X0192243Y0260345D01*
X0192288Y0260307D02*
X0196631Y0260307D01*
X0196586Y0260270D02*
X0192333Y0260270D01*
X0192379Y0260232D02*
X0196541Y0260232D01*
X0196495Y0260194D02*
X0192424Y0260194D01*
X0192469Y0260156D02*
X0196450Y0260156D01*
X0196405Y0260118D02*
X0192514Y0260118D01*
X0192559Y0260080D02*
X0196360Y0260080D01*
X0196315Y0260042D02*
X0192605Y0260042D01*
X0192669Y0260004D02*
X0196251Y0260004D01*
X0196185Y0259966D02*
X0192734Y0259966D01*
X0192800Y0259929D02*
X0196119Y0259929D01*
X0196054Y0259891D02*
X0192865Y0259891D01*
X0192931Y0259853D02*
X0195988Y0259853D01*
X0195923Y0259815D02*
X0192997Y0259815D01*
X0193062Y0259777D02*
X0195857Y0259777D01*
X0195772Y0259739D02*
X0193147Y0259739D01*
X0193251Y0259701D02*
X0195668Y0259701D01*
X0195564Y0259663D02*
X0193355Y0259663D01*
X0193459Y0259626D02*
X0195460Y0259626D01*
X0195356Y0259588D02*
X0193563Y0259588D01*
X0193713Y0259550D02*
X0195206Y0259550D01*
X0194992Y0259512D02*
X0193927Y0259512D01*
X0194141Y0259474D02*
X0194778Y0259474D01*
X0198628Y0254208D02*
X0204433Y0254208D01*
X0204412Y0254171D02*
X0198650Y0254171D01*
X0198672Y0254133D02*
X0204390Y0254133D01*
X0204368Y0254095D02*
X0198694Y0254095D01*
X0198715Y0254057D02*
X0204346Y0254057D01*
X0204324Y0254019D02*
X0198737Y0254019D01*
X0198759Y0253981D02*
X0204302Y0253981D01*
X0204280Y0253943D02*
X0198781Y0253943D01*
X0198803Y0253905D02*
X0204258Y0253905D01*
X0204237Y0253868D02*
X0198825Y0253868D01*
X0198847Y0253830D02*
X0204215Y0253830D01*
X0204193Y0253792D02*
X0198869Y0253792D01*
X0198892Y0253754D02*
X0204169Y0253754D01*
X0204137Y0253716D02*
X0198924Y0253716D01*
X0198956Y0253678D02*
X0204106Y0253678D01*
X0204074Y0253640D02*
X0198988Y0253640D01*
X0199019Y0253602D02*
X0204042Y0253602D01*
X0204010Y0253565D02*
X0199051Y0253565D01*
X0199083Y0253527D02*
X0203978Y0253527D01*
X0203947Y0253489D02*
X0199115Y0253489D01*
X0199146Y0253451D02*
X0203915Y0253451D01*
X0203883Y0253413D02*
X0199178Y0253413D01*
X0199210Y0253375D02*
X0203851Y0253375D01*
X0203820Y0253337D02*
X0199242Y0253337D01*
X0199284Y0253299D02*
X0203777Y0253299D01*
X0203732Y0253261D02*
X0199329Y0253261D01*
X0199375Y0253224D02*
X0203687Y0253224D01*
X0203642Y0253186D02*
X0199420Y0253186D01*
X0199465Y0253148D02*
X0203596Y0253148D01*
X0203551Y0253110D02*
X0199510Y0253110D01*
X0199555Y0253072D02*
X0203506Y0253072D01*
X0203461Y0253034D02*
X0199600Y0253034D01*
X0199646Y0252996D02*
X0203416Y0252996D01*
X0203365Y0252958D02*
X0199696Y0252958D01*
X0199762Y0252921D02*
X0203300Y0252921D01*
X0203234Y0252883D02*
X0199827Y0252883D01*
X0199893Y0252845D02*
X0203168Y0252845D01*
X0203103Y0252807D02*
X0199959Y0252807D01*
X0200024Y0252769D02*
X0203037Y0252769D01*
X0202972Y0252731D02*
X0200090Y0252731D01*
X0200155Y0252693D02*
X0202906Y0252693D01*
X0202808Y0252655D02*
X0200253Y0252655D01*
X0200357Y0252617D02*
X0202704Y0252617D01*
X0202600Y0252580D02*
X0200461Y0252580D01*
X0200565Y0252542D02*
X0202496Y0252542D01*
X0202392Y0252504D02*
X0200669Y0252504D01*
X0200856Y0252466D02*
X0202205Y0252466D01*
X0201991Y0252428D02*
X0201070Y0252428D01*
X0205706Y0247125D02*
X0211497Y0247125D01*
X0211475Y0247087D02*
X0205728Y0247087D01*
X0205750Y0247049D02*
X0211453Y0247049D01*
X0211431Y0247011D02*
X0205772Y0247011D01*
X0205794Y0246973D02*
X0211410Y0246973D01*
X0211388Y0246935D02*
X0205816Y0246935D01*
X0205838Y0246897D02*
X0211366Y0246897D01*
X0211344Y0246859D02*
X0205859Y0246859D01*
X0205881Y0246822D02*
X0211322Y0246822D01*
X0211300Y0246784D02*
X0205903Y0246784D01*
X0205925Y0246746D02*
X0211278Y0246746D01*
X0211257Y0246708D02*
X0205947Y0246708D01*
X0205974Y0246670D02*
X0211229Y0246670D01*
X0211198Y0246632D02*
X0206006Y0246632D01*
X0206038Y0246594D02*
X0211166Y0246594D01*
X0211134Y0246556D02*
X0206069Y0246556D01*
X0206101Y0246519D02*
X0211102Y0246519D01*
X0211071Y0246481D02*
X0206133Y0246481D01*
X0206165Y0246443D02*
X0211039Y0246443D01*
X0211007Y0246405D02*
X0206196Y0246405D01*
X0206228Y0246367D02*
X0210975Y0246367D01*
X0210944Y0246329D02*
X0206260Y0246329D01*
X0206292Y0246291D02*
X0210912Y0246291D01*
X0210878Y0246253D02*
X0206325Y0246253D01*
X0206371Y0246216D02*
X0210833Y0246216D01*
X0210788Y0246178D02*
X0206416Y0246178D01*
X0206461Y0246140D02*
X0210743Y0246140D01*
X0210697Y0246102D02*
X0206506Y0246102D01*
X0206551Y0246064D02*
X0210652Y0246064D01*
X0210607Y0246026D02*
X0206596Y0246026D01*
X0206642Y0245988D02*
X0210562Y0245988D01*
X0210517Y0245950D02*
X0206687Y0245950D01*
X0206732Y0245912D02*
X0210472Y0245912D01*
X0210414Y0245875D02*
X0206789Y0245875D01*
X0206855Y0245837D02*
X0210349Y0245837D01*
X0210283Y0245799D02*
X0206920Y0245799D01*
X0206986Y0245761D02*
X0210217Y0245761D01*
X0210152Y0245723D02*
X0207052Y0245723D01*
X0207117Y0245685D02*
X0210086Y0245685D01*
X0210021Y0245647D02*
X0207183Y0245647D01*
X0207255Y0245609D02*
X0209949Y0245609D01*
X0209844Y0245572D02*
X0207359Y0245572D01*
X0207463Y0245534D02*
X0209740Y0245534D01*
X0209636Y0245496D02*
X0207567Y0245496D01*
X0207671Y0245458D02*
X0209532Y0245458D01*
X0209418Y0245420D02*
X0207785Y0245420D01*
X0207999Y0245382D02*
X0209204Y0245382D01*
X0208990Y0245344D02*
X0208213Y0245344D01*
X0212960Y0239738D02*
X0218386Y0239738D01*
X0218364Y0239700D02*
X0212982Y0239700D01*
X0213003Y0239662D02*
X0218342Y0239662D01*
X0218320Y0239624D02*
X0213025Y0239624D01*
X0213056Y0239586D02*
X0218290Y0239586D01*
X0218258Y0239548D02*
X0213088Y0239548D01*
X0213119Y0239511D02*
X0218226Y0239511D01*
X0218195Y0239473D02*
X0213151Y0239473D01*
X0213183Y0239435D02*
X0218163Y0239435D01*
X0218131Y0239397D02*
X0213215Y0239397D01*
X0213246Y0239359D02*
X0218099Y0239359D01*
X0218067Y0239321D02*
X0213278Y0239321D01*
X0213310Y0239283D02*
X0218036Y0239283D01*
X0218004Y0239245D02*
X0213342Y0239245D01*
X0213373Y0239207D02*
X0217972Y0239207D01*
X0217934Y0239170D02*
X0213412Y0239170D01*
X0213457Y0239132D02*
X0217889Y0239132D01*
X0217844Y0239094D02*
X0213502Y0239094D01*
X0213547Y0239056D02*
X0217798Y0239056D01*
X0217753Y0239018D02*
X0213592Y0239018D01*
X0213637Y0238980D02*
X0217708Y0238980D01*
X0217663Y0238942D02*
X0213683Y0238942D01*
X0213728Y0238904D02*
X0217618Y0238904D01*
X0217573Y0238867D02*
X0213773Y0238867D01*
X0213818Y0238829D02*
X0217527Y0238829D01*
X0217463Y0238791D02*
X0213882Y0238791D01*
X0213948Y0238753D02*
X0217398Y0238753D01*
X0217332Y0238715D02*
X0214014Y0238715D01*
X0214079Y0238677D02*
X0217266Y0238677D01*
X0217201Y0238639D02*
X0214145Y0238639D01*
X0214210Y0238601D02*
X0217135Y0238601D01*
X0217070Y0238563D02*
X0214276Y0238563D01*
X0214361Y0238526D02*
X0216985Y0238526D01*
X0216880Y0238488D02*
X0214465Y0238488D01*
X0214569Y0238450D02*
X0216776Y0238450D01*
X0216672Y0238412D02*
X0214673Y0238412D01*
X0214777Y0238374D02*
X0216568Y0238374D01*
X0216417Y0238336D02*
X0214928Y0238336D01*
X0215142Y0238298D02*
X0216203Y0238298D01*
X0215989Y0238260D02*
X0215357Y0238260D01*
X0219841Y0232995D02*
X0225646Y0232995D01*
X0225625Y0232957D02*
X0219863Y0232957D01*
X0219885Y0232919D02*
X0225603Y0232919D01*
X0225581Y0232881D02*
X0219907Y0232881D01*
X0219929Y0232843D02*
X0225559Y0232843D01*
X0225537Y0232805D02*
X0219951Y0232805D01*
X0219973Y0232768D02*
X0225515Y0232768D01*
X0225493Y0232730D02*
X0219994Y0232730D01*
X0220016Y0232692D02*
X0225471Y0232692D01*
X0225450Y0232654D02*
X0220038Y0232654D01*
X0220060Y0232616D02*
X0225428Y0232616D01*
X0225406Y0232578D02*
X0220082Y0232578D01*
X0220106Y0232540D02*
X0225382Y0232540D01*
X0225350Y0232502D02*
X0220138Y0232502D01*
X0220169Y0232465D02*
X0225318Y0232465D01*
X0225287Y0232427D02*
X0220201Y0232427D01*
X0220233Y0232389D02*
X0225255Y0232389D01*
X0225223Y0232351D02*
X0220265Y0232351D01*
X0220296Y0232313D02*
X0225191Y0232313D01*
X0225160Y0232275D02*
X0220328Y0232275D01*
X0220360Y0232237D02*
X0225128Y0232237D01*
X0225096Y0232199D02*
X0220392Y0232199D01*
X0220423Y0232162D02*
X0225064Y0232162D01*
X0225033Y0232124D02*
X0220455Y0232124D01*
X0220498Y0232086D02*
X0224990Y0232086D01*
X0224945Y0232048D02*
X0220543Y0232048D01*
X0220588Y0232010D02*
X0224899Y0232010D01*
X0224854Y0231972D02*
X0220633Y0231972D01*
X0220679Y0231934D02*
X0224809Y0231934D01*
X0224764Y0231896D02*
X0220724Y0231896D01*
X0220769Y0231858D02*
X0224719Y0231858D01*
X0224674Y0231821D02*
X0220814Y0231821D01*
X0220859Y0231783D02*
X0224628Y0231783D01*
X0224578Y0231745D02*
X0220910Y0231745D01*
X0220976Y0231707D02*
X0224512Y0231707D01*
X0224447Y0231669D02*
X0221041Y0231669D01*
X0221107Y0231631D02*
X0224381Y0231631D01*
X0224315Y0231593D02*
X0221172Y0231593D01*
X0221238Y0231555D02*
X0224250Y0231555D01*
X0224184Y0231518D02*
X0221304Y0231518D01*
X0221369Y0231480D02*
X0224119Y0231480D01*
X0224021Y0231442D02*
X0221467Y0231442D01*
X0221571Y0231404D02*
X0223916Y0231404D01*
X0223812Y0231366D02*
X0221675Y0231366D01*
X0221779Y0231328D02*
X0223708Y0231328D01*
X0223604Y0231290D02*
X0221884Y0231290D01*
X0222071Y0231252D02*
X0223416Y0231252D01*
X0223202Y0231214D02*
X0222286Y0231214D01*
X0228003Y0224661D02*
X0231627Y0224661D01*
X0231561Y0224623D02*
X0228069Y0224623D01*
X0228134Y0224585D02*
X0231496Y0224585D01*
X0231430Y0224547D02*
X0228200Y0224547D01*
X0228266Y0224509D02*
X0231364Y0224509D01*
X0231299Y0224472D02*
X0228331Y0224472D01*
X0228397Y0224434D02*
X0231233Y0224434D01*
X0231161Y0224396D02*
X0228469Y0224396D01*
X0228573Y0224358D02*
X0231057Y0224358D01*
X0230952Y0224320D02*
X0228677Y0224320D01*
X0228781Y0224282D02*
X0230848Y0224282D01*
X0230744Y0224244D02*
X0228886Y0224244D01*
X0229000Y0224206D02*
X0230629Y0224206D01*
X0230415Y0224169D02*
X0229215Y0224169D01*
X0229429Y0224131D02*
X0230201Y0224131D01*
X0234118Y0221896D02*
X0239654Y0221896D01*
X0239632Y0221934D02*
X0234140Y0221934D01*
X0234162Y0221971D02*
X0239610Y0221971D01*
X0239588Y0222009D02*
X0234184Y0222009D01*
X0234206Y0222047D02*
X0239566Y0222047D01*
X0239544Y0222085D02*
X0234228Y0222085D01*
X0234242Y0222109D02*
X0233960Y0221621D01*
X0233768Y0221093D01*
X0233670Y0220539D01*
X0233670Y0219976D01*
X0233768Y0219422D01*
X0233960Y0218893D01*
X0234242Y0218406D01*
X0234603Y0217975D01*
X0235034Y0217613D01*
X0235522Y0217331D01*
X0236051Y0217139D01*
X0236605Y0217041D01*
X0237167Y0217041D01*
X0237721Y0217139D01*
X0238250Y0217331D01*
X0238738Y0217613D01*
X0239169Y0217975D01*
X0239530Y0218406D01*
X0239812Y0218893D01*
X0240004Y0219422D01*
X0240102Y0219976D01*
X0240102Y0220539D01*
X0240004Y0221093D01*
X0239812Y0221621D01*
X0239530Y0222109D01*
X0239169Y0222540D01*
X0238738Y0222902D01*
X0238250Y0223183D01*
X0237721Y0223376D01*
X0237167Y0223474D01*
X0236605Y0223474D01*
X0236051Y0223376D01*
X0235522Y0223183D01*
X0235034Y0222902D01*
X0234603Y0222540D01*
X0234242Y0222109D01*
X0234253Y0222123D02*
X0239519Y0222123D01*
X0239487Y0222161D02*
X0234285Y0222161D01*
X0234317Y0222199D02*
X0239455Y0222199D01*
X0239423Y0222237D02*
X0234349Y0222237D01*
X0234380Y0222274D02*
X0239392Y0222274D01*
X0239360Y0222312D02*
X0234412Y0222312D01*
X0234444Y0222350D02*
X0239328Y0222350D01*
X0239296Y0222388D02*
X0234476Y0222388D01*
X0234508Y0222426D02*
X0239264Y0222426D01*
X0239233Y0222464D02*
X0234539Y0222464D01*
X0234571Y0222502D02*
X0239201Y0222502D01*
X0239169Y0222540D02*
X0234603Y0222540D01*
X0234648Y0222578D02*
X0239124Y0222578D01*
X0239079Y0222615D02*
X0234693Y0222615D01*
X0234738Y0222653D02*
X0239034Y0222653D01*
X0238989Y0222691D02*
X0234783Y0222691D01*
X0234829Y0222729D02*
X0238943Y0222729D01*
X0238898Y0222767D02*
X0234874Y0222767D01*
X0234919Y0222805D02*
X0238853Y0222805D01*
X0238808Y0222843D02*
X0234964Y0222843D01*
X0235009Y0222881D02*
X0238763Y0222881D01*
X0238709Y0222918D02*
X0235063Y0222918D01*
X0235129Y0222956D02*
X0238643Y0222956D01*
X0238577Y0222994D02*
X0235195Y0222994D01*
X0235260Y0223032D02*
X0238512Y0223032D01*
X0238446Y0223070D02*
X0235326Y0223070D01*
X0235391Y0223108D02*
X0238381Y0223108D01*
X0238315Y0223146D02*
X0235457Y0223146D01*
X0235523Y0223184D02*
X0238249Y0223184D01*
X0238145Y0223222D02*
X0235627Y0223222D01*
X0235731Y0223259D02*
X0238041Y0223259D01*
X0237937Y0223297D02*
X0235836Y0223297D01*
X0235940Y0223335D02*
X0237832Y0223335D01*
X0237728Y0223373D02*
X0236044Y0223373D01*
X0236251Y0223411D02*
X0237521Y0223411D01*
X0237307Y0223449D02*
X0236465Y0223449D01*
X0234097Y0221858D02*
X0239675Y0221858D01*
X0239697Y0221820D02*
X0234075Y0221820D01*
X0234053Y0221782D02*
X0239719Y0221782D01*
X0239741Y0221744D02*
X0234031Y0221744D01*
X0234009Y0221706D02*
X0239763Y0221706D01*
X0239785Y0221668D02*
X0233987Y0221668D01*
X0233965Y0221630D02*
X0239807Y0221630D01*
X0239822Y0221593D02*
X0233950Y0221593D01*
X0233936Y0221555D02*
X0239836Y0221555D01*
X0239850Y0221517D02*
X0233922Y0221517D01*
X0233908Y0221479D02*
X0239864Y0221479D01*
X0239877Y0221441D02*
X0233895Y0221441D01*
X0233881Y0221403D02*
X0239891Y0221403D01*
X0239905Y0221365D02*
X0233867Y0221365D01*
X0233853Y0221327D02*
X0239919Y0221327D01*
X0239933Y0221290D02*
X0233839Y0221290D01*
X0233826Y0221252D02*
X0239946Y0221252D01*
X0239960Y0221214D02*
X0233812Y0221214D01*
X0233798Y0221176D02*
X0239974Y0221176D01*
X0239988Y0221138D02*
X0233784Y0221138D01*
X0233770Y0221100D02*
X0240002Y0221100D01*
X0240010Y0221062D02*
X0233762Y0221062D01*
X0233756Y0221024D02*
X0240016Y0221024D01*
X0240023Y0220987D02*
X0233749Y0220987D01*
X0233742Y0220949D02*
X0240030Y0220949D01*
X0240036Y0220911D02*
X0233736Y0220911D01*
X0233729Y0220873D02*
X0240043Y0220873D01*
X0240050Y0220835D02*
X0233722Y0220835D01*
X0233715Y0220797D02*
X0240057Y0220797D01*
X0240063Y0220759D02*
X0233709Y0220759D01*
X0233702Y0220721D02*
X0240070Y0220721D01*
X0240077Y0220683D02*
X0233695Y0220683D01*
X0233689Y0220646D02*
X0240083Y0220646D01*
X0240090Y0220608D02*
X0233682Y0220608D01*
X0233675Y0220570D02*
X0240097Y0220570D01*
X0240102Y0220532D02*
X0233670Y0220532D01*
X0233670Y0220494D02*
X0240102Y0220494D01*
X0240102Y0220456D02*
X0233670Y0220456D01*
X0233670Y0220418D02*
X0240102Y0220418D01*
X0240102Y0220380D02*
X0233670Y0220380D01*
X0233670Y0220343D02*
X0240102Y0220343D01*
X0240102Y0220305D02*
X0233670Y0220305D01*
X0233670Y0220267D02*
X0240102Y0220267D01*
X0240102Y0220229D02*
X0233670Y0220229D01*
X0233670Y0220191D02*
X0240102Y0220191D01*
X0240102Y0220153D02*
X0233670Y0220153D01*
X0233670Y0220115D02*
X0240102Y0220115D01*
X0240102Y0220077D02*
X0233670Y0220077D01*
X0233670Y0220039D02*
X0240102Y0220039D01*
X0240102Y0220002D02*
X0233670Y0220002D01*
X0233672Y0219964D02*
X0240100Y0219964D01*
X0240093Y0219926D02*
X0233679Y0219926D01*
X0233685Y0219888D02*
X0240087Y0219888D01*
X0240080Y0219850D02*
X0233692Y0219850D01*
X0233699Y0219812D02*
X0240073Y0219812D01*
X0240067Y0219774D02*
X0233705Y0219774D01*
X0233712Y0219736D02*
X0240060Y0219736D01*
X0240053Y0219699D02*
X0233719Y0219699D01*
X0233726Y0219661D02*
X0240046Y0219661D01*
X0240040Y0219623D02*
X0233732Y0219623D01*
X0233739Y0219585D02*
X0240033Y0219585D01*
X0240026Y0219547D02*
X0233746Y0219547D01*
X0233752Y0219509D02*
X0240020Y0219509D01*
X0240013Y0219471D02*
X0233759Y0219471D01*
X0233766Y0219433D02*
X0240006Y0219433D01*
X0239995Y0219395D02*
X0233777Y0219395D01*
X0233791Y0219358D02*
X0239981Y0219358D01*
X0239967Y0219320D02*
X0233805Y0219320D01*
X0233819Y0219282D02*
X0239953Y0219282D01*
X0239939Y0219244D02*
X0233833Y0219244D01*
X0233846Y0219206D02*
X0239926Y0219206D01*
X0239912Y0219168D02*
X0233860Y0219168D01*
X0233874Y0219130D02*
X0239898Y0219130D01*
X0239884Y0219092D02*
X0233888Y0219092D01*
X0233901Y0219055D02*
X0239871Y0219055D01*
X0239857Y0219017D02*
X0233915Y0219017D01*
X0233929Y0218979D02*
X0239843Y0218979D01*
X0239829Y0218941D02*
X0233943Y0218941D01*
X0233957Y0218903D02*
X0239815Y0218903D01*
X0239796Y0218865D02*
X0233976Y0218865D01*
X0233998Y0218827D02*
X0239774Y0218827D01*
X0239752Y0218789D02*
X0234020Y0218789D01*
X0234042Y0218752D02*
X0239730Y0218752D01*
X0239708Y0218714D02*
X0234064Y0218714D01*
X0234086Y0218676D02*
X0239686Y0218676D01*
X0239664Y0218638D02*
X0234108Y0218638D01*
X0234129Y0218600D02*
X0239643Y0218600D01*
X0239621Y0218562D02*
X0234151Y0218562D01*
X0234173Y0218524D02*
X0239599Y0218524D01*
X0239577Y0218486D02*
X0234195Y0218486D01*
X0234217Y0218448D02*
X0239555Y0218448D01*
X0239533Y0218411D02*
X0234239Y0218411D01*
X0234269Y0218373D02*
X0239503Y0218373D01*
X0239471Y0218335D02*
X0234301Y0218335D01*
X0234333Y0218297D02*
X0239439Y0218297D01*
X0239407Y0218259D02*
X0234365Y0218259D01*
X0234396Y0218221D02*
X0239376Y0218221D01*
X0239344Y0218183D02*
X0234428Y0218183D01*
X0234460Y0218145D02*
X0239312Y0218145D01*
X0239280Y0218108D02*
X0234492Y0218108D01*
X0234523Y0218070D02*
X0239249Y0218070D01*
X0239217Y0218032D02*
X0234555Y0218032D01*
X0234587Y0217994D02*
X0239185Y0217994D01*
X0239147Y0217956D02*
X0234625Y0217956D01*
X0234670Y0217918D02*
X0239102Y0217918D01*
X0239056Y0217880D02*
X0234716Y0217880D01*
X0234761Y0217842D02*
X0239011Y0217842D01*
X0238966Y0217804D02*
X0234806Y0217804D01*
X0234851Y0217767D02*
X0238921Y0217767D01*
X0238876Y0217729D02*
X0234896Y0217729D01*
X0234941Y0217691D02*
X0238830Y0217691D01*
X0238785Y0217653D02*
X0234987Y0217653D01*
X0235032Y0217615D02*
X0238740Y0217615D01*
X0238676Y0217577D02*
X0235096Y0217577D01*
X0235162Y0217539D02*
X0238610Y0217539D01*
X0238545Y0217501D02*
X0235227Y0217501D01*
X0235293Y0217464D02*
X0238479Y0217464D01*
X0238413Y0217426D02*
X0235359Y0217426D01*
X0235424Y0217388D02*
X0238348Y0217388D01*
X0238282Y0217350D02*
X0235490Y0217350D01*
X0235575Y0217312D02*
X0238197Y0217312D01*
X0238093Y0217274D02*
X0235679Y0217274D01*
X0235783Y0217236D02*
X0237989Y0217236D01*
X0237884Y0217198D02*
X0235888Y0217198D01*
X0235992Y0217160D02*
X0237780Y0217160D01*
X0237628Y0217123D02*
X0236144Y0217123D01*
X0236358Y0217085D02*
X0237414Y0217085D01*
X0237200Y0217047D02*
X0236572Y0217047D01*
X0241031Y0214550D02*
X0240839Y0214022D01*
X0240741Y0213468D01*
X0240741Y0212905D01*
X0240839Y0212351D01*
X0241031Y0211822D01*
X0241313Y0211335D01*
X0241674Y0210903D01*
X0242106Y0210542D01*
X0242593Y0210260D01*
X0243122Y0210068D01*
X0243676Y0209970D01*
X0244239Y0209970D01*
X0244793Y0210068D01*
X0245321Y0210260D01*
X0245809Y0210542D01*
X0246240Y0210903D01*
X0246601Y0211335D01*
X0246883Y0211822D01*
X0247075Y0212351D01*
X0247173Y0212905D01*
X0247173Y0213468D01*
X0247075Y0214022D01*
X0246883Y0214550D01*
X0246601Y0215038D01*
X0246240Y0215469D01*
X0245809Y0215831D01*
X0245321Y0216112D01*
X0244793Y0216304D01*
X0244239Y0216402D01*
X0243676Y0216402D01*
X0243122Y0216304D01*
X0242593Y0216112D01*
X0242106Y0215831D01*
X0241674Y0215469D01*
X0241313Y0215038D01*
X0241031Y0214550D01*
X0241030Y0214547D02*
X0246884Y0214547D01*
X0246898Y0214509D02*
X0241016Y0214509D01*
X0241002Y0214471D02*
X0246912Y0214471D01*
X0246926Y0214433D02*
X0240989Y0214433D01*
X0240975Y0214395D02*
X0246939Y0214395D01*
X0246953Y0214357D02*
X0240961Y0214357D01*
X0240947Y0214319D02*
X0246967Y0214319D01*
X0246981Y0214281D02*
X0240933Y0214281D01*
X0240920Y0214244D02*
X0246995Y0214244D01*
X0247008Y0214206D02*
X0240906Y0214206D01*
X0240892Y0214168D02*
X0247022Y0214168D01*
X0247036Y0214130D02*
X0240878Y0214130D01*
X0240864Y0214092D02*
X0247050Y0214092D01*
X0247063Y0214054D02*
X0240851Y0214054D01*
X0240838Y0214016D02*
X0247076Y0214016D01*
X0247083Y0213978D02*
X0240831Y0213978D01*
X0240824Y0213941D02*
X0247090Y0213941D01*
X0247096Y0213903D02*
X0240818Y0213903D01*
X0240811Y0213865D02*
X0247103Y0213865D01*
X0247110Y0213827D02*
X0240804Y0213827D01*
X0240798Y0213789D02*
X0247116Y0213789D01*
X0247123Y0213751D02*
X0240791Y0213751D01*
X0240784Y0213713D02*
X0247130Y0213713D01*
X0247137Y0213675D02*
X0240778Y0213675D01*
X0240771Y0213638D02*
X0247143Y0213638D01*
X0247150Y0213600D02*
X0240764Y0213600D01*
X0240757Y0213562D02*
X0247157Y0213562D01*
X0247163Y0213524D02*
X0240751Y0213524D01*
X0240744Y0213486D02*
X0247170Y0213486D01*
X0247173Y0213448D02*
X0240741Y0213448D01*
X0240741Y0213410D02*
X0247173Y0213410D01*
X0247173Y0213372D02*
X0240741Y0213372D01*
X0240741Y0213334D02*
X0247173Y0213334D01*
X0247173Y0213297D02*
X0240741Y0213297D01*
X0240741Y0213259D02*
X0247173Y0213259D01*
X0247173Y0213221D02*
X0240741Y0213221D01*
X0240741Y0213183D02*
X0247173Y0213183D01*
X0247173Y0213145D02*
X0240741Y0213145D01*
X0240741Y0213107D02*
X0247173Y0213107D01*
X0247173Y0213069D02*
X0240741Y0213069D01*
X0240741Y0213031D02*
X0247173Y0213031D01*
X0247173Y0212994D02*
X0240741Y0212994D01*
X0240741Y0212956D02*
X0247173Y0212956D01*
X0247173Y0212918D02*
X0240741Y0212918D01*
X0240745Y0212880D02*
X0247169Y0212880D01*
X0247162Y0212842D02*
X0240752Y0212842D01*
X0240759Y0212804D02*
X0247155Y0212804D01*
X0247149Y0212766D02*
X0240765Y0212766D01*
X0240772Y0212728D02*
X0247142Y0212728D01*
X0247135Y0212690D02*
X0240779Y0212690D01*
X0240785Y0212653D02*
X0247129Y0212653D01*
X0247122Y0212615D02*
X0240792Y0212615D01*
X0240799Y0212577D02*
X0247115Y0212577D01*
X0247109Y0212539D02*
X0240806Y0212539D01*
X0240812Y0212501D02*
X0247102Y0212501D01*
X0247095Y0212463D02*
X0240819Y0212463D01*
X0240826Y0212425D02*
X0247088Y0212425D01*
X0247082Y0212387D02*
X0240832Y0212387D01*
X0240839Y0212350D02*
X0247075Y0212350D01*
X0247061Y0212312D02*
X0240853Y0212312D01*
X0240867Y0212274D02*
X0247047Y0212274D01*
X0247033Y0212236D02*
X0240881Y0212236D01*
X0240894Y0212198D02*
X0247020Y0212198D01*
X0247006Y0212160D02*
X0240908Y0212160D01*
X0240922Y0212122D02*
X0246992Y0212122D01*
X0246978Y0212084D02*
X0240936Y0212084D01*
X0240950Y0212046D02*
X0246965Y0212046D01*
X0246951Y0212009D02*
X0240963Y0212009D01*
X0240977Y0211971D02*
X0246937Y0211971D01*
X0246923Y0211933D02*
X0240991Y0211933D01*
X0241005Y0211895D02*
X0246909Y0211895D01*
X0246896Y0211857D02*
X0241018Y0211857D01*
X0241033Y0211819D02*
X0246881Y0211819D01*
X0246859Y0211781D02*
X0241055Y0211781D01*
X0241077Y0211743D02*
X0246837Y0211743D01*
X0246816Y0211706D02*
X0241099Y0211706D01*
X0241120Y0211668D02*
X0246794Y0211668D01*
X0246772Y0211630D02*
X0241142Y0211630D01*
X0241164Y0211592D02*
X0246750Y0211592D01*
X0246728Y0211554D02*
X0241186Y0211554D01*
X0241208Y0211516D02*
X0246706Y0211516D01*
X0246684Y0211478D02*
X0241230Y0211478D01*
X0241252Y0211440D02*
X0246663Y0211440D01*
X0246641Y0211403D02*
X0241273Y0211403D01*
X0241295Y0211365D02*
X0246619Y0211365D01*
X0246595Y0211327D02*
X0241319Y0211327D01*
X0241351Y0211289D02*
X0246563Y0211289D01*
X0246531Y0211251D02*
X0241383Y0211251D01*
X0241415Y0211213D02*
X0246500Y0211213D01*
X0246468Y0211175D02*
X0241446Y0211175D01*
X0241478Y0211137D02*
X0246436Y0211137D01*
X0246404Y0211099D02*
X0241510Y0211099D01*
X0241542Y0211062D02*
X0246372Y0211062D01*
X0246341Y0211024D02*
X0241573Y0211024D01*
X0241605Y0210986D02*
X0246309Y0210986D01*
X0246277Y0210948D02*
X0241637Y0210948D01*
X0241669Y0210910D02*
X0246245Y0210910D01*
X0246203Y0210872D02*
X0241712Y0210872D01*
X0241757Y0210834D02*
X0246157Y0210834D01*
X0246112Y0210796D02*
X0241802Y0210796D01*
X0241847Y0210759D02*
X0246067Y0210759D01*
X0246022Y0210721D02*
X0241892Y0210721D01*
X0241937Y0210683D02*
X0245977Y0210683D01*
X0245932Y0210645D02*
X0241983Y0210645D01*
X0242028Y0210607D02*
X0245886Y0210607D01*
X0245841Y0210569D02*
X0242073Y0210569D01*
X0242124Y0210531D02*
X0245790Y0210531D01*
X0245725Y0210493D02*
X0242189Y0210493D01*
X0242255Y0210455D02*
X0245659Y0210455D01*
X0245593Y0210418D02*
X0242321Y0210418D01*
X0242386Y0210380D02*
X0245528Y0210380D01*
X0245462Y0210342D02*
X0242452Y0210342D01*
X0242517Y0210304D02*
X0245397Y0210304D01*
X0245331Y0210266D02*
X0242583Y0210266D01*
X0242681Y0210228D02*
X0245233Y0210228D01*
X0245129Y0210190D02*
X0242785Y0210190D01*
X0242890Y0210152D02*
X0245025Y0210152D01*
X0244920Y0210115D02*
X0242994Y0210115D01*
X0243098Y0210077D02*
X0244816Y0210077D01*
X0244627Y0210039D02*
X0243287Y0210039D01*
X0243501Y0210001D02*
X0244413Y0210001D01*
X0248268Y0207766D02*
X0253789Y0207766D01*
X0253810Y0207728D02*
X0248246Y0207728D01*
X0248224Y0207690D02*
X0253832Y0207690D01*
X0253854Y0207652D02*
X0248202Y0207652D01*
X0248180Y0207614D02*
X0253876Y0207614D01*
X0253898Y0207576D02*
X0248158Y0207576D01*
X0248137Y0207539D02*
X0253920Y0207539D01*
X0253942Y0207501D02*
X0248115Y0207501D01*
X0248102Y0207479D02*
X0247910Y0206951D01*
X0247812Y0206397D01*
X0247812Y0205834D01*
X0254244Y0205834D01*
X0254244Y0206397D01*
X0254146Y0206951D01*
X0253954Y0207479D01*
X0253673Y0207967D01*
X0253311Y0208398D01*
X0252880Y0208760D01*
X0252392Y0209041D01*
X0251864Y0209233D01*
X0251310Y0209331D01*
X0250747Y0209331D01*
X0250193Y0209233D01*
X0249664Y0209041D01*
X0249177Y0208760D01*
X0248745Y0208398D01*
X0248384Y0207967D01*
X0248102Y0207479D01*
X0248096Y0207463D02*
X0253960Y0207463D01*
X0253974Y0207425D02*
X0248083Y0207425D01*
X0248069Y0207387D02*
X0253988Y0207387D01*
X0254001Y0207349D02*
X0248055Y0207349D01*
X0248041Y0207311D02*
X0254015Y0207311D01*
X0254029Y0207273D02*
X0248027Y0207273D01*
X0248014Y0207236D02*
X0254043Y0207236D01*
X0254056Y0207198D02*
X0248000Y0207198D01*
X0247986Y0207160D02*
X0254070Y0207160D01*
X0254084Y0207122D02*
X0247972Y0207122D01*
X0247958Y0207084D02*
X0254098Y0207084D01*
X0254112Y0207046D02*
X0247945Y0207046D01*
X0247931Y0207008D02*
X0254125Y0207008D01*
X0254139Y0206970D02*
X0247917Y0206970D01*
X0247907Y0206933D02*
X0254150Y0206933D01*
X0254156Y0206895D02*
X0247900Y0206895D01*
X0247893Y0206857D02*
X0254163Y0206857D01*
X0254170Y0206819D02*
X0247887Y0206819D01*
X0247880Y0206781D02*
X0254176Y0206781D01*
X0254183Y0206743D02*
X0247873Y0206743D01*
X0247867Y0206705D02*
X0254190Y0206705D01*
X0254196Y0206667D02*
X0247860Y0206667D01*
X0247853Y0206629D02*
X0254203Y0206629D01*
X0254210Y0206592D02*
X0247846Y0206592D01*
X0247840Y0206554D02*
X0254217Y0206554D01*
X0254223Y0206516D02*
X0247833Y0206516D01*
X0247826Y0206478D02*
X0254230Y0206478D01*
X0254237Y0206440D02*
X0247820Y0206440D01*
X0247813Y0206402D02*
X0254243Y0206402D01*
X0254244Y0206364D02*
X0247812Y0206364D01*
X0247812Y0206326D02*
X0254244Y0206326D01*
X0254244Y0206289D02*
X0247812Y0206289D01*
X0247812Y0206251D02*
X0254244Y0206251D01*
X0254244Y0206213D02*
X0247812Y0206213D01*
X0247812Y0206175D02*
X0254244Y0206175D01*
X0254244Y0206137D02*
X0247812Y0206137D01*
X0247812Y0206099D02*
X0254244Y0206099D01*
X0254244Y0206061D02*
X0247812Y0206061D01*
X0247812Y0206023D02*
X0254244Y0206023D01*
X0254244Y0205985D02*
X0247812Y0205985D01*
X0247812Y0205948D02*
X0254244Y0205948D01*
X0254244Y0205910D02*
X0247812Y0205910D01*
X0247812Y0205872D02*
X0254244Y0205872D01*
X0254244Y0205834D02*
X0254146Y0205280D01*
X0253954Y0204751D01*
X0253673Y0204264D01*
X0253311Y0203832D01*
X0252880Y0203471D01*
X0252392Y0203189D01*
X0251864Y0202997D01*
X0251310Y0202899D01*
X0250747Y0202899D01*
X0250193Y0202997D01*
X0249664Y0203189D01*
X0249177Y0203471D01*
X0248745Y0203832D01*
X0248384Y0204264D01*
X0248102Y0204751D01*
X0247910Y0205280D01*
X0247812Y0205834D01*
X0247819Y0205796D02*
X0254238Y0205796D01*
X0254231Y0205758D02*
X0247825Y0205758D01*
X0247832Y0205720D02*
X0254224Y0205720D01*
X0254218Y0205682D02*
X0247839Y0205682D01*
X0247845Y0205645D02*
X0254211Y0205645D01*
X0254204Y0205607D02*
X0247852Y0205607D01*
X0247859Y0205569D02*
X0254197Y0205569D01*
X0254191Y0205531D02*
X0247865Y0205531D01*
X0247872Y0205493D02*
X0254184Y0205493D01*
X0254177Y0205455D02*
X0247879Y0205455D01*
X0247886Y0205417D02*
X0254171Y0205417D01*
X0254164Y0205379D02*
X0247892Y0205379D01*
X0247899Y0205341D02*
X0254157Y0205341D01*
X0254151Y0205304D02*
X0247906Y0205304D01*
X0247915Y0205266D02*
X0254141Y0205266D01*
X0254127Y0205228D02*
X0247929Y0205228D01*
X0247943Y0205190D02*
X0254114Y0205190D01*
X0254100Y0205152D02*
X0247956Y0205152D01*
X0247970Y0205114D02*
X0254086Y0205114D01*
X0254072Y0205076D02*
X0247984Y0205076D01*
X0247998Y0205038D02*
X0254059Y0205038D01*
X0254045Y0205001D02*
X0248011Y0205001D01*
X0248025Y0204963D02*
X0254031Y0204963D01*
X0254017Y0204925D02*
X0248039Y0204925D01*
X0248053Y0204887D02*
X0254003Y0204887D01*
X0253990Y0204849D02*
X0248067Y0204849D01*
X0248080Y0204811D02*
X0253976Y0204811D01*
X0253962Y0204773D02*
X0248094Y0204773D01*
X0248111Y0204735D02*
X0253945Y0204735D01*
X0253923Y0204698D02*
X0248133Y0204698D01*
X0248155Y0204660D02*
X0253901Y0204660D01*
X0253879Y0204622D02*
X0248177Y0204622D01*
X0248199Y0204584D02*
X0253857Y0204584D01*
X0253836Y0204546D02*
X0248221Y0204546D01*
X0248243Y0204508D02*
X0253814Y0204508D01*
X0253792Y0204470D02*
X0248264Y0204470D01*
X0248286Y0204432D02*
X0253770Y0204432D01*
X0253748Y0204394D02*
X0248308Y0204394D01*
X0248330Y0204357D02*
X0253726Y0204357D01*
X0253704Y0204319D02*
X0248352Y0204319D01*
X0248374Y0204281D02*
X0253682Y0204281D01*
X0253655Y0204243D02*
X0248401Y0204243D01*
X0248433Y0204205D02*
X0253623Y0204205D01*
X0253592Y0204167D02*
X0248465Y0204167D01*
X0248496Y0204129D02*
X0253560Y0204129D01*
X0253528Y0204091D02*
X0248528Y0204091D01*
X0248560Y0204054D02*
X0253496Y0204054D01*
X0253465Y0204016D02*
X0248592Y0204016D01*
X0248623Y0203978D02*
X0253433Y0203978D01*
X0253401Y0203940D02*
X0248655Y0203940D01*
X0248687Y0203902D02*
X0253369Y0203902D01*
X0253338Y0203864D02*
X0248719Y0203864D01*
X0248753Y0203826D02*
X0253304Y0203826D01*
X0253258Y0203788D02*
X0248798Y0203788D01*
X0248843Y0203750D02*
X0253213Y0203750D01*
X0253168Y0203713D02*
X0248888Y0203713D01*
X0248933Y0203675D02*
X0253123Y0203675D01*
X0253078Y0203637D02*
X0248979Y0203637D01*
X0249024Y0203599D02*
X0253033Y0203599D01*
X0252987Y0203561D02*
X0249069Y0203561D01*
X0249114Y0203523D02*
X0252942Y0203523D01*
X0252897Y0203485D02*
X0249159Y0203485D01*
X0249217Y0203447D02*
X0252839Y0203447D01*
X0252774Y0203410D02*
X0249283Y0203410D01*
X0249348Y0203372D02*
X0252708Y0203372D01*
X0252642Y0203334D02*
X0249414Y0203334D01*
X0249479Y0203296D02*
X0252577Y0203296D01*
X0252511Y0203258D02*
X0249545Y0203258D01*
X0249611Y0203220D02*
X0252446Y0203220D01*
X0252373Y0203182D02*
X0249683Y0203182D01*
X0249787Y0203144D02*
X0252269Y0203144D01*
X0252165Y0203106D02*
X0249892Y0203106D01*
X0249996Y0203069D02*
X0252061Y0203069D01*
X0251956Y0203031D02*
X0250100Y0203031D01*
X0250216Y0202993D02*
X0251840Y0202993D01*
X0251626Y0202955D02*
X0250430Y0202955D01*
X0250644Y0202917D02*
X0251412Y0202917D01*
X0254386Y0199924D02*
X0261812Y0199924D01*
X0261850Y0199887D02*
X0254348Y0199887D01*
X0254310Y0199849D02*
X0261888Y0199849D01*
X0261926Y0199811D02*
X0254273Y0199811D01*
X0254235Y0199773D02*
X0261964Y0199773D01*
X0262002Y0199735D02*
X0254197Y0199735D01*
X0254159Y0199697D02*
X0262040Y0199697D01*
X0262077Y0199659D02*
X0254121Y0199659D01*
X0254083Y0199621D02*
X0262115Y0199621D01*
X0262153Y0199584D02*
X0254045Y0199584D01*
X0254007Y0199546D02*
X0262191Y0199546D01*
X0262229Y0199508D02*
X0253969Y0199508D01*
X0253932Y0199470D02*
X0262267Y0199470D01*
X0262305Y0199432D02*
X0253894Y0199432D01*
X0253856Y0199394D02*
X0262343Y0199394D01*
X0262380Y0199356D02*
X0253818Y0199356D01*
X0253780Y0199318D02*
X0262418Y0199318D01*
X0262456Y0199280D02*
X0253742Y0199280D01*
X0253704Y0199243D02*
X0262494Y0199243D01*
X0262532Y0199205D02*
X0253666Y0199205D01*
X0253629Y0199167D02*
X0262570Y0199167D01*
X0262608Y0199129D02*
X0253591Y0199129D01*
X0253553Y0199091D02*
X0262646Y0199091D01*
X0262684Y0199053D02*
X0253515Y0199053D01*
X0253506Y0199044D02*
X0258099Y0203637D01*
X0258100Y0203637D01*
X0258099Y0203637D02*
X0262693Y0199044D01*
X0258099Y0194451D01*
X0253506Y0199044D01*
X0253535Y0199015D02*
X0262664Y0199015D01*
X0262626Y0198977D02*
X0253572Y0198977D01*
X0253610Y0198940D02*
X0262588Y0198940D01*
X0262550Y0198902D02*
X0253648Y0198902D01*
X0253686Y0198864D02*
X0262512Y0198864D01*
X0262474Y0198826D02*
X0253724Y0198826D01*
X0253762Y0198788D02*
X0262437Y0198788D01*
X0262399Y0198750D02*
X0253800Y0198750D01*
X0253838Y0198712D02*
X0262361Y0198712D01*
X0262323Y0198674D02*
X0253876Y0198674D01*
X0253913Y0198636D02*
X0262285Y0198636D01*
X0262247Y0198599D02*
X0253951Y0198599D01*
X0253989Y0198561D02*
X0262209Y0198561D01*
X0262171Y0198523D02*
X0254027Y0198523D01*
X0254065Y0198485D02*
X0262133Y0198485D01*
X0262096Y0198447D02*
X0254103Y0198447D01*
X0254141Y0198409D02*
X0262058Y0198409D01*
X0262020Y0198371D02*
X0254179Y0198371D01*
X0254216Y0198333D02*
X0261982Y0198333D01*
X0261944Y0198296D02*
X0254254Y0198296D01*
X0254292Y0198258D02*
X0261906Y0198258D01*
X0261868Y0198220D02*
X0254330Y0198220D01*
X0254368Y0198182D02*
X0261830Y0198182D01*
X0261793Y0198144D02*
X0254406Y0198144D01*
X0254444Y0198106D02*
X0261755Y0198106D01*
X0261717Y0198068D02*
X0254482Y0198068D01*
X0254520Y0198030D02*
X0261679Y0198030D01*
X0261641Y0197992D02*
X0254557Y0197992D01*
X0254595Y0197955D02*
X0261603Y0197955D01*
X0261565Y0197917D02*
X0254633Y0197917D01*
X0254671Y0197879D02*
X0261527Y0197879D01*
X0261490Y0197841D02*
X0254709Y0197841D01*
X0254747Y0197803D02*
X0261452Y0197803D01*
X0261414Y0197765D02*
X0254785Y0197765D01*
X0254823Y0197727D02*
X0261376Y0197727D01*
X0261338Y0197689D02*
X0254860Y0197689D01*
X0254898Y0197652D02*
X0261300Y0197652D01*
X0261262Y0197614D02*
X0254936Y0197614D01*
X0254974Y0197576D02*
X0261224Y0197576D01*
X0261186Y0197538D02*
X0255012Y0197538D01*
X0255050Y0197500D02*
X0261149Y0197500D01*
X0261111Y0197462D02*
X0255088Y0197462D01*
X0255126Y0197424D02*
X0261073Y0197424D01*
X0261035Y0197386D02*
X0255163Y0197386D01*
X0255201Y0197349D02*
X0260997Y0197349D01*
X0260959Y0197311D02*
X0255239Y0197311D01*
X0255277Y0197273D02*
X0260921Y0197273D01*
X0260883Y0197235D02*
X0255315Y0197235D01*
X0255353Y0197197D02*
X0260846Y0197197D01*
X0260808Y0197159D02*
X0255391Y0197159D01*
X0255429Y0197121D02*
X0260770Y0197121D01*
X0260732Y0197083D02*
X0255467Y0197083D01*
X0255504Y0197045D02*
X0260694Y0197045D01*
X0260656Y0197008D02*
X0255542Y0197008D01*
X0255580Y0196970D02*
X0260618Y0196970D01*
X0260580Y0196932D02*
X0255618Y0196932D01*
X0255656Y0196894D02*
X0260542Y0196894D01*
X0260505Y0196856D02*
X0255694Y0196856D01*
X0255732Y0196818D02*
X0260467Y0196818D01*
X0260429Y0196780D02*
X0255770Y0196780D01*
X0255807Y0196742D02*
X0260391Y0196742D01*
X0260353Y0196705D02*
X0255845Y0196705D01*
X0255883Y0196667D02*
X0260315Y0196667D01*
X0260277Y0196629D02*
X0255921Y0196629D01*
X0255959Y0196591D02*
X0260239Y0196591D01*
X0260202Y0196553D02*
X0255997Y0196553D01*
X0256035Y0196515D02*
X0260164Y0196515D01*
X0260126Y0196477D02*
X0256073Y0196477D01*
X0256111Y0196439D02*
X0260088Y0196439D01*
X0260050Y0196401D02*
X0256148Y0196401D01*
X0256186Y0196364D02*
X0260012Y0196364D01*
X0259974Y0196326D02*
X0256224Y0196326D01*
X0256262Y0196288D02*
X0259936Y0196288D01*
X0259898Y0196250D02*
X0256300Y0196250D01*
X0256338Y0196212D02*
X0259861Y0196212D01*
X0259823Y0196174D02*
X0256376Y0196174D01*
X0256414Y0196136D02*
X0259785Y0196136D01*
X0259747Y0196098D02*
X0256451Y0196098D01*
X0256489Y0196061D02*
X0259709Y0196061D01*
X0259671Y0196023D02*
X0256527Y0196023D01*
X0256565Y0195985D02*
X0259633Y0195985D01*
X0259595Y0195947D02*
X0256603Y0195947D01*
X0256641Y0195909D02*
X0259558Y0195909D01*
X0259520Y0195871D02*
X0256679Y0195871D01*
X0256717Y0195833D02*
X0259482Y0195833D01*
X0259444Y0195795D02*
X0256755Y0195795D01*
X0256792Y0195757D02*
X0259406Y0195757D01*
X0259368Y0195720D02*
X0256830Y0195720D01*
X0256868Y0195682D02*
X0259330Y0195682D01*
X0259292Y0195644D02*
X0256906Y0195644D01*
X0256944Y0195606D02*
X0259255Y0195606D01*
X0259217Y0195568D02*
X0256982Y0195568D01*
X0257020Y0195530D02*
X0259179Y0195530D01*
X0259141Y0195492D02*
X0257058Y0195492D01*
X0257095Y0195454D02*
X0259103Y0195454D01*
X0259065Y0195417D02*
X0257133Y0195417D01*
X0257171Y0195379D02*
X0259027Y0195379D01*
X0258989Y0195341D02*
X0257209Y0195341D01*
X0257247Y0195303D02*
X0258951Y0195303D01*
X0258914Y0195265D02*
X0257285Y0195265D01*
X0257323Y0195227D02*
X0258876Y0195227D01*
X0258838Y0195189D02*
X0257361Y0195189D01*
X0257398Y0195151D02*
X0258800Y0195151D01*
X0258762Y0195114D02*
X0257436Y0195114D01*
X0257474Y0195076D02*
X0258724Y0195076D01*
X0258686Y0195038D02*
X0257512Y0195038D01*
X0257550Y0195000D02*
X0258648Y0195000D01*
X0258611Y0194962D02*
X0257588Y0194962D01*
X0257626Y0194924D02*
X0258573Y0194924D01*
X0258535Y0194886D02*
X0257664Y0194886D01*
X0257702Y0194848D02*
X0258497Y0194848D01*
X0258459Y0194810D02*
X0257739Y0194810D01*
X0257777Y0194773D02*
X0258421Y0194773D01*
X0258383Y0194735D02*
X0257815Y0194735D01*
X0257853Y0194697D02*
X0258345Y0194697D01*
X0258307Y0194659D02*
X0257891Y0194659D01*
X0257929Y0194621D02*
X0258270Y0194621D01*
X0258232Y0194583D02*
X0257967Y0194583D01*
X0258005Y0194545D02*
X0258194Y0194545D01*
X0258156Y0194507D02*
X0258042Y0194507D01*
X0258080Y0194470D02*
X0258118Y0194470D01*
X0261774Y0199962D02*
X0254424Y0199962D01*
X0254462Y0200000D02*
X0261737Y0200000D01*
X0261699Y0200038D02*
X0254500Y0200038D01*
X0254538Y0200076D02*
X0261661Y0200076D01*
X0261623Y0200114D02*
X0254576Y0200114D01*
X0254613Y0200152D02*
X0261585Y0200152D01*
X0261547Y0200190D02*
X0254651Y0200190D01*
X0254689Y0200227D02*
X0261509Y0200227D01*
X0261471Y0200265D02*
X0254727Y0200265D01*
X0254765Y0200303D02*
X0261433Y0200303D01*
X0261396Y0200341D02*
X0254803Y0200341D01*
X0254841Y0200379D02*
X0261358Y0200379D01*
X0261320Y0200417D02*
X0254879Y0200417D01*
X0254916Y0200455D02*
X0261282Y0200455D01*
X0261244Y0200493D02*
X0254954Y0200493D01*
X0254992Y0200531D02*
X0261206Y0200531D01*
X0261168Y0200568D02*
X0255030Y0200568D01*
X0255068Y0200606D02*
X0261130Y0200606D01*
X0261093Y0200644D02*
X0255106Y0200644D01*
X0255144Y0200682D02*
X0261055Y0200682D01*
X0261017Y0200720D02*
X0255182Y0200720D01*
X0255220Y0200758D02*
X0260979Y0200758D01*
X0260941Y0200796D02*
X0255257Y0200796D01*
X0255295Y0200834D02*
X0260903Y0200834D01*
X0260865Y0200871D02*
X0255333Y0200871D01*
X0255371Y0200909D02*
X0260827Y0200909D01*
X0260789Y0200947D02*
X0255409Y0200947D01*
X0255447Y0200985D02*
X0260752Y0200985D01*
X0260714Y0201023D02*
X0255485Y0201023D01*
X0255523Y0201061D02*
X0260676Y0201061D01*
X0260638Y0201099D02*
X0255560Y0201099D01*
X0255598Y0201137D02*
X0260600Y0201137D01*
X0260562Y0201175D02*
X0255636Y0201175D01*
X0255674Y0201212D02*
X0260524Y0201212D01*
X0260486Y0201250D02*
X0255712Y0201250D01*
X0255750Y0201288D02*
X0260449Y0201288D01*
X0260411Y0201326D02*
X0255788Y0201326D01*
X0255826Y0201364D02*
X0260373Y0201364D01*
X0260335Y0201402D02*
X0255864Y0201402D01*
X0255901Y0201440D02*
X0260297Y0201440D01*
X0260259Y0201478D02*
X0255939Y0201478D01*
X0255977Y0201515D02*
X0260221Y0201515D01*
X0260183Y0201553D02*
X0256015Y0201553D01*
X0256053Y0201591D02*
X0260145Y0201591D01*
X0260108Y0201629D02*
X0256091Y0201629D01*
X0256129Y0201667D02*
X0260070Y0201667D01*
X0260032Y0201705D02*
X0256167Y0201705D01*
X0256204Y0201743D02*
X0259994Y0201743D01*
X0259956Y0201781D02*
X0256242Y0201781D01*
X0256280Y0201819D02*
X0259918Y0201819D01*
X0259880Y0201856D02*
X0256318Y0201856D01*
X0256356Y0201894D02*
X0259842Y0201894D01*
X0259805Y0201932D02*
X0256394Y0201932D01*
X0256432Y0201970D02*
X0259767Y0201970D01*
X0259729Y0202008D02*
X0256470Y0202008D01*
X0256508Y0202046D02*
X0259691Y0202046D01*
X0259653Y0202084D02*
X0256545Y0202084D01*
X0256583Y0202122D02*
X0259615Y0202122D01*
X0259577Y0202159D02*
X0256621Y0202159D01*
X0256659Y0202197D02*
X0259539Y0202197D01*
X0259502Y0202235D02*
X0256697Y0202235D01*
X0256735Y0202273D02*
X0259464Y0202273D01*
X0259426Y0202311D02*
X0256773Y0202311D01*
X0256811Y0202349D02*
X0259388Y0202349D01*
X0259350Y0202387D02*
X0256848Y0202387D01*
X0256886Y0202425D02*
X0259312Y0202425D01*
X0259274Y0202462D02*
X0256924Y0202462D01*
X0256962Y0202500D02*
X0259236Y0202500D01*
X0259198Y0202538D02*
X0257000Y0202538D01*
X0257038Y0202576D02*
X0259161Y0202576D01*
X0259123Y0202614D02*
X0257076Y0202614D01*
X0257114Y0202652D02*
X0259085Y0202652D01*
X0259047Y0202690D02*
X0257151Y0202690D01*
X0257189Y0202728D02*
X0259009Y0202728D01*
X0258971Y0202766D02*
X0257227Y0202766D01*
X0257265Y0202803D02*
X0258933Y0202803D01*
X0258895Y0202841D02*
X0257303Y0202841D01*
X0257341Y0202879D02*
X0258858Y0202879D01*
X0258820Y0202917D02*
X0257379Y0202917D01*
X0257417Y0202955D02*
X0258782Y0202955D01*
X0258744Y0202993D02*
X0257455Y0202993D01*
X0257492Y0203031D02*
X0258706Y0203031D01*
X0258668Y0203069D02*
X0257530Y0203069D01*
X0257568Y0203106D02*
X0258630Y0203106D01*
X0258592Y0203144D02*
X0257606Y0203144D01*
X0257644Y0203182D02*
X0258554Y0203182D01*
X0258517Y0203220D02*
X0257682Y0203220D01*
X0257720Y0203258D02*
X0258479Y0203258D01*
X0258441Y0203296D02*
X0257758Y0203296D01*
X0257795Y0203334D02*
X0258403Y0203334D01*
X0258365Y0203372D02*
X0257833Y0203372D01*
X0257871Y0203410D02*
X0258327Y0203410D01*
X0258289Y0203447D02*
X0257909Y0203447D01*
X0257947Y0203485D02*
X0258251Y0203485D01*
X0258214Y0203523D02*
X0257985Y0203523D01*
X0258023Y0203561D02*
X0258176Y0203561D01*
X0258138Y0203599D02*
X0258061Y0203599D01*
X0253767Y0207804D02*
X0248290Y0207804D01*
X0248312Y0207842D02*
X0253745Y0207842D01*
X0253723Y0207880D02*
X0248333Y0207880D01*
X0248355Y0207917D02*
X0253701Y0207917D01*
X0253679Y0207955D02*
X0248377Y0207955D01*
X0248406Y0207993D02*
X0253650Y0207993D01*
X0253619Y0208031D02*
X0248438Y0208031D01*
X0248469Y0208069D02*
X0253587Y0208069D01*
X0253555Y0208107D02*
X0248501Y0208107D01*
X0248533Y0208145D02*
X0253523Y0208145D01*
X0253492Y0208183D02*
X0248565Y0208183D01*
X0248597Y0208220D02*
X0253460Y0208220D01*
X0253428Y0208258D02*
X0248628Y0208258D01*
X0248660Y0208296D02*
X0253396Y0208296D01*
X0253364Y0208334D02*
X0248692Y0208334D01*
X0248724Y0208372D02*
X0253333Y0208372D01*
X0253297Y0208410D02*
X0248760Y0208410D01*
X0248805Y0208448D02*
X0253252Y0208448D01*
X0253206Y0208486D02*
X0248850Y0208486D01*
X0248895Y0208524D02*
X0253161Y0208524D01*
X0253116Y0208561D02*
X0248940Y0208561D01*
X0248985Y0208599D02*
X0253071Y0208599D01*
X0253026Y0208637D02*
X0249031Y0208637D01*
X0249076Y0208675D02*
X0252980Y0208675D01*
X0252935Y0208713D02*
X0249121Y0208713D01*
X0249166Y0208751D02*
X0252890Y0208751D01*
X0252829Y0208789D02*
X0249227Y0208789D01*
X0249293Y0208827D02*
X0252764Y0208827D01*
X0252698Y0208864D02*
X0249358Y0208864D01*
X0249424Y0208902D02*
X0252632Y0208902D01*
X0252567Y0208940D02*
X0249489Y0208940D01*
X0249555Y0208978D02*
X0252501Y0208978D01*
X0252436Y0209016D02*
X0249621Y0209016D01*
X0249699Y0209054D02*
X0252357Y0209054D01*
X0252253Y0209092D02*
X0249803Y0209092D01*
X0249908Y0209130D02*
X0252149Y0209130D01*
X0252045Y0209168D02*
X0250012Y0209168D01*
X0250116Y0209205D02*
X0251941Y0209205D01*
X0251808Y0209243D02*
X0250249Y0209243D01*
X0250463Y0209281D02*
X0251594Y0209281D01*
X0251379Y0209319D02*
X0250677Y0209319D01*
X0246863Y0214585D02*
X0241051Y0214585D01*
X0241073Y0214622D02*
X0246841Y0214622D01*
X0246819Y0214660D02*
X0241095Y0214660D01*
X0241117Y0214698D02*
X0246798Y0214698D01*
X0246776Y0214736D02*
X0241138Y0214736D01*
X0241160Y0214774D02*
X0246754Y0214774D01*
X0246732Y0214812D02*
X0241182Y0214812D01*
X0241204Y0214850D02*
X0246710Y0214850D01*
X0246688Y0214888D02*
X0241226Y0214888D01*
X0241248Y0214925D02*
X0246666Y0214925D01*
X0246644Y0214963D02*
X0241270Y0214963D01*
X0241292Y0215001D02*
X0246623Y0215001D01*
X0246600Y0215039D02*
X0241314Y0215039D01*
X0241346Y0215077D02*
X0246569Y0215077D01*
X0246537Y0215115D02*
X0241377Y0215115D01*
X0241409Y0215153D02*
X0246505Y0215153D01*
X0246473Y0215191D02*
X0241441Y0215191D01*
X0241473Y0215229D02*
X0246442Y0215229D01*
X0246410Y0215266D02*
X0241504Y0215266D01*
X0241536Y0215304D02*
X0246378Y0215304D01*
X0246346Y0215342D02*
X0241568Y0215342D01*
X0241600Y0215380D02*
X0246314Y0215380D01*
X0246283Y0215418D02*
X0241631Y0215418D01*
X0241663Y0215456D02*
X0246251Y0215456D01*
X0246210Y0215494D02*
X0241704Y0215494D01*
X0241749Y0215532D02*
X0246165Y0215532D01*
X0246120Y0215569D02*
X0241794Y0215569D01*
X0241839Y0215607D02*
X0246075Y0215607D01*
X0246030Y0215645D02*
X0241884Y0215645D01*
X0241930Y0215683D02*
X0245985Y0215683D01*
X0245939Y0215721D02*
X0241975Y0215721D01*
X0242020Y0215759D02*
X0245894Y0215759D01*
X0245849Y0215797D02*
X0242065Y0215797D01*
X0242112Y0215835D02*
X0245802Y0215835D01*
X0245736Y0215873D02*
X0242178Y0215873D01*
X0242244Y0215910D02*
X0245670Y0215910D01*
X0245605Y0215948D02*
X0242309Y0215948D01*
X0242375Y0215986D02*
X0245539Y0215986D01*
X0245474Y0216024D02*
X0242440Y0216024D01*
X0242506Y0216062D02*
X0245408Y0216062D01*
X0245342Y0216100D02*
X0242572Y0216100D01*
X0242663Y0216138D02*
X0245251Y0216138D01*
X0245147Y0216176D02*
X0242767Y0216176D01*
X0242872Y0216213D02*
X0245043Y0216213D01*
X0244939Y0216251D02*
X0242976Y0216251D01*
X0243080Y0216289D02*
X0244834Y0216289D01*
X0244665Y0216327D02*
X0243250Y0216327D01*
X0243464Y0216365D02*
X0244450Y0216365D01*
X0206770Y0393621D02*
X0207314Y0393767D01*
X0207824Y0394004D01*
X0208285Y0394327D01*
X0208683Y0394725D01*
X0209005Y0395186D01*
X0209243Y0395696D01*
X0209389Y0396239D01*
X0209438Y0396800D01*
X0209389Y0397361D01*
X0209243Y0397904D01*
X0209005Y0398414D01*
X0208683Y0398875D01*
X0208285Y0399273D01*
X0207824Y0399596D01*
X0207314Y0399833D01*
X0206770Y0399979D01*
X0206209Y0400028D01*
X0205649Y0399979D01*
X0205105Y0399833D01*
X0204595Y0399596D01*
X0204134Y0399273D01*
X0203736Y0398875D01*
X0203414Y0398414D01*
X0203176Y0397904D01*
X0203030Y0397361D01*
X0202981Y0396800D01*
X0203030Y0396239D01*
X0203176Y0395696D01*
X0203414Y0395186D01*
X0203736Y0394725D01*
X0204134Y0394327D01*
X0204595Y0394004D01*
X0205105Y0393767D01*
X0205649Y0393621D01*
X0206209Y0393572D01*
X0206770Y0393621D01*
X0206669Y0393612D02*
X0205749Y0393612D01*
X0205540Y0393650D02*
X0206878Y0393650D01*
X0207020Y0393688D02*
X0205399Y0393688D01*
X0205258Y0393726D02*
X0207161Y0393726D01*
X0207303Y0393764D02*
X0205116Y0393764D01*
X0205030Y0393801D02*
X0207389Y0393801D01*
X0207470Y0393839D02*
X0204949Y0393839D01*
X0204868Y0393877D02*
X0207551Y0393877D01*
X0207632Y0393915D02*
X0204787Y0393915D01*
X0204705Y0393953D02*
X0207713Y0393953D01*
X0207795Y0393991D02*
X0204624Y0393991D01*
X0204560Y0394029D02*
X0207859Y0394029D01*
X0207913Y0394067D02*
X0204506Y0394067D01*
X0204452Y0394104D02*
X0207967Y0394104D01*
X0208021Y0394142D02*
X0204398Y0394142D01*
X0204344Y0394180D02*
X0208075Y0394180D01*
X0208129Y0394218D02*
X0204290Y0394218D01*
X0204235Y0394256D02*
X0208183Y0394256D01*
X0208238Y0394294D02*
X0204181Y0394294D01*
X0204129Y0394332D02*
X0208290Y0394332D01*
X0208328Y0394370D02*
X0204091Y0394370D01*
X0204053Y0394408D02*
X0208365Y0394408D01*
X0208403Y0394445D02*
X0204016Y0394445D01*
X0203978Y0394483D02*
X0208441Y0394483D01*
X0208479Y0394521D02*
X0203940Y0394521D01*
X0203902Y0394559D02*
X0208517Y0394559D01*
X0208555Y0394597D02*
X0203864Y0394597D01*
X0203826Y0394635D02*
X0208593Y0394635D01*
X0208631Y0394673D02*
X0203788Y0394673D01*
X0203750Y0394711D02*
X0208668Y0394711D01*
X0208699Y0394748D02*
X0203720Y0394748D01*
X0203693Y0394786D02*
X0208726Y0394786D01*
X0208752Y0394824D02*
X0203667Y0394824D01*
X0203640Y0394862D02*
X0208779Y0394862D01*
X0208805Y0394900D02*
X0203614Y0394900D01*
X0203587Y0394938D02*
X0208832Y0394938D01*
X0208858Y0394976D02*
X0203561Y0394976D01*
X0203534Y0395014D02*
X0208885Y0395014D01*
X0208911Y0395052D02*
X0203508Y0395052D01*
X0203481Y0395089D02*
X0208938Y0395089D01*
X0208964Y0395127D02*
X0203455Y0395127D01*
X0203428Y0395165D02*
X0208991Y0395165D01*
X0209013Y0395203D02*
X0203406Y0395203D01*
X0203388Y0395241D02*
X0209031Y0395241D01*
X0209048Y0395279D02*
X0203370Y0395279D01*
X0203353Y0395317D02*
X0209066Y0395317D01*
X0209084Y0395355D02*
X0203335Y0395355D01*
X0203317Y0395392D02*
X0209101Y0395392D01*
X0209119Y0395430D02*
X0203300Y0395430D01*
X0203282Y0395468D02*
X0209137Y0395468D01*
X0209154Y0395506D02*
X0203264Y0395506D01*
X0203247Y0395544D02*
X0209172Y0395544D01*
X0209190Y0395582D02*
X0203229Y0395582D01*
X0203211Y0395620D02*
X0209207Y0395620D01*
X0209225Y0395658D02*
X0203194Y0395658D01*
X0203176Y0395696D02*
X0209243Y0395696D01*
X0209253Y0395733D02*
X0203166Y0395733D01*
X0203156Y0395771D02*
X0209263Y0395771D01*
X0209273Y0395809D02*
X0203146Y0395809D01*
X0203135Y0395847D02*
X0209283Y0395847D01*
X0209294Y0395885D02*
X0203125Y0395885D01*
X0203115Y0395923D02*
X0209304Y0395923D01*
X0209314Y0395961D02*
X0203105Y0395961D01*
X0203095Y0395999D02*
X0209324Y0395999D01*
X0209334Y0396036D02*
X0203085Y0396036D01*
X0203075Y0396074D02*
X0209344Y0396074D01*
X0209355Y0396112D02*
X0203064Y0396112D01*
X0203054Y0396150D02*
X0209365Y0396150D01*
X0209375Y0396188D02*
X0203044Y0396188D01*
X0203034Y0396226D02*
X0209385Y0396226D01*
X0209391Y0396264D02*
X0203028Y0396264D01*
X0203025Y0396302D02*
X0209394Y0396302D01*
X0209397Y0396339D02*
X0203022Y0396339D01*
X0203018Y0396377D02*
X0209401Y0396377D01*
X0209404Y0396415D02*
X0203015Y0396415D01*
X0203012Y0396453D02*
X0209407Y0396453D01*
X0209411Y0396491D02*
X0203008Y0396491D01*
X0203005Y0396529D02*
X0209414Y0396529D01*
X0209417Y0396567D02*
X0203002Y0396567D01*
X0202998Y0396605D02*
X0209421Y0396605D01*
X0209424Y0396643D02*
X0202995Y0396643D01*
X0202992Y0396680D02*
X0209427Y0396680D01*
X0209431Y0396718D02*
X0202988Y0396718D01*
X0202985Y0396756D02*
X0209434Y0396756D01*
X0209437Y0396794D02*
X0202982Y0396794D01*
X0202984Y0396832D02*
X0209435Y0396832D01*
X0209432Y0396870D02*
X0202987Y0396870D01*
X0202991Y0396908D02*
X0209428Y0396908D01*
X0209425Y0396946D02*
X0202994Y0396946D01*
X0202997Y0396983D02*
X0209422Y0396983D01*
X0209418Y0397021D02*
X0203001Y0397021D01*
X0203004Y0397059D02*
X0209415Y0397059D01*
X0209412Y0397097D02*
X0203007Y0397097D01*
X0203011Y0397135D02*
X0209408Y0397135D01*
X0209405Y0397173D02*
X0203014Y0397173D01*
X0203017Y0397211D02*
X0209402Y0397211D01*
X0209398Y0397249D02*
X0203020Y0397249D01*
X0203024Y0397287D02*
X0209395Y0397287D01*
X0209392Y0397324D02*
X0203027Y0397324D01*
X0203031Y0397362D02*
X0209388Y0397362D01*
X0209378Y0397400D02*
X0203041Y0397400D01*
X0203051Y0397438D02*
X0209368Y0397438D01*
X0209358Y0397476D02*
X0203061Y0397476D01*
X0203071Y0397514D02*
X0209348Y0397514D01*
X0209337Y0397552D02*
X0203082Y0397552D01*
X0203092Y0397590D02*
X0209327Y0397590D01*
X0209317Y0397627D02*
X0203102Y0397627D01*
X0203112Y0397665D02*
X0209307Y0397665D01*
X0209297Y0397703D02*
X0203122Y0397703D01*
X0203132Y0397741D02*
X0209287Y0397741D01*
X0209277Y0397779D02*
X0203142Y0397779D01*
X0203153Y0397817D02*
X0209266Y0397817D01*
X0209256Y0397855D02*
X0203163Y0397855D01*
X0203173Y0397893D02*
X0209246Y0397893D01*
X0209231Y0397931D02*
X0203188Y0397931D01*
X0203206Y0397968D02*
X0209213Y0397968D01*
X0209195Y0398006D02*
X0203224Y0398006D01*
X0203241Y0398044D02*
X0209178Y0398044D01*
X0209160Y0398082D02*
X0203259Y0398082D01*
X0203277Y0398120D02*
X0209142Y0398120D01*
X0209125Y0398158D02*
X0203294Y0398158D01*
X0203312Y0398196D02*
X0209107Y0398196D01*
X0209089Y0398234D02*
X0203330Y0398234D01*
X0203347Y0398271D02*
X0209072Y0398271D01*
X0209054Y0398309D02*
X0203365Y0398309D01*
X0203383Y0398347D02*
X0209036Y0398347D01*
X0209019Y0398385D02*
X0203400Y0398385D01*
X0203420Y0398423D02*
X0208999Y0398423D01*
X0208972Y0398461D02*
X0203446Y0398461D01*
X0203473Y0398499D02*
X0208946Y0398499D01*
X0208919Y0398537D02*
X0203499Y0398537D01*
X0203526Y0398574D02*
X0208893Y0398574D01*
X0208866Y0398612D02*
X0203552Y0398612D01*
X0203579Y0398650D02*
X0208840Y0398650D01*
X0208814Y0398688D02*
X0203605Y0398688D01*
X0203632Y0398726D02*
X0208787Y0398726D01*
X0208761Y0398764D02*
X0203658Y0398764D01*
X0203685Y0398802D02*
X0208734Y0398802D01*
X0208708Y0398840D02*
X0203711Y0398840D01*
X0203739Y0398878D02*
X0208680Y0398878D01*
X0208642Y0398915D02*
X0203776Y0398915D01*
X0203814Y0398953D02*
X0208605Y0398953D01*
X0208567Y0398991D02*
X0203852Y0398991D01*
X0203890Y0399029D02*
X0208529Y0399029D01*
X0208491Y0399067D02*
X0203928Y0399067D01*
X0203966Y0399105D02*
X0208453Y0399105D01*
X0208415Y0399143D02*
X0204004Y0399143D01*
X0204042Y0399181D02*
X0208377Y0399181D01*
X0208339Y0399218D02*
X0204080Y0399218D01*
X0204117Y0399256D02*
X0208302Y0399256D01*
X0208255Y0399294D02*
X0204164Y0399294D01*
X0204218Y0399332D02*
X0208200Y0399332D01*
X0208146Y0399370D02*
X0204273Y0399370D01*
X0204327Y0399408D02*
X0208092Y0399408D01*
X0208038Y0399446D02*
X0204381Y0399446D01*
X0204435Y0399484D02*
X0207984Y0399484D01*
X0207930Y0399522D02*
X0204489Y0399522D01*
X0204543Y0399559D02*
X0207875Y0399559D01*
X0207820Y0399597D02*
X0204599Y0399597D01*
X0204680Y0399635D02*
X0207739Y0399635D01*
X0207658Y0399673D02*
X0204761Y0399673D01*
X0204842Y0399711D02*
X0207576Y0399711D01*
X0207495Y0399749D02*
X0204924Y0399749D01*
X0205005Y0399787D02*
X0207414Y0399787D01*
X0207333Y0399825D02*
X0205086Y0399825D01*
X0205213Y0399862D02*
X0207206Y0399862D01*
X0207064Y0399900D02*
X0205355Y0399900D01*
X0205496Y0399938D02*
X0206923Y0399938D01*
X0206781Y0399976D02*
X0205638Y0399976D01*
X0206046Y0400014D02*
X0206373Y0400014D01*
X0206238Y0393574D02*
X0206181Y0393574D01*
X0199457Y0393574D02*
X0192961Y0393574D01*
X0192961Y0393552D02*
X0199457Y0393552D01*
X0199457Y0400048D01*
X0192961Y0400048D01*
X0192961Y0393552D01*
X0192961Y0393612D02*
X0199457Y0393612D01*
X0199457Y0393650D02*
X0192961Y0393650D01*
X0192961Y0393688D02*
X0199457Y0393688D01*
X0199457Y0393726D02*
X0192961Y0393726D01*
X0192961Y0393764D02*
X0199457Y0393764D01*
X0199457Y0393801D02*
X0192961Y0393801D01*
X0192961Y0393839D02*
X0199457Y0393839D01*
X0199457Y0393877D02*
X0192961Y0393877D01*
X0192961Y0393915D02*
X0199457Y0393915D01*
X0199457Y0393953D02*
X0192961Y0393953D01*
X0192961Y0393991D02*
X0199457Y0393991D01*
X0199457Y0394029D02*
X0192961Y0394029D01*
X0192961Y0394067D02*
X0199457Y0394067D01*
X0199457Y0394104D02*
X0192961Y0394104D01*
X0192961Y0394142D02*
X0199457Y0394142D01*
X0199457Y0394180D02*
X0192961Y0394180D01*
X0192961Y0394218D02*
X0199457Y0394218D01*
X0199457Y0394256D02*
X0192961Y0394256D01*
X0192961Y0394294D02*
X0199457Y0394294D01*
X0199457Y0394332D02*
X0192961Y0394332D01*
X0192961Y0394370D02*
X0199457Y0394370D01*
X0199457Y0394408D02*
X0192961Y0394408D01*
X0192961Y0394445D02*
X0199457Y0394445D01*
X0199457Y0394483D02*
X0192961Y0394483D01*
X0192961Y0394521D02*
X0199457Y0394521D01*
X0199457Y0394559D02*
X0192961Y0394559D01*
X0192961Y0394597D02*
X0199457Y0394597D01*
X0199457Y0394635D02*
X0192961Y0394635D01*
X0192961Y0394673D02*
X0199457Y0394673D01*
X0199457Y0394711D02*
X0192961Y0394711D01*
X0192961Y0394748D02*
X0199457Y0394748D01*
X0199457Y0394786D02*
X0192961Y0394786D01*
X0192961Y0394824D02*
X0199457Y0394824D01*
X0199457Y0394862D02*
X0192961Y0394862D01*
X0192961Y0394900D02*
X0199457Y0394900D01*
X0199457Y0394938D02*
X0192961Y0394938D01*
X0192961Y0394976D02*
X0199457Y0394976D01*
X0199457Y0395014D02*
X0192961Y0395014D01*
X0192961Y0395052D02*
X0199457Y0395052D01*
X0199457Y0395089D02*
X0192961Y0395089D01*
X0192961Y0395127D02*
X0199457Y0395127D01*
X0199457Y0395165D02*
X0192961Y0395165D01*
X0192961Y0395203D02*
X0199457Y0395203D01*
X0199457Y0395241D02*
X0192961Y0395241D01*
X0192961Y0395279D02*
X0199457Y0395279D01*
X0199457Y0395317D02*
X0192961Y0395317D01*
X0192961Y0395355D02*
X0199457Y0395355D01*
X0199457Y0395392D02*
X0192961Y0395392D01*
X0192961Y0395430D02*
X0199457Y0395430D01*
X0199457Y0395468D02*
X0192961Y0395468D01*
X0192961Y0395506D02*
X0199457Y0395506D01*
X0199457Y0395544D02*
X0192961Y0395544D01*
X0192961Y0395582D02*
X0199457Y0395582D01*
X0199457Y0395620D02*
X0192961Y0395620D01*
X0192961Y0395658D02*
X0199457Y0395658D01*
X0199457Y0395696D02*
X0192961Y0395696D01*
X0192961Y0395733D02*
X0199457Y0395733D01*
X0199457Y0395771D02*
X0192961Y0395771D01*
X0192961Y0395809D02*
X0199457Y0395809D01*
X0199457Y0395847D02*
X0192961Y0395847D01*
X0192961Y0395885D02*
X0199457Y0395885D01*
X0199457Y0395923D02*
X0192961Y0395923D01*
X0192961Y0395961D02*
X0199457Y0395961D01*
X0199457Y0395999D02*
X0192961Y0395999D01*
X0192961Y0396036D02*
X0199457Y0396036D01*
X0199457Y0396074D02*
X0192961Y0396074D01*
X0192961Y0396112D02*
X0199457Y0396112D01*
X0199457Y0396150D02*
X0192961Y0396150D01*
X0192961Y0396188D02*
X0199457Y0396188D01*
X0199457Y0396226D02*
X0192961Y0396226D01*
X0192961Y0396264D02*
X0199457Y0396264D01*
X0199457Y0396302D02*
X0192961Y0396302D01*
X0192961Y0396339D02*
X0199457Y0396339D01*
X0199457Y0396377D02*
X0192961Y0396377D01*
X0192961Y0396415D02*
X0199457Y0396415D01*
X0199457Y0396453D02*
X0192961Y0396453D01*
X0192961Y0396491D02*
X0199457Y0396491D01*
X0199457Y0396529D02*
X0192961Y0396529D01*
X0192961Y0396567D02*
X0199457Y0396567D01*
X0199457Y0396605D02*
X0192961Y0396605D01*
X0192961Y0396643D02*
X0199457Y0396643D01*
X0199457Y0396680D02*
X0192961Y0396680D01*
X0192961Y0396718D02*
X0199457Y0396718D01*
X0199457Y0396756D02*
X0192961Y0396756D01*
X0192961Y0396794D02*
X0199457Y0396794D01*
X0199457Y0396832D02*
X0192961Y0396832D01*
X0192961Y0396870D02*
X0199457Y0396870D01*
X0199457Y0396908D02*
X0192961Y0396908D01*
X0192961Y0396946D02*
X0199457Y0396946D01*
X0199457Y0396983D02*
X0192961Y0396983D01*
X0192961Y0397021D02*
X0199457Y0397021D01*
X0199457Y0397059D02*
X0192961Y0397059D01*
X0192961Y0397097D02*
X0199457Y0397097D01*
X0199457Y0397135D02*
X0192961Y0397135D01*
X0192961Y0397173D02*
X0199457Y0397173D01*
X0199457Y0397211D02*
X0192961Y0397211D01*
X0192961Y0397249D02*
X0199457Y0397249D01*
X0199457Y0397287D02*
X0192961Y0397287D01*
X0192961Y0397324D02*
X0199457Y0397324D01*
X0199457Y0397362D02*
X0192961Y0397362D01*
X0192961Y0397400D02*
X0199457Y0397400D01*
X0199457Y0397438D02*
X0192961Y0397438D01*
X0192961Y0397476D02*
X0199457Y0397476D01*
X0199457Y0397514D02*
X0192961Y0397514D01*
X0192961Y0397552D02*
X0199457Y0397552D01*
X0199457Y0397590D02*
X0192961Y0397590D01*
X0192961Y0397627D02*
X0199457Y0397627D01*
X0199457Y0397665D02*
X0192961Y0397665D01*
X0192961Y0397703D02*
X0199457Y0397703D01*
X0199457Y0397741D02*
X0192961Y0397741D01*
X0192961Y0397779D02*
X0199457Y0397779D01*
X0199457Y0397817D02*
X0192961Y0397817D01*
X0192961Y0397855D02*
X0199457Y0397855D01*
X0199457Y0397893D02*
X0192961Y0397893D01*
X0192961Y0397931D02*
X0199457Y0397931D01*
X0199457Y0397968D02*
X0192961Y0397968D01*
X0192961Y0398006D02*
X0199457Y0398006D01*
X0199457Y0398044D02*
X0192961Y0398044D01*
X0192961Y0398082D02*
X0199457Y0398082D01*
X0199457Y0398120D02*
X0192961Y0398120D01*
X0192961Y0398158D02*
X0199457Y0398158D01*
X0199457Y0398196D02*
X0192961Y0398196D01*
X0192961Y0398234D02*
X0199457Y0398234D01*
X0199457Y0398271D02*
X0192961Y0398271D01*
X0192961Y0398309D02*
X0199457Y0398309D01*
X0199457Y0398347D02*
X0192961Y0398347D01*
X0192961Y0398385D02*
X0199457Y0398385D01*
X0199457Y0398423D02*
X0192961Y0398423D01*
X0192961Y0398461D02*
X0199457Y0398461D01*
X0199457Y0398499D02*
X0192961Y0398499D01*
X0192961Y0398537D02*
X0199457Y0398537D01*
X0199457Y0398574D02*
X0192961Y0398574D01*
X0192961Y0398612D02*
X0199457Y0398612D01*
X0199457Y0398650D02*
X0192961Y0398650D01*
X0192961Y0398688D02*
X0199457Y0398688D01*
X0199457Y0398726D02*
X0192961Y0398726D01*
X0192961Y0398764D02*
X0199457Y0398764D01*
X0199457Y0398802D02*
X0192961Y0398802D01*
X0192961Y0398840D02*
X0199457Y0398840D01*
X0199457Y0398878D02*
X0192961Y0398878D01*
X0192961Y0398915D02*
X0199457Y0398915D01*
X0199457Y0398953D02*
X0192961Y0398953D01*
X0192961Y0398991D02*
X0199457Y0398991D01*
X0199457Y0399029D02*
X0192961Y0399029D01*
X0192961Y0399067D02*
X0199457Y0399067D01*
X0199457Y0399105D02*
X0192961Y0399105D01*
X0192961Y0399143D02*
X0199457Y0399143D01*
X0199457Y0399181D02*
X0192961Y0399181D01*
X0192961Y0399218D02*
X0199457Y0399218D01*
X0199457Y0399256D02*
X0192961Y0399256D01*
X0192961Y0399294D02*
X0199457Y0399294D01*
X0199457Y0399332D02*
X0192961Y0399332D01*
X0192961Y0399370D02*
X0199457Y0399370D01*
X0199457Y0399408D02*
X0192961Y0399408D01*
X0192961Y0399446D02*
X0199457Y0399446D01*
X0199457Y0399484D02*
X0192961Y0399484D01*
X0192961Y0399522D02*
X0199457Y0399522D01*
X0199457Y0399559D02*
X0192961Y0399559D01*
X0192961Y0399597D02*
X0199457Y0399597D01*
X0199457Y0399635D02*
X0192961Y0399635D01*
X0192961Y0399673D02*
X0199457Y0399673D01*
X0199457Y0399711D02*
X0192961Y0399711D01*
X0192961Y0399749D02*
X0199457Y0399749D01*
X0199457Y0399787D02*
X0192961Y0399787D01*
X0192961Y0399825D02*
X0199457Y0399825D01*
X0199457Y0399862D02*
X0192961Y0399862D01*
X0192961Y0399900D02*
X0199457Y0399900D01*
X0199457Y0399938D02*
X0192961Y0399938D01*
X0192961Y0399976D02*
X0199457Y0399976D01*
X0199457Y0400014D02*
X0192961Y0400014D01*
D15*
X0501091Y0194556D03*
X0508162Y0201627D03*
X0515233Y0208698D03*
X0522305Y0215769D03*
X0529376Y0222840D03*
X0536447Y0229911D03*
X0547902Y0239989D03*
X0554973Y0247060D03*
X0562044Y0254131D03*
X0569116Y0261202D03*
X0576187Y0268273D03*
X0583258Y0275344D03*
D16*
X0498060Y0277981D03*
X0446682Y0297666D03*
X0432115Y0291170D03*
X0365973Y0333296D03*
X0383887Y0361643D03*
X0386839Y0372076D03*
X0372863Y0389005D03*
X0374831Y0406721D03*
X0381328Y0411839D03*
X0388217Y0405934D03*
X0392942Y0416367D03*
X0399831Y0398257D03*
X0419713Y0407706D03*
X0409477Y0427784D03*
X0360068Y0485855D03*
X0353965Y0493729D03*
X0353572Y0513414D03*
X0332902Y0511249D03*
X0292942Y0535658D03*
X0287430Y0530146D03*
X0281918Y0523060D03*
X0266367Y0507902D03*
X0260265Y0502391D03*
X0252587Y0499831D03*
X0245304Y0498257D03*
X0238611Y0502391D03*
X0234280Y0508887D03*
X0227784Y0514989D03*
X0222469Y0519910D03*
X0216957Y0526209D03*
X0212824Y0533099D03*
X0218335Y0539595D03*
X0223650Y0545501D03*
X0245107Y0568729D03*
X0251800Y0572666D03*
X0255934Y0577981D03*
X0263611Y0570894D03*
X0270698Y0565383D03*
X0275619Y0560265D03*
X0282706Y0554753D03*
X0289792Y0549241D03*
X0295894Y0543139D03*
X0283493Y0477587D03*
X0300816Y0453178D03*
X0320501Y0443926D03*
X0327391Y0438414D03*
D17*
X0320127Y0454227D03*
X0314127Y0460227D03*
X0338727Y0472827D03*
X0347127Y0471927D03*
X0358527Y0468327D03*
X0362427Y0452727D03*
X0356727Y0444327D03*
X0360627Y0440427D03*
X0355827Y0434127D03*
X0354927Y0426327D03*
X0364143Y0404611D03*
X0378795Y0418741D03*
X0403227Y0421527D03*
X0381627Y0453627D03*
X0389427Y0461427D03*
X0383727Y0467727D03*
X0358527Y0528027D03*
X0362427Y0569127D03*
X0399027Y0630627D03*
X0411327Y0672027D03*
X0492627Y0580827D03*
X0456927Y0547527D03*
X0546327Y0453927D03*
X0573027Y0481227D03*
X0585993Y0390787D03*
X0611427Y0378327D03*
X0662727Y0366327D03*
X0374727Y0139827D03*
X0369327Y0117927D03*
X0310227Y0251127D03*
X0301227Y0322527D03*
X0349227Y0341427D03*
X0351927Y0347727D03*
X0361387Y0369851D03*
X0339327Y0397227D03*
X0309627Y0390027D03*
X0254427Y0433227D03*
X0200427Y0404427D03*
X0119427Y0406227D03*
X0298227Y0484827D03*
M02*
