G75*
%MOIN*%
%OFA0B0*%
%FSLAX25Y25*%
%IPPOS*%
%LPD*%
%AMOC8*
5,1,8,0,0,1.08239X$1,22.5*
%
%ADD10C,0.01600*%
%ADD11C,0.00600*%
%ADD12C,0.00300*%
%ADD13C,0.00500*%
%ADD14C,0.00400*%
%ADD15C,0.00000*%
%ADD16C,0.00472*%
%ADD17C,0.00100*%
%ADD18C,0.00787*%
%ADD19C,0.00800*%
%ADD20C,0.00079*%
D10*
X0178965Y0265580D02*
X0265580Y0178965D01*
X0356131Y0178965D01*
X0356131Y0037233D01*
X0384477Y0037233D01*
X0384477Y0052981D01*
X0390776Y0052981D02*
X0390776Y0037233D01*
X0419123Y0037233D01*
X0419123Y0178965D01*
X0509674Y0178965D01*
X0596288Y0265580D01*
X0596288Y0356131D01*
X0738020Y0356131D01*
X0738020Y0384477D01*
X0722272Y0384477D01*
X0722272Y0390776D02*
X0738020Y0390776D01*
X0738020Y0419123D01*
X0596288Y0419123D01*
X0596288Y0509674D01*
X0509674Y0596288D01*
X0419123Y0596288D01*
X0419123Y0738020D01*
X0390776Y0738020D01*
X0390776Y0722272D01*
X0384477Y0722272D02*
X0384477Y0738020D01*
X0356131Y0738020D01*
X0356131Y0596288D01*
X0265580Y0596288D01*
X0178965Y0509674D01*
X0178965Y0419123D01*
X0037233Y0419123D01*
X0037233Y0390776D01*
X0052981Y0390776D01*
X0052981Y0384477D02*
X0037233Y0384477D01*
X0037233Y0356131D01*
X0178965Y0356131D01*
X0178965Y0265580D01*
X0052980Y0384477D02*
X0053062Y0384082D01*
X0053154Y0383688D01*
X0053255Y0383297D01*
X0053366Y0382908D01*
X0053486Y0382523D01*
X0053616Y0382140D01*
X0053755Y0381761D01*
X0053903Y0381385D01*
X0054060Y0381013D01*
X0054227Y0380644D01*
X0054402Y0380280D01*
X0054586Y0379921D01*
X0054779Y0379566D01*
X0054981Y0379216D01*
X0055191Y0378871D01*
X0055409Y0378531D01*
X0055636Y0378196D01*
X0055871Y0377867D01*
X0056114Y0377545D01*
X0056365Y0377228D01*
X0056623Y0376917D01*
X0056889Y0376613D01*
X0057162Y0376315D01*
X0057443Y0376024D01*
X0057730Y0375740D01*
X0058025Y0375464D01*
X0058326Y0375194D01*
X0058633Y0374932D01*
X0058947Y0374678D01*
X0059267Y0374431D01*
X0059593Y0374192D01*
X0059925Y0373961D01*
X0060262Y0373739D01*
X0060605Y0373525D01*
X0060952Y0373319D01*
X0061305Y0373122D01*
X0061662Y0372933D01*
X0062024Y0372754D01*
X0062390Y0372583D01*
X0062761Y0372421D01*
X0063135Y0372268D01*
X0063512Y0372125D01*
X0063894Y0371991D01*
X0064278Y0371866D01*
X0064665Y0371751D01*
X0065055Y0371645D01*
X0065447Y0371548D01*
X0065842Y0371462D01*
X0066239Y0371385D01*
X0066637Y0371318D01*
X0067037Y0371260D01*
X0067438Y0371213D01*
X0067841Y0371175D01*
X0068244Y0371147D01*
X0068647Y0371129D01*
X0069051Y0371121D01*
X0069455Y0371122D01*
X0069859Y0371134D01*
X0070263Y0371155D01*
X0070666Y0371187D01*
X0071067Y0371228D01*
X0071468Y0371279D01*
X0071868Y0371340D01*
X0072266Y0371410D01*
X0072662Y0371490D01*
X0073055Y0371580D01*
X0073447Y0371680D01*
X0073836Y0371789D01*
X0074222Y0371908D01*
X0074606Y0372036D01*
X0074986Y0372173D01*
X0075362Y0372320D01*
X0075735Y0372476D01*
X0076104Y0372640D01*
X0076469Y0372814D01*
X0076829Y0372997D01*
X0077185Y0373188D01*
X0077536Y0373389D01*
X0077882Y0373597D01*
X0078222Y0373814D01*
X0078558Y0374040D01*
X0078888Y0374273D01*
X0079211Y0374515D01*
X0079529Y0374764D01*
X0079841Y0375021D01*
X0080146Y0375286D01*
X0080445Y0375558D01*
X0080737Y0375837D01*
X0081022Y0376123D01*
X0081300Y0376417D01*
X0081571Y0376716D01*
X0081834Y0377023D01*
X0082090Y0377336D01*
X0082338Y0377655D01*
X0082578Y0377980D01*
X0082810Y0378310D01*
X0083034Y0378647D01*
X0083250Y0378988D01*
X0083457Y0379335D01*
X0083656Y0379687D01*
X0083846Y0380044D01*
X0084027Y0380405D01*
X0084200Y0380770D01*
X0084363Y0381140D01*
X0084517Y0381513D01*
X0084662Y0381890D01*
X0084798Y0382271D01*
X0084924Y0382655D01*
X0085041Y0383041D01*
X0085149Y0383431D01*
X0085247Y0383823D01*
X0085335Y0384217D01*
X0085414Y0384614D01*
X0085483Y0385012D01*
X0085542Y0385411D01*
X0085591Y0385812D01*
X0085630Y0386215D01*
X0085660Y0386617D01*
X0085680Y0387021D01*
X0085690Y0387425D01*
X0085690Y0387829D01*
X0085680Y0388233D01*
X0085660Y0388637D01*
X0085630Y0389039D01*
X0085591Y0389442D01*
X0085542Y0389843D01*
X0085483Y0390242D01*
X0085414Y0390640D01*
X0085335Y0391037D01*
X0085247Y0391431D01*
X0085149Y0391823D01*
X0085041Y0392213D01*
X0084924Y0392599D01*
X0084798Y0392983D01*
X0084662Y0393364D01*
X0084517Y0393741D01*
X0084363Y0394114D01*
X0084200Y0394484D01*
X0084027Y0394849D01*
X0083846Y0395210D01*
X0083656Y0395567D01*
X0083457Y0395919D01*
X0083250Y0396266D01*
X0083034Y0396607D01*
X0082810Y0396944D01*
X0082578Y0397274D01*
X0082338Y0397599D01*
X0082090Y0397918D01*
X0081834Y0398231D01*
X0081571Y0398538D01*
X0081300Y0398837D01*
X0081022Y0399131D01*
X0080737Y0399417D01*
X0080445Y0399696D01*
X0080146Y0399968D01*
X0079841Y0400233D01*
X0079529Y0400490D01*
X0079211Y0400739D01*
X0078888Y0400981D01*
X0078558Y0401214D01*
X0078222Y0401440D01*
X0077882Y0401657D01*
X0077536Y0401865D01*
X0077185Y0402066D01*
X0076829Y0402257D01*
X0076469Y0402440D01*
X0076104Y0402614D01*
X0075735Y0402778D01*
X0075362Y0402934D01*
X0074986Y0403081D01*
X0074606Y0403218D01*
X0074222Y0403346D01*
X0073836Y0403465D01*
X0073447Y0403574D01*
X0073055Y0403674D01*
X0072662Y0403764D01*
X0072266Y0403844D01*
X0071868Y0403914D01*
X0071468Y0403975D01*
X0071067Y0404026D01*
X0070666Y0404067D01*
X0070263Y0404099D01*
X0069859Y0404120D01*
X0069455Y0404132D01*
X0069051Y0404133D01*
X0068647Y0404125D01*
X0068244Y0404107D01*
X0067841Y0404079D01*
X0067438Y0404041D01*
X0067037Y0403994D01*
X0066637Y0403936D01*
X0066239Y0403869D01*
X0065842Y0403792D01*
X0065447Y0403706D01*
X0065055Y0403609D01*
X0064665Y0403503D01*
X0064278Y0403388D01*
X0063894Y0403263D01*
X0063512Y0403129D01*
X0063135Y0402986D01*
X0062761Y0402833D01*
X0062390Y0402671D01*
X0062024Y0402500D01*
X0061662Y0402321D01*
X0061305Y0402132D01*
X0060952Y0401935D01*
X0060605Y0401729D01*
X0060262Y0401515D01*
X0059925Y0401293D01*
X0059593Y0401062D01*
X0059267Y0400823D01*
X0058947Y0400576D01*
X0058633Y0400322D01*
X0058326Y0400060D01*
X0058025Y0399790D01*
X0057730Y0399514D01*
X0057443Y0399230D01*
X0057162Y0398939D01*
X0056889Y0398641D01*
X0056623Y0398337D01*
X0056365Y0398026D01*
X0056114Y0397709D01*
X0055871Y0397387D01*
X0055636Y0397058D01*
X0055409Y0396723D01*
X0055191Y0396383D01*
X0054981Y0396038D01*
X0054779Y0395688D01*
X0054586Y0395333D01*
X0054402Y0394974D01*
X0054227Y0394610D01*
X0054060Y0394241D01*
X0053903Y0393869D01*
X0053755Y0393493D01*
X0053616Y0393114D01*
X0053486Y0392731D01*
X0053366Y0392346D01*
X0053255Y0391957D01*
X0053154Y0391566D01*
X0053062Y0391172D01*
X0052980Y0390777D01*
X0001800Y0387627D02*
X0387627Y0001800D01*
X0773454Y0387627D01*
X0387627Y0773454D01*
X0001800Y0387627D01*
X0384477Y0722273D02*
X0384082Y0722191D01*
X0383688Y0722099D01*
X0383297Y0721998D01*
X0382908Y0721887D01*
X0382523Y0721767D01*
X0382140Y0721637D01*
X0381761Y0721498D01*
X0381385Y0721350D01*
X0381013Y0721193D01*
X0380644Y0721026D01*
X0380280Y0720851D01*
X0379921Y0720667D01*
X0379566Y0720474D01*
X0379216Y0720272D01*
X0378871Y0720062D01*
X0378531Y0719844D01*
X0378196Y0719617D01*
X0377867Y0719382D01*
X0377545Y0719139D01*
X0377228Y0718888D01*
X0376917Y0718630D01*
X0376613Y0718364D01*
X0376315Y0718091D01*
X0376024Y0717810D01*
X0375740Y0717523D01*
X0375464Y0717228D01*
X0375194Y0716927D01*
X0374932Y0716620D01*
X0374678Y0716306D01*
X0374431Y0715986D01*
X0374192Y0715660D01*
X0373961Y0715328D01*
X0373739Y0714991D01*
X0373525Y0714648D01*
X0373319Y0714301D01*
X0373122Y0713948D01*
X0372933Y0713591D01*
X0372754Y0713229D01*
X0372583Y0712863D01*
X0372421Y0712492D01*
X0372268Y0712118D01*
X0372125Y0711741D01*
X0371991Y0711359D01*
X0371866Y0710975D01*
X0371751Y0710588D01*
X0371645Y0710198D01*
X0371548Y0709806D01*
X0371462Y0709411D01*
X0371385Y0709014D01*
X0371318Y0708616D01*
X0371260Y0708216D01*
X0371213Y0707815D01*
X0371175Y0707412D01*
X0371147Y0707009D01*
X0371129Y0706606D01*
X0371121Y0706202D01*
X0371122Y0705798D01*
X0371134Y0705394D01*
X0371155Y0704990D01*
X0371187Y0704587D01*
X0371228Y0704186D01*
X0371279Y0703785D01*
X0371340Y0703385D01*
X0371410Y0702987D01*
X0371490Y0702591D01*
X0371580Y0702198D01*
X0371680Y0701806D01*
X0371789Y0701417D01*
X0371908Y0701031D01*
X0372036Y0700647D01*
X0372173Y0700267D01*
X0372320Y0699891D01*
X0372476Y0699518D01*
X0372640Y0699149D01*
X0372814Y0698784D01*
X0372997Y0698424D01*
X0373188Y0698068D01*
X0373389Y0697717D01*
X0373597Y0697371D01*
X0373814Y0697031D01*
X0374040Y0696695D01*
X0374273Y0696365D01*
X0374515Y0696042D01*
X0374764Y0695724D01*
X0375021Y0695412D01*
X0375286Y0695107D01*
X0375558Y0694808D01*
X0375837Y0694516D01*
X0376123Y0694231D01*
X0376417Y0693953D01*
X0376716Y0693682D01*
X0377023Y0693419D01*
X0377336Y0693163D01*
X0377655Y0692915D01*
X0377980Y0692675D01*
X0378310Y0692443D01*
X0378647Y0692219D01*
X0378988Y0692003D01*
X0379335Y0691796D01*
X0379687Y0691597D01*
X0380044Y0691407D01*
X0380405Y0691226D01*
X0380770Y0691053D01*
X0381140Y0690890D01*
X0381513Y0690736D01*
X0381890Y0690591D01*
X0382271Y0690455D01*
X0382655Y0690329D01*
X0383041Y0690212D01*
X0383431Y0690104D01*
X0383823Y0690006D01*
X0384217Y0689918D01*
X0384614Y0689839D01*
X0385012Y0689770D01*
X0385411Y0689711D01*
X0385812Y0689662D01*
X0386215Y0689623D01*
X0386617Y0689593D01*
X0387021Y0689573D01*
X0387425Y0689563D01*
X0387829Y0689563D01*
X0388233Y0689573D01*
X0388637Y0689593D01*
X0389039Y0689623D01*
X0389442Y0689662D01*
X0389843Y0689711D01*
X0390242Y0689770D01*
X0390640Y0689839D01*
X0391037Y0689918D01*
X0391431Y0690006D01*
X0391823Y0690104D01*
X0392213Y0690212D01*
X0392599Y0690329D01*
X0392983Y0690455D01*
X0393364Y0690591D01*
X0393741Y0690736D01*
X0394114Y0690890D01*
X0394484Y0691053D01*
X0394849Y0691226D01*
X0395210Y0691407D01*
X0395567Y0691597D01*
X0395919Y0691796D01*
X0396266Y0692003D01*
X0396607Y0692219D01*
X0396944Y0692443D01*
X0397274Y0692675D01*
X0397599Y0692915D01*
X0397918Y0693163D01*
X0398231Y0693419D01*
X0398538Y0693682D01*
X0398837Y0693953D01*
X0399131Y0694231D01*
X0399417Y0694516D01*
X0399696Y0694808D01*
X0399968Y0695107D01*
X0400233Y0695412D01*
X0400490Y0695724D01*
X0400739Y0696042D01*
X0400981Y0696365D01*
X0401214Y0696695D01*
X0401440Y0697031D01*
X0401657Y0697371D01*
X0401865Y0697717D01*
X0402066Y0698068D01*
X0402257Y0698424D01*
X0402440Y0698784D01*
X0402614Y0699149D01*
X0402778Y0699518D01*
X0402934Y0699891D01*
X0403081Y0700267D01*
X0403218Y0700647D01*
X0403346Y0701031D01*
X0403465Y0701417D01*
X0403574Y0701806D01*
X0403674Y0702198D01*
X0403764Y0702591D01*
X0403844Y0702987D01*
X0403914Y0703385D01*
X0403975Y0703785D01*
X0404026Y0704186D01*
X0404067Y0704587D01*
X0404099Y0704990D01*
X0404120Y0705394D01*
X0404132Y0705798D01*
X0404133Y0706202D01*
X0404125Y0706606D01*
X0404107Y0707009D01*
X0404079Y0707412D01*
X0404041Y0707815D01*
X0403994Y0708216D01*
X0403936Y0708616D01*
X0403869Y0709014D01*
X0403792Y0709411D01*
X0403706Y0709806D01*
X0403609Y0710198D01*
X0403503Y0710588D01*
X0403388Y0710975D01*
X0403263Y0711359D01*
X0403129Y0711741D01*
X0402986Y0712118D01*
X0402833Y0712492D01*
X0402671Y0712863D01*
X0402500Y0713229D01*
X0402321Y0713591D01*
X0402132Y0713948D01*
X0401935Y0714301D01*
X0401729Y0714648D01*
X0401515Y0714991D01*
X0401293Y0715328D01*
X0401062Y0715660D01*
X0400823Y0715986D01*
X0400576Y0716306D01*
X0400322Y0716620D01*
X0400060Y0716927D01*
X0399790Y0717228D01*
X0399514Y0717523D01*
X0399230Y0717810D01*
X0398939Y0718091D01*
X0398641Y0718364D01*
X0398337Y0718630D01*
X0398026Y0718888D01*
X0397709Y0719139D01*
X0397387Y0719382D01*
X0397058Y0719617D01*
X0396723Y0719844D01*
X0396383Y0720062D01*
X0396038Y0720272D01*
X0395688Y0720474D01*
X0395333Y0720667D01*
X0394974Y0720851D01*
X0394610Y0721026D01*
X0394241Y0721193D01*
X0393869Y0721350D01*
X0393493Y0721498D01*
X0393114Y0721637D01*
X0392731Y0721767D01*
X0392346Y0721887D01*
X0391957Y0721998D01*
X0391566Y0722099D01*
X0391172Y0722191D01*
X0390777Y0722273D01*
X0722273Y0390777D02*
X0722191Y0391172D01*
X0722099Y0391566D01*
X0721998Y0391957D01*
X0721887Y0392346D01*
X0721767Y0392731D01*
X0721637Y0393114D01*
X0721498Y0393493D01*
X0721350Y0393869D01*
X0721193Y0394241D01*
X0721026Y0394610D01*
X0720851Y0394974D01*
X0720667Y0395333D01*
X0720474Y0395688D01*
X0720272Y0396038D01*
X0720062Y0396383D01*
X0719844Y0396723D01*
X0719617Y0397058D01*
X0719382Y0397387D01*
X0719139Y0397709D01*
X0718888Y0398026D01*
X0718630Y0398337D01*
X0718364Y0398641D01*
X0718091Y0398939D01*
X0717810Y0399230D01*
X0717523Y0399514D01*
X0717228Y0399790D01*
X0716927Y0400060D01*
X0716620Y0400322D01*
X0716306Y0400576D01*
X0715986Y0400823D01*
X0715660Y0401062D01*
X0715328Y0401293D01*
X0714991Y0401515D01*
X0714648Y0401729D01*
X0714301Y0401935D01*
X0713948Y0402132D01*
X0713591Y0402321D01*
X0713229Y0402500D01*
X0712863Y0402671D01*
X0712492Y0402833D01*
X0712118Y0402986D01*
X0711741Y0403129D01*
X0711359Y0403263D01*
X0710975Y0403388D01*
X0710588Y0403503D01*
X0710198Y0403609D01*
X0709806Y0403706D01*
X0709411Y0403792D01*
X0709014Y0403869D01*
X0708616Y0403936D01*
X0708216Y0403994D01*
X0707815Y0404041D01*
X0707412Y0404079D01*
X0707009Y0404107D01*
X0706606Y0404125D01*
X0706202Y0404133D01*
X0705798Y0404132D01*
X0705394Y0404120D01*
X0704990Y0404099D01*
X0704587Y0404067D01*
X0704186Y0404026D01*
X0703785Y0403975D01*
X0703385Y0403914D01*
X0702987Y0403844D01*
X0702591Y0403764D01*
X0702198Y0403674D01*
X0701806Y0403574D01*
X0701417Y0403465D01*
X0701031Y0403346D01*
X0700647Y0403218D01*
X0700267Y0403081D01*
X0699891Y0402934D01*
X0699518Y0402778D01*
X0699149Y0402614D01*
X0698784Y0402440D01*
X0698424Y0402257D01*
X0698068Y0402066D01*
X0697717Y0401865D01*
X0697371Y0401657D01*
X0697031Y0401440D01*
X0696695Y0401214D01*
X0696365Y0400981D01*
X0696042Y0400739D01*
X0695724Y0400490D01*
X0695412Y0400233D01*
X0695107Y0399968D01*
X0694808Y0399696D01*
X0694516Y0399417D01*
X0694231Y0399131D01*
X0693953Y0398837D01*
X0693682Y0398538D01*
X0693419Y0398231D01*
X0693163Y0397918D01*
X0692915Y0397599D01*
X0692675Y0397274D01*
X0692443Y0396944D01*
X0692219Y0396607D01*
X0692003Y0396266D01*
X0691796Y0395919D01*
X0691597Y0395567D01*
X0691407Y0395210D01*
X0691226Y0394849D01*
X0691053Y0394484D01*
X0690890Y0394114D01*
X0690736Y0393741D01*
X0690591Y0393364D01*
X0690455Y0392983D01*
X0690329Y0392599D01*
X0690212Y0392213D01*
X0690104Y0391823D01*
X0690006Y0391431D01*
X0689918Y0391037D01*
X0689839Y0390640D01*
X0689770Y0390242D01*
X0689711Y0389843D01*
X0689662Y0389442D01*
X0689623Y0389039D01*
X0689593Y0388637D01*
X0689573Y0388233D01*
X0689563Y0387829D01*
X0689563Y0387425D01*
X0689573Y0387021D01*
X0689593Y0386617D01*
X0689623Y0386215D01*
X0689662Y0385812D01*
X0689711Y0385411D01*
X0689770Y0385012D01*
X0689839Y0384614D01*
X0689918Y0384217D01*
X0690006Y0383823D01*
X0690104Y0383431D01*
X0690212Y0383041D01*
X0690329Y0382655D01*
X0690455Y0382271D01*
X0690591Y0381890D01*
X0690736Y0381513D01*
X0690890Y0381140D01*
X0691053Y0380770D01*
X0691226Y0380405D01*
X0691407Y0380044D01*
X0691597Y0379687D01*
X0691796Y0379335D01*
X0692003Y0378988D01*
X0692219Y0378647D01*
X0692443Y0378310D01*
X0692675Y0377980D01*
X0692915Y0377655D01*
X0693163Y0377336D01*
X0693419Y0377023D01*
X0693682Y0376716D01*
X0693953Y0376417D01*
X0694231Y0376123D01*
X0694516Y0375837D01*
X0694808Y0375558D01*
X0695107Y0375286D01*
X0695412Y0375021D01*
X0695724Y0374764D01*
X0696042Y0374515D01*
X0696365Y0374273D01*
X0696695Y0374040D01*
X0697031Y0373814D01*
X0697371Y0373597D01*
X0697717Y0373389D01*
X0698068Y0373188D01*
X0698424Y0372997D01*
X0698784Y0372814D01*
X0699149Y0372640D01*
X0699518Y0372476D01*
X0699891Y0372320D01*
X0700267Y0372173D01*
X0700647Y0372036D01*
X0701031Y0371908D01*
X0701417Y0371789D01*
X0701806Y0371680D01*
X0702198Y0371580D01*
X0702591Y0371490D01*
X0702987Y0371410D01*
X0703385Y0371340D01*
X0703785Y0371279D01*
X0704186Y0371228D01*
X0704587Y0371187D01*
X0704990Y0371155D01*
X0705394Y0371134D01*
X0705798Y0371122D01*
X0706202Y0371121D01*
X0706606Y0371129D01*
X0707009Y0371147D01*
X0707412Y0371175D01*
X0707815Y0371213D01*
X0708216Y0371260D01*
X0708616Y0371318D01*
X0709014Y0371385D01*
X0709411Y0371462D01*
X0709806Y0371548D01*
X0710198Y0371645D01*
X0710588Y0371751D01*
X0710975Y0371866D01*
X0711359Y0371991D01*
X0711741Y0372125D01*
X0712118Y0372268D01*
X0712492Y0372421D01*
X0712863Y0372583D01*
X0713229Y0372754D01*
X0713591Y0372933D01*
X0713948Y0373122D01*
X0714301Y0373319D01*
X0714648Y0373525D01*
X0714991Y0373739D01*
X0715328Y0373961D01*
X0715660Y0374192D01*
X0715986Y0374431D01*
X0716306Y0374678D01*
X0716620Y0374932D01*
X0716927Y0375194D01*
X0717228Y0375464D01*
X0717523Y0375740D01*
X0717810Y0376024D01*
X0718091Y0376315D01*
X0718364Y0376613D01*
X0718630Y0376917D01*
X0718888Y0377228D01*
X0719139Y0377545D01*
X0719382Y0377867D01*
X0719617Y0378196D01*
X0719844Y0378531D01*
X0720062Y0378871D01*
X0720272Y0379216D01*
X0720474Y0379566D01*
X0720667Y0379921D01*
X0720851Y0380280D01*
X0721026Y0380644D01*
X0721193Y0381013D01*
X0721350Y0381385D01*
X0721498Y0381761D01*
X0721637Y0382140D01*
X0721767Y0382523D01*
X0721887Y0382908D01*
X0721998Y0383297D01*
X0722099Y0383688D01*
X0722191Y0384082D01*
X0722273Y0384477D01*
X0390777Y0052980D02*
X0391172Y0053062D01*
X0391566Y0053154D01*
X0391957Y0053255D01*
X0392346Y0053366D01*
X0392731Y0053486D01*
X0393114Y0053616D01*
X0393493Y0053755D01*
X0393869Y0053903D01*
X0394241Y0054060D01*
X0394610Y0054227D01*
X0394974Y0054402D01*
X0395333Y0054586D01*
X0395688Y0054779D01*
X0396038Y0054981D01*
X0396383Y0055191D01*
X0396723Y0055409D01*
X0397058Y0055636D01*
X0397387Y0055871D01*
X0397709Y0056114D01*
X0398026Y0056365D01*
X0398337Y0056623D01*
X0398641Y0056889D01*
X0398939Y0057162D01*
X0399230Y0057443D01*
X0399514Y0057730D01*
X0399790Y0058025D01*
X0400060Y0058326D01*
X0400322Y0058633D01*
X0400576Y0058947D01*
X0400823Y0059267D01*
X0401062Y0059593D01*
X0401293Y0059925D01*
X0401515Y0060262D01*
X0401729Y0060605D01*
X0401935Y0060952D01*
X0402132Y0061305D01*
X0402321Y0061662D01*
X0402500Y0062024D01*
X0402671Y0062390D01*
X0402833Y0062761D01*
X0402986Y0063135D01*
X0403129Y0063512D01*
X0403263Y0063894D01*
X0403388Y0064278D01*
X0403503Y0064665D01*
X0403609Y0065055D01*
X0403706Y0065447D01*
X0403792Y0065842D01*
X0403869Y0066239D01*
X0403936Y0066637D01*
X0403994Y0067037D01*
X0404041Y0067438D01*
X0404079Y0067841D01*
X0404107Y0068244D01*
X0404125Y0068647D01*
X0404133Y0069051D01*
X0404132Y0069455D01*
X0404120Y0069859D01*
X0404099Y0070263D01*
X0404067Y0070666D01*
X0404026Y0071067D01*
X0403975Y0071468D01*
X0403914Y0071868D01*
X0403844Y0072266D01*
X0403764Y0072662D01*
X0403674Y0073055D01*
X0403574Y0073447D01*
X0403465Y0073836D01*
X0403346Y0074222D01*
X0403218Y0074606D01*
X0403081Y0074986D01*
X0402934Y0075362D01*
X0402778Y0075735D01*
X0402614Y0076104D01*
X0402440Y0076469D01*
X0402257Y0076829D01*
X0402066Y0077185D01*
X0401865Y0077536D01*
X0401657Y0077882D01*
X0401440Y0078222D01*
X0401214Y0078558D01*
X0400981Y0078888D01*
X0400739Y0079211D01*
X0400490Y0079529D01*
X0400233Y0079841D01*
X0399968Y0080146D01*
X0399696Y0080445D01*
X0399417Y0080737D01*
X0399131Y0081022D01*
X0398837Y0081300D01*
X0398538Y0081571D01*
X0398231Y0081834D01*
X0397918Y0082090D01*
X0397599Y0082338D01*
X0397274Y0082578D01*
X0396944Y0082810D01*
X0396607Y0083034D01*
X0396266Y0083250D01*
X0395919Y0083457D01*
X0395567Y0083656D01*
X0395210Y0083846D01*
X0394849Y0084027D01*
X0394484Y0084200D01*
X0394114Y0084363D01*
X0393741Y0084517D01*
X0393364Y0084662D01*
X0392983Y0084798D01*
X0392599Y0084924D01*
X0392213Y0085041D01*
X0391823Y0085149D01*
X0391431Y0085247D01*
X0391037Y0085335D01*
X0390640Y0085414D01*
X0390242Y0085483D01*
X0389843Y0085542D01*
X0389442Y0085591D01*
X0389039Y0085630D01*
X0388637Y0085660D01*
X0388233Y0085680D01*
X0387829Y0085690D01*
X0387425Y0085690D01*
X0387021Y0085680D01*
X0386617Y0085660D01*
X0386215Y0085630D01*
X0385812Y0085591D01*
X0385411Y0085542D01*
X0385012Y0085483D01*
X0384614Y0085414D01*
X0384217Y0085335D01*
X0383823Y0085247D01*
X0383431Y0085149D01*
X0383041Y0085041D01*
X0382655Y0084924D01*
X0382271Y0084798D01*
X0381890Y0084662D01*
X0381513Y0084517D01*
X0381140Y0084363D01*
X0380770Y0084200D01*
X0380405Y0084027D01*
X0380044Y0083846D01*
X0379687Y0083656D01*
X0379335Y0083457D01*
X0378988Y0083250D01*
X0378647Y0083034D01*
X0378310Y0082810D01*
X0377980Y0082578D01*
X0377655Y0082338D01*
X0377336Y0082090D01*
X0377023Y0081834D01*
X0376716Y0081571D01*
X0376417Y0081300D01*
X0376123Y0081022D01*
X0375837Y0080737D01*
X0375558Y0080445D01*
X0375286Y0080146D01*
X0375021Y0079841D01*
X0374764Y0079529D01*
X0374515Y0079211D01*
X0374273Y0078888D01*
X0374040Y0078558D01*
X0373814Y0078222D01*
X0373597Y0077882D01*
X0373389Y0077536D01*
X0373188Y0077185D01*
X0372997Y0076829D01*
X0372814Y0076469D01*
X0372640Y0076104D01*
X0372476Y0075735D01*
X0372320Y0075362D01*
X0372173Y0074986D01*
X0372036Y0074606D01*
X0371908Y0074222D01*
X0371789Y0073836D01*
X0371680Y0073447D01*
X0371580Y0073055D01*
X0371490Y0072662D01*
X0371410Y0072266D01*
X0371340Y0071868D01*
X0371279Y0071468D01*
X0371228Y0071067D01*
X0371187Y0070666D01*
X0371155Y0070263D01*
X0371134Y0069859D01*
X0371122Y0069455D01*
X0371121Y0069051D01*
X0371129Y0068647D01*
X0371147Y0068244D01*
X0371175Y0067841D01*
X0371213Y0067438D01*
X0371260Y0067037D01*
X0371318Y0066637D01*
X0371385Y0066239D01*
X0371462Y0065842D01*
X0371548Y0065447D01*
X0371645Y0065055D01*
X0371751Y0064665D01*
X0371866Y0064278D01*
X0371991Y0063894D01*
X0372125Y0063512D01*
X0372268Y0063135D01*
X0372421Y0062761D01*
X0372583Y0062390D01*
X0372754Y0062024D01*
X0372933Y0061662D01*
X0373122Y0061305D01*
X0373319Y0060952D01*
X0373525Y0060605D01*
X0373739Y0060262D01*
X0373961Y0059925D01*
X0374192Y0059593D01*
X0374431Y0059267D01*
X0374678Y0058947D01*
X0374932Y0058633D01*
X0375194Y0058326D01*
X0375464Y0058025D01*
X0375740Y0057730D01*
X0376024Y0057443D01*
X0376315Y0057162D01*
X0376613Y0056889D01*
X0376917Y0056623D01*
X0377228Y0056365D01*
X0377545Y0056114D01*
X0377867Y0055871D01*
X0378196Y0055636D01*
X0378531Y0055409D01*
X0378871Y0055191D01*
X0379216Y0054981D01*
X0379566Y0054779D01*
X0379921Y0054586D01*
X0380280Y0054402D01*
X0380644Y0054227D01*
X0381013Y0054060D01*
X0381385Y0053903D01*
X0381761Y0053755D01*
X0382140Y0053616D01*
X0382523Y0053486D01*
X0382908Y0053366D01*
X0383297Y0053255D01*
X0383688Y0053154D01*
X0384082Y0053062D01*
X0384477Y0052980D01*
D11*
X0271453Y0204554D02*
X0269943Y0204554D01*
X0271453Y0204554D02*
X0272962Y0206064D01*
X0272962Y0207574D01*
X0272207Y0208328D01*
X0270698Y0208328D01*
X0269188Y0206819D01*
X0267678Y0206819D01*
X0266923Y0207574D01*
X0266923Y0209083D01*
X0268433Y0210593D01*
X0269943Y0210593D01*
X0271481Y0212131D02*
X0274500Y0209112D01*
X0276010Y0209112D01*
X0277520Y0210621D01*
X0277520Y0212131D01*
X0279813Y0212914D02*
X0275284Y0217444D01*
X0274500Y0215151D02*
X0272991Y0215151D01*
X0271481Y0213641D01*
X0271481Y0212131D01*
X0267775Y0215443D02*
X0270040Y0217708D01*
X0270040Y0219218D01*
X0267020Y0222237D01*
X0265510Y0222237D01*
X0263246Y0219973D01*
X0267775Y0215443D01*
X0265482Y0214660D02*
X0265482Y0213150D01*
X0263972Y0211641D01*
X0262462Y0211641D01*
X0261708Y0213905D02*
X0263217Y0215415D01*
X0264727Y0215415D01*
X0265482Y0214660D01*
X0261708Y0213905D02*
X0260198Y0213905D01*
X0259443Y0214660D01*
X0259443Y0216170D01*
X0260953Y0217680D01*
X0262462Y0217680D01*
X0260688Y0222530D02*
X0263708Y0225550D01*
X0264491Y0227842D02*
X0266001Y0227842D01*
X0267511Y0229352D01*
X0267511Y0230862D01*
X0266756Y0231617D01*
X0265246Y0231617D01*
X0264491Y0230862D01*
X0265246Y0231617D02*
X0265246Y0233127D01*
X0264491Y0233882D01*
X0262981Y0233882D01*
X0261472Y0232372D01*
X0261472Y0230862D01*
X0259179Y0230079D02*
X0256159Y0227059D01*
X0260688Y0222530D01*
X0258424Y0224795D02*
X0259933Y0226304D01*
X0256886Y0223257D02*
X0255376Y0224766D01*
X0253866Y0224766D01*
X0251601Y0222502D01*
X0256131Y0217972D01*
X0254621Y0219482D02*
X0256886Y0221747D01*
X0256886Y0223257D01*
X0253208Y0230010D02*
X0256228Y0233030D01*
X0257011Y0235323D02*
X0258521Y0235323D01*
X0260030Y0236833D01*
X0260030Y0238342D01*
X0258521Y0239852D01*
X0257011Y0239852D01*
X0256256Y0239097D01*
X0255501Y0236833D01*
X0253236Y0239097D01*
X0256256Y0242117D01*
X0252944Y0243132D02*
X0248414Y0247661D01*
X0248414Y0243132D01*
X0251434Y0246151D01*
X0245463Y0249037D02*
X0243954Y0247528D01*
X0242444Y0247528D01*
X0240934Y0249037D02*
X0238669Y0251302D01*
X0241689Y0254322D01*
X0242444Y0252057D02*
X0243954Y0252057D01*
X0245463Y0250547D01*
X0245463Y0249037D01*
X0242444Y0252057D02*
X0241689Y0251302D01*
X0240934Y0249037D01*
X0240151Y0246744D02*
X0240906Y0245989D01*
X0240906Y0244480D01*
X0238641Y0242215D01*
X0234112Y0246744D01*
X0236376Y0249009D01*
X0237886Y0249009D01*
X0238641Y0248254D01*
X0238641Y0246744D01*
X0236376Y0244480D01*
X0234838Y0242942D02*
X0234838Y0241432D01*
X0232574Y0239167D01*
X0234083Y0237657D02*
X0229554Y0242187D01*
X0231819Y0244451D01*
X0233329Y0244451D01*
X0234838Y0242942D01*
X0238641Y0246744D02*
X0240151Y0246744D01*
X0244612Y0243858D02*
X0241592Y0240839D01*
X0246121Y0236309D01*
X0249141Y0239329D01*
X0251698Y0237559D02*
X0248679Y0234540D01*
X0253208Y0230010D01*
X0250943Y0232275D02*
X0252453Y0233785D01*
X0249405Y0230737D02*
X0247895Y0232247D01*
X0246386Y0232247D01*
X0244121Y0229982D01*
X0248650Y0225453D01*
X0247141Y0226962D02*
X0249405Y0229227D01*
X0249405Y0230737D01*
X0241564Y0231752D02*
X0237034Y0236281D01*
X0239299Y0238546D01*
X0240809Y0238546D01*
X0242319Y0237036D01*
X0242319Y0235526D01*
X0240054Y0233262D01*
X0243857Y0238574D02*
X0245367Y0240084D01*
X0232671Y0251599D02*
X0229651Y0251599D01*
X0226631Y0254618D01*
X0225848Y0252325D02*
X0226603Y0251570D01*
X0226603Y0250061D01*
X0228113Y0250061D01*
X0228868Y0249306D01*
X0228868Y0247796D01*
X0227358Y0246286D01*
X0225848Y0246286D01*
X0225848Y0249306D02*
X0226603Y0250061D01*
X0225848Y0252325D02*
X0224338Y0252325D01*
X0222829Y0250816D01*
X0222829Y0249306D01*
X0220633Y0255703D02*
X0220633Y0258722D01*
X0217613Y0261742D01*
X0219151Y0263280D02*
X0221416Y0265544D01*
X0222926Y0265544D01*
X0223680Y0264790D01*
X0223680Y0263280D01*
X0221416Y0261015D01*
X0223680Y0258750D02*
X0225945Y0261015D01*
X0225945Y0262525D01*
X0225190Y0263280D01*
X0223680Y0263280D01*
X0225973Y0265573D02*
X0228993Y0268592D01*
X0228238Y0269347D02*
X0231258Y0266328D01*
X0228238Y0269347D02*
X0225219Y0269347D01*
X0225219Y0266328D01*
X0228238Y0263308D01*
X0229651Y0257638D02*
X0232671Y0254618D01*
X0232671Y0251599D01*
X0223680Y0258750D02*
X0219151Y0263280D01*
X0216200Y0265050D02*
X0211671Y0269579D01*
X0219220Y0268069D01*
X0214690Y0272599D01*
X0216228Y0274137D02*
X0218493Y0276401D01*
X0220003Y0276401D01*
X0223023Y0273382D01*
X0223022Y0271872D01*
X0220758Y0269607D01*
X0216228Y0274137D01*
X0211346Y0277518D02*
X0208326Y0280538D01*
X0205307Y0280538D01*
X0205307Y0277518D01*
X0208326Y0274498D01*
X0206033Y0273715D02*
X0206033Y0272205D01*
X0203769Y0269941D01*
X0199239Y0274470D01*
X0201504Y0276735D01*
X0203014Y0276735D01*
X0203769Y0275980D01*
X0203769Y0274470D01*
X0201504Y0272205D01*
X0203769Y0274470D02*
X0205278Y0274470D01*
X0206033Y0273715D01*
X0206061Y0276763D02*
X0209081Y0279783D01*
X0208354Y0283585D02*
X0211374Y0286605D01*
X0209864Y0285095D02*
X0214394Y0280566D01*
X0218196Y0282859D02*
X0221216Y0285878D01*
X0221244Y0288926D02*
X0222754Y0288926D01*
X0224264Y0290436D01*
X0224264Y0291946D01*
X0222754Y0293456D01*
X0221244Y0291946D01*
X0218225Y0291946D02*
X0221244Y0288926D01*
X0218225Y0291946D02*
X0218225Y0293456D01*
X0219734Y0294965D01*
X0221244Y0294965D01*
X0222027Y0297258D02*
X0229576Y0295749D01*
X0225047Y0300278D01*
X0226585Y0301816D02*
X0228850Y0304081D01*
X0230360Y0304081D01*
X0233379Y0301061D01*
X0233379Y0299551D01*
X0231114Y0297287D01*
X0226585Y0301816D01*
X0222027Y0297258D02*
X0226557Y0292729D01*
X0231286Y0275415D02*
X0228266Y0272395D01*
X0229776Y0273905D02*
X0234306Y0269375D01*
X0220633Y0255703D02*
X0217613Y0255703D01*
X0214593Y0258722D01*
X0212397Y0261247D02*
X0213907Y0262757D01*
X0213907Y0264266D01*
X0212397Y0265776D01*
X0210888Y0264266D01*
X0210888Y0261247D02*
X0212397Y0261247D01*
X0210888Y0261247D02*
X0207868Y0264266D01*
X0207868Y0265776D01*
X0209378Y0267286D01*
X0210888Y0267286D01*
X0269313Y0226040D02*
X0269313Y0223021D01*
X0272333Y0220001D01*
X0270068Y0222266D02*
X0273088Y0225285D01*
X0272333Y0226040D02*
X0275352Y0223021D01*
X0272333Y0226040D02*
X0269313Y0226040D01*
X0279813Y0212914D02*
X0282833Y0215934D01*
X0373020Y0422973D02*
X0379398Y0422973D01*
X0379398Y0423343D01*
X0379398Y0426517D02*
X0379398Y0430627D01*
X0379398Y0433800D02*
X0379398Y0434170D01*
X0373020Y0434170D01*
X0373020Y0433800D01*
X0373020Y0430627D02*
X0373020Y0430257D01*
X0373020Y0426887D02*
X0373020Y0426517D01*
X0373020Y0423343D02*
X0373020Y0422973D01*
X0317999Y0501325D02*
X0315923Y0503401D01*
X0320075Y0503401D01*
X0320594Y0503920D01*
X0320594Y0504958D01*
X0319556Y0505996D01*
X0318518Y0505996D01*
X0317858Y0507695D02*
X0315263Y0505100D01*
X0314225Y0505100D01*
X0313187Y0506138D01*
X0313187Y0507176D01*
X0315782Y0509771D01*
D12*
X0387262Y0640087D02*
X0390295Y0640087D01*
X0390902Y0640694D01*
X0390902Y0641907D01*
X0390295Y0642514D01*
X0387262Y0642514D01*
X0387869Y0643712D02*
X0387262Y0644319D01*
X0387262Y0645532D01*
X0387869Y0646139D01*
X0388475Y0647337D02*
X0387262Y0648551D01*
X0390902Y0648551D01*
X0390902Y0649764D02*
X0390902Y0647337D01*
X0390295Y0646139D02*
X0389689Y0646139D01*
X0389082Y0645532D01*
X0389082Y0644319D01*
X0388475Y0643712D01*
X0387869Y0643712D01*
X0386655Y0644926D02*
X0391509Y0644926D01*
X0390902Y0645532D02*
X0390295Y0646139D01*
X0390902Y0645532D02*
X0390902Y0644319D01*
X0390295Y0643712D01*
X0390295Y0650963D02*
X0389689Y0650963D01*
X0389082Y0651569D01*
X0389082Y0652783D01*
X0389689Y0653389D01*
X0390295Y0653389D01*
X0390902Y0652783D01*
X0390902Y0651569D01*
X0390295Y0650963D01*
X0389082Y0651569D02*
X0388475Y0650963D01*
X0387869Y0650963D01*
X0387262Y0651569D01*
X0387262Y0652783D01*
X0387869Y0653389D01*
X0388475Y0653389D01*
X0389082Y0652783D01*
X0496650Y0576657D02*
X0497770Y0575537D01*
X0498516Y0575537D01*
X0500009Y0577030D01*
X0500009Y0577776D01*
X0498890Y0578896D01*
X0496650Y0576657D01*
X0498906Y0574401D02*
X0500399Y0572908D01*
X0499652Y0573654D02*
X0501892Y0575894D01*
X0500399Y0575894D01*
X0587079Y0487164D02*
X0588198Y0486044D01*
X0588198Y0485298D01*
X0586705Y0483805D01*
X0585959Y0483805D01*
X0584839Y0484924D01*
X0587079Y0487164D01*
X0588961Y0484535D02*
X0589708Y0484535D01*
X0590454Y0483788D01*
X0590454Y0483042D01*
X0590081Y0482669D01*
X0589334Y0482669D01*
X0589334Y0481922D01*
X0588961Y0481549D01*
X0588215Y0481549D01*
X0587468Y0482295D01*
X0587468Y0483042D01*
X0588961Y0483042D02*
X0589334Y0482669D01*
X0642804Y0391220D02*
X0642804Y0388187D01*
X0643410Y0387580D01*
X0644624Y0387580D01*
X0645230Y0388187D01*
X0645230Y0391220D01*
X0646429Y0390613D02*
X0647036Y0391220D01*
X0648249Y0391220D01*
X0648856Y0390613D01*
X0650054Y0390007D02*
X0651267Y0391220D01*
X0651267Y0387580D01*
X0650054Y0387580D02*
X0652481Y0387580D01*
X0653679Y0388187D02*
X0654286Y0387580D01*
X0655499Y0387580D01*
X0656106Y0388187D01*
X0656106Y0388793D01*
X0655499Y0389400D01*
X0653679Y0389400D01*
X0653679Y0388187D01*
X0653679Y0389400D02*
X0654893Y0390613D01*
X0656106Y0391220D01*
X0648856Y0388793D02*
X0648249Y0389400D01*
X0647036Y0389400D01*
X0646429Y0390007D01*
X0646429Y0390613D01*
X0647642Y0391827D02*
X0647642Y0386973D01*
X0647036Y0387580D02*
X0648249Y0387580D01*
X0648856Y0388187D01*
X0648856Y0388793D01*
X0647036Y0387580D02*
X0646429Y0388187D01*
X0578677Y0290857D02*
X0577805Y0290857D01*
X0576059Y0289111D01*
X0576059Y0288238D01*
X0576932Y0287365D01*
X0577805Y0287365D01*
X0578677Y0288238D01*
X0577805Y0289111D01*
X0579550Y0289111D02*
X0579550Y0289984D01*
X0578677Y0290857D01*
X0580845Y0288689D02*
X0579973Y0284324D01*
X0582591Y0286943D01*
X0583450Y0286084D02*
X0580831Y0283466D01*
X0582141Y0282156D01*
X0583013Y0282156D01*
X0584759Y0283902D01*
X0584759Y0284775D01*
X0583450Y0286084D01*
X0580845Y0288689D02*
X0578227Y0286070D01*
X0568617Y0276507D02*
X0567744Y0277380D01*
X0566872Y0277380D01*
X0566435Y0276944D01*
X0566435Y0276071D01*
X0567308Y0275198D01*
X0567308Y0274325D01*
X0566872Y0273889D01*
X0565999Y0273889D01*
X0565126Y0274762D01*
X0565126Y0275634D01*
X0562958Y0276930D02*
X0565577Y0279548D01*
X0566449Y0278675D02*
X0564704Y0280421D01*
X0563409Y0280843D02*
X0563409Y0281716D01*
X0562536Y0282589D01*
X0561663Y0282589D01*
X0559917Y0280843D01*
X0559917Y0279970D01*
X0560790Y0279097D01*
X0561663Y0279097D01*
X0557152Y0274587D02*
X0555406Y0272841D01*
X0553661Y0272841D01*
X0553661Y0274587D01*
X0555406Y0276332D01*
X0557574Y0273292D02*
X0555829Y0271546D01*
X0555829Y0270673D01*
X0556702Y0269800D01*
X0557574Y0269800D01*
X0558433Y0268941D02*
X0558433Y0268069D01*
X0559306Y0267196D01*
X0560179Y0267196D01*
X0561924Y0268941D02*
X0561924Y0269814D01*
X0561052Y0270687D01*
X0560179Y0270687D01*
X0558433Y0268941D01*
X0559320Y0271546D02*
X0559320Y0272419D01*
X0558447Y0273292D01*
X0557574Y0273292D01*
X0550530Y0266641D02*
X0547912Y0264023D01*
X0549221Y0262714D01*
X0550094Y0262714D01*
X0551840Y0264459D01*
X0551840Y0265332D01*
X0550530Y0266641D01*
X0549672Y0267500D02*
X0545308Y0266627D01*
X0543576Y0268359D02*
X0546195Y0270977D01*
X0547067Y0270104D02*
X0545322Y0271850D01*
X0544463Y0272709D02*
X0540099Y0271836D01*
X0539677Y0273131D02*
X0541422Y0274877D01*
X0541422Y0275750D01*
X0540549Y0276622D01*
X0539677Y0276622D01*
X0537931Y0274877D01*
X0537931Y0274004D01*
X0538804Y0273131D01*
X0539677Y0273131D01*
X0536636Y0275299D02*
X0537509Y0279663D01*
X0536650Y0280522D02*
X0534904Y0282268D01*
X0535777Y0281395D02*
X0533159Y0278776D01*
X0534890Y0277045D02*
X0539254Y0277918D01*
X0531290Y0270921D02*
X0530417Y0266557D01*
X0531276Y0265698D02*
X0532149Y0264825D01*
X0531712Y0265262D02*
X0534331Y0267880D01*
X0534767Y0267444D02*
X0533894Y0268317D01*
X0533036Y0269175D02*
X0528672Y0268303D01*
X0527813Y0269161D02*
X0527813Y0270907D01*
X0528249Y0270471D02*
X0526940Y0271780D01*
X0526067Y0270907D02*
X0528686Y0273526D01*
X0529995Y0272216D01*
X0529995Y0271343D01*
X0529122Y0270471D01*
X0528249Y0270471D01*
X0533012Y0263962D02*
X0537376Y0264835D01*
X0538235Y0263976D02*
X0539544Y0262667D01*
X0539544Y0261794D01*
X0538671Y0260921D01*
X0537799Y0260921D01*
X0536489Y0262230D01*
X0535617Y0261358D02*
X0538235Y0263976D01*
X0537362Y0261358D02*
X0537362Y0259612D01*
X0538221Y0258753D02*
X0542585Y0259626D01*
X0543444Y0258767D02*
X0540825Y0256149D01*
X0542135Y0254840D01*
X0543007Y0254840D01*
X0544753Y0256585D01*
X0544753Y0257458D01*
X0543444Y0258767D01*
X0540839Y0261372D02*
X0539967Y0257008D01*
X0543430Y0253544D02*
X0545175Y0251799D01*
X0544302Y0252672D02*
X0546921Y0255290D01*
X0545175Y0255290D01*
X0550516Y0261418D02*
X0552262Y0259673D01*
X0551389Y0260546D02*
X0554008Y0263164D01*
X0552262Y0263164D01*
X0547053Y0264882D02*
X0547926Y0269246D01*
X0534934Y0248380D02*
X0536243Y0247070D01*
X0536243Y0246197D01*
X0534498Y0244452D01*
X0533625Y0244452D01*
X0532315Y0245761D01*
X0534934Y0248380D01*
X0537538Y0245775D02*
X0539284Y0244030D01*
X0540143Y0243171D02*
X0541452Y0241862D01*
X0541452Y0240989D01*
X0540579Y0240116D01*
X0539706Y0240116D01*
X0538397Y0241425D01*
X0537524Y0240552D02*
X0540143Y0243171D01*
X0538411Y0244902D02*
X0535793Y0242284D01*
X0535347Y0240486D02*
X0532728Y0237868D01*
X0533601Y0242232D01*
X0530983Y0239613D01*
X0530561Y0240908D02*
X0531433Y0241781D01*
X0530561Y0242654D01*
X0532306Y0242654D02*
X0532306Y0243527D01*
X0531433Y0244400D01*
X0530561Y0244400D01*
X0528815Y0242654D01*
X0528815Y0241781D01*
X0529688Y0240909D01*
X0530561Y0240908D01*
X0533587Y0237009D02*
X0534896Y0235700D01*
X0535769Y0235700D01*
X0537515Y0237445D01*
X0537515Y0238318D01*
X0536206Y0239628D01*
X0533587Y0237009D01*
X0539270Y0238807D02*
X0539270Y0240552D01*
X0521373Y0232413D02*
X0520500Y0233286D01*
X0519628Y0233286D01*
X0519191Y0232849D01*
X0519191Y0231976D01*
X0520064Y0231103D01*
X0520064Y0230231D01*
X0519628Y0229794D01*
X0518755Y0229794D01*
X0517882Y0230667D01*
X0517882Y0231540D01*
X0515714Y0232835D02*
X0518332Y0235454D01*
X0517460Y0236326D02*
X0519205Y0234581D01*
X0521373Y0232413D02*
X0521373Y0231540D01*
X0516164Y0236749D02*
X0516164Y0237622D01*
X0515292Y0238494D01*
X0514419Y0238494D01*
X0512673Y0236749D01*
X0512673Y0235876D01*
X0513546Y0235003D01*
X0514419Y0235003D01*
X0509908Y0230492D02*
X0508162Y0228746D01*
X0506417Y0228746D01*
X0506417Y0230492D01*
X0508162Y0232238D01*
X0510330Y0229197D02*
X0508585Y0227451D01*
X0508585Y0226579D01*
X0509457Y0225706D01*
X0510330Y0225706D01*
X0511189Y0224847D02*
X0511189Y0223974D01*
X0512062Y0223101D01*
X0512935Y0223101D01*
X0514680Y0224847D02*
X0514680Y0225720D01*
X0513807Y0226593D01*
X0512935Y0226593D01*
X0511189Y0224847D01*
X0512076Y0227451D02*
X0512076Y0228324D01*
X0511203Y0229197D01*
X0510330Y0229197D01*
X0503286Y0222547D02*
X0504596Y0221238D01*
X0504596Y0220365D01*
X0502850Y0218619D01*
X0501977Y0218619D01*
X0500668Y0219928D01*
X0503286Y0222547D01*
X0502428Y0223406D02*
X0498063Y0222533D01*
X0496332Y0224264D02*
X0498950Y0226883D01*
X0498078Y0227756D02*
X0499823Y0226010D01*
X0500682Y0225151D02*
X0499809Y0220787D01*
X0503272Y0217324D02*
X0505018Y0215578D01*
X0504145Y0216451D02*
X0506764Y0219070D01*
X0505018Y0219070D01*
X0497509Y0213364D02*
X0496200Y0214673D01*
X0493581Y0212054D01*
X0494890Y0210745D01*
X0495763Y0210745D01*
X0497509Y0212491D01*
X0497509Y0213364D01*
X0497931Y0211196D02*
X0499677Y0211196D01*
X0497058Y0208577D01*
X0496186Y0209450D02*
X0497931Y0207704D01*
X0492722Y0212913D02*
X0493595Y0217277D01*
X0492300Y0217700D02*
X0491427Y0216827D01*
X0490555Y0216827D01*
X0489245Y0218136D01*
X0488372Y0217263D02*
X0490991Y0219882D01*
X0492300Y0218572D01*
X0492300Y0217700D01*
X0490118Y0217263D02*
X0490118Y0215517D01*
X0490977Y0214659D02*
X0495341Y0215532D01*
X0490132Y0220740D02*
X0485768Y0219867D01*
X0484905Y0220731D02*
X0484032Y0221604D01*
X0484468Y0221167D02*
X0487087Y0223786D01*
X0486650Y0224222D02*
X0487523Y0223349D01*
X0485792Y0225081D02*
X0481427Y0224208D01*
X0480569Y0225067D02*
X0480569Y0226812D01*
X0481005Y0226376D02*
X0479696Y0227685D01*
X0478823Y0226812D02*
X0481442Y0229431D01*
X0482751Y0228122D01*
X0482751Y0227249D01*
X0481878Y0226376D01*
X0481005Y0226376D01*
X0484046Y0226827D02*
X0483173Y0222462D01*
X0490687Y0229909D02*
X0491560Y0229037D01*
X0492432Y0229037D01*
X0494178Y0230782D01*
X0494178Y0231655D01*
X0493305Y0232528D01*
X0492432Y0232528D01*
X0490687Y0230782D01*
X0490687Y0229909D01*
X0489392Y0231205D02*
X0490264Y0235569D01*
X0489406Y0236427D02*
X0487660Y0238173D01*
X0488533Y0237300D02*
X0485914Y0234682D01*
X0487646Y0232950D02*
X0492010Y0233823D01*
X0492855Y0227741D02*
X0497219Y0228614D01*
X0487296Y0203498D02*
X0488605Y0202188D01*
X0488605Y0201316D01*
X0486860Y0199570D01*
X0485987Y0199570D01*
X0484678Y0200879D01*
X0487296Y0203498D01*
X0489901Y0200893D02*
X0491646Y0199148D01*
X0492505Y0198289D02*
X0493814Y0196980D01*
X0493814Y0196107D01*
X0492941Y0195234D01*
X0492068Y0195234D01*
X0490759Y0196543D01*
X0489886Y0195670D02*
X0492505Y0198289D01*
X0490773Y0200020D02*
X0488155Y0197402D01*
X0491632Y0195670D02*
X0491632Y0193925D01*
X0568617Y0275634D02*
X0568617Y0276507D01*
X0388579Y0123688D02*
X0387972Y0123688D01*
X0385546Y0126115D01*
X0384939Y0126115D01*
X0384939Y0123688D01*
X0385546Y0122490D02*
X0384939Y0121883D01*
X0384939Y0120670D01*
X0385546Y0120063D01*
X0386152Y0120063D01*
X0386759Y0120670D01*
X0386759Y0121883D01*
X0387366Y0122490D01*
X0387972Y0122490D01*
X0388579Y0121883D01*
X0388579Y0120670D01*
X0387972Y0120063D01*
X0387972Y0118865D02*
X0384939Y0118865D01*
X0384939Y0116438D02*
X0387972Y0116438D01*
X0388579Y0117045D01*
X0388579Y0118258D01*
X0387972Y0118865D01*
X0389186Y0121277D02*
X0384332Y0121277D01*
X0130433Y0387265D02*
X0129219Y0387265D01*
X0128613Y0387872D01*
X0131040Y0390298D01*
X0131040Y0387872D01*
X0130433Y0387265D01*
X0128613Y0387872D02*
X0128613Y0390298D01*
X0129219Y0390905D01*
X0130433Y0390905D01*
X0131040Y0390298D01*
X0127414Y0390298D02*
X0126808Y0390905D01*
X0125594Y0390905D01*
X0124988Y0390298D01*
X0123789Y0390298D02*
X0123183Y0390905D01*
X0121969Y0390905D01*
X0121363Y0390298D01*
X0121363Y0389692D01*
X0121969Y0389085D01*
X0123183Y0389085D01*
X0123789Y0388478D01*
X0123789Y0387872D01*
X0123183Y0387265D01*
X0121969Y0387265D01*
X0121363Y0387872D01*
X0120164Y0387872D02*
X0120164Y0390905D01*
X0117737Y0390905D02*
X0117737Y0387872D01*
X0118344Y0387265D01*
X0119557Y0387265D01*
X0120164Y0387872D01*
X0122576Y0386658D02*
X0122576Y0391512D01*
X0124988Y0387265D02*
X0127414Y0389692D01*
X0127414Y0390298D01*
X0127414Y0387265D02*
X0124988Y0387265D01*
D13*
X0220216Y0230599D02*
X0222209Y0228606D01*
X0220216Y0230599D02*
X0224202Y0230599D01*
X0224701Y0231098D01*
X0224701Y0232094D01*
X0223704Y0233091D01*
X0222708Y0233091D01*
X0222123Y0234672D02*
X0221126Y0235668D01*
X0221625Y0235170D02*
X0219133Y0232679D01*
X0218137Y0232679D01*
X0217638Y0233177D01*
X0217638Y0234174D01*
X0286602Y0318151D02*
X0285605Y0319147D01*
X0285605Y0320144D01*
X0286103Y0320642D01*
X0287100Y0320642D01*
X0288097Y0319646D01*
X0288097Y0318649D01*
X0287598Y0318151D01*
X0286602Y0318151D01*
X0288097Y0319646D02*
X0289093Y0319646D01*
X0289591Y0320144D01*
X0289591Y0321140D01*
X0288595Y0322137D01*
X0287598Y0322137D01*
X0287100Y0321639D01*
X0287100Y0320642D01*
X0286017Y0322722D02*
X0286515Y0323220D01*
X0286515Y0324216D01*
X0285519Y0325213D01*
X0284522Y0325213D01*
X0283439Y0326296D02*
X0283439Y0327293D01*
X0282443Y0328289D01*
X0281446Y0328289D01*
X0279453Y0326296D01*
X0279453Y0325299D01*
X0280450Y0324303D01*
X0281446Y0324303D01*
X0282031Y0322722D02*
X0286017Y0322722D01*
X0284024Y0320729D02*
X0282031Y0322722D01*
X0312838Y0331573D02*
X0331573Y0312838D01*
X0331573Y0312837D02*
X0331644Y0312769D01*
X0331717Y0312704D01*
X0331793Y0312642D01*
X0331872Y0312582D01*
X0331952Y0312526D01*
X0332035Y0312473D01*
X0332119Y0312424D01*
X0332206Y0312377D01*
X0332294Y0312335D01*
X0332384Y0312295D01*
X0332476Y0312260D01*
X0332568Y0312227D01*
X0332662Y0312199D01*
X0332757Y0312174D01*
X0332853Y0312153D01*
X0332950Y0312136D01*
X0333047Y0312122D01*
X0333145Y0312113D01*
X0333243Y0312107D01*
X0333341Y0312105D01*
X0333439Y0312107D01*
X0333537Y0312113D01*
X0333635Y0312122D01*
X0333732Y0312136D01*
X0333829Y0312153D01*
X0333925Y0312174D01*
X0334020Y0312199D01*
X0334114Y0312227D01*
X0334206Y0312260D01*
X0334298Y0312295D01*
X0334388Y0312335D01*
X0334476Y0312377D01*
X0334563Y0312424D01*
X0334647Y0312473D01*
X0334730Y0312526D01*
X0334810Y0312582D01*
X0334889Y0312642D01*
X0334965Y0312704D01*
X0335038Y0312769D01*
X0335109Y0312837D01*
X0335109Y0312838D02*
X0355612Y0333341D01*
X0356308Y0332645D01*
X0343781Y0320118D01*
X0358396Y0305502D01*
X0372315Y0311070D01*
X0394586Y0333341D01*
X0397370Y0330557D01*
X0394586Y0333341D02*
X0400850Y0339605D01*
X0403634Y0336821D01*
X0400850Y0339605D02*
X0426601Y0365356D01*
X0411290Y0397370D01*
X0380667Y0366748D01*
X0395978Y0334733D01*
X0397370Y0330557D02*
X0397464Y0330466D01*
X0397561Y0330377D01*
X0397661Y0330292D01*
X0397763Y0330209D01*
X0397867Y0330129D01*
X0397974Y0330053D01*
X0398082Y0329979D01*
X0398193Y0329909D01*
X0398306Y0329842D01*
X0398421Y0329779D01*
X0398538Y0329719D01*
X0398657Y0329663D01*
X0398777Y0329610D01*
X0398898Y0329560D01*
X0399022Y0329515D01*
X0399146Y0329473D01*
X0399271Y0329434D01*
X0399398Y0329400D01*
X0399526Y0329369D01*
X0399654Y0329342D01*
X0399783Y0329319D01*
X0399913Y0329299D01*
X0400043Y0329284D01*
X0400174Y0329272D01*
X0400305Y0329264D01*
X0400436Y0329260D01*
X0400568Y0329260D01*
X0400699Y0329264D01*
X0400830Y0329272D01*
X0400961Y0329284D01*
X0401091Y0329299D01*
X0401221Y0329319D01*
X0401350Y0329342D01*
X0401478Y0329369D01*
X0401606Y0329400D01*
X0401733Y0329434D01*
X0401858Y0329473D01*
X0401982Y0329515D01*
X0402106Y0329560D01*
X0402227Y0329610D01*
X0402347Y0329663D01*
X0402466Y0329719D01*
X0402583Y0329779D01*
X0402698Y0329842D01*
X0402811Y0329909D01*
X0402922Y0329979D01*
X0403030Y0330053D01*
X0403137Y0330129D01*
X0403241Y0330209D01*
X0403343Y0330292D01*
X0403443Y0330377D01*
X0403540Y0330466D01*
X0403634Y0330557D01*
X0403725Y0330651D01*
X0403814Y0330748D01*
X0403899Y0330848D01*
X0403982Y0330950D01*
X0404062Y0331054D01*
X0404138Y0331161D01*
X0404212Y0331269D01*
X0404282Y0331380D01*
X0404349Y0331493D01*
X0404412Y0331608D01*
X0404472Y0331725D01*
X0404528Y0331844D01*
X0404581Y0331964D01*
X0404631Y0332085D01*
X0404676Y0332209D01*
X0404718Y0332333D01*
X0404757Y0332458D01*
X0404791Y0332585D01*
X0404822Y0332713D01*
X0404849Y0332841D01*
X0404872Y0332970D01*
X0404892Y0333100D01*
X0404907Y0333230D01*
X0404919Y0333361D01*
X0404927Y0333492D01*
X0404931Y0333623D01*
X0404931Y0333755D01*
X0404927Y0333886D01*
X0404919Y0334017D01*
X0404907Y0334148D01*
X0404892Y0334278D01*
X0404872Y0334408D01*
X0404849Y0334537D01*
X0404822Y0334665D01*
X0404791Y0334793D01*
X0404757Y0334920D01*
X0404718Y0335045D01*
X0404676Y0335169D01*
X0404631Y0335293D01*
X0404581Y0335414D01*
X0404528Y0335534D01*
X0404472Y0335653D01*
X0404412Y0335770D01*
X0404349Y0335885D01*
X0404282Y0335998D01*
X0404212Y0336109D01*
X0404138Y0336217D01*
X0404062Y0336324D01*
X0403982Y0336428D01*
X0403899Y0336530D01*
X0403814Y0336630D01*
X0403725Y0336727D01*
X0403634Y0336821D01*
X0384843Y0323597D02*
X0369532Y0355612D01*
X0355612Y0369532D01*
X0323597Y0384843D01*
X0333341Y0394586D02*
X0311070Y0372315D01*
X0305502Y0358396D01*
X0320118Y0343781D01*
X0332645Y0356308D01*
X0333341Y0355612D01*
X0312838Y0335109D01*
X0312837Y0335109D02*
X0312769Y0335038D01*
X0312704Y0334965D01*
X0312642Y0334889D01*
X0312582Y0334810D01*
X0312526Y0334730D01*
X0312473Y0334647D01*
X0312424Y0334563D01*
X0312377Y0334476D01*
X0312335Y0334388D01*
X0312295Y0334298D01*
X0312260Y0334206D01*
X0312227Y0334114D01*
X0312199Y0334020D01*
X0312174Y0333925D01*
X0312153Y0333829D01*
X0312136Y0333732D01*
X0312122Y0333635D01*
X0312113Y0333537D01*
X0312107Y0333439D01*
X0312105Y0333341D01*
X0312107Y0333243D01*
X0312113Y0333145D01*
X0312122Y0333047D01*
X0312136Y0332950D01*
X0312153Y0332853D01*
X0312174Y0332757D01*
X0312199Y0332662D01*
X0312227Y0332568D01*
X0312260Y0332476D01*
X0312295Y0332384D01*
X0312335Y0332294D01*
X0312377Y0332206D01*
X0312424Y0332119D01*
X0312473Y0332035D01*
X0312526Y0331952D01*
X0312582Y0331872D01*
X0312642Y0331793D01*
X0312704Y0331717D01*
X0312769Y0331644D01*
X0312837Y0331573D01*
X0334724Y0345511D02*
X0335428Y0344806D01*
X0338247Y0344806D01*
X0338952Y0345511D01*
X0338952Y0346920D01*
X0338247Y0347625D01*
X0338952Y0349156D02*
X0338952Y0351975D01*
X0338952Y0350565D02*
X0334724Y0350565D01*
X0336133Y0349156D01*
X0335428Y0347625D02*
X0334724Y0346920D01*
X0334724Y0345511D01*
X0336133Y0353506D02*
X0334724Y0354916D01*
X0338952Y0354916D01*
X0338952Y0356325D02*
X0338952Y0353506D01*
X0360711Y0352971D02*
X0360711Y0348743D01*
X0360711Y0350152D02*
X0362825Y0350152D01*
X0363530Y0350857D01*
X0363530Y0352266D01*
X0362825Y0352971D01*
X0360711Y0352971D01*
X0362121Y0350152D02*
X0363530Y0348743D01*
X0365062Y0348743D02*
X0367880Y0351562D01*
X0367880Y0352266D01*
X0367176Y0352971D01*
X0365766Y0352971D01*
X0365062Y0352266D01*
X0365062Y0348743D02*
X0367880Y0348743D01*
X0364337Y0341554D02*
X0364337Y0340849D01*
X0361518Y0338030D01*
X0361518Y0337326D01*
X0359987Y0337326D02*
X0358577Y0338735D01*
X0359282Y0338735D02*
X0357168Y0338735D01*
X0357168Y0337326D02*
X0357168Y0341554D01*
X0359282Y0341554D01*
X0359987Y0340849D01*
X0359987Y0339440D01*
X0359282Y0338735D01*
X0361518Y0341554D02*
X0364337Y0341554D01*
X0366748Y0380667D02*
X0334733Y0395978D01*
X0333341Y0394586D02*
X0339605Y0400850D01*
X0365356Y0426601D01*
X0374403Y0435649D01*
X0376491Y0437737D01*
X0380667Y0441913D01*
X0377883Y0444696D01*
X0380667Y0441913D02*
X0413698Y0474943D01*
X0413698Y0474944D02*
X0413769Y0475012D01*
X0413842Y0475077D01*
X0413918Y0475139D01*
X0413997Y0475199D01*
X0414077Y0475255D01*
X0414160Y0475308D01*
X0414244Y0475357D01*
X0414331Y0475404D01*
X0414419Y0475446D01*
X0414509Y0475486D01*
X0414601Y0475521D01*
X0414693Y0475554D01*
X0414787Y0475582D01*
X0414882Y0475607D01*
X0414978Y0475628D01*
X0415075Y0475645D01*
X0415172Y0475659D01*
X0415270Y0475668D01*
X0415368Y0475674D01*
X0415466Y0475676D01*
X0415564Y0475674D01*
X0415662Y0475668D01*
X0415760Y0475659D01*
X0415857Y0475645D01*
X0415954Y0475628D01*
X0416050Y0475607D01*
X0416145Y0475582D01*
X0416239Y0475554D01*
X0416331Y0475521D01*
X0416423Y0475486D01*
X0416513Y0475446D01*
X0416601Y0475404D01*
X0416688Y0475357D01*
X0416772Y0475308D01*
X0416855Y0475255D01*
X0416935Y0475199D01*
X0417014Y0475139D01*
X0417090Y0475077D01*
X0417163Y0475012D01*
X0417234Y0474944D01*
X0417233Y0474943D02*
X0432169Y0460008D01*
X0439129Y0466967D01*
X0448872Y0457224D01*
X0451656Y0460008D01*
X0460008Y0451656D01*
X0457224Y0448872D01*
X0448872Y0457224D01*
X0457224Y0448872D02*
X0466967Y0439129D01*
X0460008Y0432169D01*
X0432169Y0460008D01*
X0423817Y0465576D02*
X0417233Y0472159D01*
X0417234Y0472160D02*
X0417163Y0472228D01*
X0417090Y0472293D01*
X0417014Y0472355D01*
X0416935Y0472415D01*
X0416855Y0472471D01*
X0416772Y0472524D01*
X0416688Y0472573D01*
X0416601Y0472620D01*
X0416513Y0472662D01*
X0416423Y0472702D01*
X0416331Y0472737D01*
X0416239Y0472770D01*
X0416145Y0472798D01*
X0416050Y0472823D01*
X0415954Y0472844D01*
X0415857Y0472861D01*
X0415760Y0472875D01*
X0415662Y0472884D01*
X0415564Y0472890D01*
X0415466Y0472892D01*
X0415368Y0472890D01*
X0415270Y0472884D01*
X0415172Y0472875D01*
X0415075Y0472861D01*
X0414978Y0472844D01*
X0414882Y0472823D01*
X0414787Y0472798D01*
X0414693Y0472770D01*
X0414601Y0472737D01*
X0414509Y0472702D01*
X0414419Y0472662D01*
X0414331Y0472620D01*
X0414244Y0472573D01*
X0414160Y0472524D01*
X0414077Y0472471D01*
X0413997Y0472415D01*
X0413918Y0472355D01*
X0413842Y0472293D01*
X0413769Y0472228D01*
X0413698Y0472160D01*
X0413698Y0472159D02*
X0407114Y0465576D01*
X0423817Y0465576D01*
X0396725Y0474835D02*
X0395729Y0473838D01*
X0394732Y0473838D01*
X0393649Y0472755D02*
X0393649Y0471759D01*
X0392653Y0470762D01*
X0391656Y0470762D01*
X0389663Y0472755D01*
X0389663Y0473752D01*
X0390659Y0474748D01*
X0391656Y0474748D01*
X0392739Y0475831D02*
X0392739Y0476828D01*
X0393736Y0477824D01*
X0394732Y0477824D01*
X0395230Y0477326D01*
X0395230Y0476329D01*
X0396227Y0476329D01*
X0396725Y0475831D01*
X0396725Y0474835D01*
X0395230Y0476329D02*
X0394732Y0475831D01*
X0382146Y0465607D02*
X0380153Y0463614D01*
X0380153Y0466604D01*
X0383143Y0463614D01*
X0380066Y0461535D02*
X0380066Y0460538D01*
X0379070Y0459542D01*
X0378073Y0459542D01*
X0376080Y0461535D01*
X0376080Y0462531D01*
X0377077Y0463528D01*
X0378073Y0463528D01*
X0377883Y0444697D02*
X0377789Y0444788D01*
X0377692Y0444877D01*
X0377592Y0444962D01*
X0377490Y0445045D01*
X0377386Y0445125D01*
X0377279Y0445201D01*
X0377171Y0445275D01*
X0377060Y0445345D01*
X0376947Y0445412D01*
X0376832Y0445475D01*
X0376715Y0445535D01*
X0376596Y0445591D01*
X0376476Y0445644D01*
X0376355Y0445694D01*
X0376231Y0445739D01*
X0376107Y0445781D01*
X0375982Y0445820D01*
X0375855Y0445854D01*
X0375727Y0445885D01*
X0375599Y0445912D01*
X0375470Y0445935D01*
X0375340Y0445955D01*
X0375210Y0445970D01*
X0375079Y0445982D01*
X0374948Y0445990D01*
X0374817Y0445994D01*
X0374685Y0445994D01*
X0374554Y0445990D01*
X0374423Y0445982D01*
X0374292Y0445970D01*
X0374162Y0445955D01*
X0374032Y0445935D01*
X0373903Y0445912D01*
X0373775Y0445885D01*
X0373647Y0445854D01*
X0373520Y0445820D01*
X0373395Y0445781D01*
X0373271Y0445739D01*
X0373147Y0445694D01*
X0373026Y0445644D01*
X0372906Y0445591D01*
X0372787Y0445535D01*
X0372670Y0445475D01*
X0372555Y0445412D01*
X0372442Y0445345D01*
X0372331Y0445275D01*
X0372223Y0445201D01*
X0372116Y0445125D01*
X0372012Y0445045D01*
X0371910Y0444962D01*
X0371810Y0444877D01*
X0371713Y0444788D01*
X0371619Y0444697D01*
X0371528Y0444603D01*
X0371439Y0444506D01*
X0371354Y0444406D01*
X0371271Y0444304D01*
X0371191Y0444200D01*
X0371115Y0444093D01*
X0371041Y0443985D01*
X0370971Y0443874D01*
X0370904Y0443761D01*
X0370841Y0443646D01*
X0370781Y0443529D01*
X0370725Y0443410D01*
X0370672Y0443290D01*
X0370622Y0443169D01*
X0370577Y0443045D01*
X0370535Y0442921D01*
X0370496Y0442796D01*
X0370462Y0442669D01*
X0370431Y0442541D01*
X0370404Y0442413D01*
X0370381Y0442284D01*
X0370361Y0442154D01*
X0370346Y0442024D01*
X0370334Y0441893D01*
X0370326Y0441762D01*
X0370322Y0441631D01*
X0370322Y0441499D01*
X0370326Y0441368D01*
X0370334Y0441237D01*
X0370346Y0441106D01*
X0370361Y0440976D01*
X0370381Y0440846D01*
X0370404Y0440717D01*
X0370431Y0440589D01*
X0370462Y0440461D01*
X0370496Y0440334D01*
X0370535Y0440209D01*
X0370577Y0440085D01*
X0370622Y0439961D01*
X0370672Y0439840D01*
X0370725Y0439720D01*
X0370781Y0439601D01*
X0370841Y0439484D01*
X0370904Y0439369D01*
X0370971Y0439256D01*
X0371041Y0439145D01*
X0371115Y0439037D01*
X0371191Y0438930D01*
X0371271Y0438826D01*
X0371354Y0438724D01*
X0371439Y0438624D01*
X0371528Y0438527D01*
X0371619Y0438433D01*
X0374403Y0435649D01*
X0376491Y0437737D02*
X0408506Y0422425D01*
X0422425Y0408506D01*
X0437737Y0376491D01*
X0441913Y0380667D01*
X0444696Y0377883D01*
X0441913Y0380667D02*
X0474943Y0413698D01*
X0474944Y0413698D02*
X0475012Y0413769D01*
X0475077Y0413842D01*
X0475139Y0413918D01*
X0475199Y0413997D01*
X0475255Y0414077D01*
X0475308Y0414160D01*
X0475357Y0414244D01*
X0475404Y0414331D01*
X0475446Y0414419D01*
X0475486Y0414509D01*
X0475521Y0414601D01*
X0475554Y0414693D01*
X0475582Y0414787D01*
X0475607Y0414882D01*
X0475628Y0414978D01*
X0475645Y0415075D01*
X0475659Y0415172D01*
X0475668Y0415270D01*
X0475674Y0415368D01*
X0475676Y0415466D01*
X0475674Y0415564D01*
X0475668Y0415662D01*
X0475659Y0415760D01*
X0475645Y0415857D01*
X0475628Y0415954D01*
X0475607Y0416050D01*
X0475582Y0416145D01*
X0475554Y0416239D01*
X0475521Y0416331D01*
X0475486Y0416423D01*
X0475446Y0416513D01*
X0475404Y0416601D01*
X0475357Y0416688D01*
X0475308Y0416772D01*
X0475255Y0416855D01*
X0475199Y0416935D01*
X0475139Y0417014D01*
X0475077Y0417090D01*
X0475012Y0417163D01*
X0474944Y0417234D01*
X0474943Y0417233D02*
X0460008Y0432169D01*
X0465576Y0423817D02*
X0472159Y0417233D01*
X0472160Y0417234D02*
X0472228Y0417163D01*
X0472293Y0417090D01*
X0472355Y0417014D01*
X0472415Y0416935D01*
X0472471Y0416855D01*
X0472524Y0416772D01*
X0472573Y0416688D01*
X0472620Y0416601D01*
X0472662Y0416513D01*
X0472702Y0416423D01*
X0472737Y0416331D01*
X0472770Y0416239D01*
X0472798Y0416145D01*
X0472823Y0416050D01*
X0472844Y0415954D01*
X0472861Y0415857D01*
X0472875Y0415760D01*
X0472884Y0415662D01*
X0472890Y0415564D01*
X0472892Y0415466D01*
X0472890Y0415368D01*
X0472884Y0415270D01*
X0472875Y0415172D01*
X0472861Y0415075D01*
X0472844Y0414978D01*
X0472823Y0414882D01*
X0472798Y0414787D01*
X0472770Y0414693D01*
X0472737Y0414601D01*
X0472702Y0414509D01*
X0472662Y0414419D01*
X0472620Y0414331D01*
X0472573Y0414244D01*
X0472524Y0414160D01*
X0472471Y0414077D01*
X0472415Y0413997D01*
X0472355Y0413918D01*
X0472293Y0413842D01*
X0472228Y0413769D01*
X0472160Y0413698D01*
X0472159Y0413698D02*
X0465576Y0407114D01*
X0465576Y0423817D01*
X0430684Y0423951D02*
X0426456Y0423951D01*
X0427865Y0422542D01*
X0427161Y0421010D02*
X0426456Y0420306D01*
X0426456Y0418896D01*
X0427161Y0418192D01*
X0429979Y0418192D01*
X0430684Y0418896D01*
X0430684Y0420306D01*
X0429979Y0421010D01*
X0430684Y0422542D02*
X0430684Y0425361D01*
X0429979Y0426892D02*
X0429275Y0426892D01*
X0428570Y0427597D01*
X0428570Y0429006D01*
X0429275Y0429711D01*
X0429979Y0429711D01*
X0430684Y0429006D01*
X0430684Y0427597D01*
X0429979Y0426892D01*
X0428570Y0427597D02*
X0427865Y0426892D01*
X0427161Y0426892D01*
X0426456Y0427597D01*
X0426456Y0429006D01*
X0427161Y0429711D01*
X0427865Y0429711D01*
X0428570Y0429006D01*
X0420054Y0429006D02*
X0419349Y0429711D01*
X0418645Y0429711D01*
X0417940Y0429006D01*
X0417940Y0426892D01*
X0419349Y0426892D01*
X0420054Y0427597D01*
X0420054Y0429006D01*
X0417940Y0426892D02*
X0416531Y0428301D01*
X0415826Y0429711D01*
X0415826Y0423951D02*
X0420054Y0423951D01*
X0420054Y0422542D02*
X0420054Y0425361D01*
X0417235Y0422542D02*
X0415826Y0423951D01*
X0416531Y0421010D02*
X0415826Y0420306D01*
X0415826Y0418896D01*
X0416531Y0418192D01*
X0419349Y0418192D01*
X0420054Y0418896D01*
X0420054Y0420306D01*
X0419349Y0421010D01*
X0405637Y0414152D02*
X0402818Y0414152D01*
X0402818Y0412038D01*
X0404227Y0412743D01*
X0404932Y0412743D01*
X0405637Y0412038D01*
X0405637Y0410629D01*
X0404932Y0409924D01*
X0403523Y0409924D01*
X0402818Y0410629D01*
X0401286Y0409924D02*
X0398468Y0409924D01*
X0399877Y0409924D02*
X0399877Y0414152D01*
X0398468Y0412743D01*
X0396936Y0413447D02*
X0396232Y0414152D01*
X0394822Y0414152D01*
X0394118Y0413447D01*
X0394118Y0410629D01*
X0394822Y0409924D01*
X0396232Y0409924D01*
X0396936Y0410629D01*
X0397370Y0411290D02*
X0365356Y0426601D01*
X0366117Y0426090D02*
X0366117Y0423271D01*
X0363298Y0426090D01*
X0362594Y0426090D01*
X0361889Y0425385D01*
X0361889Y0423976D01*
X0362594Y0423271D01*
X0362594Y0421739D02*
X0361889Y0421035D01*
X0361889Y0419625D01*
X0362594Y0418921D01*
X0365412Y0418921D01*
X0366117Y0419625D01*
X0366117Y0421035D01*
X0365412Y0421739D01*
X0365412Y0427621D02*
X0362594Y0430440D01*
X0361889Y0430440D01*
X0361889Y0427621D01*
X0365412Y0427621D02*
X0366117Y0427621D01*
X0383542Y0427392D02*
X0383542Y0425983D01*
X0384247Y0425278D01*
X0387066Y0425278D01*
X0387770Y0425983D01*
X0387770Y0427392D01*
X0387066Y0428097D01*
X0387770Y0429629D02*
X0387770Y0432447D01*
X0387770Y0431038D02*
X0383542Y0431038D01*
X0384952Y0429629D01*
X0384247Y0428097D02*
X0383542Y0427392D01*
X0384247Y0433979D02*
X0383542Y0434683D01*
X0383542Y0436093D01*
X0384247Y0436797D01*
X0384952Y0436797D01*
X0385656Y0436093D01*
X0386361Y0436797D01*
X0387066Y0436797D01*
X0387770Y0436093D01*
X0387770Y0434683D01*
X0387066Y0433979D01*
X0385656Y0435388D02*
X0385656Y0436093D01*
X0396141Y0430833D02*
X0396846Y0430833D01*
X0399664Y0428015D01*
X0400369Y0428015D01*
X0400369Y0426483D02*
X0400369Y0423665D01*
X0400369Y0425074D02*
X0396141Y0425074D01*
X0397550Y0423665D01*
X0396846Y0422133D02*
X0396141Y0421428D01*
X0396141Y0420019D01*
X0396846Y0419314D01*
X0399664Y0419314D01*
X0400369Y0420019D01*
X0400369Y0421428D01*
X0399664Y0422133D01*
X0396141Y0428015D02*
X0396141Y0430833D01*
X0397370Y0411290D02*
X0366748Y0380667D01*
X0339605Y0400850D02*
X0336821Y0403634D01*
X0336727Y0403725D01*
X0336630Y0403814D01*
X0336530Y0403899D01*
X0336428Y0403982D01*
X0336324Y0404062D01*
X0336217Y0404138D01*
X0336109Y0404212D01*
X0335998Y0404282D01*
X0335885Y0404349D01*
X0335770Y0404412D01*
X0335653Y0404472D01*
X0335534Y0404528D01*
X0335414Y0404581D01*
X0335293Y0404631D01*
X0335169Y0404676D01*
X0335045Y0404718D01*
X0334920Y0404757D01*
X0334793Y0404791D01*
X0334665Y0404822D01*
X0334537Y0404849D01*
X0334408Y0404872D01*
X0334278Y0404892D01*
X0334148Y0404907D01*
X0334017Y0404919D01*
X0333886Y0404927D01*
X0333755Y0404931D01*
X0333623Y0404931D01*
X0333492Y0404927D01*
X0333361Y0404919D01*
X0333230Y0404907D01*
X0333100Y0404892D01*
X0332970Y0404872D01*
X0332841Y0404849D01*
X0332713Y0404822D01*
X0332585Y0404791D01*
X0332458Y0404757D01*
X0332333Y0404718D01*
X0332209Y0404676D01*
X0332085Y0404631D01*
X0331964Y0404581D01*
X0331844Y0404528D01*
X0331725Y0404472D01*
X0331608Y0404412D01*
X0331493Y0404349D01*
X0331380Y0404282D01*
X0331269Y0404212D01*
X0331161Y0404138D01*
X0331054Y0404062D01*
X0330950Y0403982D01*
X0330848Y0403899D01*
X0330748Y0403814D01*
X0330651Y0403725D01*
X0330557Y0403634D01*
X0330466Y0403540D01*
X0330377Y0403443D01*
X0330292Y0403343D01*
X0330209Y0403241D01*
X0330129Y0403137D01*
X0330053Y0403030D01*
X0329979Y0402922D01*
X0329909Y0402811D01*
X0329842Y0402698D01*
X0329779Y0402583D01*
X0329719Y0402466D01*
X0329663Y0402347D01*
X0329610Y0402227D01*
X0329560Y0402106D01*
X0329515Y0401982D01*
X0329473Y0401858D01*
X0329434Y0401733D01*
X0329400Y0401606D01*
X0329369Y0401478D01*
X0329342Y0401350D01*
X0329319Y0401221D01*
X0329299Y0401091D01*
X0329284Y0400961D01*
X0329272Y0400830D01*
X0329264Y0400699D01*
X0329260Y0400568D01*
X0329260Y0400436D01*
X0329264Y0400305D01*
X0329272Y0400174D01*
X0329284Y0400043D01*
X0329299Y0399913D01*
X0329319Y0399783D01*
X0329342Y0399654D01*
X0329369Y0399526D01*
X0329400Y0399398D01*
X0329434Y0399271D01*
X0329473Y0399146D01*
X0329515Y0399022D01*
X0329560Y0398898D01*
X0329610Y0398777D01*
X0329663Y0398657D01*
X0329719Y0398538D01*
X0329779Y0398421D01*
X0329842Y0398306D01*
X0329909Y0398193D01*
X0329979Y0398082D01*
X0330053Y0397974D01*
X0330129Y0397867D01*
X0330209Y0397763D01*
X0330292Y0397661D01*
X0330377Y0397561D01*
X0330466Y0397464D01*
X0330557Y0397370D01*
X0333341Y0394586D01*
X0244613Y0432755D02*
X0243908Y0432050D01*
X0242499Y0432050D01*
X0241794Y0432755D01*
X0241794Y0434164D02*
X0243204Y0434869D01*
X0243908Y0434869D01*
X0244613Y0434164D01*
X0244613Y0432755D01*
X0241794Y0434164D02*
X0241794Y0436278D01*
X0244613Y0436278D01*
X0240263Y0435573D02*
X0239558Y0436278D01*
X0238149Y0436278D01*
X0237444Y0435573D01*
X0237444Y0432755D01*
X0238149Y0432050D01*
X0239558Y0432050D01*
X0240263Y0432755D01*
X0198324Y0389278D02*
X0196210Y0387164D01*
X0199028Y0387164D01*
X0198324Y0385050D02*
X0198324Y0389278D01*
X0194678Y0389278D02*
X0193269Y0389278D01*
X0193973Y0389278D02*
X0193973Y0385755D01*
X0193269Y0385050D01*
X0192564Y0385050D01*
X0191859Y0385755D01*
X0170440Y0381558D02*
X0170440Y0378739D01*
X0169735Y0378034D01*
X0168326Y0378034D01*
X0167621Y0378739D01*
X0168326Y0380148D02*
X0170440Y0380148D01*
X0170440Y0381558D02*
X0169735Y0382262D01*
X0168326Y0382262D01*
X0167621Y0381558D01*
X0167621Y0380853D01*
X0168326Y0380148D01*
X0166090Y0380148D02*
X0165385Y0379444D01*
X0163271Y0379444D01*
X0164680Y0379444D02*
X0166090Y0378034D01*
X0166090Y0380148D02*
X0166090Y0381558D01*
X0165385Y0382262D01*
X0163271Y0382262D01*
X0163271Y0378034D01*
X0154660Y0383763D02*
X0150432Y0383763D01*
X0150432Y0385877D01*
X0151137Y0386582D01*
X0152546Y0386582D01*
X0153251Y0385877D01*
X0153251Y0383763D01*
X0153251Y0385173D02*
X0154660Y0386582D01*
X0154660Y0388113D02*
X0151842Y0390932D01*
X0151137Y0390932D01*
X0150432Y0390227D01*
X0150432Y0388818D01*
X0151137Y0388113D01*
X0154660Y0388113D02*
X0154660Y0390932D01*
X0153956Y0392464D02*
X0154660Y0393168D01*
X0154660Y0394578D01*
X0153956Y0395282D01*
X0153251Y0395282D01*
X0152546Y0394578D01*
X0152546Y0393873D01*
X0152546Y0394578D02*
X0151842Y0395282D01*
X0151137Y0395282D01*
X0150432Y0394578D01*
X0150432Y0393168D01*
X0151137Y0392464D01*
X0163031Y0396062D02*
X0163735Y0395357D01*
X0166554Y0395357D01*
X0167259Y0396062D01*
X0167259Y0397471D01*
X0166554Y0398176D01*
X0166554Y0399707D02*
X0167259Y0400412D01*
X0167259Y0401821D01*
X0166554Y0402526D01*
X0165849Y0402526D01*
X0165145Y0401821D01*
X0165145Y0401117D01*
X0165145Y0401821D02*
X0164440Y0402526D01*
X0163735Y0402526D01*
X0163031Y0401821D01*
X0163031Y0400412D01*
X0163735Y0399707D01*
X0163735Y0398176D02*
X0163031Y0397471D01*
X0163031Y0396062D01*
X0165145Y0404057D02*
X0165145Y0406876D01*
X0167259Y0406171D02*
X0163031Y0406171D01*
X0165145Y0404057D01*
X0139298Y0377975D02*
X0138593Y0378680D01*
X0137184Y0378680D01*
X0136479Y0377975D01*
X0136479Y0377270D01*
X0137184Y0376566D01*
X0139298Y0376566D01*
X0139298Y0377975D02*
X0139298Y0375156D01*
X0138593Y0374452D01*
X0137184Y0374452D01*
X0136479Y0375156D01*
X0134947Y0375156D02*
X0134243Y0374452D01*
X0132833Y0374452D01*
X0132129Y0375156D01*
X0132129Y0377975D01*
X0132833Y0378680D01*
X0134243Y0378680D01*
X0134947Y0377975D01*
X0110265Y0375028D02*
X0110265Y0398650D01*
X0094517Y0398650D01*
X0094517Y0375028D01*
X0110265Y0375028D01*
X0102093Y0403034D02*
X0099275Y0403034D01*
X0100684Y0403034D02*
X0100684Y0407262D01*
X0099275Y0405853D01*
X0097743Y0403034D02*
X0094924Y0403034D01*
X0096334Y0403034D02*
X0096334Y0407262D01*
X0094924Y0405853D01*
X0093393Y0406558D02*
X0092688Y0407262D01*
X0090574Y0407262D01*
X0090574Y0403034D01*
X0092688Y0403034D01*
X0093393Y0403739D01*
X0093393Y0406558D01*
X0244922Y0517199D02*
X0246916Y0515206D01*
X0247912Y0515206D01*
X0248909Y0516203D01*
X0248909Y0517199D01*
X0249992Y0518282D02*
X0249493Y0518781D01*
X0249493Y0519777D01*
X0250490Y0520774D01*
X0251486Y0520774D01*
X0251985Y0520275D01*
X0251985Y0519279D01*
X0250988Y0518282D01*
X0249992Y0518282D01*
X0249493Y0519777D02*
X0248497Y0519777D01*
X0247998Y0520275D01*
X0247998Y0521272D01*
X0248995Y0522269D01*
X0249992Y0522269D01*
X0250490Y0521770D01*
X0250490Y0520774D01*
X0253246Y0521180D02*
X0255239Y0519187D01*
X0256235Y0519187D01*
X0257232Y0520184D01*
X0257232Y0521180D01*
X0258315Y0522263D02*
X0258813Y0521765D01*
X0258315Y0522263D02*
X0258315Y0526249D01*
X0257816Y0526748D01*
X0255823Y0524755D01*
X0255239Y0523173D02*
X0254242Y0523173D01*
X0253246Y0522177D01*
X0253246Y0521180D01*
X0246915Y0519193D02*
X0245919Y0519193D01*
X0244922Y0518196D01*
X0244922Y0517199D01*
X0260780Y0528316D02*
X0264260Y0531796D01*
X0262650Y0529026D02*
X0262652Y0529052D01*
X0262658Y0529078D01*
X0262667Y0529102D01*
X0262681Y0529125D01*
X0262697Y0529146D01*
X0262716Y0529164D01*
X0262738Y0529178D01*
X0262762Y0529190D01*
X0262787Y0529198D01*
X0262813Y0529202D01*
X0262839Y0529202D01*
X0262865Y0529198D01*
X0262890Y0529190D01*
X0262914Y0529178D01*
X0262936Y0529164D01*
X0262955Y0529146D01*
X0262971Y0529125D01*
X0262985Y0529102D01*
X0262994Y0529078D01*
X0263000Y0529052D01*
X0263002Y0529026D01*
X0263000Y0529000D01*
X0262994Y0528974D01*
X0262985Y0528950D01*
X0262971Y0528927D01*
X0262955Y0528906D01*
X0262936Y0528888D01*
X0262914Y0528874D01*
X0262890Y0528862D01*
X0262865Y0528854D01*
X0262839Y0528850D01*
X0262813Y0528850D01*
X0262787Y0528854D01*
X0262762Y0528862D01*
X0262738Y0528874D01*
X0262716Y0528888D01*
X0262697Y0528906D01*
X0262681Y0528927D01*
X0262667Y0528950D01*
X0262658Y0528974D01*
X0262652Y0529000D01*
X0262650Y0529026D01*
X0266348Y0522749D02*
X0269828Y0526228D01*
X0347316Y0535574D02*
X0349310Y0533581D01*
X0350306Y0533581D01*
X0351303Y0534577D01*
X0351303Y0535574D01*
X0352386Y0536657D02*
X0353382Y0536657D01*
X0354379Y0537654D01*
X0354379Y0538650D01*
X0353880Y0539148D01*
X0352884Y0539148D01*
X0351389Y0537654D01*
X0352386Y0536657D01*
X0351389Y0537654D02*
X0351389Y0539647D01*
X0351887Y0541141D01*
X0349310Y0537567D02*
X0348313Y0537567D01*
X0347316Y0536571D01*
X0347316Y0535574D01*
X0361616Y0522271D02*
X0361616Y0521275D01*
X0363609Y0519282D01*
X0364605Y0519282D01*
X0365602Y0520278D01*
X0365602Y0521275D01*
X0367183Y0521859D02*
X0367183Y0525846D01*
X0366685Y0526344D01*
X0365688Y0526344D01*
X0364692Y0525347D01*
X0364692Y0524351D01*
X0363609Y0523268D02*
X0362612Y0523268D01*
X0361616Y0522271D01*
X0367183Y0521859D02*
X0369176Y0523853D01*
X0379883Y0511972D02*
X0382873Y0508982D01*
X0381876Y0507985D02*
X0383869Y0509979D01*
X0379883Y0509979D02*
X0379883Y0511972D01*
X0378302Y0509394D02*
X0377305Y0509394D01*
X0376309Y0508397D01*
X0376309Y0507401D01*
X0378302Y0505408D01*
X0379298Y0505408D01*
X0380295Y0506404D01*
X0380295Y0507401D01*
X0380881Y0601656D02*
X0376653Y0601656D01*
X0376653Y0603770D01*
X0377357Y0604475D01*
X0378767Y0604475D01*
X0379471Y0603770D01*
X0379471Y0601656D01*
X0379471Y0603066D02*
X0380881Y0604475D01*
X0380176Y0606006D02*
X0378767Y0606006D01*
X0378767Y0608120D01*
X0379471Y0608825D01*
X0380176Y0608825D01*
X0380881Y0608120D01*
X0380881Y0606711D01*
X0380176Y0606006D01*
X0378767Y0606006D02*
X0377357Y0607416D01*
X0376653Y0608825D01*
X0382425Y0620003D02*
X0382425Y0624231D01*
X0384539Y0624231D01*
X0385243Y0623526D01*
X0385243Y0622117D01*
X0384539Y0621412D01*
X0382425Y0621412D01*
X0383834Y0621412D02*
X0385243Y0620003D01*
X0386775Y0620003D02*
X0389594Y0622821D01*
X0389594Y0623526D01*
X0388889Y0624231D01*
X0387480Y0624231D01*
X0386775Y0623526D01*
X0386775Y0620003D02*
X0389594Y0620003D01*
X0391125Y0620003D02*
X0393944Y0620003D01*
X0392534Y0620003D02*
X0392534Y0624231D01*
X0391125Y0622821D01*
X0395786Y0611396D02*
X0395081Y0610691D01*
X0395081Y0607873D01*
X0395786Y0607168D01*
X0397195Y0607168D01*
X0397900Y0607873D01*
X0399432Y0607873D02*
X0400136Y0607168D01*
X0401546Y0607168D01*
X0402250Y0607873D01*
X0402250Y0608577D01*
X0401546Y0609282D01*
X0400841Y0609282D01*
X0401546Y0609282D02*
X0402250Y0609987D01*
X0402250Y0610691D01*
X0401546Y0611396D01*
X0400136Y0611396D01*
X0399432Y0610691D01*
X0397900Y0610691D02*
X0397195Y0611396D01*
X0395786Y0611396D01*
X0403782Y0610691D02*
X0404487Y0611396D01*
X0405896Y0611396D01*
X0406601Y0610691D01*
X0403782Y0607873D01*
X0404487Y0607168D01*
X0405896Y0607168D01*
X0406601Y0607873D01*
X0406601Y0610691D01*
X0403782Y0610691D02*
X0403782Y0607873D01*
X0378833Y0632775D02*
X0378833Y0634184D01*
X0378129Y0634889D01*
X0378833Y0636421D02*
X0376015Y0639239D01*
X0375310Y0639239D01*
X0374605Y0638535D01*
X0374605Y0637125D01*
X0375310Y0636421D01*
X0375310Y0634889D02*
X0374605Y0634184D01*
X0374605Y0632775D01*
X0375310Y0632070D01*
X0378129Y0632070D01*
X0378833Y0632775D01*
X0378833Y0636421D02*
X0378833Y0639239D01*
X0378129Y0640771D02*
X0375310Y0643589D01*
X0378129Y0643589D01*
X0378833Y0642885D01*
X0378833Y0641475D01*
X0378129Y0640771D01*
X0375310Y0640771D01*
X0374605Y0641475D01*
X0374605Y0642885D01*
X0375310Y0643589D01*
X0377391Y0666564D02*
X0377391Y0682312D01*
X0401013Y0682312D01*
X0401013Y0666564D01*
X0377391Y0666564D01*
X0406771Y0673310D02*
X0406771Y0675424D01*
X0407475Y0676129D01*
X0410294Y0676129D01*
X0410999Y0675424D01*
X0410999Y0673310D01*
X0406771Y0673310D01*
X0407475Y0677660D02*
X0408180Y0677660D01*
X0408885Y0678365D01*
X0408885Y0680479D01*
X0410294Y0680479D02*
X0407475Y0680479D01*
X0406771Y0679774D01*
X0406771Y0678365D01*
X0407475Y0677660D01*
X0410294Y0677660D02*
X0410999Y0678365D01*
X0410999Y0679774D01*
X0410294Y0680479D01*
X0473704Y0591317D02*
X0475818Y0591317D01*
X0476522Y0590613D01*
X0476522Y0589203D01*
X0475818Y0588499D01*
X0473704Y0588499D01*
X0475113Y0588499D02*
X0476522Y0587089D01*
X0478054Y0587794D02*
X0478758Y0587089D01*
X0480168Y0587089D01*
X0480872Y0587794D01*
X0480872Y0588499D01*
X0480168Y0589203D01*
X0479463Y0589203D01*
X0480168Y0589203D02*
X0480872Y0589908D01*
X0480872Y0590613D01*
X0480168Y0591317D01*
X0478758Y0591317D01*
X0478054Y0590613D01*
X0473704Y0591317D02*
X0473704Y0587089D01*
X0582759Y0458247D02*
X0584873Y0458247D01*
X0585577Y0457542D01*
X0585577Y0456133D01*
X0584873Y0455428D01*
X0582759Y0455428D01*
X0584168Y0455428D02*
X0585577Y0454019D01*
X0587109Y0454723D02*
X0587109Y0455428D01*
X0587813Y0456133D01*
X0589223Y0456133D01*
X0589928Y0455428D01*
X0589928Y0454723D01*
X0589223Y0454019D01*
X0587813Y0454019D01*
X0587109Y0454723D01*
X0587813Y0456133D02*
X0587109Y0456837D01*
X0587109Y0457542D01*
X0587813Y0458247D01*
X0589223Y0458247D01*
X0589928Y0457542D01*
X0589928Y0456837D01*
X0589223Y0456133D01*
X0582759Y0454019D02*
X0582759Y0458247D01*
X0598861Y0398837D02*
X0600975Y0398837D01*
X0601680Y0398132D01*
X0601680Y0396723D01*
X0600975Y0396018D01*
X0598861Y0396018D01*
X0598861Y0394609D02*
X0598861Y0398837D01*
X0600270Y0396018D02*
X0601680Y0394609D01*
X0603211Y0395314D02*
X0603916Y0394609D01*
X0605325Y0394609D01*
X0606030Y0395314D01*
X0606030Y0396723D01*
X0605325Y0397428D01*
X0604621Y0397428D01*
X0603211Y0396723D01*
X0603211Y0398837D01*
X0606030Y0398837D01*
X0615826Y0393648D02*
X0616531Y0393648D01*
X0619349Y0390829D01*
X0620054Y0390829D01*
X0620054Y0389298D02*
X0620054Y0386479D01*
X0620054Y0387888D02*
X0615826Y0387888D01*
X0617235Y0386479D01*
X0616531Y0384947D02*
X0617940Y0384947D01*
X0618645Y0384243D01*
X0618645Y0382129D01*
X0620054Y0382129D02*
X0615826Y0382129D01*
X0615826Y0384243D01*
X0616531Y0384947D01*
X0618645Y0383538D02*
X0620054Y0384947D01*
X0615826Y0390829D02*
X0615826Y0393648D01*
X0606550Y0380444D02*
X0602322Y0380444D01*
X0604436Y0378330D01*
X0604436Y0381148D01*
X0603731Y0376798D02*
X0603027Y0376798D01*
X0602322Y0376094D01*
X0602322Y0374684D01*
X0603027Y0373980D01*
X0603027Y0372448D02*
X0602322Y0371743D01*
X0602322Y0370334D01*
X0603027Y0369629D01*
X0605845Y0369629D01*
X0606550Y0370334D01*
X0606550Y0371743D01*
X0605845Y0372448D01*
X0606550Y0373980D02*
X0603731Y0376798D01*
X0606550Y0376798D02*
X0606550Y0373980D01*
X0631637Y0398109D02*
X0632342Y0397404D01*
X0633751Y0397404D01*
X0634456Y0398109D01*
X0635987Y0397404D02*
X0638806Y0397404D01*
X0637397Y0397404D02*
X0637397Y0401632D01*
X0635987Y0400223D01*
X0634456Y0400928D02*
X0633751Y0401632D01*
X0632342Y0401632D01*
X0631637Y0400928D01*
X0631637Y0398109D01*
X0640338Y0398109D02*
X0641042Y0397404D01*
X0642452Y0397404D01*
X0643156Y0398109D01*
X0643156Y0400928D01*
X0642452Y0401632D01*
X0641042Y0401632D01*
X0640338Y0400928D01*
X0640338Y0400223D01*
X0641042Y0399518D01*
X0643156Y0399518D01*
X0665776Y0399831D02*
X0665776Y0376209D01*
X0681524Y0376209D01*
X0681524Y0399831D01*
X0665776Y0399831D01*
X0675081Y0370766D02*
X0677195Y0370766D01*
X0677900Y0370062D01*
X0677900Y0367243D01*
X0677195Y0366538D01*
X0675081Y0366538D01*
X0675081Y0370766D01*
X0679432Y0370766D02*
X0679432Y0368652D01*
X0680841Y0369357D01*
X0681546Y0369357D01*
X0682250Y0368652D01*
X0682250Y0367243D01*
X0681546Y0366538D01*
X0680136Y0366538D01*
X0679432Y0367243D01*
X0679432Y0370766D02*
X0682250Y0370766D01*
X0563928Y0266861D02*
X0563928Y0265799D01*
X0562867Y0264738D01*
X0561805Y0264738D01*
X0561805Y0266861D02*
X0562336Y0267391D01*
X0563398Y0267391D01*
X0563928Y0266861D01*
X0562336Y0267391D02*
X0562336Y0268453D01*
X0561805Y0268984D01*
X0560744Y0268984D01*
X0559682Y0267922D01*
X0559682Y0266861D01*
X0558550Y0265728D02*
X0559611Y0264667D01*
X0559611Y0263605D01*
X0558019Y0262013D01*
X0559080Y0260951D02*
X0555896Y0264136D01*
X0557488Y0265728D01*
X0558550Y0265728D01*
X0554763Y0263004D02*
X0553702Y0261942D01*
X0554233Y0262473D02*
X0556887Y0259819D01*
X0556887Y0258757D01*
X0556356Y0258227D01*
X0555294Y0258227D01*
X0518629Y0264255D02*
X0515810Y0264255D01*
X0518629Y0267073D01*
X0518629Y0267778D01*
X0517924Y0268483D01*
X0516515Y0268483D01*
X0515810Y0267778D01*
X0512869Y0268483D02*
X0512869Y0264255D01*
X0511460Y0264255D02*
X0514279Y0264255D01*
X0511460Y0267073D02*
X0512869Y0268483D01*
X0509928Y0267778D02*
X0509224Y0268483D01*
X0507814Y0268483D01*
X0507110Y0267778D01*
X0507110Y0264959D01*
X0507814Y0264255D01*
X0509224Y0264255D01*
X0509928Y0264959D01*
X0502526Y0268585D02*
X0499707Y0268585D01*
X0501117Y0268585D02*
X0501117Y0272813D01*
X0499707Y0271404D01*
X0498176Y0272109D02*
X0498176Y0270699D01*
X0497471Y0269995D01*
X0495357Y0269995D01*
X0496766Y0269995D02*
X0498176Y0268585D01*
X0495357Y0268585D02*
X0495357Y0272813D01*
X0497471Y0272813D01*
X0498176Y0272109D01*
X0457649Y0280298D02*
X0454646Y0280298D01*
X0456147Y0280298D02*
X0456147Y0284802D01*
X0454646Y0283301D01*
X0453045Y0284802D02*
X0451543Y0284802D01*
X0452294Y0284802D02*
X0452294Y0281049D01*
X0451543Y0280298D01*
X0450793Y0280298D01*
X0450042Y0281049D01*
X0510677Y0220295D02*
X0511739Y0220295D01*
X0512800Y0219234D01*
X0512800Y0218172D01*
X0511208Y0216580D01*
X0512269Y0215518D02*
X0509085Y0218703D01*
X0510677Y0220295D01*
X0513933Y0220366D02*
X0516056Y0222489D01*
X0517117Y0220366D02*
X0513933Y0223551D01*
X0513933Y0220366D01*
X0507952Y0217571D02*
X0506891Y0216509D01*
X0507422Y0217040D02*
X0510076Y0214386D01*
X0510076Y0213324D01*
X0509545Y0212794D01*
X0508483Y0212794D01*
X0398833Y0168869D02*
X0394605Y0168869D01*
X0396719Y0166755D01*
X0396719Y0169574D01*
X0396719Y0165223D02*
X0397424Y0164519D01*
X0397424Y0162405D01*
X0397424Y0163814D02*
X0398833Y0165223D01*
X0396719Y0165223D02*
X0395310Y0165223D01*
X0394605Y0164519D01*
X0394605Y0162405D01*
X0398833Y0162405D01*
X0389636Y0151908D02*
X0390341Y0151203D01*
X0387522Y0148385D01*
X0388227Y0147680D01*
X0389636Y0147680D01*
X0390341Y0148385D01*
X0390341Y0151203D01*
X0389636Y0151908D02*
X0388227Y0151908D01*
X0387522Y0151203D01*
X0387522Y0148385D01*
X0385991Y0147680D02*
X0383172Y0147680D01*
X0384581Y0147680D02*
X0384581Y0151908D01*
X0383172Y0150499D01*
X0381640Y0151203D02*
X0381640Y0149794D01*
X0380936Y0149089D01*
X0378822Y0149089D01*
X0380231Y0149089D02*
X0381640Y0147680D01*
X0378822Y0147680D02*
X0378822Y0151908D01*
X0380936Y0151908D01*
X0381640Y0151203D01*
X0376979Y0163034D02*
X0375570Y0163034D01*
X0374865Y0163739D01*
X0377684Y0166558D01*
X0377684Y0163739D01*
X0376979Y0163034D01*
X0374865Y0163739D02*
X0374865Y0166558D01*
X0375570Y0167262D01*
X0376979Y0167262D01*
X0377684Y0166558D01*
X0373334Y0163034D02*
X0370515Y0163034D01*
X0371924Y0163034D02*
X0371924Y0167262D01*
X0370515Y0165853D01*
X0368984Y0166558D02*
X0368279Y0167262D01*
X0366870Y0167262D01*
X0366165Y0166558D01*
X0366165Y0163739D01*
X0366870Y0163034D01*
X0368279Y0163034D01*
X0368984Y0163739D01*
X0397243Y0144321D02*
X0399357Y0142207D01*
X0399357Y0145026D01*
X0401471Y0144321D02*
X0397243Y0144321D01*
X0397243Y0139266D02*
X0401471Y0139266D01*
X0401471Y0137857D02*
X0401471Y0140676D01*
X0398653Y0137857D02*
X0397243Y0139266D01*
X0397948Y0136325D02*
X0397243Y0135621D01*
X0397243Y0134211D01*
X0397948Y0133507D01*
X0400767Y0133507D01*
X0401471Y0134211D01*
X0401471Y0135621D01*
X0400767Y0136325D01*
X0399044Y0109871D02*
X0375422Y0109871D01*
X0375422Y0094123D01*
X0399044Y0094123D01*
X0399044Y0109871D01*
X0367298Y0100208D02*
X0366593Y0100912D01*
X0365889Y0100912D01*
X0365184Y0100208D01*
X0365184Y0098094D01*
X0366593Y0098094D01*
X0367298Y0098798D01*
X0367298Y0100208D01*
X0365184Y0098094D02*
X0363775Y0099503D01*
X0363070Y0100912D01*
X0363775Y0096562D02*
X0363070Y0095857D01*
X0363070Y0093743D01*
X0367298Y0093743D01*
X0367298Y0095857D01*
X0366593Y0096562D01*
X0363775Y0096562D01*
X0426601Y0365356D02*
X0435649Y0374403D01*
X0438433Y0371619D01*
X0435649Y0374403D02*
X0437737Y0376491D01*
X0438433Y0371619D02*
X0438527Y0371528D01*
X0438624Y0371439D01*
X0438724Y0371354D01*
X0438826Y0371271D01*
X0438930Y0371191D01*
X0439037Y0371115D01*
X0439145Y0371041D01*
X0439256Y0370971D01*
X0439369Y0370904D01*
X0439484Y0370841D01*
X0439601Y0370781D01*
X0439720Y0370725D01*
X0439840Y0370672D01*
X0439961Y0370622D01*
X0440085Y0370577D01*
X0440209Y0370535D01*
X0440334Y0370496D01*
X0440461Y0370462D01*
X0440589Y0370431D01*
X0440717Y0370404D01*
X0440846Y0370381D01*
X0440976Y0370361D01*
X0441106Y0370346D01*
X0441237Y0370334D01*
X0441368Y0370326D01*
X0441499Y0370322D01*
X0441631Y0370322D01*
X0441762Y0370326D01*
X0441893Y0370334D01*
X0442024Y0370346D01*
X0442154Y0370361D01*
X0442284Y0370381D01*
X0442413Y0370404D01*
X0442541Y0370431D01*
X0442669Y0370462D01*
X0442796Y0370496D01*
X0442921Y0370535D01*
X0443045Y0370577D01*
X0443169Y0370622D01*
X0443290Y0370672D01*
X0443410Y0370725D01*
X0443529Y0370781D01*
X0443646Y0370841D01*
X0443761Y0370904D01*
X0443874Y0370971D01*
X0443985Y0371041D01*
X0444093Y0371115D01*
X0444200Y0371191D01*
X0444304Y0371271D01*
X0444406Y0371354D01*
X0444506Y0371439D01*
X0444603Y0371528D01*
X0444697Y0371619D01*
X0444788Y0371713D01*
X0444877Y0371810D01*
X0444962Y0371910D01*
X0445045Y0372012D01*
X0445125Y0372116D01*
X0445201Y0372223D01*
X0445275Y0372331D01*
X0445345Y0372442D01*
X0445412Y0372555D01*
X0445475Y0372670D01*
X0445535Y0372787D01*
X0445591Y0372906D01*
X0445644Y0373026D01*
X0445694Y0373147D01*
X0445739Y0373271D01*
X0445781Y0373395D01*
X0445820Y0373520D01*
X0445854Y0373647D01*
X0445885Y0373775D01*
X0445912Y0373903D01*
X0445935Y0374032D01*
X0445955Y0374162D01*
X0445970Y0374292D01*
X0445982Y0374423D01*
X0445990Y0374554D01*
X0445994Y0374685D01*
X0445994Y0374817D01*
X0445990Y0374948D01*
X0445982Y0375079D01*
X0445970Y0375210D01*
X0445955Y0375340D01*
X0445935Y0375470D01*
X0445912Y0375599D01*
X0445885Y0375727D01*
X0445854Y0375855D01*
X0445820Y0375982D01*
X0445781Y0376107D01*
X0445739Y0376231D01*
X0445694Y0376355D01*
X0445644Y0376476D01*
X0445591Y0376596D01*
X0445535Y0376715D01*
X0445475Y0376832D01*
X0445412Y0376947D01*
X0445345Y0377060D01*
X0445275Y0377171D01*
X0445201Y0377279D01*
X0445125Y0377386D01*
X0445045Y0377490D01*
X0444962Y0377592D01*
X0444877Y0377692D01*
X0444788Y0377789D01*
X0444697Y0377883D01*
D14*
X0431803Y0357840D02*
X0429633Y0355670D01*
X0430718Y0356755D02*
X0427463Y0360010D01*
X0427463Y0357840D01*
X0425292Y0357840D02*
X0423122Y0355670D01*
X0424207Y0356755D02*
X0427463Y0353499D01*
X0424207Y0350244D02*
X0420952Y0353499D01*
X0419867Y0352414D02*
X0422037Y0354585D01*
X0419867Y0350244D02*
X0422037Y0348074D01*
X0420409Y0349701D02*
X0418239Y0347531D01*
X0417696Y0348074D02*
X0417696Y0350244D01*
X0419867Y0350244D01*
X0417696Y0348074D02*
X0419867Y0345903D01*
X0418239Y0345361D02*
X0418239Y0344276D01*
X0416611Y0342648D01*
X0413356Y0345903D01*
X0414983Y0347531D01*
X0416069Y0347531D01*
X0416611Y0346988D01*
X0416611Y0345903D01*
X0414983Y0344276D01*
X0416611Y0345903D02*
X0417696Y0345903D01*
X0418239Y0345361D01*
X0389080Y0371449D02*
X0386011Y0371449D01*
X0387546Y0371449D02*
X0387546Y0376053D01*
X0386011Y0374518D01*
X0384476Y0375285D02*
X0383709Y0376053D01*
X0382174Y0376053D01*
X0381407Y0375285D01*
X0381407Y0374518D01*
X0382174Y0373751D01*
X0383709Y0373751D01*
X0384476Y0372983D01*
X0384476Y0372216D01*
X0383709Y0371449D01*
X0382174Y0371449D01*
X0381407Y0372216D01*
X0379872Y0372216D02*
X0379105Y0371449D01*
X0377570Y0371449D01*
X0376803Y0372216D01*
X0376803Y0376053D01*
X0379872Y0376053D02*
X0379872Y0372216D01*
X0382942Y0370682D02*
X0382942Y0376820D01*
X0386110Y0407680D02*
X0386877Y0407680D01*
X0387645Y0408447D01*
X0387645Y0409982D01*
X0388412Y0410749D01*
X0389179Y0410749D01*
X0389946Y0409982D01*
X0389946Y0408447D01*
X0389179Y0407680D01*
X0386110Y0407680D02*
X0385343Y0408447D01*
X0385343Y0409982D01*
X0386110Y0410749D01*
X0385343Y0412284D02*
X0385343Y0415353D01*
X0385343Y0413818D02*
X0389946Y0413818D01*
X0389946Y0416888D02*
X0389946Y0419957D01*
X0389946Y0421492D02*
X0385343Y0421492D01*
X0385343Y0423794D01*
X0386110Y0424561D01*
X0387645Y0424561D01*
X0388412Y0423794D01*
X0388412Y0421492D01*
X0387645Y0418422D02*
X0387645Y0416888D01*
X0389946Y0416888D02*
X0385343Y0416888D01*
X0385343Y0419957D01*
X0390714Y0426096D02*
X0390714Y0429165D01*
X0389946Y0430700D02*
X0389946Y0433002D01*
X0389179Y0433769D01*
X0386110Y0433769D01*
X0385343Y0433002D01*
X0385343Y0430700D01*
X0389946Y0430700D01*
X0389179Y0435303D02*
X0386110Y0435303D01*
X0385343Y0436071D01*
X0385343Y0437605D01*
X0386110Y0438373D01*
X0389179Y0438373D01*
X0389946Y0437605D01*
X0389946Y0436071D01*
X0389179Y0435303D01*
X0389946Y0439907D02*
X0388412Y0441442D01*
X0389946Y0442977D01*
X0385343Y0442977D01*
X0385343Y0444511D02*
X0389946Y0447581D01*
X0385343Y0447581D01*
X0385343Y0444511D02*
X0389946Y0444511D01*
X0389946Y0439907D02*
X0385343Y0439907D01*
X0368597Y0449226D02*
X0366427Y0447056D01*
X0366427Y0451396D01*
X0365884Y0451939D01*
X0364799Y0451939D01*
X0363714Y0450854D01*
X0363714Y0449769D01*
X0362629Y0448683D02*
X0361544Y0448683D01*
X0360458Y0447598D01*
X0360458Y0446513D01*
X0361001Y0445971D01*
X0362086Y0445971D01*
X0363171Y0447056D01*
X0364256Y0447056D01*
X0364799Y0446513D01*
X0364799Y0445428D01*
X0363714Y0444343D01*
X0362629Y0444343D01*
X0361544Y0443258D02*
X0358831Y0445971D01*
X0356660Y0443800D02*
X0359373Y0441087D01*
X0360458Y0441087D01*
X0361544Y0442172D01*
X0361544Y0443258D01*
X0364799Y0444343D02*
X0360458Y0448683D01*
X0342207Y0437670D02*
X0340037Y0435499D01*
X0333369Y0428831D02*
X0331198Y0426660D01*
X0331198Y0428831D02*
X0333369Y0426660D01*
X0407970Y0497181D02*
X0407970Y0499483D01*
X0409505Y0501018D01*
X0409505Y0501785D01*
X0411039Y0501018D02*
X0411807Y0501785D01*
X0413341Y0501785D01*
X0414109Y0501018D01*
X0414109Y0500250D01*
X0411039Y0497181D01*
X0414109Y0497181D01*
X0407970Y0499483D02*
X0406435Y0501018D01*
X0406435Y0501785D01*
X0274966Y0532311D02*
X0274966Y0533396D01*
X0273881Y0534481D01*
X0272796Y0534481D01*
X0271710Y0535566D02*
X0271168Y0535024D01*
X0270083Y0535024D01*
X0268455Y0536652D01*
X0270083Y0538279D02*
X0271710Y0536652D01*
X0271710Y0535566D01*
X0270083Y0535024D02*
X0270083Y0533939D01*
X0269540Y0533396D01*
X0268455Y0533396D01*
X0266827Y0535024D01*
X0270083Y0538279D01*
X0270083Y0531768D02*
X0274423Y0531768D01*
X0274966Y0532311D01*
X0272253Y0529598D02*
X0270083Y0531768D01*
X0247537Y0533677D02*
X0246995Y0533134D01*
X0245910Y0533134D01*
X0245910Y0532049D01*
X0245367Y0531507D01*
X0244282Y0531507D01*
X0243197Y0532592D01*
X0243197Y0533677D01*
X0242112Y0534762D02*
X0242654Y0535305D01*
X0242654Y0536390D01*
X0241569Y0537475D01*
X0241569Y0538560D01*
X0242112Y0539103D01*
X0243197Y0539103D01*
X0244282Y0538017D01*
X0244282Y0536932D01*
X0245367Y0535847D02*
X0246452Y0535847D01*
X0247537Y0534762D01*
X0247537Y0533677D01*
X0245910Y0533134D02*
X0245367Y0533677D01*
X0242112Y0534762D02*
X0241026Y0534762D01*
X0239941Y0535847D01*
X0239941Y0536932D01*
X0238856Y0538017D02*
X0241569Y0540730D01*
X0239399Y0542901D02*
X0236686Y0540188D01*
X0236686Y0539103D01*
X0237771Y0538017D01*
X0238856Y0538017D01*
X0239941Y0534762D02*
X0244282Y0539103D01*
X0383062Y0678358D02*
X0383062Y0681427D01*
X0382496Y0682965D02*
X0383263Y0683732D01*
X0383263Y0687568D01*
X0384798Y0686801D02*
X0385565Y0687568D01*
X0387100Y0687568D01*
X0387867Y0686801D01*
X0389402Y0686034D02*
X0390936Y0687568D01*
X0390936Y0682965D01*
X0389402Y0682965D02*
X0392471Y0682965D01*
X0394005Y0682965D02*
X0394005Y0683732D01*
X0397075Y0686801D01*
X0397075Y0687568D01*
X0394005Y0687568D01*
X0387867Y0684499D02*
X0387100Y0685267D01*
X0385565Y0685267D01*
X0384798Y0686034D01*
X0384798Y0686801D01*
X0386332Y0688336D02*
X0386332Y0682197D01*
X0385565Y0682965D02*
X0387100Y0682965D01*
X0387867Y0683732D01*
X0387867Y0684499D01*
X0385565Y0682965D02*
X0384798Y0683732D01*
X0382496Y0682965D02*
X0380961Y0682965D01*
X0380194Y0683732D01*
X0380194Y0687568D01*
X0381528Y0679893D02*
X0384597Y0679893D01*
X0393339Y0679893D02*
X0396408Y0679893D01*
X0679101Y0394560D02*
X0679101Y0391491D01*
X0677567Y0393025D02*
X0680636Y0393025D01*
X0682173Y0393592D02*
X0682173Y0395126D01*
X0682941Y0395894D01*
X0683708Y0395894D01*
X0684475Y0395126D01*
X0685243Y0395894D01*
X0686010Y0395894D01*
X0686777Y0395126D01*
X0686777Y0393592D01*
X0686010Y0392824D01*
X0686777Y0391290D02*
X0686777Y0388220D01*
X0686777Y0389755D02*
X0682173Y0389755D01*
X0683708Y0388220D01*
X0682941Y0386686D02*
X0682173Y0385918D01*
X0682173Y0384384D01*
X0682941Y0383617D01*
X0683708Y0383617D01*
X0684475Y0384384D01*
X0684475Y0385918D01*
X0685243Y0386686D01*
X0686010Y0386686D01*
X0686777Y0385918D01*
X0686777Y0384384D01*
X0686010Y0383617D01*
X0686010Y0382082D02*
X0682173Y0382082D01*
X0682173Y0379013D02*
X0686010Y0379013D01*
X0686777Y0379780D01*
X0686777Y0381315D01*
X0686010Y0382082D01*
X0687544Y0385151D02*
X0681406Y0385151D01*
X0679101Y0382749D02*
X0679101Y0379680D01*
X0682941Y0392824D02*
X0682173Y0393592D01*
X0684475Y0394359D02*
X0684475Y0395126D01*
X0392238Y0098081D02*
X0392238Y0095011D01*
X0392804Y0093474D02*
X0389735Y0093474D01*
X0389735Y0091172D01*
X0391270Y0091939D01*
X0392037Y0091939D01*
X0392804Y0091172D01*
X0392804Y0089637D01*
X0392037Y0088870D01*
X0390502Y0088870D01*
X0389735Y0089637D01*
X0388200Y0089637D02*
X0388200Y0090405D01*
X0387433Y0091172D01*
X0385898Y0091172D01*
X0385131Y0091939D01*
X0385131Y0092707D01*
X0385898Y0093474D01*
X0387433Y0093474D01*
X0388200Y0092707D01*
X0386666Y0094241D02*
X0386666Y0088103D01*
X0387433Y0088870D02*
X0388200Y0089637D01*
X0387433Y0088870D02*
X0385898Y0088870D01*
X0385131Y0089637D01*
X0383596Y0089637D02*
X0383596Y0093474D01*
X0380527Y0093474D02*
X0380527Y0089637D01*
X0381294Y0088870D01*
X0382829Y0088870D01*
X0383596Y0089637D01*
X0381961Y0096546D02*
X0378892Y0096546D01*
X0390703Y0096546D02*
X0393772Y0096546D01*
X0098470Y0380700D02*
X0095401Y0380700D01*
X0093864Y0380133D02*
X0093096Y0380901D01*
X0089260Y0380901D01*
X0090027Y0382435D02*
X0089260Y0383203D01*
X0089260Y0384737D01*
X0090027Y0385505D01*
X0090795Y0387039D02*
X0089260Y0388574D01*
X0093864Y0388574D01*
X0093864Y0387039D02*
X0093864Y0390109D01*
X0093096Y0391643D02*
X0093864Y0392411D01*
X0093864Y0393945D01*
X0093096Y0394713D01*
X0090027Y0394713D01*
X0089260Y0393945D01*
X0089260Y0392411D01*
X0090027Y0391643D01*
X0090795Y0391643D01*
X0091562Y0392411D01*
X0091562Y0394713D01*
X0096936Y0394046D02*
X0096936Y0390976D01*
X0093096Y0385505D02*
X0092329Y0385505D01*
X0091562Y0384737D01*
X0091562Y0383203D01*
X0090795Y0382435D01*
X0090027Y0382435D01*
X0088493Y0383970D02*
X0094631Y0383970D01*
X0093864Y0383203D02*
X0093864Y0384737D01*
X0093096Y0385505D01*
X0093864Y0383203D02*
X0093096Y0382435D01*
X0093864Y0380133D02*
X0093864Y0378599D01*
X0093096Y0377832D01*
X0089260Y0377832D01*
X0096936Y0379165D02*
X0096936Y0382235D01*
D15*
X0330863Y0400711D02*
X0330865Y0400816D01*
X0330871Y0400921D01*
X0330881Y0401025D01*
X0330895Y0401129D01*
X0330913Y0401233D01*
X0330935Y0401335D01*
X0330960Y0401437D01*
X0330990Y0401538D01*
X0331023Y0401637D01*
X0331060Y0401735D01*
X0331101Y0401832D01*
X0331146Y0401927D01*
X0331194Y0402020D01*
X0331245Y0402112D01*
X0331301Y0402201D01*
X0331359Y0402288D01*
X0331421Y0402373D01*
X0331485Y0402456D01*
X0331553Y0402536D01*
X0331624Y0402613D01*
X0331698Y0402687D01*
X0331775Y0402759D01*
X0331854Y0402828D01*
X0331936Y0402893D01*
X0332020Y0402956D01*
X0332107Y0403015D01*
X0332196Y0403071D01*
X0332287Y0403124D01*
X0332380Y0403173D01*
X0332474Y0403218D01*
X0332570Y0403260D01*
X0332668Y0403298D01*
X0332767Y0403332D01*
X0332868Y0403363D01*
X0332969Y0403389D01*
X0333072Y0403412D01*
X0333175Y0403431D01*
X0333279Y0403446D01*
X0333383Y0403457D01*
X0333488Y0403464D01*
X0333593Y0403467D01*
X0333698Y0403466D01*
X0333803Y0403461D01*
X0333907Y0403452D01*
X0334011Y0403439D01*
X0334115Y0403422D01*
X0334218Y0403401D01*
X0334320Y0403376D01*
X0334421Y0403348D01*
X0334520Y0403315D01*
X0334619Y0403279D01*
X0334716Y0403239D01*
X0334811Y0403196D01*
X0334905Y0403148D01*
X0334997Y0403098D01*
X0335087Y0403044D01*
X0335175Y0402986D01*
X0335260Y0402925D01*
X0335343Y0402861D01*
X0335424Y0402794D01*
X0335502Y0402724D01*
X0335577Y0402650D01*
X0335649Y0402575D01*
X0335719Y0402496D01*
X0335785Y0402415D01*
X0335849Y0402331D01*
X0335909Y0402245D01*
X0335965Y0402157D01*
X0336019Y0402066D01*
X0336069Y0401974D01*
X0336115Y0401880D01*
X0336158Y0401784D01*
X0336197Y0401686D01*
X0336232Y0401588D01*
X0336263Y0401487D01*
X0336291Y0401386D01*
X0336315Y0401284D01*
X0336335Y0401181D01*
X0336351Y0401077D01*
X0336363Y0400973D01*
X0336371Y0400868D01*
X0336375Y0400763D01*
X0336375Y0400659D01*
X0336371Y0400554D01*
X0336363Y0400449D01*
X0336351Y0400345D01*
X0336335Y0400241D01*
X0336315Y0400138D01*
X0336291Y0400036D01*
X0336263Y0399935D01*
X0336232Y0399834D01*
X0336197Y0399736D01*
X0336158Y0399638D01*
X0336115Y0399542D01*
X0336069Y0399448D01*
X0336019Y0399356D01*
X0335965Y0399265D01*
X0335909Y0399177D01*
X0335849Y0399091D01*
X0335785Y0399007D01*
X0335719Y0398926D01*
X0335649Y0398847D01*
X0335577Y0398772D01*
X0335502Y0398698D01*
X0335424Y0398628D01*
X0335343Y0398561D01*
X0335260Y0398497D01*
X0335175Y0398436D01*
X0335087Y0398378D01*
X0334997Y0398324D01*
X0334905Y0398274D01*
X0334811Y0398226D01*
X0334716Y0398183D01*
X0334619Y0398143D01*
X0334520Y0398107D01*
X0334421Y0398074D01*
X0334320Y0398046D01*
X0334218Y0398021D01*
X0334115Y0398000D01*
X0334011Y0397983D01*
X0333907Y0397970D01*
X0333803Y0397961D01*
X0333698Y0397956D01*
X0333593Y0397955D01*
X0333488Y0397958D01*
X0333383Y0397965D01*
X0333279Y0397976D01*
X0333175Y0397991D01*
X0333072Y0398010D01*
X0332969Y0398033D01*
X0332868Y0398059D01*
X0332767Y0398090D01*
X0332668Y0398124D01*
X0332570Y0398162D01*
X0332474Y0398204D01*
X0332380Y0398249D01*
X0332287Y0398298D01*
X0332196Y0398351D01*
X0332107Y0398407D01*
X0332020Y0398466D01*
X0331936Y0398529D01*
X0331854Y0398594D01*
X0331775Y0398663D01*
X0331698Y0398735D01*
X0331624Y0398809D01*
X0331553Y0398886D01*
X0331485Y0398966D01*
X0331421Y0399049D01*
X0331359Y0399134D01*
X0331301Y0399221D01*
X0331245Y0399310D01*
X0331194Y0399402D01*
X0331146Y0399495D01*
X0331101Y0399590D01*
X0331060Y0399687D01*
X0331023Y0399785D01*
X0330990Y0399884D01*
X0330960Y0399985D01*
X0330935Y0400087D01*
X0330913Y0400189D01*
X0330895Y0400293D01*
X0330881Y0400397D01*
X0330871Y0400501D01*
X0330865Y0400606D01*
X0330863Y0400711D01*
X0371787Y0441634D02*
X0371789Y0441739D01*
X0371795Y0441844D01*
X0371805Y0441948D01*
X0371819Y0442052D01*
X0371837Y0442156D01*
X0371859Y0442258D01*
X0371884Y0442360D01*
X0371914Y0442461D01*
X0371947Y0442560D01*
X0371984Y0442658D01*
X0372025Y0442755D01*
X0372070Y0442850D01*
X0372118Y0442943D01*
X0372169Y0443035D01*
X0372225Y0443124D01*
X0372283Y0443211D01*
X0372345Y0443296D01*
X0372409Y0443379D01*
X0372477Y0443459D01*
X0372548Y0443536D01*
X0372622Y0443610D01*
X0372699Y0443682D01*
X0372778Y0443751D01*
X0372860Y0443816D01*
X0372944Y0443879D01*
X0373031Y0443938D01*
X0373120Y0443994D01*
X0373211Y0444047D01*
X0373304Y0444096D01*
X0373398Y0444141D01*
X0373494Y0444183D01*
X0373592Y0444221D01*
X0373691Y0444255D01*
X0373792Y0444286D01*
X0373893Y0444312D01*
X0373996Y0444335D01*
X0374099Y0444354D01*
X0374203Y0444369D01*
X0374307Y0444380D01*
X0374412Y0444387D01*
X0374517Y0444390D01*
X0374622Y0444389D01*
X0374727Y0444384D01*
X0374831Y0444375D01*
X0374935Y0444362D01*
X0375039Y0444345D01*
X0375142Y0444324D01*
X0375244Y0444299D01*
X0375345Y0444271D01*
X0375444Y0444238D01*
X0375543Y0444202D01*
X0375640Y0444162D01*
X0375735Y0444119D01*
X0375829Y0444071D01*
X0375921Y0444021D01*
X0376011Y0443967D01*
X0376099Y0443909D01*
X0376184Y0443848D01*
X0376267Y0443784D01*
X0376348Y0443717D01*
X0376426Y0443647D01*
X0376501Y0443573D01*
X0376573Y0443498D01*
X0376643Y0443419D01*
X0376709Y0443338D01*
X0376773Y0443254D01*
X0376833Y0443168D01*
X0376889Y0443080D01*
X0376943Y0442989D01*
X0376993Y0442897D01*
X0377039Y0442803D01*
X0377082Y0442707D01*
X0377121Y0442609D01*
X0377156Y0442511D01*
X0377187Y0442410D01*
X0377215Y0442309D01*
X0377239Y0442207D01*
X0377259Y0442104D01*
X0377275Y0442000D01*
X0377287Y0441896D01*
X0377295Y0441791D01*
X0377299Y0441686D01*
X0377299Y0441582D01*
X0377295Y0441477D01*
X0377287Y0441372D01*
X0377275Y0441268D01*
X0377259Y0441164D01*
X0377239Y0441061D01*
X0377215Y0440959D01*
X0377187Y0440858D01*
X0377156Y0440757D01*
X0377121Y0440659D01*
X0377082Y0440561D01*
X0377039Y0440465D01*
X0376993Y0440371D01*
X0376943Y0440279D01*
X0376889Y0440188D01*
X0376833Y0440100D01*
X0376773Y0440014D01*
X0376709Y0439930D01*
X0376643Y0439849D01*
X0376573Y0439770D01*
X0376501Y0439695D01*
X0376426Y0439621D01*
X0376348Y0439551D01*
X0376267Y0439484D01*
X0376184Y0439420D01*
X0376099Y0439359D01*
X0376011Y0439301D01*
X0375921Y0439247D01*
X0375829Y0439197D01*
X0375735Y0439149D01*
X0375640Y0439106D01*
X0375543Y0439066D01*
X0375444Y0439030D01*
X0375345Y0438997D01*
X0375244Y0438969D01*
X0375142Y0438944D01*
X0375039Y0438923D01*
X0374935Y0438906D01*
X0374831Y0438893D01*
X0374727Y0438884D01*
X0374622Y0438879D01*
X0374517Y0438878D01*
X0374412Y0438881D01*
X0374307Y0438888D01*
X0374203Y0438899D01*
X0374099Y0438914D01*
X0373996Y0438933D01*
X0373893Y0438956D01*
X0373792Y0438982D01*
X0373691Y0439013D01*
X0373592Y0439047D01*
X0373494Y0439085D01*
X0373398Y0439127D01*
X0373304Y0439172D01*
X0373211Y0439221D01*
X0373120Y0439274D01*
X0373031Y0439330D01*
X0372944Y0439389D01*
X0372860Y0439452D01*
X0372778Y0439517D01*
X0372699Y0439586D01*
X0372622Y0439658D01*
X0372548Y0439732D01*
X0372477Y0439809D01*
X0372409Y0439889D01*
X0372345Y0439972D01*
X0372283Y0440057D01*
X0372225Y0440144D01*
X0372169Y0440233D01*
X0372118Y0440325D01*
X0372070Y0440418D01*
X0372025Y0440513D01*
X0371984Y0440610D01*
X0371947Y0440708D01*
X0371914Y0440807D01*
X0371884Y0440908D01*
X0371859Y0441010D01*
X0371837Y0441112D01*
X0371819Y0441216D01*
X0371805Y0441320D01*
X0371795Y0441424D01*
X0371789Y0441529D01*
X0371787Y0441634D01*
X0438878Y0374543D02*
X0438880Y0374648D01*
X0438886Y0374753D01*
X0438896Y0374857D01*
X0438910Y0374961D01*
X0438928Y0375065D01*
X0438950Y0375167D01*
X0438975Y0375269D01*
X0439005Y0375370D01*
X0439038Y0375469D01*
X0439075Y0375567D01*
X0439116Y0375664D01*
X0439161Y0375759D01*
X0439209Y0375852D01*
X0439260Y0375944D01*
X0439316Y0376033D01*
X0439374Y0376120D01*
X0439436Y0376205D01*
X0439500Y0376288D01*
X0439568Y0376368D01*
X0439639Y0376445D01*
X0439713Y0376519D01*
X0439790Y0376591D01*
X0439869Y0376660D01*
X0439951Y0376725D01*
X0440035Y0376788D01*
X0440122Y0376847D01*
X0440211Y0376903D01*
X0440302Y0376956D01*
X0440395Y0377005D01*
X0440489Y0377050D01*
X0440585Y0377092D01*
X0440683Y0377130D01*
X0440782Y0377164D01*
X0440883Y0377195D01*
X0440984Y0377221D01*
X0441087Y0377244D01*
X0441190Y0377263D01*
X0441294Y0377278D01*
X0441398Y0377289D01*
X0441503Y0377296D01*
X0441608Y0377299D01*
X0441713Y0377298D01*
X0441818Y0377293D01*
X0441922Y0377284D01*
X0442026Y0377271D01*
X0442130Y0377254D01*
X0442233Y0377233D01*
X0442335Y0377208D01*
X0442436Y0377180D01*
X0442535Y0377147D01*
X0442634Y0377111D01*
X0442731Y0377071D01*
X0442826Y0377028D01*
X0442920Y0376980D01*
X0443012Y0376930D01*
X0443102Y0376876D01*
X0443190Y0376818D01*
X0443275Y0376757D01*
X0443358Y0376693D01*
X0443439Y0376626D01*
X0443517Y0376556D01*
X0443592Y0376482D01*
X0443664Y0376407D01*
X0443734Y0376328D01*
X0443800Y0376247D01*
X0443864Y0376163D01*
X0443924Y0376077D01*
X0443980Y0375989D01*
X0444034Y0375898D01*
X0444084Y0375806D01*
X0444130Y0375712D01*
X0444173Y0375616D01*
X0444212Y0375518D01*
X0444247Y0375420D01*
X0444278Y0375319D01*
X0444306Y0375218D01*
X0444330Y0375116D01*
X0444350Y0375013D01*
X0444366Y0374909D01*
X0444378Y0374805D01*
X0444386Y0374700D01*
X0444390Y0374595D01*
X0444390Y0374491D01*
X0444386Y0374386D01*
X0444378Y0374281D01*
X0444366Y0374177D01*
X0444350Y0374073D01*
X0444330Y0373970D01*
X0444306Y0373868D01*
X0444278Y0373767D01*
X0444247Y0373666D01*
X0444212Y0373568D01*
X0444173Y0373470D01*
X0444130Y0373374D01*
X0444084Y0373280D01*
X0444034Y0373188D01*
X0443980Y0373097D01*
X0443924Y0373009D01*
X0443864Y0372923D01*
X0443800Y0372839D01*
X0443734Y0372758D01*
X0443664Y0372679D01*
X0443592Y0372604D01*
X0443517Y0372530D01*
X0443439Y0372460D01*
X0443358Y0372393D01*
X0443275Y0372329D01*
X0443190Y0372268D01*
X0443102Y0372210D01*
X0443012Y0372156D01*
X0442920Y0372106D01*
X0442826Y0372058D01*
X0442731Y0372015D01*
X0442634Y0371975D01*
X0442535Y0371939D01*
X0442436Y0371906D01*
X0442335Y0371878D01*
X0442233Y0371853D01*
X0442130Y0371832D01*
X0442026Y0371815D01*
X0441922Y0371802D01*
X0441818Y0371793D01*
X0441713Y0371788D01*
X0441608Y0371787D01*
X0441503Y0371790D01*
X0441398Y0371797D01*
X0441294Y0371808D01*
X0441190Y0371823D01*
X0441087Y0371842D01*
X0440984Y0371865D01*
X0440883Y0371891D01*
X0440782Y0371922D01*
X0440683Y0371956D01*
X0440585Y0371994D01*
X0440489Y0372036D01*
X0440395Y0372081D01*
X0440302Y0372130D01*
X0440211Y0372183D01*
X0440122Y0372239D01*
X0440035Y0372298D01*
X0439951Y0372361D01*
X0439869Y0372426D01*
X0439790Y0372495D01*
X0439713Y0372567D01*
X0439639Y0372641D01*
X0439568Y0372718D01*
X0439500Y0372798D01*
X0439436Y0372881D01*
X0439374Y0372966D01*
X0439316Y0373053D01*
X0439260Y0373142D01*
X0439209Y0373234D01*
X0439161Y0373327D01*
X0439116Y0373422D01*
X0439075Y0373519D01*
X0439038Y0373617D01*
X0439005Y0373716D01*
X0438975Y0373817D01*
X0438950Y0373919D01*
X0438928Y0374021D01*
X0438910Y0374125D01*
X0438896Y0374229D01*
X0438886Y0374333D01*
X0438880Y0374438D01*
X0438878Y0374543D01*
X0397955Y0333619D02*
X0397957Y0333724D01*
X0397963Y0333829D01*
X0397973Y0333933D01*
X0397987Y0334037D01*
X0398005Y0334141D01*
X0398027Y0334243D01*
X0398052Y0334345D01*
X0398082Y0334446D01*
X0398115Y0334545D01*
X0398152Y0334643D01*
X0398193Y0334740D01*
X0398238Y0334835D01*
X0398286Y0334928D01*
X0398337Y0335020D01*
X0398393Y0335109D01*
X0398451Y0335196D01*
X0398513Y0335281D01*
X0398577Y0335364D01*
X0398645Y0335444D01*
X0398716Y0335521D01*
X0398790Y0335595D01*
X0398867Y0335667D01*
X0398946Y0335736D01*
X0399028Y0335801D01*
X0399112Y0335864D01*
X0399199Y0335923D01*
X0399288Y0335979D01*
X0399379Y0336032D01*
X0399472Y0336081D01*
X0399566Y0336126D01*
X0399662Y0336168D01*
X0399760Y0336206D01*
X0399859Y0336240D01*
X0399960Y0336271D01*
X0400061Y0336297D01*
X0400164Y0336320D01*
X0400267Y0336339D01*
X0400371Y0336354D01*
X0400475Y0336365D01*
X0400580Y0336372D01*
X0400685Y0336375D01*
X0400790Y0336374D01*
X0400895Y0336369D01*
X0400999Y0336360D01*
X0401103Y0336347D01*
X0401207Y0336330D01*
X0401310Y0336309D01*
X0401412Y0336284D01*
X0401513Y0336256D01*
X0401612Y0336223D01*
X0401711Y0336187D01*
X0401808Y0336147D01*
X0401903Y0336104D01*
X0401997Y0336056D01*
X0402089Y0336006D01*
X0402179Y0335952D01*
X0402267Y0335894D01*
X0402352Y0335833D01*
X0402435Y0335769D01*
X0402516Y0335702D01*
X0402594Y0335632D01*
X0402669Y0335558D01*
X0402741Y0335483D01*
X0402811Y0335404D01*
X0402877Y0335323D01*
X0402941Y0335239D01*
X0403001Y0335153D01*
X0403057Y0335065D01*
X0403111Y0334974D01*
X0403161Y0334882D01*
X0403207Y0334788D01*
X0403250Y0334692D01*
X0403289Y0334594D01*
X0403324Y0334496D01*
X0403355Y0334395D01*
X0403383Y0334294D01*
X0403407Y0334192D01*
X0403427Y0334089D01*
X0403443Y0333985D01*
X0403455Y0333881D01*
X0403463Y0333776D01*
X0403467Y0333671D01*
X0403467Y0333567D01*
X0403463Y0333462D01*
X0403455Y0333357D01*
X0403443Y0333253D01*
X0403427Y0333149D01*
X0403407Y0333046D01*
X0403383Y0332944D01*
X0403355Y0332843D01*
X0403324Y0332742D01*
X0403289Y0332644D01*
X0403250Y0332546D01*
X0403207Y0332450D01*
X0403161Y0332356D01*
X0403111Y0332264D01*
X0403057Y0332173D01*
X0403001Y0332085D01*
X0402941Y0331999D01*
X0402877Y0331915D01*
X0402811Y0331834D01*
X0402741Y0331755D01*
X0402669Y0331680D01*
X0402594Y0331606D01*
X0402516Y0331536D01*
X0402435Y0331469D01*
X0402352Y0331405D01*
X0402267Y0331344D01*
X0402179Y0331286D01*
X0402089Y0331232D01*
X0401997Y0331182D01*
X0401903Y0331134D01*
X0401808Y0331091D01*
X0401711Y0331051D01*
X0401612Y0331015D01*
X0401513Y0330982D01*
X0401412Y0330954D01*
X0401310Y0330929D01*
X0401207Y0330908D01*
X0401103Y0330891D01*
X0400999Y0330878D01*
X0400895Y0330869D01*
X0400790Y0330864D01*
X0400685Y0330863D01*
X0400580Y0330866D01*
X0400475Y0330873D01*
X0400371Y0330884D01*
X0400267Y0330899D01*
X0400164Y0330918D01*
X0400061Y0330941D01*
X0399960Y0330967D01*
X0399859Y0330998D01*
X0399760Y0331032D01*
X0399662Y0331070D01*
X0399566Y0331112D01*
X0399472Y0331157D01*
X0399379Y0331206D01*
X0399288Y0331259D01*
X0399199Y0331315D01*
X0399112Y0331374D01*
X0399028Y0331437D01*
X0398946Y0331502D01*
X0398867Y0331571D01*
X0398790Y0331643D01*
X0398716Y0331717D01*
X0398645Y0331794D01*
X0398577Y0331874D01*
X0398513Y0331957D01*
X0398451Y0332042D01*
X0398393Y0332129D01*
X0398337Y0332218D01*
X0398286Y0332310D01*
X0398238Y0332403D01*
X0398193Y0332498D01*
X0398152Y0332595D01*
X0398115Y0332693D01*
X0398082Y0332792D01*
X0398052Y0332893D01*
X0398027Y0332995D01*
X0398005Y0333097D01*
X0397987Y0333201D01*
X0397973Y0333305D01*
X0397963Y0333409D01*
X0397957Y0333514D01*
X0397955Y0333619D01*
D16*
X0364398Y0345068D02*
X0356524Y0345068D01*
X0352981Y0340501D02*
X0360855Y0340501D01*
X0360855Y0333650D02*
X0352981Y0333650D01*
X0342706Y0340619D02*
X0342706Y0348493D01*
X0335698Y0348493D02*
X0335698Y0340619D01*
X0356524Y0351918D02*
X0364398Y0351918D01*
X0402981Y0410894D02*
X0410855Y0410894D01*
X0416800Y0414005D02*
X0416800Y0421879D01*
X0423808Y0421879D02*
X0423808Y0414005D01*
X0427430Y0414005D02*
X0427430Y0421879D01*
X0434438Y0421879D02*
X0434438Y0414005D01*
X0410855Y0417902D02*
X0402981Y0417902D01*
X0391524Y0421091D02*
X0391524Y0428965D01*
X0392391Y0428178D02*
X0392391Y0436052D01*
X0399398Y0436052D02*
X0399398Y0428178D01*
X0384517Y0428965D02*
X0384517Y0421091D01*
X0365146Y0427784D02*
X0365146Y0435658D01*
X0358139Y0435658D02*
X0358139Y0427784D01*
X0378265Y0453428D02*
X0383833Y0458996D01*
X0378878Y0463951D02*
X0373310Y0458384D01*
X0386893Y0469604D02*
X0392461Y0475172D01*
X0397416Y0470216D02*
X0391848Y0464649D01*
X0378494Y0499294D02*
X0384062Y0504862D01*
X0379106Y0509817D02*
X0373538Y0504250D01*
X0363801Y0513168D02*
X0369369Y0518736D01*
X0364413Y0523691D02*
X0358846Y0518124D01*
X0349502Y0527468D02*
X0355069Y0533035D01*
X0350114Y0537991D02*
X0344546Y0532423D01*
X0377706Y0597469D02*
X0377706Y0605343D01*
X0384556Y0605343D02*
X0384556Y0597469D01*
X0390894Y0603414D02*
X0398769Y0603414D01*
X0398769Y0610422D02*
X0390894Y0610422D01*
X0391288Y0621052D02*
X0399162Y0621052D01*
X0399162Y0627902D02*
X0391288Y0627902D01*
X0383414Y0630501D02*
X0383414Y0662528D01*
X0365304Y0662528D01*
X0365304Y0630501D01*
X0407706Y0663335D02*
X0407706Y0678375D01*
X0414792Y0678375D02*
X0414792Y0663335D01*
X0407706Y0663335D01*
X0469517Y0590265D02*
X0477391Y0590265D01*
X0477391Y0583414D02*
X0469517Y0583414D01*
X0578572Y0457194D02*
X0586446Y0457194D01*
X0586446Y0450343D02*
X0578572Y0450343D01*
X0594674Y0397784D02*
X0602548Y0397784D01*
X0602548Y0390934D02*
X0594674Y0390934D01*
X0598572Y0386367D02*
X0598572Y0378493D01*
X0605580Y0378493D02*
X0605580Y0386367D01*
X0616879Y0385816D02*
X0616879Y0377942D01*
X0623729Y0377942D02*
X0623729Y0385816D01*
X0630068Y0392824D02*
X0662095Y0392824D01*
X0662095Y0410934D01*
X0630068Y0410934D01*
X0665107Y0369831D02*
X0680146Y0369831D01*
X0680146Y0362745D02*
X0665107Y0362745D01*
X0665107Y0369831D01*
X0523847Y0272233D02*
X0515973Y0272233D01*
X0515973Y0265225D02*
X0523847Y0265225D01*
X0499044Y0264910D02*
X0491170Y0264910D01*
X0491170Y0271761D02*
X0499044Y0271761D01*
X0397784Y0174792D02*
X0397784Y0166918D01*
X0390934Y0166918D02*
X0390934Y0174792D01*
X0382902Y0171013D02*
X0375028Y0171013D01*
X0375028Y0164005D02*
X0382902Y0164005D01*
X0382509Y0150855D02*
X0374635Y0150855D01*
X0374635Y0144005D02*
X0382509Y0144005D01*
X0392666Y0147627D02*
X0392666Y0115599D01*
X0410776Y0115599D01*
X0410776Y0147627D01*
X0366367Y0111918D02*
X0366367Y0096879D01*
X0359280Y0096879D02*
X0359280Y0111918D01*
X0366367Y0111918D01*
X0265170Y0199044D02*
X0260456Y0194330D01*
X0255742Y0194330D02*
X0187389Y0262684D01*
X0194460Y0269755D01*
X0265170Y0199044D01*
X0291476Y0314649D02*
X0285909Y0320216D01*
X0290864Y0325172D02*
X0296432Y0319604D01*
X0211209Y0391800D02*
X0211209Y0401800D01*
X0194543Y0401800D01*
X0191209Y0398467D02*
X0191209Y0391800D01*
X0211209Y0391800D01*
X0175658Y0385934D02*
X0167784Y0385934D01*
X0171013Y0391170D02*
X0171013Y0399044D01*
X0164005Y0399044D02*
X0164005Y0391170D01*
X0153611Y0392627D02*
X0153611Y0400501D01*
X0146761Y0400501D02*
X0146761Y0392627D01*
X0146249Y0383257D02*
X0114221Y0383257D01*
X0114221Y0365146D01*
X0146249Y0365146D01*
X0167784Y0379083D02*
X0175658Y0379083D01*
X0113099Y0403965D02*
X0098060Y0403965D01*
X0098060Y0411052D02*
X0113099Y0411052D01*
X0113099Y0403965D01*
X0241957Y0433020D02*
X0249831Y0433020D01*
X0249831Y0440028D02*
X0241957Y0440028D01*
X0255431Y0513074D02*
X0260999Y0518642D01*
X0256043Y0523597D02*
X0250475Y0518029D01*
X0249919Y0518586D02*
X0255487Y0524153D01*
X0250531Y0529109D02*
X0244964Y0523541D01*
D17*
X0487503Y0574567D02*
X0490844Y0577908D01*
X0496412Y0572340D01*
X0493071Y0568999D01*
X0487503Y0574567D01*
X0491250Y0574161D02*
X0492311Y0572393D01*
X0493018Y0573100D01*
X0491250Y0574161D01*
X0579033Y0486175D02*
X0584601Y0480608D01*
X0581260Y0477267D01*
X0575692Y0482835D01*
X0579033Y0486175D01*
X0579439Y0482428D02*
X0580500Y0480661D01*
X0581207Y0481368D01*
X0579439Y0482428D01*
D18*
X0662961Y0401879D02*
X0662963Y0401918D01*
X0662969Y0401957D01*
X0662979Y0401995D01*
X0662992Y0402032D01*
X0663009Y0402067D01*
X0663029Y0402101D01*
X0663053Y0402132D01*
X0663080Y0402161D01*
X0663109Y0402187D01*
X0663141Y0402210D01*
X0663175Y0402230D01*
X0663211Y0402246D01*
X0663248Y0402258D01*
X0663287Y0402267D01*
X0663326Y0402272D01*
X0663365Y0402273D01*
X0663404Y0402270D01*
X0663443Y0402263D01*
X0663480Y0402252D01*
X0663517Y0402238D01*
X0663552Y0402220D01*
X0663585Y0402199D01*
X0663616Y0402174D01*
X0663644Y0402147D01*
X0663669Y0402117D01*
X0663691Y0402084D01*
X0663710Y0402050D01*
X0663725Y0402014D01*
X0663737Y0401976D01*
X0663745Y0401938D01*
X0663749Y0401899D01*
X0663749Y0401859D01*
X0663745Y0401820D01*
X0663737Y0401782D01*
X0663725Y0401744D01*
X0663710Y0401708D01*
X0663691Y0401674D01*
X0663669Y0401641D01*
X0663644Y0401611D01*
X0663616Y0401584D01*
X0663585Y0401559D01*
X0663552Y0401538D01*
X0663517Y0401520D01*
X0663480Y0401506D01*
X0663443Y0401495D01*
X0663404Y0401488D01*
X0663365Y0401485D01*
X0663326Y0401486D01*
X0663287Y0401491D01*
X0663248Y0401500D01*
X0663211Y0401512D01*
X0663175Y0401528D01*
X0663141Y0401548D01*
X0663109Y0401571D01*
X0663080Y0401597D01*
X0663053Y0401626D01*
X0663029Y0401657D01*
X0663009Y0401691D01*
X0662992Y0401726D01*
X0662979Y0401763D01*
X0662969Y0401801D01*
X0662963Y0401840D01*
X0662961Y0401879D01*
X0663453Y0366288D02*
X0663455Y0366327D01*
X0663461Y0366366D01*
X0663471Y0366404D01*
X0663484Y0366441D01*
X0663501Y0366476D01*
X0663521Y0366510D01*
X0663545Y0366541D01*
X0663572Y0366570D01*
X0663601Y0366596D01*
X0663633Y0366619D01*
X0663667Y0366639D01*
X0663703Y0366655D01*
X0663740Y0366667D01*
X0663779Y0366676D01*
X0663818Y0366681D01*
X0663857Y0366682D01*
X0663896Y0366679D01*
X0663935Y0366672D01*
X0663972Y0366661D01*
X0664009Y0366647D01*
X0664044Y0366629D01*
X0664077Y0366608D01*
X0664108Y0366583D01*
X0664136Y0366556D01*
X0664161Y0366526D01*
X0664183Y0366493D01*
X0664202Y0366459D01*
X0664217Y0366423D01*
X0664229Y0366385D01*
X0664237Y0366347D01*
X0664241Y0366308D01*
X0664241Y0366268D01*
X0664237Y0366229D01*
X0664229Y0366191D01*
X0664217Y0366153D01*
X0664202Y0366117D01*
X0664183Y0366083D01*
X0664161Y0366050D01*
X0664136Y0366020D01*
X0664108Y0365993D01*
X0664077Y0365968D01*
X0664044Y0365947D01*
X0664009Y0365929D01*
X0663972Y0365915D01*
X0663935Y0365904D01*
X0663896Y0365897D01*
X0663857Y0365894D01*
X0663818Y0365895D01*
X0663779Y0365900D01*
X0663740Y0365909D01*
X0663703Y0365921D01*
X0663667Y0365937D01*
X0663633Y0365957D01*
X0663601Y0365980D01*
X0663572Y0366006D01*
X0663545Y0366035D01*
X0663521Y0366066D01*
X0663501Y0366100D01*
X0663484Y0366135D01*
X0663471Y0366172D01*
X0663461Y0366210D01*
X0663455Y0366249D01*
X0663453Y0366288D01*
X0401327Y0114339D02*
X0401329Y0114378D01*
X0401335Y0114417D01*
X0401345Y0114455D01*
X0401358Y0114492D01*
X0401375Y0114527D01*
X0401395Y0114561D01*
X0401419Y0114592D01*
X0401446Y0114621D01*
X0401475Y0114647D01*
X0401507Y0114670D01*
X0401541Y0114690D01*
X0401577Y0114706D01*
X0401614Y0114718D01*
X0401653Y0114727D01*
X0401692Y0114732D01*
X0401731Y0114733D01*
X0401770Y0114730D01*
X0401809Y0114723D01*
X0401846Y0114712D01*
X0401883Y0114698D01*
X0401918Y0114680D01*
X0401951Y0114659D01*
X0401982Y0114634D01*
X0402010Y0114607D01*
X0402035Y0114577D01*
X0402057Y0114544D01*
X0402076Y0114510D01*
X0402091Y0114474D01*
X0402103Y0114436D01*
X0402111Y0114398D01*
X0402115Y0114359D01*
X0402115Y0114319D01*
X0402111Y0114280D01*
X0402103Y0114242D01*
X0402091Y0114204D01*
X0402076Y0114168D01*
X0402057Y0114134D01*
X0402035Y0114101D01*
X0402010Y0114071D01*
X0401982Y0114044D01*
X0401951Y0114019D01*
X0401918Y0113998D01*
X0401883Y0113980D01*
X0401846Y0113966D01*
X0401809Y0113955D01*
X0401770Y0113948D01*
X0401731Y0113945D01*
X0401692Y0113946D01*
X0401653Y0113951D01*
X0401614Y0113960D01*
X0401577Y0113972D01*
X0401541Y0113988D01*
X0401507Y0114008D01*
X0401475Y0114031D01*
X0401446Y0114057D01*
X0401419Y0114086D01*
X0401395Y0114117D01*
X0401375Y0114151D01*
X0401358Y0114186D01*
X0401345Y0114223D01*
X0401335Y0114261D01*
X0401329Y0114300D01*
X0401327Y0114339D01*
X0362430Y0113178D02*
X0362432Y0113217D01*
X0362438Y0113256D01*
X0362448Y0113294D01*
X0362461Y0113331D01*
X0362478Y0113366D01*
X0362498Y0113400D01*
X0362522Y0113431D01*
X0362549Y0113460D01*
X0362578Y0113486D01*
X0362610Y0113509D01*
X0362644Y0113529D01*
X0362680Y0113545D01*
X0362717Y0113557D01*
X0362756Y0113566D01*
X0362795Y0113571D01*
X0362834Y0113572D01*
X0362873Y0113569D01*
X0362912Y0113562D01*
X0362949Y0113551D01*
X0362986Y0113537D01*
X0363021Y0113519D01*
X0363054Y0113498D01*
X0363085Y0113473D01*
X0363113Y0113446D01*
X0363138Y0113416D01*
X0363160Y0113383D01*
X0363179Y0113349D01*
X0363194Y0113313D01*
X0363206Y0113275D01*
X0363214Y0113237D01*
X0363218Y0113198D01*
X0363218Y0113158D01*
X0363214Y0113119D01*
X0363206Y0113081D01*
X0363194Y0113043D01*
X0363179Y0113007D01*
X0363160Y0112973D01*
X0363138Y0112940D01*
X0363113Y0112910D01*
X0363085Y0112883D01*
X0363054Y0112858D01*
X0363021Y0112837D01*
X0362986Y0112819D01*
X0362949Y0112805D01*
X0362912Y0112794D01*
X0362873Y0112787D01*
X0362834Y0112784D01*
X0362795Y0112785D01*
X0362756Y0112790D01*
X0362717Y0112799D01*
X0362680Y0112811D01*
X0362644Y0112827D01*
X0362610Y0112847D01*
X0362578Y0112870D01*
X0362549Y0112896D01*
X0362522Y0112925D01*
X0362498Y0112956D01*
X0362478Y0112990D01*
X0362461Y0113025D01*
X0362448Y0113062D01*
X0362438Y0113100D01*
X0362432Y0113139D01*
X0362430Y0113178D01*
X0112567Y0374202D02*
X0112569Y0374241D01*
X0112575Y0374280D01*
X0112585Y0374318D01*
X0112598Y0374355D01*
X0112615Y0374390D01*
X0112635Y0374424D01*
X0112659Y0374455D01*
X0112686Y0374484D01*
X0112715Y0374510D01*
X0112747Y0374533D01*
X0112781Y0374553D01*
X0112817Y0374569D01*
X0112854Y0374581D01*
X0112893Y0374590D01*
X0112932Y0374595D01*
X0112971Y0374596D01*
X0113010Y0374593D01*
X0113049Y0374586D01*
X0113086Y0374575D01*
X0113123Y0374561D01*
X0113158Y0374543D01*
X0113191Y0374522D01*
X0113222Y0374497D01*
X0113250Y0374470D01*
X0113275Y0374440D01*
X0113297Y0374407D01*
X0113316Y0374373D01*
X0113331Y0374337D01*
X0113343Y0374299D01*
X0113351Y0374261D01*
X0113355Y0374222D01*
X0113355Y0374182D01*
X0113351Y0374143D01*
X0113343Y0374105D01*
X0113331Y0374067D01*
X0113316Y0374031D01*
X0113297Y0373997D01*
X0113275Y0373964D01*
X0113250Y0373934D01*
X0113222Y0373907D01*
X0113191Y0373882D01*
X0113158Y0373861D01*
X0113123Y0373843D01*
X0113086Y0373829D01*
X0113049Y0373818D01*
X0113010Y0373811D01*
X0112971Y0373808D01*
X0112932Y0373809D01*
X0112893Y0373814D01*
X0112854Y0373823D01*
X0112817Y0373835D01*
X0112781Y0373851D01*
X0112747Y0373871D01*
X0112715Y0373894D01*
X0112686Y0373920D01*
X0112659Y0373949D01*
X0112635Y0373980D01*
X0112615Y0374014D01*
X0112598Y0374049D01*
X0112585Y0374086D01*
X0112575Y0374124D01*
X0112569Y0374163D01*
X0112567Y0374202D01*
X0113965Y0407509D02*
X0113967Y0407548D01*
X0113973Y0407587D01*
X0113983Y0407625D01*
X0113996Y0407662D01*
X0114013Y0407697D01*
X0114033Y0407731D01*
X0114057Y0407762D01*
X0114084Y0407791D01*
X0114113Y0407817D01*
X0114145Y0407840D01*
X0114179Y0407860D01*
X0114215Y0407876D01*
X0114252Y0407888D01*
X0114291Y0407897D01*
X0114330Y0407902D01*
X0114369Y0407903D01*
X0114408Y0407900D01*
X0114447Y0407893D01*
X0114484Y0407882D01*
X0114521Y0407868D01*
X0114556Y0407850D01*
X0114589Y0407829D01*
X0114620Y0407804D01*
X0114648Y0407777D01*
X0114673Y0407747D01*
X0114695Y0407714D01*
X0114714Y0407680D01*
X0114729Y0407644D01*
X0114741Y0407606D01*
X0114749Y0407568D01*
X0114753Y0407529D01*
X0114753Y0407489D01*
X0114749Y0407450D01*
X0114741Y0407412D01*
X0114729Y0407374D01*
X0114714Y0407338D01*
X0114695Y0407304D01*
X0114673Y0407271D01*
X0114648Y0407241D01*
X0114620Y0407214D01*
X0114589Y0407189D01*
X0114556Y0407168D01*
X0114521Y0407150D01*
X0114484Y0407136D01*
X0114447Y0407125D01*
X0114408Y0407118D01*
X0114369Y0407115D01*
X0114330Y0407116D01*
X0114291Y0407121D01*
X0114252Y0407130D01*
X0114215Y0407142D01*
X0114179Y0407158D01*
X0114145Y0407178D01*
X0114113Y0407201D01*
X0114084Y0407227D01*
X0114057Y0407256D01*
X0114033Y0407287D01*
X0114013Y0407321D01*
X0113996Y0407356D01*
X0113983Y0407393D01*
X0113973Y0407431D01*
X0113967Y0407470D01*
X0113965Y0407509D01*
X0379556Y0393296D02*
X0379558Y0393308D01*
X0379563Y0393319D01*
X0379572Y0393328D01*
X0379583Y0393333D01*
X0379595Y0393335D01*
X0379607Y0393333D01*
X0379618Y0393328D01*
X0379627Y0393319D01*
X0379632Y0393308D01*
X0379634Y0393296D01*
X0379632Y0393284D01*
X0379627Y0393273D01*
X0379618Y0393264D01*
X0379607Y0393259D01*
X0379595Y0393257D01*
X0379583Y0393259D01*
X0379572Y0393264D01*
X0379563Y0393273D01*
X0379558Y0393284D01*
X0379556Y0393296D01*
X0373965Y0663788D02*
X0373967Y0663827D01*
X0373973Y0663866D01*
X0373983Y0663904D01*
X0373996Y0663941D01*
X0374013Y0663976D01*
X0374033Y0664010D01*
X0374057Y0664041D01*
X0374084Y0664070D01*
X0374113Y0664096D01*
X0374145Y0664119D01*
X0374179Y0664139D01*
X0374215Y0664155D01*
X0374252Y0664167D01*
X0374291Y0664176D01*
X0374330Y0664181D01*
X0374369Y0664182D01*
X0374408Y0664179D01*
X0374447Y0664172D01*
X0374484Y0664161D01*
X0374521Y0664147D01*
X0374556Y0664129D01*
X0374589Y0664108D01*
X0374620Y0664083D01*
X0374648Y0664056D01*
X0374673Y0664026D01*
X0374695Y0663993D01*
X0374714Y0663959D01*
X0374729Y0663923D01*
X0374741Y0663885D01*
X0374749Y0663847D01*
X0374753Y0663808D01*
X0374753Y0663768D01*
X0374749Y0663729D01*
X0374741Y0663691D01*
X0374729Y0663653D01*
X0374714Y0663617D01*
X0374695Y0663583D01*
X0374673Y0663550D01*
X0374648Y0663520D01*
X0374620Y0663493D01*
X0374589Y0663468D01*
X0374556Y0663447D01*
X0374521Y0663429D01*
X0374484Y0663415D01*
X0374447Y0663404D01*
X0374408Y0663397D01*
X0374369Y0663394D01*
X0374330Y0663395D01*
X0374291Y0663400D01*
X0374252Y0663409D01*
X0374215Y0663421D01*
X0374179Y0663437D01*
X0374145Y0663457D01*
X0374113Y0663480D01*
X0374084Y0663506D01*
X0374057Y0663535D01*
X0374033Y0663566D01*
X0374013Y0663600D01*
X0373996Y0663635D01*
X0373983Y0663672D01*
X0373973Y0663710D01*
X0373967Y0663749D01*
X0373965Y0663788D01*
X0410855Y0662076D02*
X0410857Y0662115D01*
X0410863Y0662154D01*
X0410873Y0662192D01*
X0410886Y0662229D01*
X0410903Y0662264D01*
X0410923Y0662298D01*
X0410947Y0662329D01*
X0410974Y0662358D01*
X0411003Y0662384D01*
X0411035Y0662407D01*
X0411069Y0662427D01*
X0411105Y0662443D01*
X0411142Y0662455D01*
X0411181Y0662464D01*
X0411220Y0662469D01*
X0411259Y0662470D01*
X0411298Y0662467D01*
X0411337Y0662460D01*
X0411374Y0662449D01*
X0411411Y0662435D01*
X0411446Y0662417D01*
X0411479Y0662396D01*
X0411510Y0662371D01*
X0411538Y0662344D01*
X0411563Y0662314D01*
X0411585Y0662281D01*
X0411604Y0662247D01*
X0411619Y0662211D01*
X0411631Y0662173D01*
X0411639Y0662135D01*
X0411643Y0662096D01*
X0411643Y0662056D01*
X0411639Y0662017D01*
X0411631Y0661979D01*
X0411619Y0661941D01*
X0411604Y0661905D01*
X0411585Y0661871D01*
X0411563Y0661838D01*
X0411538Y0661808D01*
X0411510Y0661781D01*
X0411479Y0661756D01*
X0411446Y0661735D01*
X0411411Y0661717D01*
X0411374Y0661703D01*
X0411337Y0661692D01*
X0411298Y0661685D01*
X0411259Y0661682D01*
X0411220Y0661683D01*
X0411181Y0661688D01*
X0411142Y0661697D01*
X0411105Y0661709D01*
X0411069Y0661725D01*
X0411035Y0661745D01*
X0411003Y0661768D01*
X0410974Y0661794D01*
X0410947Y0661823D01*
X0410923Y0661854D01*
X0410903Y0661888D01*
X0410886Y0661923D01*
X0410873Y0661960D01*
X0410863Y0661998D01*
X0410857Y0662037D01*
X0410855Y0662076D01*
D19*
X0413044Y0516824D02*
X0408320Y0516824D01*
X0400839Y0511706D02*
X0400839Y0509343D01*
X0408320Y0504225D02*
X0413044Y0504225D01*
X0420524Y0509343D02*
X0420524Y0511706D01*
X0346146Y0471879D02*
X0345311Y0471044D01*
X0346146Y0471879D02*
X0345311Y0472714D01*
X0321927Y0496099D02*
X0320256Y0496099D01*
X0296872Y0472714D02*
X0296036Y0471879D01*
X0296872Y0471044D01*
X0320256Y0447659D02*
X0321091Y0446824D01*
X0321927Y0447659D01*
X0248249Y0537963D02*
X0234814Y0551399D01*
X0238703Y0551752D02*
X0238703Y0553873D01*
X0240824Y0553873D01*
X0238703Y0553873D02*
X0241178Y0551399D01*
X0241178Y0557762D02*
X0254613Y0544327D01*
X0452292Y0277548D02*
X0449792Y0275048D01*
X0449792Y0260048D01*
X0452292Y0257548D01*
X0457292Y0257548D01*
X0459792Y0260048D01*
X0459792Y0275048D01*
X0457292Y0277548D01*
X0452292Y0277548D01*
X0462292Y0277548D02*
X0467292Y0277548D01*
X0469792Y0275048D01*
X0472292Y0277548D01*
X0477292Y0277548D01*
X0479792Y0275048D01*
X0479792Y0260048D01*
X0477292Y0257548D01*
X0472292Y0257548D01*
X0469792Y0260048D01*
X0469792Y0275048D01*
X0469792Y0260048D02*
X0467292Y0257548D01*
X0462292Y0257548D01*
X0459792Y0260048D01*
X0509930Y0210466D02*
X0513466Y0214001D01*
X0517001Y0214001D01*
X0517001Y0217537D01*
X0520537Y0221072D01*
X0524072Y0221072D01*
X0524072Y0224608D01*
X0527608Y0228143D01*
X0531143Y0228143D01*
X0531143Y0231679D01*
X0534679Y0235215D01*
X0538214Y0235215D01*
X0541750Y0231679D01*
X0541750Y0228143D01*
X0538214Y0224608D01*
X0534679Y0224608D01*
X0534679Y0221072D01*
X0531143Y0217537D01*
X0527608Y0217537D01*
X0527608Y0214001D01*
X0524072Y0210466D01*
X0520537Y0210466D01*
X0520537Y0206930D01*
X0517001Y0203395D01*
X0513466Y0203395D01*
X0513466Y0199859D01*
X0509930Y0196324D01*
X0506395Y0196324D01*
X0506395Y0192788D01*
X0502859Y0189253D01*
X0499324Y0189253D01*
X0495788Y0192788D01*
X0495788Y0196324D01*
X0499324Y0199859D01*
X0502859Y0199859D01*
X0502859Y0203395D01*
X0506395Y0206930D01*
X0509930Y0206930D01*
X0509930Y0210466D01*
X0542599Y0238221D02*
X0542599Y0241757D01*
X0546135Y0245292D01*
X0549670Y0245292D01*
X0549670Y0248828D01*
X0553206Y0252363D01*
X0556741Y0252363D01*
X0556741Y0255899D01*
X0560277Y0259434D01*
X0563812Y0259434D01*
X0563812Y0262970D01*
X0567348Y0266505D01*
X0570883Y0266505D01*
X0570883Y0270041D01*
X0574419Y0273577D01*
X0577954Y0273577D01*
X0577954Y0277112D01*
X0581490Y0280648D01*
X0585025Y0280648D01*
X0588561Y0277112D01*
X0588561Y0273577D01*
X0585025Y0270041D01*
X0581490Y0270041D01*
X0581490Y0266505D01*
X0577954Y0262970D01*
X0574419Y0262970D01*
X0574419Y0259434D01*
X0570883Y0255899D01*
X0567348Y0255899D01*
X0567348Y0252363D01*
X0563812Y0248828D01*
X0560277Y0248828D01*
X0560277Y0245292D01*
X0556741Y0241757D01*
X0553206Y0241757D01*
X0553206Y0238221D01*
X0549670Y0234686D01*
X0546135Y0234686D01*
X0542599Y0238221D01*
D20*
X0645698Y0374044D02*
X0645698Y0386013D01*
X0651209Y0386013D01*
X0651209Y0374044D01*
X0645698Y0374044D01*
X0394517Y0381721D02*
X0394517Y0393532D01*
X0380737Y0393532D01*
X0380737Y0381721D01*
X0394517Y0381721D01*
X0394005Y0382115D02*
X0393099Y0382115D01*
X0393099Y0383493D01*
X0394005Y0383493D01*
X0394005Y0382115D01*
X0392312Y0382115D02*
X0391406Y0382115D01*
X0391406Y0383493D01*
X0392312Y0383493D01*
X0392312Y0382115D01*
X0390619Y0382115D02*
X0389713Y0382115D01*
X0389713Y0383493D01*
X0390619Y0383493D01*
X0390619Y0382115D01*
X0388926Y0382115D02*
X0388020Y0382115D01*
X0388020Y0383493D01*
X0388926Y0383493D01*
X0388926Y0382115D01*
X0387233Y0382115D02*
X0386328Y0382115D01*
X0386328Y0383493D01*
X0387233Y0383493D01*
X0387233Y0382115D01*
X0385540Y0382115D02*
X0384635Y0382115D01*
X0384635Y0383493D01*
X0385540Y0383493D01*
X0385540Y0382115D01*
X0383847Y0382115D02*
X0382942Y0382115D01*
X0382942Y0383493D01*
X0383847Y0383493D01*
X0383847Y0382115D01*
X0382154Y0382115D02*
X0381249Y0382115D01*
X0381249Y0383493D01*
X0382154Y0383493D01*
X0382154Y0382115D01*
X0382489Y0384635D02*
X0382489Y0385540D01*
X0381111Y0385540D01*
X0381111Y0384635D01*
X0382489Y0384635D01*
X0382489Y0386328D02*
X0382489Y0387233D01*
X0381111Y0387233D01*
X0381111Y0386328D01*
X0382489Y0386328D01*
X0382489Y0388020D02*
X0382489Y0388926D01*
X0381111Y0388926D01*
X0381111Y0388020D01*
X0382489Y0388020D01*
X0382489Y0389713D02*
X0382489Y0390619D01*
X0381111Y0390619D01*
X0381111Y0389713D01*
X0382489Y0389713D01*
X0382154Y0391761D02*
X0381721Y0391761D01*
X0381249Y0392194D01*
X0381249Y0393139D01*
X0382154Y0393139D01*
X0382154Y0391761D01*
X0382942Y0391761D02*
X0383847Y0391761D01*
X0383847Y0393139D01*
X0382942Y0393139D01*
X0382942Y0391761D01*
X0384635Y0391761D02*
X0385540Y0391761D01*
X0385540Y0393139D01*
X0384635Y0393139D01*
X0384635Y0391761D01*
X0386328Y0391761D02*
X0387233Y0391761D01*
X0387233Y0393139D01*
X0386328Y0393139D01*
X0386328Y0391761D01*
X0388020Y0391761D02*
X0388926Y0391761D01*
X0388926Y0393139D01*
X0388020Y0393139D01*
X0388020Y0391761D01*
X0389713Y0391761D02*
X0390619Y0391761D01*
X0390619Y0393139D01*
X0389713Y0393139D01*
X0389713Y0391761D01*
X0391406Y0391761D02*
X0391406Y0393139D01*
X0392312Y0393139D01*
X0392312Y0391761D01*
X0391406Y0391761D01*
X0393099Y0391761D02*
X0394005Y0391761D01*
X0394005Y0393139D01*
X0393099Y0393139D01*
X0393099Y0391761D01*
X0392725Y0390619D02*
X0394103Y0390619D01*
X0394103Y0389713D01*
X0392725Y0389713D01*
X0392725Y0390619D01*
X0392725Y0388926D02*
X0394103Y0388926D01*
X0394103Y0388020D01*
X0392725Y0388020D01*
X0392725Y0388926D01*
X0392725Y0387233D02*
X0394103Y0387233D01*
X0394103Y0386328D01*
X0392725Y0386328D01*
X0392725Y0387233D01*
X0392725Y0385540D02*
X0394103Y0385540D01*
X0394103Y0384635D01*
X0392725Y0384635D01*
X0392725Y0385540D01*
X0392469Y0642981D02*
X0392469Y0648493D01*
X0404438Y0648493D01*
X0404438Y0642981D01*
X0392469Y0642981D01*
X0129044Y0404438D02*
X0129044Y0392469D01*
X0123532Y0392469D01*
X0123532Y0404438D01*
X0129044Y0404438D01*
X0371406Y0127745D02*
X0383375Y0127745D01*
X0383375Y0122233D01*
X0371406Y0122233D01*
X0371406Y0127745D01*
M02*
