G75*
%MOIN*%
%OFA0B0*%
%FSLAX25Y25*%
%IPPOS*%
%LPD*%
%AMOC8*
5,1,8,0,0,1.08239X$1,22.5*
%
%ADD10C,0.05937*%
%ADD11R,0.07400X0.07400*%
%ADD12OC8,0.07400*%
%ADD13R,0.06496X0.06496*%
%ADD14C,0.06496*%
%ADD15C,0.07400*%
%ADD16C,0.05362*%
%ADD17C,0.00600*%
%ADD18C,0.04500*%
%ADD19C,0.01800*%
D10*
X0313634Y0390753D02*
X0309436Y0394951D01*
X0316507Y0402022D02*
X0320705Y0397824D01*
D11*
X0419359Y0227115D03*
D12*
X0419359Y0237115D03*
X0429359Y0237115D03*
X0429359Y0227115D03*
X0439359Y0227115D03*
X0439359Y0237115D03*
D13*
G36*
X0296865Y0383611D02*
X0292272Y0379018D01*
X0287679Y0383611D01*
X0292272Y0388204D01*
X0296865Y0383611D01*
G37*
G36*
X0222666Y0168204D02*
X0227259Y0163611D01*
X0222666Y0159018D01*
X0218073Y0163611D01*
X0222666Y0168204D01*
G37*
D14*
X0215595Y0170682D03*
X0208524Y0177753D03*
X0201453Y0184824D03*
X0194382Y0191895D03*
X0187311Y0198966D03*
X0180240Y0206037D03*
X0173169Y0213108D03*
X0166098Y0220180D03*
X0159027Y0227251D03*
X0299344Y0390682D03*
D15*
X0501014Y0194478D03*
X0493943Y0187407D03*
X0486871Y0180336D03*
X0479800Y0173265D03*
X0472729Y0166194D03*
X0465658Y0159123D03*
X0512469Y0204556D03*
X0519540Y0211627D03*
X0526611Y0218698D03*
X0533682Y0225769D03*
X0540754Y0232840D03*
X0547825Y0239911D03*
D16*
X0270894Y0460461D03*
X0247272Y0488611D03*
X0252587Y0494713D03*
X0256721Y0501013D03*
X0259674Y0508099D03*
X0252784Y0513808D03*
X0246091Y0519517D03*
X0238808Y0520894D03*
X0232509Y0514989D03*
X0200422Y0483887D03*
X0193729Y0477784D03*
X0198847Y0471879D03*
X0204162Y0466367D03*
X0211249Y0463611D03*
X0219123Y0464989D03*
X0226603Y0470304D03*
X0233099Y0476013D03*
X0209674Y0398650D03*
D17*
X0154359Y0225225D02*
X0186839Y0192745D01*
X0193729Y0192745D01*
X0194382Y0191895D01*
X0187311Y0198966D02*
X0187824Y0199635D01*
X0187824Y0237036D01*
X0315776Y0364989D01*
X0315776Y0375816D01*
X0325619Y0378769D02*
X0325619Y0390580D01*
X0319713Y0390580D02*
X0319713Y0298060D01*
X0343335Y0294123D02*
X0470304Y0167154D01*
X0472272Y0167154D01*
X0472729Y0166194D01*
X0479800Y0173265D02*
X0480146Y0174044D01*
X0490973Y0174044D01*
X0539202Y0222272D01*
X0539202Y0227194D01*
X0310855Y0455540D01*
X0304950Y0455540D01*
X0291170Y0441761D01*
X0292154Y0435855D02*
X0276873Y0435855D01*
X0271288Y0430270D01*
X0271288Y0428374D01*
X0242154Y0399241D01*
X0210265Y0399241D01*
X0209674Y0398650D01*
X0214792Y0401603D02*
X0210757Y0405639D01*
X0154359Y0349241D01*
X0154359Y0225225D01*
X0166098Y0220180D02*
X0166170Y0220304D01*
X0207509Y0261643D01*
X0223257Y0206524D02*
X0223257Y0164202D01*
X0222666Y0163611D01*
X0343335Y0294123D02*
X0343335Y0361052D01*
X0325619Y0378769D01*
X0345304Y0378769D02*
X0345304Y0344320D01*
X0349241Y0340383D01*
X0360068Y0352194D02*
X0353178Y0359083D01*
X0353178Y0372863D01*
X0320698Y0405343D01*
X0320698Y0413217D01*
X0314792Y0414202D02*
X0314792Y0422076D01*
X0309871Y0426997D01*
X0309871Y0439792D01*
X0312824Y0442745D01*
X0314792Y0442745D01*
X0334477Y0423060D01*
X0334477Y0397469D01*
X0428965Y0302981D01*
X0428965Y0238020D01*
X0429359Y0237115D01*
X0424044Y0232115D02*
X0428965Y0227194D01*
X0429359Y0227115D01*
X0424044Y0232115D02*
X0424044Y0245894D01*
X0368926Y0301013D01*
X0368926Y0345304D01*
X0355146Y0359083D01*
X0355146Y0372863D01*
X0325619Y0402391D01*
X0325619Y0405343D01*
X0332509Y0406328D02*
X0332509Y0397469D01*
X0372863Y0357115D01*
X0372863Y0311839D01*
X0360068Y0286249D02*
X0419123Y0227194D01*
X0419359Y0227115D01*
X0439359Y0237115D02*
X0439792Y0237036D01*
X0482115Y0194713D01*
X0500816Y0194713D01*
X0501014Y0194478D01*
X0519540Y0211627D02*
X0520501Y0212430D01*
X0527391Y0212430D01*
X0531328Y0216367D01*
X0531328Y0221288D01*
X0528375Y0224241D01*
X0528375Y0229162D01*
X0338414Y0419123D01*
X0332509Y0406328D02*
X0314792Y0424044D01*
X0314792Y0432902D01*
X0294123Y0429950D02*
X0345304Y0378769D01*
X0360068Y0352194D02*
X0360068Y0286249D01*
X0280343Y0370894D02*
X0280343Y0429950D01*
X0274438Y0428965D02*
X0274438Y0397469D01*
X0248847Y0371879D01*
X0241367Y0401603D02*
X0214792Y0401603D01*
X0241367Y0401603D02*
X0270088Y0430324D01*
X0270088Y0430767D01*
X0296061Y0456740D01*
X0311352Y0456740D01*
X0312355Y0455737D01*
X0319517Y0455737D01*
X0322666Y0452587D01*
X0294123Y0429950D02*
X0287627Y0429753D01*
X0346288Y0406328D02*
X0526406Y0226209D01*
X0526406Y0219320D01*
X0526611Y0218698D01*
D18*
X0407312Y0280343D03*
X0372863Y0311839D03*
X0349241Y0340383D03*
X0333493Y0338414D03*
X0337430Y0355146D03*
X0339398Y0360068D03*
X0327587Y0362036D03*
X0315776Y0375816D03*
X0319713Y0390580D03*
X0325619Y0390580D03*
X0325619Y0405343D03*
X0320698Y0413217D03*
X0314792Y0414202D03*
X0314792Y0432902D03*
X0301997Y0434871D03*
X0297469Y0431328D03*
X0292154Y0435855D03*
X0296091Y0439595D03*
X0291170Y0441761D03*
X0287627Y0429753D03*
X0280343Y0429950D03*
X0274438Y0428965D03*
X0286052Y0420107D03*
X0294123Y0409280D03*
X0288217Y0376800D03*
X0280343Y0370894D03*
X0248847Y0371879D03*
X0258887Y0426013D03*
X0276997Y0444910D03*
X0306918Y0451603D03*
X0322666Y0452587D03*
X0339398Y0437824D03*
X0338414Y0419123D03*
X0346288Y0406328D03*
X0344123Y0396091D03*
X0363020Y0362036D03*
X0364005Y0355146D03*
X0319713Y0298060D03*
X0222272Y0247863D03*
X0207509Y0261643D03*
X0223257Y0206524D03*
X0358099Y0084477D03*
X0365973Y0120894D03*
X0565776Y0364989D03*
X0621879Y0358099D03*
X0545107Y0453572D03*
X0510658Y0418139D03*
X0448650Y0546091D03*
X0363020Y0580540D03*
X0347272Y0622863D03*
X0353965Y0484674D03*
X0123847Y0364005D03*
X0083493Y0347272D03*
D19*
X0299044Y0391564D02*
X0299344Y0390682D01*
X0299044Y0391564D02*
X0306918Y0399438D01*
X0317745Y0399438D01*
X0318606Y0399923D01*
M02*
