G75*
%MOIN*%
%OFA0B0*%
%FSLAX25Y25*%
%IPPOS*%
%LPD*%
%AMOC8*
5,1,8,0,0,1.08239X$1,22.5*
%
%ADD10R,0.01378X0.03150*%
%ADD11C,0.05937*%
%ADD12C,0.01956*%
%ADD13R,0.04921X0.05906*%
%ADD14R,0.07400X0.07400*%
%ADD15OC8,0.07400*%
%ADD16R,0.06496X0.06496*%
%ADD17C,0.06496*%
%ADD18C,0.07400*%
%ADD19C,0.01811*%
%ADD20R,0.04724X0.02165*%
%ADD21R,0.00787X0.05315*%
%ADD22R,0.05315X0.00787*%
%ADD23R,0.07874X0.07874*%
%ADD24R,0.08071X0.11417*%
%ADD25R,0.05906X0.03937*%
%ADD26R,0.11417X0.08071*%
%ADD27R,0.03937X0.05906*%
%ADD28R,0.03937X0.03937*%
%ADD29R,0.04000X0.10000*%
%ADD30R,0.07480X0.04331*%
%ADD31C,0.01959*%
%ADD32R,0.01102X0.06150*%
%ADD33R,0.05512X0.08268*%
%ADD34C,0.01575*%
%ADD35C,0.01600*%
%ADD36C,0.00600*%
%ADD37C,0.05362*%
%ADD38C,0.04500*%
%ADD39C,0.01800*%
D10*
G36*
X0228827Y0486203D02*
X0227853Y0487177D01*
X0230079Y0489403D01*
X0231053Y0488429D01*
X0228827Y0486203D01*
G37*
G36*
X0227018Y0488012D02*
X0226044Y0488986D01*
X0228270Y0491212D01*
X0229244Y0490238D01*
X0227018Y0488012D01*
G37*
G36*
X0225208Y0489822D02*
X0224234Y0490796D01*
X0226460Y0493022D01*
X0227434Y0492048D01*
X0225208Y0489822D01*
G37*
G36*
X0229662Y0494276D02*
X0228688Y0495250D01*
X0230914Y0497476D01*
X0231888Y0496502D01*
X0229662Y0494276D01*
G37*
G36*
X0231472Y0492466D02*
X0230498Y0493440D01*
X0232724Y0495666D01*
X0233698Y0494692D01*
X0231472Y0492466D01*
G37*
G36*
X0233281Y0490657D02*
X0232307Y0491631D01*
X0234533Y0493857D01*
X0235507Y0492883D01*
X0233281Y0490657D01*
G37*
D11*
X0316507Y0402022D02*
X0320705Y0397824D01*
X0313634Y0390753D02*
X0309436Y0394951D01*
D12*
X0334624Y0376073D02*
X0336247Y0374450D01*
X0333678Y0371881D01*
X0332055Y0373504D01*
X0334624Y0376073D01*
X0335633Y0373836D02*
X0332387Y0373836D01*
X0334342Y0375791D02*
X0334906Y0375791D01*
X0340136Y0381584D02*
X0341759Y0379961D01*
X0339190Y0377392D01*
X0337567Y0379015D01*
X0340136Y0381584D01*
X0341145Y0379347D02*
X0337899Y0379347D01*
X0339854Y0381302D02*
X0340418Y0381302D01*
X0345648Y0387096D02*
X0347271Y0385473D01*
X0344702Y0382904D01*
X0343079Y0384527D01*
X0345648Y0387096D01*
X0346657Y0384859D02*
X0343411Y0384859D01*
X0345366Y0386814D02*
X0345930Y0386814D01*
X0351159Y0392608D02*
X0352782Y0390985D01*
X0350213Y0388416D01*
X0348590Y0390039D01*
X0351159Y0392608D01*
X0352168Y0390371D02*
X0348922Y0390371D01*
X0350877Y0392326D02*
X0351441Y0392326D01*
X0353574Y0385056D02*
X0355197Y0383433D01*
X0353574Y0385056D02*
X0356143Y0387625D01*
X0357766Y0386002D01*
X0355197Y0383433D01*
X0353906Y0385388D02*
X0357152Y0385388D01*
X0356425Y0387343D02*
X0355861Y0387343D01*
X0348062Y0379544D02*
X0349685Y0377921D01*
X0348062Y0379544D02*
X0350631Y0382113D01*
X0352254Y0380490D01*
X0349685Y0377921D01*
X0348394Y0379876D02*
X0351640Y0379876D01*
X0350913Y0381831D02*
X0350349Y0381831D01*
X0342550Y0374032D02*
X0344173Y0372409D01*
X0342550Y0374032D02*
X0345119Y0376601D01*
X0346742Y0374978D01*
X0344173Y0372409D01*
X0342882Y0374364D02*
X0346128Y0374364D01*
X0345401Y0376319D02*
X0344837Y0376319D01*
X0337038Y0368520D02*
X0338661Y0366897D01*
X0337038Y0368520D02*
X0339607Y0371089D01*
X0341230Y0369466D01*
X0338661Y0366897D01*
X0337370Y0368852D02*
X0340616Y0368852D01*
X0339889Y0370807D02*
X0339325Y0370807D01*
X0331526Y0363009D02*
X0333149Y0361386D01*
X0331526Y0363009D02*
X0334095Y0365578D01*
X0335718Y0363955D01*
X0333149Y0361386D01*
X0331858Y0363341D02*
X0335104Y0363341D01*
X0334377Y0365296D02*
X0333813Y0365296D01*
X0330735Y0368938D02*
X0329112Y0370561D01*
X0330735Y0368938D02*
X0328166Y0366369D01*
X0326543Y0367992D01*
X0329112Y0370561D01*
X0330121Y0368324D02*
X0326875Y0368324D01*
X0328830Y0370279D02*
X0329394Y0370279D01*
X0274983Y0374687D02*
X0274983Y0376983D01*
X0278617Y0376983D01*
X0278617Y0374687D01*
X0274983Y0374687D01*
X0274983Y0376642D02*
X0278617Y0376642D01*
X0278617Y0381735D02*
X0278617Y0384031D01*
X0278617Y0381735D02*
X0274983Y0381735D01*
X0274983Y0384031D01*
X0278617Y0384031D01*
X0278617Y0383690D02*
X0274983Y0383690D01*
X0247711Y0383113D02*
X0247711Y0385409D01*
X0247711Y0383113D02*
X0244077Y0383113D01*
X0244077Y0385409D01*
X0247711Y0385409D01*
X0247711Y0385068D02*
X0244077Y0385068D01*
X0244077Y0378361D02*
X0244077Y0376065D01*
X0244077Y0378361D02*
X0247711Y0378361D01*
X0247711Y0376065D01*
X0244077Y0376065D01*
X0244077Y0378020D02*
X0247711Y0378020D01*
X0239641Y0378519D02*
X0239641Y0376223D01*
X0236007Y0376223D01*
X0236007Y0378519D01*
X0239641Y0378519D01*
X0239641Y0378178D02*
X0236007Y0378178D01*
X0236007Y0371472D02*
X0236007Y0369176D01*
X0236007Y0371472D02*
X0239641Y0371472D01*
X0239641Y0369176D01*
X0236007Y0369176D01*
X0236007Y0371131D02*
X0239641Y0371131D01*
X0236189Y0417498D02*
X0237812Y0419121D01*
X0240381Y0416552D01*
X0238758Y0414929D01*
X0236189Y0417498D01*
X0236803Y0416884D02*
X0240049Y0416884D01*
X0238094Y0418839D02*
X0237530Y0418839D01*
X0243741Y0419912D02*
X0245364Y0421535D01*
X0243741Y0419912D02*
X0241172Y0422481D01*
X0242795Y0424104D01*
X0245364Y0421535D01*
X0245032Y0421867D02*
X0241786Y0421867D01*
X0242513Y0423822D02*
X0243077Y0423822D01*
X0215716Y0480884D02*
X0217339Y0482507D01*
X0219908Y0479938D01*
X0218285Y0478315D01*
X0215716Y0480884D01*
X0216330Y0480270D02*
X0219576Y0480270D01*
X0217621Y0482225D02*
X0217057Y0482225D01*
X0211828Y0488019D02*
X0210205Y0486396D01*
X0211828Y0488019D02*
X0214397Y0485450D01*
X0212774Y0483827D01*
X0210205Y0486396D01*
X0210819Y0485782D02*
X0214065Y0485782D01*
X0212110Y0487737D02*
X0211546Y0487737D01*
X0217757Y0488810D02*
X0219380Y0490433D01*
X0217757Y0488810D02*
X0215188Y0491379D01*
X0216811Y0493002D01*
X0219380Y0490433D01*
X0219048Y0490765D02*
X0215802Y0490765D01*
X0216529Y0492720D02*
X0217093Y0492720D01*
X0224892Y0484921D02*
X0223269Y0483298D01*
X0220700Y0485867D01*
X0222323Y0487490D01*
X0224892Y0484921D01*
X0224560Y0485253D02*
X0221314Y0485253D01*
X0222041Y0487208D02*
X0222605Y0487208D01*
X0302134Y0478718D02*
X0303757Y0480341D01*
X0306326Y0477772D01*
X0304703Y0476149D01*
X0302134Y0478718D01*
X0302748Y0478104D02*
X0305994Y0478104D01*
X0304039Y0480059D02*
X0303475Y0480059D01*
X0309686Y0481133D02*
X0311309Y0482756D01*
X0309686Y0481133D02*
X0307117Y0483702D01*
X0308740Y0485325D01*
X0311309Y0482756D01*
X0310977Y0483088D02*
X0307731Y0483088D01*
X0308458Y0485043D02*
X0309022Y0485043D01*
X0322222Y0487096D02*
X0323845Y0485473D01*
X0321276Y0482904D01*
X0319653Y0484527D01*
X0322222Y0487096D01*
X0323231Y0484859D02*
X0319985Y0484859D01*
X0321940Y0486814D02*
X0322504Y0486814D01*
X0324637Y0479544D02*
X0326260Y0477921D01*
X0324637Y0479544D02*
X0327206Y0482113D01*
X0328829Y0480490D01*
X0326260Y0477921D01*
X0324969Y0479876D02*
X0328215Y0479876D01*
X0327488Y0481831D02*
X0326924Y0481831D01*
X0332065Y0477451D02*
X0333688Y0475828D01*
X0331119Y0473259D01*
X0329496Y0474882D01*
X0332065Y0477451D01*
X0333074Y0475214D02*
X0329828Y0475214D01*
X0331783Y0477169D02*
X0332347Y0477169D01*
X0334479Y0469898D02*
X0336102Y0468275D01*
X0334479Y0469898D02*
X0337048Y0472467D01*
X0338671Y0470844D01*
X0336102Y0468275D01*
X0334811Y0470230D02*
X0338057Y0470230D01*
X0337330Y0472185D02*
X0336766Y0472185D01*
X0334624Y0450876D02*
X0336247Y0449253D01*
X0333678Y0446684D01*
X0332055Y0448307D01*
X0334624Y0450876D01*
X0335633Y0448639D02*
X0332387Y0448639D01*
X0334342Y0450594D02*
X0334906Y0450594D01*
X0337038Y0443324D02*
X0338661Y0441701D01*
X0337038Y0443324D02*
X0339607Y0445893D01*
X0341230Y0444270D01*
X0338661Y0441701D01*
X0337370Y0443656D02*
X0340616Y0443656D01*
X0339889Y0445611D02*
X0339325Y0445611D01*
X0330936Y0437221D02*
X0332559Y0435598D01*
X0330936Y0437221D02*
X0333505Y0439790D01*
X0335128Y0438167D01*
X0332559Y0435598D01*
X0331268Y0437553D02*
X0334514Y0437553D01*
X0333787Y0439508D02*
X0333223Y0439508D01*
X0330145Y0443150D02*
X0328522Y0444773D01*
X0330145Y0443150D02*
X0327576Y0440581D01*
X0325953Y0442204D01*
X0328522Y0444773D01*
X0329531Y0442536D02*
X0326285Y0442536D01*
X0328240Y0444491D02*
X0328804Y0444491D01*
X0354727Y0573302D02*
X0357023Y0573302D01*
X0357023Y0569668D01*
X0354727Y0569668D01*
X0354727Y0573302D01*
X0354727Y0571623D02*
X0357023Y0571623D01*
X0361774Y0569668D02*
X0364070Y0569668D01*
X0361774Y0569668D02*
X0361774Y0573302D01*
X0364070Y0573302D01*
X0364070Y0569668D01*
X0364070Y0571623D02*
X0361774Y0571623D01*
X0568460Y0351668D02*
X0568460Y0349372D01*
X0564826Y0349372D01*
X0564826Y0351668D01*
X0568460Y0351668D01*
X0568460Y0351327D02*
X0564826Y0351327D01*
X0564826Y0344621D02*
X0564826Y0342325D01*
X0564826Y0344621D02*
X0568460Y0344621D01*
X0568460Y0342325D01*
X0564826Y0342325D01*
X0564826Y0344280D02*
X0568460Y0344280D01*
X0460409Y0216715D02*
X0458113Y0216715D01*
X0458113Y0220349D01*
X0460409Y0220349D01*
X0460409Y0216715D01*
X0460409Y0218670D02*
X0458113Y0218670D01*
X0453361Y0220349D02*
X0451065Y0220349D01*
X0453361Y0220349D02*
X0453361Y0216715D01*
X0451065Y0216715D01*
X0451065Y0220349D01*
X0451065Y0218670D02*
X0453361Y0218670D01*
X0348204Y0130259D02*
X0345908Y0130259D01*
X0345908Y0133893D01*
X0348204Y0133893D01*
X0348204Y0130259D01*
X0348204Y0132214D02*
X0345908Y0132214D01*
X0341157Y0133893D02*
X0338861Y0133893D01*
X0341157Y0133893D02*
X0341157Y0130259D01*
X0338861Y0130259D01*
X0338861Y0133893D01*
X0338861Y0132214D02*
X0341157Y0132214D01*
X0130259Y0355002D02*
X0130259Y0357298D01*
X0133893Y0357298D01*
X0133893Y0355002D01*
X0130259Y0355002D01*
X0130259Y0356957D02*
X0133893Y0356957D01*
X0133893Y0362050D02*
X0133893Y0364346D01*
X0133893Y0362050D02*
X0130259Y0362050D01*
X0130259Y0364346D01*
X0133893Y0364346D01*
X0133893Y0364005D02*
X0130259Y0364005D01*
D13*
G36*
X0449245Y0541765D02*
X0452724Y0545244D01*
X0456899Y0541069D01*
X0453420Y0537590D01*
X0449245Y0541765D01*
G37*
G36*
X0463859Y0534109D02*
X0460380Y0530630D01*
X0456205Y0534805D01*
X0459684Y0538284D01*
X0463859Y0534109D01*
G37*
G36*
X0537434Y0450033D02*
X0540913Y0453512D01*
X0545088Y0449337D01*
X0541609Y0445858D01*
X0537434Y0450033D01*
G37*
G36*
X0552048Y0442377D02*
X0548569Y0438898D01*
X0544394Y0443073D01*
X0547873Y0446552D01*
X0552048Y0442377D01*
G37*
D14*
X0419359Y0227115D03*
D15*
X0419359Y0237115D03*
X0429359Y0237115D03*
X0429359Y0227115D03*
X0439359Y0227115D03*
X0439359Y0237115D03*
D16*
G36*
X0296865Y0383611D02*
X0292272Y0379018D01*
X0287679Y0383611D01*
X0292272Y0388204D01*
X0296865Y0383611D01*
G37*
G36*
X0222666Y0168204D02*
X0227259Y0163611D01*
X0222666Y0159018D01*
X0218073Y0163611D01*
X0222666Y0168204D01*
G37*
D17*
X0215595Y0170682D03*
X0208524Y0177753D03*
X0201453Y0184824D03*
X0194382Y0191895D03*
X0187311Y0198966D03*
X0180240Y0206037D03*
X0173169Y0213108D03*
X0166098Y0220180D03*
X0159027Y0227251D03*
X0299344Y0390682D03*
D18*
X0501014Y0194478D03*
X0493943Y0187407D03*
X0486871Y0180336D03*
X0479800Y0173265D03*
X0472729Y0166194D03*
X0465658Y0159123D03*
X0512469Y0204556D03*
X0519540Y0211627D03*
X0526611Y0218698D03*
X0533682Y0225769D03*
X0540754Y0232840D03*
X0547825Y0239911D03*
D19*
X0460403Y0224398D02*
X0458591Y0224398D01*
X0458591Y0228020D01*
X0460403Y0228020D01*
X0460403Y0224398D01*
X0460403Y0226208D02*
X0458591Y0226208D01*
X0458591Y0228018D02*
X0460403Y0228018D01*
X0452883Y0228020D02*
X0451071Y0228020D01*
X0452883Y0228020D02*
X0452883Y0224398D01*
X0451071Y0224398D01*
X0451071Y0228020D01*
X0451071Y0226208D02*
X0452883Y0226208D01*
X0452883Y0228018D02*
X0451071Y0228018D01*
X0360737Y0140088D02*
X0360737Y0138276D01*
X0357115Y0138276D01*
X0357115Y0140088D01*
X0360737Y0140088D01*
X0360737Y0140086D02*
X0357115Y0140086D01*
X0357115Y0132568D02*
X0357115Y0130756D01*
X0357115Y0132568D02*
X0360737Y0132568D01*
X0360737Y0130756D01*
X0357115Y0130756D01*
X0357115Y0132566D02*
X0360737Y0132566D01*
X0348198Y0119438D02*
X0346386Y0119438D01*
X0346386Y0123060D01*
X0348198Y0123060D01*
X0348198Y0119438D01*
X0348198Y0121248D02*
X0346386Y0121248D01*
X0346386Y0123058D02*
X0348198Y0123058D01*
X0340678Y0123060D02*
X0338866Y0123060D01*
X0340678Y0123060D02*
X0340678Y0119438D01*
X0338866Y0119438D01*
X0338866Y0123060D01*
X0338866Y0121248D02*
X0340678Y0121248D01*
X0340678Y0123058D02*
X0338866Y0123058D01*
X0329497Y0320895D02*
X0327685Y0320895D01*
X0327685Y0324517D01*
X0329497Y0324517D01*
X0329497Y0320895D01*
X0329497Y0322705D02*
X0327685Y0322705D01*
X0327685Y0324515D02*
X0329497Y0324515D01*
X0321978Y0324517D02*
X0320166Y0324517D01*
X0321978Y0324517D02*
X0321978Y0320895D01*
X0320166Y0320895D01*
X0320166Y0324517D01*
X0320166Y0322705D02*
X0321978Y0322705D01*
X0321978Y0324515D02*
X0320166Y0324515D01*
X0320008Y0329674D02*
X0321820Y0329674D01*
X0320008Y0329674D02*
X0320008Y0333296D01*
X0321820Y0333296D01*
X0321820Y0329674D01*
X0321820Y0331484D02*
X0320008Y0331484D01*
X0320008Y0333294D02*
X0321820Y0333294D01*
X0314300Y0333296D02*
X0312488Y0333296D01*
X0314300Y0333296D02*
X0314300Y0329674D01*
X0312488Y0329674D01*
X0312488Y0333296D01*
X0312488Y0331484D02*
X0314300Y0331484D01*
X0314300Y0333294D02*
X0312488Y0333294D01*
X0140954Y0345265D02*
X0139142Y0345265D01*
X0139142Y0348887D01*
X0140954Y0348887D01*
X0140954Y0345265D01*
X0140954Y0347075D02*
X0139142Y0347075D01*
X0139142Y0348885D02*
X0140954Y0348885D01*
X0133434Y0348887D02*
X0131622Y0348887D01*
X0133434Y0348887D02*
X0133434Y0345265D01*
X0131622Y0345265D01*
X0131622Y0348887D01*
X0131622Y0347075D02*
X0133434Y0347075D01*
X0133434Y0348885D02*
X0131622Y0348885D01*
X0112942Y0356465D02*
X0112942Y0358277D01*
X0116564Y0358277D01*
X0116564Y0356465D01*
X0112942Y0356465D01*
X0112942Y0358275D02*
X0116564Y0358275D01*
X0116564Y0363985D02*
X0116564Y0365797D01*
X0116564Y0363985D02*
X0112942Y0363985D01*
X0112942Y0365797D01*
X0116564Y0365797D01*
X0116564Y0365795D02*
X0112942Y0365795D01*
X0343887Y0561307D02*
X0343887Y0563119D01*
X0347509Y0563119D01*
X0347509Y0561307D01*
X0343887Y0561307D01*
X0343887Y0563117D02*
X0347509Y0563117D01*
X0347509Y0568827D02*
X0347509Y0570639D01*
X0347509Y0568827D02*
X0343887Y0568827D01*
X0343887Y0570639D01*
X0347509Y0570639D01*
X0347509Y0570637D02*
X0343887Y0570637D01*
X0355126Y0590855D02*
X0356938Y0590855D01*
X0356938Y0587233D01*
X0355126Y0587233D01*
X0355126Y0590855D01*
X0355126Y0589043D02*
X0356938Y0589043D01*
X0356938Y0590853D02*
X0355126Y0590853D01*
X0362646Y0587233D02*
X0364458Y0587233D01*
X0362646Y0587233D02*
X0362646Y0590855D01*
X0364458Y0590855D01*
X0364458Y0587233D01*
X0364458Y0589043D02*
X0362646Y0589043D01*
X0362646Y0590853D02*
X0364458Y0590853D01*
X0433355Y0553217D02*
X0435167Y0553217D01*
X0435167Y0549595D01*
X0433355Y0549595D01*
X0433355Y0553217D01*
X0433355Y0551405D02*
X0435167Y0551405D01*
X0435167Y0553215D02*
X0433355Y0553215D01*
X0440874Y0549595D02*
X0442686Y0549595D01*
X0440874Y0549595D02*
X0440874Y0553217D01*
X0442686Y0553217D01*
X0442686Y0549595D01*
X0442686Y0551405D02*
X0440874Y0551405D01*
X0440874Y0553215D02*
X0442686Y0553215D01*
X0542410Y0420146D02*
X0544222Y0420146D01*
X0544222Y0416524D01*
X0542410Y0416524D01*
X0542410Y0420146D01*
X0542410Y0418334D02*
X0544222Y0418334D01*
X0544222Y0420144D02*
X0542410Y0420144D01*
X0549929Y0416524D02*
X0551741Y0416524D01*
X0549929Y0416524D02*
X0549929Y0420146D01*
X0551741Y0420146D01*
X0551741Y0416524D01*
X0551741Y0418334D02*
X0549929Y0418334D01*
X0549929Y0420144D02*
X0551741Y0420144D01*
X0558512Y0360737D02*
X0560324Y0360737D01*
X0560324Y0357115D01*
X0558512Y0357115D01*
X0558512Y0360737D01*
X0558512Y0358925D02*
X0560324Y0358925D01*
X0560324Y0360735D02*
X0558512Y0360735D01*
X0566032Y0357115D02*
X0567844Y0357115D01*
X0566032Y0357115D02*
X0566032Y0360737D01*
X0567844Y0360737D01*
X0567844Y0357115D01*
X0567844Y0358925D02*
X0566032Y0358925D01*
X0566032Y0360735D02*
X0567844Y0360735D01*
X0586682Y0351112D02*
X0586682Y0349300D01*
X0583060Y0349300D01*
X0583060Y0351112D01*
X0586682Y0351112D01*
X0586682Y0351110D02*
X0583060Y0351110D01*
X0583060Y0343592D02*
X0583060Y0341780D01*
X0583060Y0343592D02*
X0586682Y0343592D01*
X0586682Y0341780D01*
X0583060Y0341780D01*
X0583060Y0343590D02*
X0586682Y0343590D01*
D20*
X0265186Y0373060D03*
X0265186Y0376800D03*
X0265186Y0380540D03*
X0254950Y0380540D03*
X0254950Y0373060D03*
D21*
G36*
X0345302Y0351234D02*
X0344746Y0350678D01*
X0340990Y0354434D01*
X0341546Y0354990D01*
X0345302Y0351234D01*
G37*
G36*
X0346499Y0352431D02*
X0345943Y0351875D01*
X0342187Y0355631D01*
X0342743Y0356187D01*
X0346499Y0352431D01*
G37*
G36*
X0347696Y0353628D02*
X0347140Y0353072D01*
X0343384Y0356828D01*
X0343940Y0357384D01*
X0347696Y0353628D01*
G37*
G36*
X0348893Y0354825D02*
X0348337Y0354269D01*
X0344581Y0358025D01*
X0345137Y0358581D01*
X0348893Y0354825D01*
G37*
G36*
X0350090Y0356022D02*
X0349534Y0355466D01*
X0345778Y0359222D01*
X0346334Y0359778D01*
X0350090Y0356022D01*
G37*
G36*
X0351287Y0357219D02*
X0350731Y0356663D01*
X0346975Y0360419D01*
X0347531Y0360975D01*
X0351287Y0357219D01*
G37*
G36*
X0352484Y0358416D02*
X0351928Y0357860D01*
X0348172Y0361616D01*
X0348728Y0362172D01*
X0352484Y0358416D01*
G37*
G36*
X0353682Y0359613D02*
X0353126Y0359057D01*
X0349370Y0362813D01*
X0349926Y0363369D01*
X0353682Y0359613D01*
G37*
G36*
X0363397Y0349953D02*
X0362841Y0349397D01*
X0359085Y0353153D01*
X0359641Y0353709D01*
X0363397Y0349953D01*
G37*
G36*
X0362200Y0348756D02*
X0361644Y0348200D01*
X0357888Y0351956D01*
X0358444Y0352512D01*
X0362200Y0348756D01*
G37*
G36*
X0361003Y0347559D02*
X0360447Y0347003D01*
X0356691Y0350759D01*
X0357247Y0351315D01*
X0361003Y0347559D01*
G37*
G36*
X0359806Y0346362D02*
X0359250Y0345806D01*
X0355494Y0349562D01*
X0356050Y0350118D01*
X0359806Y0346362D01*
G37*
G36*
X0358609Y0345165D02*
X0358053Y0344609D01*
X0354297Y0348365D01*
X0354853Y0348921D01*
X0358609Y0345165D01*
G37*
G36*
X0357412Y0343968D02*
X0356856Y0343412D01*
X0353100Y0347168D01*
X0353656Y0347724D01*
X0357412Y0343968D01*
G37*
G36*
X0356215Y0342771D02*
X0355659Y0342215D01*
X0351903Y0345971D01*
X0352459Y0346527D01*
X0356215Y0342771D01*
G37*
G36*
X0355018Y0341574D02*
X0354462Y0341018D01*
X0350706Y0344774D01*
X0351262Y0345330D01*
X0355018Y0341574D01*
G37*
D22*
G36*
X0350619Y0346444D02*
X0346863Y0342688D01*
X0346307Y0343244D01*
X0350063Y0347000D01*
X0350619Y0346444D01*
G37*
G36*
X0349422Y0347641D02*
X0345666Y0343885D01*
X0345110Y0344441D01*
X0348866Y0348197D01*
X0349422Y0347641D01*
G37*
G36*
X0348225Y0348838D02*
X0344469Y0345082D01*
X0343913Y0345638D01*
X0347669Y0349394D01*
X0348225Y0348838D01*
G37*
G36*
X0347028Y0350035D02*
X0343272Y0346279D01*
X0342716Y0346835D01*
X0346472Y0350591D01*
X0347028Y0350035D01*
G37*
G36*
X0359249Y0359918D02*
X0355493Y0356162D01*
X0354937Y0356718D01*
X0358693Y0360474D01*
X0359249Y0359918D01*
G37*
G36*
X0360446Y0358721D02*
X0356690Y0354965D01*
X0356134Y0355521D01*
X0359890Y0359277D01*
X0360446Y0358721D01*
G37*
G36*
X0361643Y0357524D02*
X0357887Y0353768D01*
X0357331Y0354324D01*
X0361087Y0358080D01*
X0361643Y0357524D01*
G37*
G36*
X0358052Y0361115D02*
X0354296Y0357359D01*
X0353740Y0357915D01*
X0357496Y0361671D01*
X0358052Y0361115D01*
G37*
D23*
X0359674Y0638020D03*
X0347863Y0638020D03*
X0067942Y0357312D03*
X0067942Y0345501D03*
X0345894Y0067548D03*
X0357706Y0067548D03*
X0637233Y0346682D03*
X0637233Y0358493D03*
D24*
X0607765Y0346564D03*
X0096111Y0360855D03*
D25*
X0104083Y0357115D03*
X0104083Y0364595D03*
X0599792Y0350304D03*
X0599792Y0342824D03*
D26*
X0343532Y0101898D03*
X0359871Y0608394D03*
D27*
X0363611Y0600422D03*
X0356131Y0600422D03*
X0347272Y0109871D03*
X0339792Y0109871D03*
D28*
G36*
X0310868Y0381314D02*
X0308085Y0378531D01*
X0305302Y0381314D01*
X0308085Y0384097D01*
X0310868Y0381314D01*
G37*
G36*
X0313652Y0384097D02*
X0310869Y0381314D01*
X0308086Y0384097D01*
X0310869Y0386880D01*
X0313652Y0384097D01*
G37*
D29*
G36*
X0216352Y0498289D02*
X0213524Y0501117D01*
X0220594Y0508187D01*
X0223422Y0505359D01*
X0216352Y0498289D01*
G37*
G36*
X0197967Y0516673D02*
X0195139Y0519501D01*
X0202209Y0526571D01*
X0205037Y0523743D01*
X0197967Y0516673D01*
G37*
D30*
G36*
X0309879Y0474522D02*
X0315167Y0469234D01*
X0312105Y0466172D01*
X0306817Y0471460D01*
X0309879Y0474522D01*
G37*
G36*
X0316282Y0480925D02*
X0321570Y0475637D01*
X0318508Y0472575D01*
X0313220Y0477863D01*
X0316282Y0480925D01*
G37*
G36*
X0326582Y0470625D02*
X0331870Y0465337D01*
X0328808Y0462275D01*
X0323520Y0467563D01*
X0326582Y0470625D01*
G37*
G36*
X0320179Y0464222D02*
X0325467Y0458934D01*
X0322405Y0455872D01*
X0317117Y0461160D01*
X0320179Y0464222D01*
G37*
D31*
X0335122Y0593468D02*
X0335122Y0600840D01*
X0342730Y0600840D01*
X0342730Y0593468D01*
X0335122Y0593468D01*
X0335122Y0595426D02*
X0342730Y0595426D01*
X0342730Y0597384D02*
X0335122Y0597384D01*
X0335122Y0599342D02*
X0342730Y0599342D01*
X0342730Y0618035D02*
X0342730Y0625407D01*
X0342730Y0618035D02*
X0335122Y0618035D01*
X0335122Y0625407D01*
X0342730Y0625407D01*
X0342730Y0619993D02*
X0335122Y0619993D01*
X0335122Y0621951D02*
X0342730Y0621951D01*
X0342730Y0623909D02*
X0335122Y0623909D01*
X0593035Y0370250D02*
X0600407Y0370250D01*
X0600407Y0362642D01*
X0593035Y0362642D01*
X0593035Y0370250D01*
X0593035Y0364600D02*
X0600407Y0364600D01*
X0600407Y0366558D02*
X0593035Y0366558D01*
X0593035Y0368516D02*
X0600407Y0368516D01*
X0617602Y0362642D02*
X0624974Y0362642D01*
X0617602Y0362642D02*
X0617602Y0370250D01*
X0624974Y0370250D01*
X0624974Y0362642D01*
X0624974Y0364600D02*
X0617602Y0364600D01*
X0617602Y0366558D02*
X0624974Y0366558D01*
X0624974Y0368516D02*
X0617602Y0368516D01*
X0370092Y0113793D02*
X0370092Y0106421D01*
X0362484Y0106421D01*
X0362484Y0113793D01*
X0370092Y0113793D01*
X0370092Y0108379D02*
X0362484Y0108379D01*
X0362484Y0110337D02*
X0370092Y0110337D01*
X0370092Y0112295D02*
X0362484Y0112295D01*
X0362484Y0089226D02*
X0362484Y0081854D01*
X0362484Y0089226D02*
X0370092Y0089226D01*
X0370092Y0081854D01*
X0362484Y0081854D01*
X0362484Y0083812D02*
X0370092Y0083812D01*
X0370092Y0085770D02*
X0362484Y0085770D01*
X0362484Y0087728D02*
X0370092Y0087728D01*
X0112415Y0334965D02*
X0105043Y0334965D01*
X0105043Y0342573D01*
X0112415Y0342573D01*
X0112415Y0334965D01*
X0112415Y0336923D02*
X0105043Y0336923D01*
X0105043Y0338881D02*
X0112415Y0338881D01*
X0112415Y0340839D02*
X0105043Y0340839D01*
X0087848Y0342573D02*
X0080476Y0342573D01*
X0087848Y0342573D02*
X0087848Y0334965D01*
X0080476Y0334965D01*
X0080476Y0342573D01*
X0080476Y0336923D02*
X0087848Y0336923D01*
X0087848Y0338881D02*
X0080476Y0338881D01*
X0080476Y0340839D02*
X0087848Y0340839D01*
D32*
G36*
X0263415Y0435860D02*
X0264194Y0435081D01*
X0259847Y0430734D01*
X0259068Y0431513D01*
X0263415Y0435860D01*
G37*
G36*
X0264806Y0434468D02*
X0265585Y0433689D01*
X0261238Y0429342D01*
X0260459Y0430121D01*
X0264806Y0434468D01*
G37*
G36*
X0266198Y0433076D02*
X0266977Y0432297D01*
X0262630Y0427950D01*
X0261851Y0428729D01*
X0266198Y0433076D01*
G37*
G36*
X0267590Y0431684D02*
X0268369Y0430905D01*
X0264022Y0426558D01*
X0263243Y0427337D01*
X0267590Y0431684D01*
G37*
G36*
X0268982Y0430292D02*
X0269761Y0429513D01*
X0265414Y0425166D01*
X0264635Y0425945D01*
X0268982Y0430292D01*
G37*
G36*
X0270374Y0428900D02*
X0271153Y0428121D01*
X0266806Y0423774D01*
X0266027Y0424553D01*
X0270374Y0428900D01*
G37*
G36*
X0271766Y0427508D02*
X0272545Y0426729D01*
X0268198Y0422382D01*
X0267419Y0423161D01*
X0271766Y0427508D01*
G37*
G36*
X0273158Y0426116D02*
X0273937Y0425337D01*
X0269590Y0420990D01*
X0268811Y0421769D01*
X0273158Y0426116D01*
G37*
G36*
X0274550Y0424725D02*
X0275329Y0423946D01*
X0270982Y0419599D01*
X0270203Y0420378D01*
X0274550Y0424725D01*
G37*
G36*
X0275942Y0423333D02*
X0276721Y0422554D01*
X0272374Y0418207D01*
X0271595Y0418986D01*
X0275942Y0423333D01*
G37*
G36*
X0277334Y0421941D02*
X0278113Y0421162D01*
X0273766Y0416815D01*
X0272987Y0417594D01*
X0277334Y0421941D01*
G37*
G36*
X0278726Y0420549D02*
X0279505Y0419770D01*
X0275158Y0415423D01*
X0274379Y0416202D01*
X0278726Y0420549D01*
G37*
G36*
X0276550Y0414031D02*
X0275771Y0414810D01*
X0280118Y0419157D01*
X0280897Y0418378D01*
X0276550Y0414031D01*
G37*
G36*
X0277942Y0412639D02*
X0277163Y0413418D01*
X0281510Y0417765D01*
X0282289Y0416986D01*
X0277942Y0412639D01*
G37*
G36*
X0279334Y0411247D02*
X0278555Y0412026D01*
X0282902Y0416373D01*
X0283681Y0415594D01*
X0279334Y0411247D01*
G37*
G36*
X0280726Y0409855D02*
X0279947Y0410634D01*
X0284294Y0414981D01*
X0285073Y0414202D01*
X0280726Y0409855D01*
G37*
G36*
X0291370Y0410634D02*
X0290591Y0409855D01*
X0286244Y0414202D01*
X0287023Y0414981D01*
X0291370Y0410634D01*
G37*
G36*
X0292762Y0412026D02*
X0291983Y0411247D01*
X0287636Y0415594D01*
X0288415Y0416373D01*
X0292762Y0412026D01*
G37*
G36*
X0294154Y0413418D02*
X0293375Y0412639D01*
X0289028Y0416986D01*
X0289807Y0417765D01*
X0294154Y0413418D01*
G37*
G36*
X0295546Y0414810D02*
X0294767Y0414031D01*
X0290420Y0418378D01*
X0291199Y0419157D01*
X0295546Y0414810D01*
G37*
G36*
X0296938Y0416202D02*
X0296159Y0415423D01*
X0291812Y0419770D01*
X0292591Y0420549D01*
X0296938Y0416202D01*
G37*
G36*
X0298330Y0417594D02*
X0297551Y0416815D01*
X0293204Y0421162D01*
X0293983Y0421941D01*
X0298330Y0417594D01*
G37*
G36*
X0299721Y0418986D02*
X0298942Y0418207D01*
X0294595Y0422554D01*
X0295374Y0423333D01*
X0299721Y0418986D01*
G37*
G36*
X0301113Y0420378D02*
X0300334Y0419599D01*
X0295987Y0423946D01*
X0296766Y0424725D01*
X0301113Y0420378D01*
G37*
G36*
X0302505Y0421769D02*
X0301726Y0420990D01*
X0297379Y0425337D01*
X0298158Y0426116D01*
X0302505Y0421769D01*
G37*
G36*
X0303897Y0423161D02*
X0303118Y0422382D01*
X0298771Y0426729D01*
X0299550Y0427508D01*
X0303897Y0423161D01*
G37*
G36*
X0305289Y0424553D02*
X0304510Y0423774D01*
X0300163Y0428121D01*
X0300942Y0428900D01*
X0305289Y0424553D01*
G37*
G36*
X0306681Y0425945D02*
X0305902Y0425166D01*
X0301555Y0429513D01*
X0302334Y0430292D01*
X0306681Y0425945D01*
G37*
G36*
X0308073Y0427337D02*
X0307294Y0426558D01*
X0302947Y0430905D01*
X0303726Y0431684D01*
X0308073Y0427337D01*
G37*
G36*
X0309465Y0428729D02*
X0308686Y0427950D01*
X0304339Y0432297D01*
X0305118Y0433076D01*
X0309465Y0428729D01*
G37*
G36*
X0310857Y0430121D02*
X0310078Y0429342D01*
X0305731Y0433689D01*
X0306510Y0434468D01*
X0310857Y0430121D01*
G37*
G36*
X0312249Y0431513D02*
X0311470Y0430734D01*
X0307123Y0435081D01*
X0307902Y0435860D01*
X0312249Y0431513D01*
G37*
G36*
X0307902Y0437031D02*
X0307123Y0437810D01*
X0311470Y0442157D01*
X0312249Y0441378D01*
X0307902Y0437031D01*
G37*
G36*
X0306510Y0438423D02*
X0305731Y0439202D01*
X0310078Y0443549D01*
X0310857Y0442770D01*
X0306510Y0438423D01*
G37*
G36*
X0305118Y0439815D02*
X0304339Y0440594D01*
X0308686Y0444941D01*
X0309465Y0444162D01*
X0305118Y0439815D01*
G37*
G36*
X0303726Y0441207D02*
X0302947Y0441986D01*
X0307294Y0446333D01*
X0308073Y0445554D01*
X0303726Y0441207D01*
G37*
G36*
X0302334Y0442599D02*
X0301555Y0443378D01*
X0305902Y0447725D01*
X0306681Y0446946D01*
X0302334Y0442599D01*
G37*
G36*
X0300942Y0443991D02*
X0300163Y0444770D01*
X0304510Y0449117D01*
X0305289Y0448338D01*
X0300942Y0443991D01*
G37*
G36*
X0299550Y0445383D02*
X0298771Y0446162D01*
X0303118Y0450509D01*
X0303897Y0449730D01*
X0299550Y0445383D01*
G37*
G36*
X0298158Y0446775D02*
X0297379Y0447554D01*
X0301726Y0451901D01*
X0302505Y0451122D01*
X0298158Y0446775D01*
G37*
G36*
X0296766Y0448167D02*
X0295987Y0448946D01*
X0300334Y0453293D01*
X0301113Y0452514D01*
X0296766Y0448167D01*
G37*
G36*
X0295374Y0449559D02*
X0294595Y0450338D01*
X0298942Y0454685D01*
X0299721Y0453906D01*
X0295374Y0449559D01*
G37*
G36*
X0293983Y0450951D02*
X0293204Y0451730D01*
X0297551Y0456077D01*
X0298330Y0455298D01*
X0293983Y0450951D01*
G37*
G36*
X0292591Y0452343D02*
X0291812Y0453122D01*
X0296159Y0457469D01*
X0296938Y0456690D01*
X0292591Y0452343D01*
G37*
G36*
X0291199Y0453735D02*
X0290420Y0454514D01*
X0294767Y0458861D01*
X0295546Y0458082D01*
X0291199Y0453735D01*
G37*
G36*
X0289807Y0455126D02*
X0289028Y0455905D01*
X0293375Y0460252D01*
X0294154Y0459473D01*
X0289807Y0455126D01*
G37*
G36*
X0288415Y0456518D02*
X0287636Y0457297D01*
X0291983Y0461644D01*
X0292762Y0460865D01*
X0288415Y0456518D01*
G37*
G36*
X0287023Y0457910D02*
X0286244Y0458689D01*
X0290591Y0463036D01*
X0291370Y0462257D01*
X0287023Y0457910D01*
G37*
G36*
X0279947Y0462257D02*
X0280726Y0463036D01*
X0285073Y0458689D01*
X0284294Y0457910D01*
X0279947Y0462257D01*
G37*
G36*
X0278555Y0460865D02*
X0279334Y0461644D01*
X0283681Y0457297D01*
X0282902Y0456518D01*
X0278555Y0460865D01*
G37*
G36*
X0277163Y0459473D02*
X0277942Y0460252D01*
X0282289Y0455905D01*
X0281510Y0455126D01*
X0277163Y0459473D01*
G37*
G36*
X0275771Y0458082D02*
X0276550Y0458861D01*
X0280897Y0454514D01*
X0280118Y0453735D01*
X0275771Y0458082D01*
G37*
G36*
X0274379Y0456690D02*
X0275158Y0457469D01*
X0279505Y0453122D01*
X0278726Y0452343D01*
X0274379Y0456690D01*
G37*
G36*
X0272987Y0455298D02*
X0273766Y0456077D01*
X0278113Y0451730D01*
X0277334Y0450951D01*
X0272987Y0455298D01*
G37*
G36*
X0271595Y0453906D02*
X0272374Y0454685D01*
X0276721Y0450338D01*
X0275942Y0449559D01*
X0271595Y0453906D01*
G37*
G36*
X0270203Y0452514D02*
X0270982Y0453293D01*
X0275329Y0448946D01*
X0274550Y0448167D01*
X0270203Y0452514D01*
G37*
G36*
X0268811Y0451122D02*
X0269590Y0451901D01*
X0273937Y0447554D01*
X0273158Y0446775D01*
X0268811Y0451122D01*
G37*
G36*
X0267419Y0449730D02*
X0268198Y0450509D01*
X0272545Y0446162D01*
X0271766Y0445383D01*
X0267419Y0449730D01*
G37*
G36*
X0266027Y0448338D02*
X0266806Y0449117D01*
X0271153Y0444770D01*
X0270374Y0443991D01*
X0266027Y0448338D01*
G37*
G36*
X0264635Y0446946D02*
X0265414Y0447725D01*
X0269761Y0443378D01*
X0268982Y0442599D01*
X0264635Y0446946D01*
G37*
G36*
X0263243Y0445554D02*
X0264022Y0446333D01*
X0268369Y0441986D01*
X0267590Y0441207D01*
X0263243Y0445554D01*
G37*
G36*
X0261851Y0444162D02*
X0262630Y0444941D01*
X0266977Y0440594D01*
X0266198Y0439815D01*
X0261851Y0444162D01*
G37*
G36*
X0265585Y0439202D02*
X0264806Y0438423D01*
X0260459Y0442770D01*
X0261238Y0443549D01*
X0265585Y0439202D01*
G37*
G36*
X0264194Y0437810D02*
X0263415Y0437031D01*
X0259068Y0441378D01*
X0259847Y0442157D01*
X0264194Y0437810D01*
G37*
D33*
G36*
X0390329Y0293555D02*
X0394226Y0297452D01*
X0400071Y0291607D01*
X0396174Y0287710D01*
X0390329Y0293555D01*
G37*
G36*
X0377802Y0281027D02*
X0381699Y0284924D01*
X0387544Y0279079D01*
X0383647Y0275182D01*
X0377802Y0281027D01*
G37*
G36*
X0403135Y0255694D02*
X0407032Y0259591D01*
X0412877Y0253746D01*
X0408980Y0249849D01*
X0403135Y0255694D01*
G37*
G36*
X0415663Y0268221D02*
X0419560Y0272118D01*
X0425405Y0266273D01*
X0421508Y0262376D01*
X0415663Y0268221D01*
G37*
D34*
X0352548Y0083492D02*
X0349202Y0083492D01*
X0349202Y0085068D01*
X0352548Y0085068D01*
X0352548Y0083492D01*
X0352548Y0085066D02*
X0349202Y0085066D01*
X0339438Y0085068D02*
X0336092Y0085068D01*
X0339438Y0085068D02*
X0339438Y0083492D01*
X0336092Y0083492D01*
X0336092Y0085068D01*
X0336092Y0085066D02*
X0339438Y0085066D01*
X0082705Y0352036D02*
X0082705Y0355382D01*
X0084281Y0355382D01*
X0084281Y0352036D01*
X0082705Y0352036D01*
X0082705Y0353610D02*
X0084281Y0353610D01*
X0084281Y0355184D02*
X0082705Y0355184D01*
X0084281Y0365147D02*
X0084281Y0368493D01*
X0084281Y0365147D02*
X0082705Y0365147D01*
X0082705Y0368493D01*
X0084281Y0368493D01*
X0084281Y0366721D02*
X0082705Y0366721D01*
X0082705Y0368295D02*
X0084281Y0368295D01*
X0353021Y0623651D02*
X0356367Y0623651D01*
X0356367Y0622075D01*
X0353021Y0622075D01*
X0353021Y0623651D01*
X0353021Y0623649D02*
X0356367Y0623649D01*
X0366131Y0622075D02*
X0369477Y0622075D01*
X0366131Y0622075D02*
X0366131Y0623651D01*
X0369477Y0623651D01*
X0369477Y0622075D01*
X0369477Y0623649D02*
X0366131Y0623649D01*
X0623257Y0353532D02*
X0623257Y0350186D01*
X0621681Y0350186D01*
X0621681Y0353532D01*
X0623257Y0353532D01*
X0623257Y0351760D02*
X0621681Y0351760D01*
X0621681Y0353334D02*
X0623257Y0353334D01*
X0621681Y0340422D02*
X0621681Y0337076D01*
X0621681Y0340422D02*
X0623257Y0340422D01*
X0623257Y0337076D01*
X0621681Y0337076D01*
X0621681Y0338650D02*
X0623257Y0338650D01*
X0623257Y0340224D02*
X0621681Y0340224D01*
D35*
X0261249Y0497863D02*
X0260068Y0496682D01*
X0260068Y0494320D01*
X0247076Y0481328D01*
X0239595Y0489595D01*
X0242351Y0491957D01*
X0243139Y0491957D01*
X0234477Y0500619D01*
X0234477Y0504556D01*
X0226997Y0512036D01*
X0226701Y0512036D01*
X0226311Y0512426D01*
X0225422Y0513611D01*
X0241367Y0529359D01*
X0245501Y0525816D01*
X0251800Y0519517D01*
X0252587Y0519517D01*
X0259280Y0512824D01*
X0260068Y0512824D01*
X0264792Y0508099D01*
X0264792Y0506524D01*
X0262824Y0504556D01*
X0262824Y0502194D01*
X0261249Y0500619D01*
X0261249Y0497863D01*
X0261044Y0497658D02*
X0237438Y0497658D01*
X0239036Y0496060D02*
X0260068Y0496060D01*
X0260068Y0494461D02*
X0240635Y0494461D01*
X0242233Y0492863D02*
X0258611Y0492863D01*
X0257012Y0491264D02*
X0241542Y0491264D01*
X0239677Y0489666D02*
X0255414Y0489666D01*
X0253815Y0488067D02*
X0240978Y0488067D01*
X0242424Y0486469D02*
X0252217Y0486469D01*
X0250618Y0484870D02*
X0243870Y0484870D01*
X0245317Y0483272D02*
X0249020Y0483272D01*
X0247421Y0481673D02*
X0246763Y0481673D01*
X0239989Y0475028D02*
X0220698Y0460461D01*
X0205737Y0457706D01*
X0187824Y0477194D01*
X0187824Y0478375D01*
X0193532Y0483296D01*
X0201997Y0490776D01*
X0207462Y0496632D01*
X0207584Y0496509D01*
X0208861Y0493590D01*
X0208861Y0493511D01*
X0203769Y0489202D01*
X0203572Y0484871D01*
X0216170Y0473060D01*
X0220304Y0473060D01*
X0231328Y0482509D01*
X0239989Y0475028D01*
X0239699Y0475279D02*
X0222893Y0475279D01*
X0221028Y0473681D02*
X0238204Y0473681D01*
X0236087Y0472082D02*
X0192522Y0472082D01*
X0191053Y0473681D02*
X0215508Y0473681D01*
X0213803Y0475279D02*
X0189584Y0475279D01*
X0188114Y0476878D02*
X0212098Y0476878D01*
X0210393Y0478476D02*
X0187941Y0478476D01*
X0189795Y0480075D02*
X0208688Y0480075D01*
X0206983Y0481673D02*
X0191650Y0481673D01*
X0193504Y0483272D02*
X0205277Y0483272D01*
X0203572Y0484870D02*
X0195313Y0484870D01*
X0197122Y0486469D02*
X0203644Y0486469D01*
X0203717Y0488067D02*
X0198931Y0488067D01*
X0200740Y0489666D02*
X0204317Y0489666D01*
X0202452Y0491264D02*
X0206206Y0491264D01*
X0208095Y0492863D02*
X0203944Y0492863D01*
X0205436Y0494461D02*
X0208480Y0494461D01*
X0207781Y0496060D02*
X0206928Y0496060D01*
X0226692Y0512045D02*
X0260847Y0512045D01*
X0262445Y0510446D02*
X0228587Y0510446D01*
X0230185Y0508848D02*
X0264044Y0508848D01*
X0264792Y0507249D02*
X0231784Y0507249D01*
X0233382Y0505651D02*
X0263919Y0505651D01*
X0262824Y0504052D02*
X0234477Y0504052D01*
X0234477Y0502454D02*
X0262824Y0502454D01*
X0261485Y0500855D02*
X0234477Y0500855D01*
X0235839Y0499257D02*
X0261249Y0499257D01*
X0258461Y0513643D02*
X0225455Y0513643D01*
X0227073Y0515242D02*
X0256862Y0515242D01*
X0255264Y0516840D02*
X0228692Y0516840D01*
X0230310Y0518439D02*
X0253665Y0518439D01*
X0251279Y0520037D02*
X0231929Y0520037D01*
X0233547Y0521636D02*
X0249681Y0521636D01*
X0248082Y0523234D02*
X0235166Y0523234D01*
X0236784Y0524833D02*
X0246484Y0524833D01*
X0244782Y0526431D02*
X0238403Y0526431D01*
X0240021Y0528030D02*
X0242918Y0528030D01*
X0232295Y0481673D02*
X0230353Y0481673D01*
X0228488Y0480075D02*
X0234146Y0480075D01*
X0235997Y0478476D02*
X0226623Y0478476D01*
X0224758Y0476878D02*
X0237848Y0476878D01*
X0233970Y0470484D02*
X0193992Y0470484D01*
X0195461Y0468885D02*
X0231853Y0468885D01*
X0229736Y0467287D02*
X0196930Y0467287D01*
X0198400Y0465688D02*
X0227619Y0465688D01*
X0225502Y0464089D02*
X0199869Y0464089D01*
X0201338Y0462491D02*
X0223385Y0462491D01*
X0221269Y0460892D02*
X0202808Y0460892D01*
X0204277Y0459294D02*
X0214360Y0459294D01*
D36*
X0200619Y0184871D02*
X0194713Y0184871D01*
X0154359Y0225225D01*
X0154359Y0313808D01*
X0140580Y0327587D01*
X0140580Y0329556D01*
X0209674Y0398650D01*
X0238285Y0417025D02*
X0239005Y0417154D01*
X0239005Y0423060D01*
X0241957Y0426013D01*
X0258887Y0426013D01*
X0258887Y0427769D01*
X0263023Y0431905D01*
X0262627Y0431918D01*
X0261643Y0432902D01*
X0261631Y0433297D01*
X0265806Y0429121D02*
X0262698Y0426013D01*
X0258887Y0426013D01*
X0261643Y0422076D02*
X0266564Y0426997D01*
X0267198Y0427729D01*
X0267548Y0427981D01*
X0268532Y0426997D01*
X0268590Y0426337D01*
X0269982Y0424945D02*
X0270501Y0425028D01*
X0274438Y0428965D01*
X0273454Y0423060D02*
X0272766Y0422162D01*
X0273454Y0423060D02*
X0280343Y0429950D01*
X0282312Y0426013D02*
X0289202Y0426013D01*
X0291170Y0427981D01*
X0291170Y0431918D01*
X0288217Y0434871D01*
X0288217Y0438808D01*
X0291170Y0441761D01*
X0296091Y0439595D02*
X0294123Y0448257D01*
X0292942Y0449438D01*
X0292942Y0450689D01*
X0295767Y0453514D01*
X0294473Y0454906D02*
X0294375Y0454906D01*
X0294473Y0454906D02*
X0298454Y0458887D01*
X0298454Y0472469D01*
X0304230Y0478245D01*
X0302981Y0483099D02*
X0308887Y0483099D01*
X0309213Y0483229D01*
X0309871Y0484083D01*
X0315776Y0484083D01*
X0304950Y0473257D01*
X0304950Y0459477D01*
X0298060Y0452587D01*
X0297159Y0452122D01*
X0298550Y0450730D02*
X0298958Y0450730D01*
X0301997Y0453769D01*
X0301997Y0454790D01*
X0314183Y0466976D01*
X0310992Y0470167D01*
X0310992Y0470347D01*
X0314183Y0466976D02*
X0322470Y0475264D01*
X0322470Y0475755D01*
X0326733Y0480017D01*
X0321682Y0484083D02*
X0321749Y0485000D01*
X0321682Y0484083D02*
X0315776Y0484083D01*
X0302981Y0483099D02*
X0297076Y0477194D01*
X0297076Y0460461D01*
X0293139Y0456524D01*
X0292983Y0456298D01*
X0292154Y0455540D01*
X0286249Y0449635D01*
X0276406Y0449635D01*
X0276505Y0449733D01*
X0274158Y0452080D01*
X0274158Y0452122D01*
X0272766Y0450730D02*
X0233908Y0489588D01*
X0233908Y0492257D01*
X0232098Y0494066D02*
X0232115Y0494910D01*
X0236150Y0498946D01*
X0232909Y0487803D02*
X0229453Y0487803D01*
X0227194Y0489005D02*
X0227644Y0489612D01*
X0227194Y0489005D02*
X0223257Y0485068D01*
X0222796Y0485394D01*
X0217812Y0480411D02*
X0217351Y0480146D01*
X0213414Y0476209D01*
X0213132Y0475908D01*
X0208057Y0480666D02*
X0208493Y0481131D01*
X0212430Y0485068D01*
X0212301Y0485923D01*
X0232909Y0487803D02*
X0271374Y0449338D01*
X0269982Y0447946D02*
X0269982Y0447791D01*
X0272863Y0444910D01*
X0276997Y0444910D01*
X0276800Y0445107D01*
X0276800Y0449438D01*
X0276505Y0449733D01*
X0269982Y0447946D02*
X0269517Y0447666D01*
X0268532Y0446682D01*
X0268590Y0446554D01*
X0267198Y0445162D02*
X0267548Y0444713D01*
X0287627Y0429753D01*
X0282312Y0426013D02*
X0276406Y0420107D01*
X0275550Y0419378D01*
X0274158Y0420770D02*
X0273454Y0420107D01*
X0271485Y0418139D01*
X0271485Y0415186D01*
X0287233Y0399438D01*
X0310855Y0399438D01*
X0319713Y0390580D01*
X0325619Y0390580D02*
X0325619Y0398454D01*
X0317745Y0406328D01*
X0314792Y0406328D01*
X0313808Y0405343D01*
X0283296Y0405343D01*
X0274438Y0414202D01*
X0274438Y0415186D01*
X0276406Y0417154D01*
X0276942Y0417986D01*
X0271374Y0423553D02*
X0270501Y0423060D01*
X0264595Y0417154D01*
X0239005Y0417154D01*
X0238285Y0417025D02*
X0239005Y0416170D01*
X0239005Y0377784D01*
X0237824Y0377371D01*
X0238611Y0377587D01*
X0245501Y0377587D01*
X0245894Y0377213D01*
X0245894Y0376800D01*
X0265186Y0376800D01*
X0254950Y0373060D02*
X0254753Y0372863D01*
X0248847Y0372863D01*
X0248847Y0371879D01*
X0248847Y0372863D02*
X0239989Y0372863D01*
X0238020Y0370894D01*
X0237824Y0370324D01*
X0249438Y0380540D02*
X0246485Y0383493D01*
X0245894Y0384261D01*
X0249438Y0380540D02*
X0254950Y0380540D01*
X0280343Y0370894D02*
X0316761Y0334477D01*
X0330540Y0348257D01*
X0344320Y0348257D01*
X0344872Y0348435D01*
X0346069Y0347238D02*
X0345304Y0346288D01*
X0337430Y0338414D01*
X0333493Y0338414D01*
X0328572Y0338414D01*
X0321682Y0331524D01*
X0320914Y0331485D01*
X0321682Y0330540D01*
X0321682Y0323650D01*
X0321072Y0322706D01*
X0328572Y0322666D02*
X0328591Y0322706D01*
X0329556Y0323650D01*
X0329556Y0328572D01*
X0346288Y0345304D01*
X0347266Y0346041D01*
X0348463Y0344844D02*
X0349241Y0345304D01*
X0353178Y0345304D01*
X0354059Y0344371D01*
X0354162Y0344320D01*
X0355146Y0345304D01*
X0355256Y0345568D01*
X0354162Y0344320D02*
X0353178Y0343335D01*
X0352862Y0343174D01*
X0353178Y0343335D02*
X0358099Y0343335D01*
X0459477Y0241957D01*
X0459477Y0226209D01*
X0459497Y0226209D01*
X0452587Y0226209D02*
X0452587Y0219320D01*
X0452213Y0218532D01*
X0459261Y0218532D02*
X0459477Y0218335D01*
X0497863Y0218335D01*
X0511643Y0204556D01*
X0512469Y0204556D01*
X0509674Y0194713D02*
X0501800Y0194713D01*
X0501014Y0194478D01*
X0509674Y0194713D02*
X0547076Y0232115D01*
X0547076Y0239005D01*
X0547825Y0239911D01*
X0452587Y0226209D02*
X0451977Y0226209D01*
X0444713Y0226209D01*
X0444713Y0239005D01*
X0429950Y0253769D01*
X0408296Y0253769D01*
X0408006Y0254720D01*
X0407312Y0254753D01*
X0382706Y0279359D01*
X0382673Y0280053D01*
X0381721Y0280343D01*
X0381721Y0307902D01*
X0349241Y0340383D01*
X0358099Y0343335D02*
X0364005Y0349241D01*
X0362036Y0351209D01*
X0361241Y0351553D01*
X0361052Y0352194D01*
X0364005Y0355146D01*
X0366957Y0358099D01*
X0366957Y0379753D01*
X0357115Y0389595D01*
X0355146Y0389595D01*
X0350225Y0384674D01*
X0350225Y0380737D01*
X0350158Y0380017D01*
X0350225Y0379753D01*
X0345304Y0374831D01*
X0344646Y0374505D01*
X0344320Y0373847D01*
X0344320Y0361052D01*
X0347272Y0358099D01*
X0347934Y0357622D01*
X0348257Y0358099D02*
X0349241Y0359083D01*
X0349131Y0358819D01*
X0348257Y0358099D02*
X0347272Y0358099D01*
X0346288Y0357115D02*
X0346737Y0356425D01*
X0346288Y0357115D02*
X0343335Y0360068D01*
X0339398Y0360068D01*
X0338414Y0356131D02*
X0337430Y0355146D01*
X0338414Y0356131D02*
X0342351Y0356131D01*
X0344320Y0354162D01*
X0344343Y0354031D01*
X0344320Y0354162D02*
X0345304Y0355146D01*
X0345540Y0355228D01*
X0343146Y0352834D02*
X0342351Y0353178D01*
X0340383Y0353178D01*
X0338414Y0351209D01*
X0336446Y0351209D01*
X0333493Y0354162D01*
X0333493Y0363020D01*
X0333622Y0363482D01*
X0334477Y0364005D01*
X0341367Y0364005D01*
X0344320Y0361052D01*
X0348257Y0362036D02*
X0348257Y0372863D01*
X0355146Y0379753D01*
X0355146Y0384674D01*
X0355670Y0385529D01*
X0350686Y0390512D02*
X0345107Y0396091D01*
X0344123Y0396091D01*
X0341367Y0401406D02*
X0315776Y0375816D01*
X0308887Y0377784D02*
X0317745Y0368926D01*
X0328572Y0368926D01*
X0328639Y0368465D01*
X0329556Y0368926D01*
X0334477Y0373847D01*
X0334151Y0373977D01*
X0334477Y0374831D01*
X0339398Y0379753D01*
X0339663Y0379488D01*
X0339398Y0379753D02*
X0344320Y0384674D01*
X0345175Y0385000D01*
X0345304Y0385658D01*
X0350225Y0390580D01*
X0350686Y0390512D01*
X0347272Y0401406D02*
X0341367Y0401406D01*
X0337430Y0401406D01*
X0321682Y0417154D01*
X0318729Y0417154D01*
X0314792Y0421091D01*
X0301997Y0421091D01*
X0300028Y0423060D01*
X0299942Y0423553D01*
X0298060Y0420107D02*
X0297159Y0420770D01*
X0298060Y0420107D02*
X0300028Y0418139D01*
X0315776Y0418139D01*
X0320698Y0413217D01*
X0322666Y0408296D02*
X0325619Y0405343D01*
X0322666Y0408296D02*
X0303965Y0408296D01*
X0295107Y0417154D01*
X0294375Y0417986D01*
X0295767Y0419378D02*
X0296091Y0419123D01*
X0301013Y0414202D01*
X0314792Y0414202D01*
X0313808Y0423060D02*
X0329556Y0423060D01*
X0346288Y0406328D01*
X0347272Y0401406D02*
X0389595Y0359083D01*
X0558887Y0359083D01*
X0559418Y0358926D01*
X0550835Y0418335D02*
X0550028Y0419123D01*
X0550028Y0440776D01*
X0549044Y0441761D01*
X0548221Y0442725D01*
X0543316Y0418335D02*
X0543139Y0418139D01*
X0510658Y0418139D01*
X0460032Y0534457D02*
X0459477Y0535265D01*
X0459477Y0540186D01*
X0448650Y0551013D01*
X0442745Y0551013D01*
X0441780Y0551406D01*
X0434261Y0551406D02*
X0420698Y0551406D01*
X0353965Y0484674D01*
X0350878Y0484674D01*
X0336575Y0470371D01*
X0336446Y0470304D01*
X0336446Y0466367D01*
X0334477Y0464398D01*
X0334477Y0449635D01*
X0334151Y0448780D01*
X0328049Y0442677D01*
X0333032Y0437694D02*
X0336280Y0440942D01*
X0339398Y0437824D01*
X0336280Y0440942D02*
X0339134Y0443797D01*
X0322666Y0452587D02*
X0321682Y0453572D01*
X0333493Y0465383D01*
X0332509Y0466367D01*
X0332509Y0471288D01*
X0345304Y0484083D01*
X0345304Y0561839D01*
X0345698Y0562213D01*
X0331592Y0475355D02*
X0325191Y0468954D01*
X0325191Y0468954D01*
X0327695Y0466450D01*
X0325191Y0468954D02*
X0321360Y0465123D01*
X0315983Y0465123D01*
X0300198Y0449338D01*
X0299942Y0449338D01*
X0301334Y0447946D02*
X0301997Y0448650D01*
X0304950Y0451603D01*
X0306918Y0451603D01*
X0302726Y0446554D02*
X0299901Y0443729D01*
X0296091Y0439595D01*
X0297076Y0435855D02*
X0300028Y0438808D01*
X0302981Y0438808D01*
X0305934Y0441761D01*
X0306902Y0442378D01*
X0308294Y0440986D02*
X0308887Y0441761D01*
X0310855Y0443729D01*
X0311839Y0443729D01*
X0321682Y0453572D01*
X0309686Y0439594D02*
X0308887Y0438808D01*
X0314792Y0432902D01*
X0308887Y0430934D02*
X0314792Y0425028D01*
X0332509Y0425028D01*
X0338414Y0419123D01*
X0313808Y0423060D02*
X0306918Y0429950D01*
X0306902Y0430513D01*
X0305510Y0429121D02*
X0304950Y0429950D01*
X0301997Y0432902D01*
X0301997Y0434871D01*
X0300520Y0431328D02*
X0297469Y0431328D01*
X0300520Y0431328D02*
X0304118Y0427729D01*
X0308887Y0430934D02*
X0308294Y0431905D01*
X0297076Y0435855D02*
X0292154Y0435855D01*
X0286052Y0420107D02*
X0286052Y0417957D01*
X0290199Y0413810D01*
X0289202Y0412233D02*
X0288807Y0412418D01*
X0289202Y0412233D02*
X0291170Y0410265D01*
X0293139Y0410265D01*
X0294123Y0409280D01*
X0293139Y0410265D02*
X0294123Y0411249D01*
X0294123Y0413217D01*
X0292154Y0415186D01*
X0291591Y0415202D01*
X0261643Y0422076D02*
X0243926Y0422076D01*
X0243268Y0422008D01*
X0270894Y0460461D02*
X0267942Y0463414D01*
X0266564Y0465383D01*
X0264792Y0468139D01*
X0247272Y0485658D01*
X0247272Y0488611D01*
X0308085Y0381314D02*
X0308296Y0378572D01*
X0308887Y0377784D01*
X0327587Y0362036D02*
X0334477Y0368926D01*
X0338414Y0368926D01*
X0339134Y0368993D01*
X0348257Y0362036D02*
X0350225Y0360068D01*
X0350329Y0360016D01*
X0351526Y0361213D02*
X0352194Y0361052D01*
X0354162Y0359083D01*
X0355146Y0359083D01*
X0355896Y0359515D01*
X0356131Y0360068D01*
X0357115Y0359083D01*
X0357115Y0358099D01*
X0357093Y0358318D01*
X0357115Y0359083D02*
X0358099Y0358099D01*
X0358099Y0357115D01*
X0358290Y0357121D01*
X0359083Y0358099D01*
X0363020Y0362036D01*
X0358099Y0358099D02*
X0360068Y0356131D01*
X0359487Y0355924D01*
X0328572Y0322666D02*
X0328572Y0320698D01*
X0319713Y0311839D01*
X0319713Y0298060D01*
X0216367Y0194713D01*
X0216367Y0171091D01*
X0215595Y0170682D01*
X0209477Y0170107D02*
X0209477Y0176997D01*
X0208524Y0177753D01*
X0209477Y0170107D02*
X0222272Y0157312D01*
X0310855Y0157312D01*
X0328572Y0139595D01*
X0358099Y0139595D01*
X0358926Y0139182D01*
X0359083Y0139595D01*
X0372863Y0153375D01*
X0372863Y0311839D01*
X0395200Y0292581D02*
X0395501Y0292154D01*
X0407312Y0280343D01*
X0420107Y0267548D01*
X0420534Y0267247D01*
X0439359Y0227115D02*
X0439792Y0226209D01*
X0444713Y0226209D01*
X0316761Y0334477D02*
X0313808Y0331524D01*
X0313394Y0331485D01*
X0312824Y0330540D01*
X0223257Y0240973D01*
X0223257Y0206524D01*
X0201453Y0184824D02*
X0200619Y0184871D01*
X0180934Y0206524D02*
X0180240Y0206037D01*
X0180934Y0206524D02*
X0222272Y0247863D01*
X0140580Y0329556D02*
X0140580Y0346288D01*
X0140048Y0347076D01*
D37*
X0209674Y0398650D03*
X0211249Y0463611D03*
X0204162Y0466367D03*
X0198847Y0471879D03*
X0193729Y0477784D03*
X0200422Y0483887D03*
X0219123Y0464989D03*
X0226603Y0470304D03*
X0233099Y0476013D03*
X0247272Y0488611D03*
X0252587Y0494713D03*
X0256721Y0501013D03*
X0259674Y0508099D03*
X0252784Y0513808D03*
X0246091Y0519517D03*
X0238808Y0520894D03*
X0232509Y0514989D03*
X0270894Y0460461D03*
D38*
X0276997Y0444910D03*
X0291170Y0441761D03*
X0296091Y0439595D03*
X0292154Y0435855D03*
X0297469Y0431328D03*
X0301997Y0434871D03*
X0314792Y0432902D03*
X0314792Y0414202D03*
X0320698Y0413217D03*
X0325619Y0405343D03*
X0325619Y0390580D03*
X0319713Y0390580D03*
X0315776Y0375816D03*
X0327587Y0362036D03*
X0337430Y0355146D03*
X0339398Y0360068D03*
X0349241Y0340383D03*
X0333493Y0338414D03*
X0364005Y0355146D03*
X0363020Y0362036D03*
X0344123Y0396091D03*
X0346288Y0406328D03*
X0338414Y0419123D03*
X0339398Y0437824D03*
X0322666Y0452587D03*
X0306918Y0451603D03*
X0287627Y0429753D03*
X0280343Y0429950D03*
X0274438Y0428965D03*
X0286052Y0420107D03*
X0294123Y0409280D03*
X0288217Y0376800D03*
X0280343Y0370894D03*
X0248847Y0371879D03*
X0258887Y0426013D03*
X0353965Y0484674D03*
X0448650Y0546091D03*
X0363020Y0580540D03*
X0347272Y0622863D03*
X0545107Y0453572D03*
X0510658Y0418139D03*
X0565776Y0364989D03*
X0621879Y0358099D03*
X0407312Y0280343D03*
X0372863Y0311839D03*
X0319713Y0298060D03*
X0222272Y0247863D03*
X0207509Y0261643D03*
X0223257Y0206524D03*
X0358099Y0084477D03*
X0365973Y0120894D03*
X0123847Y0364005D03*
X0083493Y0347272D03*
D39*
X0083493Y0353709D01*
X0083493Y0347272D02*
X0083493Y0346288D01*
X0068729Y0346288D01*
X0067942Y0345501D01*
X0067942Y0357312D02*
X0068729Y0358099D01*
X0075619Y0358099D01*
X0083493Y0365973D01*
X0083493Y0366820D01*
X0083493Y0365973D02*
X0090383Y0365973D01*
X0095304Y0361052D01*
X0096111Y0360855D01*
X0104083Y0357115D02*
X0114005Y0357115D01*
X0114753Y0357371D01*
X0114989Y0357115D01*
X0131721Y0357115D01*
X0132076Y0356150D01*
X0132706Y0356131D01*
X0132706Y0347272D01*
X0132528Y0347076D01*
X0136643Y0344320D02*
X0131721Y0339398D01*
X0109083Y0339398D01*
X0108729Y0338769D01*
X0114989Y0364005D02*
X0114753Y0364891D01*
X0114005Y0364989D01*
X0104162Y0364989D01*
X0104083Y0364595D01*
X0114989Y0364005D02*
X0123847Y0364005D01*
X0131721Y0364005D01*
X0132076Y0363198D01*
X0132706Y0363020D01*
X0136643Y0359083D01*
X0136643Y0344320D01*
X0084162Y0338769D02*
X0083493Y0339398D01*
X0083493Y0346288D01*
X0217284Y0490906D02*
X0219320Y0490973D01*
X0219320Y0502784D01*
X0218473Y0503238D01*
X0219320Y0490973D02*
X0217351Y0490973D01*
X0217284Y0490906D01*
X0219320Y0490973D02*
X0225225Y0490973D01*
X0225834Y0491422D01*
X0310855Y0392548D02*
X0311535Y0392852D01*
X0310855Y0389595D01*
X0298060Y0376800D01*
X0288217Y0376800D01*
X0277391Y0376800D01*
X0276800Y0375835D01*
X0274536Y0380048D02*
X0274044Y0380540D01*
X0265186Y0380540D01*
X0265186Y0373650D02*
X0265186Y0373060D01*
X0265186Y0373650D02*
X0268139Y0373650D01*
X0274536Y0380048D01*
X0276997Y0382509D01*
X0276800Y0382883D01*
X0277391Y0383690D01*
X0292154Y0383690D01*
X0292272Y0383611D01*
X0310869Y0384097D02*
X0310855Y0384674D01*
X0310855Y0389595D01*
X0310855Y0392548D01*
X0453072Y0541417D02*
X0452587Y0542154D01*
X0448650Y0546091D01*
X0366957Y0615973D02*
X0366957Y0622863D01*
X0367804Y0622863D01*
X0366957Y0615973D02*
X0360068Y0609083D01*
X0359871Y0608394D01*
X0360068Y0610068D01*
X0360068Y0637627D01*
X0359674Y0638020D01*
X0348257Y0637627D02*
X0348257Y0622863D01*
X0354694Y0622863D01*
X0348257Y0622863D02*
X0347272Y0622863D01*
X0340383Y0622863D01*
X0339398Y0621879D01*
X0338926Y0621721D01*
X0348257Y0637627D02*
X0347863Y0638020D01*
X0356131Y0600422D02*
X0356131Y0589398D01*
X0356032Y0589044D01*
X0356131Y0588414D01*
X0356131Y0571682D01*
X0355875Y0571485D01*
X0355146Y0570698D01*
X0346288Y0570698D01*
X0345698Y0569733D01*
X0343335Y0565776D02*
X0357115Y0565776D01*
X0362036Y0570698D01*
X0362922Y0571485D01*
X0363020Y0571682D01*
X0363020Y0580540D01*
X0363020Y0588414D01*
X0363552Y0589044D01*
X0364005Y0589398D01*
X0364005Y0600225D01*
X0363611Y0600422D01*
X0339398Y0596288D02*
X0338926Y0597154D01*
X0339398Y0596288D02*
X0339398Y0569713D01*
X0343335Y0565776D01*
X0541261Y0449685D02*
X0542154Y0450619D01*
X0545107Y0453572D01*
X0596721Y0366446D02*
X0596288Y0365973D01*
X0567745Y0365973D01*
X0566269Y0364497D01*
X0565776Y0364989D01*
X0566269Y0364497D02*
X0562824Y0361052D01*
X0562824Y0353178D01*
X0561839Y0352194D01*
X0561839Y0348257D01*
X0565776Y0344320D01*
X0566643Y0343473D01*
X0566761Y0343335D01*
X0584477Y0343335D01*
X0584871Y0342686D01*
X0585461Y0343335D01*
X0599241Y0343335D01*
X0599792Y0342824D01*
X0599241Y0350225D02*
X0599792Y0350304D01*
X0599241Y0350225D02*
X0585461Y0350225D01*
X0584871Y0350206D01*
X0584477Y0350225D01*
X0566761Y0350225D01*
X0566643Y0350520D01*
X0566761Y0351209D01*
X0566761Y0358099D01*
X0566938Y0358926D01*
X0607765Y0346564D02*
X0608099Y0346288D01*
X0635658Y0346288D01*
X0637233Y0346682D01*
X0636643Y0346288D01*
X0629753Y0339398D01*
X0622863Y0339398D01*
X0622469Y0338749D01*
X0622469Y0351859D02*
X0621879Y0352194D01*
X0621879Y0358099D01*
X0621879Y0359083D01*
X0636643Y0359083D01*
X0637233Y0358493D01*
X0621879Y0359083D02*
X0621879Y0365973D01*
X0621288Y0366446D01*
X0365973Y0130737D02*
X0365973Y0120894D01*
X0365973Y0111052D01*
X0366288Y0110107D01*
X0347272Y0109871D02*
X0347272Y0120894D01*
X0347292Y0121249D01*
X0347272Y0121879D01*
X0347272Y0131721D01*
X0347056Y0132076D01*
X0347272Y0131721D02*
X0358099Y0131721D01*
X0358926Y0131662D01*
X0361052Y0135658D02*
X0350225Y0135658D01*
X0349241Y0136643D01*
X0344320Y0136643D01*
X0340383Y0132706D01*
X0340009Y0132076D01*
X0340383Y0131721D01*
X0340383Y0121879D01*
X0339772Y0121249D01*
X0340383Y0120894D01*
X0340383Y0110068D01*
X0339792Y0109871D01*
X0343532Y0101898D02*
X0343335Y0101209D01*
X0338414Y0096288D01*
X0338414Y0084477D01*
X0337765Y0084280D01*
X0338414Y0083493D01*
X0345304Y0076603D01*
X0345304Y0067745D01*
X0345894Y0067548D01*
X0357706Y0067548D02*
X0358099Y0067745D01*
X0358099Y0084477D01*
X0351209Y0084477D01*
X0350875Y0084280D01*
X0358099Y0084477D02*
X0364989Y0084477D01*
X0365973Y0085461D01*
X0366288Y0085540D01*
X0365973Y0130737D02*
X0361052Y0135658D01*
M02*
